<svg width="516" height="328" viewBox="0 0 516 328" fill="none" xmlns="http://www.w3.org/2000/svg">
<path d="M253.196 237.918C253.196 237.918 253.196 233.391 264.061 233.391L263.608 226.147L238.709 228.411C238.709 228.411 234.634 229.769 234.181 238.824C233.729 247.878 242.33 245.615 242.33 245.615C249.574 244.709 245.047 237.013 242.33 237.918C239.614 238.824 243.123 240.635 242.783 241.993C242.444 243.351 241.425 243.351 239.614 242.898C237.803 242.446 234.181 233.391 243.236 233.391C252.29 233.391 253.196 237.918 253.196 237.918Z" fill="#861C01"/>
<path d="M264.056 233.391C274.921 233.391 274.921 237.918 274.921 237.918C274.921 237.918 275.827 233.391 284.881 233.391C293.936 233.391 290.314 242.446 288.503 242.898C286.692 243.351 285.674 243.351 285.334 241.993C284.995 240.635 288.503 238.824 285.787 237.918C283.07 237.013 278.543 244.709 285.787 245.615C285.787 245.615 294.389 247.878 293.936 238.824C293.483 229.769 289.409 228.411 289.409 228.411L264.509 226.147H263.603L264.056 233.391Z" fill="#861C01"/>
<path d="M314.871 24.3232C316.273 25.3359 317.32 26.7387 317.466 28.3721L317.482 28.7012C317.502 30.1521 317.813 31.2668 318.375 32.1475C318.936 33.0255 319.698 33.5945 320.482 34.0342C321.218 34.4467 322.132 34.8208 322.842 35.167C323.509 35.4926 324.128 35.8483 324.675 36.3242L324.905 36.5352C325.455 37.0706 325.954 38.0608 326.488 39.4033C326.988 40.6586 327.536 42.2688 328.139 43.6621C328.752 45.0801 329.507 46.4892 330.55 47.4766C331.636 48.5043 333.028 49.0638 334.782 48.7568C336.409 48.4722 337.595 47.7724 338.312 46.7549C339.026 45.7429 339.194 44.5291 339.008 43.3672C338.653 41.1562 336.983 38.9099 334.723 37.9395L334.502 37.8496C333.592 37.4982 333.054 37.057 332.675 36.5957C332.274 36.1083 332.03 35.5818 331.706 34.9385C331.445 34.4196 331.133 33.8364 330.648 33.3027C331.3 33.3591 331.986 33.4547 332.677 33.6025C334.602 34.015 336.468 34.8108 337.76 36.1875L338.011 36.4707C339.006 37.6653 340.011 38.3625 340.991 38.7988C341.951 39.2256 342.87 39.3913 343.595 39.5449C344.353 39.7057 344.879 39.8504 345.314 40.1641C345.725 40.4594 346.141 40.972 346.486 42.041C347.199 44.2472 346.94 46.6482 346.921 48.6943C346.916 49.189 346.927 49.6732 346.981 50.1113C347.035 50.5432 347.139 50.9887 347.354 51.376C347.582 51.7866 347.932 52.122 348.426 52.2939C348.894 52.4568 349.413 52.4447 349.945 52.3359C350.487 52.2253 350.991 52.0121 351.333 51.5996C351.692 51.1667 351.758 50.6585 351.715 50.2197C351.674 49.7988 351.527 49.369 351.37 48.9814C351.213 48.5915 351.009 48.1607 350.829 47.7607C350.448 46.9155 350.129 46.1164 350.073 45.3594C350.051 45.0551 350.07 44.7558 350.156 44.4619C350.249 44.6191 350.35 44.7796 350.46 44.9395C350.969 45.6783 351.695 46.4658 352.669 46.9873C353.097 47.2169 353.353 47.4423 353.523 47.6504C353.695 47.8598 353.808 48.0876 353.913 48.3682C354.092 48.8453 354.282 49.6951 354.847 50.4854L354.965 50.6426C355.548 51.381 357.249 53.399 357.86 55.5361C358.159 56.581 358.166 57.553 357.743 58.3887C357.349 59.1676 356.509 59.9721 354.826 60.6055L354.479 60.7295C351.438 61.7612 349.578 61.116 348.433 60.082C347.223 58.9899 346.652 57.3213 346.52 56.0996L346.204 53.1797L344.921 55.8213C344.213 57.2776 341.571 60.5177 336.806 61.4189L336.338 61.499C331.288 62.2674 327.822 59.7958 326.782 58.5693L325.967 57.6074L325.389 58.7285C324.682 60.0983 323.345 62.0601 321.668 63.4756C320.035 64.8535 318.239 65.5926 316.424 65.0557L316.248 65C313.536 64.074 312.518 62.9276 312.128 61.7695C311.756 60.6655 311.881 59.3956 312.111 57.8398L312.215 57.1553C312.512 55.2266 312.365 53.9866 311.998 52.749C311.824 52.1611 311.597 51.5669 311.372 50.9443C311.2 50.469 311.02 49.953 310.842 49.3564L310.664 48.7324C310.227 47.1103 310.342 44.9761 310.92 43.0117C311.255 41.8724 311.727 40.853 312.286 40.0498C312.311 41.0594 312.408 42.2086 312.621 43.3809C312.987 45.3886 313.708 47.5613 315.074 49.2041L315.355 49.5254C316.115 50.3457 316.423 51.1043 316.527 51.7959C316.635 52.5095 316.537 53.207 316.394 53.9355C316.263 54.5984 316.051 55.4342 316.094 56.1611C316.117 56.5577 316.213 56.9708 316.449 57.3604C316.656 57.7019 316.947 57.9852 317.311 58.2178L317.471 58.3135C319.341 59.3747 321.561 58.3383 322.835 56.8018C324.168 55.193 324.792 52.7206 323.366 50.3438C322.139 48.2984 321.762 47.6008 321.579 46.8418C321.486 46.4566 321.44 46.0361 321.385 45.3711C321.344 44.8797 321.3 44.2702 321.226 43.4863L321.141 42.6426C320.834 39.7772 318.729 38.7908 317.399 37.9062C316.7 37.4411 316.178 37.0066 315.861 36.3955C315.572 35.8371 315.402 35.0259 315.602 33.7178L315.646 33.4492C316.246 30.1584 316.025 27.3493 315.152 25.2275C314.995 24.8442 314.814 24.4832 314.614 24.1455C314.7 24.203 314.786 24.2619 314.871 24.3232Z" fill="#861C01" stroke="#280505" stroke-width="1.68842"/>
<path d="M212.098 24.3232C210.696 25.3359 209.648 26.7387 209.503 28.3721L209.486 28.7012C209.466 30.1521 209.156 31.2668 208.594 32.1475C208.033 33.0255 207.271 33.5945 206.486 34.0342C205.75 34.4467 204.837 34.8208 204.127 35.167C203.459 35.4926 202.841 35.8483 202.294 36.3242L202.063 36.5352C201.514 37.0706 201.015 38.0608 200.48 39.4033C199.981 40.6586 199.433 42.2688 198.83 43.6621C198.216 45.0801 197.462 46.4892 196.419 47.4766C195.333 48.5043 193.941 49.0638 192.187 48.7568C190.56 48.4722 189.373 47.7724 188.656 46.7549C187.943 45.7429 187.774 44.5291 187.961 43.3672C188.316 41.1562 189.986 38.9099 192.246 37.9395L192.467 37.8496C193.377 37.4982 193.915 37.057 194.294 36.5957C194.694 36.1083 194.939 35.5818 195.263 34.9385C195.524 34.4196 195.835 33.8364 196.32 33.3027C195.668 33.3591 194.982 33.4547 194.292 33.6025C192.366 34.015 190.501 34.8108 189.209 36.1875L188.958 36.4707C187.962 37.6653 186.958 38.3625 185.978 38.7988C185.018 39.2256 184.098 39.3913 183.374 39.5449C182.616 39.7057 182.09 39.8504 181.654 40.1641C181.244 40.4594 180.828 40.972 180.482 42.041C179.77 44.2472 180.028 46.6482 180.048 48.6943C180.053 49.189 180.042 49.6732 179.987 50.1113C179.933 50.5432 179.83 50.9887 179.615 51.376C179.387 51.7866 179.037 52.122 178.543 52.2939C178.075 52.4568 177.556 52.4447 177.023 52.3359C176.482 52.2253 175.978 52.0121 175.636 51.5996C175.276 51.1667 175.211 50.6585 175.254 50.2197C175.295 49.7988 175.442 49.369 175.599 48.9814C175.756 48.5915 175.959 48.1607 176.14 47.7607C176.521 46.9155 176.84 46.1164 176.896 45.3594C176.918 45.0551 176.898 44.7558 176.812 44.4619C176.72 44.6191 176.619 44.7796 176.509 44.9395C176 45.6783 175.273 46.4658 174.3 46.9873C173.871 47.2169 173.615 47.4423 173.445 47.6504C173.274 47.8598 173.161 48.0876 173.056 48.3682C172.877 48.8453 172.687 49.6951 172.122 50.4854L172.004 50.6426C171.421 51.381 169.72 53.399 169.108 55.5361C168.809 56.581 168.803 57.553 169.226 58.3887C169.62 59.1676 170.46 59.9721 172.143 60.6055L172.49 60.7295C175.531 61.7612 177.391 61.116 178.536 60.082C179.746 58.9899 180.317 57.3213 180.449 56.0996L180.765 53.1797L182.048 55.8213C182.755 57.2776 185.398 60.5177 190.163 61.4189L190.631 61.499C195.681 62.2674 199.146 59.7958 200.187 58.5693L201.002 57.6074L201.58 58.7285C202.287 60.0983 203.624 62.0601 205.301 63.4756C206.933 64.8535 208.73 65.5926 210.545 65.0557L210.721 65C213.433 64.074 214.45 62.9276 214.841 61.7695C215.213 60.6655 215.088 59.3956 214.857 57.8398L214.754 57.1553C214.457 55.2266 214.603 53.9866 214.971 52.749C215.145 52.1611 215.372 51.5669 215.597 50.9443C215.769 50.469 215.949 49.953 216.127 49.3564L216.305 48.7324C216.741 47.1103 216.627 44.9761 216.049 43.0117C215.714 41.8724 215.242 40.853 214.683 40.0498C214.658 41.0594 214.561 42.2086 214.348 43.3809C213.982 45.3886 213.26 47.5613 211.895 49.2041L211.613 49.5254C210.854 50.3457 210.546 51.1043 210.441 51.7959C210.333 52.5095 210.431 53.207 210.575 53.9355C210.706 54.5984 210.917 55.4342 210.875 56.1611C210.852 56.5577 210.756 56.9708 210.52 57.3604C210.312 57.7019 210.022 57.9852 209.658 58.2178L209.498 58.3135C207.628 59.3747 205.408 58.3383 204.134 56.8018C202.8 55.193 202.177 52.7206 203.603 50.3438C204.83 48.2984 205.207 47.6008 205.39 46.8418C205.482 46.4566 205.529 46.0361 205.584 45.3711C205.625 44.8797 205.669 44.2702 205.743 43.4863L205.828 42.6426C206.135 39.7772 208.239 38.7908 209.569 37.9062C210.269 37.4411 210.79 37.0066 211.107 36.3955C211.397 35.8371 211.567 35.0259 211.367 33.7178L211.322 33.4492C210.723 30.1584 210.944 27.3493 211.816 25.2275C211.974 24.8442 212.154 24.4832 212.354 24.1455C212.268 24.203 212.183 24.2619 212.098 24.3232Z" fill="#861C01" stroke="#280505" stroke-width="1.68842"/>
<circle cx="21.1349" cy="21.1349" r="21.1349" transform="matrix(-1 0 0 1 286.023 75.3564)" fill="#861C01"/>
<circle cx="17.5316" cy="17.5316" r="17.5316" transform="matrix(-1 0 0 1 282.43 82.5645)" fill="#861C01"/>
<circle cx="13.0252" cy="13.0252" r="13.0252" transform="matrix(-1 0 0 1 277.922 91.5781)" fill="#861C01"/>
<circle cx="9.14784" cy="9.14784" r="9.14784" transform="matrix(-1 0 0 1 274.039 99.333)" fill="#861C01"/>
<circle cx="5.52787" cy="5.52787" r="5.52787" transform="matrix(-1 0 0 1 270.414 106.572)" fill="#861C01"/>
<circle cx="3.22449" cy="3.22449" r="3.22449" transform="matrix(-1 0 0 1 268.117 111.177)" fill="#861C01"/>
<circle cx="288.516" cy="141.901" r="3.33592" fill="#861C01"/>
<circle cx="241.914" cy="141.901" r="3.33592" fill="#861C01"/>
<circle cx="264.353" cy="182.868" r="4.52515" fill="#861C01"/>
<path d="M289.479 115.174C280.301 113.64 280.106 121.042 280.567 124.203C282.361 136.508 332.932 140.883 347.157 118.43C358.833 100.003 345.831 81.4547 329.869 81.669C314.14 81.8801 306.841 95.4691 309.567 103.922C312.771 113.853 326.765 112.675 327.424 104.672C328.06 96.9582 321.363 97.6732 317.979 98.5203C320.226 95.5035 327.887 92.9168 331.356 100.195C334.575 106.949 330.33 114.395 315.072 117.124C301.188 119.607 299.53 116.855 289.479 115.174Z" fill="#861C01"/>
<path d="M239.631 116.361C248.808 114.826 249.003 122.229 248.543 125.389C246.749 137.695 196.177 142.069 181.952 119.617C170.277 101.189 183.278 82.6412 199.24 82.8555C214.969 83.0666 222.269 96.6557 219.542 105.108C216.339 115.04 202.345 113.861 201.685 105.859C201.049 98.1448 207.746 98.8598 211.13 99.7068C208.884 96.69 201.222 94.1033 197.754 101.381C194.535 108.135 198.78 115.581 214.037 118.31C227.921 120.794 229.579 118.042 239.631 116.361Z" fill="#861C01"/>
<path d="M264.883 118.682C271 118.682 275.938 120.178 281.008 128.905C285.064 135.887 289.015 135.361 290.483 134.225C287.99 136.884 279.179 138.215 274.441 137.716C269.704 137.217 269.787 132.895 273.028 132.396C276.27 131.898 277.932 131.482 276.021 126.661C274.491 122.805 268.591 121.342 264.883 121.342C261.174 121.342 255.274 122.804 253.744 126.661C251.832 131.482 253.495 131.898 256.736 132.396C259.978 132.895 260.061 137.217 255.323 137.716C250.585 138.214 241.775 136.884 239.281 134.225C240.75 135.361 244.701 135.887 248.757 128.905C253.827 120.178 258.947 118.682 264.883 118.682Z" fill="#861C01"/>
<path d="M273.055 140.227C269.522 136.902 268.328 133.751 268.172 132.591C268.172 141.578 280.716 155.211 283.912 150.097C287.029 145.11 277.471 144.383 273.055 140.227Z" fill="#861C01"/>
<path d="M271.315 145.448C268.05 140.717 266.354 136.221 266.359 135.051C265.12 143.952 272.169 162.037 277.155 158.646C281.535 155.668 275.43 151.408 271.315 145.448Z" fill="#861C01"/>
<path d="M256.718 140.228C260.251 136.903 261.446 133.752 261.602 132.592C261.602 141.579 249.057 155.212 245.861 150.098C242.744 145.111 252.303 144.384 256.718 140.228Z" fill="#861C01"/>
<path d="M257.802 145.448C261.068 140.717 262.763 136.221 262.758 135.051C263.997 143.952 256.948 162.037 251.962 158.646C247.582 155.668 253.687 151.408 257.802 145.448Z" fill="#861C01"/>
<path d="M264.546 136.174C264.966 140.647 266.305 151.44 268.294 158.833C270.779 168.074 267.673 170.433 264.546 170.433C261.5 170.433 258.312 168.074 260.798 158.833C262.786 151.44 264.125 140.647 264.546 136.174Z" fill="#861C01"/>
<circle cx="264.55" cy="131.2" r="5.0592" transform="rotate(-180 264.55 131.2)" fill="#861C01"/>
<circle cx="264.557" cy="131.2" r="2.95111" transform="rotate(-180 264.557 131.2)" fill="#861C01"/>
<circle cx="315.466" cy="141.903" r="20.7079" fill="#F2E3D4" stroke="#861C01" stroke-width="1.81402"/>
<circle cx="311.318" cy="144.34" r="11.2549" fill="#861C01" stroke="#861C01" stroke-width="0.985932"/>
<circle cx="309.898" cy="149.052" r="3.4425" fill="#F2E3D4" stroke="#280505" stroke-width="0.301564"/>
<circle cx="214.318" cy="141.903" r="20.7079" fill="#F2E3D4" stroke="#861C01" stroke-width="1.81402"/>
<circle cx="218.17" cy="144.34" r="11.2549" fill="#861C01" stroke="#861C01" stroke-width="0.985932"/>
<circle cx="219.835" cy="149.052" r="3.4425" fill="#F2E3D4" stroke="#280505" stroke-width="0.301564"/>
<mask id="path-30-inside-1_1104_79493" fill="white">
<path d="M378.657 126.395C379.429 133.471 380.033 148.347 376.271 151.24C371.57 154.857 377.001 158.9 373.015 163.195C369.03 167.491 366.972 172.084 370.139 173.046C373.307 174.008 374.302 169.701 374.446 164.465C374.59 159.229 378.896 161.204 381.376 152.848C383.342 146.223 383.537 143.616 383.386 143.121C385.322 149.124 387.981 161.729 383.166 164.23C377.142 167.36 384.845 174.744 377.077 181.148C369.309 187.553 375.5 193.93 378.765 185.554C382.03 177.176 383.992 172.237 391.404 172.037C397.333 171.878 397.371 176.531 396.649 178.877C396.133 177 394.093 174.317 389.089 176.812C380.577 181.055 384.435 191.036 379.024 195.145C371.756 200.663 366.582 197.783 368.413 202.503C370.244 207.223 380.918 193.362 385.882 200.283C383.326 200.439 378.292 202.665 375.742 209.369C372.729 217.292 360.818 211.031 357.803 216.501C354.164 223.104 369.271 212.074 372.256 219.236C369.79 218.401 364.451 219.616 360.677 224.604C356.37 230.295 351.749 224.362 348.178 226.025C351.435 227.526 357.34 231.138 354.414 233.939C353.009 231.546 347.905 228.147 342.127 231.304C334.903 235.25 319.53 222.663 305.57 227.663C293.464 232 268.288 239.63 264.526 219.032C260.765 239.629 235.591 232 223.484 227.663C209.524 222.663 194.151 235.25 186.928 231.304C181.149 228.146 176.044 231.546 174.639 233.939C171.714 231.138 177.618 227.526 180.876 226.025C177.304 224.362 172.684 230.295 168.378 224.604C164.603 219.616 159.264 218.401 156.799 219.236C159.784 212.074 174.89 223.104 171.252 216.501C168.237 211.03 156.325 217.292 153.311 209.369C150.761 202.665 145.728 200.439 143.173 200.283C148.136 193.362 158.811 207.223 160.641 202.503C162.472 197.783 157.299 200.663 150.03 195.145C144.619 191.036 148.476 181.055 139.965 176.812C134.96 174.317 132.921 177 132.405 178.877C131.683 176.531 131.721 171.878 137.65 172.037C145.062 172.237 147.023 177.176 150.288 185.554C153.553 193.931 159.745 187.553 151.977 181.148C144.209 174.744 151.911 167.36 145.887 164.23C141.072 161.728 143.731 149.124 145.667 143.121C145.517 143.616 145.711 146.223 147.678 152.848C150.158 161.204 154.463 159.229 154.607 164.465C154.751 169.701 155.747 174.007 158.914 173.046C162.081 172.084 160.023 167.491 156.038 163.195C152.052 158.899 157.484 154.857 152.782 151.24C149.021 148.347 149.624 133.471 150.396 126.395C151.457 126.976 153.706 129.223 154.218 133.564C154.857 138.992 153.721 139.049 161.918 145.727C170.115 152.404 161.422 154.439 168.158 160.292C174.894 166.145 170.634 166.191 173.033 169.173C176.667 173.69 181.978 167.494 176.991 164.742C173.002 162.54 172.875 156.87 173.036 154.141C176.32 161.821 181.136 157.937 183.679 163.938C186.223 169.941 189.472 176.896 191.761 173.105C193.869 169.617 187.854 170.945 187.905 165.798C187.946 161.68 183.205 155.636 180.829 153.129C191.055 155.76 187.45 160.026 197.464 167.276C207.478 174.527 203.489 182.683 210.763 182.12C216.293 181.692 213.145 173.603 211.076 170.522C231.606 182.593 222.961 192.57 232.032 192.727C239.288 192.852 233.886 184.371 230.277 180.114C245.339 187.849 241.683 197.262 249.577 195.729C255.893 194.503 250.714 185.929 247.335 181.795C254.339 186.289 258.496 191.523 260.968 196.094C261.001 196.156 261.034 196.218 261.067 196.279C261.62 197.241 262.96 198.642 264.526 198.699C266.093 198.643 267.434 197.241 267.987 196.279C268.02 196.218 268.053 196.156 268.087 196.094C270.559 191.523 274.715 186.289 281.719 181.795C278.34 185.929 273.161 194.503 279.476 195.729C287.371 197.262 283.715 187.849 298.777 180.114C295.169 184.371 289.766 192.852 297.022 192.727C306.093 192.57 297.447 182.593 317.977 170.522C315.908 173.603 312.76 181.692 318.29 182.12C325.565 182.683 321.576 174.527 331.59 167.276C341.604 160.026 337.999 155.76 348.224 153.129C345.849 155.636 341.108 161.68 341.149 165.798C341.2 170.945 335.185 169.617 337.292 173.105C339.581 176.896 342.831 169.941 345.375 163.938C347.918 157.937 352.735 161.82 356.018 154.141C356.179 156.87 356.052 162.541 352.062 164.742C347.075 167.494 352.387 173.69 356.021 169.173C358.42 166.191 354.16 166.145 360.895 160.292C367.631 154.439 358.938 152.404 367.136 145.727C375.333 139.049 374.196 138.992 374.836 133.564C375.347 129.223 377.596 126.976 378.657 126.395Z"/>
</mask>
<path d="M378.657 126.395C379.429 133.471 380.033 148.347 376.271 151.24C371.57 154.857 377.001 158.9 373.015 163.195C369.03 167.491 366.972 172.084 370.139 173.046C373.307 174.008 374.302 169.701 374.446 164.465C374.59 159.229 378.896 161.204 381.376 152.848C383.342 146.223 383.537 143.616 383.386 143.121C385.322 149.124 387.981 161.729 383.166 164.23C377.142 167.36 384.845 174.744 377.077 181.148C369.309 187.553 375.5 193.93 378.765 185.554C382.03 177.176 383.992 172.237 391.404 172.037C397.333 171.878 397.371 176.531 396.649 178.877C396.133 177 394.093 174.317 389.089 176.812C380.577 181.055 384.435 191.036 379.024 195.145C371.756 200.663 366.582 197.783 368.413 202.503C370.244 207.223 380.918 193.362 385.882 200.283C383.326 200.439 378.292 202.665 375.742 209.369C372.729 217.292 360.818 211.031 357.803 216.501C354.164 223.104 369.271 212.074 372.256 219.236C369.79 218.401 364.451 219.616 360.677 224.604C356.37 230.295 351.749 224.362 348.178 226.025C351.435 227.526 357.34 231.138 354.414 233.939C353.009 231.546 347.905 228.147 342.127 231.304C334.903 235.25 319.53 222.663 305.57 227.663C293.464 232 268.288 239.63 264.526 219.032C260.765 239.629 235.591 232 223.484 227.663C209.524 222.663 194.151 235.25 186.928 231.304C181.149 228.146 176.044 231.546 174.639 233.939C171.714 231.138 177.618 227.526 180.876 226.025C177.304 224.362 172.684 230.295 168.378 224.604C164.603 219.616 159.264 218.401 156.799 219.236C159.784 212.074 174.89 223.104 171.252 216.501C168.237 211.03 156.325 217.292 153.311 209.369C150.761 202.665 145.728 200.439 143.173 200.283C148.136 193.362 158.811 207.223 160.641 202.503C162.472 197.783 157.299 200.663 150.03 195.145C144.619 191.036 148.476 181.055 139.965 176.812C134.96 174.317 132.921 177 132.405 178.877C131.683 176.531 131.721 171.878 137.65 172.037C145.062 172.237 147.023 177.176 150.288 185.554C153.553 193.931 159.745 187.553 151.977 181.148C144.209 174.744 151.911 167.36 145.887 164.23C141.072 161.728 143.731 149.124 145.667 143.121C145.517 143.616 145.711 146.223 147.678 152.848C150.158 161.204 154.463 159.229 154.607 164.465C154.751 169.701 155.747 174.007 158.914 173.046C162.081 172.084 160.023 167.491 156.038 163.195C152.052 158.899 157.484 154.857 152.782 151.24C149.021 148.347 149.624 133.471 150.396 126.395C151.457 126.976 153.706 129.223 154.218 133.564C154.857 138.992 153.721 139.049 161.918 145.727C170.115 152.404 161.422 154.439 168.158 160.292C174.894 166.145 170.634 166.191 173.033 169.173C176.667 173.69 181.978 167.494 176.991 164.742C173.002 162.54 172.875 156.87 173.036 154.141C176.32 161.821 181.136 157.937 183.679 163.938C186.223 169.941 189.472 176.896 191.761 173.105C193.869 169.617 187.854 170.945 187.905 165.798C187.946 161.68 183.205 155.636 180.829 153.129C191.055 155.76 187.45 160.026 197.464 167.276C207.478 174.527 203.489 182.683 210.763 182.12C216.293 181.692 213.145 173.603 211.076 170.522C231.606 182.593 222.961 192.57 232.032 192.727C239.288 192.852 233.886 184.371 230.277 180.114C245.339 187.849 241.683 197.262 249.577 195.729C255.893 194.503 250.714 185.929 247.335 181.795C254.339 186.289 258.496 191.523 260.968 196.094C261.001 196.156 261.034 196.218 261.067 196.279C261.62 197.241 262.96 198.642 264.526 198.699C266.093 198.643 267.434 197.241 267.987 196.279C268.02 196.218 268.053 196.156 268.087 196.094C270.559 191.523 274.715 186.289 281.719 181.795C278.34 185.929 273.161 194.503 279.476 195.729C287.371 197.262 283.715 187.849 298.777 180.114C295.169 184.371 289.766 192.852 297.022 192.727C306.093 192.57 297.447 182.593 317.977 170.522C315.908 173.603 312.76 181.692 318.29 182.12C325.565 182.683 321.576 174.527 331.59 167.276C341.604 160.026 337.999 155.76 348.224 153.129C345.849 155.636 341.108 161.68 341.149 165.798C341.2 170.945 335.185 169.617 337.292 173.105C339.581 176.896 342.831 169.941 345.375 163.938C347.918 157.937 352.735 161.82 356.018 154.141C356.179 156.87 356.052 162.541 352.062 164.742C347.075 167.494 352.387 173.69 356.021 169.173C358.42 166.191 354.16 166.145 360.895 160.292C367.631 154.439 358.938 152.404 367.136 145.727C375.333 139.049 374.196 138.992 374.836 133.564C375.347 129.223 377.596 126.976 378.657 126.395Z" fill="#861C01"/>
<path d="M378.657 126.395L380.46 126.198L380.166 123.499L377.785 124.804L378.657 126.395ZM376.271 151.24L375.165 149.802L375.165 149.802L376.271 151.24ZM373.015 163.195L371.686 161.962L371.686 161.962L373.015 163.195ZM370.139 173.046L369.612 174.782L369.612 174.782L370.139 173.046ZM374.446 164.465L372.633 164.415V164.415L374.446 164.465ZM381.376 152.848L383.115 153.364L383.115 153.364L381.376 152.848ZM383.386 143.121L385.113 142.564L381.651 143.648L383.386 143.121ZM383.166 164.23L384.002 165.84L384.002 165.84L383.166 164.23ZM377.077 181.148L378.231 182.548L378.231 182.548L377.077 181.148ZM378.765 185.554L380.456 186.212L380.456 186.212L378.765 185.554ZM391.404 172.037L391.355 170.224H391.355L391.404 172.037ZM396.649 178.877L394.9 179.358L396.551 185.363L398.383 179.411L396.649 178.877ZM389.089 176.812L388.279 175.188L388.279 175.188L389.089 176.812ZM379.024 195.145L380.121 196.589L380.121 196.589L379.024 195.145ZM368.413 202.503L366.722 203.159L366.722 203.159L368.413 202.503ZM385.882 200.283L385.992 202.094L389.269 201.894L387.356 199.226L385.882 200.283ZM375.742 209.369L374.046 208.724V208.724L375.742 209.369ZM357.803 216.501L356.214 215.625L356.214 215.625L357.803 216.501ZM372.256 219.236L371.674 220.954L375.473 222.242L373.93 218.538L372.256 219.236ZM360.677 224.604L362.123 225.699L362.123 225.699L360.677 224.604ZM348.178 226.025L347.412 224.381L343.861 226.034L347.419 227.673L348.178 226.025ZM354.414 233.939L352.849 234.858L354.011 236.837L355.668 235.25L354.414 233.939ZM342.127 231.304L341.257 229.712L341.257 229.712L342.127 231.304ZM305.57 227.663L304.958 225.955L305.57 227.663ZM264.526 219.032L266.311 218.706L262.742 218.706L264.526 219.032ZM223.484 227.663L222.872 229.371H222.872L223.484 227.663ZM186.928 231.304L186.058 232.896L186.058 232.896L186.928 231.304ZM174.639 233.939L173.385 235.25L175.042 236.837L176.204 234.858L174.639 233.939ZM180.876 226.025L181.635 227.673L185.192 226.034L181.642 224.381L180.876 226.025ZM168.378 224.604L166.931 225.699L166.931 225.699L168.378 224.604ZM156.799 219.236L155.124 218.538L153.581 222.241L157.381 220.954L156.799 219.236ZM171.252 216.501L172.84 215.625L172.84 215.625L171.252 216.501ZM153.311 209.369L155.007 208.724L155.007 208.724L153.311 209.369ZM143.173 200.283L141.699 199.226L139.785 201.894L143.062 202.094L143.173 200.283ZM160.641 202.503L158.95 201.847L160.641 202.503ZM150.03 195.145L148.933 196.589H148.933L150.03 195.145ZM139.965 176.812L140.774 175.188H140.774L139.965 176.812ZM132.405 178.877L130.671 179.411L132.503 185.363L134.154 179.358L132.405 178.877ZM137.65 172.037L137.699 170.224L137.699 170.224L137.65 172.037ZM150.288 185.554L148.598 186.212L148.598 186.212L150.288 185.554ZM151.977 181.148L153.131 179.749L153.131 179.749L151.977 181.148ZM145.887 164.23L145.051 165.84L145.051 165.84L145.887 164.23ZM145.667 143.121L147.403 143.648L143.94 142.564L145.667 143.121ZM147.678 152.848L145.938 153.364L145.938 153.364L147.678 152.848ZM154.607 164.465L156.421 164.415L156.421 164.415L154.607 164.465ZM158.914 173.046L159.441 174.782L159.441 174.782L158.914 173.046ZM156.038 163.195L157.368 161.962L157.368 161.962L156.038 163.195ZM152.782 151.24L153.888 149.802L153.888 149.802L152.782 151.24ZM150.396 126.395L151.268 124.804L148.887 123.499L148.593 126.198L150.396 126.395ZM154.218 133.564L156.019 133.352L156.019 133.352L154.218 133.564ZM161.918 145.727L160.772 147.133L160.772 147.133L161.918 145.727ZM168.158 160.292L166.968 161.661L166.968 161.661L168.158 160.292ZM173.033 169.173L171.62 170.31L171.62 170.31L173.033 169.173ZM176.991 164.742L176.114 166.33L176.115 166.33L176.991 164.742ZM173.036 154.141L174.704 153.427L171.225 154.034L173.036 154.141ZM183.679 163.938L185.35 163.231L185.35 163.231L183.679 163.938ZM191.761 173.105L193.314 174.043L193.314 174.043L191.761 173.105ZM187.905 165.798L186.091 165.78V165.78L187.905 165.798ZM180.829 153.129L181.281 151.372L175.177 149.801L179.512 154.377L180.829 153.129ZM197.464 167.276L196.4 168.746L196.4 168.746L197.464 167.276ZM210.763 182.12L210.903 183.929L210.903 183.929L210.763 182.12ZM211.076 170.522L211.995 168.959L209.57 171.534L211.076 170.522ZM232.032 192.727L232.001 194.54L232.001 194.54L232.032 192.727ZM230.277 180.114L231.106 178.501L228.893 181.287L230.277 180.114ZM249.577 195.729L249.923 197.51H249.923L249.577 195.729ZM247.335 181.795L248.314 180.268L245.93 182.943L247.335 181.795ZM260.968 196.094L262.563 195.231L262.563 195.231L260.968 196.094ZM261.067 196.279L259.466 197.132L259.48 197.158L259.494 197.183L261.067 196.279ZM264.526 198.699L264.46 200.512L264.526 200.514L264.592 200.512L264.526 198.699ZM267.987 196.279L269.56 197.183L269.574 197.158L269.588 197.132L267.987 196.279ZM268.087 196.094L266.491 195.231V195.231L268.087 196.094ZM281.719 181.795L283.124 182.943L280.74 180.268L281.719 181.795ZM279.476 195.729L279.131 197.51L279.131 197.51L279.476 195.729ZM298.777 180.114L300.161 181.287L297.948 178.501L298.777 180.114ZM297.022 192.727L297.054 194.54H297.054L297.022 192.727ZM317.977 170.522L319.483 171.534L317.058 168.959L317.977 170.522ZM318.29 182.12L318.15 183.929L318.15 183.929L318.29 182.12ZM331.59 167.276L330.526 165.807L331.59 167.276ZM348.224 153.129L349.541 154.377L353.877 149.801L347.772 151.372L348.224 153.129ZM341.149 165.798L342.963 165.78V165.78L341.149 165.798ZM337.292 173.105L335.739 174.043L335.739 174.043L337.292 173.105ZM345.375 163.938L343.705 163.231L343.705 163.231L345.375 163.938ZM356.018 154.141L357.829 154.034L354.35 153.427L356.018 154.141ZM352.062 164.742L351.186 163.154V163.154L352.062 164.742ZM356.021 169.173L357.435 170.31L357.435 170.31L356.021 169.173ZM360.895 160.292L359.705 158.923L360.895 160.292ZM367.136 145.727L368.281 147.133V147.133L367.136 145.727ZM374.836 133.564L373.034 133.352V133.352L374.836 133.564ZM378.657 126.395L376.854 126.591C377.233 130.068 377.569 135.459 377.352 140.305C377.243 142.733 376.998 144.956 376.576 146.708C376.129 148.566 375.575 149.487 375.165 149.802L376.271 151.24L377.377 152.678C378.848 151.547 379.63 149.523 380.103 147.557C380.602 145.485 380.863 143.004 380.976 140.467C381.205 135.383 380.853 129.798 380.46 126.198L378.657 126.395ZM376.271 151.24L375.165 149.802C373.693 150.935 372.887 152.218 372.57 153.633C372.274 154.948 372.445 156.235 372.577 157.208C372.723 158.279 372.835 159.046 372.743 159.808C372.663 160.478 372.414 161.176 371.686 161.962L373.015 163.195L374.345 164.429C375.61 163.066 376.176 161.649 376.345 160.24C376.504 158.922 376.299 157.647 376.172 156.719C376.033 155.692 375.976 155.021 376.11 154.427C376.221 153.932 376.499 153.354 377.377 152.678L376.271 151.24ZM373.015 163.195L371.686 161.962C369.618 164.19 367.914 166.632 367.179 168.784C366.815 169.85 366.609 171.074 366.955 172.227C367.343 173.517 368.319 174.389 369.612 174.782L370.139 173.046L370.667 171.31C370.49 171.256 370.437 171.205 370.437 171.205C370.435 171.203 370.437 171.205 370.439 171.208C370.44 171.21 370.436 171.204 370.429 171.183C370.395 171.07 370.359 170.697 370.612 169.957C371.11 168.499 372.427 166.497 374.345 164.429L373.015 163.195ZM370.139 173.046L369.612 174.782C370.832 175.152 372.057 175.055 373.114 174.37C374.091 173.737 374.703 172.745 375.104 171.77C375.901 169.834 376.187 167.165 376.259 164.515L374.446 164.465L372.633 164.415C372.562 167.001 372.278 169.103 371.749 170.389C371.487 171.025 371.248 171.256 371.142 171.325C371.118 171.34 371.031 171.421 370.667 171.31L370.139 173.046ZM374.446 164.465L376.259 164.515C376.288 163.484 376.508 162.979 376.742 162.635C377.036 162.202 377.432 161.876 378.216 161.203C378.954 160.569 379.865 159.753 380.75 158.496C381.634 157.241 382.447 155.614 383.115 153.364L381.376 152.848L379.637 152.332C379.064 154.26 378.409 155.519 377.784 156.407C377.16 157.294 376.52 157.878 375.853 158.45C375.233 158.982 374.371 159.667 373.74 160.597C373.048 161.617 372.676 162.827 372.633 164.415L374.446 164.465ZM381.376 152.848L383.115 153.364C384.11 150.01 384.669 147.634 384.96 146.005C385.106 145.192 385.189 144.543 385.222 144.039C385.25 143.622 385.266 143.067 385.122 142.594L383.386 143.121L381.651 143.648C381.582 143.423 381.63 143.379 381.602 143.797C381.58 144.128 381.519 144.638 381.389 145.366C381.129 146.821 380.608 149.06 379.637 152.332L381.376 152.848ZM383.386 143.121L381.66 143.678C382.6 146.593 383.707 151.096 383.998 155.12C384.144 157.139 384.076 158.924 383.742 160.29C383.404 161.673 382.873 162.338 382.329 162.621L383.166 164.23L384.002 165.84C385.866 164.872 386.809 163.024 387.266 161.151C387.728 159.263 387.776 157.053 387.617 154.858C387.298 150.453 386.108 145.652 385.113 142.564L383.386 143.121ZM383.166 164.23L382.33 162.621C380.32 163.664 379.337 165.183 378.987 166.938C378.68 168.472 378.875 170.217 378.965 171.581C379.064 173.074 379.087 174.428 378.713 175.749C378.354 177.019 377.594 178.371 375.923 179.749L377.077 181.148L378.231 182.548C380.443 180.724 381.634 178.751 382.204 176.737C382.759 174.775 382.688 172.886 382.585 171.341C382.474 169.667 382.358 168.579 382.544 167.649C382.686 166.939 382.999 166.361 384.002 165.84L383.166 164.23ZM377.077 181.148L375.923 179.749C373.784 181.512 372.478 183.378 371.885 185.137C371.309 186.849 371.364 188.657 372.319 189.964C372.809 190.635 373.523 191.134 374.392 191.308C375.253 191.481 376.113 191.304 376.872 190.908C378.345 190.138 379.564 188.499 380.456 186.212L378.765 185.554L377.075 184.895C376.334 186.797 375.555 187.502 375.191 187.692C375.032 187.776 375.014 187.733 375.104 187.751C375.202 187.771 375.251 187.827 375.248 187.824C375.219 187.783 374.979 187.319 375.323 186.296C375.652 185.32 376.485 183.987 378.231 182.548L377.077 181.148ZM378.765 185.554L380.456 186.212C382.124 181.932 383.333 178.901 384.952 176.854C386.426 174.991 388.255 173.937 391.453 173.85L391.404 172.037L391.355 170.224C387.142 170.337 384.284 171.852 382.107 174.603C380.076 177.171 378.672 180.798 377.075 184.895L378.765 185.554ZM391.404 172.037L391.453 173.85C392.704 173.817 393.482 174.042 393.958 174.301C394.415 174.55 394.693 174.883 394.873 175.275C395.275 176.151 395.206 177.398 394.915 178.343L396.649 178.877L398.383 179.411C398.814 178.009 399.087 175.757 398.169 173.76C397.689 172.715 396.89 171.768 395.695 171.116C394.519 170.475 393.068 170.178 391.355 170.224L391.404 172.037ZM396.649 178.877L398.398 178.396C398.054 177.144 397.168 175.475 395.356 174.579C393.478 173.65 391.093 173.786 388.279 175.188L389.089 176.812L389.898 178.435C392.089 177.343 393.226 177.573 393.748 177.831C394.336 178.122 394.728 178.734 394.9 179.358L396.649 178.877ZM389.089 176.812L388.279 175.188C383.248 177.696 381.924 181.982 381.122 185.64C380.705 187.543 380.453 189.11 379.963 190.564C379.497 191.948 378.887 192.971 377.927 193.7L379.024 195.145L380.121 196.589C381.867 195.264 382.803 193.498 383.401 191.723C383.976 190.018 384.307 188.054 384.666 186.417C385.415 182.997 386.418 180.17 389.898 178.435L389.089 176.812ZM379.024 195.145L377.927 193.7C374.606 196.221 371.828 196.806 369.811 197.378C369.311 197.52 368.768 197.686 368.285 197.91C367.799 198.136 367.224 198.488 366.798 199.087C365.872 200.39 366.244 201.928 366.722 203.159L368.413 202.503L370.104 201.847C369.666 200.717 369.999 200.846 369.755 201.189C369.671 201.308 369.617 201.292 369.814 201.2C370.014 201.107 370.315 201.006 370.801 200.868C372.731 200.321 376.173 199.587 380.121 196.589L379.024 195.145ZM368.413 202.503L366.722 203.159C367.143 204.244 367.971 205.048 369.163 205.264C370.152 205.443 371.131 205.158 371.883 204.861C373.38 204.27 375.271 203.058 376.872 202.143C378.635 201.135 380.226 200.367 381.578 200.169C382.218 200.075 382.724 200.124 383.137 200.281C383.535 200.432 383.969 200.73 384.408 201.34L385.882 200.283L387.356 199.226C386.553 198.107 385.568 197.323 384.425 196.889C383.297 196.461 382.14 196.42 381.053 196.579C378.951 196.886 376.828 197.99 375.072 198.993C373.156 200.087 371.725 201.023 370.55 201.487C369.966 201.717 369.773 201.687 369.808 201.694C370.046 201.737 370.141 201.942 370.104 201.847L368.413 202.503ZM385.882 200.283L385.771 198.473C382.486 198.673 376.843 201.371 374.046 208.724L375.742 209.369L377.437 210.014C379.741 203.959 384.167 202.205 385.992 202.094L385.882 200.283ZM375.742 209.369L374.046 208.724C373.495 210.173 372.598 210.917 371.439 211.364C370.17 211.853 368.587 211.987 366.72 212.041C364.981 212.092 362.887 212.069 361.11 212.412C359.263 212.768 357.336 213.59 356.214 215.625L357.803 216.501L359.391 217.377C359.777 216.677 360.469 216.23 361.797 215.974C363.196 215.704 364.833 215.726 366.826 215.668C368.69 215.613 370.838 215.485 372.745 214.749C374.76 213.971 376.482 212.526 377.437 210.014L375.742 209.369ZM357.803 216.501L356.214 215.625C355.954 216.096 355.739 216.558 355.601 217.001C355.47 217.421 355.356 217.985 355.479 218.585C355.624 219.287 356.055 219.856 356.665 220.186C357.184 220.468 357.722 220.518 358.094 220.521C358.835 220.526 359.692 220.332 360.447 220.135C361.224 219.933 362.166 219.649 363.035 219.405C364.896 218.883 366.693 218.466 368.149 218.528C368.852 218.558 369.363 218.699 369.726 218.907C370.058 219.097 370.356 219.394 370.581 219.934L372.256 219.236L373.93 218.538C373.409 217.288 372.582 216.363 371.531 215.76C370.511 215.175 369.38 214.95 368.304 214.904C366.201 214.813 363.889 215.398 362.055 215.912C361.077 216.187 360.275 216.431 359.532 216.624C358.767 216.824 358.329 216.894 358.118 216.893C358.014 216.892 358.163 216.871 358.394 216.997C358.716 217.171 358.96 217.498 359.033 217.856C359.086 218.112 359.018 218.229 359.064 218.081C359.103 217.957 359.196 217.731 359.391 217.377L357.803 216.501ZM372.256 219.236L372.838 217.518C371.068 216.919 368.656 217.129 366.299 218.046C363.88 218.988 361.326 220.741 359.23 223.51L360.677 224.604L362.123 225.699C363.802 223.48 365.805 222.132 367.615 221.427C369.487 220.699 370.978 220.719 371.674 220.954L372.256 219.236ZM360.677 224.604L359.23 223.51C358.351 224.671 357.587 225.081 356.975 225.232C356.315 225.395 355.571 225.323 354.614 225.071C354.134 224.945 353.657 224.789 353.118 224.617C352.601 224.452 352.024 224.271 351.443 224.135C350.288 223.866 348.848 223.712 347.412 224.381L348.178 226.025L348.943 227.67C349.293 227.507 349.77 227.471 350.62 227.669C351.042 227.767 351.49 227.906 352.014 228.073C352.517 228.234 353.098 228.424 353.689 228.579C354.871 228.891 356.314 229.132 357.843 228.755C359.42 228.366 360.849 227.383 362.123 225.699L360.677 224.604ZM348.178 226.025L347.419 227.673C348.98 228.392 351.061 229.571 352.365 230.81C353.034 231.445 353.307 231.917 353.374 232.181C353.394 232.26 353.451 232.35 353.159 232.629L354.414 233.939L355.668 235.25C356.84 234.128 357.255 232.716 356.89 231.283C356.571 230.035 355.712 228.985 354.863 228.179C353.133 226.536 350.633 225.159 348.936 224.378L348.178 226.025ZM354.414 233.939L355.978 233.021C355.035 231.414 353.042 229.707 350.505 228.827C347.889 227.919 344.632 227.868 341.257 229.712L342.127 231.304L342.996 232.896C345.4 231.583 347.584 231.653 349.316 232.254C351.127 232.883 352.388 234.072 352.849 234.858L354.414 233.939ZM342.127 231.304L341.257 229.712C340.04 230.377 338.272 230.446 335.694 229.919C333.138 229.397 330.247 228.398 326.916 227.357C320.452 225.337 312.572 223.228 304.958 225.955L305.57 227.663L306.182 229.371C312.528 227.098 319.315 228.782 325.833 230.82C328.993 231.807 332.173 232.903 334.967 233.474C337.74 234.041 340.602 234.204 342.996 232.896L342.127 231.304ZM305.57 227.663L304.958 225.955C298.903 228.124 289.861 231.004 281.946 230.884C278.01 230.825 274.528 230.023 271.85 228.185C269.225 226.383 267.177 223.451 266.311 218.706L264.526 219.032L262.742 219.358C263.756 224.913 266.265 228.751 269.797 231.176C273.276 233.564 277.55 234.446 281.891 234.512C290.532 234.642 300.131 231.538 306.182 229.371L305.57 227.663ZM264.526 219.032L262.742 218.706C261.875 223.45 259.827 226.382 257.202 228.185C254.524 230.023 251.043 230.825 247.107 230.884C239.193 231.004 230.151 228.124 224.096 225.955L223.484 227.663L222.872 229.371C228.923 231.538 238.522 234.642 247.162 234.512C251.503 234.446 255.777 233.564 259.256 231.176C262.787 228.751 265.296 224.913 266.311 219.358L264.526 219.032ZM223.484 227.663L224.096 225.955C216.482 223.228 208.602 225.337 202.139 227.357C198.807 228.398 195.917 229.396 193.361 229.919C190.783 230.446 189.014 230.377 187.797 229.712L186.928 231.304L186.058 232.896C188.453 234.204 191.315 234.041 194.087 233.474C196.881 232.902 200.061 231.807 203.221 230.819C209.74 228.782 216.526 227.098 222.872 229.371L223.484 227.663ZM186.928 231.304L187.797 229.712C184.422 227.868 181.165 227.919 178.548 228.826C176.012 229.707 174.018 231.414 173.075 233.021L174.639 233.939L176.204 234.858C176.665 234.072 177.926 232.883 179.738 232.254C181.47 231.653 183.654 231.583 186.058 232.896L186.928 231.304ZM174.639 233.939L175.894 232.629C175.603 232.35 175.659 232.26 175.679 232.181C175.746 231.917 176.019 231.445 176.688 230.81C177.993 229.571 180.074 228.392 181.635 227.673L180.876 226.025L180.117 224.378C178.42 225.159 175.92 226.536 174.19 228.179C173.341 228.985 172.483 230.035 172.164 231.283C171.798 232.716 172.213 234.128 173.385 235.25L174.639 233.939ZM180.876 226.025L181.642 224.381C180.206 223.712 178.766 223.866 177.611 224.135C177.029 224.27 176.452 224.452 175.935 224.617C175.397 224.789 174.919 224.945 174.44 225.071C173.483 225.323 172.739 225.395 172.08 225.232C171.467 225.081 170.703 224.671 169.824 223.51L168.378 224.604L166.931 225.699C168.205 227.383 169.634 228.365 171.211 228.754C172.74 229.132 174.182 228.891 175.365 228.579C175.955 228.423 176.536 228.234 177.039 228.073C177.564 227.906 178.012 227.767 178.433 227.669C179.283 227.471 179.76 227.507 180.11 227.67L180.876 226.025ZM168.378 224.604L169.824 223.51C167.729 220.741 165.174 218.988 162.755 218.046C160.398 217.129 157.987 216.919 156.217 217.518L156.799 219.236L157.381 220.954C158.076 220.719 159.567 220.699 161.439 221.427C163.25 222.132 165.252 223.48 166.931 225.699L168.378 224.604ZM156.799 219.236L158.473 219.934C158.698 219.394 158.996 219.097 159.329 218.907C159.692 218.698 160.203 218.558 160.906 218.528C162.361 218.466 164.158 218.883 166.019 219.405C166.888 219.649 167.83 219.933 168.607 220.135C169.362 220.332 170.22 220.526 170.96 220.521C171.332 220.518 171.87 220.468 172.389 220.186C172.999 219.856 173.431 219.287 173.575 218.585C173.698 217.985 173.585 217.421 173.454 217.001C173.315 216.558 173.1 216.096 172.84 215.625L171.252 216.501L169.663 217.377C169.858 217.731 169.951 217.957 169.99 218.081C170.036 218.229 169.968 218.112 170.021 217.856C170.094 217.498 170.339 217.171 170.66 216.997C170.892 216.871 171.04 216.892 170.936 216.893C170.726 216.894 170.287 216.823 169.522 216.624C168.779 216.431 167.978 216.187 166.999 215.912C165.165 215.398 162.853 214.813 160.75 214.904C159.674 214.95 158.543 215.175 157.523 215.76C156.472 216.363 155.645 217.288 155.124 218.538L156.799 219.236ZM171.252 216.501L172.84 215.625C171.718 213.589 169.792 212.768 167.944 212.412C166.167 212.069 164.073 212.092 162.334 212.041C160.466 211.987 158.883 211.853 157.615 211.364C156.455 210.917 155.558 210.173 155.007 208.724L153.311 209.369L151.616 210.014C152.571 212.526 154.293 213.971 156.309 214.749C158.216 215.485 160.364 215.613 162.228 215.668C164.221 215.726 165.858 215.704 167.257 215.974C168.585 216.23 169.278 216.677 169.663 217.377L171.252 216.501ZM153.311 209.369L155.007 208.724C152.21 201.372 146.569 198.673 143.283 198.473L143.173 200.283L143.062 202.094C144.887 202.205 149.313 203.959 151.616 210.014L153.311 209.369ZM143.173 200.283L144.647 201.34C145.085 200.73 145.519 200.432 145.917 200.281C146.33 200.124 146.836 200.075 147.476 200.169C148.829 200.367 150.419 201.136 152.182 202.143C153.784 203.058 155.675 204.27 157.171 204.861C157.923 205.158 158.903 205.443 159.892 205.264C161.083 205.048 161.912 204.244 162.333 203.159L160.641 202.503L158.95 201.847C158.913 201.942 159.008 201.737 159.246 201.694C159.281 201.687 159.088 201.718 158.504 201.487C157.329 201.023 155.898 200.088 153.982 198.993C152.227 197.99 150.103 196.886 148.001 196.579C146.914 196.42 145.758 196.461 144.629 196.889C143.487 197.323 142.501 198.107 141.699 199.226L143.173 200.283ZM160.641 202.503L162.333 203.159C162.81 201.928 163.182 200.39 162.256 199.087C161.831 198.488 161.256 198.136 160.769 197.91C160.286 197.686 159.743 197.52 159.243 197.378C157.227 196.806 154.448 196.221 151.127 193.7L150.03 195.145L148.933 196.589C152.881 199.587 156.323 200.321 158.253 200.868C158.739 201.006 159.04 201.107 159.24 201.2C159.437 201.292 159.384 201.308 159.299 201.189C159.055 200.846 159.388 200.718 158.95 201.847L160.641 202.503ZM150.03 195.145L151.127 193.7C150.167 192.971 149.557 191.948 149.091 190.564C148.6 189.11 148.349 187.543 147.932 185.64C147.13 181.982 145.806 177.696 140.774 175.188L139.965 176.812L139.155 178.435C142.635 180.17 143.638 182.997 144.388 186.417C144.747 188.054 145.078 190.018 145.652 191.723C146.251 193.499 147.187 195.264 148.933 196.589L150.03 195.145ZM139.965 176.812L140.774 175.188C137.961 173.786 135.575 173.65 133.697 174.579C131.886 175.475 131 177.144 130.656 178.396L132.405 178.877L134.154 179.358C134.326 178.733 134.718 178.122 135.306 177.831C135.828 177.573 136.964 177.343 139.155 178.435L139.965 176.812ZM132.405 178.877L134.139 178.343C133.848 177.398 133.779 176.151 134.181 175.275C134.361 174.883 134.639 174.55 135.096 174.301C135.572 174.042 136.35 173.817 137.601 173.85L137.65 172.037L137.699 170.224C135.986 170.178 134.535 170.475 133.359 171.116C132.164 171.768 131.365 172.715 130.885 173.76C129.967 175.757 130.24 178.009 130.671 179.411L132.405 178.877ZM137.65 172.037L137.601 173.85C140.8 173.937 142.628 174.991 144.101 176.854C145.72 178.901 146.93 181.932 148.598 186.212L150.288 185.554L151.978 184.895C150.381 180.798 148.978 177.171 146.947 174.603C144.77 171.852 141.912 170.337 137.699 170.224L137.65 172.037ZM150.288 185.554L148.598 186.212C149.489 188.499 150.709 190.138 152.181 190.908C152.94 191.304 153.8 191.481 154.662 191.308C155.531 191.134 156.244 190.635 156.734 189.965C157.69 188.657 157.745 186.849 157.169 185.137C156.576 183.378 155.27 181.512 153.131 179.749L151.977 181.148L150.823 182.548C152.569 183.987 153.402 185.32 153.73 186.296C154.075 187.319 153.835 187.783 153.805 187.824C153.803 187.827 153.852 187.771 153.949 187.751C154.039 187.733 154.021 187.776 153.862 187.692C153.498 187.502 152.719 186.797 151.978 184.895L150.288 185.554ZM151.977 181.148L153.131 179.749C151.46 178.371 150.7 177.019 150.341 175.749C149.967 174.428 149.989 173.074 150.088 171.581C150.179 170.217 150.374 168.472 150.067 166.938C149.716 165.183 148.733 163.664 146.724 162.621L145.887 164.23L145.051 165.84C146.054 166.361 146.367 166.939 146.509 167.649C146.695 168.579 146.579 169.667 146.468 171.341C146.366 172.886 146.295 174.775 146.85 176.737C147.42 178.751 148.611 180.724 150.823 182.548L151.977 181.148ZM145.887 164.23L146.724 162.621C146.18 162.338 145.649 161.673 145.312 160.29C144.978 158.924 144.909 157.139 145.055 155.119C145.346 151.096 146.453 146.593 147.393 143.678L145.667 143.121L143.94 142.564C142.945 145.652 141.755 150.453 141.436 154.858C141.278 157.053 141.326 159.263 141.787 161.151C142.245 163.023 143.187 164.872 145.051 165.84L145.887 164.23ZM145.667 143.121L143.931 142.595C143.788 143.067 143.803 143.622 143.831 144.039C143.865 144.544 143.947 145.192 144.093 146.005C144.384 147.634 144.943 150.011 145.938 153.364L147.678 152.848L149.417 152.332C148.446 149.06 147.924 146.821 147.664 145.367C147.534 144.638 147.473 144.128 147.451 143.797C147.423 143.379 147.471 143.423 147.403 143.648L145.667 143.121ZM147.678 152.848L145.938 153.364C146.606 155.614 147.419 157.241 148.303 158.496C149.188 159.753 150.099 160.569 150.837 161.203C151.621 161.876 152.018 162.202 152.311 162.635C152.545 162.979 152.766 163.484 152.794 164.515L154.607 164.465L156.421 164.415C156.377 162.827 156.005 161.617 155.313 160.597C154.682 159.667 153.82 158.982 153.2 158.45C152.533 157.878 151.894 157.294 151.27 156.407C150.644 155.519 149.989 154.26 149.417 152.332L147.678 152.848ZM154.607 164.465L152.794 164.515C152.867 167.165 153.153 169.834 153.949 171.77C154.351 172.745 154.963 173.737 155.939 174.37C156.997 175.055 158.221 175.152 159.441 174.782L158.914 173.046L158.387 171.31C158.023 171.421 157.935 171.34 157.911 171.324C157.806 171.256 157.566 171.025 157.304 170.389C156.775 169.103 156.492 167.001 156.421 164.415L154.607 164.465ZM158.914 173.046L159.441 174.782C160.734 174.389 161.711 173.517 162.098 172.227C162.445 171.074 162.239 169.85 161.875 168.784C161.139 166.632 159.435 164.19 157.368 161.962L156.038 163.195L154.708 164.429C156.626 166.497 157.943 168.499 158.441 169.957C158.694 170.697 158.658 171.07 158.624 171.183C158.617 171.204 158.613 171.21 158.614 171.208C158.616 171.205 158.618 171.203 158.617 171.205C158.617 171.205 158.564 171.256 158.387 171.31L158.914 173.046ZM156.038 163.195L157.368 161.962C156.639 161.176 156.39 160.478 156.31 159.808C156.219 159.046 156.33 158.279 156.476 157.208C156.608 156.235 156.779 154.948 156.484 153.633C156.166 152.218 155.36 150.935 153.888 149.802L152.782 151.24L151.676 152.678C152.555 153.354 152.833 153.932 152.944 154.427C153.077 155.021 153.021 155.692 152.881 156.719C152.755 157.647 152.55 158.922 152.708 160.24C152.877 161.649 153.444 163.066 154.708 164.429L156.038 163.195ZM152.782 151.24L153.888 149.802C153.478 149.487 152.925 148.566 152.477 146.708C152.056 144.956 151.81 142.733 151.701 140.305C151.484 135.459 151.82 130.068 152.2 126.591L150.396 126.395L148.593 126.198C148.2 129.798 147.849 135.383 148.077 140.467C148.191 143.004 148.451 145.485 148.95 147.557C149.424 149.523 150.205 151.547 151.676 152.678L152.782 151.24ZM150.396 126.395L149.525 127.985C150.022 128.258 151.966 129.961 152.416 133.777L154.218 133.564L156.019 133.352C155.446 128.485 152.892 125.694 151.268 124.804L150.396 126.395ZM154.218 133.564L152.416 133.777C152.492 134.425 152.542 134.995 152.588 135.527C152.634 136.049 152.677 136.564 152.738 137.045C152.866 138.044 153.083 139.007 153.636 140.035C154.661 141.944 156.751 143.857 160.772 147.133L161.918 145.727L163.063 144.32C158.888 140.918 157.447 139.464 156.832 138.318C156.563 137.819 156.432 137.332 156.337 136.586C156.287 136.194 156.25 135.762 156.203 135.215C156.157 134.68 156.103 134.061 156.019 133.352L154.218 133.564ZM161.918 145.727L160.772 147.133C162.68 148.687 163.408 149.815 163.698 150.615C163.98 151.39 163.936 152.073 163.791 153.053C163.656 153.969 163.372 155.37 163.727 156.897C164.101 158.502 165.099 160.037 166.968 161.661L168.158 160.292L169.348 158.923C167.849 157.62 167.408 156.706 167.261 156.075C167.096 155.366 167.209 154.743 167.38 153.584C167.542 152.489 167.714 151.045 167.109 149.378C166.513 147.736 165.254 146.105 163.063 144.32L161.918 145.727ZM168.158 160.292L166.968 161.661C170.264 164.525 170.388 165.581 170.412 165.934C170.422 166.083 170.416 166.23 170.401 166.494C170.388 166.73 170.365 167.099 170.399 167.502C170.476 168.426 170.826 169.323 171.62 170.31L173.033 169.173L174.446 168.036C174.041 167.531 174.023 167.304 174.014 167.199C174.005 167.086 174.009 166.964 174.024 166.697C174.037 166.459 174.06 166.093 174.032 165.684C173.902 163.806 172.788 161.912 169.348 158.923L168.158 160.292ZM173.033 169.173L171.62 170.31C172.803 171.782 174.296 172.568 175.864 172.587C177.388 172.606 178.725 171.892 179.612 170.876C180.497 169.861 181.023 168.439 180.778 166.938C180.525 165.391 179.504 164.057 177.867 163.154L176.991 164.742L176.115 166.33C176.971 166.803 177.157 167.276 177.197 167.523C177.245 167.817 177.151 168.178 176.878 168.491C176.606 168.803 176.246 168.964 175.908 168.959C175.613 168.956 175.08 168.823 174.446 168.036L173.033 169.173ZM176.991 164.742L177.867 163.154C176.487 162.392 175.663 160.976 175.217 159.198C174.772 157.424 174.771 155.536 174.847 154.247L173.036 154.141L171.225 154.034C171.14 155.475 171.122 157.787 171.698 160.081C172.272 162.37 173.506 164.891 176.114 166.33L176.991 164.742ZM173.036 154.141L171.368 154.854C172.277 156.98 173.345 158.425 174.552 159.45C175.749 160.467 176.978 160.977 177.987 161.363C179.055 161.771 179.735 162.003 180.368 162.444C180.922 162.83 181.494 163.429 182.009 164.646L183.679 163.938L185.35 163.231C184.594 161.447 183.61 160.281 182.443 159.467C181.354 158.709 180.148 158.305 179.283 157.975C178.36 157.621 177.61 157.287 176.901 156.685C176.202 156.091 175.437 155.141 174.704 153.427L173.036 154.141ZM183.679 163.938L182.009 164.646C183.266 167.612 184.785 171.036 186.332 173.237C186.728 173.801 187.158 174.332 187.622 174.771C188.076 175.2 188.649 175.624 189.338 175.844C190.087 176.083 190.913 176.059 191.69 175.659C192.409 175.29 192.929 174.681 193.314 174.043L191.761 173.105L190.209 172.168C190.022 172.477 189.939 172.48 190.032 172.433C190.184 172.355 190.36 172.362 190.442 172.388C190.466 172.396 190.355 172.362 190.115 172.135C189.886 171.918 189.612 171.595 189.3 171.151C188.014 169.321 186.636 166.267 185.35 163.231L183.679 163.938ZM191.761 173.105L193.314 174.043C193.999 172.91 194.363 171.565 193.598 170.285C193.287 169.764 192.863 169.403 192.529 169.156C192.199 168.913 191.821 168.69 191.544 168.522C190.915 168.141 190.497 167.86 190.198 167.486C189.95 167.177 189.71 166.707 189.719 165.816L187.905 165.798L186.091 165.78C186.074 167.462 186.567 168.757 187.367 169.755C188.115 170.689 189.06 171.259 189.664 171.625C190.004 171.831 190.211 171.955 190.378 172.078C190.541 172.198 190.528 172.221 190.483 172.146C190.252 171.759 190.578 171.557 190.209 172.168L191.761 173.105ZM187.905 165.798L189.719 165.816C189.745 163.191 188.304 160.261 186.807 157.891C185.256 155.435 183.4 153.205 182.146 151.881L180.829 153.129L179.512 154.377C180.633 155.56 182.336 157.605 183.739 159.828C185.197 162.136 186.106 164.288 186.091 165.78L187.905 165.798ZM180.829 153.129L180.377 154.886C182.799 155.509 184.269 156.196 185.291 156.914C186.299 157.623 186.979 158.436 187.745 159.518C189.348 161.784 191.111 164.917 196.4 168.746L197.464 167.276L198.527 165.807C193.802 162.386 192.361 159.761 190.706 157.423C189.844 156.203 188.881 155.003 187.377 153.946C185.886 152.898 183.972 152.064 181.281 151.372L180.829 153.129ZM197.464 167.276L196.4 168.746C200.976 172.059 202.325 175.506 203.459 178.309C204.002 179.65 204.625 181.233 205.747 182.346C207.031 183.618 208.724 184.097 210.903 183.929L210.763 182.12L210.624 180.312C209.165 180.424 208.63 180.095 208.302 179.77C207.813 179.285 207.443 178.482 206.822 176.947C205.629 174.001 203.965 169.744 198.527 165.807L197.464 167.276ZM210.763 182.12L210.903 183.929C212.808 183.781 214.262 182.906 215.046 181.397C215.752 180.038 215.764 178.441 215.565 177.057C215.162 174.263 213.727 171.217 212.582 169.511L211.076 170.522L209.57 171.534C210.494 172.909 211.668 175.448 211.974 177.575C212.129 178.651 212.021 179.35 211.826 179.724C211.71 179.949 211.484 180.245 210.623 180.312L210.763 182.12ZM211.076 170.522L210.157 172.086C220.061 177.91 222.763 183.096 224.157 186.74C224.559 187.792 224.774 188.489 225.127 189.444C225.434 190.276 225.796 191.148 226.322 191.914C226.874 192.72 227.601 193.402 228.606 193.868C229.581 194.32 230.709 194.518 232.001 194.54L232.032 192.727L232.063 190.913C231.087 190.896 230.501 190.748 230.132 190.577C229.794 190.42 229.548 190.203 229.314 189.862C229.054 189.483 228.817 188.962 228.53 188.186C228.288 187.532 227.913 186.403 227.546 185.444C225.862 181.044 222.621 175.206 211.995 168.959L211.076 170.522ZM232.032 192.727L232.001 194.54C234.091 194.576 235.987 193.995 236.921 192.272C237.758 190.727 237.43 188.905 236.946 187.481C235.939 184.512 233.504 181.115 231.661 178.941L230.277 180.114L228.893 181.287C230.659 183.37 232.729 186.342 233.511 188.646C233.922 189.859 233.809 190.399 233.731 190.543C233.718 190.567 233.681 190.64 233.481 190.724C233.249 190.823 232.812 190.926 232.063 190.913L232.032 192.727ZM230.277 180.114L229.448 181.728C236.579 185.39 239.215 189.38 241.077 192.359C241.971 193.789 242.913 195.417 244.228 196.45C245.754 197.649 247.585 197.964 249.923 197.51L249.577 195.729L249.231 193.949C247.621 194.261 246.949 193.974 246.47 193.597C245.779 193.055 245.214 192.134 244.153 190.436C242.104 187.157 239.037 182.574 231.106 178.501L230.277 180.114ZM249.577 195.729L249.923 197.51C251.996 197.108 253.484 195.984 254.086 194.194C254.623 192.597 254.321 190.822 253.814 189.285C252.784 186.161 250.484 182.781 248.739 180.647L247.335 181.795L245.93 182.943C247.565 184.943 249.543 187.917 250.369 190.421C250.789 191.697 250.809 192.554 250.647 193.038C250.549 193.33 250.316 193.738 249.231 193.949L249.577 195.729ZM247.335 181.795L246.355 183.322C253.082 187.638 257.035 192.635 259.372 196.957L260.968 196.094L262.563 195.231C259.957 190.411 255.596 184.94 248.314 180.268L247.335 181.795ZM260.968 196.094L259.372 196.957C259.404 197.015 259.435 197.074 259.466 197.132L261.067 196.279L262.668 195.426C262.633 195.361 262.598 195.296 262.563 195.231L260.968 196.094ZM261.067 196.279L259.494 197.183C259.879 197.853 260.5 198.621 261.287 199.248C262.068 199.87 263.158 200.464 264.46 200.512L264.526 198.699L264.592 196.886C264.328 196.877 263.965 196.742 263.546 196.409C263.134 196.081 262.808 195.668 262.64 195.376L261.067 196.279ZM264.526 198.699L264.592 200.512C265.894 200.465 266.984 199.871 267.766 199.248C268.554 198.622 269.175 197.853 269.56 197.183L267.987 196.279L266.414 195.376C266.246 195.668 265.92 196.081 265.507 196.409C265.089 196.742 264.725 196.877 264.461 196.886L264.526 198.699ZM267.987 196.279L269.588 197.132C269.619 197.074 269.651 197.015 269.682 196.957L268.087 196.094L266.491 195.231C266.456 195.296 266.421 195.361 266.386 195.426L267.987 196.279ZM268.087 196.094L269.682 196.957C272.02 192.634 275.972 187.638 282.699 183.322L281.719 181.795L280.74 180.268C273.458 184.94 269.098 190.411 266.491 195.231L268.087 196.094ZM281.719 181.795L280.315 180.647C278.57 182.781 276.27 186.161 275.24 189.284C274.733 190.821 274.431 192.596 274.968 194.194C275.569 195.984 277.058 197.108 279.131 197.51L279.476 195.729L279.822 193.949C278.737 193.738 278.505 193.33 278.407 193.038C278.244 192.554 278.264 191.698 278.685 190.421C279.511 187.917 281.49 184.943 283.124 182.943L281.719 181.795ZM279.476 195.729L279.131 197.51C281.468 197.964 283.299 197.649 284.825 196.45C286.14 195.417 287.083 193.79 287.977 192.359C289.839 189.38 292.475 185.39 299.606 181.728L298.777 180.114L297.948 178.501C290.017 182.574 286.95 187.157 284.901 190.436C283.839 192.134 283.274 193.055 282.584 193.598C282.104 193.974 281.432 194.261 279.822 193.949L279.476 195.729ZM298.777 180.114L297.393 178.941C295.55 181.115 293.115 184.512 292.107 187.481C291.624 188.905 291.295 190.727 292.133 192.272C293.067 193.996 294.963 194.576 297.054 194.54L297.022 192.727L296.991 190.913C296.242 190.926 295.805 190.823 295.573 190.724C295.373 190.64 295.336 190.567 295.322 190.543C295.245 190.399 295.132 189.859 295.543 188.647C296.325 186.342 298.395 183.37 300.161 181.287L298.777 180.114ZM297.022 192.727L297.054 194.54C298.345 194.518 299.473 194.32 300.448 193.868C301.453 193.402 302.18 192.719 302.732 191.914C303.258 191.148 303.619 190.276 303.927 189.443C304.28 188.488 304.494 187.792 304.897 186.74C306.291 183.096 308.992 177.91 318.897 172.086L317.977 170.522L317.058 168.959C306.433 175.206 303.192 181.044 301.508 185.444C301.141 186.404 300.765 187.532 300.524 188.186C300.237 188.962 300 189.483 299.74 189.862C299.506 190.203 299.26 190.42 298.922 190.577C298.553 190.748 297.967 190.896 296.991 190.913L297.022 192.727ZM317.977 170.522L316.471 169.511C315.326 171.217 313.891 174.263 313.488 177.057C313.289 178.441 313.302 180.038 314.007 181.397C314.791 182.906 316.246 183.781 318.15 183.929L318.29 182.12L318.43 180.312C317.569 180.245 317.343 179.949 317.227 179.724C317.032 179.35 316.924 178.651 317.079 177.575C317.386 175.448 318.559 172.909 319.483 171.534L317.977 170.522ZM318.29 182.12L318.15 183.929C320.329 184.097 322.023 183.619 323.306 182.346C324.428 181.233 325.051 179.65 325.594 178.309C326.729 175.506 328.077 172.059 332.653 168.746L331.59 167.276L330.526 165.807C325.088 169.744 323.424 174.001 322.231 176.948C321.61 178.482 321.24 179.285 320.751 179.77C320.424 180.095 319.888 180.424 318.43 180.312L318.29 182.12ZM331.59 167.276L332.653 168.746C337.942 164.917 339.706 161.784 341.309 159.518C342.074 158.436 342.754 157.623 343.763 156.914C344.785 156.196 346.254 155.509 348.676 154.886L348.224 153.129L347.772 151.372C345.082 152.064 343.167 152.898 341.676 153.946C340.172 155.003 339.21 156.203 338.347 157.423C336.693 159.761 335.251 162.386 330.526 165.807L331.59 167.276ZM348.224 153.129L346.908 151.881C345.653 153.205 343.797 155.436 342.247 157.891C340.75 160.261 339.309 163.191 339.335 165.816L341.149 165.798L342.963 165.78C342.948 164.287 343.857 162.136 345.314 159.828C346.718 157.605 348.42 155.56 349.541 154.377L348.224 153.129ZM341.149 165.798L339.335 165.816C339.344 166.707 339.104 167.177 338.856 167.486C338.557 167.86 338.139 168.141 337.51 168.522C337.232 168.69 336.855 168.913 336.525 169.156C336.19 169.402 335.767 169.764 335.456 170.285C334.691 171.565 335.054 172.91 335.739 174.043L337.292 173.105L338.844 172.168C338.476 171.557 338.801 171.76 338.57 172.146C338.525 172.221 338.512 172.198 338.675 172.078C338.842 171.956 339.05 171.831 339.389 171.625C339.994 171.259 340.939 170.689 341.687 169.755C342.487 168.757 342.98 167.462 342.963 165.78L341.149 165.798ZM337.292 173.105L335.739 174.043C336.124 174.681 336.644 175.29 337.363 175.659C338.141 176.059 338.966 176.083 339.715 175.844C340.405 175.624 340.977 175.2 341.431 174.772C341.896 174.332 342.326 173.801 342.722 173.237C344.269 171.037 345.788 167.612 347.045 164.646L345.375 163.938L343.705 163.231C342.418 166.267 341.04 169.321 339.754 171.151C339.442 171.595 339.168 171.918 338.939 172.135C338.698 172.362 338.588 172.396 338.611 172.388C338.693 172.362 338.87 172.355 339.021 172.433C339.114 172.48 339.032 172.477 338.844 172.168L337.292 173.105ZM345.375 163.938L347.045 164.646C347.561 163.43 348.132 162.83 348.687 162.444C349.319 162.003 350 161.772 351.067 161.363C352.076 160.977 353.305 160.467 354.502 159.45C355.709 158.425 356.777 156.98 357.686 154.854L356.018 154.141L354.35 153.427C353.618 155.141 352.853 156.091 352.153 156.685C351.444 157.287 350.695 157.621 349.771 157.975C348.906 158.306 347.7 158.709 346.612 159.468C345.445 160.281 344.461 161.447 343.705 163.231L345.375 163.938ZM356.018 154.141L354.207 154.247C354.283 155.536 354.282 157.424 353.837 159.198C353.391 160.976 352.567 162.392 351.186 163.154L352.062 164.742L352.939 166.33C355.547 164.891 356.782 162.371 357.356 160.081C357.932 157.787 357.914 155.475 357.829 154.034L356.018 154.141ZM352.062 164.742L351.186 163.154C349.549 164.057 348.528 165.391 348.276 166.938C348.031 168.439 348.557 169.861 349.442 170.876C350.329 171.893 351.666 172.606 353.19 172.587C354.758 172.568 356.251 171.782 357.435 170.31L356.021 169.173L354.608 168.036C353.975 168.823 353.441 168.956 353.146 168.96C352.808 168.964 352.448 168.803 352.176 168.491C351.902 168.178 351.808 167.817 351.856 167.523C351.897 167.276 352.082 166.803 352.939 166.33L352.062 164.742ZM356.021 169.173L357.435 170.31C358.228 169.323 358.578 168.426 358.655 167.502C358.689 167.099 358.666 166.73 358.653 166.494C358.638 166.23 358.631 166.083 358.642 165.934C358.666 165.581 358.79 164.525 362.085 161.661L360.895 160.292L359.705 158.923C356.265 161.912 355.151 163.806 355.022 165.685C354.994 166.093 355.017 166.46 355.03 166.697C355.045 166.964 355.049 167.087 355.04 167.199C355.031 167.305 355.013 167.531 354.608 168.036L356.021 169.173ZM360.895 160.292L362.085 161.661C363.954 160.037 364.952 158.502 365.326 156.897C365.682 155.37 365.397 153.969 365.262 153.053C365.117 152.073 365.074 151.39 365.355 150.615C365.645 149.815 366.374 148.687 368.281 147.133L367.136 145.727L365.99 144.32C363.799 146.105 362.54 147.736 361.944 149.378C361.339 151.045 361.511 152.489 361.673 153.584C361.844 154.743 361.958 155.366 361.793 156.075C361.645 156.706 361.204 157.62 359.705 158.923L360.895 160.292ZM367.136 145.727L368.281 147.133C372.303 143.857 374.392 141.944 375.418 140.035C375.97 139.007 376.187 138.044 376.315 137.045C376.376 136.564 376.42 136.049 376.465 135.527C376.511 134.995 376.561 134.425 376.637 133.777L374.836 133.564L373.034 133.352C372.951 134.061 372.896 134.68 372.85 135.215C372.803 135.762 372.766 136.194 372.716 136.586C372.621 137.332 372.49 137.819 372.222 138.318C371.606 139.464 370.166 140.918 365.99 144.32L367.136 145.727ZM374.836 133.564L376.637 133.777C377.087 129.961 379.031 128.258 379.529 127.985L378.657 126.395L377.785 124.804C376.161 125.694 373.608 128.485 373.034 133.352L374.836 133.564Z" fill="#280505" mask="url(#path-30-inside-1_1104_79493)"/>
<path d="M305.15 73.9831C302.079 75.5955 300.869 82.4455 307.342 83.346C317.56 84.7676 320.585 67.9014 306.545 66.213C292.505 64.5247 284.04 78.9758 294.516 87.0067C304.571 94.7146 315.32 88.0021 318.874 83.8257" stroke="#861C01" stroke-width="6.18086" stroke-linecap="round"/>
<path d="M337.07 68.0864C320.657 66.6383 318.727 84.5043 318.727 84.5043C332.726 80.1598 341.762 82.1496 348.173 92.7132C348.173 92.7132 353.483 69.5346 337.07 68.0864Z" stroke="#861C01" stroke-width="4.52966"/>
<path d="M337.401 71.4682C338.928 71.7983 339.741 73.0624 339.513 74.1157C339.385 74.7103 338.887 75.5632 338.182 76.225C337.462 76.9019 336.737 77.1884 336.19 77.0703C335.644 76.9521 335.103 76.3921 334.726 75.478C334.358 74.5843 334.255 73.6018 334.384 73.0072C334.611 71.9539 335.874 71.1382 337.401 71.4682Z" fill="#861C01" stroke="#861C01" stroke-width="1.50989"/>
<path d="M326.68 75.4073C327.022 74.6485 328.061 74.2315 329.09 74.6954C329.627 74.9373 330.333 75.5033 330.836 76.1537C331.084 76.4746 331.255 76.7813 331.338 77.04C331.422 77.3004 331.398 77.4462 331.365 77.5193C331.332 77.5923 331.239 77.7062 330.989 77.8155C330.739 77.9242 330.397 77.9994 329.992 78.026C329.171 78.0799 328.28 77.9259 327.743 77.6842C326.714 77.2204 326.338 76.1662 326.68 75.4073Z" fill="#861C01" stroke="#861C01" stroke-width="1.50989"/>
<path d="M343.914 78.3028C343.572 77.544 342.533 77.1271 341.503 77.5909C340.967 77.8328 340.261 78.3988 339.758 79.0492C339.51 79.3701 339.339 79.6768 339.256 79.9355C339.172 80.1959 339.196 80.3417 339.228 80.4148C339.262 80.4878 339.355 80.6017 339.605 80.711C339.854 80.8197 340.197 80.8949 340.602 80.9215C341.422 80.9754 342.314 80.8214 342.851 80.5797C343.88 80.1159 344.256 79.0617 343.914 78.3028Z" fill="#861C01" stroke="#861C01" stroke-width="1.50989"/>
<path d="M305.15 73.9831C302.079 75.5955 300.869 82.4455 307.342 83.346C317.56 84.7676 320.585 67.9014 306.545 66.213C292.505 64.5247 284.04 78.9758 294.516 87.0067C304.571 94.7146 315.32 88.0021 318.874 83.8257" stroke="#861C01" stroke-width="6.18086" stroke-linecap="round"/>
<path d="M337.07 68.0864C320.657 66.6383 318.727 84.5043 318.727 84.5043C332.726 80.1598 341.762 82.1496 348.173 92.7132C348.173 92.7132 353.483 69.5346 337.07 68.0864Z" stroke="#861C01" stroke-width="4.52966"/>
<path d="M343.914 78.3028C343.572 77.544 342.533 77.1271 341.503 77.5909C340.967 77.8328 340.261 78.3988 339.758 79.0492C339.51 79.3701 339.339 79.6768 339.256 79.9355C339.172 80.1959 339.196 80.3417 339.228 80.4148C339.262 80.4878 339.355 80.6017 339.605 80.711C339.854 80.8197 340.197 80.8949 340.602 80.9215C341.422 80.9754 342.314 80.8214 342.851 80.5797C343.88 80.1159 344.256 79.0617 343.914 78.3028Z" fill="#861C01" stroke="#861C01" stroke-width="1.50989"/>
<path d="M223.49 73.9831C226.562 75.5955 227.772 82.4455 221.299 83.346C211.08 84.7676 208.056 67.9014 222.096 66.213C236.136 64.5247 244.6 78.9758 234.124 87.0067C224.07 94.7146 213.321 88.0021 209.766 83.8257" stroke="#861C01" stroke-width="6.18086" stroke-linecap="round"/>
<path d="M191.578 68.0864C207.991 66.6383 209.922 84.5043 209.922 84.5043C195.923 80.1598 186.887 82.1496 180.475 92.7132C180.475 92.7132 175.165 69.5346 191.578 68.0864Z" stroke="#861C01" stroke-width="4.52966"/>
<path d="M188.389 74.2752C188.727 75.8387 190.785 78.2021 192.609 77.8079C194.434 77.4137 195.333 74.4111 194.995 72.8476C194.657 71.2841 192.904 70.3362 191.08 70.7304C189.256 71.1246 188.051 72.7116 188.389 74.2752Z" fill="#861C01"/>
<path d="M199.248 74.0072C197.909 74.6108 196.051 76.6238 196.594 77.8292C197.138 79.0346 199.876 78.9759 201.216 78.3723C202.555 77.7686 203.2 76.3021 202.657 75.0967C202.114 73.8913 200.587 73.4035 199.248 74.0072Z" fill="#861C01"/>
<path d="M187.447 76.9027C188.786 77.5063 190.644 79.5193 190.101 80.7247C189.558 81.9301 186.819 81.8714 185.48 81.2678C184.14 80.6641 183.495 79.1976 184.038 77.9922C184.582 76.7869 186.108 76.299 187.447 76.9027Z" fill="#861C01"/>
<path d="M223.49 73.9831C226.562 75.5955 227.772 82.4455 221.299 83.346C211.08 84.7676 208.056 67.9014 222.096 66.213C236.136 64.5247 244.6 78.9758 234.124 87.0067C224.07 94.7146 213.321 88.0021 209.766 83.8257" stroke="#861C01" stroke-width="6.18086" stroke-linecap="round"/>
<path d="M191.578 68.0864C207.991 66.6383 209.922 84.5043 209.922 84.5043C195.923 80.1598 186.887 82.1496 180.475 92.7132C180.475 92.7132 175.165 69.5346 191.578 68.0864Z" stroke="#861C01" stroke-width="4.52966"/>
<path d="M187.447 76.9027C188.786 77.5063 190.644 79.5193 190.101 80.7247C189.558 81.9301 186.819 81.8714 185.48 81.2678C184.14 80.6641 183.495 79.1976 184.038 77.9922C184.582 76.7869 186.108 76.299 187.447 76.9027Z" fill="#861C01"/>
<path d="M221.397 107.9C223.137 105.58 221.397 101.52 221.397 101.52C221.397 101.52 221.977 98.0399 226.617 98.6199C231.256 99.1999 230.676 102.68 230.676 106.16C230.676 109.64 214.438 115.439 214.438 115.439C214.438 115.439 219.657 110.22 221.397 107.9Z" fill="#861C01"/>
<path d="M230.102 110.154C231.891 108.967 232.555 106.057 232.555 106.057C232.555 106.057 233.889 103.753 236.818 105.355C239.747 106.957 238.895 108.994 236.818 111.314C234.741 113.634 220.822 115.954 220.822 115.954C220.822 115.954 228.312 111.342 230.102 110.154Z" fill="#861C01"/>
<path d="M306.744 107.9C305.004 105.58 306.744 101.52 306.744 101.52C306.744 101.52 306.164 98.0399 301.524 98.6199C296.884 99.1999 297.464 102.68 297.464 106.16C297.464 109.64 313.703 115.439 313.703 115.439C313.703 115.439 308.483 110.22 306.744 107.9Z" fill="#861C01"/>
<path d="M298.039 110.154C296.249 108.967 295.585 106.057 295.585 106.057C295.585 106.057 294.251 103.753 291.323 105.355C288.394 106.957 289.246 108.994 291.323 111.314C293.399 113.634 307.318 115.954 307.318 115.954C307.318 115.954 299.829 111.342 298.039 110.154Z" fill="#861C01"/>
<ellipse cx="233.586" cy="100.875" rx="1.73989" ry="2.31985" transform="rotate(-8.70244 233.586 100.875)" fill="#861C01"/>
<ellipse cx="1.73989" cy="2.31985" rx="1.73989" ry="2.31985" transform="matrix(-0.988487 -0.151303 -0.151303 0.988487 296.305 98.8447)" fill="#861C01"/>
<path d="M264.899 204.461V215.638V224.686C264.899 224.686 256.916 233.734 241.481 229.476L241.658 227.352C241.658 227.352 239.884 228.939 237.755 229.476C235.626 230.013 223.384 227.352 219.126 224.159L219.404 222.03C210.61 222.03 203.159 218.827 199.433 212.973V228.408C199.433 228.408 188.007 219.526 185.743 201.26C185.743 201.26 180.805 198.067 180.805 189.551C180.805 181.035 186.965 178.59 186.965 178.59V182.337C192.787 176.81 200.518 177.818 205.288 186.36V193.118C207.431 190.85 210.252 189.297 213.804 190.086C227.11 193.28 224.016 202.869 224.016 202.869C225.685 199.994 228.073 197.546 231.368 197.546C239.352 197.546 242.279 205.53 242.279 205.53L242.741 213.514C243.145 207.595 243.578 207.221 246.803 204.461C250.529 201.272 257.4 201.607 264.899 204.461Z" fill="#F2E3D4"/>
<path d="M264.899 215.638V204.461C257.4 201.607 250.529 201.272 246.803 204.461C243.578 207.221 243.145 207.595 242.741 213.514M264.899 215.638C264.899 221.493 242.545 216.702 242.545 216.702M264.899 215.638V224.686C264.899 224.686 256.916 233.734 241.481 229.476L241.658 227.352M242.545 216.702C242.617 215.486 242.679 214.433 242.741 213.514M242.545 216.702L242.279 219.901M242.741 213.514L239.884 216.702M242.741 213.514L242.279 205.53C242.279 205.53 239.352 197.546 231.368 197.546C228.073 197.546 225.685 199.994 224.016 202.869M239.884 216.702L242.279 219.901M239.884 216.702C232.27 217.804 220.723 211.917 220.723 211.917M242.279 219.901L241.658 227.352M220.723 211.917C212.072 210.083 207.121 209.369 199.966 202.869M220.723 211.917C220.723 211.917 221.641 206.96 224.016 202.869M220.723 211.917L219.404 222.03M241.658 227.352C241.658 227.352 239.884 228.939 237.755 229.476C235.626 230.013 223.384 227.352 219.126 224.159L219.404 222.03M199.966 202.869L199.433 212.973M199.966 202.869C199.966 202.869 201.651 196.965 205.288 193.118M224.016 202.869C224.016 202.869 227.11 193.28 213.804 190.086C210.252 189.297 207.431 190.85 205.288 193.118M199.433 212.973C203.159 218.827 210.61 222.03 219.404 222.03M199.433 212.973V228.408C199.433 228.408 188.007 219.526 185.743 201.26M205.288 193.118V186.36C200.518 177.818 192.787 176.81 186.965 182.337M186.965 182.337C186.862 182.434 186.761 182.534 186.66 182.635C185.889 186.361 185.49 189.855 185.385 193.118M186.965 182.337V178.59C186.965 178.59 180.805 181.035 180.805 189.551M180.805 189.551C180.805 198.067 185.743 201.26 185.743 201.26M180.805 189.551L185.385 193.118M185.743 201.26C185.429 198.727 185.291 196.013 185.385 193.118" stroke="#861C01" stroke-width="1.66476"/>
<path d="M264.898 204.461V215.638V224.686C264.898 224.686 272.881 233.734 288.316 229.476L288.139 227.352C288.139 227.352 289.913 228.939 292.042 229.476C294.171 230.013 306.413 227.352 310.67 224.159L310.393 222.03C319.186 222.03 326.638 218.827 330.364 212.973V228.408C330.364 228.408 341.79 219.526 344.054 201.26C344.054 201.26 348.992 198.067 348.992 189.551C348.992 181.035 342.832 178.59 342.832 178.59V182.337C337.01 176.81 329.279 177.818 324.509 186.36V193.118C322.366 190.85 319.545 189.297 315.993 190.086C302.687 193.28 305.781 202.869 305.781 202.869C304.112 199.994 301.724 197.546 298.429 197.546C290.445 197.546 287.518 205.53 287.518 205.53L287.056 213.514C286.652 207.595 286.219 207.221 282.994 204.461C279.268 201.272 272.396 201.607 264.898 204.461Z" fill="#F2E3D4"/>
<path d="M264.898 215.638V204.461C272.396 201.607 279.268 201.272 282.994 204.461C286.219 207.221 286.652 207.595 287.056 213.514M264.898 215.638C264.898 221.493 287.252 216.702 287.252 216.702M264.898 215.638V224.686C264.898 224.686 272.881 233.734 288.316 229.476L288.139 227.352M287.252 216.702C287.18 215.486 287.118 214.433 287.056 213.514M287.252 216.702L287.518 219.901M287.056 213.514L289.913 216.702M287.056 213.514L287.518 205.53C287.518 205.53 290.445 197.546 298.429 197.546C301.724 197.546 304.112 199.994 305.781 202.869M289.913 216.702L287.518 219.901M289.913 216.702C297.527 217.804 309.074 211.917 309.074 211.917M287.518 219.901L288.139 227.352M309.074 211.917C317.725 210.083 322.676 209.369 329.831 202.869M309.074 211.917C309.074 211.917 308.156 206.96 305.781 202.869M309.074 211.917L310.393 222.03M288.139 227.352C288.139 227.352 289.913 228.939 292.042 229.476C294.171 230.013 306.413 227.352 310.67 224.159L310.393 222.03M329.831 202.869L330.364 212.973M329.831 202.869C329.831 202.869 328.146 196.965 324.509 193.118M305.781 202.869C305.781 202.869 302.687 193.28 315.993 190.086C319.545 189.297 322.366 190.85 324.509 193.118M330.364 212.973C326.638 218.827 319.186 222.03 310.393 222.03M330.364 212.973V228.408C330.364 228.408 341.79 219.526 344.054 201.26M324.509 193.118V186.36C329.279 177.818 337.01 176.81 342.832 182.337M342.832 182.337C342.934 182.434 343.036 182.534 343.137 182.635C343.908 186.361 344.307 189.855 344.412 193.118M342.832 182.337V178.59C342.832 178.59 348.992 181.035 348.992 189.551M348.992 189.551C348.992 198.067 344.054 201.26 344.054 201.26M348.992 189.551L344.412 193.118M344.054 201.26C344.368 198.727 344.505 196.013 344.412 193.118" stroke="#861C01" stroke-width="1.66476"/>
<path d="M246.801 165.537C245.006 165.488 244.056 165.526 243.531 166.937C243.531 166.937 242.596 169.741 244.932 169.741C247.269 169.741 246.801 165.537 246.801 165.537Z" fill="#861C01"/>
<path d="M264.556 174.876C251.941 174.875 254.277 155.257 240.727 159.463C231.382 165.537 239.325 175.816 246.801 174.415C254.277 173.013 251.473 164.136 246.801 165.537M246.801 165.537C245.006 165.488 244.056 165.526 243.531 166.937C243.531 166.937 242.596 169.741 244.932 169.741C247.269 169.741 246.801 165.537 246.801 165.537Z" stroke="#861C01" stroke-width="2.92284"/>
<path d="M281.848 165.537C283.642 165.488 284.592 165.526 285.118 166.937C285.118 166.937 286.052 169.741 283.716 169.741C281.38 169.741 281.848 165.537 281.848 165.537Z" fill="#861C01"/>
<path d="M264.092 174.876C276.708 174.875 274.371 155.257 287.922 159.463C297.266 165.537 289.323 175.816 281.848 174.415C274.372 173.013 277.175 164.136 281.848 165.537M281.848 165.537C283.642 165.488 284.592 165.526 285.118 166.937C285.118 166.937 286.052 169.741 283.716 169.741C281.38 169.741 281.848 165.537 281.848 165.537Z" stroke="#861C01" stroke-width="2.92284"/>
<mask id="mask0_1104_79493" style="mask-type:alpha" maskUnits="userSpaceOnUse" x="11" y="98" width="495" height="207">
<path d="M371.038 98.9219C371.181 99.0295 371.359 99.1717 371.565 99.3482C375.44 102.387 381.314 105.117 383.87 106.139C385.794 105.497 391.086 105.871 393.492 106.139C396.701 111.912 401.777 114.959 403.914 115.761C407.762 118.327 421.021 118.434 427.17 118.166C431.019 122.657 437.327 131.264 440 135.006C434.226 157.458 424.23 168.951 419.953 171.891C404.718 173.495 395.898 179.108 395.096 179.108C394.454 179.108 392.156 184.988 391.086 187.928C388.52 191.136 376.653 194.076 371.04 195.145C370.398 197.069 365.427 201.293 363.021 203.164C359.174 202.522 345.916 206.104 339.767 207.975C322.127 209.578 306.088 218.399 302.881 218.399C299.673 218.399 283.636 220.804 286.844 217.597C289.41 215.031 293.258 213.32 294.862 212.786C296.787 213.427 306.356 213.053 310.899 212.786C316.673 210.22 327.738 205.836 332.55 203.965C333.191 202.041 334.955 199.422 335.757 198.352C337.04 196.428 344.31 191.67 347.785 189.532C349.068 188.249 355.803 187.394 359.011 187.126C360.935 183.277 366.227 178.573 368.632 176.702C367.349 174.778 367.563 172.158 367.831 171.089C373.444 159.061 383.066 147.835 385.471 147.033C387.396 146.392 396.43 145.162 400.707 144.628C402.631 142.062 403.647 137.144 403.914 135.006C401.99 128.591 393.49 118.434 389.481 114.157C381.783 109.667 378.789 107.475 378.255 106.94C375.478 103.053 372.901 100.487 371.565 99.3482C371.385 99.2067 371.209 99.0646 371.038 98.9219Z" fill="#F84B17"/>
<path d="M499.61 160.42C499.522 160.801 499.43 161.151 499.337 161.467C499.337 161.241 499.436 160.878 499.61 160.42C500.786 155.332 501.296 144.76 495.327 135.808C494.793 135.273 492.922 133.081 489.714 128.591C484.369 123.78 471.592 113.676 463.253 111.752C461.649 110.683 456.036 108.224 446.414 106.941C447.216 106.406 451.065 105.978 460.046 108.544C462.986 108.544 470.47 109.667 476.885 114.158C480.092 114.692 486.667 115.922 487.309 116.563C488.111 117.365 496.931 125.383 496.931 128.591C496.931 131.531 497.733 137.893 500.94 139.817C503.079 142.757 506.714 149.279 504.148 151.845C502.827 154.046 500.418 158.279 499.61 160.42Z" fill="#F84B17"/>
<path d="M472.877 147.835L460.047 149.438C465.821 152.004 468.867 154.784 469.668 155.854C470.95 164.193 465.391 172.158 462.451 175.098C454.111 177.023 449.354 181.246 448.018 183.117C445.451 187.607 442.671 189.799 441.603 190.333C433.904 190.333 426.101 189.799 423.161 189.532C419.955 189.532 405.253 196.481 398.302 199.956C394.453 200.597 387.611 208.242 384.671 211.984L387.878 216.795L396.7 204.767C401.192 201.559 411.4 198.085 415.943 196.748C423.641 198.031 428.238 198.887 429.575 199.154C434.065 201.078 428.238 204.767 424.764 206.371C423.481 205.088 418.349 204.767 415.943 204.767C413.377 204.767 397.768 218.666 390.284 225.615C381.943 227.54 375.048 230.159 372.643 231.228C370.077 228.021 381.731 220.269 387.878 216.795L384.671 211.984C382.105 215.833 375.583 216.795 372.643 216.795C371.36 216.795 368.366 220.537 367.03 222.408C366.388 220.483 363.555 219.468 362.219 219.2C360.294 217.917 352.329 219.735 348.587 220.804C346.02 225.294 340.034 236.039 337.361 240.851C336.078 241.492 332.55 242.187 330.946 242.454C329.022 242.454 322.66 247.8 319.72 250.473C312.664 250.473 306.623 251.007 304.485 251.275C293.58 258.331 290.319 259.026 290.051 258.491C283.637 258.491 278.825 260.63 277.222 261.699C272.09 262.982 267.065 261.699 265.194 260.897C256.213 255.765 251.295 255.017 249.959 255.284C246.751 255.925 244.346 255.017 243.544 254.482C240.336 250.633 235.792 244.86 233.921 242.454C229.431 239.247 223.497 238.445 221.092 238.445C214.677 239.728 209.332 240.049 207.461 240.049C206.821 238.766 205.59 236.841 205.054 236.039C204.413 233.473 199.441 232.832 197.036 232.832C193.828 225.134 190.354 217.329 189.017 214.389C187.093 211.182 176.989 207.707 172.178 206.371C169.612 205.729 165.229 206.103 163.358 206.371C162.075 204.446 160.15 201.827 159.349 200.758C158.707 199.475 153.736 197.55 151.33 196.748C161.594 196.107 167.367 198.619 168.971 199.956C171.537 199.314 173.782 199.154 174.584 199.154C177.15 201.078 179.93 202.629 180.999 203.163C191.904 203.805 199.441 206.638 201.847 207.974C213.394 207.333 220.557 208.242 222.695 208.776C245.789 211.984 253.166 211.182 253.968 210.38C241.78 211.021 228.576 206.905 223.497 204.767C218.365 201.559 206.391 201.827 201.045 202.361C199.762 199.795 198.372 197.55 197.838 196.748C197.196 195.465 191.156 195.679 188.215 195.946C186.291 190.173 184.206 186.057 183.404 184.72C173.14 179.589 165.229 177.771 162.556 177.504C147.802 181.994 138.233 176.702 135.293 173.494C132.727 167.721 128.878 163.605 127.274 162.268C117.652 160.344 110.97 156.655 108.831 155.052C94.398 142.222 96.0017 134.203 99.2091 131.798C101.775 129.873 108.297 128.323 111.237 127.788C120.218 129.071 125.136 128.323 126.472 127.788C134.17 114.317 148.39 107.742 154.537 106.138C155.82 104.214 160.952 103.198 163.358 102.931C158.226 102.289 154.27 103.198 152.934 103.733C151.009 104.374 147.855 104 146.519 103.733C142.67 101.808 136.896 104.535 134.491 106.138C128.718 107.421 109.099 104.534 100.011 102.931C85.2568 99.7233 77.8262 101.06 75.9552 102.129C70.8233 104.695 62.0563 106.94 58.3143 107.742C55.7484 107.1 51.9004 113.355 50.2971 116.562L59.1176 120.572C60.4017 118.006 63.3937 115.226 64.7292 114.157C67.9366 111.591 76.2225 110.949 79.9645 110.949C85.0964 112.874 83.1719 115.493 81.5682 116.562C79.0023 117.845 76.7571 121.908 75.9552 123.779C76.5967 133.401 73.0151 134.203 71.1441 133.401C64.0877 130.194 60.1862 123.512 59.1176 120.572L50.2971 116.562C48.6934 119.77 58.3157 135.005 59.1176 136.609C59.7591 137.892 67.4034 141.42 71.1455 143.024C74.9944 149.438 86.1135 153.715 91.1919 155.052C101.456 160.183 115.248 174.296 120.861 180.711C120.219 181.994 122.197 189.264 123.266 192.739C124.549 194.022 130.216 197.55 132.889 199.154C138.662 205.569 141.709 210.38 142.511 211.983C141.869 217.115 134.225 215.725 130.483 214.389C126.634 211.182 118.188 213.587 114.446 215.191C113.804 215.832 109.367 221.873 107.229 224.813C102.739 219.681 94.6666 218.933 91.1919 219.2C82.8526 217.917 74.3529 209.578 71.1455 205.569C71.7869 207.493 75.1547 212.785 76.7585 215.191C79.3244 216.474 93.3302 227.486 100.012 232.832C103.861 233.473 113.377 237.376 117.653 239.247C133.049 246.303 142.244 248.602 144.916 248.869C148.765 248.227 155.608 248.602 158.548 248.869L162.556 246.464C156.141 246.464 150.261 245.929 148.122 245.662C142.991 242.454 134.225 237.91 130.483 236.039C138.182 236.039 141.709 236.574 142.511 236.841C152.135 240.049 163.358 240.851 165.763 240.851C167.688 240.851 180.999 247.8 187.414 251.275C185.489 253.841 170.04 249.136 162.556 246.464L158.548 248.869C170.095 252.076 185.811 258.224 192.226 260.897C196.717 262.18 204.254 259.828 207.461 258.491C210.669 257.208 225.904 257.422 233.121 257.689C236.97 257.048 253.435 262.768 261.186 265.708C276.582 265.708 288.449 264.639 292.458 264.104C296.307 264.104 310.634 265.173 317.316 265.708C321.806 264.425 335.759 262.501 342.174 261.699C345.381 261.057 349.925 258.224 351.796 256.888C363.984 260.736 375.05 262.233 379.059 262.501C381.625 261.859 391.889 257.422 396.7 255.284C397.342 254.642 399.64 251.809 400.709 250.473C402.634 249.19 416.479 247.8 423.161 247.265C427.01 244.058 440.268 238.979 446.415 236.841C450.264 233.634 462.453 226.417 468.066 223.21C481.697 214.389 492.121 199.956 491.319 199.154C490.678 198.512 484.103 203.163 480.895 205.569C478.971 210.059 472.075 217.062 468.867 220.002C461.811 220.644 454.167 225.615 451.226 228.021C444.17 231.87 437.06 231.763 434.387 231.228C432.463 231.228 431.447 229.09 431.18 228.021C431.822 226.096 435.189 221.873 436.793 220.002C441.925 218.078 448.554 215.458 451.226 214.389C456.358 205.408 457.107 202.094 456.84 201.559C452.991 197.069 451.494 192.739 451.226 191.135C454.434 187.928 461.651 182.315 464.858 179.909C468.867 171.089 479.292 155.052 480.093 153.448C480.735 152.165 475.55 149.171 472.877 147.835Z" fill="#F84B17"/>
<path d="M369.43 142.223C375.203 139.016 380.923 136.61 383.062 135.809C381.137 138.375 373.172 142.758 369.43 144.629C363.657 146.554 356.333 154.519 353.393 158.261C351.468 160.185 337.623 163.339 330.941 164.676C325.167 167.241 314.636 172.694 310.092 175.1C308.809 173.817 303.677 173.496 301.272 173.496C296.14 173.496 290.046 176.169 287.64 177.505C285.074 176.222 280.156 174.832 278.018 174.298C269.679 174.939 254.229 176.703 247.547 177.505C230.869 176.222 222.957 174.298 221.086 173.496C235.84 173.496 240.598 174.565 241.132 175.1C245.623 175.741 251.557 173.763 253.962 172.694C256.528 171.411 263.584 171.625 266.792 171.892C269.999 169.968 275.612 168.952 278.018 168.685C282.508 171.892 288.977 171.625 291.65 171.09C291.65 169.807 293.253 167.348 294.055 166.279C295.338 164.996 307.954 161.468 314.102 159.864C313.46 157.298 313.835 154.519 314.102 153.449C315.385 149.601 328.535 143.293 334.95 140.62C336.875 140.62 349.651 143.293 355.798 144.629C360.93 140.78 367.024 141.422 369.43 142.223Z" fill="#F84B17"/>
<path d="M208.249 167.882C208.891 168.524 213.863 170.288 215.467 170.288C209.693 171.571 195.42 169.486 189.807 168.684C179.383 164.675 170.83 162.269 168.959 162.269C163.346 162.269 156.128 154.251 160.138 156.656C163.345 158.581 168.424 159.062 170.562 159.062C173.128 159.703 175.908 160.933 176.977 161.467C183.392 158.26 187.134 157.993 188.203 158.26C189.486 158.26 194.619 163.071 197.024 165.477C197.024 165.477 197.826 163.873 201.032 163.873C204.24 163.873 207.445 167.079 208.248 167.882L208.249 167.882Z" fill="#F84B17"/>
<path d="M54.3004 187.928C58.1493 193.06 63.3881 196.481 65.5264 197.551C64.8849 198.192 60.9825 197.818 59.1115 197.551C58.47 196.268 54.0331 193.274 51.8948 191.937C43.5555 186.164 35.5903 182.048 32.6502 180.711C26.2353 167.24 16.613 159.061 12.6037 156.656C11.9622 155.373 11.2673 151.31 11 149.439C11.6415 146.873 17.1476 145.697 19.8204 145.43C17.896 148.637 17.4149 152.112 17.4149 153.448C21.9053 158.58 24.097 163.071 24.6316 164.674C25.9146 167.24 29.9773 168.416 31.8483 168.684C34.4143 169.967 38.2632 172.96 39.8669 174.297C41.7914 173.014 43.8762 172.693 44.6781 172.693C45.961 173.334 49.4892 177.237 51.0929 179.108C51.7344 182.957 53.4985 186.592 54.3004 187.928Z" fill="#F84B17"/>
<path d="M445.607 264.105C443.201 264.907 432.51 272.659 427.164 275.331C427.966 276.133 435.183 276.133 438.39 274.53C441.976 272.737 448.35 263.191 445.607 264.105Z" fill="#F84B17"/>
<path d="M395.088 284.954C398.937 288.161 410.591 283.617 415.937 280.944C413.371 286.076 400.969 288.963 395.088 289.765C389.957 288.482 373.705 291.369 366.221 292.972C344.41 293.614 330.404 297.516 326.128 299.387C315.222 298.104 294.321 300.991 285.233 302.595C280.742 302.595 264.117 300.456 256.366 299.387C251.875 298.746 237.389 302.862 230.706 305C223.008 302.434 191.148 299.12 176.18 297.783C173.614 294.576 167.093 292.705 164.153 292.17C157.738 292.17 150.521 288.963 152.927 288.963C154.851 288.963 161.213 289.498 164.153 289.765C166.077 287.84 170.301 288.428 172.172 288.963C181.794 292.17 187.941 292.438 189.812 292.17C191.095 292.17 196.227 288.428 198.633 286.557C201.199 283.991 217.877 285.488 225.896 286.557C231.028 289.765 237.657 292.17 240.33 292.972C242.895 291.689 247.279 290.299 249.15 289.765C260.055 291.048 267.058 290.299 269.196 289.765C273.687 286.557 280.155 281.479 282.828 279.341C288.601 279.341 295.925 278.806 298.865 278.539C313.619 275.331 320.515 276.133 322.119 276.935C331.1 283.991 346.175 283.617 352.59 282.548C355.797 281.907 361.945 286.023 364.618 288.161C367.825 290.085 379.318 286.825 384.664 284.954C390.438 283.029 394.019 284.152 395.088 284.954Z" fill="#F84B17"/>
<path d="M122.461 279.34C126.31 278.057 133.42 284.418 136.092 287.358C138.017 289.264 125.401 287.351 119.253 286.557C116.687 285.274 105.889 280.676 100.811 278.538C92.4713 275.331 86.6444 272.39 84.7734 271.321C95.0372 271.963 99.7415 274.796 100.811 276.132C106.584 279.981 117.65 279.874 122.461 279.34Z" fill="#F84B17"/>
<path d="M63.9207 259.294C62.0497 256.087 57.3455 249.832 53.4965 250.474C48.6854 251.275 59.1096 256.888 63.9207 259.294Z" fill="#F84B17"/>
</mask>
<g mask="url(#mask0_1104_79493)">
<rect x="-14.6641" y="50.6641" width="562.905" height="277.443" fill="url(#paint0_linear_1104_79493)"/>
</g>
<defs>
<linearGradient id="paint0_linear_1104_79493" x1="266.788" y1="50.6641" x2="266.788" y2="328.107" gradientUnits="userSpaceOnUse">
<stop stop-color="#FFA952"/>
<stop offset="0.4375" stop-color="#FF8127"/>
<stop offset="1" stop-color="#E84210"/>
</linearGradient>
</defs>
</svg>
