<svg width="516" height="354" viewBox="0 0 516 354" fill="none" xmlns="http://www.w3.org/2000/svg">
<g clip-path="url(#clip0_1109_84504)">
<path d="M327.922 285.09C338.368 262.835 320.857 242.826 314.47 226.728L321.951 231.238C337.453 255.236 337.223 267.063 336.993 277.397C336.764 287.731 330.678 287.042 317.588 304.495C307.116 318.458 310.539 364.814 313.563 367.494C310.348 367.609 303.78 367.471 303.229 366.001C302.54 364.164 303.58 322.867 306.45 314.14C308.747 307.159 321.722 291.865 327.922 285.09Z" fill="#FFE273"/>
<path d="M175.559 251.343C175.475 251.357 175.388 251.353 175.304 251.346L175.015 251.331L174.951 251.33L174.918 251.276C174.864 251.189 174.737 250.935 174.551 250.546C174.362 250.153 174.109 249.615 173.801 248.952C173.185 247.627 172.347 245.802 171.362 243.647C169.393 239.335 166.835 233.697 164.281 228.069C161.727 222.441 159.177 216.823 157.225 212.552C156.249 210.416 155.422 208.617 154.818 207.322C154.517 206.674 154.272 206.153 154.091 205.779C154.001 205.592 153.927 205.442 153.871 205.331C153.827 205.245 153.794 205.186 153.775 205.154C153.186 204.851 152.29 204.877 151.295 205.283C150.286 205.719 149.629 206.355 149.434 206.999C149.445 207.035 149.465 207.098 149.498 207.19C149.54 207.307 149.598 207.464 149.673 207.658C149.823 208.046 150.036 208.583 150.303 209.247C150.836 210.576 151.586 212.412 152.48 214.589C154.268 218.942 156.635 224.655 159.006 230.378C161.377 236.101 163.752 241.834 165.558 246.228C166.46 248.425 167.221 250.288 167.768 251.647C168.041 252.326 168.261 252.879 168.418 253.286C168.496 253.488 168.559 253.656 168.606 253.786L168.697 254.057L168.712 254.114L168.673 254.161L168.581 254.25C168.471 254.338 168.313 254.417 168.125 254.445C167.869 254.483 167.562 254.424 167.251 254.175L167.23 254.159L167.219 254.134C163.508 246.045 157.922 234.861 153.145 225.687C150.756 221.1 148.57 217.016 146.923 214.073C146.099 212.602 145.411 211.416 144.9 210.596C144.644 210.186 144.434 209.869 144.274 209.655C144.194 209.547 144.128 209.468 144.077 209.416C144.052 209.39 144.032 209.373 144.019 209.363C144.016 209.361 144.012 209.36 144.011 209.359C143.44 209.301 142.504 209.393 141.701 209.658C141.298 209.791 140.936 209.965 140.672 210.178C140.442 210.365 140.294 210.576 140.249 210.812L140.236 210.914L140.236 210.915C140.236 210.916 140.236 210.916 140.236 210.918C140.236 210.92 140.236 210.923 140.237 210.926C140.237 210.934 140.238 210.945 140.241 210.957C140.245 210.983 140.251 211.016 140.262 211.057C140.282 211.139 140.314 211.248 140.357 211.384C140.443 211.656 140.572 212.027 140.74 212.489C141.078 213.414 141.572 214.696 142.19 216.255C143.426 219.372 145.156 223.592 147.121 228.257C151.051 237.588 155.915 248.699 159.619 256.333L159.699 256.497L159.516 256.497L159.515 256.498L159.514 256.497C159.512 256.497 159.511 256.497 159.508 256.497C159.504 256.497 159.497 256.497 159.489 256.497C159.472 256.497 159.448 256.496 159.418 256.495C159.36 256.494 159.279 256.49 159.19 256.483C159.102 256.476 159.004 256.464 158.913 256.447C158.823 256.43 158.732 256.406 158.66 256.37L158.632 256.356L158.616 256.329C154.534 249.958 146.868 238.984 139.663 228.543C132.911 218.759 126.558 209.437 123.945 204.821L123.474 203.962C120.722 198.757 122.882 193.844 125.814 189.406C126.548 188.295 127.332 187.211 128.102 186.159C128.872 185.105 129.628 184.084 130.307 183.093C131.664 181.114 132.704 179.279 132.951 177.595C132.811 176.511 132.206 174.515 131.201 171.745C130.192 168.966 128.785 165.416 127.052 161.247C123.586 152.908 118.818 142.093 113.338 129.997C112.897 129.022 112.45 128.039 111.999 127.048L75.0766 53.1598L75.0618 53.13L75.0651 53.0978L75.0647 53.0969L75.0656 53.0965L75.0657 53.0944C75.0659 53.0923 75.0655 53.0887 75.0659 53.0847C75.0667 53.0767 75.0683 53.0645 75.0698 53.0491C75.0729 53.0178 75.0777 52.9713 75.0839 52.9126C75.0965 52.7946 75.1157 52.6242 75.1412 52.416C75.1924 51.9991 75.2699 51.4278 75.3766 50.8111C75.4833 50.1944 75.6191 49.5299 75.7867 48.9281C75.9327 48.4037 76.1047 47.9191 76.3058 47.5538L76.3942 47.4048C76.9897 46.4684 77.5441 45.5349 78.4413 44.71C79.285 43.9344 80.4275 43.2581 82.187 42.7477L82.5476 42.6474C84.5072 42.1287 86.6782 41.838 88.598 42.1394C90.5211 42.4414 92.2021 43.34 93.1553 45.2048L93.1616 45.217L93.0536 45.2576L93.1607 45.2174C101.668 68.3008 112.938 98.1972 122.73 123.295C127.626 135.843 132.152 147.193 135.777 155.89C137.59 160.238 139.178 163.923 140.474 166.764C141.764 169.591 142.761 171.574 143.403 172.543C144.803 173.595 146.762 174.108 149.005 174.419C151.26 174.733 153.764 174.841 156.262 175.104C161.077 175.61 165.82 176.691 168.227 180.988L168.453 181.414C169.488 183.483 170.638 187.749 171.836 193.197C173.036 198.65 174.287 205.303 175.519 212.157C177.984 225.87 180.374 240.386 182.131 247.744L182.135 247.758L182.134 247.772C182.134 247.805 182.126 247.845 182.095 247.879C182.065 247.913 182.026 247.927 181.996 247.931C181.943 247.939 181.884 247.924 181.839 247.909C181.744 247.877 181.621 247.814 181.509 247.758L181.469 247.738L181.453 247.695C178.523 239.73 174.09 228.273 170.293 218.724C168.395 213.949 166.655 209.651 165.341 206.506C164.685 204.934 164.134 203.649 163.724 202.738C163.519 202.283 163.35 201.921 163.22 201.664C163.155 201.536 163.099 201.435 163.056 201.362C163.034 201.325 163.016 201.295 163.001 201.275C162.993 201.264 162.987 201.256 162.982 201.251C162.977 201.245 162.975 201.243 162.975 201.243L162.892 201.181C162.691 201.05 162.436 201.011 162.142 201.048C161.806 201.089 161.429 201.229 161.054 201.427C160.306 201.821 159.591 202.431 159.237 202.882C159.236 202.884 159.235 202.887 159.234 202.89C159.232 202.907 159.231 202.933 159.233 202.969C159.236 203.042 159.25 203.146 159.274 203.279C159.322 203.544 159.412 203.917 159.539 204.388C159.792 205.329 160.194 206.654 160.713 208.276C161.751 211.52 163.259 215.948 164.987 220.872C168.445 230.719 172.788 242.544 176.041 250.829L176.061 250.881L176.034 250.929L175.921 251.098C175.81 251.243 175.698 251.318 175.559 251.343Z" fill="url(#paint0_linear_1109_84504)"/>
<mask id="mask0_1109_84504" style="mask-type:alpha" maskUnits="userSpaceOnUse" x="77" y="41" width="108" height="216">
<path d="M175.401 251.251C175.346 251.164 175.22 250.902 175.034 250.501C174.846 250.096 174.593 249.54 174.286 248.855C173.672 247.484 172.838 245.595 171.857 243.361C169.895 238.894 167.346 233.049 164.802 227.214C162.258 221.379 159.718 215.553 157.773 211.126C156.8 208.913 155.977 207.049 155.376 205.709C155.075 205.039 154.83 204.5 154.65 204.113C154.56 203.92 154.487 203.766 154.431 203.652C154.387 203.562 154.355 203.503 154.336 203.47C153.742 203.166 152.836 203.195 151.832 203.61C150.836 204.046 150.186 204.678 149.994 205.317C150.004 205.353 150.025 205.417 150.059 205.512C150.102 205.631 150.162 205.791 150.239 205.99C150.392 206.387 150.611 206.937 150.885 207.619C151.433 208.982 152.204 210.868 153.124 213.103C154.964 217.575 157.398 223.446 159.836 229.326C162.274 235.206 164.717 241.096 166.573 245.608C167.502 247.864 168.283 249.775 168.845 251.169C169.125 251.865 169.351 252.433 169.513 252.849C169.672 253.261 169.773 253.534 169.798 253.634L169.822 253.729L169.732 253.768C169.198 253.995 169.298 253.952 167.987 254.385L167.89 254.417L167.847 254.323C164.136 246.233 158.531 234.581 153.737 224.938C151.34 220.117 149.146 215.799 147.492 212.681C146.665 211.122 145.975 209.863 145.461 208.992C145.204 208.557 144.993 208.22 144.833 207.991C144.752 207.877 144.686 207.792 144.635 207.737C144.609 207.709 144.59 207.691 144.576 207.68C144.573 207.678 144.57 207.677 144.568 207.676C143.998 207.618 143.063 207.71 142.261 207.975C141.858 208.108 141.496 208.282 141.233 208.496C140.97 208.709 140.813 208.954 140.796 209.232C140.796 209.232 140.796 209.236 140.797 209.241C140.798 209.249 140.799 209.259 140.802 209.271C140.807 209.297 140.816 209.331 140.828 209.373C140.853 209.458 140.892 209.571 140.944 209.711C141.049 209.992 141.207 210.378 141.411 210.858C141.82 211.818 142.416 213.152 143.157 214.772C144.639 218.012 146.699 222.396 148.991 227.225C153.577 236.883 159.097 248.323 162.803 255.96L162.855 256.068L162.744 256.116C162.692 256.138 162.608 256.161 162.507 256.186C162.404 256.21 162.276 256.237 162.131 256.264C161.842 256.319 161.483 256.378 161.12 256.428C160.756 256.478 160.386 256.52 160.075 256.542C159.919 256.553 159.776 256.56 159.655 256.56C159.537 256.559 159.432 256.552 159.356 256.535L159.31 256.524L159.285 256.485C151.249 243.942 129.429 210.645 124.481 201.537L124.259 201.122C121.506 195.917 123.61 191.294 126.488 187.143C127.208 186.104 127.978 185.093 128.735 184.108C129.492 183.122 130.235 182.164 130.903 181.228C132.239 179.359 133.264 177.596 133.511 175.914C133.371 174.83 132.766 172.834 131.761 170.063C130.752 167.283 129.345 163.734 127.612 159.565C124.145 151.226 119.378 140.411 113.898 128.315C102.939 104.122 89.1309 74.8088 77.1837 49.944L77.1744 49.9244L77.1729 49.9026C77.0751 48.5426 77.8037 45.4431 81.2656 43.1149L81.2548 43.0866L81.2155 42.9832L85.1172 41.3238L85.1644 41.4239L85.1775 41.4512C89.2558 40.5727 91.9937 42.1979 92.9054 43.2117L92.9201 43.2279L92.9278 43.2483C102.55 69.1017 114.087 99.3815 123.91 124.057C128.822 136.395 133.305 147.331 136.907 155.612C138.708 159.752 140.287 163.228 141.59 165.882C142.889 168.529 143.907 170.349 144.591 171.202C145.974 172.191 147.954 172.675 150.227 173.01C151.365 173.178 152.571 173.307 153.806 173.445C155.04 173.584 156.303 173.731 157.55 173.932C162.537 174.739 167.326 176.43 169.166 182.023L169.31 182.472C172.439 192.353 181.286 231.167 184.747 245.656L184.758 245.702L184.734 245.742C184.693 245.809 184.626 245.889 184.544 245.975C184.46 246.062 184.357 246.16 184.24 246.265C184.008 246.474 183.721 246.711 183.433 246.938C183.145 247.165 182.854 247.383 182.614 247.553C182.494 247.639 182.385 247.712 182.296 247.77C182.209 247.826 182.133 247.87 182.081 247.892L181.97 247.939L181.929 247.826C178.998 239.86 174.587 227.948 170.811 217.945C168.923 212.944 167.194 208.419 165.888 205.104C165.235 203.447 164.688 202.092 164.28 201.132C164.076 200.651 163.908 200.271 163.778 200C163.713 199.865 163.659 199.759 163.615 199.682C163.594 199.644 163.575 199.614 163.56 199.592C163.553 199.582 163.547 199.574 163.542 199.568C163.538 199.563 163.536 199.561 163.536 199.561C163.324 199.381 163.039 199.323 162.703 199.365C162.366 199.407 161.99 199.546 161.615 199.744C160.868 200.138 160.152 200.747 159.798 201.199C159.798 201.201 159.797 201.204 159.796 201.207C159.794 201.225 159.794 201.251 159.796 201.289C159.8 201.364 159.816 201.47 159.842 201.608C159.895 201.882 159.991 202.268 160.127 202.755C160.399 203.729 160.826 205.099 161.375 206.777C162.474 210.131 164.063 214.706 165.872 219.777C169.492 229.919 173.998 242.039 177.251 250.324L177.288 250.42L177.198 250.467C175.976 251.112 176.077 251.069 175.543 251.296L175.453 251.335L175.401 251.251Z" fill="url(#paint1_linear_1109_84504)"/>
</mask>
<g mask="url(#mask0_1109_84504)">
<path d="M175.402 251.251C175.348 251.163 175.221 250.902 175.035 250.501C174.847 250.096 174.595 249.539 174.288 248.854C173.674 247.483 172.839 245.595 171.858 243.361C169.895 238.895 167.347 233.048 164.803 227.213C162.259 221.378 159.72 215.553 157.775 211.126C156.802 208.912 155.978 207.049 155.376 205.709C155.076 205.038 154.831 204.499 154.651 204.113C154.561 203.92 154.489 203.765 154.433 203.652C154.388 203.562 154.356 203.503 154.337 203.47C153.743 203.165 152.838 203.196 151.833 203.61C150.837 204.046 150.187 204.678 149.994 205.317C150.004 205.353 150.025 205.418 150.059 205.512C150.102 205.631 150.163 205.791 150.24 205.989C150.393 206.387 150.612 206.937 150.886 207.618C151.434 208.981 152.204 210.868 153.124 213.104C154.963 217.575 157.398 223.445 159.836 229.325C162.275 235.206 164.718 241.096 166.574 245.608C167.502 247.864 168.283 249.776 168.845 251.169C169.125 251.866 169.351 252.433 169.513 252.849C169.673 253.262 169.773 253.534 169.799 253.634L169.822 253.73L169.733 253.768C169.466 253.882 169.357 253.928 169.152 253.999L167.988 254.385L167.89 254.417L167.847 254.324C164.137 246.233 158.532 234.581 153.737 224.939C151.34 220.117 149.146 215.799 147.493 212.681C146.666 211.122 145.975 209.863 145.462 208.992C145.205 208.557 144.994 208.22 144.833 207.991C144.753 207.877 144.687 207.792 144.636 207.737C144.61 207.709 144.59 207.691 144.577 207.68C144.574 207.678 144.57 207.677 144.569 207.676C143.998 207.619 143.063 207.71 142.261 207.975C141.858 208.108 141.496 208.283 141.233 208.496C141.003 208.683 140.854 208.893 140.809 209.129L140.796 209.232C140.796 209.233 140.796 209.235 140.797 209.241C140.798 209.248 140.8 209.259 140.803 209.272C140.808 209.297 140.816 209.331 140.829 209.373C140.854 209.457 140.892 209.57 140.945 209.711C141.05 209.992 141.207 210.378 141.412 210.858C141.821 211.818 142.417 213.152 143.158 214.772C144.64 218.012 146.699 222.396 148.992 227.225C153.578 236.884 159.098 248.323 162.803 255.96L162.856 256.069L162.745 256.116C162.693 256.138 162.608 256.161 162.507 256.185C162.404 256.21 162.276 256.237 162.132 256.264C161.842 256.319 161.483 256.378 161.12 256.428C160.757 256.478 160.387 256.52 160.075 256.542C159.92 256.553 159.777 256.56 159.656 256.559C159.597 256.559 159.541 256.557 159.49 256.554L159.356 256.535L159.31 256.524L159.285 256.485C151.377 244.141 130.118 211.696 124.73 201.989L124.259 201.121C121.507 195.916 123.611 191.294 126.489 187.143C127.209 186.104 127.979 185.093 128.735 184.108C129.492 183.123 130.235 182.164 130.904 181.228C132.24 179.358 133.265 177.596 133.512 175.913C133.371 174.829 132.766 172.833 131.761 170.063C130.752 167.283 129.345 163.734 127.612 159.565C124.145 151.227 119.379 140.411 113.899 128.315C102.94 104.123 89.131 74.8092 77.1839 49.9445L77.1742 49.9242L77.1734 49.9022C77.0757 48.542 77.8051 45.4431 81.2675 43.115L81.2562 43.0859L81.2166 42.9828L85.1177 41.3237L85.1645 41.4237L85.1785 41.4517C89.2565 40.5733 91.9945 42.1974 92.9064 43.2112L92.9216 43.227L92.9295 43.2481C102.552 69.1014 114.088 99.3815 123.911 124.057C128.823 136.395 133.307 147.33 136.908 155.611C138.709 159.751 140.289 163.227 141.591 165.882C142.89 168.528 143.908 170.348 144.591 171.201C145.974 172.19 147.955 172.675 150.228 173.01C151.366 173.177 152.572 173.307 153.807 173.446C155.041 173.584 156.304 173.73 157.551 173.932C162.537 174.739 167.327 176.43 169.167 182.023L169.465 182.964C172.719 193.579 181.343 231.397 184.749 245.656L184.759 245.701L184.735 245.742L184.656 245.851C184.623 245.89 184.586 245.932 184.545 245.975C184.461 246.062 184.357 246.16 184.241 246.265C184.009 246.474 183.723 246.711 183.435 246.938C183.147 247.165 182.855 247.383 182.615 247.553C182.495 247.638 182.386 247.712 182.297 247.769C182.21 247.825 182.134 247.87 182.082 247.892L181.972 247.939L181.93 247.825C178.999 239.859 174.588 227.948 170.813 217.945C168.925 212.944 167.196 208.419 165.89 205.104C165.237 203.447 164.69 202.092 164.282 201.132C164.078 200.651 163.909 200.27 163.779 200C163.714 199.864 163.66 199.758 163.616 199.682C163.595 199.644 163.576 199.614 163.561 199.593C163.554 199.582 163.548 199.573 163.543 199.567C163.54 199.563 163.538 199.561 163.537 199.56L163.454 199.498C163.253 199.367 162.998 199.329 162.705 199.365C162.368 199.406 161.991 199.546 161.616 199.744C160.869 200.138 160.154 200.747 159.8 201.199C159.8 201.201 159.798 201.204 159.797 201.207C159.795 201.224 159.795 201.251 159.797 201.289C159.802 201.364 159.817 201.471 159.844 201.608C159.897 201.882 159.993 202.268 160.129 202.755C160.4 203.728 160.827 205.099 161.376 206.777C162.476 210.131 164.064 214.706 165.874 219.777C169.494 229.919 173.999 242.039 177.252 250.324L177.289 250.42L177.199 250.468L176.114 251.038C175.92 251.137 175.811 251.183 175.544 251.297L175.454 251.335L175.402 251.251Z" fill="url(#paint2_linear_1109_84504)"/>
<g style="mix-blend-mode:screen">
<line x1="122.052" y1="255.736" x2="222.68" y2="46.3187" stroke="#F4BB20" stroke-width="11.4824"/>
</g>
<g style="mix-blend-mode:screen">
<line x1="115.5" y1="242.393" x2="216.129" y2="32.9757" stroke="#F4BB20" stroke-width="4.59294"/>
</g>
</g>
<path d="M325.74 231.354C345.031 255.122 353.413 269.016 349.853 274.757C346.294 280.498 304.268 276.135 303.579 297.722C302.929 318.087 314.947 352.343 317.947 356.153C318.586 356.366 318.816 356.5 318.385 356.5C318.275 356.5 318.127 356.381 317.947 356.153C316.274 355.595 311.799 354.496 309.084 353.859C301.276 341.726 292.671 304.726 303.579 288.076C316.095 276.709 336.763 274.757 340.897 274.757C345.031 274.757 350.657 268.556 322.066 237.439L318.392 231.354L325.74 231.354Z" fill="#FDB636"/>
<path d="M315.977 197.71C327.574 192.543 351.342 196.419 350.424 198.831" stroke="#FDC951" stroke-width="5.74118" stroke-linecap="round"/>
<path d="M309.013 235.511C316.059 221.195 362.819 107.659 385.334 49.6792C385.481 48.5394 384.282 43.7974 382.976 40.2596C379.556 37.965 372.995 40.5466 371.997 41.7918C369.826 49.6449 312.857 201.147 301.561 230.29C301.704 231.314 301.717 232.239 301.958 233.133C303.317 234.567 307.144 236.235 309.013 235.511Z" fill="url(#paint3_linear_1109_84504)"/>
<path d="M368.236 35.1392C366.002 43.2188 310.47 207.715 301.544 230.152C301.094 231.283 306.292 234.268 307.757 233.136C314.803 218.82 360.658 98.8025 383.173 40.8222C383.507 38.2251 370.013 32.9202 368.236 35.1392Z" fill="url(#paint4_linear_1109_84504)"/>
<path d="M317.932 176.927C304.498 199.088 334.118 215.062 335.5 220.675" stroke="#FDC951" stroke-width="5.74118" stroke-linecap="round"/>
<path d="M310.696 200.58C295.425 220.559 324.36 228.253 325.623 236.979" stroke="#FDB636" stroke-width="5.74118" stroke-linecap="round"/>
<path d="M317.644 247.633C326.821 234.581 390.594 129.653 421.814 75.8574C422.135 74.754 421.685 69.8835 420.943 66.1863C417.919 63.3899 411.037 64.9246 409.859 66.0004C406.497 73.4226 326.762 214.279 311.09 241.322C311.073 242.355 310.943 243.272 311.042 244.192C312.163 245.819 315.685 248.06 317.644 247.633Z" fill="url(#paint5_linear_1109_84504)"/>
<path d="M407.166 58.8461C403.708 66.4823 323.38 220.399 311.088 241.183C310.468 242.231 315.142 245.985 316.764 245.093C325.941 232.04 389.824 120.569 421.044 66.7731C421.775 64.2588 409.265 56.929 407.166 58.8461Z" fill="url(#paint6_linear_1109_84504)"/>
<path d="M337.104 220.331C335.037 228.828 308.054 221.364 303.461 215.278" stroke="#FDC951" stroke-width="5.74118" stroke-linecap="round"/>
<path d="M348.91 201.622C332.754 221.885 314.033 206.713 308.288 207.355" stroke="#FED375" stroke-width="5.74118" stroke-linecap="round"/>
<path d="M351.115 199.892C336.991 209.078 318.275 199.892 313.797 196.103" stroke="#FFE87B" stroke-width="5.74118" stroke-linecap="round"/>
<path d="M357.891 188.409C352.38 195.413 347.672 187.146 328.267 185.309C321.148 185.309 314.603 185.354 312.766 191.05" stroke="#FFE87B" stroke-width="5.74118" stroke-linecap="round"/>
<path d="M148.223 353C136.465 344.273 147.15 255.779 155.685 235.188C159.053 234.307 164.435 233.947 159.015 239.551C152.24 246.555 148.448 298.524 148.218 310.006C148.034 319.192 151.974 353.842 154.998 353C157.639 356.636 159.981 361.727 148.223 353Z" fill="#FFE87B" stroke="#FFE87B" stroke-width="2.29647"/>
<path d="M148.328 246.659C156.276 246.154 180.782 240.291 184.872 230.489" stroke="#FCBA42" stroke-width="5.74118" stroke-linecap="round"/>
<path d="M153.153 249.092C161.086 249.797 181.4 246.048 185.878 242.948" stroke="#FCBA42" stroke-width="5.74118" stroke-linecap="round"/>
<path d="M180.795 223.632C174.981 229.076 153.921 242.909 143.979 239.172" stroke="#FCBA42" stroke-width="5.74118" stroke-linecap="round"/>
<path d="M184.73 229.858C180.482 236.595 163.603 255.303 153.039 254.201" stroke="#FDB636" stroke-width="5.74118" stroke-linecap="round"/>
<path d="M184.386 238.469C176.425 238.243 144.724 243.415 140.294 233.762" stroke="#FED375" stroke-width="5.74118" stroke-linecap="round"/>
<path d="M142.706 233.877C153.958 236.174 185.447 221.765 180.712 216.768" stroke="#FFE97D" stroke-width="5.74118" stroke-linecap="round"/>
<path d="M146.955 243.827C154.86 242.856 178.98 235.566 182.487 225.541" stroke="#FDC951" stroke-width="5.74118" stroke-linecap="round"/>
</g>
<defs>
<linearGradient id="paint0_linear_1109_84504" x1="171.616" y1="253.034" x2="82.147" y2="42.6608" gradientUnits="userSpaceOnUse">
<stop stop-color="#8C6D5F"/>
<stop offset="1" stop-color="#574343"/>
</linearGradient>
<linearGradient id="paint1_linear_1109_84504" x1="172.638" y1="252.532" x2="83.1664" y2="42.1535" gradientUnits="userSpaceOnUse">
<stop stop-color="#ADB1B9"/>
<stop offset="1" stop-color="#55555B"/>
</linearGradient>
<linearGradient id="paint2_linear_1109_84504" x1="172.638" y1="252.532" x2="83.1671" y2="42.1533" gradientUnits="userSpaceOnUse">
<stop stop-color="#D4C593"/>
<stop offset="1" stop-color="#BCA7A5"/>
</linearGradient>
<linearGradient id="paint3_linear_1109_84504" x1="330.361" y1="46.0867" x2="355.893" y2="229.031" gradientUnits="userSpaceOnUse">
<stop stop-color="#50271A"/>
<stop offset="1" stop-color="#7C3A16"/>
</linearGradient>
<linearGradient id="paint4_linear_1109_84504" x1="329.057" y1="40.2693" x2="355.073" y2="226.68" gradientUnits="userSpaceOnUse">
<stop stop-color="#9F5A30"/>
<stop offset="1" stop-color="#B8783C"/>
</linearGradient>
<linearGradient id="paint5_linear_1109_84504" x1="368.059" y1="63.7977" x2="364.962" y2="248.489" gradientUnits="userSpaceOnUse">
<stop stop-color="#50271A"/>
<stop offset="1" stop-color="#7C3A16"/>
</linearGradient>
<linearGradient id="paint6_linear_1109_84504" x1="367.665" y1="57.849" x2="364.509" y2="246.04" gradientUnits="userSpaceOnUse">
<stop stop-color="#9F5A30"/>
<stop offset="1" stop-color="#B8783C"/>
</linearGradient>
<clipPath id="clip0_1109_84504">
<rect width="516" height="354" fill="white"/>
</clipPath>
</defs>
</svg>
