<svg width="700" height="743" viewBox="0 0 700 743" fill="none" xmlns="http://www.w3.org/2000/svg">
<g clip-path="url(#clip0_1104_44172)">
<g clip-path="url(#clip1_1104_44172)">
<mask id="mask0_1104_44172" style="mask-type:alpha" maskUnits="userSpaceOnUse" x="22" y="14" width="1119" height="1100">
<rect x="-0.0261208" y="0.460596" width="897.087" height="671.348" transform="matrix(-0.746009 0.665936 0.665936 0.746009 692.32 14.1344)" fill="url(#paint0_linear_1104_44172)" stroke="#B12C2E" stroke-width="0.652427"/>
</mask>
<g mask="url(#mask0_1104_44172)">
<circle cx="38.5307" cy="38.5307" r="37.537" transform="matrix(-0.746009 0.665936 0.665936 0.746009 650.008 156.427)" fill="#3D3024" stroke="#5D4D3D" stroke-width="1.98737"/>
<circle cx="30.9468" cy="30.9468" r="29.9532" transform="matrix(-0.746009 0.665936 0.665936 0.746009 649.398 167.135)" fill="#3D3024" stroke="#5D4D3D" stroke-width="1.98737"/>
<circle cx="23.3842" cy="23.3842" r="22.3905" transform="matrix(-0.746009 0.665936 0.665936 0.746009 648.797 177.813)" fill="#3D3024" stroke="#5D4D3D" stroke-width="1.98737"/>
<circle cx="16.1359" cy="16.1359" r="15.1422" transform="matrix(-0.746009 0.665936 0.665936 0.746009 648.211 188.047)" fill="#3D3024" stroke="#5D4D3D" stroke-width="1.98737"/>
<circle cx="38.5307" cy="38.5307" r="37.537" transform="matrix(-0.746009 0.665936 0.665936 0.746009 708.383 106.096)" fill="#3D3024" stroke="#5D4D3D" stroke-width="1.98737"/>
<circle cx="30.9468" cy="30.9468" r="29.9532" transform="matrix(-0.746009 0.665936 0.665936 0.746009 707.773 116.803)" fill="#3D3024" stroke="#5D4D3D" stroke-width="1.98737"/>
<circle cx="23.3842" cy="23.3842" r="22.3905" transform="matrix(-0.746009 0.665936 0.665936 0.746009 707.172 127.481)" fill="#3D3024" stroke="#5D4D3D" stroke-width="1.98737"/>
<circle cx="16.1359" cy="16.1359" r="15.1422" transform="matrix(-0.746009 0.665936 0.665936 0.746009 706.586 137.715)" fill="#3D3024" stroke="#5D4D3D" stroke-width="1.98737"/>
<circle cx="38.5307" cy="38.5307" r="37.537" transform="matrix(-0.746009 0.665936 0.665936 0.746009 696.859 151.042)" fill="#3D3024" stroke="#5D4D3D" stroke-width="1.98737"/>
<circle cx="30.9468" cy="30.9468" r="29.9532" transform="matrix(-0.746009 0.665936 0.665936 0.746009 696.25 161.75)" fill="#3D3024" stroke="#5D4D3D" stroke-width="1.98737"/>
<circle cx="23.3842" cy="23.3842" r="22.3905" transform="matrix(-0.746009 0.665936 0.665936 0.746009 695.648 172.429)" fill="#3D3024" stroke="#5D4D3D" stroke-width="1.98737"/>
<circle cx="16.1359" cy="16.1359" r="15.1422" transform="matrix(-0.746009 0.665936 0.665936 0.746009 695.062 182.662)" fill="#3D3024" stroke="#5D4D3D" stroke-width="1.98737"/>
<circle cx="38.5307" cy="38.5307" r="37.537" transform="matrix(-0.746009 0.665936 0.665936 0.746009 639.367 202.359)" fill="#3D3024" stroke="#5D4D3D" stroke-width="1.98737"/>
<circle cx="30.9468" cy="30.9468" r="29.9532" transform="matrix(-0.746009 0.665936 0.665936 0.746009 638.758 213.069)" fill="#3D3024" stroke="#5D4D3D" stroke-width="1.98737"/>
<circle cx="23.3842" cy="23.3842" r="22.3905" transform="matrix(-0.746009 0.665936 0.665936 0.746009 638.148 223.748)" fill="#3D3024" stroke="#5D4D3D" stroke-width="1.98737"/>
<circle cx="16.1359" cy="16.1359" r="15.1422" transform="matrix(-0.746009 0.665936 0.665936 0.746009 637.57 233.982)" fill="#3D3024" stroke="#5D4D3D" stroke-width="1.98737"/>
<circle cx="38.5307" cy="38.5307" r="37.537" transform="matrix(-0.746009 0.665936 0.665936 0.746009 686.422 197.207)" fill="#3D3024" stroke="#5D4D3D" stroke-width="1.98737"/>
<circle cx="30.9468" cy="30.9468" r="29.9532" transform="matrix(-0.746009 0.665936 0.665936 0.746009 685.812 207.917)" fill="#3D3024" stroke="#5D4D3D" stroke-width="1.98737"/>
<circle cx="23.3842" cy="23.3842" r="22.3905" transform="matrix(-0.746009 0.665936 0.665936 0.746009 685.211 218.595)" fill="#3D3024" stroke="#5D4D3D" stroke-width="1.98737"/>
<circle cx="16.1359" cy="16.1359" r="15.1422" transform="matrix(-0.746009 0.665936 0.665936 0.746009 684.625 228.827)" fill="#3D3024" stroke="#5D4D3D" stroke-width="1.98737"/>
<circle cx="38.5307" cy="38.5307" r="37.537" transform="matrix(-0.746009 0.665936 0.665936 0.746009 628.93 248.525)" fill="#3D3024" stroke="#5D4D3D" stroke-width="1.98737"/>
<circle cx="30.9468" cy="30.9468" r="29.9532" transform="matrix(-0.746009 0.665936 0.665936 0.746009 628.32 259.234)" fill="#3D3024" stroke="#5D4D3D" stroke-width="1.98737"/>
<circle cx="23.3842" cy="23.3842" r="22.3905" transform="matrix(-0.746009 0.665936 0.665936 0.746009 627.719 269.912)" fill="#3D3024" stroke="#5D4D3D" stroke-width="1.98737"/>
<circle cx="16.1359" cy="16.1359" r="15.1422" transform="matrix(-0.746009 0.665936 0.665936 0.746009 627.133 280.146)" fill="#3D3024" stroke="#5D4D3D" stroke-width="1.98737"/>
<circle cx="38.5307" cy="38.5307" r="37.537" transform="matrix(-0.746009 0.665936 0.665936 0.746009 743.906 145.891)" fill="#3D3024" stroke="#5D4D3D" stroke-width="1.98737"/>
<circle cx="30.9468" cy="30.9468" r="29.9532" transform="matrix(-0.746009 0.665936 0.665936 0.746009 743.297 156.598)" fill="#3D3024" stroke="#5D4D3D" stroke-width="1.98737"/>
<circle cx="38.5307" cy="38.5307" r="37.537" transform="matrix(-0.746009 0.665936 0.665936 0.746009 731.672 190.047)" fill="#3D3024" stroke="#5D4D3D" stroke-width="1.98737"/>
<circle cx="30.9468" cy="30.9468" r="29.9532" transform="matrix(-0.746009 0.665936 0.665936 0.746009 731.062 200.753)" fill="#3D3024" stroke="#5D4D3D" stroke-width="1.98737"/>
<circle cx="23.3842" cy="23.3842" r="22.3905" transform="matrix(-0.746009 0.665936 0.665936 0.746009 730.461 211.431)" fill="#3D3024" stroke="#5D4D3D" stroke-width="1.98737"/>
<circle cx="38.5307" cy="38.5307" r="37.537" transform="matrix(-0.746009 0.665936 0.665936 0.746009 674.188 241.361)" fill="#3D3024" stroke="#5D4D3D" stroke-width="1.98737"/>
<circle cx="30.9468" cy="30.9468" r="29.9532" transform="matrix(-0.746009 0.665936 0.665936 0.746009 673.578 252.071)" fill="#3D3024" stroke="#5D4D3D" stroke-width="1.98737"/>
<circle cx="23.3842" cy="23.3842" r="22.3905" transform="matrix(-0.746009 0.665936 0.665936 0.746009 672.977 262.748)" fill="#3D3024" stroke="#5D4D3D" stroke-width="1.98737"/>
<circle cx="16.1359" cy="16.1359" r="15.1422" transform="matrix(-0.746009 0.665936 0.665936 0.746009 672.391 272.983)" fill="#3D3024" stroke="#5D4D3D" stroke-width="1.98737"/>
<circle cx="38.5307" cy="38.5307" r="37.537" transform="matrix(-0.746009 0.665936 0.665936 0.746009 719.43 234.191)" fill="#3D3024" stroke="#5D4D3D" stroke-width="1.98737"/>
<circle cx="30.9468" cy="30.9468" r="29.9532" transform="matrix(-0.746009 0.665936 0.665936 0.746009 718.82 244.899)" fill="#3D3024" stroke="#5D4D3D" stroke-width="1.98737"/>
<circle cx="23.3842" cy="23.3842" r="22.3905" transform="matrix(-0.746009 0.665936 0.665936 0.746009 718.219 255.576)" fill="#3D3024" stroke="#5D4D3D" stroke-width="1.98737"/>
<circle cx="16.1359" cy="16.1359" r="15.1422" transform="matrix(-0.746009 0.665936 0.665936 0.746009 717.633 265.812)" fill="#3D3024" stroke="#5D4D3D" stroke-width="1.98737"/>
<circle cx="38.5307" cy="38.5307" r="37.537" transform="matrix(-0.746009 0.665936 0.665936 0.746009 477.547 310.38)" fill="#3D3024" stroke="#5D4D3D" stroke-width="1.98737"/>
<circle cx="30.9468" cy="30.9468" r="29.9532" transform="matrix(-0.746009 0.665936 0.665936 0.746009 476.938 321.088)" fill="#3D3024" stroke="#5D4D3D" stroke-width="1.98737"/>
<circle cx="23.3842" cy="23.3842" r="22.3905" transform="matrix(-0.746009 0.665936 0.665936 0.746009 476.336 331.767)" fill="#3D3024" stroke="#5D4D3D" stroke-width="1.98737"/>
<circle cx="16.1359" cy="16.1359" r="15.1422" transform="matrix(-0.746009 0.665936 0.665936 0.746009 475.75 342)" fill="#3D3024" stroke="#5D4D3D" stroke-width="1.98737"/>
<circle cx="38.5307" cy="38.5307" r="37.537" transform="matrix(-0.746009 0.665936 0.665936 0.746009 420.055 361.697)" fill="#3D3024" stroke="#5D4D3D" stroke-width="1.98737"/>
<circle cx="30.9468" cy="30.9468" r="29.9532" transform="matrix(-0.746009 0.665936 0.665936 0.746009 419.445 372.407)" fill="#3D3024" stroke="#5D4D3D" stroke-width="1.98737"/>
<circle cx="23.3842" cy="23.3842" r="22.3905" transform="matrix(-0.746009 0.665936 0.665936 0.746009 418.844 383.084)" fill="#3D3024" stroke="#5D4D3D" stroke-width="1.98737"/>
<circle cx="16.1359" cy="16.1359" r="15.1422" transform="matrix(-0.746009 0.665936 0.665936 0.746009 418.258 393.317)" fill="#3D3024" stroke="#5D4D3D" stroke-width="1.98737"/>
<circle cx="38.5307" cy="38.5307" r="37.537" transform="matrix(-0.746009 0.665936 0.665936 0.746009 362.586 413)" fill="#3D3024" stroke="#5D4D3D" stroke-width="1.98737"/>
<circle cx="30.9468" cy="30.9468" r="29.9532" transform="matrix(-0.746009 0.665936 0.665936 0.746009 361.977 423.707)" fill="#3D3024" stroke="#5D4D3D" stroke-width="1.98737"/>
<circle cx="23.3842" cy="23.3842" r="22.3905" transform="matrix(-0.746009 0.665936 0.665936 0.746009 361.375 434.387)" fill="#3D3024" stroke="#5D4D3D" stroke-width="1.98737"/>
<circle cx="16.1359" cy="16.1359" r="15.1422" transform="matrix(-0.746009 0.665936 0.665936 0.746009 360.789 444.62)" fill="#3D3024" stroke="#5D4D3D" stroke-width="1.98737"/>
<circle cx="38.5307" cy="38.5307" r="37.537" transform="matrix(-0.746009 0.665936 0.665936 0.746009 524.391 304.995)" fill="#3D3024" stroke="#5D4D3D" stroke-width="1.98737"/>
<circle cx="30.9468" cy="30.9468" r="29.9532" transform="matrix(-0.746009 0.665936 0.665936 0.746009 523.781 315.704)" fill="#3D3024" stroke="#5D4D3D" stroke-width="1.98737"/>
<circle cx="23.3842" cy="23.3842" r="22.3905" transform="matrix(-0.746009 0.665936 0.665936 0.746009 523.18 326.382)" fill="#3D3024" stroke="#5D4D3D" stroke-width="1.98737"/>
<circle cx="16.1359" cy="16.1359" r="15.1422" transform="matrix(-0.746009 0.665936 0.665936 0.746009 522.594 336.615)" fill="#3D3024" stroke="#5D4D3D" stroke-width="1.98737"/>
<circle cx="38.5307" cy="38.5307" r="37.537" transform="matrix(-0.746009 0.665936 0.665936 0.746009 466.898 356.312)" fill="#3D3024" stroke="#5D4D3D" stroke-width="1.98737"/>
<circle cx="30.9468" cy="30.9468" r="29.9532" transform="matrix(-0.746009 0.665936 0.665936 0.746009 466.289 367.021)" fill="#3D3024" stroke="#5D4D3D" stroke-width="1.98737"/>
<circle cx="23.3842" cy="23.3842" r="22.3905" transform="matrix(-0.746009 0.665936 0.665936 0.746009 465.688 377.699)" fill="#3D3024" stroke="#5D4D3D" stroke-width="1.98737"/>
<circle cx="16.1359" cy="16.1359" r="15.1422" transform="matrix(-0.746009 0.665936 0.665936 0.746009 465.102 387.933)" fill="#3D3024" stroke="#5D4D3D" stroke-width="1.98737"/>
<circle cx="38.5307" cy="38.5307" r="37.537" transform="matrix(-0.746009 0.665936 0.665936 0.746009 409.414 407.633)" fill="#3D3024" stroke="#5D4D3D" stroke-width="1.98737"/>
<circle cx="30.9468" cy="30.9468" r="29.9532" transform="matrix(-0.746009 0.665936 0.665936 0.746009 408.805 418.342)" fill="#3D3024" stroke="#5D4D3D" stroke-width="1.98737"/>
<circle cx="23.3842" cy="23.3842" r="22.3905" transform="matrix(-0.746009 0.665936 0.665936 0.746009 408.203 429.02)" fill="#3D3024" stroke="#5D4D3D" stroke-width="1.98737"/>
<circle cx="16.1359" cy="16.1359" r="15.1422" transform="matrix(-0.746009 0.665936 0.665936 0.746009 407.617 439.253)" fill="#3D3024" stroke="#5D4D3D" stroke-width="1.98737"/>
<circle cx="38.5307" cy="38.5307" r="37.537" transform="matrix(-0.746009 0.665936 0.665936 0.746009 513.953 351.16)" fill="#3D3024" stroke="#5D4D3D" stroke-width="1.98737"/>
<circle cx="30.9468" cy="30.9468" r="29.9532" transform="matrix(-0.746009 0.665936 0.665936 0.746009 513.344 361.869)" fill="#3D3024" stroke="#5D4D3D" stroke-width="1.98737"/>
<circle cx="23.3842" cy="23.3842" r="22.3905" transform="matrix(-0.746009 0.665936 0.665936 0.746009 512.742 372.547)" fill="#3D3024" stroke="#5D4D3D" stroke-width="1.98737"/>
<circle cx="16.1359" cy="16.1359" r="15.1422" transform="matrix(-0.746009 0.665936 0.665936 0.746009 512.156 382.78)" fill="#3D3024" stroke="#5D4D3D" stroke-width="1.98737"/>
<circle cx="38.5307" cy="38.5307" r="37.537" transform="matrix(-0.746009 0.665936 0.665936 0.746009 456.461 402.48)" fill="#3D3024" stroke="#5D4D3D" stroke-width="1.98737"/>
<circle cx="30.9468" cy="30.9468" r="29.9532" transform="matrix(-0.746009 0.665936 0.665936 0.746009 455.852 413.188)" fill="#3D3024" stroke="#5D4D3D" stroke-width="1.98737"/>
<circle cx="23.3842" cy="23.3842" r="22.3905" transform="matrix(-0.746009 0.665936 0.665936 0.746009 455.25 423.866)" fill="#3D3024" stroke="#5D4D3D" stroke-width="1.98737"/>
<circle cx="16.1359" cy="16.1359" r="15.1422" transform="matrix(-0.746009 0.665936 0.665936 0.746009 454.664 434.1)" fill="#3D3024" stroke="#5D4D3D" stroke-width="1.98737"/>
<circle cx="38.5307" cy="38.5307" r="37.537" transform="matrix(-0.746009 0.665936 0.665936 0.746009 398.969 453.801)" fill="#3D3024" stroke="#5D4D3D" stroke-width="1.98737"/>
<circle cx="30.9468" cy="30.9468" r="29.9532" transform="matrix(-0.746009 0.665936 0.665936 0.746009 398.359 464.506)" fill="#3D3024" stroke="#5D4D3D" stroke-width="1.98737"/>
<circle cx="23.3842" cy="23.3842" r="22.3905" transform="matrix(-0.746009 0.665936 0.665936 0.746009 397.758 475.186)" fill="#3D3024" stroke="#5D4D3D" stroke-width="1.98737"/>
<circle cx="16.1359" cy="16.1359" r="15.1422" transform="matrix(-0.746009 0.665936 0.665936 0.746009 397.18 485.42)" fill="#3D3024" stroke="#5D4D3D" stroke-width="1.98737"/>
<circle cx="38.5307" cy="38.5307" r="37.537" transform="matrix(-0.746009 0.665936 0.665936 0.746009 571.438 299.845)" fill="#3D3024" stroke="#5D4D3D" stroke-width="1.98737"/>
<circle cx="30.9468" cy="30.9468" r="29.9532" transform="matrix(-0.746009 0.665936 0.665936 0.746009 570.836 310.551)" fill="#3D3024" stroke="#5D4D3D" stroke-width="1.98737"/>
<circle cx="23.3842" cy="23.3842" r="22.3905" transform="matrix(-0.746009 0.665936 0.665936 0.746009 570.227 321.23)" fill="#3D3024" stroke="#5D4D3D" stroke-width="1.98737"/>
<circle cx="16.1359" cy="16.1359" r="15.1422" transform="matrix(-0.746009 0.665936 0.665936 0.746009 569.648 331.464)" fill="#3D3024" stroke="#5D4D3D" stroke-width="1.98737"/>
<circle cx="38.5307" cy="38.5307" r="37.537" transform="matrix(-0.746009 0.665936 0.665936 0.746009 559.203 343.999)" fill="#3D3024" stroke="#5D4D3D" stroke-width="1.98737"/>
<circle cx="30.9468" cy="30.9468" r="29.9532" transform="matrix(-0.746009 0.665936 0.665936 0.746009 558.594 354.707)" fill="#3D3024" stroke="#5D4D3D" stroke-width="1.98737"/>
<circle cx="23.3842" cy="23.3842" r="22.3905" transform="matrix(-0.746009 0.665936 0.665936 0.746009 557.992 365.384)" fill="#3D3024" stroke="#5D4D3D" stroke-width="1.98737"/>
<circle cx="16.1359" cy="16.1359" r="15.1422" transform="matrix(-0.746009 0.665936 0.665936 0.746009 557.406 375.619)" fill="#3D3024" stroke="#5D4D3D" stroke-width="1.98737"/>
<circle cx="38.5307" cy="38.5307" r="37.537" transform="matrix(-0.746009 0.665936 0.665936 0.746009 501.719 395.316)" fill="#3D3024" stroke="#5D4D3D" stroke-width="1.98737"/>
<circle cx="30.9468" cy="30.9468" r="29.9532" transform="matrix(-0.746009 0.665936 0.665936 0.746009 501.109 406.024)" fill="#3D3024" stroke="#5D4D3D" stroke-width="1.98737"/>
<circle cx="23.3842" cy="23.3842" r="22.3905" transform="matrix(-0.746009 0.665936 0.665936 0.746009 500.508 416.701)" fill="#3D3024" stroke="#5D4D3D" stroke-width="1.98737"/>
<circle cx="16.1359" cy="16.1359" r="15.1422" transform="matrix(-0.746009 0.665936 0.665936 0.746009 499.922 426.938)" fill="#3D3024" stroke="#5D4D3D" stroke-width="1.98737"/>
<circle cx="38.5307" cy="38.5307" r="37.537" transform="matrix(-0.746009 0.665936 0.665936 0.746009 444.242 446.62)" fill="#3D3024" stroke="#5D4D3D" stroke-width="1.98737"/>
<circle cx="30.9468" cy="30.9468" r="29.9532" transform="matrix(-0.746009 0.665936 0.665936 0.746009 443.633 457.33)" fill="#3D3024" stroke="#5D4D3D" stroke-width="1.98737"/>
<circle cx="23.3842" cy="23.3842" r="22.3905" transform="matrix(-0.746009 0.665936 0.665936 0.746009 443.031 468.007)" fill="#3D3024" stroke="#5D4D3D" stroke-width="1.98737"/>
<circle cx="16.1359" cy="16.1359" r="15.1422" transform="matrix(-0.746009 0.665936 0.665936 0.746009 442.445 478.24)" fill="#3D3024" stroke="#5D4D3D" stroke-width="1.98737"/>
<circle cx="38.5307" cy="38.5307" r="37.537" transform="matrix(-0.746009 0.665936 0.665936 0.746009 546.961 388.146)" fill="#3D3024" stroke="#5D4D3D" stroke-width="1.98737"/>
<circle cx="30.9468" cy="30.9468" r="29.9532" transform="matrix(-0.746009 0.665936 0.665936 0.746009 546.352 398.854)" fill="#3D3024" stroke="#5D4D3D" stroke-width="1.98737"/>
<circle cx="23.3842" cy="23.3842" r="22.3905" transform="matrix(-0.746009 0.665936 0.665936 0.746009 545.75 409.529)" fill="#3D3024" stroke="#5D4D3D" stroke-width="1.98737"/>
<circle cx="16.1359" cy="16.1359" r="15.1422" transform="matrix(-0.746009 0.665936 0.665936 0.746009 545.164 419.766)" fill="#3D3024" stroke="#5D4D3D" stroke-width="1.98737"/>
<circle cx="38.5307" cy="38.5307" r="37.537" transform="matrix(-0.746009 0.665936 0.665936 0.746009 489.477 439.463)" fill="#3D3024" stroke="#5D4D3D" stroke-width="1.98737"/>
<circle cx="30.9468" cy="30.9468" r="29.9532" transform="matrix(-0.746009 0.665936 0.665936 0.746009 488.867 450.17)" fill="#3D3024" stroke="#5D4D3D" stroke-width="1.98737"/>
<circle cx="23.3842" cy="23.3842" r="22.3905" transform="matrix(-0.746009 0.665936 0.665936 0.746009 488.266 460.847)" fill="#3D3024" stroke="#5D4D3D" stroke-width="1.98737"/>
<circle cx="16.1359" cy="16.1359" r="15.1422" transform="matrix(-0.746009 0.665936 0.665936 0.746009 487.68 471.083)" fill="#3D3024" stroke="#5D4D3D" stroke-width="1.98737"/>
<circle cx="38.5307" cy="38.5307" r="37.537" transform="matrix(-0.746009 0.665936 0.665936 0.746009 431.984 490.783)" fill="#3D3024" stroke="#5D4D3D" stroke-width="1.98737"/>
<circle cx="30.9468" cy="30.9468" r="29.9532" transform="matrix(-0.746009 0.665936 0.665936 0.746009 431.375 501.488)" fill="#3D3024" stroke="#5D4D3D" stroke-width="1.98737"/>
<circle cx="23.3842" cy="23.3842" r="22.3905" transform="matrix(-0.746009 0.665936 0.665936 0.746009 430.773 512.167)" fill="#3D3024" stroke="#5D4D3D" stroke-width="1.98737"/>
<circle cx="16.1359" cy="16.1359" r="15.1422" transform="matrix(-0.746009 0.665936 0.665936 0.746009 430.188 522.402)" fill="#3D3024" stroke="#5D4D3D" stroke-width="1.98737"/>
<circle cx="38.5307" cy="38.5307" r="37.537" transform="matrix(-0.746009 0.665936 0.665936 0.746009 615.102 290.89)" fill="#3D3024" stroke="#5D4D3D" stroke-width="1.98737"/>
<circle cx="30.9468" cy="30.9468" r="29.9532" transform="matrix(-0.746009 0.665936 0.665936 0.746009 614.492 301.598)" fill="#3D3024" stroke="#5D4D3D" stroke-width="1.98737"/>
<circle cx="23.3842" cy="23.3842" r="22.3905" transform="matrix(-0.746009 0.665936 0.665936 0.746009 613.891 312.276)" fill="#3D3024" stroke="#5D4D3D" stroke-width="1.98737"/>
<circle cx="16.1359" cy="16.1359" r="15.1422" transform="matrix(-0.746009 0.665936 0.665936 0.746009 613.305 322.51)" fill="#3D3024" stroke="#5D4D3D" stroke-width="1.98737"/>
<circle cx="38.5307" cy="38.5307" r="37.537" transform="matrix(-0.746009 0.665936 0.665936 0.746009 661.945 285.507)" fill="#3D3024" stroke="#5D4D3D" stroke-width="1.98737"/>
<circle cx="30.9468" cy="30.9468" r="29.9532" transform="matrix(-0.746009 0.665936 0.665936 0.746009 661.336 296.214)" fill="#3D3024" stroke="#5D4D3D" stroke-width="1.98737"/>
<circle cx="23.3842" cy="23.3842" r="22.3905" transform="matrix(-0.746009 0.665936 0.665936 0.746009 660.734 306.893)" fill="#3D3024" stroke="#5D4D3D" stroke-width="1.98737"/>
<circle cx="16.1359" cy="16.1359" r="15.1422" transform="matrix(-0.746009 0.665936 0.665936 0.746009 660.148 317.127)" fill="#3D3024" stroke="#5D4D3D" stroke-width="1.98737"/>
<circle cx="38.5307" cy="38.5307" r="37.537" transform="matrix(-0.746009 0.665936 0.665936 0.746009 604.453 336.825)" fill="#3D3024" stroke="#5D4D3D" stroke-width="1.98737"/>
<circle cx="30.9468" cy="30.9468" r="29.9532" transform="matrix(-0.746009 0.665936 0.665936 0.746009 603.844 347.532)" fill="#3D3024" stroke="#5D4D3D" stroke-width="1.98737"/>
<circle cx="23.3842" cy="23.3842" r="22.3905" transform="matrix(-0.746009 0.665936 0.665936 0.746009 603.242 358.212)" fill="#3D3024" stroke="#5D4D3D" stroke-width="1.98737"/>
<circle cx="16.1359" cy="16.1359" r="15.1422" transform="matrix(-0.746009 0.665936 0.665936 0.746009 602.656 368.445)" fill="#3D3024" stroke="#5D4D3D" stroke-width="1.98737"/>
<circle cx="38.5307" cy="38.5307" r="37.537" transform="matrix(-0.746009 0.665936 0.665936 0.746009 651.508 331.673)" fill="#3D3024" stroke="#5D4D3D" stroke-width="1.98737"/>
<circle cx="30.9468" cy="30.9468" r="29.9532" transform="matrix(-0.746009 0.665936 0.665936 0.746009 650.898 342.381)" fill="#3D3024" stroke="#5D4D3D" stroke-width="1.98737"/>
<circle cx="23.3842" cy="23.3842" r="22.3905" transform="matrix(-0.746009 0.665936 0.665936 0.746009 650.297 353.058)" fill="#3D3024" stroke="#5D4D3D" stroke-width="1.98737"/>
<circle cx="16.1359" cy="16.1359" r="15.1422" transform="matrix(-0.746009 0.665936 0.665936 0.746009 649.711 363.293)" fill="#3D3024" stroke="#5D4D3D" stroke-width="1.98737"/>
<circle cx="38.5307" cy="38.5307" r="37.537" transform="matrix(-0.746009 0.665936 0.665936 0.746009 594.016 382.99)" fill="#3D3024" stroke="#5D4D3D" stroke-width="1.98737"/>
<circle cx="30.9468" cy="30.9468" r="29.9532" transform="matrix(-0.746009 0.665936 0.665936 0.746009 593.406 393.697)" fill="#3D3024" stroke="#5D4D3D" stroke-width="1.98737"/>
<circle cx="23.3842" cy="23.3842" r="22.3905" transform="matrix(-0.746009 0.665936 0.665936 0.746009 592.805 404.375)" fill="#3D3024" stroke="#5D4D3D" stroke-width="1.98737"/>
<circle cx="16.1359" cy="16.1359" r="15.1422" transform="matrix(-0.746009 0.665936 0.665936 0.746009 592.219 414.61)" fill="#3D3024" stroke="#5D4D3D" stroke-width="1.98737"/>
<circle cx="38.5307" cy="38.5307" r="37.537" transform="matrix(-0.746009 0.665936 0.665936 0.746009 708.992 280.354)" fill="#3D3024" stroke="#5D4D3D" stroke-width="1.98737"/>
<circle cx="30.9468" cy="30.9468" r="29.9532" transform="matrix(-0.746009 0.665936 0.665936 0.746009 708.383 291.063)" fill="#3D3024" stroke="#5D4D3D" stroke-width="1.98737"/>
<circle cx="23.3842" cy="23.3842" r="22.3905" transform="matrix(-0.746009 0.665936 0.665936 0.746009 707.781 301.74)" fill="#3D3024" stroke="#5D4D3D" stroke-width="1.98737"/>
<circle cx="16.1359" cy="16.1359" r="15.1422" transform="matrix(-0.746009 0.665936 0.665936 0.746009 707.195 311.975)" fill="#3D3024" stroke="#5D4D3D" stroke-width="1.98737"/>
<circle cx="38.5307" cy="38.5307" r="37.537" transform="matrix(-0.746009 0.665936 0.665936 0.746009 479.055 485.612)" fill="#3D3024" stroke="#5D4D3D" stroke-width="1.98737"/>
<circle cx="30.9468" cy="30.9468" r="29.9532" transform="matrix(-0.746009 0.665936 0.665936 0.746009 478.445 496.32)" fill="#3D3024" stroke="#5D4D3D" stroke-width="1.98737"/>
<circle cx="23.3842" cy="23.3842" r="22.3905" transform="matrix(-0.746009 0.665936 0.665936 0.746009 477.844 506.998)" fill="#3D3024" stroke="#5D4D3D" stroke-width="1.98737"/>
<circle cx="16.1359" cy="16.1359" r="15.1422" transform="matrix(-0.746009 0.665936 0.665936 0.746009 477.258 517.232)" fill="#3D3024" stroke="#5D4D3D" stroke-width="1.98737"/>
<circle cx="38.5307" cy="38.5307" r="37.537" transform="matrix(-0.746009 0.665936 0.665936 0.746009 536.539 434.294)" fill="#3D3024" stroke="#5D4D3D" stroke-width="1.98737"/>
<circle cx="30.9468" cy="30.9468" r="29.9532" transform="matrix(-0.746009 0.665936 0.665936 0.746009 535.93 445.002)" fill="#3D3024" stroke="#5D4D3D" stroke-width="1.98737"/>
<circle cx="23.3842" cy="23.3842" r="22.3905" transform="matrix(-0.746009 0.665936 0.665936 0.746009 535.328 455.681)" fill="#3D3024" stroke="#5D4D3D" stroke-width="1.98737"/>
<circle cx="16.1359" cy="16.1359" r="15.1422" transform="matrix(-0.746009 0.665936 0.665936 0.746009 534.742 465.914)" fill="#3D3024" stroke="#5D4D3D" stroke-width="1.98737"/>
<circle cx="38.5307" cy="38.5307" r="37.537" transform="matrix(-0.746009 0.665936 0.665936 0.746009 696.758 324.51)" fill="#3D3024" stroke="#5D4D3D" stroke-width="1.98737"/>
<circle cx="30.9468" cy="30.9468" r="29.9532" transform="matrix(-0.746009 0.665936 0.665936 0.746009 696.148 335.218)" fill="#3D3024" stroke="#5D4D3D" stroke-width="1.98737"/>
<circle cx="23.3842" cy="23.3842" r="22.3905" transform="matrix(-0.746009 0.665936 0.665936 0.746009 695.547 345.895)" fill="#3D3024" stroke="#5D4D3D" stroke-width="1.98737"/>
<circle cx="16.1359" cy="16.1359" r="15.1422" transform="matrix(-0.746009 0.665936 0.665936 0.746009 694.961 356.13)" fill="#3D3024" stroke="#5D4D3D" stroke-width="1.98737"/>
<circle cx="38.5307" cy="38.5307" r="37.537" transform="matrix(-0.746009 0.665936 0.665936 0.746009 754.242 273.197)" fill="#3D3024" stroke="#5D4D3D" stroke-width="1.98737"/>
<circle cx="38.5307" cy="38.5307" r="37.537" transform="matrix(-0.746009 0.665936 0.665936 0.746009 639.273 375.827)" fill="#3D3024" stroke="#5D4D3D" stroke-width="1.98737"/>
<circle cx="30.9468" cy="30.9468" r="29.9532" transform="matrix(-0.746009 0.665936 0.665936 0.746009 638.664 386.535)" fill="#3D3024" stroke="#5D4D3D" stroke-width="1.98737"/>
<circle cx="23.3842" cy="23.3842" r="22.3905" transform="matrix(-0.746009 0.665936 0.665936 0.746009 638.062 397.214)" fill="#3D3024" stroke="#5D4D3D" stroke-width="1.98737"/>
<circle cx="16.1359" cy="16.1359" r="15.1422" transform="matrix(-0.746009 0.665936 0.665936 0.746009 637.477 407.447)" fill="#3D3024" stroke="#5D4D3D" stroke-width="1.98737"/>
<circle cx="38.5307" cy="38.5307" r="37.537" transform="matrix(-0.746009 0.665936 0.665936 0.746009 524.312 478.45)" fill="#3D3024" stroke="#5D4D3D" stroke-width="1.98737"/>
<circle cx="30.9468" cy="30.9468" r="29.9532" transform="matrix(-0.746009 0.665936 0.665936 0.746009 523.703 489.159)" fill="#3D3024" stroke="#5D4D3D" stroke-width="1.98737"/>
<circle cx="23.3842" cy="23.3842" r="22.3905" transform="matrix(-0.746009 0.665936 0.665936 0.746009 523.102 499.834)" fill="#3D3024" stroke="#5D4D3D" stroke-width="1.98737"/>
<circle cx="16.1359" cy="16.1359" r="15.1422" transform="matrix(-0.746009 0.665936 0.665936 0.746009 522.516 510.07)" fill="#3D3024" stroke="#5D4D3D" stroke-width="1.98737"/>
<circle cx="38.5307" cy="38.5307" r="37.537" transform="matrix(-0.746009 0.665936 0.665936 0.746009 581.797 427.138)" fill="#3D3024" stroke="#5D4D3D" stroke-width="1.98737"/>
<circle cx="30.9468" cy="30.9468" r="29.9532" transform="matrix(-0.746009 0.665936 0.665936 0.746009 581.188 437.846)" fill="#3D3024" stroke="#5D4D3D" stroke-width="1.98737"/>
<circle cx="23.3842" cy="23.3842" r="22.3905" transform="matrix(-0.746009 0.665936 0.665936 0.746009 580.586 448.524)" fill="#3D3024" stroke="#5D4D3D" stroke-width="1.98737"/>
<circle cx="16.1359" cy="16.1359" r="15.1422" transform="matrix(-0.746009 0.665936 0.665936 0.746009 580 458.759)" fill="#3D3024" stroke="#5D4D3D" stroke-width="1.98737"/>
<circle cx="38.5307" cy="38.5307" r="37.537" transform="matrix(-0.746009 0.665936 0.665936 0.746009 466.82 529.768)" fill="#3D3024" stroke="#5D4D3D" stroke-width="1.98737"/>
<circle cx="30.9468" cy="30.9468" r="29.9532" transform="matrix(-0.746009 0.665936 0.665936 0.746009 466.211 540.475)" fill="#3D3024" stroke="#5D4D3D" stroke-width="1.98737"/>
<circle cx="23.3842" cy="23.3842" r="22.3905" transform="matrix(-0.746009 0.665936 0.665936 0.746009 465.609 551.152)" fill="#3D3024" stroke="#5D4D3D" stroke-width="1.98737"/>
<circle cx="16.1359" cy="16.1359" r="15.1422" transform="matrix(-0.746009 0.665936 0.665936 0.746009 465.023 561.388)" fill="#3D3024" stroke="#5D4D3D" stroke-width="1.98737"/>
<circle cx="38.5307" cy="38.5307" r="37.537" transform="matrix(-0.746009 0.665936 0.665936 0.746009 684.523 368.655)" fill="#3D3024" stroke="#5D4D3D" stroke-width="1.98737"/>
<circle cx="30.9468" cy="30.9468" r="29.9532" transform="matrix(-0.746009 0.665936 0.665936 0.746009 683.914 379.363)" fill="#3D3024" stroke="#5D4D3D" stroke-width="1.98737"/>
<circle cx="23.3842" cy="23.3842" r="22.3905" transform="matrix(-0.746009 0.665936 0.665936 0.746009 683.312 390.042)" fill="#3D3024" stroke="#5D4D3D" stroke-width="1.98737"/>
<circle cx="16.1359" cy="16.1359" r="15.1422" transform="matrix(-0.746009 0.665936 0.665936 0.746009 682.727 400.275)" fill="#3D3024" stroke="#5D4D3D" stroke-width="1.98737"/>
<circle cx="38.5307" cy="38.5307" r="37.537" transform="matrix(-0.746009 0.665936 0.665936 0.746009 742 317.343)" fill="#3D3024" stroke="#5D4D3D" stroke-width="1.98737"/>
<circle cx="30.9468" cy="30.9468" r="29.9532" transform="matrix(-0.746009 0.665936 0.665936 0.746009 741.391 328.051)" fill="#3D3024" stroke="#5D4D3D" stroke-width="1.98737"/>
<circle cx="38.5307" cy="38.5307" r="37.537" transform="matrix(-0.746009 0.665936 0.665936 0.746009 512.062 522.598)" fill="#3D3024" stroke="#5D4D3D" stroke-width="1.98737"/>
<circle cx="30.9468" cy="30.9468" r="29.9532" transform="matrix(-0.746009 0.665936 0.665936 0.746009 511.453 533.306)" fill="#3D3024" stroke="#5D4D3D" stroke-width="1.98737"/>
<circle cx="23.3842" cy="23.3842" r="22.3905" transform="matrix(-0.746009 0.665936 0.665936 0.746009 510.852 543.984)" fill="#3D3024" stroke="#5D4D3D" stroke-width="1.98737"/>
<circle cx="16.1359" cy="16.1359" r="15.1422" transform="matrix(-0.746009 0.665936 0.665936 0.746009 510.266 554.219)" fill="#3D3024" stroke="#5D4D3D" stroke-width="1.98737"/>
<circle cx="38.5307" cy="38.5307" r="37.537" transform="matrix(-0.746009 0.665936 0.665936 0.746009 569.547 471.285)" fill="#3D3024" stroke="#5D4D3D" stroke-width="1.98737"/>
<circle cx="30.9468" cy="30.9468" r="29.9532" transform="matrix(-0.746009 0.665936 0.665936 0.746009 568.938 481.992)" fill="#3D3024" stroke="#5D4D3D" stroke-width="1.98737"/>
<circle cx="23.3842" cy="23.3842" r="22.3905" transform="matrix(-0.746009 0.665936 0.665936 0.746009 568.336 492.67)" fill="#3D3024" stroke="#5D4D3D" stroke-width="1.98737"/>
<circle cx="16.1359" cy="16.1359" r="15.1422" transform="matrix(-0.746009 0.665936 0.665936 0.746009 567.75 502.905)" fill="#3D3024" stroke="#5D4D3D" stroke-width="1.98737"/>
<circle cx="38.5307" cy="38.5307" r="37.537" transform="matrix(-0.746009 0.665936 0.665936 0.746009 627.039 419.968)" fill="#3D3024" stroke="#5D4D3D" stroke-width="1.98737"/>
<circle cx="30.9468" cy="30.9468" r="29.9532" transform="matrix(-0.746009 0.665936 0.665936 0.746009 626.43 430.675)" fill="#3D3024" stroke="#5D4D3D" stroke-width="1.98737"/>
<circle cx="23.3842" cy="23.3842" r="22.3905" transform="matrix(-0.746009 0.665936 0.665936 0.746009 625.828 441.353)" fill="#3D3024" stroke="#5D4D3D" stroke-width="1.98737"/>
<circle cx="16.1359" cy="16.1359" r="15.1422" transform="matrix(-0.746009 0.665936 0.665936 0.746009 625.242 451.588)" fill="#3D3024" stroke="#5D4D3D" stroke-width="1.98737"/>
<circle cx="38.5307" cy="38.5307" r="37.537" transform="matrix(-0.746009 0.665936 0.665936 0.746009 728.195 359.687)" fill="#3D3024" stroke="#5D4D3D" stroke-width="1.98737"/>
<circle cx="30.9468" cy="30.9468" r="29.9532" transform="matrix(-0.746009 0.665936 0.665936 0.746009 727.586 370.394)" fill="#3D3024" stroke="#5D4D3D" stroke-width="1.98737"/>
<circle cx="23.3842" cy="23.3842" r="22.3905" transform="matrix(-0.746009 0.665936 0.665936 0.746009 726.984 381.073)" fill="#3D3024" stroke="#5D4D3D" stroke-width="1.98737"/>
<circle cx="38.5307" cy="38.5307" r="37.537" transform="matrix(-0.746009 0.665936 0.665936 0.746009 670.703 411.007)" fill="#3D3024" stroke="#5D4D3D" stroke-width="1.98737"/>
<circle cx="30.9468" cy="30.9468" r="29.9532" transform="matrix(-0.746009 0.665936 0.665936 0.746009 670.094 421.715)" fill="#3D3024" stroke="#5D4D3D" stroke-width="1.98737"/>
<circle cx="23.3842" cy="23.3842" r="22.3905" transform="matrix(-0.746009 0.665936 0.665936 0.746009 669.492 432.393)" fill="#3D3024" stroke="#5D4D3D" stroke-width="1.98737"/>
<circle cx="16.1359" cy="16.1359" r="15.1422" transform="matrix(-0.746009 0.665936 0.665936 0.746009 668.906 442.626)" fill="#3D3024" stroke="#5D4D3D" stroke-width="1.98737"/>
<circle cx="38.5307" cy="38.5307" r="37.537" transform="matrix(-0.746009 0.665936 0.665936 0.746009 555.727 513.644)" fill="#3D3024" stroke="#5D4D3D" stroke-width="1.98737"/>
<circle cx="30.9468" cy="30.9468" r="29.9532" transform="matrix(-0.746009 0.665936 0.665936 0.746009 555.117 524.353)" fill="#3D3024" stroke="#5D4D3D" stroke-width="1.98737"/>
<circle cx="23.3842" cy="23.3842" r="22.3905" transform="matrix(-0.746009 0.665936 0.665936 0.746009 554.516 535.03)" fill="#3D3024" stroke="#5D4D3D" stroke-width="1.98737"/>
<circle cx="16.1359" cy="16.1359" r="15.1422" transform="matrix(-0.746009 0.665936 0.665936 0.746009 553.93 545.264)" fill="#3D3024" stroke="#5D4D3D" stroke-width="1.98737"/>
<circle cx="38.5307" cy="38.5307" r="37.537" transform="matrix(-0.746009 0.665936 0.665936 0.746009 613.211 462.328)" fill="#3D3024" stroke="#5D4D3D" stroke-width="1.98737"/>
<circle cx="30.9468" cy="30.9468" r="29.9532" transform="matrix(-0.746009 0.665936 0.665936 0.746009 612.602 473.036)" fill="#3D3024" stroke="#5D4D3D" stroke-width="1.98737"/>
<circle cx="23.3842" cy="23.3842" r="22.3905" transform="matrix(-0.746009 0.665936 0.665936 0.746009 612 483.713)" fill="#3D3024" stroke="#5D4D3D" stroke-width="1.98737"/>
<circle cx="16.1359" cy="16.1359" r="15.1422" transform="matrix(-0.746009 0.665936 0.665936 0.746009 611.414 493.949)" fill="#3D3024" stroke="#5D4D3D" stroke-width="1.98737"/>
<circle cx="38.5307" cy="38.5307" r="37.537" transform="matrix(-0.746009 0.665936 0.665936 0.746009 498.234 564.96)" fill="#3D3024" stroke="#5D4D3D" stroke-width="1.98737"/>
<circle cx="30.9468" cy="30.9468" r="29.9532" transform="matrix(-0.746009 0.665936 0.665936 0.746009 497.625 575.667)" fill="#3D3024" stroke="#5D4D3D" stroke-width="1.98737"/>
<circle cx="23.3842" cy="23.3842" r="22.3905" transform="matrix(-0.746009 0.665936 0.665936 0.746009 497.023 586.347)" fill="#3D3024" stroke="#5D4D3D" stroke-width="1.98737"/>
<circle cx="16.1359" cy="16.1359" r="15.1422" transform="matrix(-0.746009 0.665936 0.665936 0.746009 496.438 596.58)" fill="#3D3024" stroke="#5D4D3D" stroke-width="1.98737"/>
<circle cx="38.5307" cy="38.5307" r="37.537" transform="matrix(-0.746009 0.665936 0.665936 0.746009 717.75 405.853)" fill="#3D3024" stroke="#5D4D3D" stroke-width="1.98737"/>
<circle cx="30.9468" cy="30.9468" r="29.9532" transform="matrix(-0.746009 0.665936 0.665936 0.746009 717.141 416.562)" fill="#3D3024" stroke="#5D4D3D" stroke-width="1.98737"/>
<circle cx="23.3842" cy="23.3842" r="22.3905" transform="matrix(-0.746009 0.665936 0.665936 0.746009 716.539 427.237)" fill="#3D3024" stroke="#5D4D3D" stroke-width="1.98737"/>
<circle cx="16.1359" cy="16.1359" r="15.1422" transform="matrix(-0.746009 0.665936 0.665936 0.746009 715.953 437.473)" fill="#3D3024" stroke="#5D4D3D" stroke-width="1.98737"/>
<circle cx="38.5307" cy="38.5307" r="37.537" transform="matrix(-0.746009 0.665936 0.665936 0.746009 660.266 457.173)" fill="#3D3024" stroke="#5D4D3D" stroke-width="1.98737"/>
<circle cx="30.9468" cy="30.9468" r="29.9532" transform="matrix(-0.746009 0.665936 0.665936 0.746009 659.656 467.879)" fill="#3D3024" stroke="#5D4D3D" stroke-width="1.98737"/>
<circle cx="23.3842" cy="23.3842" r="22.3905" transform="matrix(-0.746009 0.665936 0.665936 0.746009 659.055 478.558)" fill="#3D3024" stroke="#5D4D3D" stroke-width="1.98737"/>
<circle cx="16.1359" cy="16.1359" r="15.1422" transform="matrix(-0.746009 0.665936 0.665936 0.746009 658.469 488.792)" fill="#3D3024" stroke="#5D4D3D" stroke-width="1.98737"/>
<circle cx="38.5307" cy="38.5307" r="37.537" transform="matrix(-0.746009 0.665936 0.665936 0.746009 602.766 508.488)" fill="#3D3024" stroke="#5D4D3D" stroke-width="1.98737"/>
<circle cx="30.9468" cy="30.9468" r="29.9532" transform="matrix(-0.746009 0.665936 0.665936 0.746009 602.156 519.194)" fill="#3D3024" stroke="#5D4D3D" stroke-width="1.98737"/>
<circle cx="23.3842" cy="23.3842" r="22.3905" transform="matrix(-0.746009 0.665936 0.665936 0.746009 601.555 529.873)" fill="#3D3024" stroke="#5D4D3D" stroke-width="1.98737"/>
<circle cx="16.1359" cy="16.1359" r="15.1422" transform="matrix(-0.746009 0.665936 0.665936 0.746009 600.969 540.107)" fill="#3D3024" stroke="#5D4D3D" stroke-width="1.98737"/>
<circle cx="38.5307" cy="38.5307" r="37.537" transform="matrix(-0.746009 0.665936 0.665936 0.746009 545.281 559.803)" fill="#3D3024" stroke="#5D4D3D" stroke-width="1.98737"/>
<circle cx="30.9468" cy="30.9468" r="29.9532" transform="matrix(-0.746009 0.665936 0.665936 0.746009 544.672 570.512)" fill="#3D3024" stroke="#5D4D3D" stroke-width="1.98737"/>
<circle cx="23.3842" cy="23.3842" r="22.3905" transform="matrix(-0.746009 0.665936 0.665936 0.746009 544.07 581.189)" fill="#3D3024" stroke="#5D4D3D" stroke-width="1.98737"/>
<circle cx="16.1359" cy="16.1359" r="15.1422" transform="matrix(-0.746009 0.665936 0.665936 0.746009 543.484 591.426)" fill="#3D3024" stroke="#5D4D3D" stroke-width="1.98737"/>
<circle cx="38.5307" cy="38.5307" r="37.537" transform="matrix(-0.746009 0.665936 0.665936 0.746009 705.516 450.01)" fill="#3D3024" stroke="#5D4D3D" stroke-width="1.98737"/>
<circle cx="30.9468" cy="30.9468" r="29.9532" transform="matrix(-0.746009 0.665936 0.665936 0.746009 704.906 460.718)" fill="#3D3024" stroke="#5D4D3D" stroke-width="1.98737"/>
<circle cx="23.3842" cy="23.3842" r="22.3905" transform="matrix(-0.746009 0.665936 0.665936 0.746009 704.305 471.396)" fill="#3D3024" stroke="#5D4D3D" stroke-width="1.98737"/>
<circle cx="16.1359" cy="16.1359" r="15.1422" transform="matrix(-0.746009 0.665936 0.665936 0.746009 703.719 481.629)" fill="#3D3024" stroke="#5D4D3D" stroke-width="1.98737"/>
<circle cx="38.5307" cy="38.5307" r="37.537" transform="matrix(-0.746009 0.665936 0.665936 0.746009 750.766 442.835)" fill="#3D3024" stroke="#5D4D3D" stroke-width="1.98737"/>
<circle cx="38.5307" cy="38.5307" r="37.537" transform="matrix(-0.746009 0.665936 0.665936 0.746009 643.016 495.709)" fill="#3D3024" stroke="#5D4D3D" stroke-width="1.98737"/>
<circle cx="30.9468" cy="30.9468" r="29.9532" transform="matrix(-0.746009 0.665936 0.665936 0.746009 642.406 506.417)" fill="#3D3024" stroke="#5D4D3D" stroke-width="1.98737"/>
<circle cx="23.3842" cy="23.3842" r="22.3905" transform="matrix(-0.746009 0.665936 0.665936 0.746009 641.805 517.096)" fill="#3D3024" stroke="#5D4D3D" stroke-width="1.98737"/>
<circle cx="16.1359" cy="16.1359" r="15.1422" transform="matrix(-0.746009 0.665936 0.665936 0.746009 641.219 527.33)" fill="#3D3024" stroke="#5D4D3D" stroke-width="1.98737"/>
<circle cx="38.5307" cy="38.5307" r="37.537" transform="matrix(-0.746009 0.665936 0.665936 0.746009 585.523 547.027)" fill="#3D3024" stroke="#5D4D3D" stroke-width="1.98737"/>
<circle cx="30.9468" cy="30.9468" r="29.9532" transform="matrix(-0.746009 0.665936 0.665936 0.746009 584.914 557.736)" fill="#3D3024" stroke="#5D4D3D" stroke-width="1.98737"/>
<circle cx="23.3842" cy="23.3842" r="22.3905" transform="matrix(-0.746009 0.665936 0.665936 0.746009 584.312 568.413)" fill="#3D3024" stroke="#5D4D3D" stroke-width="1.98737"/>
<circle cx="16.1359" cy="16.1359" r="15.1422" transform="matrix(-0.746009 0.665936 0.665936 0.746009 583.727 578.647)" fill="#3D3024" stroke="#5D4D3D" stroke-width="1.98737"/>
<circle cx="38.5307" cy="38.5307" r="37.537" transform="matrix(-0.746009 0.665936 0.665936 0.746009 528.055 598.329)" fill="#3D3024" stroke="#5D4D3D" stroke-width="1.98737"/>
<circle cx="30.9468" cy="30.9468" r="29.9532" transform="matrix(-0.746009 0.665936 0.665936 0.746009 527.445 609.036)" fill="#3D3024" stroke="#5D4D3D" stroke-width="1.98737"/>
<circle cx="23.3842" cy="23.3842" r="22.3905" transform="matrix(-0.746009 0.665936 0.665936 0.746009 526.844 619.716)" fill="#3D3024" stroke="#5D4D3D" stroke-width="1.98737"/>
<circle cx="16.1359" cy="16.1359" r="15.1422" transform="matrix(-0.746009 0.665936 0.665936 0.746009 526.258 629.949)" fill="#3D3024" stroke="#5D4D3D" stroke-width="1.98737"/>
<circle cx="38.5307" cy="38.5307" r="37.537" transform="matrix(-0.746009 0.665936 0.665936 0.746009 689.859 490.324)" fill="#3D3024" stroke="#5D4D3D" stroke-width="1.98737"/>
<circle cx="30.9468" cy="30.9468" r="29.9532" transform="matrix(-0.746009 0.665936 0.665936 0.746009 689.25 501.032)" fill="#3D3024" stroke="#5D4D3D" stroke-width="1.98737"/>
<circle cx="23.3842" cy="23.3842" r="22.3905" transform="matrix(-0.746009 0.665936 0.665936 0.746009 688.648 511.711)" fill="#3D3024" stroke="#5D4D3D" stroke-width="1.98737"/>
<circle cx="16.1359" cy="16.1359" r="15.1422" transform="matrix(-0.746009 0.665936 0.665936 0.746009 688.062 521.944)" fill="#3D3024" stroke="#5D4D3D" stroke-width="1.98737"/>
<circle cx="38.5307" cy="38.5307" r="37.537" transform="matrix(-0.746009 0.665936 0.665936 0.746009 632.367 541.642)" fill="#3D3024" stroke="#5D4D3D" stroke-width="1.98737"/>
<circle cx="30.9468" cy="30.9468" r="29.9532" transform="matrix(-0.746009 0.665936 0.665936 0.746009 631.758 552.352)" fill="#3D3024" stroke="#5D4D3D" stroke-width="1.98737"/>
<circle cx="23.3842" cy="23.3842" r="22.3905" transform="matrix(-0.746009 0.665936 0.665936 0.746009 631.156 563.028)" fill="#3D3024" stroke="#5D4D3D" stroke-width="1.98737"/>
<circle cx="16.1359" cy="16.1359" r="15.1422" transform="matrix(-0.746009 0.665936 0.665936 0.746009 630.57 573.262)" fill="#3D3024" stroke="#5D4D3D" stroke-width="1.98737"/>
<circle cx="38.5307" cy="38.5307" r="37.537" transform="matrix(-0.746009 0.665936 0.665936 0.746009 574.883 592.962)" fill="#3D3024" stroke="#5D4D3D" stroke-width="1.98737"/>
<circle cx="30.9468" cy="30.9468" r="29.9532" transform="matrix(-0.746009 0.665936 0.665936 0.746009 574.273 603.672)" fill="#3D3024" stroke="#5D4D3D" stroke-width="1.98737"/>
<circle cx="23.3842" cy="23.3842" r="22.3905" transform="matrix(-0.746009 0.665936 0.665936 0.746009 573.672 614.349)" fill="#3D3024" stroke="#5D4D3D" stroke-width="1.98737"/>
<circle cx="16.1359" cy="16.1359" r="15.1422" transform="matrix(-0.746009 0.665936 0.665936 0.746009 573.086 624.582)" fill="#3D3024" stroke="#5D4D3D" stroke-width="1.98737"/>
<circle cx="38.5307" cy="38.5307" r="37.537" transform="matrix(-0.746009 0.665936 0.665936 0.746009 679.422 536.489)" fill="#3D3024" stroke="#5D4D3D" stroke-width="1.98737"/>
<circle cx="30.9468" cy="30.9468" r="29.9532" transform="matrix(-0.746009 0.665936 0.665936 0.746009 678.812 547.199)" fill="#3D3024" stroke="#5D4D3D" stroke-width="1.98737"/>
<circle cx="23.3842" cy="23.3842" r="22.3905" transform="matrix(-0.746009 0.665936 0.665936 0.746009 678.211 557.877)" fill="#3D3024" stroke="#5D4D3D" stroke-width="1.98737"/>
<circle cx="16.1359" cy="16.1359" r="15.1422" transform="matrix(-0.746009 0.665936 0.665936 0.746009 677.625 568.112)" fill="#3D3024" stroke="#5D4D3D" stroke-width="1.98737"/>
<circle cx="38.5307" cy="38.5307" r="37.537" transform="matrix(-0.746009 0.665936 0.665936 0.746009 621.93 587.808)" fill="#3D3024" stroke="#5D4D3D" stroke-width="1.98737"/>
<circle cx="30.9468" cy="30.9468" r="29.9532" transform="matrix(-0.746009 0.665936 0.665936 0.746009 621.32 598.517)" fill="#3D3024" stroke="#5D4D3D" stroke-width="1.98737"/>
<circle cx="23.3842" cy="23.3842" r="22.3905" transform="matrix(-0.746009 0.665936 0.665936 0.746009 620.719 609.194)" fill="#3D3024" stroke="#5D4D3D" stroke-width="1.98737"/>
<circle cx="16.1359" cy="16.1359" r="15.1422" transform="matrix(-0.746009 0.665936 0.665936 0.746009 620.133 619.428)" fill="#3D3024" stroke="#5D4D3D" stroke-width="1.98737"/>
<circle cx="38.5307" cy="38.5307" r="37.537" transform="matrix(-0.746009 0.665936 0.665936 0.746009 564.445 639.128)" fill="#3D3024" stroke="#5D4D3D" stroke-width="1.98737"/>
<circle cx="30.9468" cy="30.9468" r="29.9532" transform="matrix(-0.746009 0.665936 0.665936 0.746009 563.836 649.834)" fill="#3D3024" stroke="#5D4D3D" stroke-width="1.98737"/>
<circle cx="23.3842" cy="23.3842" r="22.3905" transform="matrix(-0.746009 0.665936 0.665936 0.746009 563.234 660.513)" fill="#3D3024" stroke="#5D4D3D" stroke-width="1.98737"/>
<circle cx="16.1359" cy="16.1359" r="15.1422" transform="matrix(-0.746009 0.665936 0.665936 0.746009 562.648 670.748)" fill="#3D3024" stroke="#5D4D3D" stroke-width="1.98737"/>
<circle cx="38.5307" cy="38.5307" r="37.537" transform="matrix(-0.746009 0.665936 0.665936 0.746009 736.906 485.175)" fill="#3D3024" stroke="#5D4D3D" stroke-width="1.98737"/>
<circle cx="30.9468" cy="30.9468" r="29.9532" transform="matrix(-0.746009 0.665936 0.665936 0.746009 736.297 495.881)" fill="#3D3024" stroke="#5D4D3D" stroke-width="1.98737"/>
<circle cx="38.5307" cy="38.5307" r="37.537" transform="matrix(-0.746009 0.665936 0.665936 0.746009 724.672 529.329)" fill="#3D3024" stroke="#5D4D3D" stroke-width="1.98737"/>
<circle cx="30.9468" cy="30.9468" r="29.9532" transform="matrix(-0.746009 0.665936 0.665936 0.746009 724.062 540.035)" fill="#3D3024" stroke="#5D4D3D" stroke-width="1.98737"/>
<circle cx="23.3842" cy="23.3842" r="22.3905" transform="matrix(-0.746009 0.665936 0.665936 0.746009 723.461 550.714)" fill="#3D3024" stroke="#5D4D3D" stroke-width="1.98737"/>
<circle cx="16.1359" cy="16.1359" r="15.1422" transform="matrix(-0.746009 0.665936 0.665936 0.746009 722.875 560.948)" fill="#3D3024" stroke="#5D4D3D" stroke-width="1.98737"/>
<circle cx="38.5307" cy="38.5307" r="37.537" transform="matrix(-0.746009 0.665936 0.665936 0.746009 667.188 580.646)" fill="#3D3024" stroke="#5D4D3D" stroke-width="1.98737"/>
<circle cx="30.9468" cy="30.9468" r="29.9532" transform="matrix(-0.746009 0.665936 0.665936 0.746009 666.578 591.354)" fill="#3D3024" stroke="#5D4D3D" stroke-width="1.98737"/>
<circle cx="23.3842" cy="23.3842" r="22.3905" transform="matrix(-0.746009 0.665936 0.665936 0.746009 665.977 602.031)" fill="#3D3024" stroke="#5D4D3D" stroke-width="1.98737"/>
<circle cx="16.1359" cy="16.1359" r="15.1422" transform="matrix(-0.746009 0.665936 0.665936 0.746009 665.391 612.267)" fill="#3D3024" stroke="#5D4D3D" stroke-width="1.98737"/>
<circle cx="38.5307" cy="38.5307" r="37.537" transform="matrix(-0.746009 0.665936 0.665936 0.746009 609.711 631.95)" fill="#3D3024" stroke="#5D4D3D" stroke-width="1.98737"/>
<circle cx="30.9468" cy="30.9468" r="29.9532" transform="matrix(-0.746009 0.665936 0.665936 0.746009 609.102 642.659)" fill="#3D3024" stroke="#5D4D3D" stroke-width="1.98737"/>
<circle cx="23.3842" cy="23.3842" r="22.3905" transform="matrix(-0.746009 0.665936 0.665936 0.746009 608.5 653.337)" fill="#3D3024" stroke="#5D4D3D" stroke-width="1.98737"/>
<circle cx="16.1359" cy="16.1359" r="15.1422" transform="matrix(-0.746009 0.665936 0.665936 0.746009 607.914 663.57)" fill="#3D3024" stroke="#5D4D3D" stroke-width="1.98737"/>
<circle cx="38.5307" cy="38.5307" r="37.537" transform="matrix(-0.746009 0.665936 0.665936 0.746009 712.43 573.475)" fill="#3D3024" stroke="#5D4D3D" stroke-width="1.98737"/>
<circle cx="30.9468" cy="30.9468" r="29.9532" transform="matrix(-0.746009 0.665936 0.665936 0.746009 711.82 584.183)" fill="#3D3024" stroke="#5D4D3D" stroke-width="1.98737"/>
<circle cx="23.3842" cy="23.3842" r="22.3905" transform="matrix(-0.746009 0.665936 0.665936 0.746009 711.219 594.859)" fill="#3D3024" stroke="#5D4D3D" stroke-width="1.98737"/>
<circle cx="16.1359" cy="16.1359" r="15.1422" transform="matrix(-0.746009 0.665936 0.665936 0.746009 710.633 605.095)" fill="#3D3024" stroke="#5D4D3D" stroke-width="1.98737"/>
<circle cx="38.5307" cy="38.5307" r="37.537" transform="matrix(-0.746009 0.665936 0.665936 0.746009 654.945 624.792)" fill="#3D3024" stroke="#5D4D3D" stroke-width="1.98737"/>
<circle cx="30.9468" cy="30.9468" r="29.9532" transform="matrix(-0.746009 0.665936 0.665936 0.746009 654.336 635.502)" fill="#3D3024" stroke="#5D4D3D" stroke-width="1.98737"/>
<circle cx="23.3842" cy="23.3842" r="22.3905" transform="matrix(-0.746009 0.665936 0.665936 0.746009 653.734 646.177)" fill="#3D3024" stroke="#5D4D3D" stroke-width="1.98737"/>
<circle cx="16.1359" cy="16.1359" r="15.1422" transform="matrix(-0.746009 0.665936 0.665936 0.746009 653.148 656.412)" fill="#3D3024" stroke="#5D4D3D" stroke-width="1.98737"/>
<circle cx="38.5307" cy="38.5307" r="37.537" transform="matrix(-0.746009 0.665936 0.665936 0.746009 597.453 676.11)" fill="#3D3024" stroke="#5D4D3D" stroke-width="1.98737"/>
<circle cx="30.9468" cy="30.9468" r="29.9532" transform="matrix(-0.746009 0.665936 0.665936 0.746009 596.844 686.817)" fill="#3D3024" stroke="#5D4D3D" stroke-width="1.98737"/>
<circle cx="23.3842" cy="23.3842" r="22.3905" transform="matrix(-0.746009 0.665936 0.665936 0.746009 596.242 697.494)" fill="#3D3024" stroke="#5D4D3D" stroke-width="1.98737"/>
<circle cx="16.1359" cy="16.1359" r="15.1422" transform="matrix(-0.746009 0.665936 0.665936 0.746009 595.656 707.73)" fill="#3D3024" stroke="#5D4D3D" stroke-width="1.98737"/>
<circle cx="38.5307" cy="38.5307" r="37.537" transform="matrix(-0.746009 0.665936 0.665936 0.746009 644.523 670.939)" fill="#3D3024" stroke="#5D4D3D" stroke-width="1.98737"/>
<circle cx="30.9468" cy="30.9468" r="29.9532" transform="matrix(-0.746009 0.665936 0.665936 0.746009 643.914 681.648)" fill="#3D3024" stroke="#5D4D3D" stroke-width="1.98737"/>
<circle cx="23.3842" cy="23.3842" r="22.3905" transform="matrix(-0.746009 0.665936 0.665936 0.746009 643.312 692.326)" fill="#3D3024" stroke="#5D4D3D" stroke-width="1.98737"/>
<circle cx="16.1359" cy="16.1359" r="15.1422" transform="matrix(-0.746009 0.665936 0.665936 0.746009 642.727 702.561)" fill="#3D3024" stroke="#5D4D3D" stroke-width="1.98737"/>
<circle cx="38.5307" cy="38.5307" r="37.537" transform="matrix(-0.746009 0.665936 0.665936 0.746009 702.008 619.622)" fill="#3D3024" stroke="#5D4D3D" stroke-width="1.98737"/>
<circle cx="30.9468" cy="30.9468" r="29.9532" transform="matrix(-0.746009 0.665936 0.665936 0.746009 701.398 630.33)" fill="#3D3024" stroke="#5D4D3D" stroke-width="1.98737"/>
<circle cx="23.3842" cy="23.3842" r="22.3905" transform="matrix(-0.746009 0.665936 0.665936 0.746009 700.797 641.009)" fill="#3D3024" stroke="#5D4D3D" stroke-width="1.98737"/>
<circle cx="16.1359" cy="16.1359" r="15.1422" transform="matrix(-0.746009 0.665936 0.665936 0.746009 700.211 651.242)" fill="#3D3024" stroke="#5D4D3D" stroke-width="1.98737"/>
<circle cx="38.5307" cy="38.5307" r="37.537" transform="matrix(-0.746009 0.665936 0.665936 0.746009 689.781 663.778)" fill="#3D3024" stroke="#5D4D3D" stroke-width="1.98737"/>
<circle cx="30.9468" cy="30.9468" r="29.9532" transform="matrix(-0.746009 0.665936 0.665936 0.746009 689.172 674.486)" fill="#3D3024" stroke="#5D4D3D" stroke-width="1.98737"/>
<circle cx="23.3842" cy="23.3842" r="22.3905" transform="matrix(-0.746009 0.665936 0.665936 0.746009 688.57 685.162)" fill="#3D3024" stroke="#5D4D3D" stroke-width="1.98737"/>
<circle cx="16.1359" cy="16.1359" r="15.1422" transform="matrix(-0.746009 0.665936 0.665936 0.746009 687.984 695.398)" fill="#3D3024" stroke="#5D4D3D" stroke-width="1.98737"/>
<circle cx="38.5307" cy="38.5307" r="37.537" transform="matrix(-0.746009 0.665936 0.665936 0.746009 747.258 612.466)" fill="#3D3024" stroke="#5D4D3D" stroke-width="1.98737"/>
<circle cx="38.5307" cy="38.5307" r="37.537" transform="matrix(-0.746009 0.665936 0.665936 0.746009 632.289 715.096)" fill="#3D3024" stroke="#5D4D3D" stroke-width="1.98737"/>
<circle cx="30.9468" cy="30.9468" r="29.9532" transform="matrix(-0.746009 0.665936 0.665936 0.746009 631.68 725.803)" fill="#3D3024" stroke="#5D4D3D" stroke-width="1.98737"/>
<circle cx="23.3842" cy="23.3842" r="22.3905" transform="matrix(-0.746009 0.665936 0.665936 0.746009 631.078 736.48)" fill="#3D3024" stroke="#5D4D3D" stroke-width="1.98737"/>
<circle cx="38.5307" cy="38.5307" r="37.537" transform="matrix(-0.746009 0.665936 0.665936 0.746009 677.531 707.929)" fill="#3D3024" stroke="#5D4D3D" stroke-width="1.98737"/>
<circle cx="30.9468" cy="30.9468" r="29.9532" transform="matrix(-0.746009 0.665936 0.665936 0.746009 676.922 718.635)" fill="#3D3024" stroke="#5D4D3D" stroke-width="1.98737"/>
<circle cx="23.3842" cy="23.3842" r="22.3905" transform="matrix(-0.746009 0.665936 0.665936 0.746009 676.32 729.312)" fill="#3D3024" stroke="#5D4D3D" stroke-width="1.98737"/>
<circle cx="16.1359" cy="16.1359" r="15.1422" transform="matrix(-0.746009 0.665936 0.665936 0.746009 675.734 739.548)" fill="#3D3024" stroke="#5D4D3D" stroke-width="1.98737"/>
<circle cx="38.5307" cy="38.5307" r="37.537" transform="matrix(-0.746009 0.665936 0.665936 0.746009 735.016 656.613)" fill="#3D3024" stroke="#5D4D3D" stroke-width="1.98737"/>
<circle cx="30.9468" cy="30.9468" r="29.9532" transform="matrix(-0.746009 0.665936 0.665936 0.746009 734.406 667.32)" fill="#3D3024" stroke="#5D4D3D" stroke-width="1.98737"/>
<circle cx="23.3842" cy="23.3842" r="22.3905" transform="matrix(-0.746009 0.665936 0.665936 0.746009 733.805 677.998)" fill="#3D3024" stroke="#5D4D3D" stroke-width="1.98737"/>
<circle cx="38.5307" cy="38.5307" r="37.537" transform="matrix(-0.746009 0.665936 0.665936 0.746009 304.922 464.469)" fill="#3D3024" stroke="#5D4D3D" stroke-width="1.98737"/>
<circle cx="30.9468" cy="30.9468" r="29.9532" transform="matrix(-0.746009 0.665936 0.665936 0.746009 304.312 475.177)" fill="#3D3024" stroke="#5D4D3D" stroke-width="1.98737"/>
<circle cx="23.3842" cy="23.3842" r="22.3905" transform="matrix(-0.746009 0.665936 0.665936 0.746009 303.711 485.855)" fill="#3D3024" stroke="#5D4D3D" stroke-width="1.98737"/>
<circle cx="16.1359" cy="16.1359" r="15.1422" transform="matrix(-0.746009 0.665936 0.665936 0.746009 303.125 496.089)" fill="#3D3024" stroke="#5D4D3D" stroke-width="1.98737"/>
<circle cx="38.5307" cy="38.5307" r="37.537" transform="matrix(-0.746009 0.665936 0.665936 0.746009 363.297 414.137)" fill="#3D3024" stroke="#5D4D3D" stroke-width="1.98737"/>
<circle cx="30.9468" cy="30.9468" r="29.9532" transform="matrix(-0.746009 0.665936 0.665936 0.746009 362.688 424.845)" fill="#3D3024" stroke="#5D4D3D" stroke-width="1.98737"/>
<circle cx="23.3842" cy="23.3842" r="22.3905" transform="matrix(-0.746009 0.665936 0.665936 0.746009 362.086 435.523)" fill="#3D3024" stroke="#5D4D3D" stroke-width="1.98737"/>
<circle cx="16.1359" cy="16.1359" r="15.1422" transform="matrix(-0.746009 0.665936 0.665936 0.746009 361.5 445.757)" fill="#3D3024" stroke="#5D4D3D" stroke-width="1.98737"/>
<circle cx="38.5307" cy="38.5307" r="37.537" transform="matrix(-0.746009 0.665936 0.665936 0.746009 351.773 459.084)" fill="#3D3024" stroke="#5D4D3D" stroke-width="1.98737"/>
<circle cx="30.9468" cy="30.9468" r="29.9532" transform="matrix(-0.746009 0.665936 0.665936 0.746009 351.164 469.793)" fill="#3D3024" stroke="#5D4D3D" stroke-width="1.98737"/>
<circle cx="23.3842" cy="23.3842" r="22.3905" transform="matrix(-0.746009 0.665936 0.665936 0.746009 350.562 480.47)" fill="#3D3024" stroke="#5D4D3D" stroke-width="1.98737"/>
<circle cx="16.1359" cy="16.1359" r="15.1422" transform="matrix(-0.746009 0.665936 0.665936 0.746009 349.977 490.706)" fill="#3D3024" stroke="#5D4D3D" stroke-width="1.98737"/>
<circle cx="38.5307" cy="38.5307" r="37.537" transform="matrix(-0.746009 0.665936 0.665936 0.746009 294.281 510.404)" fill="#3D3024" stroke="#5D4D3D" stroke-width="1.98737"/>
<circle cx="30.9468" cy="30.9468" r="29.9532" transform="matrix(-0.746009 0.665936 0.665936 0.746009 293.672 521.111)" fill="#3D3024" stroke="#5D4D3D" stroke-width="1.98737"/>
<circle cx="23.3842" cy="23.3842" r="22.3905" transform="matrix(-0.746009 0.665936 0.665936 0.746009 293.07 531.791)" fill="#3D3024" stroke="#5D4D3D" stroke-width="1.98737"/>
<circle cx="16.1359" cy="16.1359" r="15.1422" transform="matrix(-0.746009 0.665936 0.665936 0.746009 292.484 542.024)" fill="#3D3024" stroke="#5D4D3D" stroke-width="1.98737"/>
<circle cx="38.5307" cy="38.5307" r="37.537" transform="matrix(-0.746009 0.665936 0.665936 0.746009 341.328 505.251)" fill="#3D3024" stroke="#5D4D3D" stroke-width="1.98737"/>
<circle cx="30.9468" cy="30.9468" r="29.9532" transform="matrix(-0.746009 0.665936 0.665936 0.746009 340.719 515.958)" fill="#3D3024" stroke="#5D4D3D" stroke-width="1.98737"/>
<circle cx="23.3842" cy="23.3842" r="22.3905" transform="matrix(-0.746009 0.665936 0.665936 0.746009 340.117 526.636)" fill="#3D3024" stroke="#5D4D3D" stroke-width="1.98737"/>
<circle cx="16.1359" cy="16.1359" r="15.1422" transform="matrix(-0.746009 0.665936 0.665936 0.746009 339.531 536.871)" fill="#3D3024" stroke="#5D4D3D" stroke-width="1.98737"/>
<circle cx="38.5307" cy="38.5307" r="37.537" transform="matrix(-0.746009 0.665936 0.665936 0.746009 283.844 556.569)" fill="#3D3024" stroke="#5D4D3D" stroke-width="1.98737"/>
<circle cx="30.9468" cy="30.9468" r="29.9532" transform="matrix(-0.746009 0.665936 0.665936 0.746009 283.234 567.277)" fill="#3D3024" stroke="#5D4D3D" stroke-width="1.98737"/>
<circle cx="23.3842" cy="23.3842" r="22.3905" transform="matrix(-0.746009 0.665936 0.665936 0.746009 282.633 577.955)" fill="#3D3024" stroke="#5D4D3D" stroke-width="1.98737"/>
<circle cx="16.1359" cy="16.1359" r="15.1422" transform="matrix(-0.746009 0.665936 0.665936 0.746009 282.047 588.19)" fill="#3D3024" stroke="#5D4D3D" stroke-width="1.98737"/>
<circle cx="38.5307" cy="38.5307" r="37.537" transform="matrix(-0.746009 0.665936 0.665936 0.746009 398.82 453.934)" fill="#3D3024" stroke="#5D4D3D" stroke-width="1.98737"/>
<circle cx="30.9468" cy="30.9468" r="29.9532" transform="matrix(-0.746009 0.665936 0.665936 0.746009 398.211 464.639)" fill="#3D3024" stroke="#5D4D3D" stroke-width="1.98737"/>
<circle cx="23.3842" cy="23.3842" r="22.3905" transform="matrix(-0.746009 0.665936 0.665936 0.746009 397.609 475.318)" fill="#3D3024" stroke="#5D4D3D" stroke-width="1.98737"/>
<circle cx="16.1359" cy="16.1359" r="15.1422" transform="matrix(-0.746009 0.665936 0.665936 0.746009 397.023 485.553)" fill="#3D3024" stroke="#5D4D3D" stroke-width="1.98737"/>
<circle cx="38.5307" cy="38.5307" r="37.537" transform="matrix(-0.746009 0.665936 0.665936 0.746009 386.586 498.088)" fill="#3D3024" stroke="#5D4D3D" stroke-width="1.98737"/>
<circle cx="30.9468" cy="30.9468" r="29.9532" transform="matrix(-0.746009 0.665936 0.665936 0.746009 385.977 508.796)" fill="#3D3024" stroke="#5D4D3D" stroke-width="1.98737"/>
<circle cx="23.3842" cy="23.3842" r="22.3905" transform="matrix(-0.746009 0.665936 0.665936 0.746009 385.375 519.473)" fill="#3D3024" stroke="#5D4D3D" stroke-width="1.98737"/>
<circle cx="16.1359" cy="16.1359" r="15.1422" transform="matrix(-0.746009 0.665936 0.665936 0.746009 384.789 529.708)" fill="#3D3024" stroke="#5D4D3D" stroke-width="1.98737"/>
<circle cx="38.5307" cy="38.5307" r="37.537" transform="matrix(-0.746009 0.665936 0.665936 0.746009 329.094 549.405)" fill="#3D3024" stroke="#5D4D3D" stroke-width="1.98737"/>
<circle cx="30.9468" cy="30.9468" r="29.9532" transform="matrix(-0.746009 0.665936 0.665936 0.746009 328.484 560.113)" fill="#3D3024" stroke="#5D4D3D" stroke-width="1.98737"/>
<circle cx="23.3842" cy="23.3842" r="22.3905" transform="matrix(-0.746009 0.665936 0.665936 0.746009 327.883 570.79)" fill="#3D3024" stroke="#5D4D3D" stroke-width="1.98737"/>
<circle cx="16.1359" cy="16.1359" r="15.1422" transform="matrix(-0.746009 0.665936 0.665936 0.746009 327.297 581.026)" fill="#3D3024" stroke="#5D4D3D" stroke-width="1.98737"/>
<circle cx="38.5307" cy="38.5307" r="37.537" transform="matrix(-0.746009 0.665936 0.665936 0.746009 374.344 542.233)" fill="#3D3024" stroke="#5D4D3D" stroke-width="1.98737"/>
<circle cx="30.9468" cy="30.9468" r="29.9532" transform="matrix(-0.746009 0.665936 0.665936 0.746009 373.734 552.941)" fill="#3D3024" stroke="#5D4D3D" stroke-width="1.98737"/>
<circle cx="23.3842" cy="23.3842" r="22.3905" transform="matrix(-0.746009 0.665936 0.665936 0.746009 373.133 563.62)" fill="#3D3024" stroke="#5D4D3D" stroke-width="1.98737"/>
<circle cx="16.1359" cy="16.1359" r="15.1422" transform="matrix(-0.746009 0.665936 0.665936 0.746009 372.547 573.854)" fill="#3D3024" stroke="#5D4D3D" stroke-width="1.98737"/>
<circle cx="38.5307" cy="38.5307" r="37.537" transform="matrix(-0.746009 0.665936 0.665936 0.746009 431.828 490.919)" fill="#3D3024" stroke="#5D4D3D" stroke-width="1.98737"/>
<circle cx="30.9468" cy="30.9468" r="29.9532" transform="matrix(-0.746009 0.665936 0.665936 0.746009 431.219 501.626)" fill="#3D3024" stroke="#5D4D3D" stroke-width="1.98737"/>
<circle cx="23.3842" cy="23.3842" r="22.3905" transform="matrix(-0.746009 0.665936 0.665936 0.746009 430.617 512.303)" fill="#3D3024" stroke="#5D4D3D" stroke-width="1.98737"/>
<circle cx="16.1359" cy="16.1359" r="15.1422" transform="matrix(-0.746009 0.665936 0.665936 0.746009 430.031 522.538)" fill="#3D3024" stroke="#5D4D3D" stroke-width="1.98737"/>
<circle cx="38.5307" cy="38.5307" r="37.537" transform="matrix(-0.746009 0.665936 0.665936 0.746009 74.9688 669.742)" fill="#3D3024" stroke="#5D4D3D" stroke-width="1.98737"/>
<circle cx="30.9468" cy="30.9468" r="29.9532" transform="matrix(-0.746009 0.665936 0.665936 0.746009 74.3594 680.449)" fill="#3D3024" stroke="#5D4D3D" stroke-width="1.98737"/>
<circle cx="23.3842" cy="23.3842" r="22.3905" transform="matrix(-0.746009 0.665936 0.665936 0.746009 73.7578 691.129)" fill="#3D3024" stroke="#5D4D3D" stroke-width="1.98737"/>
<circle cx="16.1359" cy="16.1359" r="15.1422" transform="matrix(-0.746009 0.665936 0.665936 0.746009 73.1719 701.362)" fill="#3D3024" stroke="#5D4D3D" stroke-width="1.98737"/>
<circle cx="38.5307" cy="38.5307" r="37.537" transform="matrix(-0.746009 0.665936 0.665936 0.746009 17.4922 721.045)" fill="#3D3024" stroke="#5D4D3D" stroke-width="1.98737"/>
<circle cx="30.9468" cy="30.9468" r="29.9532" transform="matrix(-0.746009 0.665936 0.665936 0.746009 16.8828 731.753)" fill="#3D3024" stroke="#5D4D3D" stroke-width="1.98737"/>
<circle cx="23.3842" cy="23.3842" r="22.3905" transform="matrix(-0.746009 0.665936 0.665936 0.746009 16.2812 742.431)" fill="#3D3024" stroke="#5D4D3D" stroke-width="1.98737"/>
<circle cx="38.5307" cy="38.5307" r="37.537" transform="matrix(-0.746009 0.665936 0.665936 0.746009 179.305 613.037)" fill="#3D3024" stroke="#5D4D3D" stroke-width="1.98737"/>
<circle cx="30.9468" cy="30.9468" r="29.9532" transform="matrix(-0.746009 0.665936 0.665936 0.746009 178.695 623.747)" fill="#3D3024" stroke="#5D4D3D" stroke-width="1.98737"/>
<circle cx="23.3842" cy="23.3842" r="22.3905" transform="matrix(-0.746009 0.665936 0.665936 0.746009 178.086 634.426)" fill="#3D3024" stroke="#5D4D3D" stroke-width="1.98737"/>
<circle cx="16.1359" cy="16.1359" r="15.1422" transform="matrix(-0.746009 0.665936 0.665936 0.746009 177.508 644.659)" fill="#3D3024" stroke="#5D4D3D" stroke-width="1.98737"/>
<circle cx="38.5307" cy="38.5307" r="37.537" transform="matrix(-0.746009 0.665936 0.665936 0.746009 64.3203 715.678)" fill="#3D3024" stroke="#5D4D3D" stroke-width="1.98737"/>
<circle cx="30.9468" cy="30.9468" r="29.9532" transform="matrix(-0.746009 0.665936 0.665936 0.746009 63.7109 726.386)" fill="#3D3024" stroke="#5D4D3D" stroke-width="1.98737"/>
<circle cx="23.3842" cy="23.3842" r="22.3905" transform="matrix(-0.746009 0.665936 0.665936 0.746009 63.1094 737.062)" fill="#3D3024" stroke="#5D4D3D" stroke-width="1.98737"/>
<circle cx="38.5307" cy="38.5307" r="37.537" transform="matrix(-0.746009 0.665936 0.665936 0.746009 168.859 659.204)" fill="#3D3024" stroke="#5D4D3D" stroke-width="1.98737"/>
<circle cx="30.9468" cy="30.9468" r="29.9532" transform="matrix(-0.746009 0.665936 0.665936 0.746009 168.25 669.911)" fill="#3D3024" stroke="#5D4D3D" stroke-width="1.98737"/>
<circle cx="23.3842" cy="23.3842" r="22.3905" transform="matrix(-0.746009 0.665936 0.665936 0.746009 167.648 680.589)" fill="#3D3024" stroke="#5D4D3D" stroke-width="1.98737"/>
<circle cx="16.1359" cy="16.1359" r="15.1422" transform="matrix(-0.746009 0.665936 0.665936 0.746009 167.062 690.824)" fill="#3D3024" stroke="#5D4D3D" stroke-width="1.98737"/>
<circle cx="38.5307" cy="38.5307" r="37.537" transform="matrix(-0.746009 0.665936 0.665936 0.746009 200.43 681)" fill="#3D3024" stroke="#5D4D3D" stroke-width="1.98737"/>
<circle cx="30.9468" cy="30.9468" r="29.9532" transform="matrix(-0.746009 0.665936 0.665936 0.746009 199.82 691.707)" fill="#3D3024" stroke="#5D4D3D" stroke-width="1.98737"/>
<circle cx="23.3842" cy="23.3842" r="22.3905" transform="matrix(-0.746009 0.665936 0.665936 0.746009 199.219 702.385)" fill="#3D3024" stroke="#5D4D3D" stroke-width="1.98737"/>
<circle cx="16.1359" cy="16.1359" r="15.1422" transform="matrix(-0.746009 0.665936 0.665936 0.746009 198.633 712.62)" fill="#3D3024" stroke="#5D4D3D" stroke-width="1.98737"/>
<circle cx="38.5307" cy="38.5307" r="37.537" transform="matrix(-0.746009 0.665936 0.665936 0.746009 111.375 710.522)" fill="#3D3024" stroke="#5D4D3D" stroke-width="1.98737"/>
<circle cx="30.9468" cy="30.9468" r="29.9532" transform="matrix(-0.746009 0.665936 0.665936 0.746009 110.766 721.229)" fill="#3D3024" stroke="#5D4D3D" stroke-width="1.98737"/>
<circle cx="23.3842" cy="23.3842" r="22.3905" transform="matrix(-0.746009 0.665936 0.665936 0.746009 110.164 731.907)" fill="#3D3024" stroke="#5D4D3D" stroke-width="1.98737"/>
<circle cx="16.1359" cy="16.1359" r="15.1422" transform="matrix(-0.746009 0.665936 0.665936 0.746009 109.578 742.143)" fill="#3D3024" stroke="#5D4D3D" stroke-width="1.98737"/>
<circle cx="38.5307" cy="38.5307" r="37.537" transform="matrix(-0.746009 0.665936 0.665936 0.746009 226.352 607.887)" fill="#3D3024" stroke="#5D4D3D" stroke-width="1.98737"/>
<circle cx="30.9468" cy="30.9468" r="29.9532" transform="matrix(-0.746009 0.665936 0.665936 0.746009 225.742 618.595)" fill="#3D3024" stroke="#5D4D3D" stroke-width="1.98737"/>
<circle cx="23.3842" cy="23.3842" r="22.3905" transform="matrix(-0.746009 0.665936 0.665936 0.746009 225.141 629.272)" fill="#3D3024" stroke="#5D4D3D" stroke-width="1.98737"/>
<circle cx="16.1359" cy="16.1359" r="15.1422" transform="matrix(-0.746009 0.665936 0.665936 0.746009 224.555 639.507)" fill="#3D3024" stroke="#5D4D3D" stroke-width="1.98737"/>
<circle cx="38.5307" cy="38.5307" r="37.537" transform="matrix(-0.746009 0.665936 0.665936 0.746009 214.117 652.042)" fill="#3D3024" stroke="#5D4D3D" stroke-width="1.98737"/>
<circle cx="30.9468" cy="30.9468" r="29.9532" transform="matrix(-0.746009 0.665936 0.665936 0.746009 213.508 662.75)" fill="#3D3024" stroke="#5D4D3D" stroke-width="1.98737"/>
<circle cx="23.3842" cy="23.3842" r="22.3905" transform="matrix(-0.746009 0.665936 0.665936 0.746009 212.906 673.429)" fill="#3D3024" stroke="#5D4D3D" stroke-width="1.98737"/>
<circle cx="16.1359" cy="16.1359" r="15.1422" transform="matrix(-0.746009 0.665936 0.665936 0.746009 212.32 683.662)" fill="#3D3024" stroke="#5D4D3D" stroke-width="1.98737"/>
<circle cx="38.5307" cy="38.5307" r="37.537" transform="matrix(-0.746009 0.665936 0.665936 0.746009 270.016 598.935)" fill="#3D3024" stroke="#5D4D3D" stroke-width="1.98737"/>
<circle cx="30.9468" cy="30.9468" r="29.9532" transform="matrix(-0.746009 0.665936 0.665936 0.746009 269.414 609.642)" fill="#3D3024" stroke="#5D4D3D" stroke-width="1.98737"/>
<circle cx="23.3842" cy="23.3842" r="22.3905" transform="matrix(-0.746009 0.665936 0.665936 0.746009 268.805 620.32)" fill="#3D3024" stroke="#5D4D3D" stroke-width="1.98737"/>
<circle cx="16.1359" cy="16.1359" r="15.1422" transform="matrix(-0.746009 0.665936 0.665936 0.746009 268.227 630.554)" fill="#3D3024" stroke="#5D4D3D" stroke-width="1.98737"/>
<circle cx="38.5307" cy="38.5307" r="37.537" transform="matrix(-0.746009 0.665936 0.665936 0.746009 316.859 593.55)" fill="#3D3024" stroke="#5D4D3D" stroke-width="1.98737"/>
<circle cx="30.9468" cy="30.9468" r="29.9532" transform="matrix(-0.746009 0.665936 0.665936 0.746009 316.25 604.258)" fill="#3D3024" stroke="#5D4D3D" stroke-width="1.98737"/>
<circle cx="23.3842" cy="23.3842" r="22.3905" transform="matrix(-0.746009 0.665936 0.665936 0.746009 315.648 614.937)" fill="#3D3024" stroke="#5D4D3D" stroke-width="1.98737"/>
<circle cx="16.1359" cy="16.1359" r="15.1422" transform="matrix(-0.746009 0.665936 0.665936 0.746009 315.062 625.17)" fill="#3D3024" stroke="#5D4D3D" stroke-width="1.98737"/>
<circle cx="38.5307" cy="38.5307" r="37.537" transform="matrix(-0.746009 0.665936 0.665936 0.746009 259.375 644.867)" fill="#3D3024" stroke="#5D4D3D" stroke-width="1.98737"/>
<circle cx="30.9468" cy="30.9468" r="29.9532" transform="matrix(-0.746009 0.665936 0.665936 0.746009 258.766 655.577)" fill="#3D3024" stroke="#5D4D3D" stroke-width="1.98737"/>
<circle cx="23.3842" cy="23.3842" r="22.3905" transform="matrix(-0.746009 0.665936 0.665936 0.746009 258.164 666.254)" fill="#3D3024" stroke="#5D4D3D" stroke-width="1.98737"/>
<circle cx="16.1359" cy="16.1359" r="15.1422" transform="matrix(-0.746009 0.665936 0.665936 0.746009 257.578 676.487)" fill="#3D3024" stroke="#5D4D3D" stroke-width="1.98737"/>
<circle cx="38.5307" cy="38.5307" r="37.537" transform="matrix(-0.746009 0.665936 0.665936 0.746009 306.422 639.715)" fill="#3D3024" stroke="#5D4D3D" stroke-width="1.98737"/>
<circle cx="30.9468" cy="30.9468" r="29.9532" transform="matrix(-0.746009 0.665936 0.665936 0.746009 305.812 650.423)" fill="#3D3024" stroke="#5D4D3D" stroke-width="1.98737"/>
<circle cx="23.3842" cy="23.3842" r="22.3905" transform="matrix(-0.746009 0.665936 0.665936 0.746009 305.211 661.102)" fill="#3D3024" stroke="#5D4D3D" stroke-width="1.98737"/>
<circle cx="16.1359" cy="16.1359" r="15.1422" transform="matrix(-0.746009 0.665936 0.665936 0.746009 304.625 671.335)" fill="#3D3024" stroke="#5D4D3D" stroke-width="1.98737"/>
<circle cx="38.5307" cy="38.5307" r="37.537" transform="matrix(-0.746009 0.665936 0.665936 0.746009 248.938 691.033)" fill="#3D3024" stroke="#5D4D3D" stroke-width="1.98737"/>
<circle cx="30.9468" cy="30.9468" r="29.9532" transform="matrix(-0.746009 0.665936 0.665936 0.746009 248.328 701.742)" fill="#3D3024" stroke="#5D4D3D" stroke-width="1.98737"/>
<circle cx="23.3842" cy="23.3842" r="22.3905" transform="matrix(-0.746009 0.665936 0.665936 0.746009 247.727 712.42)" fill="#3D3024" stroke="#5D4D3D" stroke-width="1.98737"/>
<circle cx="16.1359" cy="16.1359" r="15.1422" transform="matrix(-0.746009 0.665936 0.665936 0.746009 247.141 722.653)" fill="#3D3024" stroke="#5D4D3D" stroke-width="1.98737"/>
<circle cx="38.5307" cy="38.5307" r="37.537" transform="matrix(-0.746009 0.665936 0.665936 0.746009 363.914 588.397)" fill="#3D3024" stroke="#5D4D3D" stroke-width="1.98737"/>
<circle cx="30.9468" cy="30.9468" r="29.9532" transform="matrix(-0.746009 0.665936 0.665936 0.746009 363.305 599.104)" fill="#3D3024" stroke="#5D4D3D" stroke-width="1.98737"/>
<circle cx="23.3842" cy="23.3842" r="22.3905" transform="matrix(-0.746009 0.665936 0.665936 0.746009 362.703 609.782)" fill="#3D3024" stroke="#5D4D3D" stroke-width="1.98737"/>
<circle cx="16.1359" cy="16.1359" r="15.1422" transform="matrix(-0.746009 0.665936 0.665936 0.746009 362.117 620.017)" fill="#3D3024" stroke="#5D4D3D" stroke-width="1.98737"/>
<circle cx="38.5307" cy="38.5307" r="37.537" transform="matrix(-0.746009 0.665936 0.665936 0.746009 191.461 742.337)" fill="#3D3024" stroke="#5D4D3D" stroke-width="1.98737"/>
<circle cx="38.5307" cy="38.5307" r="37.537" transform="matrix(-0.746009 0.665936 0.665936 0.746009 421.391 537.085)" fill="#3D3024" stroke="#5D4D3D" stroke-width="1.98737"/>
<circle cx="30.9468" cy="30.9468" r="29.9532" transform="matrix(-0.746009 0.665936 0.665936 0.746009 420.781 547.794)" fill="#3D3024" stroke="#5D4D3D" stroke-width="1.98737"/>
<circle cx="23.3842" cy="23.3842" r="22.3905" transform="matrix(-0.746009 0.665936 0.665936 0.746009 420.18 558.472)" fill="#3D3024" stroke="#5D4D3D" stroke-width="1.98737"/>
<circle cx="16.1359" cy="16.1359" r="15.1422" transform="matrix(-0.746009 0.665936 0.665936 0.746009 419.594 568.705)" fill="#3D3024" stroke="#5D4D3D" stroke-width="1.98737"/>
<circle cx="38.5307" cy="38.5307" r="37.537" transform="matrix(-0.746009 0.665936 0.665936 0.746009 351.68 632.552)" fill="#3D3024" stroke="#5D4D3D" stroke-width="1.98737"/>
<circle cx="30.9468" cy="30.9468" r="29.9532" transform="matrix(-0.746009 0.665936 0.665936 0.746009 351.07 643.26)" fill="#3D3024" stroke="#5D4D3D" stroke-width="1.98737"/>
<circle cx="23.3842" cy="23.3842" r="22.3905" transform="matrix(-0.746009 0.665936 0.665936 0.746009 350.469 653.938)" fill="#3D3024" stroke="#5D4D3D" stroke-width="1.98737"/>
<circle cx="16.1359" cy="16.1359" r="15.1422" transform="matrix(-0.746009 0.665936 0.665936 0.746009 349.883 664.173)" fill="#3D3024" stroke="#5D4D3D" stroke-width="1.98737"/>
<circle cx="38.5307" cy="38.5307" r="37.537" transform="matrix(-0.746009 0.665936 0.665936 0.746009 409.156 581.239)" fill="#3D3024" stroke="#5D4D3D" stroke-width="1.98737"/>
<circle cx="30.9468" cy="30.9468" r="29.9532" transform="matrix(-0.746009 0.665936 0.665936 0.746009 408.547 591.946)" fill="#3D3024" stroke="#5D4D3D" stroke-width="1.98737"/>
<circle cx="23.3842" cy="23.3842" r="22.3905" transform="matrix(-0.746009 0.665936 0.665936 0.746009 407.945 602.624)" fill="#3D3024" stroke="#5D4D3D" stroke-width="1.98737"/>
<circle cx="16.1359" cy="16.1359" r="15.1422" transform="matrix(-0.746009 0.665936 0.665936 0.746009 407.359 612.859)" fill="#3D3024" stroke="#5D4D3D" stroke-width="1.98737"/>
<circle cx="38.5307" cy="38.5307" r="37.537" transform="matrix(-0.746009 0.665936 0.665936 0.746009 466.648 529.916)" fill="#3D3024" stroke="#5D4D3D" stroke-width="1.98737"/>
<circle cx="30.9468" cy="30.9468" r="29.9532" transform="matrix(-0.746009 0.665936 0.665936 0.746009 466.039 540.624)" fill="#3D3024" stroke="#5D4D3D" stroke-width="1.98737"/>
<circle cx="23.3842" cy="23.3842" r="22.3905" transform="matrix(-0.746009 0.665936 0.665936 0.746009 465.438 551.303)" fill="#3D3024" stroke="#5D4D3D" stroke-width="1.98737"/>
<circle cx="16.1359" cy="16.1359" r="15.1422" transform="matrix(-0.746009 0.665936 0.665936 0.746009 464.852 561.536)" fill="#3D3024" stroke="#5D4D3D" stroke-width="1.98737"/>
<circle cx="38.5307" cy="38.5307" r="37.537" transform="matrix(-0.746009 0.665936 0.665936 0.746009 294.188 683.869)" fill="#3D3024" stroke="#5D4D3D" stroke-width="1.98737"/>
<circle cx="30.9468" cy="30.9468" r="29.9532" transform="matrix(-0.746009 0.665936 0.665936 0.746009 293.578 694.579)" fill="#3D3024" stroke="#5D4D3D" stroke-width="1.98737"/>
<circle cx="23.3842" cy="23.3842" r="22.3905" transform="matrix(-0.746009 0.665936 0.665936 0.746009 292.977 705.256)" fill="#3D3024" stroke="#5D4D3D" stroke-width="1.98737"/>
<circle cx="16.1359" cy="16.1359" r="15.1422" transform="matrix(-0.746009 0.665936 0.665936 0.746009 292.391 715.489)" fill="#3D3024" stroke="#5D4D3D" stroke-width="1.98737"/>
<circle cx="38.5307" cy="38.5307" r="37.537" transform="matrix(-0.746009 0.665936 0.665936 0.746009 236.703 735.183)" fill="#3D3024" stroke="#5D4D3D" stroke-width="1.98737"/>
<circle cx="38.5307" cy="38.5307" r="37.537" transform="matrix(-0.746009 0.665936 0.665936 0.746009 339.43 676.7)" fill="#3D3024" stroke="#5D4D3D" stroke-width="1.98737"/>
<circle cx="30.9468" cy="30.9468" r="29.9532" transform="matrix(-0.746009 0.665936 0.665936 0.746009 338.82 687.406)" fill="#3D3024" stroke="#5D4D3D" stroke-width="1.98737"/>
<circle cx="23.3842" cy="23.3842" r="22.3905" transform="matrix(-0.746009 0.665936 0.665936 0.746009 338.219 698.084)" fill="#3D3024" stroke="#5D4D3D" stroke-width="1.98737"/>
<circle cx="16.1359" cy="16.1359" r="15.1422" transform="matrix(-0.746009 0.665936 0.665936 0.746009 337.633 708.319)" fill="#3D3024" stroke="#5D4D3D" stroke-width="1.98737"/>
<circle cx="38.5307" cy="38.5307" r="37.537" transform="matrix(-0.746009 0.665936 0.665936 0.746009 396.914 625.387)" fill="#3D3024" stroke="#5D4D3D" stroke-width="1.98737"/>
<circle cx="30.9468" cy="30.9468" r="29.9532" transform="matrix(-0.746009 0.665936 0.665936 0.746009 396.312 636.093)" fill="#3D3024" stroke="#5D4D3D" stroke-width="1.98737"/>
<circle cx="23.3842" cy="23.3842" r="22.3905" transform="matrix(-0.746009 0.665936 0.665936 0.746009 395.703 646.771)" fill="#3D3024" stroke="#5D4D3D" stroke-width="1.98737"/>
<circle cx="16.1359" cy="16.1359" r="15.1422" transform="matrix(-0.746009 0.665936 0.665936 0.746009 395.125 657.006)" fill="#3D3024" stroke="#5D4D3D" stroke-width="1.98737"/>
<circle cx="38.5307" cy="38.5307" r="37.537" transform="matrix(-0.746009 0.665936 0.665936 0.746009 454.406 574.067)" fill="#3D3024" stroke="#5D4D3D" stroke-width="1.98737"/>
<circle cx="30.9468" cy="30.9468" r="29.9532" transform="matrix(-0.746009 0.665936 0.665936 0.746009 453.797 584.776)" fill="#3D3024" stroke="#5D4D3D" stroke-width="1.98737"/>
<circle cx="23.3842" cy="23.3842" r="22.3905" transform="matrix(-0.746009 0.665936 0.665936 0.746009 453.195 595.451)" fill="#3D3024" stroke="#5D4D3D" stroke-width="1.98737"/>
<circle cx="16.1359" cy="16.1359" r="15.1422" transform="matrix(-0.746009 0.665936 0.665936 0.746009 452.609 605.688)" fill="#3D3024" stroke="#5D4D3D" stroke-width="1.98737"/>
<circle cx="38.5307" cy="38.5307" r="37.537" transform="matrix(-0.746009 0.665936 0.665936 0.746009 281.953 728.01)" fill="#3D3024" stroke="#5D4D3D" stroke-width="1.98737"/>
<circle cx="30.9468" cy="30.9468" r="29.9532" transform="matrix(-0.746009 0.665936 0.665936 0.746009 281.344 738.719)" fill="#3D3024" stroke="#5D4D3D" stroke-width="1.98737"/>
<circle cx="38.5307" cy="38.5307" r="37.537" transform="matrix(-0.746009 0.665936 0.665936 0.746009 383.109 667.729)" fill="#3D3024" stroke="#5D4D3D" stroke-width="1.98737"/>
<circle cx="30.9468" cy="30.9468" r="29.9532" transform="matrix(-0.746009 0.665936 0.665936 0.746009 382.5 678.439)" fill="#3D3024" stroke="#5D4D3D" stroke-width="1.98737"/>
<circle cx="23.3842" cy="23.3842" r="22.3905" transform="matrix(-0.746009 0.665936 0.665936 0.746009 381.898 689.116)" fill="#3D3024" stroke="#5D4D3D" stroke-width="1.98737"/>
<circle cx="16.1359" cy="16.1359" r="15.1422" transform="matrix(-0.746009 0.665936 0.665936 0.746009 381.312 699.35)" fill="#3D3024" stroke="#5D4D3D" stroke-width="1.98737"/>
<circle cx="38.5307" cy="38.5307" r="37.537" transform="matrix(-0.746009 0.665936 0.665936 0.746009 440.586 616.417)" fill="#3D3024" stroke="#5D4D3D" stroke-width="1.98737"/>
<circle cx="30.9468" cy="30.9468" r="29.9532" transform="matrix(-0.746009 0.665936 0.665936 0.746009 439.977 627.125)" fill="#3D3024" stroke="#5D4D3D" stroke-width="1.98737"/>
<circle cx="23.3842" cy="23.3842" r="22.3905" transform="matrix(-0.746009 0.665936 0.665936 0.746009 439.375 637.803)" fill="#3D3024" stroke="#5D4D3D" stroke-width="1.98737"/>
<circle cx="16.1359" cy="16.1359" r="15.1422" transform="matrix(-0.746009 0.665936 0.665936 0.746009 438.789 648.036)" fill="#3D3024" stroke="#5D4D3D" stroke-width="1.98737"/>
<circle cx="38.5307" cy="38.5307" r="37.537" transform="matrix(-0.746009 0.665936 0.665936 0.746009 498.078 565.097)" fill="#3D3024" stroke="#5D4D3D" stroke-width="1.98737"/>
<circle cx="30.9468" cy="30.9468" r="29.9532" transform="matrix(-0.746009 0.665936 0.665936 0.746009 497.469 575.806)" fill="#3D3024" stroke="#5D4D3D" stroke-width="1.98737"/>
<circle cx="23.3842" cy="23.3842" r="22.3905" transform="matrix(-0.746009 0.665936 0.665936 0.746009 496.867 586.482)" fill="#3D3024" stroke="#5D4D3D" stroke-width="1.98737"/>
<circle cx="16.1359" cy="16.1359" r="15.1422" transform="matrix(-0.746009 0.665936 0.665936 0.746009 496.281 596.717)" fill="#3D3024" stroke="#5D4D3D" stroke-width="1.98737"/>
<circle cx="38.5307" cy="38.5307" r="37.537" transform="matrix(-0.746009 0.665936 0.665936 0.746009 325.617 719.049)" fill="#3D3024" stroke="#5D4D3D" stroke-width="1.98737"/>
<circle cx="30.9468" cy="30.9468" r="29.9532" transform="matrix(-0.746009 0.665936 0.665936 0.746009 325.008 729.758)" fill="#3D3024" stroke="#5D4D3D" stroke-width="1.98737"/>
<circle cx="23.3842" cy="23.3842" r="22.3905" transform="matrix(-0.746009 0.665936 0.665936 0.746009 324.406 740.435)" fill="#3D3024" stroke="#5D4D3D" stroke-width="1.98737"/>
<circle cx="38.5307" cy="38.5307" r="37.537" transform="matrix(-0.746009 0.665936 0.665936 0.746009 372.664 713.897)" fill="#3D3024" stroke="#5D4D3D" stroke-width="1.98737"/>
<circle cx="30.9468" cy="30.9468" r="29.9532" transform="matrix(-0.746009 0.665936 0.665936 0.746009 372.055 724.605)" fill="#3D3024" stroke="#5D4D3D" stroke-width="1.98737"/>
<circle cx="23.3842" cy="23.3842" r="22.3905" transform="matrix(-0.746009 0.665936 0.665936 0.746009 371.453 735.283)" fill="#3D3024" stroke="#5D4D3D" stroke-width="1.98737"/>
<circle cx="38.5307" cy="38.5307" r="37.537" transform="matrix(-0.746009 0.665936 0.665936 0.746009 430.156 662.579)" fill="#3D3024" stroke="#5D4D3D" stroke-width="1.98737"/>
<circle cx="30.9468" cy="30.9468" r="29.9532" transform="matrix(-0.746009 0.665936 0.665936 0.746009 429.547 673.287)" fill="#3D3024" stroke="#5D4D3D" stroke-width="1.98737"/>
<circle cx="23.3842" cy="23.3842" r="22.3905" transform="matrix(-0.746009 0.665936 0.665936 0.746009 428.945 683.966)" fill="#3D3024" stroke="#5D4D3D" stroke-width="1.98737"/>
<circle cx="16.1359" cy="16.1359" r="15.1422" transform="matrix(-0.746009 0.665936 0.665936 0.746009 428.359 694.199)" fill="#3D3024" stroke="#5D4D3D" stroke-width="1.98737"/>
<circle cx="38.5307" cy="38.5307" r="37.537" transform="matrix(-0.746009 0.665936 0.665936 0.746009 487.641 611.26)" fill="#3D3024" stroke="#5D4D3D" stroke-width="1.98737"/>
<circle cx="30.9468" cy="30.9468" r="29.9532" transform="matrix(-0.746009 0.665936 0.665936 0.746009 487.031 621.969)" fill="#3D3024" stroke="#5D4D3D" stroke-width="1.98737"/>
<circle cx="23.3842" cy="23.3842" r="22.3905" transform="matrix(-0.746009 0.665936 0.665936 0.746009 486.43 632.646)" fill="#3D3024" stroke="#5D4D3D" stroke-width="1.98737"/>
<circle cx="16.1359" cy="16.1359" r="15.1422" transform="matrix(-0.746009 0.665936 0.665936 0.746009 485.844 642.88)" fill="#3D3024" stroke="#5D4D3D" stroke-width="1.98737"/>
<circle cx="38.5307" cy="38.5307" r="37.537" transform="matrix(-0.746009 0.665936 0.665936 0.746009 417.922 706.733)" fill="#3D3024" stroke="#5D4D3D" stroke-width="1.98737"/>
<circle cx="30.9468" cy="30.9468" r="29.9532" transform="matrix(-0.746009 0.665936 0.665936 0.746009 417.312 717.441)" fill="#3D3024" stroke="#5D4D3D" stroke-width="1.98737"/>
<circle cx="23.3842" cy="23.3842" r="22.3905" transform="matrix(-0.746009 0.665936 0.665936 0.746009 416.711 728.118)" fill="#3D3024" stroke="#5D4D3D" stroke-width="1.98737"/>
<circle cx="16.1359" cy="16.1359" r="15.1422" transform="matrix(-0.746009 0.665936 0.665936 0.746009 416.125 738.354)" fill="#3D3024" stroke="#5D4D3D" stroke-width="1.98737"/>
<circle cx="38.5307" cy="38.5307" r="37.537" transform="matrix(-0.746009 0.665936 0.665936 0.746009 470.398 649.798)" fill="#3D3024" stroke="#5D4D3D" stroke-width="1.98737"/>
<circle cx="30.9468" cy="30.9468" r="29.9532" transform="matrix(-0.746009 0.665936 0.665936 0.746009 469.789 660.506)" fill="#3D3024" stroke="#5D4D3D" stroke-width="1.98737"/>
<circle cx="23.3842" cy="23.3842" r="22.3905" transform="matrix(-0.746009 0.665936 0.665936 0.746009 469.188 671.184)" fill="#3D3024" stroke="#5D4D3D" stroke-width="1.98737"/>
<circle cx="16.1359" cy="16.1359" r="15.1422" transform="matrix(-0.746009 0.665936 0.665936 0.746009 468.602 681.418)" fill="#3D3024" stroke="#5D4D3D" stroke-width="1.98737"/>
<circle cx="38.5307" cy="38.5307" r="37.537" transform="matrix(-0.746009 0.665936 0.665936 0.746009 528.773 599.466)" fill="#3D3024" stroke="#5D4D3D" stroke-width="1.98737"/>
<circle cx="30.9468" cy="30.9468" r="29.9532" transform="matrix(-0.746009 0.665936 0.665936 0.746009 528.164 610.174)" fill="#3D3024" stroke="#5D4D3D" stroke-width="1.98737"/>
<circle cx="23.3842" cy="23.3842" r="22.3905" transform="matrix(-0.746009 0.665936 0.665936 0.746009 527.562 620.853)" fill="#3D3024" stroke="#5D4D3D" stroke-width="1.98737"/>
<circle cx="16.1359" cy="16.1359" r="15.1422" transform="matrix(-0.746009 0.665936 0.665936 0.746009 526.977 631.086)" fill="#3D3024" stroke="#5D4D3D" stroke-width="1.98737"/>
<circle cx="38.5307" cy="38.5307" r="37.537" transform="matrix(-0.746009 0.665936 0.665936 0.746009 517.242 644.415)" fill="#3D3024" stroke="#5D4D3D" stroke-width="1.98737"/>
<circle cx="30.9468" cy="30.9468" r="29.9532" transform="matrix(-0.746009 0.665936 0.665936 0.746009 516.641 655.122)" fill="#3D3024" stroke="#5D4D3D" stroke-width="1.98737"/>
<circle cx="23.3842" cy="23.3842" r="22.3905" transform="matrix(-0.746009 0.665936 0.665936 0.746009 516.031 665.801)" fill="#3D3024" stroke="#5D4D3D" stroke-width="1.98737"/>
<circle cx="16.1359" cy="16.1359" r="15.1422" transform="matrix(-0.746009 0.665936 0.665936 0.746009 515.453 676.034)" fill="#3D3024" stroke="#5D4D3D" stroke-width="1.98737"/>
<circle cx="38.5307" cy="38.5307" r="37.537" transform="matrix(-0.746009 0.665936 0.665936 0.746009 459.758 695.732)" fill="#3D3024" stroke="#5D4D3D" stroke-width="1.98737"/>
<circle cx="30.9468" cy="30.9468" r="29.9532" transform="matrix(-0.746009 0.665936 0.665936 0.746009 459.148 706.44)" fill="#3D3024" stroke="#5D4D3D" stroke-width="1.98737"/>
<circle cx="23.3842" cy="23.3842" r="22.3905" transform="matrix(-0.746009 0.665936 0.665936 0.746009 458.547 717.119)" fill="#3D3024" stroke="#5D4D3D" stroke-width="1.98737"/>
<circle cx="16.1359" cy="16.1359" r="15.1422" transform="matrix(-0.746009 0.665936 0.665936 0.746009 457.961 727.353)" fill="#3D3024" stroke="#5D4D3D" stroke-width="1.98737"/>
<circle cx="38.5307" cy="38.5307" r="37.537" transform="matrix(-0.746009 0.665936 0.665936 0.746009 506.805 690.58)" fill="#3D3024" stroke="#5D4D3D" stroke-width="1.98737"/>
<circle cx="30.9468" cy="30.9468" r="29.9532" transform="matrix(-0.746009 0.665936 0.665936 0.746009 506.195 701.287)" fill="#3D3024" stroke="#5D4D3D" stroke-width="1.98737"/>
<circle cx="23.3842" cy="23.3842" r="22.3905" transform="matrix(-0.746009 0.665936 0.665936 0.746009 505.594 711.965)" fill="#3D3024" stroke="#5D4D3D" stroke-width="1.98737"/>
<circle cx="16.1359" cy="16.1359" r="15.1422" transform="matrix(-0.746009 0.665936 0.665936 0.746009 505.008 722.2)" fill="#3D3024" stroke="#5D4D3D" stroke-width="1.98737"/>
<circle cx="38.5307" cy="38.5307" r="37.537" transform="matrix(-0.746009 0.665936 0.665936 0.746009 449.312 741.898)" fill="#3D3024" stroke="#5D4D3D" stroke-width="1.98737"/>
<circle cx="38.5307" cy="38.5307" r="37.537" transform="matrix(-0.746009 0.665936 0.665936 0.746009 564.297 639.263)" fill="#3D3024" stroke="#5D4D3D" stroke-width="1.98737"/>
<circle cx="30.9468" cy="30.9468" r="29.9532" transform="matrix(-0.746009 0.665936 0.665936 0.746009 563.688 649.971)" fill="#3D3024" stroke="#5D4D3D" stroke-width="1.98737"/>
<circle cx="23.3842" cy="23.3842" r="22.3905" transform="matrix(-0.746009 0.665936 0.665936 0.746009 563.086 660.648)" fill="#3D3024" stroke="#5D4D3D" stroke-width="1.98737"/>
<circle cx="16.1359" cy="16.1359" r="15.1422" transform="matrix(-0.746009 0.665936 0.665936 0.746009 562.5 670.882)" fill="#3D3024" stroke="#5D4D3D" stroke-width="1.98737"/>
<circle cx="38.5307" cy="38.5307" r="37.537" transform="matrix(-0.746009 0.665936 0.665936 0.746009 552.062 683.418)" fill="#3D3024" stroke="#5D4D3D" stroke-width="1.98737"/>
<circle cx="30.9468" cy="30.9468" r="29.9532" transform="matrix(-0.746009 0.665936 0.665936 0.746009 551.453 694.126)" fill="#3D3024" stroke="#5D4D3D" stroke-width="1.98737"/>
<circle cx="23.3842" cy="23.3842" r="22.3905" transform="matrix(-0.746009 0.665936 0.665936 0.746009 550.852 704.803)" fill="#3D3024" stroke="#5D4D3D" stroke-width="1.98737"/>
<circle cx="16.1359" cy="16.1359" r="15.1422" transform="matrix(-0.746009 0.665936 0.665936 0.746009 550.266 715.037)" fill="#3D3024" stroke="#5D4D3D" stroke-width="1.98737"/>
<circle cx="38.5307" cy="38.5307" r="37.537" transform="matrix(-0.746009 0.665936 0.665936 0.746009 494.57 734.735)" fill="#3D3024" stroke="#5D4D3D" stroke-width="1.98737"/>
<circle cx="38.5307" cy="38.5307" r="37.537" transform="matrix(-0.746009 0.665936 0.665936 0.746009 539.82 727.562)" fill="#3D3024" stroke="#5D4D3D" stroke-width="1.98737"/>
<circle cx="30.9468" cy="30.9468" r="29.9532" transform="matrix(-0.746009 0.665936 0.665936 0.746009 539.211 738.271)" fill="#3D3024" stroke="#5D4D3D" stroke-width="1.98737"/>
<circle cx="38.5307" cy="38.5307" r="37.537" transform="matrix(-0.746009 0.665936 0.665936 0.746009 597.305 676.248)" fill="#3D3024" stroke="#5D4D3D" stroke-width="1.98737"/>
<circle cx="30.9468" cy="30.9468" r="29.9532" transform="matrix(-0.746009 0.665936 0.665936 0.746009 596.695 686.956)" fill="#3D3024" stroke="#5D4D3D" stroke-width="1.98737"/>
<circle cx="23.3842" cy="23.3842" r="22.3905" transform="matrix(-0.746009 0.665936 0.665936 0.746009 596.094 697.632)" fill="#3D3024" stroke="#5D4D3D" stroke-width="1.98737"/>
<circle cx="16.1359" cy="16.1359" r="15.1422" transform="matrix(-0.746009 0.665936 0.665936 0.746009 595.508 707.868)" fill="#3D3024" stroke="#5D4D3D" stroke-width="1.98737"/>
<circle cx="38.5307" cy="38.5307" r="37.537" transform="matrix(-0.746009 0.665936 0.665936 0.746009 586.859 722.414)" fill="#3D3024" stroke="#5D4D3D" stroke-width="1.98737"/>
<circle cx="30.9468" cy="30.9468" r="29.9532" transform="matrix(-0.746009 0.665936 0.665936 0.746009 586.25 733.122)" fill="#3D3024" stroke="#5D4D3D" stroke-width="1.98737"/>
<circle cx="38.5307" cy="38.5307" r="37.537" transform="matrix(-0.746009 0.665936 0.665936 0.746009 632.117 715.245)" fill="#3D3024" stroke="#5D4D3D" stroke-width="1.98737"/>
<circle cx="30.9468" cy="30.9468" r="29.9532" transform="matrix(-0.746009 0.665936 0.665936 0.746009 631.508 725.953)" fill="#3D3024" stroke="#5D4D3D" stroke-width="1.98737"/>
<circle cx="23.3842" cy="23.3842" r="22.3905" transform="matrix(-0.746009 0.665936 0.665936 0.746009 630.906 736.632)" fill="#3D3024" stroke="#5D4D3D" stroke-width="1.98737"/>
</g>
</g>
</g>
<defs>
<linearGradient id="paint0_linear_1104_44172" x1="448.87" y1="-6.7312e-07" x2="457.323" y2="539.733" gradientUnits="userSpaceOnUse">
<stop stop-color="#D9D9D9"/>
<stop offset="1" stop-color="#737373" stop-opacity="0"/>
</linearGradient>
<clipPath id="clip0_1104_44172">
<rect width="699" height="743" fill="white" transform="translate(0.953125)"/>
</clipPath>
<clipPath id="clip1_1104_44172">
<rect width="699" height="743" fill="white" transform="translate(0.953125 36)"/>
</clipPath>
</defs>
</svg>
