<svg width="700" height="743" viewBox="0 0 700 743" fill="none" xmlns="http://www.w3.org/2000/svg">
<g clip-path="url(#clip0_1087_22788)">
<g clip-path="url(#clip1_1087_22788)">
<mask id="mask0_1087_22788" style="mask-type:alpha" maskUnits="userSpaceOnUse" x="22" y="14" width="1119" height="1100">
<rect x="-0.0261208" y="0.460596" width="897.087" height="671.348" transform="matrix(-0.746009 0.665936 0.665936 0.746009 692.32 14.1344)" fill="url(#paint0_linear_1087_22788)" stroke="#B12C2E" stroke-width="0.652427"/>
</mask>
<g mask="url(#mask0_1087_22788)">
<circle cx="38.5307" cy="38.5307" r="37.537" transform="matrix(-0.746009 0.665936 0.665936 0.746009 650.008 156.426)" fill="#A22E0B" stroke="#BE3A0D" stroke-width="1.98737"/>
<circle cx="30.9468" cy="30.9468" r="29.9532" transform="matrix(-0.746009 0.665936 0.665936 0.746009 649.398 167.134)" fill="#A22E0B" stroke="#BE3A0D" stroke-width="1.98737"/>
<circle cx="23.3842" cy="23.3842" r="22.3905" transform="matrix(-0.746009 0.665936 0.665936 0.746009 648.793 177.812)" fill="#A22E0B" stroke="#BE3A0D" stroke-width="1.98737"/>
<circle cx="16.1359" cy="16.1359" r="15.1422" transform="matrix(-0.746009 0.665936 0.665936 0.746009 648.215 188.046)" fill="#A22E0B" stroke="#BE3A0D" stroke-width="1.98737"/>
<circle cx="38.5307" cy="38.5307" r="37.537" transform="matrix(-0.746009 0.665936 0.665936 0.746009 708.383 106.095)" fill="#A22E0B" stroke="#BE3A0D" stroke-width="1.98737"/>
<circle cx="30.9468" cy="30.9468" r="29.9532" transform="matrix(-0.746009 0.665936 0.665936 0.746009 707.773 116.802)" fill="#A22E0B" stroke="#BE3A0D" stroke-width="1.98737"/>
<circle cx="23.3842" cy="23.3842" r="22.3905" transform="matrix(-0.746009 0.665936 0.665936 0.746009 707.168 127.48)" fill="#A22E0B" stroke="#BE3A0D" stroke-width="1.98737"/>
<circle cx="16.1359" cy="16.1359" r="15.1422" transform="matrix(-0.746009 0.665936 0.665936 0.746009 706.59 137.714)" fill="#A22E0B" stroke="#BE3A0D" stroke-width="1.98737"/>
<circle cx="38.5307" cy="38.5307" r="37.537" transform="matrix(-0.746009 0.665936 0.665936 0.746009 696.855 151.041)" fill="#A22E0B" stroke="#BE3A0D" stroke-width="1.98737"/>
<circle cx="30.9468" cy="30.9468" r="29.9532" transform="matrix(-0.746009 0.665936 0.665936 0.746009 696.246 161.749)" fill="#A22E0B" stroke="#BE3A0D" stroke-width="1.98737"/>
<circle cx="23.3842" cy="23.3842" r="22.3905" transform="matrix(-0.746009 0.665936 0.665936 0.746009 695.641 172.428)" fill="#A22E0B" stroke="#BE3A0D" stroke-width="1.98737"/>
<circle cx="16.1359" cy="16.1359" r="15.1422" transform="matrix(-0.746009 0.665936 0.665936 0.746009 695.062 182.661)" fill="#A22E0B" stroke="#BE3A0D" stroke-width="1.98737"/>
<circle cx="38.5307" cy="38.5307" r="37.537" transform="matrix(-0.746009 0.665936 0.665936 0.746009 639.367 202.358)" fill="#A22E0B" stroke="#BE3A0D" stroke-width="1.98737"/>
<circle cx="30.9468" cy="30.9468" r="29.9532" transform="matrix(-0.746009 0.665936 0.665936 0.746009 638.758 213.068)" fill="#A22E0B" stroke="#BE3A0D" stroke-width="1.98737"/>
<circle cx="23.3842" cy="23.3842" r="22.3905" transform="matrix(-0.746009 0.665936 0.665936 0.746009 638.152 223.747)" fill="#A22E0B" stroke="#BE3A0D" stroke-width="1.98737"/>
<circle cx="16.1359" cy="16.1359" r="15.1422" transform="matrix(-0.746009 0.665936 0.665936 0.746009 637.57 233.981)" fill="#A22E0B" stroke="#BE3A0D" stroke-width="1.98737"/>
<circle cx="38.5307" cy="38.5307" r="37.537" transform="matrix(-0.746009 0.665936 0.665936 0.746009 686.418 197.206)" fill="#A22E0B" stroke="#BE3A0D" stroke-width="1.98737"/>
<circle cx="30.9468" cy="30.9468" r="29.9532" transform="matrix(-0.746009 0.665936 0.665936 0.746009 685.809 207.916)" fill="#A22E0B" stroke="#BE3A0D" stroke-width="1.98737"/>
<circle cx="23.3842" cy="23.3842" r="22.3905" transform="matrix(-0.746009 0.665936 0.665936 0.746009 685.203 218.594)" fill="#A22E0B" stroke="#BE3A0D" stroke-width="1.98737"/>
<circle cx="16.1359" cy="16.1359" r="15.1422" transform="matrix(-0.746009 0.665936 0.665936 0.746009 684.625 228.826)" fill="#A22E0B" stroke="#BE3A0D" stroke-width="1.98737"/>
<circle cx="38.5307" cy="38.5307" r="37.537" transform="matrix(-0.746009 0.665936 0.665936 0.746009 628.93 248.524)" fill="#A22E0B" stroke="#BE3A0D" stroke-width="1.98737"/>
<circle cx="30.9468" cy="30.9468" r="29.9532" transform="matrix(-0.746009 0.665936 0.665936 0.746009 628.32 259.233)" fill="#A22E0B" stroke="#BE3A0D" stroke-width="1.98737"/>
<circle cx="23.3842" cy="23.3842" r="22.3905" transform="matrix(-0.746009 0.665936 0.665936 0.746009 627.715 269.911)" fill="#A22E0B" stroke="#BE3A0D" stroke-width="1.98737"/>
<circle cx="16.1359" cy="16.1359" r="15.1422" transform="matrix(-0.746009 0.665936 0.665936 0.746009 627.137 280.145)" fill="#A22E0B" stroke="#BE3A0D" stroke-width="1.98737"/>
<circle cx="38.5307" cy="38.5307" r="37.537" transform="matrix(-0.746009 0.665936 0.665936 0.746009 743.906 145.89)" fill="#A22E0B" stroke="#BE3A0D" stroke-width="1.98737"/>
<circle cx="30.9468" cy="30.9468" r="29.9532" transform="matrix(-0.746009 0.665936 0.665936 0.746009 743.297 156.597)" fill="#A22E0B" stroke="#BE3A0D" stroke-width="1.98737"/>
<circle cx="38.5307" cy="38.5307" r="37.537" transform="matrix(-0.746009 0.665936 0.665936 0.746009 731.668 190.046)" fill="#A22E0B" stroke="#BE3A0D" stroke-width="1.98737"/>
<circle cx="30.9468" cy="30.9468" r="29.9532" transform="matrix(-0.746009 0.665936 0.665936 0.746009 731.062 200.752)" fill="#A22E0B" stroke="#BE3A0D" stroke-width="1.98737"/>
<circle cx="23.3842" cy="23.3842" r="22.3905" transform="matrix(-0.746009 0.665936 0.665936 0.746009 730.457 211.43)" fill="#A22E0B" stroke="#BE3A0D" stroke-width="1.98737"/>
<circle cx="38.5307" cy="38.5307" r="37.537" transform="matrix(-0.746009 0.665936 0.665936 0.746009 674.184 241.361)" fill="#A22E0B" stroke="#BE3A0D" stroke-width="1.98737"/>
<circle cx="30.9468" cy="30.9468" r="29.9532" transform="matrix(-0.746009 0.665936 0.665936 0.746009 673.574 252.071)" fill="#A22E0B" stroke="#BE3A0D" stroke-width="1.98737"/>
<circle cx="23.3842" cy="23.3842" r="22.3905" transform="matrix(-0.746009 0.665936 0.665936 0.746009 672.969 262.748)" fill="#A22E0B" stroke="#BE3A0D" stroke-width="1.98737"/>
<circle cx="16.1359" cy="16.1359" r="15.1422" transform="matrix(-0.746009 0.665936 0.665936 0.746009 672.387 272.983)" fill="#A22E0B" stroke="#BE3A0D" stroke-width="1.98737"/>
<circle cx="38.5307" cy="38.5307" r="37.537" transform="matrix(-0.746009 0.665936 0.665936 0.746009 719.43 234.191)" fill="#A22E0B" stroke="#BE3A0D" stroke-width="1.98737"/>
<circle cx="30.9468" cy="30.9468" r="29.9532" transform="matrix(-0.746009 0.665936 0.665936 0.746009 718.82 244.899)" fill="#A22E0B" stroke="#BE3A0D" stroke-width="1.98737"/>
<circle cx="23.3842" cy="23.3842" r="22.3905" transform="matrix(-0.746009 0.665936 0.665936 0.746009 718.219 255.576)" fill="#A22E0B" stroke="#BE3A0D" stroke-width="1.98737"/>
<circle cx="16.1359" cy="16.1359" r="15.1422" transform="matrix(-0.746009 0.665936 0.665936 0.746009 717.637 265.812)" fill="#A22E0B" stroke="#BE3A0D" stroke-width="1.98737"/>
<circle cx="38.5307" cy="38.5307" r="37.537" transform="matrix(-0.746009 0.665936 0.665936 0.746009 477.547 310.38)" fill="#A22E0B" stroke="#BE3A0D" stroke-width="1.98737"/>
<circle cx="30.9468" cy="30.9468" r="29.9532" transform="matrix(-0.746009 0.665936 0.665936 0.746009 476.938 321.088)" fill="#A22E0B" stroke="#BE3A0D" stroke-width="1.98737"/>
<circle cx="23.3842" cy="23.3842" r="22.3905" transform="matrix(-0.746009 0.665936 0.665936 0.746009 476.332 331.767)" fill="#A22E0B" stroke="#BE3A0D" stroke-width="1.98737"/>
<circle cx="16.1359" cy="16.1359" r="15.1422" transform="matrix(-0.746009 0.665936 0.665936 0.746009 475.754 342)" fill="#A22E0B" stroke="#BE3A0D" stroke-width="1.98737"/>
<circle cx="38.5307" cy="38.5307" r="37.537" transform="matrix(-0.746009 0.665936 0.665936 0.746009 420.059 361.697)" fill="#A22E0B" stroke="#BE3A0D" stroke-width="1.98737"/>
<circle cx="30.9468" cy="30.9468" r="29.9532" transform="matrix(-0.746009 0.665936 0.665936 0.746009 419.449 372.407)" fill="#A22E0B" stroke="#BE3A0D" stroke-width="1.98737"/>
<circle cx="23.3842" cy="23.3842" r="22.3905" transform="matrix(-0.746009 0.665936 0.665936 0.746009 418.844 383.084)" fill="#A22E0B" stroke="#BE3A0D" stroke-width="1.98737"/>
<circle cx="16.1359" cy="16.1359" r="15.1422" transform="matrix(-0.746009 0.665936 0.665936 0.746009 418.266 393.317)" fill="#A22E0B" stroke="#BE3A0D" stroke-width="1.98737"/>
<circle cx="38.5307" cy="38.5307" r="37.537" transform="matrix(-0.746009 0.665936 0.665936 0.746009 362.586 413)" fill="#A22E0B" stroke="#BE3A0D" stroke-width="1.98737"/>
<circle cx="30.9468" cy="30.9468" r="29.9532" transform="matrix(-0.746009 0.665936 0.665936 0.746009 361.98 423.707)" fill="#A22E0B" stroke="#BE3A0D" stroke-width="1.98737"/>
<circle cx="23.3842" cy="23.3842" r="22.3905" transform="matrix(-0.746009 0.665936 0.665936 0.746009 361.371 434.387)" fill="#A22E0B" stroke="#BE3A0D" stroke-width="1.98737"/>
<circle cx="16.1359" cy="16.1359" r="15.1422" transform="matrix(-0.746009 0.665936 0.665936 0.746009 360.793 444.62)" fill="#A22E0B" stroke="#BE3A0D" stroke-width="1.98737"/>
<circle cx="38.5307" cy="38.5307" r="37.537" transform="matrix(-0.746009 0.665936 0.665936 0.746009 524.395 304.995)" fill="#A22E0B" stroke="#BE3A0D" stroke-width="1.98737"/>
<circle cx="30.9468" cy="30.9468" r="29.9532" transform="matrix(-0.746009 0.665936 0.665936 0.746009 523.785 315.704)" fill="#A22E0B" stroke="#BE3A0D" stroke-width="1.98737"/>
<circle cx="23.3842" cy="23.3842" r="22.3905" transform="matrix(-0.746009 0.665936 0.665936 0.746009 523.18 326.382)" fill="#A22E0B" stroke="#BE3A0D" stroke-width="1.98737"/>
<circle cx="16.1359" cy="16.1359" r="15.1422" transform="matrix(-0.746009 0.665936 0.665936 0.746009 522.602 336.615)" fill="#A22E0B" stroke="#BE3A0D" stroke-width="1.98737"/>
<circle cx="38.5307" cy="38.5307" r="37.537" transform="matrix(-0.746009 0.665936 0.665936 0.746009 466.902 356.312)" fill="#A22E0B" stroke="#BE3A0D" stroke-width="1.98737"/>
<circle cx="30.9468" cy="30.9468" r="29.9532" transform="matrix(-0.746009 0.665936 0.665936 0.746009 466.293 367.021)" fill="#A22E0B" stroke="#BE3A0D" stroke-width="1.98737"/>
<circle cx="23.3842" cy="23.3842" r="22.3905" transform="matrix(-0.746009 0.665936 0.665936 0.746009 465.688 377.699)" fill="#A22E0B" stroke="#BE3A0D" stroke-width="1.98737"/>
<circle cx="16.1359" cy="16.1359" r="15.1422" transform="matrix(-0.746009 0.665936 0.665936 0.746009 465.109 387.933)" fill="#A22E0B" stroke="#BE3A0D" stroke-width="1.98737"/>
<circle cx="38.5307" cy="38.5307" r="37.537" transform="matrix(-0.746009 0.665936 0.665936 0.746009 409.414 407.632)" fill="#A22E0B" stroke="#BE3A0D" stroke-width="1.98737"/>
<circle cx="30.9468" cy="30.9468" r="29.9532" transform="matrix(-0.746009 0.665936 0.665936 0.746009 408.805 418.341)" fill="#A22E0B" stroke="#BE3A0D" stroke-width="1.98737"/>
<circle cx="23.3842" cy="23.3842" r="22.3905" transform="matrix(-0.746009 0.665936 0.665936 0.746009 408.199 429.019)" fill="#A22E0B" stroke="#BE3A0D" stroke-width="1.98737"/>
<circle cx="16.1359" cy="16.1359" r="15.1422" transform="matrix(-0.746009 0.665936 0.665936 0.746009 407.621 439.252)" fill="#A22E0B" stroke="#BE3A0D" stroke-width="1.98737"/>
<circle cx="38.5307" cy="38.5307" r="37.537" transform="matrix(-0.746009 0.665936 0.665936 0.746009 513.953 351.16)" fill="#A22E0B" stroke="#BE3A0D" stroke-width="1.98737"/>
<circle cx="30.9468" cy="30.9468" r="29.9532" transform="matrix(-0.746009 0.665936 0.665936 0.746009 513.344 361.869)" fill="#A22E0B" stroke="#BE3A0D" stroke-width="1.98737"/>
<circle cx="23.3842" cy="23.3842" r="22.3905" transform="matrix(-0.746009 0.665936 0.665936 0.746009 512.738 372.547)" fill="#A22E0B" stroke="#BE3A0D" stroke-width="1.98737"/>
<circle cx="16.1359" cy="16.1359" r="15.1422" transform="matrix(-0.746009 0.665936 0.665936 0.746009 512.16 382.78)" fill="#A22E0B" stroke="#BE3A0D" stroke-width="1.98737"/>
<circle cx="38.5307" cy="38.5307" r="37.537" transform="matrix(-0.746009 0.665936 0.665936 0.746009 456.465 402.48)" fill="#A22E0B" stroke="#BE3A0D" stroke-width="1.98737"/>
<circle cx="30.9468" cy="30.9468" r="29.9532" transform="matrix(-0.746009 0.665936 0.665936 0.746009 455.855 413.188)" fill="#A22E0B" stroke="#BE3A0D" stroke-width="1.98737"/>
<circle cx="23.3842" cy="23.3842" r="22.3905" transform="matrix(-0.746009 0.665936 0.665936 0.746009 455.254 423.866)" fill="#A22E0B" stroke="#BE3A0D" stroke-width="1.98737"/>
<circle cx="16.1359" cy="16.1359" r="15.1422" transform="matrix(-0.746009 0.665936 0.665936 0.746009 454.672 434.1)" fill="#A22E0B" stroke="#BE3A0D" stroke-width="1.98737"/>
<circle cx="38.5307" cy="38.5307" r="37.537" transform="matrix(-0.746009 0.665936 0.665936 0.746009 398.973 453.801)" fill="#A22E0B" stroke="#BE3A0D" stroke-width="1.98737"/>
<circle cx="30.9468" cy="30.9468" r="29.9532" transform="matrix(-0.746009 0.665936 0.665936 0.746009 398.367 464.506)" fill="#A22E0B" stroke="#BE3A0D" stroke-width="1.98737"/>
<circle cx="23.3842" cy="23.3842" r="22.3905" transform="matrix(-0.746009 0.665936 0.665936 0.746009 397.762 475.186)" fill="#A22E0B" stroke="#BE3A0D" stroke-width="1.98737"/>
<circle cx="16.1359" cy="16.1359" r="15.1422" transform="matrix(-0.746009 0.665936 0.665936 0.746009 397.18 485.42)" fill="#A22E0B" stroke="#BE3A0D" stroke-width="1.98737"/>
<circle cx="38.5307" cy="38.5307" r="37.537" transform="matrix(-0.746009 0.665936 0.665936 0.746009 571.441 299.845)" fill="#A22E0B" stroke="#BE3A0D" stroke-width="1.98737"/>
<circle cx="30.9468" cy="30.9468" r="29.9532" transform="matrix(-0.746009 0.665936 0.665936 0.746009 570.836 310.551)" fill="#A22E0B" stroke="#BE3A0D" stroke-width="1.98737"/>
<circle cx="23.3842" cy="23.3842" r="22.3905" transform="matrix(-0.746009 0.665936 0.665936 0.746009 570.23 321.23)" fill="#A22E0B" stroke="#BE3A0D" stroke-width="1.98737"/>
<circle cx="16.1359" cy="16.1359" r="15.1422" transform="matrix(-0.746009 0.665936 0.665936 0.746009 569.648 331.464)" fill="#A22E0B" stroke="#BE3A0D" stroke-width="1.98737"/>
<circle cx="38.5307" cy="38.5307" r="37.537" transform="matrix(-0.746009 0.665936 0.665936 0.746009 559.207 343.999)" fill="#A22E0B" stroke="#BE3A0D" stroke-width="1.98737"/>
<circle cx="30.9468" cy="30.9468" r="29.9532" transform="matrix(-0.746009 0.665936 0.665936 0.746009 558.598 354.707)" fill="#A22E0B" stroke="#BE3A0D" stroke-width="1.98737"/>
<circle cx="23.3842" cy="23.3842" r="22.3905" transform="matrix(-0.746009 0.665936 0.665936 0.746009 557.996 365.384)" fill="#A22E0B" stroke="#BE3A0D" stroke-width="1.98737"/>
<circle cx="16.1359" cy="16.1359" r="15.1422" transform="matrix(-0.746009 0.665936 0.665936 0.746009 557.414 375.619)" fill="#A22E0B" stroke="#BE3A0D" stroke-width="1.98737"/>
<circle cx="38.5307" cy="38.5307" r="37.537" transform="matrix(-0.746009 0.665936 0.665936 0.746009 501.719 395.316)" fill="#A22E0B" stroke="#BE3A0D" stroke-width="1.98737"/>
<circle cx="30.9468" cy="30.9468" r="29.9532" transform="matrix(-0.746009 0.665936 0.665936 0.746009 501.113 406.024)" fill="#A22E0B" stroke="#BE3A0D" stroke-width="1.98737"/>
<circle cx="23.3842" cy="23.3842" r="22.3905" transform="matrix(-0.746009 0.665936 0.665936 0.746009 500.508 416.701)" fill="#A22E0B" stroke="#BE3A0D" stroke-width="1.98737"/>
<circle cx="16.1359" cy="16.1359" r="15.1422" transform="matrix(-0.746009 0.665936 0.665936 0.746009 499.926 426.938)" fill="#A22E0B" stroke="#BE3A0D" stroke-width="1.98737"/>
<circle cx="38.5307" cy="38.5307" r="37.537" transform="matrix(-0.746009 0.665936 0.665936 0.746009 444.246 446.619)" fill="#A22E0B" stroke="#BE3A0D" stroke-width="1.98737"/>
<circle cx="30.9468" cy="30.9468" r="29.9532" transform="matrix(-0.746009 0.665936 0.665936 0.746009 443.637 457.329)" fill="#A22E0B" stroke="#BE3A0D" stroke-width="1.98737"/>
<circle cx="23.3842" cy="23.3842" r="22.3905" transform="matrix(-0.746009 0.665936 0.665936 0.746009 443.031 468.006)" fill="#A22E0B" stroke="#BE3A0D" stroke-width="1.98737"/>
<circle cx="16.1359" cy="16.1359" r="15.1422" transform="matrix(-0.746009 0.665936 0.665936 0.746009 442.453 478.239)" fill="#A22E0B" stroke="#BE3A0D" stroke-width="1.98737"/>
<circle cx="38.5307" cy="38.5307" r="37.537" transform="matrix(-0.746009 0.665936 0.665936 0.746009 546.965 388.145)" fill="#A22E0B" stroke="#BE3A0D" stroke-width="1.98737"/>
<circle cx="30.9468" cy="30.9468" r="29.9532" transform="matrix(-0.746009 0.665936 0.665936 0.746009 546.355 398.853)" fill="#A22E0B" stroke="#BE3A0D" stroke-width="1.98737"/>
<circle cx="23.3842" cy="23.3842" r="22.3905" transform="matrix(-0.746009 0.665936 0.665936 0.746009 545.754 409.528)" fill="#A22E0B" stroke="#BE3A0D" stroke-width="1.98737"/>
<circle cx="16.1359" cy="16.1359" r="15.1422" transform="matrix(-0.746009 0.665936 0.665936 0.746009 545.172 419.765)" fill="#A22E0B" stroke="#BE3A0D" stroke-width="1.98737"/>
<circle cx="38.5307" cy="38.5307" r="37.537" transform="matrix(-0.746009 0.665936 0.665936 0.746009 489.477 439.463)" fill="#A22E0B" stroke="#BE3A0D" stroke-width="1.98737"/>
<circle cx="30.9468" cy="30.9468" r="29.9532" transform="matrix(-0.746009 0.665936 0.665936 0.746009 488.871 450.17)" fill="#A22E0B" stroke="#BE3A0D" stroke-width="1.98737"/>
<circle cx="23.3842" cy="23.3842" r="22.3905" transform="matrix(-0.746009 0.665936 0.665936 0.746009 488.266 460.847)" fill="#A22E0B" stroke="#BE3A0D" stroke-width="1.98737"/>
<circle cx="16.1359" cy="16.1359" r="15.1422" transform="matrix(-0.746009 0.665936 0.665936 0.746009 487.684 471.083)" fill="#A22E0B" stroke="#BE3A0D" stroke-width="1.98737"/>
<circle cx="38.5307" cy="38.5307" r="37.537" transform="matrix(-0.746009 0.665936 0.665936 0.746009 431.984 490.783)" fill="#A22E0B" stroke="#BE3A0D" stroke-width="1.98737"/>
<circle cx="30.9468" cy="30.9468" r="29.9532" transform="matrix(-0.746009 0.665936 0.665936 0.746009 431.379 501.488)" fill="#A22E0B" stroke="#BE3A0D" stroke-width="1.98737"/>
<circle cx="23.3842" cy="23.3842" r="22.3905" transform="matrix(-0.746009 0.665936 0.665936 0.746009 430.773 512.167)" fill="#A22E0B" stroke="#BE3A0D" stroke-width="1.98737"/>
<circle cx="16.1359" cy="16.1359" r="15.1422" transform="matrix(-0.746009 0.665936 0.665936 0.746009 430.191 522.402)" fill="#A22E0B" stroke="#BE3A0D" stroke-width="1.98737"/>
<circle cx="38.5307" cy="38.5307" r="37.537" transform="matrix(-0.746009 0.665936 0.665936 0.746009 615.098 290.89)" fill="#A22E0B" stroke="#BE3A0D" stroke-width="1.98737"/>
<circle cx="30.9468" cy="30.9468" r="29.9532" transform="matrix(-0.746009 0.665936 0.665936 0.746009 614.488 301.598)" fill="#A22E0B" stroke="#BE3A0D" stroke-width="1.98737"/>
<circle cx="23.3842" cy="23.3842" r="22.3905" transform="matrix(-0.746009 0.665936 0.665936 0.746009 613.883 312.276)" fill="#A22E0B" stroke="#BE3A0D" stroke-width="1.98737"/>
<circle cx="16.1359" cy="16.1359" r="15.1422" transform="matrix(-0.746009 0.665936 0.665936 0.746009 613.305 322.51)" fill="#A22E0B" stroke="#BE3A0D" stroke-width="1.98737"/>
<circle cx="38.5307" cy="38.5307" r="37.537" transform="matrix(-0.746009 0.665936 0.665936 0.746009 661.941 285.507)" fill="#A22E0B" stroke="#BE3A0D" stroke-width="1.98737"/>
<circle cx="30.9468" cy="30.9468" r="29.9532" transform="matrix(-0.746009 0.665936 0.665936 0.746009 661.336 296.214)" fill="#A22E0B" stroke="#BE3A0D" stroke-width="1.98737"/>
<circle cx="23.3842" cy="23.3842" r="22.3905" transform="matrix(-0.746009 0.665936 0.665936 0.746009 660.73 306.893)" fill="#A22E0B" stroke="#BE3A0D" stroke-width="1.98737"/>
<circle cx="16.1359" cy="16.1359" r="15.1422" transform="matrix(-0.746009 0.665936 0.665936 0.746009 660.148 317.127)" fill="#A22E0B" stroke="#BE3A0D" stroke-width="1.98737"/>
<circle cx="38.5307" cy="38.5307" r="37.537" transform="matrix(-0.746009 0.665936 0.665936 0.746009 604.453 336.824)" fill="#A22E0B" stroke="#BE3A0D" stroke-width="1.98737"/>
<circle cx="30.9468" cy="30.9468" r="29.9532" transform="matrix(-0.746009 0.665936 0.665936 0.746009 603.848 347.531)" fill="#A22E0B" stroke="#BE3A0D" stroke-width="1.98737"/>
<circle cx="23.3842" cy="23.3842" r="22.3905" transform="matrix(-0.746009 0.665936 0.665936 0.746009 603.238 358.211)" fill="#A22E0B" stroke="#BE3A0D" stroke-width="1.98737"/>
<circle cx="16.1359" cy="16.1359" r="15.1422" transform="matrix(-0.746009 0.665936 0.665936 0.746009 602.66 368.444)" fill="#A22E0B" stroke="#BE3A0D" stroke-width="1.98737"/>
<circle cx="38.5307" cy="38.5307" r="37.537" transform="matrix(-0.746009 0.665936 0.665936 0.746009 651.504 331.672)" fill="#A22E0B" stroke="#BE3A0D" stroke-width="1.98737"/>
<circle cx="30.9468" cy="30.9468" r="29.9532" transform="matrix(-0.746009 0.665936 0.665936 0.746009 650.895 342.38)" fill="#A22E0B" stroke="#BE3A0D" stroke-width="1.98737"/>
<circle cx="23.3842" cy="23.3842" r="22.3905" transform="matrix(-0.746009 0.665936 0.665936 0.746009 650.293 353.057)" fill="#A22E0B" stroke="#BE3A0D" stroke-width="1.98737"/>
<circle cx="16.1359" cy="16.1359" r="15.1422" transform="matrix(-0.746009 0.665936 0.665936 0.746009 649.711 363.292)" fill="#A22E0B" stroke="#BE3A0D" stroke-width="1.98737"/>
<circle cx="38.5307" cy="38.5307" r="37.537" transform="matrix(-0.746009 0.665936 0.665936 0.746009 594.016 382.989)" fill="#A22E0B" stroke="#BE3A0D" stroke-width="1.98737"/>
<circle cx="30.9468" cy="30.9468" r="29.9532" transform="matrix(-0.746009 0.665936 0.665936 0.746009 593.41 393.696)" fill="#A22E0B" stroke="#BE3A0D" stroke-width="1.98737"/>
<circle cx="23.3842" cy="23.3842" r="22.3905" transform="matrix(-0.746009 0.665936 0.665936 0.746009 592.805 404.374)" fill="#A22E0B" stroke="#BE3A0D" stroke-width="1.98737"/>
<circle cx="16.1359" cy="16.1359" r="15.1422" transform="matrix(-0.746009 0.665936 0.665936 0.746009 592.223 414.609)" fill="#A22E0B" stroke="#BE3A0D" stroke-width="1.98737"/>
<circle cx="38.5307" cy="38.5307" r="37.537" transform="matrix(-0.746009 0.665936 0.665936 0.746009 708.992 280.354)" fill="#A22E0B" stroke="#BE3A0D" stroke-width="1.98737"/>
<circle cx="30.9468" cy="30.9468" r="29.9532" transform="matrix(-0.746009 0.665936 0.665936 0.746009 708.383 291.062)" fill="#A22E0B" stroke="#BE3A0D" stroke-width="1.98737"/>
<circle cx="23.3842" cy="23.3842" r="22.3905" transform="matrix(-0.746009 0.665936 0.665936 0.746009 707.777 301.739)" fill="#A22E0B" stroke="#BE3A0D" stroke-width="1.98737"/>
<circle cx="16.1359" cy="16.1359" r="15.1422" transform="matrix(-0.746009 0.665936 0.665936 0.746009 707.199 311.974)" fill="#A22E0B" stroke="#BE3A0D" stroke-width="1.98737"/>
<circle cx="38.5307" cy="38.5307" r="37.537" transform="matrix(-0.746009 0.665936 0.665936 0.746009 479.051 485.611)" fill="#A22E0B" stroke="#BE3A0D" stroke-width="1.98737"/>
<circle cx="30.9468" cy="30.9468" r="29.9532" transform="matrix(-0.746009 0.665936 0.665936 0.746009 478.441 496.319)" fill="#A22E0B" stroke="#BE3A0D" stroke-width="1.98737"/>
<circle cx="23.3842" cy="23.3842" r="22.3905" transform="matrix(-0.746009 0.665936 0.665936 0.746009 477.836 506.997)" fill="#A22E0B" stroke="#BE3A0D" stroke-width="1.98737"/>
<circle cx="16.1359" cy="16.1359" r="15.1422" transform="matrix(-0.746009 0.665936 0.665936 0.746009 477.258 517.231)" fill="#A22E0B" stroke="#BE3A0D" stroke-width="1.98737"/>
<circle cx="38.5307" cy="38.5307" r="37.537" transform="matrix(-0.746009 0.665936 0.665936 0.746009 536.539 434.294)" fill="#A22E0B" stroke="#BE3A0D" stroke-width="1.98737"/>
<circle cx="30.9468" cy="30.9468" r="29.9532" transform="matrix(-0.746009 0.665936 0.665936 0.746009 535.93 445.002)" fill="#A22E0B" stroke="#BE3A0D" stroke-width="1.98737"/>
<circle cx="23.3842" cy="23.3842" r="22.3905" transform="matrix(-0.746009 0.665936 0.665936 0.746009 535.324 455.681)" fill="#A22E0B" stroke="#BE3A0D" stroke-width="1.98737"/>
<circle cx="16.1359" cy="16.1359" r="15.1422" transform="matrix(-0.746009 0.665936 0.665936 0.746009 534.746 465.914)" fill="#A22E0B" stroke="#BE3A0D" stroke-width="1.98737"/>
<circle cx="38.5307" cy="38.5307" r="37.537" transform="matrix(-0.746009 0.665936 0.665936 0.746009 696.758 324.51)" fill="#A22E0B" stroke="#BE3A0D" stroke-width="1.98737"/>
<circle cx="30.9468" cy="30.9468" r="29.9532" transform="matrix(-0.746009 0.665936 0.665936 0.746009 696.148 335.218)" fill="#A22E0B" stroke="#BE3A0D" stroke-width="1.98737"/>
<circle cx="23.3842" cy="23.3842" r="22.3905" transform="matrix(-0.746009 0.665936 0.665936 0.746009 695.547 345.895)" fill="#A22E0B" stroke="#BE3A0D" stroke-width="1.98737"/>
<circle cx="16.1359" cy="16.1359" r="15.1422" transform="matrix(-0.746009 0.665936 0.665936 0.746009 694.965 356.13)" fill="#A22E0B" stroke="#BE3A0D" stroke-width="1.98737"/>
<circle cx="38.5307" cy="38.5307" r="37.537" transform="matrix(-0.746009 0.665936 0.665936 0.746009 754.238 273.196)" fill="#A22E0B" stroke="#BE3A0D" stroke-width="1.98737"/>
<circle cx="38.5307" cy="38.5307" r="37.537" transform="matrix(-0.746009 0.665936 0.665936 0.746009 639.27 375.827)" fill="#A22E0B" stroke="#BE3A0D" stroke-width="1.98737"/>
<circle cx="30.9468" cy="30.9468" r="29.9532" transform="matrix(-0.746009 0.665936 0.665936 0.746009 638.66 386.535)" fill="#A22E0B" stroke="#BE3A0D" stroke-width="1.98737"/>
<circle cx="23.3842" cy="23.3842" r="22.3905" transform="matrix(-0.746009 0.665936 0.665936 0.746009 638.055 397.214)" fill="#A22E0B" stroke="#BE3A0D" stroke-width="1.98737"/>
<circle cx="16.1359" cy="16.1359" r="15.1422" transform="matrix(-0.746009 0.665936 0.665936 0.746009 637.477 407.447)" fill="#A22E0B" stroke="#BE3A0D" stroke-width="1.98737"/>
<circle cx="38.5307" cy="38.5307" r="37.537" transform="matrix(-0.746009 0.665936 0.665936 0.746009 524.309 478.45)" fill="#A22E0B" stroke="#BE3A0D" stroke-width="1.98737"/>
<circle cx="30.9468" cy="30.9468" r="29.9532" transform="matrix(-0.746009 0.665936 0.665936 0.746009 523.699 489.159)" fill="#A22E0B" stroke="#BE3A0D" stroke-width="1.98737"/>
<circle cx="23.3842" cy="23.3842" r="22.3905" transform="matrix(-0.746009 0.665936 0.665936 0.746009 523.098 499.834)" fill="#A22E0B" stroke="#BE3A0D" stroke-width="1.98737"/>
<circle cx="16.1359" cy="16.1359" r="15.1422" transform="matrix(-0.746009 0.665936 0.665936 0.746009 522.516 510.07)" fill="#A22E0B" stroke="#BE3A0D" stroke-width="1.98737"/>
<circle cx="38.5307" cy="38.5307" r="37.537" transform="matrix(-0.746009 0.665936 0.665936 0.746009 581.789 427.137)" fill="#A22E0B" stroke="#BE3A0D" stroke-width="1.98737"/>
<circle cx="30.9468" cy="30.9468" r="29.9532" transform="matrix(-0.746009 0.665936 0.665936 0.746009 581.18 437.845)" fill="#A22E0B" stroke="#BE3A0D" stroke-width="1.98737"/>
<circle cx="23.3842" cy="23.3842" r="22.3905" transform="matrix(-0.746009 0.665936 0.665936 0.746009 580.574 448.523)" fill="#A22E0B" stroke="#BE3A0D" stroke-width="1.98737"/>
<circle cx="16.1359" cy="16.1359" r="15.1422" transform="matrix(-0.746009 0.665936 0.665936 0.746009 579.992 458.758)" fill="#A22E0B" stroke="#BE3A0D" stroke-width="1.98737"/>
<circle cx="38.5307" cy="38.5307" r="37.537" transform="matrix(-0.746009 0.665936 0.665936 0.746009 466.82 529.768)" fill="#A22E0B" stroke="#BE3A0D" stroke-width="1.98737"/>
<circle cx="30.9468" cy="30.9468" r="29.9532" transform="matrix(-0.746009 0.665936 0.665936 0.746009 466.215 540.475)" fill="#A22E0B" stroke="#BE3A0D" stroke-width="1.98737"/>
<circle cx="23.3842" cy="23.3842" r="22.3905" transform="matrix(-0.746009 0.665936 0.665936 0.746009 465.609 551.152)" fill="#A22E0B" stroke="#BE3A0D" stroke-width="1.98737"/>
<circle cx="16.1359" cy="16.1359" r="15.1422" transform="matrix(-0.746009 0.665936 0.665936 0.746009 465.027 561.388)" fill="#A22E0B" stroke="#BE3A0D" stroke-width="1.98737"/>
<circle cx="38.5307" cy="38.5307" r="37.537" transform="matrix(-0.746009 0.665936 0.665936 0.746009 684.516 368.654)" fill="#A22E0B" stroke="#BE3A0D" stroke-width="1.98737"/>
<circle cx="30.9468" cy="30.9468" r="29.9532" transform="matrix(-0.746009 0.665936 0.665936 0.746009 683.906 379.362)" fill="#A22E0B" stroke="#BE3A0D" stroke-width="1.98737"/>
<circle cx="23.3842" cy="23.3842" r="22.3905" transform="matrix(-0.746009 0.665936 0.665936 0.746009 683.301 390.041)" fill="#A22E0B" stroke="#BE3A0D" stroke-width="1.98737"/>
<circle cx="16.1359" cy="16.1359" r="15.1422" transform="matrix(-0.746009 0.665936 0.665936 0.746009 682.723 400.274)" fill="#A22E0B" stroke="#BE3A0D" stroke-width="1.98737"/>
<circle cx="38.5307" cy="38.5307" r="37.537" transform="matrix(-0.746009 0.665936 0.665936 0.746009 742 317.342)" fill="#A22E0B" stroke="#BE3A0D" stroke-width="1.98737"/>
<circle cx="30.9468" cy="30.9468" r="29.9532" transform="matrix(-0.746009 0.665936 0.665936 0.746009 741.391 328.05)" fill="#A22E0B" stroke="#BE3A0D" stroke-width="1.98737"/>
<circle cx="38.5307" cy="38.5307" r="37.537" transform="matrix(-0.746009 0.665936 0.665936 0.746009 512.062 522.598)" fill="#A22E0B" stroke="#BE3A0D" stroke-width="1.98737"/>
<circle cx="30.9468" cy="30.9468" r="29.9532" transform="matrix(-0.746009 0.665936 0.665936 0.746009 511.453 533.306)" fill="#A22E0B" stroke="#BE3A0D" stroke-width="1.98737"/>
<circle cx="23.3842" cy="23.3842" r="22.3905" transform="matrix(-0.746009 0.665936 0.665936 0.746009 510.848 543.984)" fill="#A22E0B" stroke="#BE3A0D" stroke-width="1.98737"/>
<circle cx="16.1359" cy="16.1359" r="15.1422" transform="matrix(-0.746009 0.665936 0.665936 0.746009 510.266 554.219)" fill="#A22E0B" stroke="#BE3A0D" stroke-width="1.98737"/>
<circle cx="38.5307" cy="38.5307" r="37.537" transform="matrix(-0.746009 0.665936 0.665936 0.746009 569.547 471.285)" fill="#A22E0B" stroke="#BE3A0D" stroke-width="1.98737"/>
<circle cx="30.9468" cy="30.9468" r="29.9532" transform="matrix(-0.746009 0.665936 0.665936 0.746009 568.938 481.992)" fill="#A22E0B" stroke="#BE3A0D" stroke-width="1.98737"/>
<circle cx="23.3842" cy="23.3842" r="22.3905" transform="matrix(-0.746009 0.665936 0.665936 0.746009 568.336 492.67)" fill="#A22E0B" stroke="#BE3A0D" stroke-width="1.98737"/>
<circle cx="16.1359" cy="16.1359" r="15.1422" transform="matrix(-0.746009 0.665936 0.665936 0.746009 567.754 502.905)" fill="#A22E0B" stroke="#BE3A0D" stroke-width="1.98737"/>
<circle cx="38.5307" cy="38.5307" r="37.537" transform="matrix(-0.746009 0.665936 0.665936 0.746009 627.035 419.968)" fill="#A22E0B" stroke="#BE3A0D" stroke-width="1.98737"/>
<circle cx="30.9468" cy="30.9468" r="29.9532" transform="matrix(-0.746009 0.665936 0.665936 0.746009 626.426 430.675)" fill="#A22E0B" stroke="#BE3A0D" stroke-width="1.98737"/>
<circle cx="23.3842" cy="23.3842" r="22.3905" transform="matrix(-0.746009 0.665936 0.665936 0.746009 625.824 441.353)" fill="#A22E0B" stroke="#BE3A0D" stroke-width="1.98737"/>
<circle cx="16.1359" cy="16.1359" r="15.1422" transform="matrix(-0.746009 0.665936 0.665936 0.746009 625.242 451.588)" fill="#A22E0B" stroke="#BE3A0D" stroke-width="1.98737"/>
<circle cx="38.5307" cy="38.5307" r="37.537" transform="matrix(-0.746009 0.665936 0.665936 0.746009 728.191 359.687)" fill="#A22E0B" stroke="#BE3A0D" stroke-width="1.98737"/>
<circle cx="30.9468" cy="30.9468" r="29.9532" transform="matrix(-0.746009 0.665936 0.665936 0.746009 727.586 370.394)" fill="#A22E0B" stroke="#BE3A0D" stroke-width="1.98737"/>
<circle cx="23.3842" cy="23.3842" r="22.3905" transform="matrix(-0.746009 0.665936 0.665936 0.746009 726.977 381.073)" fill="#A22E0B" stroke="#BE3A0D" stroke-width="1.98737"/>
<circle cx="38.5307" cy="38.5307" r="37.537" transform="matrix(-0.746009 0.665936 0.665936 0.746009 670.699 411.007)" fill="#A22E0B" stroke="#BE3A0D" stroke-width="1.98737"/>
<circle cx="30.9468" cy="30.9468" r="29.9532" transform="matrix(-0.746009 0.665936 0.665936 0.746009 670.09 421.715)" fill="#A22E0B" stroke="#BE3A0D" stroke-width="1.98737"/>
<circle cx="23.3842" cy="23.3842" r="22.3905" transform="matrix(-0.746009 0.665936 0.665936 0.746009 669.488 432.393)" fill="#A22E0B" stroke="#BE3A0D" stroke-width="1.98737"/>
<circle cx="16.1359" cy="16.1359" r="15.1422" transform="matrix(-0.746009 0.665936 0.665936 0.746009 668.906 442.626)" fill="#A22E0B" stroke="#BE3A0D" stroke-width="1.98737"/>
<circle cx="38.5307" cy="38.5307" r="37.537" transform="matrix(-0.746009 0.665936 0.665936 0.746009 555.727 513.644)" fill="#A22E0B" stroke="#BE3A0D" stroke-width="1.98737"/>
<circle cx="30.9468" cy="30.9468" r="29.9532" transform="matrix(-0.746009 0.665936 0.665936 0.746009 555.117 524.353)" fill="#A22E0B" stroke="#BE3A0D" stroke-width="1.98737"/>
<circle cx="23.3842" cy="23.3842" r="22.3905" transform="matrix(-0.746009 0.665936 0.665936 0.746009 554.512 535.03)" fill="#A22E0B" stroke="#BE3A0D" stroke-width="1.98737"/>
<circle cx="16.1359" cy="16.1359" r="15.1422" transform="matrix(-0.746009 0.665936 0.665936 0.746009 553.934 545.264)" fill="#A22E0B" stroke="#BE3A0D" stroke-width="1.98737"/>
<circle cx="38.5307" cy="38.5307" r="37.537" transform="matrix(-0.746009 0.665936 0.665936 0.746009 613.211 462.329)" fill="#A22E0B" stroke="#BE3A0D" stroke-width="1.98737"/>
<circle cx="30.9468" cy="30.9468" r="29.9532" transform="matrix(-0.746009 0.665936 0.665936 0.746009 612.602 473.037)" fill="#A22E0B" stroke="#BE3A0D" stroke-width="1.98737"/>
<circle cx="23.3842" cy="23.3842" r="22.3905" transform="matrix(-0.746009 0.665936 0.665936 0.746009 612 483.714)" fill="#A22E0B" stroke="#BE3A0D" stroke-width="1.98737"/>
<circle cx="16.1359" cy="16.1359" r="15.1422" transform="matrix(-0.746009 0.665936 0.665936 0.746009 611.414 493.95)" fill="#A22E0B" stroke="#BE3A0D" stroke-width="1.98737"/>
<circle cx="38.5307" cy="38.5307" r="37.537" transform="matrix(-0.746009 0.665936 0.665936 0.746009 498.238 564.961)" fill="#A22E0B" stroke="#BE3A0D" stroke-width="1.98737"/>
<circle cx="30.9468" cy="30.9468" r="29.9532" transform="matrix(-0.746009 0.665936 0.665936 0.746009 497.629 575.668)" fill="#A22E0B" stroke="#BE3A0D" stroke-width="1.98737"/>
<circle cx="23.3842" cy="23.3842" r="22.3905" transform="matrix(-0.746009 0.665936 0.665936 0.746009 497.023 586.348)" fill="#A22E0B" stroke="#BE3A0D" stroke-width="1.98737"/>
<circle cx="16.1359" cy="16.1359" r="15.1422" transform="matrix(-0.746009 0.665936 0.665936 0.746009 496.445 596.581)" fill="#A22E0B" stroke="#BE3A0D" stroke-width="1.98737"/>
<circle cx="38.5307" cy="38.5307" r="37.537" transform="matrix(-0.746009 0.665936 0.665936 0.746009 717.754 405.853)" fill="#A22E0B" stroke="#BE3A0D" stroke-width="1.98737"/>
<circle cx="30.9468" cy="30.9468" r="29.9532" transform="matrix(-0.746009 0.665936 0.665936 0.746009 717.145 416.562)" fill="#A22E0B" stroke="#BE3A0D" stroke-width="1.98737"/>
<circle cx="23.3842" cy="23.3842" r="22.3905" transform="matrix(-0.746009 0.665936 0.665936 0.746009 716.543 427.237)" fill="#A22E0B" stroke="#BE3A0D" stroke-width="1.98737"/>
<circle cx="16.1359" cy="16.1359" r="15.1422" transform="matrix(-0.746009 0.665936 0.665936 0.746009 715.961 437.473)" fill="#A22E0B" stroke="#BE3A0D" stroke-width="1.98737"/>
<circle cx="38.5307" cy="38.5307" r="37.537" transform="matrix(-0.746009 0.665936 0.665936 0.746009 660.262 457.173)" fill="#A22E0B" stroke="#BE3A0D" stroke-width="1.98737"/>
<circle cx="30.9468" cy="30.9468" r="29.9532" transform="matrix(-0.746009 0.665936 0.665936 0.746009 659.656 467.879)" fill="#A22E0B" stroke="#BE3A0D" stroke-width="1.98737"/>
<circle cx="23.3842" cy="23.3842" r="22.3905" transform="matrix(-0.746009 0.665936 0.665936 0.746009 659.051 478.558)" fill="#A22E0B" stroke="#BE3A0D" stroke-width="1.98737"/>
<circle cx="16.1359" cy="16.1359" r="15.1422" transform="matrix(-0.746009 0.665936 0.665936 0.746009 658.469 488.792)" fill="#A22E0B" stroke="#BE3A0D" stroke-width="1.98737"/>
<circle cx="38.5307" cy="38.5307" r="37.537" transform="matrix(-0.746009 0.665936 0.665936 0.746009 602.766 508.488)" fill="#A22E0B" stroke="#BE3A0D" stroke-width="1.98737"/>
<circle cx="30.9468" cy="30.9468" r="29.9532" transform="matrix(-0.746009 0.665936 0.665936 0.746009 602.16 519.194)" fill="#A22E0B" stroke="#BE3A0D" stroke-width="1.98737"/>
<circle cx="23.3842" cy="23.3842" r="22.3905" transform="matrix(-0.746009 0.665936 0.665936 0.746009 601.555 529.873)" fill="#A22E0B" stroke="#BE3A0D" stroke-width="1.98737"/>
<circle cx="16.1359" cy="16.1359" r="15.1422" transform="matrix(-0.746009 0.665936 0.665936 0.746009 600.973 540.107)" fill="#A22E0B" stroke="#BE3A0D" stroke-width="1.98737"/>
<circle cx="38.5307" cy="38.5307" r="37.537" transform="matrix(-0.746009 0.665936 0.665936 0.746009 545.281 559.804)" fill="#A22E0B" stroke="#BE3A0D" stroke-width="1.98737"/>
<circle cx="30.9468" cy="30.9468" r="29.9532" transform="matrix(-0.746009 0.665936 0.665936 0.746009 544.672 570.513)" fill="#A22E0B" stroke="#BE3A0D" stroke-width="1.98737"/>
<circle cx="23.3842" cy="23.3842" r="22.3905" transform="matrix(-0.746009 0.665936 0.665936 0.746009 544.066 581.19)" fill="#A22E0B" stroke="#BE3A0D" stroke-width="1.98737"/>
<circle cx="16.1359" cy="16.1359" r="15.1422" transform="matrix(-0.746009 0.665936 0.665936 0.746009 543.484 591.427)" fill="#A22E0B" stroke="#BE3A0D" stroke-width="1.98737"/>
<circle cx="38.5307" cy="38.5307" r="37.537" transform="matrix(-0.746009 0.665936 0.665936 0.746009 705.516 450.01)" fill="#A22E0B" stroke="#BE3A0D" stroke-width="1.98737"/>
<circle cx="30.9468" cy="30.9468" r="29.9532" transform="matrix(-0.746009 0.665936 0.665936 0.746009 704.906 460.718)" fill="#A22E0B" stroke="#BE3A0D" stroke-width="1.98737"/>
<circle cx="23.3842" cy="23.3842" r="22.3905" transform="matrix(-0.746009 0.665936 0.665936 0.746009 704.305 471.396)" fill="#A22E0B" stroke="#BE3A0D" stroke-width="1.98737"/>
<circle cx="16.1359" cy="16.1359" r="15.1422" transform="matrix(-0.746009 0.665936 0.665936 0.746009 703.723 481.629)" fill="#A22E0B" stroke="#BE3A0D" stroke-width="1.98737"/>
<circle cx="38.5307" cy="38.5307" r="37.537" transform="matrix(-0.746009 0.665936 0.665936 0.746009 750.766 442.835)" fill="#A22E0B" stroke="#BE3A0D" stroke-width="1.98737"/>
<circle cx="38.5307" cy="38.5307" r="37.537" transform="matrix(-0.746009 0.665936 0.665936 0.746009 643.012 495.709)" fill="#A22E0B" stroke="#BE3A0D" stroke-width="1.98737"/>
<circle cx="30.9468" cy="30.9468" r="29.9532" transform="matrix(-0.746009 0.665936 0.665936 0.746009 642.402 506.417)" fill="#A22E0B" stroke="#BE3A0D" stroke-width="1.98737"/>
<circle cx="23.3842" cy="23.3842" r="22.3905" transform="matrix(-0.746009 0.665936 0.665936 0.746009 641.797 517.096)" fill="#A22E0B" stroke="#BE3A0D" stroke-width="1.98737"/>
<circle cx="16.1359" cy="16.1359" r="15.1422" transform="matrix(-0.746009 0.665936 0.665936 0.746009 641.219 527.33)" fill="#A22E0B" stroke="#BE3A0D" stroke-width="1.98737"/>
<circle cx="38.5307" cy="38.5307" r="37.537" transform="matrix(-0.746009 0.665936 0.665936 0.746009 585.523 547.028)" fill="#A22E0B" stroke="#BE3A0D" stroke-width="1.98737"/>
<circle cx="30.9468" cy="30.9468" r="29.9532" transform="matrix(-0.746009 0.665936 0.665936 0.746009 584.914 557.737)" fill="#A22E0B" stroke="#BE3A0D" stroke-width="1.98737"/>
<circle cx="23.3842" cy="23.3842" r="22.3905" transform="matrix(-0.746009 0.665936 0.665936 0.746009 584.309 568.414)" fill="#A22E0B" stroke="#BE3A0D" stroke-width="1.98737"/>
<circle cx="16.1359" cy="16.1359" r="15.1422" transform="matrix(-0.746009 0.665936 0.665936 0.746009 583.73 578.648)" fill="#A22E0B" stroke="#BE3A0D" stroke-width="1.98737"/>
<circle cx="38.5307" cy="38.5307" r="37.537" transform="matrix(-0.746009 0.665936 0.665936 0.746009 528.055 598.33)" fill="#A22E0B" stroke="#BE3A0D" stroke-width="1.98737"/>
<circle cx="30.9468" cy="30.9468" r="29.9532" transform="matrix(-0.746009 0.665936 0.665936 0.746009 527.449 609.037)" fill="#A22E0B" stroke="#BE3A0D" stroke-width="1.98737"/>
<circle cx="23.3842" cy="23.3842" r="22.3905" transform="matrix(-0.746009 0.665936 0.665936 0.746009 526.84 619.717)" fill="#A22E0B" stroke="#BE3A0D" stroke-width="1.98737"/>
<circle cx="16.1359" cy="16.1359" r="15.1422" transform="matrix(-0.746009 0.665936 0.665936 0.746009 526.262 629.95)" fill="#A22E0B" stroke="#BE3A0D" stroke-width="1.98737"/>
<circle cx="38.5307" cy="38.5307" r="37.537" transform="matrix(-0.746009 0.665936 0.665936 0.746009 689.859 490.325)" fill="#A22E0B" stroke="#BE3A0D" stroke-width="1.98737"/>
<circle cx="30.9468" cy="30.9468" r="29.9532" transform="matrix(-0.746009 0.665936 0.665936 0.746009 689.25 501.033)" fill="#A22E0B" stroke="#BE3A0D" stroke-width="1.98737"/>
<circle cx="23.3842" cy="23.3842" r="22.3905" transform="matrix(-0.746009 0.665936 0.665936 0.746009 688.645 511.712)" fill="#A22E0B" stroke="#BE3A0D" stroke-width="1.98737"/>
<circle cx="16.1359" cy="16.1359" r="15.1422" transform="matrix(-0.746009 0.665936 0.665936 0.746009 688.066 521.945)" fill="#A22E0B" stroke="#BE3A0D" stroke-width="1.98737"/>
<circle cx="38.5307" cy="38.5307" r="37.537" transform="matrix(-0.746009 0.665936 0.665936 0.746009 632.371 541.642)" fill="#A22E0B" stroke="#BE3A0D" stroke-width="1.98737"/>
<circle cx="30.9468" cy="30.9468" r="29.9532" transform="matrix(-0.746009 0.665936 0.665936 0.746009 631.762 552.352)" fill="#A22E0B" stroke="#BE3A0D" stroke-width="1.98737"/>
<circle cx="23.3842" cy="23.3842" r="22.3905" transform="matrix(-0.746009 0.665936 0.665936 0.746009 631.156 563.028)" fill="#A22E0B" stroke="#BE3A0D" stroke-width="1.98737"/>
<circle cx="16.1359" cy="16.1359" r="15.1422" transform="matrix(-0.746009 0.665936 0.665936 0.746009 630.578 573.262)" fill="#A22E0B" stroke="#BE3A0D" stroke-width="1.98737"/>
<circle cx="38.5307" cy="38.5307" r="37.537" transform="matrix(-0.746009 0.665936 0.665936 0.746009 574.879 592.962)" fill="#A22E0B" stroke="#BE3A0D" stroke-width="1.98737"/>
<circle cx="30.9468" cy="30.9468" r="29.9532" transform="matrix(-0.746009 0.665936 0.665936 0.746009 574.27 603.672)" fill="#A22E0B" stroke="#BE3A0D" stroke-width="1.98737"/>
<circle cx="23.3842" cy="23.3842" r="22.3905" transform="matrix(-0.746009 0.665936 0.665936 0.746009 573.664 614.349)" fill="#A22E0B" stroke="#BE3A0D" stroke-width="1.98737"/>
<circle cx="16.1359" cy="16.1359" r="15.1422" transform="matrix(-0.746009 0.665936 0.665936 0.746009 573.086 624.582)" fill="#A22E0B" stroke="#BE3A0D" stroke-width="1.98737"/>
<circle cx="38.5307" cy="38.5307" r="37.537" transform="matrix(-0.746009 0.665936 0.665936 0.746009 679.422 536.489)" fill="#A22E0B" stroke="#BE3A0D" stroke-width="1.98737"/>
<circle cx="30.9468" cy="30.9468" r="29.9532" transform="matrix(-0.746009 0.665936 0.665936 0.746009 678.812 547.199)" fill="#A22E0B" stroke="#BE3A0D" stroke-width="1.98737"/>
<circle cx="23.3842" cy="23.3842" r="22.3905" transform="matrix(-0.746009 0.665936 0.665936 0.746009 678.207 557.877)" fill="#A22E0B" stroke="#BE3A0D" stroke-width="1.98737"/>
<circle cx="16.1359" cy="16.1359" r="15.1422" transform="matrix(-0.746009 0.665936 0.665936 0.746009 677.625 568.112)" fill="#A22E0B" stroke="#BE3A0D" stroke-width="1.98737"/>
<circle cx="38.5307" cy="38.5307" r="37.537" transform="matrix(-0.746009 0.665936 0.665936 0.746009 621.934 587.808)" fill="#A22E0B" stroke="#BE3A0D" stroke-width="1.98737"/>
<circle cx="30.9468" cy="30.9468" r="29.9532" transform="matrix(-0.746009 0.665936 0.665936 0.746009 621.324 598.517)" fill="#A22E0B" stroke="#BE3A0D" stroke-width="1.98737"/>
<circle cx="23.3842" cy="23.3842" r="22.3905" transform="matrix(-0.746009 0.665936 0.665936 0.746009 620.719 609.194)" fill="#A22E0B" stroke="#BE3A0D" stroke-width="1.98737"/>
<circle cx="16.1359" cy="16.1359" r="15.1422" transform="matrix(-0.746009 0.665936 0.665936 0.746009 620.141 619.428)" fill="#A22E0B" stroke="#BE3A0D" stroke-width="1.98737"/>
<circle cx="38.5307" cy="38.5307" r="37.537" transform="matrix(-0.746009 0.665936 0.665936 0.746009 564.441 639.128)" fill="#A22E0B" stroke="#BE3A0D" stroke-width="1.98737"/>
<circle cx="30.9468" cy="30.9468" r="29.9532" transform="matrix(-0.746009 0.665936 0.665936 0.746009 563.832 649.834)" fill="#A22E0B" stroke="#BE3A0D" stroke-width="1.98737"/>
<circle cx="23.3842" cy="23.3842" r="22.3905" transform="matrix(-0.746009 0.665936 0.665936 0.746009 563.23 660.513)" fill="#A22E0B" stroke="#BE3A0D" stroke-width="1.98737"/>
<circle cx="16.1359" cy="16.1359" r="15.1422" transform="matrix(-0.746009 0.665936 0.665936 0.746009 562.648 670.748)" fill="#A22E0B" stroke="#BE3A0D" stroke-width="1.98737"/>
<circle cx="38.5307" cy="38.5307" r="37.537" transform="matrix(-0.746009 0.665936 0.665936 0.746009 736.906 485.175)" fill="#A22E0B" stroke="#BE3A0D" stroke-width="1.98737"/>
<circle cx="30.9468" cy="30.9468" r="29.9532" transform="matrix(-0.746009 0.665936 0.665936 0.746009 736.301 495.881)" fill="#A22E0B" stroke="#BE3A0D" stroke-width="1.98737"/>
<circle cx="38.5307" cy="38.5307" r="37.537" transform="matrix(-0.746009 0.665936 0.665936 0.746009 724.672 529.33)" fill="#A22E0B" stroke="#BE3A0D" stroke-width="1.98737"/>
<circle cx="30.9468" cy="30.9468" r="29.9532" transform="matrix(-0.746009 0.665936 0.665936 0.746009 724.066 540.036)" fill="#A22E0B" stroke="#BE3A0D" stroke-width="1.98737"/>
<circle cx="23.3842" cy="23.3842" r="22.3905" transform="matrix(-0.746009 0.665936 0.665936 0.746009 723.461 550.715)" fill="#A22E0B" stroke="#BE3A0D" stroke-width="1.98737"/>
<circle cx="16.1359" cy="16.1359" r="15.1422" transform="matrix(-0.746009 0.665936 0.665936 0.746009 722.879 560.949)" fill="#A22E0B" stroke="#BE3A0D" stroke-width="1.98737"/>
<circle cx="38.5307" cy="38.5307" r="37.537" transform="matrix(-0.746009 0.665936 0.665936 0.746009 667.184 580.647)" fill="#A22E0B" stroke="#BE3A0D" stroke-width="1.98737"/>
<circle cx="30.9468" cy="30.9468" r="29.9532" transform="matrix(-0.746009 0.665936 0.665936 0.746009 666.578 591.354)" fill="#A22E0B" stroke="#BE3A0D" stroke-width="1.98737"/>
<circle cx="23.3842" cy="23.3842" r="22.3905" transform="matrix(-0.746009 0.665936 0.665936 0.746009 665.973 602.032)" fill="#A22E0B" stroke="#BE3A0D" stroke-width="1.98737"/>
<circle cx="16.1359" cy="16.1359" r="15.1422" transform="matrix(-0.746009 0.665936 0.665936 0.746009 665.391 612.268)" fill="#A22E0B" stroke="#BE3A0D" stroke-width="1.98737"/>
<circle cx="38.5307" cy="38.5307" r="37.537" transform="matrix(-0.746009 0.665936 0.665936 0.746009 609.715 631.95)" fill="#A22E0B" stroke="#BE3A0D" stroke-width="1.98737"/>
<circle cx="30.9468" cy="30.9468" r="29.9532" transform="matrix(-0.746009 0.665936 0.665936 0.746009 609.105 642.659)" fill="#A22E0B" stroke="#BE3A0D" stroke-width="1.98737"/>
<circle cx="23.3842" cy="23.3842" r="22.3905" transform="matrix(-0.746009 0.665936 0.665936 0.746009 608.5 653.337)" fill="#A22E0B" stroke="#BE3A0D" stroke-width="1.98737"/>
<circle cx="16.1359" cy="16.1359" r="15.1422" transform="matrix(-0.746009 0.665936 0.665936 0.746009 607.922 663.57)" fill="#A22E0B" stroke="#BE3A0D" stroke-width="1.98737"/>
<circle cx="38.5307" cy="38.5307" r="37.537" transform="matrix(-0.746009 0.665936 0.665936 0.746009 712.434 573.475)" fill="#A22E0B" stroke="#BE3A0D" stroke-width="1.98737"/>
<circle cx="30.9468" cy="30.9468" r="29.9532" transform="matrix(-0.746009 0.665936 0.665936 0.746009 711.824 584.183)" fill="#A22E0B" stroke="#BE3A0D" stroke-width="1.98737"/>
<circle cx="23.3842" cy="23.3842" r="22.3905" transform="matrix(-0.746009 0.665936 0.665936 0.746009 711.223 594.859)" fill="#A22E0B" stroke="#BE3A0D" stroke-width="1.98737"/>
<circle cx="16.1359" cy="16.1359" r="15.1422" transform="matrix(-0.746009 0.665936 0.665936 0.746009 710.641 605.095)" fill="#A22E0B" stroke="#BE3A0D" stroke-width="1.98737"/>
<circle cx="38.5307" cy="38.5307" r="37.537" transform="matrix(-0.746009 0.665936 0.665936 0.746009 654.941 624.792)" fill="#A22E0B" stroke="#BE3A0D" stroke-width="1.98737"/>
<circle cx="30.9468" cy="30.9468" r="29.9532" transform="matrix(-0.746009 0.665936 0.665936 0.746009 654.332 635.502)" fill="#A22E0B" stroke="#BE3A0D" stroke-width="1.98737"/>
<circle cx="23.3842" cy="23.3842" r="22.3905" transform="matrix(-0.746009 0.665936 0.665936 0.746009 653.73 646.177)" fill="#A22E0B" stroke="#BE3A0D" stroke-width="1.98737"/>
<circle cx="16.1359" cy="16.1359" r="15.1422" transform="matrix(-0.746009 0.665936 0.665936 0.746009 653.148 656.412)" fill="#A22E0B" stroke="#BE3A0D" stroke-width="1.98737"/>
<circle cx="38.5307" cy="38.5307" r="37.537" transform="matrix(-0.746009 0.665936 0.665936 0.746009 597.457 676.11)" fill="#A22E0B" stroke="#BE3A0D" stroke-width="1.98737"/>
<circle cx="30.9468" cy="30.9468" r="29.9532" transform="matrix(-0.746009 0.665936 0.665936 0.746009 596.848 686.817)" fill="#A22E0B" stroke="#BE3A0D" stroke-width="1.98737"/>
<circle cx="23.3842" cy="23.3842" r="22.3905" transform="matrix(-0.746009 0.665936 0.665936 0.746009 596.246 697.494)" fill="#A22E0B" stroke="#BE3A0D" stroke-width="1.98737"/>
<circle cx="16.1359" cy="16.1359" r="15.1422" transform="matrix(-0.746009 0.665936 0.665936 0.746009 595.664 707.73)" fill="#A22E0B" stroke="#BE3A0D" stroke-width="1.98737"/>
<circle cx="38.5307" cy="38.5307" r="37.537" transform="matrix(-0.746009 0.665936 0.665936 0.746009 644.52 670.94)" fill="#A22E0B" stroke="#BE3A0D" stroke-width="1.98737"/>
<circle cx="30.9468" cy="30.9468" r="29.9532" transform="matrix(-0.746009 0.665936 0.665936 0.746009 643.91 681.649)" fill="#A22E0B" stroke="#BE3A0D" stroke-width="1.98737"/>
<circle cx="23.3842" cy="23.3842" r="22.3905" transform="matrix(-0.746009 0.665936 0.665936 0.746009 643.305 692.327)" fill="#A22E0B" stroke="#BE3A0D" stroke-width="1.98737"/>
<circle cx="16.1359" cy="16.1359" r="15.1422" transform="matrix(-0.746009 0.665936 0.665936 0.746009 642.727 702.562)" fill="#A22E0B" stroke="#BE3A0D" stroke-width="1.98737"/>
<circle cx="38.5307" cy="38.5307" r="37.537" transform="matrix(-0.746009 0.665936 0.665936 0.746009 702.008 619.623)" fill="#A22E0B" stroke="#BE3A0D" stroke-width="1.98737"/>
<circle cx="30.9468" cy="30.9468" r="29.9532" transform="matrix(-0.746009 0.665936 0.665936 0.746009 701.398 630.331)" fill="#A22E0B" stroke="#BE3A0D" stroke-width="1.98737"/>
<circle cx="23.3842" cy="23.3842" r="22.3905" transform="matrix(-0.746009 0.665936 0.665936 0.746009 700.793 641.01)" fill="#A22E0B" stroke="#BE3A0D" stroke-width="1.98737"/>
<circle cx="16.1359" cy="16.1359" r="15.1422" transform="matrix(-0.746009 0.665936 0.665936 0.746009 700.215 651.243)" fill="#A22E0B" stroke="#BE3A0D" stroke-width="1.98737"/>
<circle cx="38.5307" cy="38.5307" r="37.537" transform="matrix(-0.746009 0.665936 0.665936 0.746009 689.773 663.779)" fill="#A22E0B" stroke="#BE3A0D" stroke-width="1.98737"/>
<circle cx="30.9468" cy="30.9468" r="29.9532" transform="matrix(-0.746009 0.665936 0.665936 0.746009 689.164 674.487)" fill="#A22E0B" stroke="#BE3A0D" stroke-width="1.98737"/>
<circle cx="23.3842" cy="23.3842" r="22.3905" transform="matrix(-0.746009 0.665936 0.665936 0.746009 688.562 685.163)" fill="#A22E0B" stroke="#BE3A0D" stroke-width="1.98737"/>
<circle cx="16.1359" cy="16.1359" r="15.1422" transform="matrix(-0.746009 0.665936 0.665936 0.746009 687.98 695.399)" fill="#A22E0B" stroke="#BE3A0D" stroke-width="1.98737"/>
<circle cx="38.5307" cy="38.5307" r="37.537" transform="matrix(-0.746009 0.665936 0.665936 0.746009 747.258 612.467)" fill="#A22E0B" stroke="#BE3A0D" stroke-width="1.98737"/>
<circle cx="38.5307" cy="38.5307" r="37.537" transform="matrix(-0.746009 0.665936 0.665936 0.746009 632.285 715.097)" fill="#A22E0B" stroke="#BE3A0D" stroke-width="1.98737"/>
<circle cx="30.9468" cy="30.9468" r="29.9532" transform="matrix(-0.746009 0.665936 0.665936 0.746009 631.68 725.804)" fill="#A22E0B" stroke="#BE3A0D" stroke-width="1.98737"/>
<circle cx="23.3842" cy="23.3842" r="22.3905" transform="matrix(-0.746009 0.665936 0.665936 0.746009 631.074 736.481)" fill="#A22E0B" stroke="#BE3A0D" stroke-width="1.98737"/>
<circle cx="38.5307" cy="38.5307" r="37.537" transform="matrix(-0.746009 0.665936 0.665936 0.746009 677.527 707.93)" fill="#A22E0B" stroke="#BE3A0D" stroke-width="1.98737"/>
<circle cx="30.9468" cy="30.9468" r="29.9532" transform="matrix(-0.746009 0.665936 0.665936 0.746009 676.922 718.636)" fill="#A22E0B" stroke="#BE3A0D" stroke-width="1.98737"/>
<circle cx="23.3842" cy="23.3842" r="22.3905" transform="matrix(-0.746009 0.665936 0.665936 0.746009 676.316 729.313)" fill="#A22E0B" stroke="#BE3A0D" stroke-width="1.98737"/>
<circle cx="16.1359" cy="16.1359" r="15.1422" transform="matrix(-0.746009 0.665936 0.665936 0.746009 675.734 739.549)" fill="#A22E0B" stroke="#BE3A0D" stroke-width="1.98737"/>
<circle cx="38.5307" cy="38.5307" r="37.537" transform="matrix(-0.746009 0.665936 0.665936 0.746009 735.012 656.614)" fill="#A22E0B" stroke="#BE3A0D" stroke-width="1.98737"/>
<circle cx="30.9468" cy="30.9468" r="29.9532" transform="matrix(-0.746009 0.665936 0.665936 0.746009 734.406 667.321)" fill="#A22E0B" stroke="#BE3A0D" stroke-width="1.98737"/>
<circle cx="23.3842" cy="23.3842" r="22.3905" transform="matrix(-0.746009 0.665936 0.665936 0.746009 733.801 677.999)" fill="#A22E0B" stroke="#BE3A0D" stroke-width="1.98737"/>
<circle cx="38.5307" cy="38.5307" r="37.537" transform="matrix(-0.746009 0.665936 0.665936 0.746009 304.93 464.469)" fill="#A22E0B" stroke="#BE3A0D" stroke-width="1.98737"/>
<circle cx="30.9468" cy="30.9468" r="29.9532" transform="matrix(-0.746009 0.665936 0.665936 0.746009 304.32 475.177)" fill="#A22E0B" stroke="#BE3A0D" stroke-width="1.98737"/>
<circle cx="23.3842" cy="23.3842" r="22.3905" transform="matrix(-0.746009 0.665936 0.665936 0.746009 303.715 485.855)" fill="#A22E0B" stroke="#BE3A0D" stroke-width="1.98737"/>
<circle cx="16.1359" cy="16.1359" r="15.1422" transform="matrix(-0.746009 0.665936 0.665936 0.746009 303.137 496.089)" fill="#A22E0B" stroke="#BE3A0D" stroke-width="1.98737"/>
<circle cx="38.5307" cy="38.5307" r="37.537" transform="matrix(-0.746009 0.665936 0.665936 0.746009 363.305 414.137)" fill="#A22E0B" stroke="#BE3A0D" stroke-width="1.98737"/>
<circle cx="30.9468" cy="30.9468" r="29.9532" transform="matrix(-0.746009 0.665936 0.665936 0.746009 362.695 424.845)" fill="#A22E0B" stroke="#BE3A0D" stroke-width="1.98737"/>
<circle cx="23.3842" cy="23.3842" r="22.3905" transform="matrix(-0.746009 0.665936 0.665936 0.746009 362.09 435.523)" fill="#A22E0B" stroke="#BE3A0D" stroke-width="1.98737"/>
<circle cx="16.1359" cy="16.1359" r="15.1422" transform="matrix(-0.746009 0.665936 0.665936 0.746009 361.512 445.757)" fill="#A22E0B" stroke="#BE3A0D" stroke-width="1.98737"/>
<circle cx="38.5307" cy="38.5307" r="37.537" transform="matrix(-0.746009 0.665936 0.665936 0.746009 351.777 459.084)" fill="#A22E0B" stroke="#BE3A0D" stroke-width="1.98737"/>
<circle cx="30.9468" cy="30.9468" r="29.9532" transform="matrix(-0.746009 0.665936 0.665936 0.746009 351.168 469.793)" fill="#A22E0B" stroke="#BE3A0D" stroke-width="1.98737"/>
<circle cx="23.3842" cy="23.3842" r="22.3905" transform="matrix(-0.746009 0.665936 0.665936 0.746009 350.562 480.47)" fill="#A22E0B" stroke="#BE3A0D" stroke-width="1.98737"/>
<circle cx="16.1359" cy="16.1359" r="15.1422" transform="matrix(-0.746009 0.665936 0.665936 0.746009 349.98 490.706)" fill="#A22E0B" stroke="#BE3A0D" stroke-width="1.98737"/>
<circle cx="38.5307" cy="38.5307" r="37.537" transform="matrix(-0.746009 0.665936 0.665936 0.746009 294.285 510.404)" fill="#A22E0B" stroke="#BE3A0D" stroke-width="1.98737"/>
<circle cx="30.9468" cy="30.9468" r="29.9532" transform="matrix(-0.746009 0.665936 0.665936 0.746009 293.68 521.111)" fill="#A22E0B" stroke="#BE3A0D" stroke-width="1.98737"/>
<circle cx="23.3842" cy="23.3842" r="22.3905" transform="matrix(-0.746009 0.665936 0.665936 0.746009 293.07 531.791)" fill="#A22E0B" stroke="#BE3A0D" stroke-width="1.98737"/>
<circle cx="16.1359" cy="16.1359" r="15.1422" transform="matrix(-0.746009 0.665936 0.665936 0.746009 292.492 542.024)" fill="#A22E0B" stroke="#BE3A0D" stroke-width="1.98737"/>
<circle cx="38.5307" cy="38.5307" r="37.537" transform="matrix(-0.746009 0.665936 0.665936 0.746009 341.336 505.251)" fill="#A22E0B" stroke="#BE3A0D" stroke-width="1.98737"/>
<circle cx="30.9468" cy="30.9468" r="29.9532" transform="matrix(-0.746009 0.665936 0.665936 0.746009 340.73 515.958)" fill="#A22E0B" stroke="#BE3A0D" stroke-width="1.98737"/>
<circle cx="23.3842" cy="23.3842" r="22.3905" transform="matrix(-0.746009 0.665936 0.665936 0.746009 340.125 526.636)" fill="#A22E0B" stroke="#BE3A0D" stroke-width="1.98737"/>
<circle cx="16.1359" cy="16.1359" r="15.1422" transform="matrix(-0.746009 0.665936 0.665936 0.746009 339.543 536.871)" fill="#A22E0B" stroke="#BE3A0D" stroke-width="1.98737"/>
<circle cx="38.5307" cy="38.5307" r="37.537" transform="matrix(-0.746009 0.665936 0.665936 0.746009 283.848 556.569)" fill="#A22E0B" stroke="#BE3A0D" stroke-width="1.98737"/>
<circle cx="30.9468" cy="30.9468" r="29.9532" transform="matrix(-0.746009 0.665936 0.665936 0.746009 283.238 567.277)" fill="#A22E0B" stroke="#BE3A0D" stroke-width="1.98737"/>
<circle cx="23.3842" cy="23.3842" r="22.3905" transform="matrix(-0.746009 0.665936 0.665936 0.746009 282.637 577.955)" fill="#A22E0B" stroke="#BE3A0D" stroke-width="1.98737"/>
<circle cx="16.1359" cy="16.1359" r="15.1422" transform="matrix(-0.746009 0.665936 0.665936 0.746009 282.051 588.19)" fill="#A22E0B" stroke="#BE3A0D" stroke-width="1.98737"/>
<circle cx="38.5307" cy="38.5307" r="37.537" transform="matrix(-0.746009 0.665936 0.665936 0.746009 398.824 453.934)" fill="#A22E0B" stroke="#BE3A0D" stroke-width="1.98737"/>
<circle cx="30.9468" cy="30.9468" r="29.9532" transform="matrix(-0.746009 0.665936 0.665936 0.746009 398.219 464.639)" fill="#A22E0B" stroke="#BE3A0D" stroke-width="1.98737"/>
<circle cx="23.3842" cy="23.3842" r="22.3905" transform="matrix(-0.746009 0.665936 0.665936 0.746009 397.609 475.318)" fill="#A22E0B" stroke="#BE3A0D" stroke-width="1.98737"/>
<circle cx="16.1359" cy="16.1359" r="15.1422" transform="matrix(-0.746009 0.665936 0.665936 0.746009 397.031 485.553)" fill="#A22E0B" stroke="#BE3A0D" stroke-width="1.98737"/>
<circle cx="38.5307" cy="38.5307" r="37.537" transform="matrix(-0.746009 0.665936 0.665936 0.746009 386.59 498.088)" fill="#A22E0B" stroke="#BE3A0D" stroke-width="1.98737"/>
<circle cx="30.9468" cy="30.9468" r="29.9532" transform="matrix(-0.746009 0.665936 0.665936 0.746009 385.98 508.796)" fill="#A22E0B" stroke="#BE3A0D" stroke-width="1.98737"/>
<circle cx="23.3842" cy="23.3842" r="22.3905" transform="matrix(-0.746009 0.665936 0.665936 0.746009 385.379 519.473)" fill="#A22E0B" stroke="#BE3A0D" stroke-width="1.98737"/>
<circle cx="16.1359" cy="16.1359" r="15.1422" transform="matrix(-0.746009 0.665936 0.665936 0.746009 384.797 529.708)" fill="#A22E0B" stroke="#BE3A0D" stroke-width="1.98737"/>
<circle cx="38.5307" cy="38.5307" r="37.537" transform="matrix(-0.746009 0.665936 0.665936 0.746009 329.102 549.405)" fill="#A22E0B" stroke="#BE3A0D" stroke-width="1.98737"/>
<circle cx="30.9468" cy="30.9468" r="29.9532" transform="matrix(-0.746009 0.665936 0.665936 0.746009 328.496 560.113)" fill="#A22E0B" stroke="#BE3A0D" stroke-width="1.98737"/>
<circle cx="23.3842" cy="23.3842" r="22.3905" transform="matrix(-0.746009 0.665936 0.665936 0.746009 327.891 570.79)" fill="#A22E0B" stroke="#BE3A0D" stroke-width="1.98737"/>
<circle cx="16.1359" cy="16.1359" r="15.1422" transform="matrix(-0.746009 0.665936 0.665936 0.746009 327.309 581.026)" fill="#A22E0B" stroke="#BE3A0D" stroke-width="1.98737"/>
<circle cx="38.5307" cy="38.5307" r="37.537" transform="matrix(-0.746009 0.665936 0.665936 0.746009 374.348 542.233)" fill="#A22E0B" stroke="#BE3A0D" stroke-width="1.98737"/>
<circle cx="30.9468" cy="30.9468" r="29.9532" transform="matrix(-0.746009 0.665936 0.665936 0.746009 373.738 552.941)" fill="#A22E0B" stroke="#BE3A0D" stroke-width="1.98737"/>
<circle cx="23.3842" cy="23.3842" r="22.3905" transform="matrix(-0.746009 0.665936 0.665936 0.746009 373.133 563.62)" fill="#A22E0B" stroke="#BE3A0D" stroke-width="1.98737"/>
<circle cx="16.1359" cy="16.1359" r="15.1422" transform="matrix(-0.746009 0.665936 0.665936 0.746009 372.555 573.854)" fill="#A22E0B" stroke="#BE3A0D" stroke-width="1.98737"/>
<circle cx="38.5307" cy="38.5307" r="37.537" transform="matrix(-0.746009 0.665936 0.665936 0.746009 431.836 490.919)" fill="#A22E0B" stroke="#BE3A0D" stroke-width="1.98737"/>
<circle cx="30.9468" cy="30.9468" r="29.9532" transform="matrix(-0.746009 0.665936 0.665936 0.746009 431.23 501.626)" fill="#A22E0B" stroke="#BE3A0D" stroke-width="1.98737"/>
<circle cx="23.3842" cy="23.3842" r="22.3905" transform="matrix(-0.746009 0.665936 0.665936 0.746009 430.625 512.303)" fill="#A22E0B" stroke="#BE3A0D" stroke-width="1.98737"/>
<circle cx="16.1359" cy="16.1359" r="15.1422" transform="matrix(-0.746009 0.665936 0.665936 0.746009 430.043 522.538)" fill="#A22E0B" stroke="#BE3A0D" stroke-width="1.98737"/>
<circle cx="38.5307" cy="38.5307" r="37.537" transform="matrix(-0.746009 0.665936 0.665936 0.746009 74.9727 669.741)" fill="#A22E0B" stroke="#BE3A0D" stroke-width="1.98737"/>
<circle cx="30.9468" cy="30.9468" r="29.9532" transform="matrix(-0.746009 0.665936 0.665936 0.746009 74.3672 680.448)" fill="#A22E0B" stroke="#BE3A0D" stroke-width="1.98737"/>
<circle cx="23.3842" cy="23.3842" r="22.3905" transform="matrix(-0.746009 0.665936 0.665936 0.746009 73.7578 691.128)" fill="#A22E0B" stroke="#BE3A0D" stroke-width="1.98737"/>
<circle cx="16.1359" cy="16.1359" r="15.1422" transform="matrix(-0.746009 0.665936 0.665936 0.746009 73.1797 701.361)" fill="#A22E0B" stroke="#BE3A0D" stroke-width="1.98737"/>
<circle cx="38.5307" cy="38.5307" r="37.537" transform="matrix(-0.746009 0.665936 0.665936 0.746009 17.5039 721.044)" fill="#A22E0B" stroke="#BE3A0D" stroke-width="1.98737"/>
<circle cx="30.9468" cy="30.9468" r="29.9532" transform="matrix(-0.746009 0.665936 0.665936 0.746009 16.8945 731.752)" fill="#A22E0B" stroke="#BE3A0D" stroke-width="1.98737"/>
<circle cx="23.3842" cy="23.3842" r="22.3905" transform="matrix(-0.746009 0.665936 0.665936 0.746009 16.293 742.43)" fill="#A22E0B" stroke="#BE3A0D" stroke-width="1.98737"/>
<circle cx="38.5307" cy="38.5307" r="37.537" transform="matrix(-0.746009 0.665936 0.665936 0.746009 179.312 613.035)" fill="#A22E0B" stroke="#BE3A0D" stroke-width="1.98737"/>
<circle cx="30.9468" cy="30.9468" r="29.9532" transform="matrix(-0.746009 0.665936 0.665936 0.746009 178.703 623.745)" fill="#A22E0B" stroke="#BE3A0D" stroke-width="1.98737"/>
<circle cx="23.3842" cy="23.3842" r="22.3905" transform="matrix(-0.746009 0.665936 0.665936 0.746009 178.094 634.424)" fill="#A22E0B" stroke="#BE3A0D" stroke-width="1.98737"/>
<circle cx="16.1359" cy="16.1359" r="15.1422" transform="matrix(-0.746009 0.665936 0.665936 0.746009 177.516 644.657)" fill="#A22E0B" stroke="#BE3A0D" stroke-width="1.98737"/>
<circle cx="38.5307" cy="38.5307" r="37.537" transform="matrix(-0.746009 0.665936 0.665936 0.746009 64.3281 715.676)" fill="#A22E0B" stroke="#BE3A0D" stroke-width="1.98737"/>
<circle cx="30.9468" cy="30.9468" r="29.9532" transform="matrix(-0.746009 0.665936 0.665936 0.746009 63.7188 726.384)" fill="#A22E0B" stroke="#BE3A0D" stroke-width="1.98737"/>
<circle cx="23.3842" cy="23.3842" r="22.3905" transform="matrix(-0.746009 0.665936 0.665936 0.746009 63.1172 737.061)" fill="#A22E0B" stroke="#BE3A0D" stroke-width="1.98737"/>
<circle cx="38.5307" cy="38.5307" r="37.537" transform="matrix(-0.746009 0.665936 0.665936 0.746009 168.871 659.203)" fill="#A22E0B" stroke="#BE3A0D" stroke-width="1.98737"/>
<circle cx="30.9468" cy="30.9468" r="29.9532" transform="matrix(-0.746009 0.665936 0.665936 0.746009 168.262 669.91)" fill="#A22E0B" stroke="#BE3A0D" stroke-width="1.98737"/>
<circle cx="23.3842" cy="23.3842" r="22.3905" transform="matrix(-0.746009 0.665936 0.665936 0.746009 167.66 680.588)" fill="#A22E0B" stroke="#BE3A0D" stroke-width="1.98737"/>
<circle cx="16.1359" cy="16.1359" r="15.1422" transform="matrix(-0.746009 0.665936 0.665936 0.746009 167.078 690.823)" fill="#A22E0B" stroke="#BE3A0D" stroke-width="1.98737"/>
<circle cx="38.5307" cy="38.5307" r="37.537" transform="matrix(-0.746009 0.665936 0.665936 0.746009 200.434 680.999)" fill="#A22E0B" stroke="#BE3A0D" stroke-width="1.98737"/>
<circle cx="30.9468" cy="30.9468" r="29.9532" transform="matrix(-0.746009 0.665936 0.665936 0.746009 199.824 691.706)" fill="#A22E0B" stroke="#BE3A0D" stroke-width="1.98737"/>
<circle cx="23.3842" cy="23.3842" r="22.3905" transform="matrix(-0.746009 0.665936 0.665936 0.746009 199.223 702.384)" fill="#A22E0B" stroke="#BE3A0D" stroke-width="1.98737"/>
<circle cx="16.1359" cy="16.1359" r="15.1422" transform="matrix(-0.746009 0.665936 0.665936 0.746009 198.641 712.619)" fill="#A22E0B" stroke="#BE3A0D" stroke-width="1.98737"/>
<circle cx="38.5307" cy="38.5307" r="37.537" transform="matrix(-0.746009 0.665936 0.665936 0.746009 111.383 710.521)" fill="#A22E0B" stroke="#BE3A0D" stroke-width="1.98737"/>
<circle cx="30.9468" cy="30.9468" r="29.9532" transform="matrix(-0.746009 0.665936 0.665936 0.746009 110.773 721.229)" fill="#A22E0B" stroke="#BE3A0D" stroke-width="1.98737"/>
<circle cx="23.3842" cy="23.3842" r="22.3905" transform="matrix(-0.746009 0.665936 0.665936 0.746009 110.172 731.906)" fill="#A22E0B" stroke="#BE3A0D" stroke-width="1.98737"/>
<circle cx="16.1359" cy="16.1359" r="15.1422" transform="matrix(-0.746009 0.665936 0.665936 0.746009 109.59 742.142)" fill="#A22E0B" stroke="#BE3A0D" stroke-width="1.98737"/>
<circle cx="38.5307" cy="38.5307" r="37.537" transform="matrix(-0.746009 0.665936 0.665936 0.746009 226.359 607.886)" fill="#A22E0B" stroke="#BE3A0D" stroke-width="1.98737"/>
<circle cx="30.9468" cy="30.9468" r="29.9532" transform="matrix(-0.746009 0.665936 0.665936 0.746009 225.75 618.594)" fill="#A22E0B" stroke="#BE3A0D" stroke-width="1.98737"/>
<circle cx="23.3842" cy="23.3842" r="22.3905" transform="matrix(-0.746009 0.665936 0.665936 0.746009 225.145 629.271)" fill="#A22E0B" stroke="#BE3A0D" stroke-width="1.98737"/>
<circle cx="16.1359" cy="16.1359" r="15.1422" transform="matrix(-0.746009 0.665936 0.665936 0.746009 224.566 639.506)" fill="#A22E0B" stroke="#BE3A0D" stroke-width="1.98737"/>
<circle cx="38.5307" cy="38.5307" r="37.537" transform="matrix(-0.746009 0.665936 0.665936 0.746009 214.125 652.041)" fill="#A22E0B" stroke="#BE3A0D" stroke-width="1.98737"/>
<circle cx="30.9468" cy="30.9468" r="29.9532" transform="matrix(-0.746009 0.665936 0.665936 0.746009 213.516 662.749)" fill="#A22E0B" stroke="#BE3A0D" stroke-width="1.98737"/>
<circle cx="23.3842" cy="23.3842" r="22.3905" transform="matrix(-0.746009 0.665936 0.665936 0.746009 212.91 673.428)" fill="#A22E0B" stroke="#BE3A0D" stroke-width="1.98737"/>
<circle cx="16.1359" cy="16.1359" r="15.1422" transform="matrix(-0.746009 0.665936 0.665936 0.746009 212.332 683.661)" fill="#A22E0B" stroke="#BE3A0D" stroke-width="1.98737"/>
<circle cx="38.5307" cy="38.5307" r="37.537" transform="matrix(-0.746009 0.665936 0.665936 0.746009 270.02 598.933)" fill="#A22E0B" stroke="#BE3A0D" stroke-width="1.98737"/>
<circle cx="30.9468" cy="30.9468" r="29.9532" transform="matrix(-0.746009 0.665936 0.665936 0.746009 269.414 609.64)" fill="#A22E0B" stroke="#BE3A0D" stroke-width="1.98737"/>
<circle cx="23.3842" cy="23.3842" r="22.3905" transform="matrix(-0.746009 0.665936 0.665936 0.746009 268.809 620.318)" fill="#A22E0B" stroke="#BE3A0D" stroke-width="1.98737"/>
<circle cx="16.1359" cy="16.1359" r="15.1422" transform="matrix(-0.746009 0.665936 0.665936 0.746009 268.227 630.552)" fill="#A22E0B" stroke="#BE3A0D" stroke-width="1.98737"/>
<circle cx="38.5307" cy="38.5307" r="37.537" transform="matrix(-0.746009 0.665936 0.665936 0.746009 316.867 593.548)" fill="#A22E0B" stroke="#BE3A0D" stroke-width="1.98737"/>
<circle cx="30.9468" cy="30.9468" r="29.9532" transform="matrix(-0.746009 0.665936 0.665936 0.746009 316.258 604.256)" fill="#A22E0B" stroke="#BE3A0D" stroke-width="1.98737"/>
<circle cx="23.3842" cy="23.3842" r="22.3905" transform="matrix(-0.746009 0.665936 0.665936 0.746009 315.652 614.935)" fill="#A22E0B" stroke="#BE3A0D" stroke-width="1.98737"/>
<circle cx="16.1359" cy="16.1359" r="15.1422" transform="matrix(-0.746009 0.665936 0.665936 0.746009 315.074 625.168)" fill="#A22E0B" stroke="#BE3A0D" stroke-width="1.98737"/>
<circle cx="38.5307" cy="38.5307" r="37.537" transform="matrix(-0.746009 0.665936 0.665936 0.746009 259.379 644.865)" fill="#A22E0B" stroke="#BE3A0D" stroke-width="1.98737"/>
<circle cx="30.9468" cy="30.9468" r="29.9532" transform="matrix(-0.746009 0.665936 0.665936 0.746009 258.77 655.575)" fill="#A22E0B" stroke="#BE3A0D" stroke-width="1.98737"/>
<circle cx="23.3842" cy="23.3842" r="22.3905" transform="matrix(-0.746009 0.665936 0.665936 0.746009 258.164 666.252)" fill="#A22E0B" stroke="#BE3A0D" stroke-width="1.98737"/>
<circle cx="16.1359" cy="16.1359" r="15.1422" transform="matrix(-0.746009 0.665936 0.665936 0.746009 257.586 676.485)" fill="#A22E0B" stroke="#BE3A0D" stroke-width="1.98737"/>
<circle cx="38.5307" cy="38.5307" r="37.537" transform="matrix(-0.746009 0.665936 0.665936 0.746009 306.426 639.714)" fill="#A22E0B" stroke="#BE3A0D" stroke-width="1.98737"/>
<circle cx="30.9468" cy="30.9468" r="29.9532" transform="matrix(-0.746009 0.665936 0.665936 0.746009 305.816 650.422)" fill="#A22E0B" stroke="#BE3A0D" stroke-width="1.98737"/>
<circle cx="23.3842" cy="23.3842" r="22.3905" transform="matrix(-0.746009 0.665936 0.665936 0.746009 305.211 661.101)" fill="#A22E0B" stroke="#BE3A0D" stroke-width="1.98737"/>
<circle cx="16.1359" cy="16.1359" r="15.1422" transform="matrix(-0.746009 0.665936 0.665936 0.746009 304.633 671.334)" fill="#A22E0B" stroke="#BE3A0D" stroke-width="1.98737"/>
<circle cx="38.5307" cy="38.5307" r="37.537" transform="matrix(-0.746009 0.665936 0.665936 0.746009 248.938 691.031)" fill="#A22E0B" stroke="#BE3A0D" stroke-width="1.98737"/>
<circle cx="30.9468" cy="30.9468" r="29.9532" transform="matrix(-0.746009 0.665936 0.665936 0.746009 248.328 701.74)" fill="#A22E0B" stroke="#BE3A0D" stroke-width="1.98737"/>
<circle cx="23.3842" cy="23.3842" r="22.3905" transform="matrix(-0.746009 0.665936 0.665936 0.746009 247.723 712.418)" fill="#A22E0B" stroke="#BE3A0D" stroke-width="1.98737"/>
<circle cx="16.1359" cy="16.1359" r="15.1422" transform="matrix(-0.746009 0.665936 0.665936 0.746009 247.145 722.651)" fill="#A22E0B" stroke="#BE3A0D" stroke-width="1.98737"/>
<circle cx="38.5307" cy="38.5307" r="37.537" transform="matrix(-0.746009 0.665936 0.665936 0.746009 363.914 588.396)" fill="#A22E0B" stroke="#BE3A0D" stroke-width="1.98737"/>
<circle cx="30.9468" cy="30.9468" r="29.9532" transform="matrix(-0.746009 0.665936 0.665936 0.746009 363.305 599.104)" fill="#A22E0B" stroke="#BE3A0D" stroke-width="1.98737"/>
<circle cx="23.3842" cy="23.3842" r="22.3905" transform="matrix(-0.746009 0.665936 0.665936 0.746009 362.699 609.781)" fill="#A22E0B" stroke="#BE3A0D" stroke-width="1.98737"/>
<circle cx="16.1359" cy="16.1359" r="15.1422" transform="matrix(-0.746009 0.665936 0.665936 0.746009 362.121 620.016)" fill="#A22E0B" stroke="#BE3A0D" stroke-width="1.98737"/>
<circle cx="38.5307" cy="38.5307" r="37.537" transform="matrix(-0.746009 0.665936 0.665936 0.746009 191.465 742.335)" fill="#A22E0B" stroke="#BE3A0D" stroke-width="1.98737"/>
<circle cx="38.5307" cy="38.5307" r="37.537" transform="matrix(-0.746009 0.665936 0.665936 0.746009 421.398 537.083)" fill="#A22E0B" stroke="#BE3A0D" stroke-width="1.98737"/>
<circle cx="30.9468" cy="30.9468" r="29.9532" transform="matrix(-0.746009 0.665936 0.665936 0.746009 420.789 547.792)" fill="#A22E0B" stroke="#BE3A0D" stroke-width="1.98737"/>
<circle cx="23.3842" cy="23.3842" r="22.3905" transform="matrix(-0.746009 0.665936 0.665936 0.746009 420.184 558.47)" fill="#A22E0B" stroke="#BE3A0D" stroke-width="1.98737"/>
<circle cx="16.1359" cy="16.1359" r="15.1422" transform="matrix(-0.746009 0.665936 0.665936 0.746009 419.605 568.703)" fill="#A22E0B" stroke="#BE3A0D" stroke-width="1.98737"/>
<circle cx="38.5307" cy="38.5307" r="37.537" transform="matrix(-0.746009 0.665936 0.665936 0.746009 351.684 632.551)" fill="#A22E0B" stroke="#BE3A0D" stroke-width="1.98737"/>
<circle cx="30.9468" cy="30.9468" r="29.9532" transform="matrix(-0.746009 0.665936 0.665936 0.746009 351.074 643.259)" fill="#A22E0B" stroke="#BE3A0D" stroke-width="1.98737"/>
<circle cx="23.3842" cy="23.3842" r="22.3905" transform="matrix(-0.746009 0.665936 0.665936 0.746009 350.469 653.938)" fill="#A22E0B" stroke="#BE3A0D" stroke-width="1.98737"/>
<circle cx="16.1359" cy="16.1359" r="15.1422" transform="matrix(-0.746009 0.665936 0.665936 0.746009 349.887 664.172)" fill="#A22E0B" stroke="#BE3A0D" stroke-width="1.98737"/>
<circle cx="38.5307" cy="38.5307" r="37.537" transform="matrix(-0.746009 0.665936 0.665936 0.746009 409.164 581.238)" fill="#A22E0B" stroke="#BE3A0D" stroke-width="1.98737"/>
<circle cx="30.9468" cy="30.9468" r="29.9532" transform="matrix(-0.746009 0.665936 0.665936 0.746009 408.559 591.945)" fill="#A22E0B" stroke="#BE3A0D" stroke-width="1.98737"/>
<circle cx="23.3842" cy="23.3842" r="22.3905" transform="matrix(-0.746009 0.665936 0.665936 0.746009 407.953 602.623)" fill="#A22E0B" stroke="#BE3A0D" stroke-width="1.98737"/>
<circle cx="16.1359" cy="16.1359" r="15.1422" transform="matrix(-0.746009 0.665936 0.665936 0.746009 407.371 612.858)" fill="#A22E0B" stroke="#BE3A0D" stroke-width="1.98737"/>
<circle cx="38.5307" cy="38.5307" r="37.537" transform="matrix(-0.746009 0.665936 0.665936 0.746009 466.656 529.915)" fill="#A22E0B" stroke="#BE3A0D" stroke-width="1.98737"/>
<circle cx="30.9468" cy="30.9468" r="29.9532" transform="matrix(-0.746009 0.665936 0.665936 0.746009 466.051 540.623)" fill="#A22E0B" stroke="#BE3A0D" stroke-width="1.98737"/>
<circle cx="23.3842" cy="23.3842" r="22.3905" transform="matrix(-0.746009 0.665936 0.665936 0.746009 465.441 551.302)" fill="#A22E0B" stroke="#BE3A0D" stroke-width="1.98737"/>
<circle cx="16.1359" cy="16.1359" r="15.1422" transform="matrix(-0.746009 0.665936 0.665936 0.746009 464.863 561.535)" fill="#A22E0B" stroke="#BE3A0D" stroke-width="1.98737"/>
<circle cx="38.5307" cy="38.5307" r="37.537" transform="matrix(-0.746009 0.665936 0.665936 0.746009 294.195 683.868)" fill="#A22E0B" stroke="#BE3A0D" stroke-width="1.98737"/>
<circle cx="30.9468" cy="30.9468" r="29.9532" transform="matrix(-0.746009 0.665936 0.665936 0.746009 293.586 694.578)" fill="#A22E0B" stroke="#BE3A0D" stroke-width="1.98737"/>
<circle cx="23.3842" cy="23.3842" r="22.3905" transform="matrix(-0.746009 0.665936 0.665936 0.746009 292.98 705.255)" fill="#A22E0B" stroke="#BE3A0D" stroke-width="1.98737"/>
<circle cx="16.1359" cy="16.1359" r="15.1422" transform="matrix(-0.746009 0.665936 0.665936 0.746009 292.402 715.488)" fill="#A22E0B" stroke="#BE3A0D" stroke-width="1.98737"/>
<circle cx="38.5307" cy="38.5307" r="37.537" transform="matrix(-0.746009 0.665936 0.665936 0.746009 236.711 735.182)" fill="#A22E0B" stroke="#BE3A0D" stroke-width="1.98737"/>
<circle cx="38.5307" cy="38.5307" r="37.537" transform="matrix(-0.746009 0.665936 0.665936 0.746009 339.438 676.699)" fill="#A22E0B" stroke="#BE3A0D" stroke-width="1.98737"/>
<circle cx="30.9468" cy="30.9468" r="29.9532" transform="matrix(-0.746009 0.665936 0.665936 0.746009 338.832 687.405)" fill="#A22E0B" stroke="#BE3A0D" stroke-width="1.98737"/>
<circle cx="23.3842" cy="23.3842" r="22.3905" transform="matrix(-0.746009 0.665936 0.665936 0.746009 338.227 698.083)" fill="#A22E0B" stroke="#BE3A0D" stroke-width="1.98737"/>
<circle cx="16.1359" cy="16.1359" r="15.1422" transform="matrix(-0.746009 0.665936 0.665936 0.746009 337.645 708.318)" fill="#A22E0B" stroke="#BE3A0D" stroke-width="1.98737"/>
<circle cx="38.5307" cy="38.5307" r="37.537" transform="matrix(-0.746009 0.665936 0.665936 0.746009 396.918 625.386)" fill="#A22E0B" stroke="#BE3A0D" stroke-width="1.98737"/>
<circle cx="30.9468" cy="30.9468" r="29.9532" transform="matrix(-0.746009 0.665936 0.665936 0.746009 396.312 636.092)" fill="#A22E0B" stroke="#BE3A0D" stroke-width="1.98737"/>
<circle cx="23.3842" cy="23.3842" r="22.3905" transform="matrix(-0.746009 0.665936 0.665936 0.746009 395.707 646.77)" fill="#A22E0B" stroke="#BE3A0D" stroke-width="1.98737"/>
<circle cx="16.1359" cy="16.1359" r="15.1422" transform="matrix(-0.746009 0.665936 0.665936 0.746009 395.125 657.005)" fill="#A22E0B" stroke="#BE3A0D" stroke-width="1.98737"/>
<circle cx="38.5307" cy="38.5307" r="37.537" transform="matrix(-0.746009 0.665936 0.665936 0.746009 454.41 574.066)" fill="#A22E0B" stroke="#BE3A0D" stroke-width="1.98737"/>
<circle cx="30.9468" cy="30.9468" r="29.9532" transform="matrix(-0.746009 0.665936 0.665936 0.746009 453.801 584.775)" fill="#A22E0B" stroke="#BE3A0D" stroke-width="1.98737"/>
<circle cx="23.3842" cy="23.3842" r="22.3905" transform="matrix(-0.746009 0.665936 0.665936 0.746009 453.199 595.45)" fill="#A22E0B" stroke="#BE3A0D" stroke-width="1.98737"/>
<circle cx="16.1359" cy="16.1359" r="15.1422" transform="matrix(-0.746009 0.665936 0.665936 0.746009 452.617 605.687)" fill="#A22E0B" stroke="#BE3A0D" stroke-width="1.98737"/>
<circle cx="38.5307" cy="38.5307" r="37.537" transform="matrix(-0.746009 0.665936 0.665936 0.746009 281.957 728.009)" fill="#A22E0B" stroke="#BE3A0D" stroke-width="1.98737"/>
<circle cx="30.9468" cy="30.9468" r="29.9532" transform="matrix(-0.746009 0.665936 0.665936 0.746009 281.348 738.718)" fill="#A22E0B" stroke="#BE3A0D" stroke-width="1.98737"/>
<circle cx="38.5307" cy="38.5307" r="37.537" transform="matrix(-0.746009 0.665936 0.665936 0.746009 383.109 667.729)" fill="#A22E0B" stroke="#BE3A0D" stroke-width="1.98737"/>
<circle cx="30.9468" cy="30.9468" r="29.9532" transform="matrix(-0.746009 0.665936 0.665936 0.746009 382.5 678.438)" fill="#A22E0B" stroke="#BE3A0D" stroke-width="1.98737"/>
<circle cx="23.3842" cy="23.3842" r="22.3905" transform="matrix(-0.746009 0.665936 0.665936 0.746009 381.895 689.115)" fill="#A22E0B" stroke="#BE3A0D" stroke-width="1.98737"/>
<circle cx="16.1359" cy="16.1359" r="15.1422" transform="matrix(-0.746009 0.665936 0.665936 0.746009 381.316 699.349)" fill="#A22E0B" stroke="#BE3A0D" stroke-width="1.98737"/>
<circle cx="38.5307" cy="38.5307" r="37.537" transform="matrix(-0.746009 0.665936 0.665936 0.746009 440.594 616.416)" fill="#A22E0B" stroke="#BE3A0D" stroke-width="1.98737"/>
<circle cx="30.9468" cy="30.9468" r="29.9532" transform="matrix(-0.746009 0.665936 0.665936 0.746009 439.984 627.124)" fill="#A22E0B" stroke="#BE3A0D" stroke-width="1.98737"/>
<circle cx="23.3842" cy="23.3842" r="22.3905" transform="matrix(-0.746009 0.665936 0.665936 0.746009 439.383 637.802)" fill="#A22E0B" stroke="#BE3A0D" stroke-width="1.98737"/>
<circle cx="16.1359" cy="16.1359" r="15.1422" transform="matrix(-0.746009 0.665936 0.665936 0.746009 438.801 648.035)" fill="#A22E0B" stroke="#BE3A0D" stroke-width="1.98737"/>
<circle cx="38.5307" cy="38.5307" r="37.537" transform="matrix(-0.746009 0.665936 0.665936 0.746009 498.086 565.097)" fill="#A22E0B" stroke="#BE3A0D" stroke-width="1.98737"/>
<circle cx="30.9468" cy="30.9468" r="29.9532" transform="matrix(-0.746009 0.665936 0.665936 0.746009 497.477 575.806)" fill="#A22E0B" stroke="#BE3A0D" stroke-width="1.98737"/>
<circle cx="23.3842" cy="23.3842" r="22.3905" transform="matrix(-0.746009 0.665936 0.665936 0.746009 496.871 586.482)" fill="#A22E0B" stroke="#BE3A0D" stroke-width="1.98737"/>
<circle cx="16.1359" cy="16.1359" r="15.1422" transform="matrix(-0.746009 0.665936 0.665936 0.746009 496.293 596.717)" fill="#A22E0B" stroke="#BE3A0D" stroke-width="1.98737"/>
<circle cx="38.5307" cy="38.5307" r="37.537" transform="matrix(-0.746009 0.665936 0.665936 0.746009 325.617 719.048)" fill="#A22E0B" stroke="#BE3A0D" stroke-width="1.98737"/>
<circle cx="30.9468" cy="30.9468" r="29.9532" transform="matrix(-0.746009 0.665936 0.665936 0.746009 325.008 729.757)" fill="#A22E0B" stroke="#BE3A0D" stroke-width="1.98737"/>
<circle cx="23.3842" cy="23.3842" r="22.3905" transform="matrix(-0.746009 0.665936 0.665936 0.746009 324.406 740.434)" fill="#A22E0B" stroke="#BE3A0D" stroke-width="1.98737"/>
<circle cx="38.5307" cy="38.5307" r="37.537" transform="matrix(-0.746009 0.665936 0.665936 0.746009 372.668 713.896)" fill="#A22E0B" stroke="#BE3A0D" stroke-width="1.98737"/>
<circle cx="30.9468" cy="30.9468" r="29.9532" transform="matrix(-0.746009 0.665936 0.665936 0.746009 372.059 724.604)" fill="#A22E0B" stroke="#BE3A0D" stroke-width="1.98737"/>
<circle cx="23.3842" cy="23.3842" r="22.3905" transform="matrix(-0.746009 0.665936 0.665936 0.746009 371.457 735.282)" fill="#A22E0B" stroke="#BE3A0D" stroke-width="1.98737"/>
<circle cx="38.5307" cy="38.5307" r="37.537" transform="matrix(-0.746009 0.665936 0.665936 0.746009 430.156 662.579)" fill="#A22E0B" stroke="#BE3A0D" stroke-width="1.98737"/>
<circle cx="30.9468" cy="30.9468" r="29.9532" transform="matrix(-0.746009 0.665936 0.665936 0.746009 429.547 673.287)" fill="#A22E0B" stroke="#BE3A0D" stroke-width="1.98737"/>
<circle cx="23.3842" cy="23.3842" r="22.3905" transform="matrix(-0.746009 0.665936 0.665936 0.746009 428.941 683.966)" fill="#A22E0B" stroke="#BE3A0D" stroke-width="1.98737"/>
<circle cx="16.1359" cy="16.1359" r="15.1422" transform="matrix(-0.746009 0.665936 0.665936 0.746009 428.363 694.199)" fill="#A22E0B" stroke="#BE3A0D" stroke-width="1.98737"/>
<circle cx="38.5307" cy="38.5307" r="37.537" transform="matrix(-0.746009 0.665936 0.665936 0.746009 487.645 611.26)" fill="#A22E0B" stroke="#BE3A0D" stroke-width="1.98737"/>
<circle cx="30.9468" cy="30.9468" r="29.9532" transform="matrix(-0.746009 0.665936 0.665936 0.746009 487.035 621.969)" fill="#A22E0B" stroke="#BE3A0D" stroke-width="1.98737"/>
<circle cx="23.3842" cy="23.3842" r="22.3905" transform="matrix(-0.746009 0.665936 0.665936 0.746009 486.43 632.646)" fill="#A22E0B" stroke="#BE3A0D" stroke-width="1.98737"/>
<circle cx="16.1359" cy="16.1359" r="15.1422" transform="matrix(-0.746009 0.665936 0.665936 0.746009 485.852 642.88)" fill="#A22E0B" stroke="#BE3A0D" stroke-width="1.98737"/>
<circle cx="38.5307" cy="38.5307" r="37.537" transform="matrix(-0.746009 0.665936 0.665936 0.746009 417.926 706.733)" fill="#A22E0B" stroke="#BE3A0D" stroke-width="1.98737"/>
<circle cx="30.9468" cy="30.9468" r="29.9532" transform="matrix(-0.746009 0.665936 0.665936 0.746009 417.32 717.441)" fill="#A22E0B" stroke="#BE3A0D" stroke-width="1.98737"/>
<circle cx="23.3842" cy="23.3842" r="22.3905" transform="matrix(-0.746009 0.665936 0.665936 0.746009 416.715 728.118)" fill="#A22E0B" stroke="#BE3A0D" stroke-width="1.98737"/>
<circle cx="16.1359" cy="16.1359" r="15.1422" transform="matrix(-0.746009 0.665936 0.665936 0.746009 416.133 738.354)" fill="#A22E0B" stroke="#BE3A0D" stroke-width="1.98737"/>
<circle cx="38.5307" cy="38.5307" r="37.537" transform="matrix(-0.746009 0.665936 0.665936 0.746009 470.395 649.798)" fill="#A22E0B" stroke="#BE3A0D" stroke-width="1.98737"/>
<circle cx="30.9468" cy="30.9468" r="29.9532" transform="matrix(-0.746009 0.665936 0.665936 0.746009 469.785 660.506)" fill="#A22E0B" stroke="#BE3A0D" stroke-width="1.98737"/>
<circle cx="23.3842" cy="23.3842" r="22.3905" transform="matrix(-0.746009 0.665936 0.665936 0.746009 469.18 671.184)" fill="#A22E0B" stroke="#BE3A0D" stroke-width="1.98737"/>
<circle cx="16.1359" cy="16.1359" r="15.1422" transform="matrix(-0.746009 0.665936 0.665936 0.746009 468.602 681.418)" fill="#A22E0B" stroke="#BE3A0D" stroke-width="1.98737"/>
<circle cx="38.5307" cy="38.5307" r="37.537" transform="matrix(-0.746009 0.665936 0.665936 0.746009 528.77 599.465)" fill="#A22E0B" stroke="#BE3A0D" stroke-width="1.98737"/>
<circle cx="30.9468" cy="30.9468" r="29.9532" transform="matrix(-0.746009 0.665936 0.665936 0.746009 528.16 610.173)" fill="#A22E0B" stroke="#BE3A0D" stroke-width="1.98737"/>
<circle cx="23.3842" cy="23.3842" r="22.3905" transform="matrix(-0.746009 0.665936 0.665936 0.746009 527.555 620.852)" fill="#A22E0B" stroke="#BE3A0D" stroke-width="1.98737"/>
<circle cx="16.1359" cy="16.1359" r="15.1422" transform="matrix(-0.746009 0.665936 0.665936 0.746009 526.977 631.085)" fill="#A22E0B" stroke="#BE3A0D" stroke-width="1.98737"/>
<circle cx="38.5307" cy="38.5307" r="37.537" transform="matrix(-0.746009 0.665936 0.665936 0.746009 517.238 644.414)" fill="#A22E0B" stroke="#BE3A0D" stroke-width="1.98737"/>
<circle cx="30.9468" cy="30.9468" r="29.9532" transform="matrix(-0.746009 0.665936 0.665936 0.746009 516.633 655.121)" fill="#A22E0B" stroke="#BE3A0D" stroke-width="1.98737"/>
<circle cx="23.3842" cy="23.3842" r="22.3905" transform="matrix(-0.746009 0.665936 0.665936 0.746009 516.027 665.8)" fill="#A22E0B" stroke="#BE3A0D" stroke-width="1.98737"/>
<circle cx="16.1359" cy="16.1359" r="15.1422" transform="matrix(-0.746009 0.665936 0.665936 0.746009 515.445 676.033)" fill="#A22E0B" stroke="#BE3A0D" stroke-width="1.98737"/>
<circle cx="38.5307" cy="38.5307" r="37.537" transform="matrix(-0.746009 0.665936 0.665936 0.746009 459.75 695.732)" fill="#A22E0B" stroke="#BE3A0D" stroke-width="1.98737"/>
<circle cx="30.9468" cy="30.9468" r="29.9532" transform="matrix(-0.746009 0.665936 0.665936 0.746009 459.141 706.44)" fill="#A22E0B" stroke="#BE3A0D" stroke-width="1.98737"/>
<circle cx="23.3842" cy="23.3842" r="22.3905" transform="matrix(-0.746009 0.665936 0.665936 0.746009 458.535 717.119)" fill="#A22E0B" stroke="#BE3A0D" stroke-width="1.98737"/>
<circle cx="16.1359" cy="16.1359" r="15.1422" transform="matrix(-0.746009 0.665936 0.665936 0.746009 457.957 727.353)" fill="#A22E0B" stroke="#BE3A0D" stroke-width="1.98737"/>
<circle cx="38.5307" cy="38.5307" r="37.537" transform="matrix(-0.746009 0.665936 0.665936 0.746009 506.801 690.58)" fill="#A22E0B" stroke="#BE3A0D" stroke-width="1.98737"/>
<circle cx="30.9468" cy="30.9468" r="29.9532" transform="matrix(-0.746009 0.665936 0.665936 0.746009 506.191 701.287)" fill="#A22E0B" stroke="#BE3A0D" stroke-width="1.98737"/>
<circle cx="23.3842" cy="23.3842" r="22.3905" transform="matrix(-0.746009 0.665936 0.665936 0.746009 505.59 711.965)" fill="#A22E0B" stroke="#BE3A0D" stroke-width="1.98737"/>
<circle cx="16.1359" cy="16.1359" r="15.1422" transform="matrix(-0.746009 0.665936 0.665936 0.746009 505.008 722.2)" fill="#A22E0B" stroke="#BE3A0D" stroke-width="1.98737"/>
<circle cx="38.5307" cy="38.5307" r="37.537" transform="matrix(-0.746009 0.665936 0.665936 0.746009 449.312 741.898)" fill="#A22E0B" stroke="#BE3A0D" stroke-width="1.98737"/>
<circle cx="38.5307" cy="38.5307" r="37.537" transform="matrix(-0.746009 0.665936 0.665936 0.746009 564.289 639.263)" fill="#A22E0B" stroke="#BE3A0D" stroke-width="1.98737"/>
<circle cx="30.9468" cy="30.9468" r="29.9532" transform="matrix(-0.746009 0.665936 0.665936 0.746009 563.68 649.971)" fill="#A22E0B" stroke="#BE3A0D" stroke-width="1.98737"/>
<circle cx="23.3842" cy="23.3842" r="22.3905" transform="matrix(-0.746009 0.665936 0.665936 0.746009 563.074 660.648)" fill="#A22E0B" stroke="#BE3A0D" stroke-width="1.98737"/>
<circle cx="16.1359" cy="16.1359" r="15.1422" transform="matrix(-0.746009 0.665936 0.665936 0.746009 562.496 670.882)" fill="#A22E0B" stroke="#BE3A0D" stroke-width="1.98737"/>
<circle cx="38.5307" cy="38.5307" r="37.537" transform="matrix(-0.746009 0.665936 0.665936 0.746009 552.055 683.417)" fill="#A22E0B" stroke="#BE3A0D" stroke-width="1.98737"/>
<circle cx="30.9468" cy="30.9468" r="29.9532" transform="matrix(-0.746009 0.665936 0.665936 0.746009 551.445 694.125)" fill="#A22E0B" stroke="#BE3A0D" stroke-width="1.98737"/>
<circle cx="23.3842" cy="23.3842" r="22.3905" transform="matrix(-0.746009 0.665936 0.665936 0.746009 550.84 704.802)" fill="#A22E0B" stroke="#BE3A0D" stroke-width="1.98737"/>
<circle cx="16.1359" cy="16.1359" r="15.1422" transform="matrix(-0.746009 0.665936 0.665936 0.746009 550.262 715.036)" fill="#A22E0B" stroke="#BE3A0D" stroke-width="1.98737"/>
<circle cx="38.5307" cy="38.5307" r="37.537" transform="matrix(-0.746009 0.665936 0.665936 0.746009 494.566 734.734)" fill="#A22E0B" stroke="#BE3A0D" stroke-width="1.98737"/>
<circle cx="38.5307" cy="38.5307" r="37.537" transform="matrix(-0.746009 0.665936 0.665936 0.746009 539.812 727.562)" fill="#A22E0B" stroke="#BE3A0D" stroke-width="1.98737"/>
<circle cx="30.9468" cy="30.9468" r="29.9532" transform="matrix(-0.746009 0.665936 0.665936 0.746009 539.203 738.271)" fill="#A22E0B" stroke="#BE3A0D" stroke-width="1.98737"/>
<circle cx="38.5307" cy="38.5307" r="37.537" transform="matrix(-0.746009 0.665936 0.665936 0.746009 597.301 676.247)" fill="#A22E0B" stroke="#BE3A0D" stroke-width="1.98737"/>
<circle cx="30.9468" cy="30.9468" r="29.9532" transform="matrix(-0.746009 0.665936 0.665936 0.746009 596.691 686.955)" fill="#A22E0B" stroke="#BE3A0D" stroke-width="1.98737"/>
<circle cx="23.3842" cy="23.3842" r="22.3905" transform="matrix(-0.746009 0.665936 0.665936 0.746009 596.09 697.631)" fill="#A22E0B" stroke="#BE3A0D" stroke-width="1.98737"/>
<circle cx="16.1359" cy="16.1359" r="15.1422" transform="matrix(-0.746009 0.665936 0.665936 0.746009 595.508 707.867)" fill="#A22E0B" stroke="#BE3A0D" stroke-width="1.98737"/>
<circle cx="38.5307" cy="38.5307" r="37.537" transform="matrix(-0.746009 0.665936 0.665936 0.746009 586.863 722.414)" fill="#A22E0B" stroke="#BE3A0D" stroke-width="1.98737"/>
<circle cx="30.9468" cy="30.9468" r="29.9532" transform="matrix(-0.746009 0.665936 0.665936 0.746009 586.254 733.122)" fill="#A22E0B" stroke="#BE3A0D" stroke-width="1.98737"/>
<circle cx="38.5307" cy="38.5307" r="37.537" transform="matrix(-0.746009 0.665936 0.665936 0.746009 632.121 715.245)" fill="#A22E0B" stroke="#BE3A0D" stroke-width="1.98737"/>
<circle cx="30.9468" cy="30.9468" r="29.9532" transform="matrix(-0.746009 0.665936 0.665936 0.746009 631.512 725.953)" fill="#A22E0B" stroke="#BE3A0D" stroke-width="1.98737"/>
<circle cx="23.3842" cy="23.3842" r="22.3905" transform="matrix(-0.746009 0.665936 0.665936 0.746009 630.906 736.632)" fill="#A22E0B" stroke="#BE3A0D" stroke-width="1.98737"/>
</g>
</g>
</g>
<defs>
<linearGradient id="paint0_linear_1087_22788" x1="448.87" y1="-6.7312e-07" x2="457.323" y2="539.733" gradientUnits="userSpaceOnUse">
<stop stop-color="#D9D9D9"/>
<stop offset="1" stop-color="#737373" stop-opacity="0"/>
</linearGradient>
<clipPath id="clip0_1087_22788">
<rect width="699" height="743" fill="white" transform="translate(0.949219)"/>
</clipPath>
<clipPath id="clip1_1087_22788">
<rect width="699" height="743" fill="white" transform="translate(0.949219 36)"/>
</clipPath>
</defs>
</svg>
