<svg width="516" height="328" viewBox="0 0 516 328" fill="none" xmlns="http://www.w3.org/2000/svg">
<g clip-path="url(#clip0_1115_14445)">
<mask id="mask0_1115_14445" style="mask-type:alpha" maskUnits="userSpaceOnUse" x="373" y="164" width="125" height="90">
<path fill-rule="evenodd" clip-rule="evenodd" d="M404.334 165.35C402.879 165.529 401.657 165.687 400.844 165.795L400.564 165.484L400.11 165.893C399.886 165.923 399.765 165.94 399.765 165.94C399.449 166.151 398.922 166.783 398.711 167.099L398.621 167.234L393.762 171.611L394.879 172.85L383.221 190.342C378.132 189.694 374.368 189.257 374.159 189.396C373.593 189.679 375.212 201.768 375.423 203.243C375.577 204.318 384.341 206.064 389.253 207.096L388.744 215.309C387.643 213.626 386.598 212.853 385.946 212.628C382.507 212.029 379.424 212.268 378.356 212.628L378.338 212.633C376.92 213.111 375.407 213.62 373.612 216.102C372.426 220.055 372.307 243.057 379.423 242.818H379.687C384.645 242.817 388.101 242.807 389.267 242.218C389.86 241.619 393.774 240.541 392.588 227.363C392.575 227.271 392.561 227.179 392.547 227.088L396.818 226.223C396.901 226.465 396.97 226.628 397.025 226.7C397.305 227.059 405.915 228.565 416.817 230.134C417.492 234.768 418.977 238.428 421.805 238.489L422.068 238.503C427.019 238.777 431.025 237.761 432.221 237.237C432.655 236.845 434.429 236.887 435.323 232.539C435.695 232.582 436.067 232.624 436.437 232.666C435.738 236.026 435.721 239.238 435.92 243.961C436.974 252.075 442.559 254.288 448.46 252.496C450.883 252.065 452.886 251.759 454.678 251.021C457.657 249.312 458.508 244.16 458.333 238.916L462.117 233.551C467.165 233.028 473.316 232.292 477.576 231.755C477.208 233.558 477.132 235.335 476.951 237.707C476.845 245.41 479.326 249.504 485.066 248.626C487.382 248.549 490.465 248.406 492.233 247.959C498.718 245.384 498.121 226.554 496.243 224.279C494.488 222.549 489.464 220.859 488.281 220.722C487.213 220.285 486.292 220.161 485.492 220.254C485.977 218.072 486.489 215.71 486.999 213.317L487.578 210.587C487.77 209.679 487.96 208.773 488.146 207.88C488.544 205.974 488.927 204.121 489.28 202.4C489.567 200.999 490.284 196.773 489.28 196.772L471.422 190.941L471.4 190.923C470.415 190.069 459.971 174.832 451.084 166.572C446.026 165.624 428.744 164.359 418.312 164.043C415.182 164.147 410.608 164.613 406.785 165.057L405.833 164L404.334 165.35ZM394.086 214.54C394.523 216.55 394.998 218.743 395.44 220.709L393.443 220.82L394.086 214.54Z" fill="#D4D4D4"/>
</mask>
<g mask="url(#mask0_1115_14445)">
<path d="M429.984 208.706C431.455 209.307 434.858 212.935 435.802 223.785C436.259 237.009 432.847 236.673 432.221 237.238C431.025 237.761 427.019 238.778 422.068 238.504C423.158 238.496 427.188 237.802 427.702 228.497C427.969 215.074 423.931 208.611 422.405 208.287C423.491 207.987 426.583 207.918 429.984 208.706Z" fill="#1C1A1A"/>
<path d="M422.405 208.287C423.931 208.611 427.969 215.074 427.702 228.497C427.188 237.802 423.158 238.496 422.068 238.504L421.805 238.49C414.686 238.336 416.074 215.376 417.477 211.494C419.406 209.115 420.945 208.69 422.387 208.292L422.405 208.287Z" fill="#312B2B"/>
<path d="M480.219 225.167C481.427 223.737 483.17 218.628 488.282 220.721C492.436 222.5 492.787 245.126 485.067 248.626C479.327 249.503 476.846 245.409 476.952 237.706C477.324 232.814 477.252 230.453 480.219 225.167Z" fill="#1C1A1A"/>
<path d="M485.067 248.626C492.787 245.126 492.436 222.5 488.282 220.721C489.465 220.858 494.489 222.549 496.244 224.279C498.122 226.554 498.719 245.384 492.234 247.959C490.466 248.406 487.383 248.549 485.067 248.626Z" fill="#312B2B"/>
<mask id="mask1_1115_14445" style="mask-type:alpha" maskUnits="userSpaceOnUse" x="480" y="227" width="7" height="16">
<path d="M486.062 232.321C486.084 225.798 483.509 226.549 482.717 228.225C481.853 230.052 481.108 233.673 480.894 236.911C480.68 240.149 480.773 242.843 483.444 242.249C485.197 241.86 486.05 235.681 486.062 232.321Z" fill="#D4D4D4"/>
</mask>
<g mask="url(#mask1_1115_14445)">
<path d="M487.998 232.406C487.535 224.854 482.929 225.525 481.624 227.405C480.2 229.454 479.129 233.59 478.991 237.323C478.853 241.056 479.229 244.183 484.021 243.701C487.166 243.385 488.236 236.296 487.998 232.406Z" fill="#110A0A"/>
<path d="M486.501 235.039C486.38 232.08 484.777 232.368 484.314 233.112C483.809 233.923 483.415 235.551 483.347 237.015C483.28 238.48 483.394 239.705 485.06 239.49C486.154 239.35 486.563 236.564 486.501 235.039Z" fill="#464646"/>
</g>
<path d="M477.276 227.396L485.074 233.613C485.074 235.467 484.793 237.406 484.653 238.144L473.588 228.028L477.276 227.396Z" fill="#464646"/>
<path d="M463.203 232.012L456.143 242.022L450.663 236.753L454.878 230.642L463.203 232.012Z" fill="#464646"/>
<path d="M384.066 228.807L400.189 225.54L401.453 220.377L393.444 220.82L395.974 196.14L389.967 195.613L388.386 221.099L380.483 221.536L384.066 228.807Z" fill="#464646"/>
<mask id="mask2_1115_14445" style="mask-type:alpha" maskUnits="userSpaceOnUse" x="392" y="166" width="82" height="50">
<path d="M449.821 166.739L473.531 196.14L425.268 215.107L397.87 201.725L392.918 181.176L401.032 166.739H449.821Z" fill="url(#paint0_linear_1115_14445)"/>
</mask>
<g mask="url(#mask2_1115_14445)">
<path d="M449.821 166.739L473.531 196.14L425.268 215.107L397.87 201.725L392.918 181.176L401.032 166.739H449.821Z" fill="url(#paint1_linear_1115_14445)"/>
<rect opacity="0.2" width="9.15419" height="55.1706" transform="matrix(-0.74298 0.669313 0.669313 0.74298 400.562 165.484)" fill="url(#paint2_linear_1115_14445)"/>
<rect opacity="0.2" width="2.17945" height="55.1706" transform="matrix(-0.74298 0.669313 0.669313 0.74298 405.832 164)" fill="url(#paint3_linear_1115_14445)"/>
</g>
<path d="M446.025 194.392C445.499 194.813 445.499 195.192 445.499 195.508C442.759 188.447 437.911 175.591 435.382 170.892C435.382 170.471 435.593 169.944 435.804 169.496C436.9 170.487 443.075 186.33 446.025 194.392Z" fill="#FF6831"/>
<path d="M451.084 166.572C460.041 174.897 470.578 190.308 471.421 190.941C471.389 190.959 471.356 190.977 471.323 190.995C470.827 191.269 470.302 191.56 469.314 191.757C465.183 183.517 453.683 171.619 448.976 166.888C449.614 166.774 450.53 166.655 451.084 166.572Z" fill="#FF9D60"/>
<path d="M448.976 166.888C453.683 171.619 465.183 183.517 469.314 191.757C469.166 191.787 469.025 191.814 468.893 191.84L468.892 191.84C468.459 191.924 468.107 191.993 467.839 192.073C464.972 185.143 453.683 172.774 448.66 167.731L448.976 166.888Z" fill="#FF6831"/>
<path d="M437.911 168.917C441.602 167.937 445.799 167.455 448.976 166.888L448.66 167.731C445.288 168.258 438.298 169.712 438.438 170.049C438.243 169.58 438.088 169.342 437.911 168.917Z" fill="#FF6831"/>
<path d="M469.946 205.772C470.016 207.107 469.735 209.987 469.314 210.936C468.709 212.298 459.514 208.828 457.933 206.932C457.69 206.64 457.933 204.724 458.249 203.776C458.565 202.828 469.208 205.035 469.946 205.772Z" fill="url(#paint4_linear_1115_14445)"/>
<path d="M418.311 164.043C428.744 164.359 446.025 165.624 451.084 166.572C450.53 166.655 449.614 166.774 448.976 166.888C445.799 167.455 441.602 167.937 437.911 168.917C437.19 169.109 436.484 169.303 435.804 169.496C424.423 167.52 399.765 165.94 399.765 165.94C399.765 165.94 411.989 164.254 418.311 164.043Z" fill="#FF9D60"/>
<path d="M398.711 167.099C398.922 166.783 399.449 166.151 399.765 165.94C399.765 165.94 424.423 167.52 435.804 169.496C435.593 169.944 435.382 170.471 435.382 170.892C428.184 169.374 409.044 168.033 401.662 167.31C401.361 167.28 400.974 167.229 400.713 167.204C399.721 167.111 399.025 167.113 398.711 167.099Z" fill="#FF6831"/>
<path d="M411.146 203.243C409.986 203.138 406.93 193.97 406.509 193.338L407.668 193.654C408.897 196.857 411.504 203.273 412.094 203.314C411.582 203.278 411.252 203.253 411.146 203.243Z" fill="#FF6831"/>
<path d="M398.711 167.099C399.025 167.113 399.721 167.111 400.713 167.204C399.203 170.311 396.498 176.204 396.077 178.058L397.868 192.252C392.952 191.614 387.596 190.9 383.221 190.342L398.711 167.099Z" fill="#BD4732"/>
<path d="M396.077 178.058C396.498 176.204 399.203 170.311 400.713 167.204C400.974 167.229 401.361 167.28 401.662 167.31C399.94 171.021 396.814 177.721 396.814 178.058L398.711 192.362C398.432 192.325 398.151 192.289 397.868 192.252L396.077 178.058Z" fill="#FF6831"/>
<path d="M484.91 204.824L489.28 202.4C488.927 204.121 488.544 205.974 488.146 207.88C487.243 208.899 485.331 210.746 484.91 209.987C484.488 209.229 484.734 206.229 484.91 204.824Z" fill="url(#paint5_linear_1115_14445)"/>
<path d="M478.482 216.056L486.999 213.317C486.378 216.227 485.755 219.092 485.182 221.641C483.365 223.96 479.325 227.332 478.482 227.542C477.807 227.711 467.803 222.976 462.886 220.588C462.921 218.41 463.097 214.033 463.518 213.949C463.94 213.865 473.669 215.319 478.482 216.056Z" fill="url(#paint6_linear_1115_14445)"/>
<path fill-rule="evenodd" clip-rule="evenodd" d="M454.036 226.251L454.035 226.253C454.009 226.515 453.983 226.774 453.958 227.029C453.983 226.774 454.009 226.514 454.036 226.251Z" fill="#BD4732"/>
<path fill-rule="evenodd" clip-rule="evenodd" d="M469.314 210.936C469.735 209.987 470.016 207.107 469.946 205.772C469.208 205.035 458.565 202.828 458.249 203.776C457.933 204.724 457.69 206.64 457.933 206.932C459.514 208.828 468.709 212.298 469.314 210.936Z" fill="url(#paint7_linear_1115_14445)"/>
<path d="M445.499 195.508C445.92 195.845 452.805 199.801 456.142 201.241C456.16 205.042 454.885 217.774 454.036 226.251L454.035 226.253L453.958 227.029C453.575 230.851 453.296 233.66 453.296 234.119C435.242 233.311 397.615 227.458 397.025 226.699C396.287 225.751 392.915 208.301 392.494 207.88C392.072 207.458 375.633 204.719 375.423 203.243C375.212 201.768 373.593 189.679 374.158 189.396C374.367 189.256 378.132 189.694 383.221 190.342C387.596 190.9 392.952 191.614 397.868 192.252C398.151 192.289 398.432 192.325 398.711 192.362C401.591 192.734 404.289 193.076 406.509 193.338C406.93 193.97 409.986 203.138 411.146 203.243C411.252 203.253 411.582 203.278 412.094 203.314C417.183 203.676 440.268 205.207 440.651 204.824C440.988 204.487 444.199 198.318 445.499 195.508Z" fill="#BD4732"/>
<path d="M446.025 194.392C443.075 186.33 436.9 170.487 435.804 169.496C436.484 169.303 437.19 169.109 437.911 168.917C438.088 169.342 438.243 169.58 438.438 170.049C441.851 178.255 447.996 192.658 448.554 194.392C448.226 194.392 447.908 194.387 447.603 194.382C447.028 194.373 446.498 194.364 446.025 194.392Z" fill="#FF9D60"/>
<path d="M456.142 201.241C452.805 199.801 445.92 195.845 445.499 195.508C445.499 195.192 445.499 194.813 446.025 194.392L458.249 201.352C457.259 201.283 456.52 201.241 456.142 201.241Z" fill="#FF6831"/>
<path d="M489.28 196.772C486.069 198.669 483.645 199.828 479.746 200.987L458.249 201.352L446.025 194.392C446.498 194.364 447.028 194.373 447.603 194.382C447.908 194.387 448.226 194.392 448.554 194.392C454.561 194.076 462.57 193.654 467.839 192.073C468.107 191.993 468.459 191.924 468.892 191.84L468.893 191.84C469.025 191.814 469.166 191.787 469.314 191.757C470.302 191.56 470.827 191.269 471.323 190.995C471.356 190.977 471.389 190.959 471.421 190.941L489.28 196.772Z" fill="#FF9D60"/>
<path fill-rule="evenodd" clip-rule="evenodd" d="M482.697 231.063C481.854 231.274 454.139 234.751 453.296 234.119C453.296 233.66 453.575 230.851 453.958 227.029L454.035 226.253L454.036 226.251C454.885 217.774 456.16 205.042 456.142 201.241C456.52 201.241 457.259 201.283 458.249 201.352L479.746 200.987C483.645 199.828 486.069 198.669 489.28 196.772C490.284 196.772 489.567 200.999 489.28 202.4L484.91 204.824C484.734 206.229 484.488 209.229 484.91 209.987C485.331 210.746 487.243 208.899 488.146 207.88C487.773 209.667 487.386 211.501 486.999 213.317L478.482 216.056C473.669 215.319 463.94 213.865 463.518 213.949C463.097 214.033 462.921 218.41 462.886 220.588C467.803 222.976 477.807 227.711 478.482 227.542C479.325 227.332 483.365 223.96 485.182 221.641C483.973 227.015 482.985 230.991 482.697 231.063ZM469.314 210.936C469.735 209.987 470.016 207.107 469.946 205.772C469.208 205.035 458.565 202.828 458.249 203.776C457.933 204.724 457.69 206.64 457.933 206.932C459.514 208.828 468.709 212.298 469.314 210.936Z" fill="#FF6831"/>
<path d="M385.945 212.628C387.447 213.147 391.044 216.581 392.586 227.363C393.772 240.541 389.858 241.619 389.265 242.218C388.1 242.807 384.644 242.817 379.685 242.817C380.773 242.749 384.759 241.834 384.759 232.514C384.284 219.097 379.896 212.867 378.354 212.628C379.422 212.268 382.505 212.029 385.945 212.628Z" fill="#1C1A1A"/>
<path d="M378.354 212.628C379.896 212.867 384.284 219.097 384.759 232.514C384.759 241.834 380.773 242.749 379.685 242.817L379.422 242.817C372.306 243.057 372.424 220.055 373.61 216.102C375.406 213.62 376.918 213.111 378.337 212.633L378.354 212.628Z" fill="#312B2B"/>
<path d="M375.756 225.454C375.558 221.699 376.996 221.162 377.74 221.362C379.227 222.205 380.219 235.684 378.112 235.444C376.004 235.203 376.004 230.148 375.756 225.454Z" fill="#D4D4D4"/>
<path d="M438.134 227.1C439.187 225.414 441.927 221.247 447.618 222.674C452.254 223.916 456.048 247.649 448.46 252.496C442.559 254.288 436.974 252.075 435.921 243.961C435.618 236.795 435.815 233.107 438.134 227.1Z" fill="#312B2B"/>
<path d="M448.46 252.496C456.048 247.649 452.254 223.916 447.618 222.674C448.882 222.639 453.203 223.967 455.31 225.52C457.628 227.627 461.106 247.333 454.678 251.021C452.886 251.759 450.884 252.065 448.46 252.496Z" fill="#1C1A1A"/>
<path d="M440.034 235.059C440.994 228.476 444.236 229.535 445.015 231.319C445.864 233.264 446.287 237.005 446.075 240.296C445.863 243.588 445.333 246.296 441.941 245.384C439.716 244.785 439.539 238.451 440.034 235.059Z" fill="#D4D4D4"/>
<g style="mix-blend-mode:soft-light" opacity="0.7">
<rect width="138.044" height="89.1492" transform="matrix(-1 0 0 1 505.352 164)" fill="url(#paint8_linear_1115_14445)"/>
</g>
<g style="mix-blend-mode:multiply" opacity="0.7">
<rect width="138.044" height="89.1492" transform="matrix(-1 0 0 1 505.352 164)" fill="url(#paint9_linear_1115_14445)"/>
</g>
</g>
<mask id="mask3_1115_14445" style="mask-type:alpha" maskUnits="userSpaceOnUse" x="149" y="104" width="218" height="225">
<path d="M178.437 118.347C177.216 118.87 175.166 121.036 174.294 122.054C176.838 123.253 182.1 125.303 182.798 123.907C183.67 122.163 183.779 117.802 183.67 117.148C183.583 116.624 183.052 116.203 182.798 116.058C181.853 116.603 179.658 117.824 178.437 118.347Z" fill="#BD5324"/>
<path d="M224.162 244.861C223.639 243.029 212.387 217.931 206.827 205.612L227.869 199.506C228.814 202.632 233.801 209.493 233.539 217.168C233.277 224.844 235.683 243.225 236.483 250.53C231.686 264.158 229.287 283.674 229.178 286.508C229.069 289.343 227.761 311.802 226.125 311.802C225.471 312.02 213.151 313.547 212.388 312.892C211.733 312.892 211.624 311.257 211.733 310.385C208.681 311.257 206.937 311.257 206.174 310.712C208.136 305.806 216.967 291.851 218.929 285.418C219.902 282.228 224.816 247.15 224.162 244.861Z" fill="url(#paint10_linear_1115_14445)"/>
<path d="M292.195 291.632C293.721 288.58 299.608 254.346 298.627 251.293C298.199 249.96 290.271 235.608 285.653 226.217C279.693 214.098 277.791 207.271 276.931 201.251C286.162 199.361 304.514 196.301 304.078 199.179C303.642 202.057 310.947 240.5 310.947 254.128C306.15 269.936 302.77 281.711 302.77 291.632C302.77 301.554 304.296 308.858 302.77 310.494C301.244 312.129 292.195 313.001 290.777 312.674C290.341 311.584 290.45 311.584 290.45 310.167C287.943 311.584 284.072 311.584 284.345 310.494C285.108 307.441 290.668 294.685 292.195 291.632Z" fill="url(#paint11_linear_1115_14445)"/>
<path d="M340.275 196.781C337.571 178.726 327.155 168.979 322.285 166.363C319.415 166.363 314.632 167.475 320.65 170.178C326.668 172.882 332.316 182.825 333.297 195.69C334.578 212.48 335.442 224.691 337.113 232.759C342.237 257.508 358.409 259.543 363.497 260.451C356.607 258.358 351.613 250.312 348.67 241.481C354.339 248.895 356.41 249.912 359.027 250.639C354.23 248.982 350.777 240.572 348.124 235.812C354.993 243.443 362.625 244.97 366.223 244.97C349.978 239.211 343.654 219.349 340.275 196.781Z" fill="url(#paint12_linear_1115_14445)"/>
<path d="M171.613 120.899C178.59 120.463 182.334 121.59 185.895 122.753C189.929 120.245 191.368 121.531 196.688 120.136C197.016 120.172 197.67 120.485 197.67 121.444C196.87 124.969 194.355 132.303 190.692 133.437C191.564 138.888 192.327 149.137 192.873 152.843C194.29 157.423 194.508 171.814 216.858 169.197C220.347 167.453 220.783 165.163 231.14 152.843C241.498 140.524 252.182 140.088 257.852 141.287C263.521 142.486 263.085 145.43 268.536 141.287C273.987 137.144 292.085 130.166 298.082 135.836C302.879 140.371 308.294 147.828 310.402 150.99C318.688 158.229 322.358 163.455 323.158 165.163C328.609 177.483 326.428 200.16 326.428 217.822C326.428 231.952 332.861 255.327 335.368 264.921C330.68 295.994 331.226 308.531 331.444 311.148C331.662 313.765 333.951 322.814 332.97 324.776C331.989 326.739 324.248 328.374 323.049 328.047C322.176 326.957 321.849 325.212 321.413 324.013C320.105 325.539 319.233 326.302 318.033 327.175C316.507 327.72 314.218 328.047 312.8 327.175C313.345 324.122 316.834 313.219 320.214 300.791C321.001 297.896 324.466 269.936 322.285 264.921C320.105 259.906 308.221 242.789 304.514 236.902C301.549 232.192 294.738 215.715 292.413 208.337C290.087 207.865 285.893 206.702 279.439 207.138C272.984 207.574 259.451 209.355 253.491 210.736C253.491 212.829 255.998 247.259 255.998 256.199C250.329 284.437 250.329 298.719 250.765 300.791C251.201 302.862 253.382 322.814 252.509 324.013C251.637 325.212 244.878 329.137 243.569 328.156C242.523 327.371 242.116 324.703 241.171 323.468C240.844 324.122 238.663 326.302 237.9 326.739C237.137 327.175 233.7 327.402 232.449 327.175C231.249 326.957 230.995 326.375 230.813 326.302C230.813 324.733 236.648 308.422 239.644 297.847C241.127 292.614 241.825 273.752 241.934 251.838C237.9 240.718 227.252 217.205 223.4 210.736C190.256 210.736 179.899 184.788 177.827 177.156C176.344 174.103 175.61 156.623 175.429 148.264C175.254 144.601 174.556 143.758 174.229 143.794C170.741 143.533 162.6 144.776 158.966 145.43C157.047 145.168 154.75 143.754 153.842 143.08C153.12 143.38 152.613 143.576 152.533 143.576C152.272 143.576 150.898 143.653 150.135 143.576C149.262 143.489 148.717 140.088 149.153 137.035C153.187 132.565 160.165 128.858 163.981 127.659C166.052 124.933 170.195 121.771 171.613 120.899Z" fill="url(#paint13_linear_1115_14445)"/>
<path fill-rule="evenodd" clip-rule="evenodd" d="M324.504 172.429C325.812 173.163 332.744 165.426 332.614 160.949L310.075 137.315C306.706 139.189 310.711 136.218 300.816 138.285C306.788 144.491 318.402 158.762 317.08 166.2C316.714 157.209 305.752 144.331 295.7 142.725C285.648 141.119 300.349 168.202 308.956 181.943C308.764 181.722 308.573 181.5 308.381 181.278C300.703 172.391 292.847 163.298 289.251 156.262C289.04 149.165 287.697 144.905 287.268 148.937C287.053 150.951 287.81 153.441 289.251 156.262C289.509 164.923 288.083 177.809 281.26 185.016C287.678 176.138 287.656 156.498 283.863 150.088C280.07 143.677 269.782 159.516 264.89 175.549C265.543 169.968 267.835 155.76 275.266 149.632C280.422 145.38 275.671 148.105 269.628 151.571C266.963 153.1 264.047 154.773 261.618 156.055L283.28 140.87C277.435 137.889 276.693 138.04 274.914 138.403C273.804 138.63 274.624 139.973 271.212 139.654C263.692 138.952 262.419 144.878 258.902 146.55C259.043 147.471 259.163 148.262 259.172 148.818C259.198 150.564 258.046 152.81 257.08 154.692C256.327 156.159 255.687 157.405 255.811 158.018C255.939 158.655 256.597 159.53 257.313 160.483C258.169 161.622 259.108 162.872 259.328 163.959C259.557 165.096 258.331 166.458 256.97 167.972C255.937 169.119 254.827 170.354 254.212 171.643C253.253 173.654 254.704 174.614 257.554 176.499C258.941 177.417 260.659 178.554 262.591 180.137C265.706 182.691 267.479 184.588 268.739 185.938C269.866 187.145 270.583 187.913 271.486 188.32C272.319 188.695 273.415 188.741 274.506 188.787C275.92 188.846 277.326 188.905 278.137 189.68C279.573 191.053 282.841 192.888 289.008 191.852C289.946 191.695 290.773 191.55 291.514 191.42C295.639 190.698 297.078 190.446 300.15 191.06C301.877 191.405 303.383 190.001 305.342 188.174C307.495 186.167 310.196 183.649 314.339 182.378C318.937 180.968 316.924 178.786 315.303 177.029C314.134 175.762 313.169 174.716 315.036 174.339C318.549 173.63 319.165 171.955 319.87 170.036C320.059 169.521 320.255 168.989 320.514 168.453C321.245 166.946 321.94 168.314 322.727 169.863C323.263 170.918 323.842 172.057 324.504 172.429Z" fill="url(#paint14_linear_1115_14445)"/>
<path d="M300.816 138.285C292.342 140.055 288.149 143.39 284.207 141.347C283.884 141.18 283.576 141.021 283.28 140.87L261.618 156.055C264.047 154.773 266.963 153.1 269.628 151.571C275.671 148.105 280.422 145.38 275.266 149.632C267.835 155.76 265.543 169.968 264.89 175.549C269.782 159.516 280.07 143.677 283.863 150.088C287.656 156.498 287.678 176.138 281.26 185.016C288.083 177.809 289.509 164.923 289.251 156.262C287.81 153.441 287.053 150.951 287.268 148.937C287.697 144.905 289.04 149.165 289.251 156.262C292.847 163.298 300.703 172.391 308.381 181.278C308.573 181.5 308.764 181.722 308.956 181.943C300.349 168.202 285.648 141.119 295.7 142.725C305.752 144.331 316.714 157.209 317.08 166.2C318.402 158.762 306.788 144.491 300.816 138.285Z" fill="#FFFDD7"/>
<path fill-rule="evenodd" clip-rule="evenodd" d="M222.816 172.429C221.509 173.163 214.576 165.426 214.707 160.949L237.246 137.315C240.614 139.189 236.61 136.218 246.504 138.285C240.532 144.491 228.919 158.762 230.241 166.2C230.607 157.209 241.568 144.331 251.62 142.725C261.672 141.119 246.971 168.202 238.365 181.943C238.556 181.722 238.748 181.5 238.939 181.278C246.618 172.391 254.474 163.298 258.069 156.262C258.281 149.165 259.623 144.905 260.053 148.937C260.267 150.951 259.511 153.441 258.069 156.262C257.811 164.923 259.237 177.809 266.06 185.016C259.643 176.138 259.665 156.498 263.457 150.088C267.25 143.677 277.539 159.516 282.431 175.549C281.777 169.968 279.485 155.76 272.055 149.632C266.898 145.38 271.649 148.105 277.692 151.571C280.357 153.1 283.274 154.773 285.703 156.055L264.041 140.87C269.886 137.889 270.627 138.04 272.406 138.403C273.517 138.63 272.696 139.973 276.109 139.654C283.629 138.952 284.902 144.878 288.418 146.55C288.278 147.471 288.157 148.262 288.149 148.818C288.122 150.564 289.275 152.81 290.241 154.692C290.994 156.159 291.633 157.405 291.51 158.018C291.381 158.655 290.723 159.53 290.007 160.483C289.151 161.622 288.212 162.872 287.993 163.959C287.763 165.096 288.989 166.458 290.351 167.972C291.383 169.119 292.494 170.354 293.109 171.643C294.068 173.654 292.616 174.614 289.767 176.499C288.38 177.417 286.662 178.554 284.73 180.137C281.614 182.691 279.842 184.588 278.582 185.938C277.455 187.145 276.737 187.913 275.834 188.32C275.001 188.695 273.905 188.741 272.814 188.787C271.4 188.846 269.995 188.905 269.184 189.68C267.748 191.053 264.48 192.888 258.313 191.852C257.374 191.695 256.547 191.55 255.807 191.42C251.682 190.698 250.242 190.446 247.17 191.06C245.443 191.405 243.938 190.001 241.978 188.174C239.825 186.167 237.125 183.649 232.982 182.378C228.384 180.968 230.396 178.786 232.017 177.029C233.186 175.762 234.152 174.716 232.285 174.339C228.771 173.63 228.156 171.955 227.45 170.036C227.261 169.521 227.066 168.989 226.806 168.453C226.076 166.946 225.381 168.314 224.594 169.863C224.058 170.918 223.478 172.057 222.816 172.429Z" fill="url(#paint15_linear_1115_14445)"/>
<path d="M246.504 138.285C254.978 140.055 259.172 143.39 263.114 141.347C263.436 141.18 263.745 141.021 264.041 140.87L285.703 156.055C283.274 154.773 280.357 153.1 277.692 151.571C271.649 148.105 266.898 145.38 272.055 149.632C279.485 155.76 281.777 169.968 282.431 175.549C277.539 159.516 267.25 143.677 263.457 150.088C259.665 156.498 259.643 176.138 266.06 185.016C259.237 177.809 257.811 164.923 258.069 156.262C259.511 153.441 260.267 150.951 260.053 148.937C259.623 144.905 258.281 149.165 258.069 156.262C254.474 163.298 246.618 172.391 238.939 181.278C238.748 181.5 238.556 181.722 238.365 181.943C246.971 168.202 261.672 141.119 251.62 142.725C241.568 144.331 230.607 157.209 230.241 166.2C228.919 158.762 240.532 144.491 246.504 138.285Z" fill="#FFFDD7"/>
<path d="M223.777 121.951C221.655 120.79 221.664 152.625 223.486 153.923C226.564 156.114 258.499 164.4 258.515 162.659C258.639 148.964 258.709 141.286 258.834 127.591C245.143 125.388 237.468 124.154 223.777 121.951Z" fill="#331C1C"/>
<path d="M258.834 127.591C258.709 141.286 258.639 148.964 258.515 162.659C278.775 159.258 309.51 154.1 314.165 153.318C314.525 153.258 314.767 152.952 314.77 152.587L315.055 121.246C315.055 121.246 280.789 125.113 258.834 127.591Z" fill="#E2903A"/>
<path d="M223.777 121.951C237.468 124.154 245.143 125.388 258.834 127.591C280.789 125.113 315.055 121.246 315.055 121.246L284.444 116.118C284.379 116.108 284.32 116.105 284.255 116.111C282.222 116.307 246.747 119.733 223.777 121.951Z" fill="#FFDDAF"/>
<path d="M331.912 132.037C331.648 136.024 327.888 142.685 330.693 148.723C332.172 151.906 328.008 151.765 326.374 151.047C326.82 152.099 327.163 153.934 326.12 155.473C324.417 157.988 323.146 153.224 321.137 153.305C320.07 153.349 320.528 154.426 321.084 155.73C321.855 157.539 322.811 159.784 320.146 160.319C317.744 160.8 316.052 162.611 314.703 164.054C313.476 165.368 311.531 165.871 310.596 165.297C308.932 164.275 309.113 164.782 306.762 164.78C306.34 164.78 305.869 164.78 305.335 164.773C301.825 164.732 300.143 162.599 299.447 161.159C299.054 160.346 298.276 160.075 297.493 159.803C296.889 159.593 296.283 159.381 295.847 158.92C295.375 158.419 295.033 157.627 294.496 156.382C293.896 154.991 291.804 154.87 290.261 152.123C289.304 150.42 289.682 147.31 288.979 146.282C287.534 144.169 286.798 143.092 287.483 141.46C287.922 140.413 288.633 139.492 289.293 138.636C290.165 137.507 290.949 136.491 290.907 135.449C290.867 134.451 290.437 133.197 290.047 132.055C289.719 131.1 289.419 130.222 289.395 129.638C289.373 129.076 289.822 128.072 290.351 126.889C291.03 125.372 291.84 123.561 291.956 122.01C291.993 121.517 291.986 120.797 291.976 119.959C291.934 116.11 293.087 111.059 297.221 112.85C299.096 113.663 298.74 112.345 299.375 112.317C300.393 112.272 304.504 109.633 307.534 113.182C307.688 113.362 307.848 113.551 308.015 113.749C310.055 116.172 309.68 113.568 314.529 113.318C320.192 113.025 318.153 115.921 322.343 117.902L331.912 132.037Z" fill="url(#paint16_linear_1115_14445)"/>
<path d="M311.465 139.312C308.933 146.915 314.036 156.084 316.904 159.719C310.131 147.059 312.41 140.261 314.397 138.445C318.688 147.297 324.769 148.028 327.272 147.288C319.399 148.421 315.773 134.12 314.945 126.827C318.387 135.77 328.372 138.096 332.935 138.141C321.305 136.003 313.335 122.621 310.804 116.197C311.822 120.313 313.642 129.025 312.779 130.954C311.915 132.883 304.786 136.938 301.33 138.724C308.075 135.932 311.732 133.589 312.717 132.766C311.517 140.293 304.628 145.718 301.333 147.49C305.656 146.211 309.889 141.505 311.465 139.312Z" fill="#85CA24"/>
<path d="M326.732 129.656C323.872 126.988 319.161 126.888 317.352 127.58L316.361 126.684C320.98 124.69 325.2 127.835 326.732 129.656Z" fill="#85CA24"/>
<path d="M305.809 132.795C306.447 129.284 310.482 123.783 312.539 121.718L312.779 120.504C307.369 125.761 305.878 130.888 305.809 132.795Z" fill="#85CA24"/>
<path d="M268.852 146.249C270.563 150.241 276.826 155.713 276.132 162.918C275.766 166.716 279.986 165.067 281.401 163.74C281.324 164.98 281.636 166.986 283.261 168.187C285.917 170.15 285.498 164.805 287.588 164.163C288.698 163.821 288.617 165.092 288.519 166.63C288.382 168.763 288.213 171.411 291.139 170.996C293.776 170.622 296.165 171.867 298.07 172.86C299.804 173.763 301.979 173.576 302.731 172.649C304.068 171 304.066 171.585 306.476 170.734C306.908 170.581 307.391 170.411 307.937 170.211C311.522 168.9 312.475 166.105 312.668 164.377C312.778 163.401 313.477 162.842 314.182 162.28C314.725 161.846 315.271 161.41 315.55 160.779C315.853 160.095 315.917 159.159 316.018 157.689C316.131 156.046 318.233 155.165 318.822 151.791C319.187 149.699 317.676 146.647 318.025 145.338C318.743 142.649 319.108 141.279 317.816 139.852C316.988 138.938 315.926 138.25 314.939 137.611C313.637 136.769 312.466 136.01 312.132 134.926C311.813 133.889 311.8 132.448 311.788 131.135C311.779 130.037 311.769 129.029 311.583 128.421C311.403 127.837 310.579 126.97 309.609 125.948C308.365 124.638 306.879 123.074 306.199 121.525C305.983 121.033 305.731 120.292 305.438 119.43C304.09 115.467 301.082 110.704 297.491 114.035C295.861 115.546 295.75 114.066 295.088 114.267C294.029 114.589 288.859 113.368 287.035 118.103C286.943 118.343 286.847 118.594 286.747 118.858C285.53 122.08 284.974 119.275 279.911 120.77C273.998 122.517 277.136 124.75 273.555 128.295L268.852 146.249Z" fill="url(#paint17_linear_1115_14445)"/>
<path d="M302.449 147.738C307.793 154.618 305.875 165.865 304.248 170.629C306.617 155.199 301.823 149.052 299.13 147.908C297.928 158.536 291.957 161.483 289.122 161.629C297.605 159.946 296.154 143.97 294.368 136.192C294.071 146.607 284.673 152.601 280.011 154.296C291.163 147.9 294.499 131.298 294.772 123.796C295.216 128.384 296.498 137.976 298.081 139.642C299.664 141.308 308.439 142.889 312.629 143.471C304.704 143.046 300.107 141.964 298.799 141.477C302.751 148.762 311.776 151.835 315.794 152.461C310.899 152.712 304.857 149.417 302.449 147.738Z" fill="#85CA24"/>
<path d="M283.304 143.354C285.273 139.584 290.067 137.778 292.172 137.834L292.864 136.558C287.407 136.183 284.217 140.932 283.304 143.354Z" fill="#85CA24"/>
<path d="M305.893 139.011C303.97 135.641 297.844 131.457 294.989 130.084L294.304 128.926C301.751 132.361 305.133 137.08 305.893 139.011Z" fill="#85CA24"/>
<path d="M272.522 146.666C276.589 148.192 284.873 147.453 289.596 152.937C292.086 155.828 293.813 151.64 293.834 149.7C294.677 150.613 296.341 151.775 298.332 151.432C301.587 150.872 297.437 147.478 298.418 145.524C298.94 144.486 299.801 145.423 300.844 146.559C302.29 148.132 304.086 150.086 305.81 147.685C307.363 145.522 309.915 144.657 311.95 143.968C313.801 143.341 315.17 141.64 315.021 140.456C314.755 138.35 315.176 138.756 316.227 136.427C316.416 136.009 316.627 135.542 316.86 135.01C318.393 131.514 317.033 128.892 315.919 127.557C315.29 126.804 315.37 125.912 315.451 125.014C315.513 124.322 315.576 123.626 315.314 122.988C315.029 122.296 314.397 121.602 313.405 120.513C312.296 119.295 313.114 117.167 311.084 114.408C309.826 112.697 306.576 111.678 305.873 110.52C304.427 108.142 303.69 106.931 301.766 106.878C300.533 106.843 299.302 107.135 298.158 107.406C296.337 107.406 296.228 107.162 294.266 107.162C293.296 106.675 292.169 106.644 291.213 105.744C290.413 104.992 289.818 104.721 289.25 104.436C288.704 104.162 287.28 104.006 285.871 104C284.064 103.993 279.936 104.58 278.348 104C274.314 105.203 271.433 106.565 270.607 106.181C266.028 105.853 258.396 106.878 255.562 109.669C255.526 111.892 252.494 111.56 252.182 112.177C251.681 113.165 237.703 112.927 239.862 117.519C239.971 117.752 233.308 120.754 233.43 121.008C238.881 122.098 258.178 120.513 259.814 122.098C256.986 127.577 262.723 125.814 262.807 130.852L272.522 146.666Z" fill="url(#paint18_linear_1115_14445)"/>
<path d="M296.832 123.431C305.499 124.329 312.295 133.494 314.61 137.963C305.104 125.58 297.349 124.792 294.66 125.946C301.505 134.164 299.505 140.515 297.649 142.663C302.3 135.372 289.758 125.371 282.905 121.282C290.222 128.7 288.051 139.634 286.051 144.173C289.145 131.695 279.46 117.803 274.231 112.417C277.851 115.27 285.667 120.977 287.965 120.986C290.263 120.995 297.474 115.751 300.792 113.127C295.004 118.557 291.043 121.129 289.787 121.737C297.781 123.921 306.243 119.528 309.474 117.058C306.269 120.768 299.711 122.852 296.832 123.431Z" fill="#85CA24"/>
<path d="M280.426 134.227C279.064 130.198 281.076 125.485 282.572 124.004L282.129 122.621C278.084 126.303 279.308 131.892 280.426 134.227Z" fill="#85CA24"/>
<path d="M292.912 114.907C289.148 113.965 281.89 115.497 278.923 116.609L277.613 116.304C285.244 113.3 290.992 114.121 292.912 114.907Z" fill="#85CA24"/>
<path d="M175.511 131.552C172.767 130.067 171.437 130.721 171.259 131.552C170.998 132.774 173.622 133.151 174.966 133.188C176.165 133.188 177.194 132.463 175.511 131.552Z" fill="#331C1C"/>
</mask>
<g mask="url(#mask3_1115_14445)">
<path d="M178.436 118.347C177.215 118.87 175.165 121.036 174.293 122.054C176.837 123.253 182.099 125.303 182.797 123.907C183.669 122.163 183.778 117.802 183.669 117.148C183.582 116.625 183.051 116.203 182.797 116.058C181.852 116.603 179.657 117.824 178.436 118.347Z" fill="#BD5324"/>
<path d="M168.668 143.686C169.358 160.766 174.076 193.815 187.42 189.367" stroke="url(#paint19_linear_1115_14445)" stroke-width="2.1805"/>
<path d="M224.16 244.859C223.637 243.028 212.386 217.93 206.825 205.61L227.867 199.505C228.812 202.63 233.799 209.492 233.537 217.167C233.276 224.842 235.681 243.224 236.481 250.529C231.684 264.157 229.285 283.672 229.176 286.507C229.067 289.342 227.759 311.801 226.123 311.801C225.469 312.019 213.149 313.545 212.386 312.891C211.731 312.891 211.622 311.256 211.731 310.383C208.679 311.256 206.935 311.256 206.172 310.711C208.134 305.804 216.965 291.849 218.927 285.417C219.9 282.226 224.814 247.149 224.16 244.859Z" fill="url(#paint20_linear_1115_14445)"/>
<path d="M292.193 291.632C293.72 288.579 299.607 254.345 298.626 251.292C298.197 249.96 290.27 235.607 285.652 226.217C279.691 214.098 277.79 207.27 276.93 201.25C286.16 199.36 304.513 196.3 304.077 199.178C303.641 202.057 310.946 240.499 310.946 254.127C306.148 269.936 302.769 281.71 302.769 291.632C302.769 301.553 304.295 308.858 302.769 310.493C301.242 312.128 292.193 313.001 290.776 312.674C290.34 311.583 290.449 311.583 290.449 310.166C287.941 311.583 284.071 311.583 284.343 310.493C285.107 307.44 290.667 294.684 292.193 291.632Z" fill="url(#paint21_linear_1115_14445)"/>
<path d="M340.273 196.78C337.57 178.726 327.154 168.979 322.284 166.362C319.413 166.362 314.631 167.474 320.649 170.178C326.667 172.882 332.315 182.825 333.296 195.69C334.576 212.48 335.441 224.691 337.112 232.759C342.236 257.507 358.408 259.542 363.496 260.451C356.605 258.358 351.612 250.312 348.668 241.481C354.338 248.894 356.409 249.912 359.026 250.639C354.229 248.982 350.776 240.572 348.123 235.811C354.992 243.443 362.623 244.969 366.221 244.969C349.977 239.211 343.653 219.349 340.273 196.78Z" fill="url(#paint22_linear_1115_14445)"/>
<path d="M171.613 120.899C178.59 120.463 182.334 121.589 185.895 122.752C189.929 120.245 191.368 121.531 196.688 120.136C197.016 120.172 197.67 120.485 197.67 121.444C196.87 124.969 194.355 132.303 190.692 133.437C191.564 138.888 192.327 149.136 192.873 152.843C194.29 157.422 194.508 171.814 216.858 169.197C220.347 167.453 220.783 165.163 231.14 152.843C241.498 140.523 252.182 140.087 257.852 141.287C263.521 142.486 263.085 145.43 268.536 141.287C273.987 137.144 292.085 130.166 298.082 135.835C302.879 140.371 308.294 147.828 310.402 150.99C318.688 158.229 322.358 163.455 323.158 165.163C328.609 177.483 326.428 200.16 326.428 217.822C326.428 231.952 332.861 255.327 335.368 264.921C330.68 295.993 331.225 308.531 331.444 311.148C331.662 313.764 333.951 322.813 332.97 324.776C331.989 326.738 324.248 328.374 323.049 328.047C322.176 326.956 321.849 325.212 321.413 324.013C320.105 325.539 319.233 326.302 318.033 327.174C316.507 327.72 314.218 328.047 312.8 327.174C313.345 324.122 316.834 313.219 320.214 300.79C321.001 297.896 324.466 269.936 322.285 264.921C320.105 259.906 308.221 242.789 304.514 236.902C301.549 232.192 294.738 215.714 292.413 208.337C290.087 207.865 285.893 206.702 279.439 207.138C272.984 207.574 259.451 209.355 253.491 210.736C253.491 212.829 255.998 247.259 255.998 256.199C250.329 284.437 250.329 298.719 250.765 300.79C251.201 302.862 253.382 322.813 252.509 324.013C251.637 325.212 244.878 329.137 243.569 328.156C242.523 327.371 242.116 324.703 241.171 323.468C240.844 324.122 238.663 326.302 237.9 326.738C237.137 327.174 233.7 327.402 232.449 327.174C231.249 326.956 230.995 326.375 230.813 326.302C230.813 324.732 236.648 308.422 239.644 297.847C241.127 292.613 241.825 273.752 241.934 251.838C237.9 240.718 227.252 217.204 223.4 210.736C190.256 210.736 179.899 184.788 177.827 177.156C176.344 174.103 175.61 156.623 175.429 148.264C175.254 144.601 174.556 143.758 174.229 143.794C170.741 143.533 162.6 144.775 158.966 145.43C157.047 145.168 154.75 143.754 153.842 143.079C153.12 143.379 152.613 143.576 152.533 143.576C152.272 143.576 150.898 143.652 150.135 143.576C149.262 143.489 148.717 140.087 149.153 137.035C153.187 132.565 160.165 128.858 163.981 127.658C166.052 124.933 170.195 121.771 171.613 120.899Z" fill="url(#paint23_linear_1115_14445)"/>
<path fill-rule="evenodd" clip-rule="evenodd" d="M324.501 172.429C325.808 173.163 332.741 165.426 332.611 160.949L310.072 137.315C306.703 139.189 310.708 136.218 300.813 138.285C306.785 144.491 318.399 158.761 317.077 166.2C316.711 157.209 305.749 144.331 295.697 142.725C285.645 141.119 300.346 168.201 308.953 181.943C308.761 181.722 308.57 181.5 308.378 181.278C300.699 172.39 292.844 163.298 289.248 156.262C289.037 149.164 287.694 144.905 287.264 148.937C287.05 150.95 287.807 153.441 289.248 156.262C289.506 164.923 288.08 177.809 281.257 185.016C287.674 176.138 287.653 156.498 283.86 150.087C280.067 143.677 269.779 159.516 264.887 175.549C265.54 169.968 267.832 155.76 275.263 149.632C280.419 145.38 275.668 148.105 269.625 151.571L269.625 151.571C266.96 153.1 264.044 154.773 261.615 156.055L283.277 140.87C277.431 137.889 276.69 138.04 274.911 138.403C273.801 138.629 274.621 139.973 271.209 139.654C263.688 138.952 262.416 144.877 258.899 146.55C259.039 147.471 259.16 148.262 259.169 148.818C259.195 150.564 258.042 152.81 257.077 154.692C256.323 156.159 255.684 157.405 255.808 158.017C255.936 158.654 256.594 159.53 257.31 160.483C258.166 161.622 259.105 162.872 259.325 163.959C259.554 165.095 258.328 166.458 256.966 167.971C255.934 169.119 254.823 170.353 254.209 171.642C253.25 173.653 254.701 174.614 257.551 176.499C258.938 177.417 260.655 178.553 262.588 180.137C265.703 182.69 267.475 184.588 268.736 185.937C269.863 187.144 270.58 187.913 271.483 188.319C272.316 188.695 273.412 188.741 274.503 188.786C275.917 188.846 277.323 188.905 278.133 189.68C279.57 191.053 282.838 192.888 289.005 191.852C289.943 191.695 290.77 191.55 291.511 191.42C295.636 190.698 297.075 190.446 300.147 191.06C301.874 191.405 303.38 190.001 305.339 188.174C307.492 186.167 310.192 183.649 314.336 182.378C318.934 180.967 316.921 178.786 315.3 177.029C314.131 175.762 313.165 174.716 315.033 174.339C318.546 173.63 319.162 171.955 319.867 170.036C320.056 169.521 320.252 168.989 320.511 168.453C321.241 166.946 321.936 168.314 322.723 169.862C323.26 170.918 323.839 172.057 324.501 172.429Z" fill="url(#paint24_linear_1115_14445)"/>
<path d="M300.813 138.285C292.339 140.055 288.145 143.39 284.204 141.347C283.881 141.18 283.572 141.021 283.277 140.87L261.615 156.055C264.044 154.773 266.96 153.1 269.625 151.571L269.625 151.571C275.668 148.105 280.419 145.38 275.263 149.632C267.832 155.76 265.54 169.968 264.887 175.549C269.779 159.516 280.067 143.677 283.86 150.087C287.653 156.498 287.674 176.138 281.257 185.016C288.08 177.809 289.506 164.923 289.248 156.262C287.807 153.441 287.05 150.95 287.264 148.937C287.694 144.905 289.037 149.164 289.248 156.262C292.844 163.298 300.699 172.39 308.378 181.278C308.57 181.5 308.761 181.722 308.953 181.943C300.346 168.201 285.645 141.119 295.697 142.725C305.749 144.331 316.711 157.209 317.077 166.2C318.399 158.761 306.785 144.491 300.813 138.285Z" fill="#FFFDD7"/>
<path fill-rule="evenodd" clip-rule="evenodd" d="M222.815 172.429C221.508 173.163 214.575 165.426 214.706 160.949L237.245 137.315C240.613 139.189 236.609 136.218 246.503 138.285C240.531 144.491 228.918 158.761 230.24 166.2C230.606 157.209 241.567 144.331 251.619 142.725C261.671 141.119 246.971 168.201 238.364 181.943C238.555 181.722 238.747 181.5 238.938 181.278C246.617 172.39 254.473 163.298 258.068 156.262C258.28 149.164 259.622 144.905 260.052 148.937C260.267 150.95 259.51 153.441 258.068 156.262C257.81 164.923 259.236 177.809 266.059 185.016C259.642 176.138 259.664 156.498 263.457 150.087C267.249 143.677 277.538 159.516 282.43 175.549C281.776 169.968 279.484 155.76 272.054 149.632C266.897 145.38 271.648 148.105 277.691 151.571L277.692 151.571C280.357 153.1 283.273 154.773 285.702 156.055L264.04 140.87C269.885 137.889 270.626 138.04 272.405 138.403C273.516 138.629 272.695 139.973 276.108 139.654C283.628 138.952 284.901 144.877 288.418 146.55C288.277 147.471 288.156 148.262 288.148 148.818C288.121 150.564 289.274 152.81 290.24 154.692C290.993 156.159 291.632 157.405 291.509 158.017C291.38 158.654 290.723 159.53 290.006 160.483C289.151 161.622 288.211 162.872 287.992 163.959C287.763 165.095 288.988 166.458 290.35 167.971C291.382 169.119 292.493 170.353 293.108 171.642C294.067 173.653 292.615 174.614 289.766 176.499C288.379 177.417 286.661 178.553 284.729 180.137C281.613 182.69 279.841 184.588 278.581 185.937C277.454 187.144 276.736 187.913 275.833 188.319C275 188.695 273.904 188.741 272.813 188.786C271.399 188.846 269.994 188.905 269.183 189.68C267.747 191.053 264.479 192.888 258.312 191.852C257.373 191.695 256.546 191.55 255.806 191.42C251.681 190.698 250.241 190.446 247.169 191.06C245.442 191.405 243.937 190.001 241.977 188.174C239.825 186.167 237.124 183.649 232.981 182.378C228.383 180.967 230.395 178.786 232.016 177.029C233.185 175.762 234.151 174.716 232.284 174.339C228.77 173.63 228.155 171.955 227.449 170.036C227.26 169.521 227.065 168.989 226.805 168.453C226.075 166.946 225.38 168.314 224.593 169.862C224.057 170.918 223.478 172.057 222.815 172.429Z" fill="url(#paint25_linear_1115_14445)"/>
<path d="M246.503 138.285C254.977 140.055 259.171 143.39 263.113 141.347C263.435 141.18 263.744 141.021 264.04 140.87L285.702 156.055C283.273 154.773 280.357 153.1 277.692 151.571L277.691 151.571C271.648 148.105 266.897 145.38 272.054 149.632C279.484 155.76 281.776 169.968 282.43 175.549C277.538 159.516 267.249 143.677 263.457 150.087C259.664 156.498 259.642 176.138 266.059 185.016C259.236 177.809 257.81 164.923 258.068 156.262C259.51 153.441 260.267 150.95 260.052 148.937C259.622 144.905 258.28 149.164 258.068 156.262C254.473 163.298 246.617 172.39 238.938 181.278C238.747 181.5 238.555 181.722 238.364 181.943C246.971 168.201 261.671 141.119 251.619 142.725C241.567 144.331 230.606 157.209 230.24 166.2C228.918 158.761 240.531 144.491 246.503 138.285Z" fill="#FFFDD7"/>
<path d="M223.775 121.951C221.653 120.79 221.662 152.625 223.484 153.923C226.562 156.114 258.497 164.4 258.513 162.659C258.637 148.964 258.707 141.286 258.832 127.591C245.141 125.388 237.466 124.153 223.775 121.951Z" fill="#FFD191"/>
<path d="M258.832 127.591C258.707 141.286 258.637 148.964 258.513 162.659C278.772 159.258 309.508 154.099 314.163 153.318C314.522 153.258 314.765 152.952 314.768 152.587L315.053 121.245C315.053 121.245 280.787 125.113 258.832 127.591Z" fill="#E2903A"/>
<path d="M223.775 121.951C237.466 124.153 245.141 125.388 258.832 127.591C280.787 125.113 315.053 121.245 315.053 121.245L284.442 116.118C284.377 116.107 284.318 116.104 284.253 116.111C282.22 116.307 246.745 119.732 223.775 121.951Z" fill="#FFDDAF"/>
<path d="M263.847 126.132C265.519 149.681 263.891 200.945 257.523 210.626" stroke="url(#paint26_linear_1115_14445)" stroke-width="4.36101" stroke-linecap="round"/>
<path d="M288.694 207.639C288.032 208.645 288.311 209.997 289.317 210.659C290.324 211.321 291.676 211.042 292.337 210.035L288.694 207.639ZM296.839 124.343L294.664 124.497C295.492 136.156 295.505 154.762 294.515 171.663C294.02 180.111 293.277 188.086 292.271 194.525C291.767 197.747 291.202 200.549 290.581 202.817C289.948 205.126 289.298 206.72 288.694 207.639L290.516 208.837L292.337 210.035C293.325 208.534 294.119 206.408 294.787 203.969C295.467 201.489 296.061 198.513 296.579 195.199C297.616 188.568 298.37 180.44 298.869 171.918C299.867 154.88 299.858 136.079 299.014 124.188L296.839 124.343Z" fill="url(#paint27_linear_1115_14445)"/>
<path d="M169.539 139.106C171.611 139.978 190.908 137.143 191.235 136.707" stroke="url(#paint28_linear_1115_14445)" stroke-width="2.1805" stroke-linecap="round"/>
<path d="M170.305 143.576C172.921 145.539 177.936 152.08 192.437 149.464" stroke="url(#paint29_linear_1115_14445)" stroke-width="2.1805" stroke-linecap="round"/>
<path d="M169.977 143.686C196.361 209.428 226.561 213.244 263.629 134.637" stroke="url(#paint30_linear_1115_14445)" stroke-width="2.1805"/>
<path d="M331.91 132.038C331.647 136.024 327.887 142.686 330.692 148.723C332.171 151.906 328.006 151.765 326.373 151.047C326.819 152.1 327.161 153.935 326.119 155.473C324.415 157.988 323.145 153.224 321.136 153.306C320.068 153.349 320.527 154.426 321.083 155.731C321.853 157.539 322.81 159.784 320.145 160.319C317.743 160.801 316.051 162.611 314.702 164.055C313.474 165.369 311.53 165.871 310.595 165.297C308.931 164.276 309.111 164.782 306.761 164.781C306.339 164.78 305.868 164.78 305.334 164.774C301.823 164.733 300.142 162.599 299.445 161.159C299.052 160.346 298.274 160.076 297.491 159.803C296.888 159.593 296.281 159.382 295.846 158.92C295.374 158.419 295.032 157.627 294.495 156.383L294.495 156.383C293.895 154.991 291.802 154.87 290.26 152.123C289.303 150.42 289.68 147.311 288.977 146.282C287.533 144.169 286.797 143.092 287.481 141.46C287.92 140.414 288.631 139.493 289.292 138.637L289.292 138.637C290.164 137.507 290.948 136.491 290.906 135.449C290.865 134.451 290.436 133.198 290.045 132.056L290.045 132.056C289.718 131.1 289.418 130.222 289.394 129.638C289.371 129.076 289.82 128.072 290.35 126.889L290.35 126.889C291.028 125.373 291.839 123.562 291.955 122.011C291.992 121.517 291.984 120.797 291.975 119.96L291.975 119.96C291.933 116.11 293.086 111.059 297.219 112.85C299.095 113.663 298.739 112.345 299.374 112.317C300.391 112.272 304.503 109.633 307.533 113.183C307.686 113.362 307.846 113.551 308.013 113.749C310.054 116.172 309.678 113.569 314.528 113.318C320.191 113.025 318.152 115.921 322.341 117.902L331.91 132.038Z" fill="url(#paint31_linear_1115_14445)"/>
<path d="M311.467 139.312C308.935 146.914 314.038 156.084 316.906 159.718C310.133 147.058 312.412 140.261 314.399 138.444C318.69 147.296 324.771 148.028 327.274 147.287C319.401 148.42 315.775 134.119 314.947 126.826C318.389 135.77 328.374 138.096 332.936 138.141C321.307 136.002 313.337 122.62 310.806 116.197C311.824 120.312 313.644 129.025 312.781 130.954C311.917 132.883 304.788 136.937 301.332 138.724C308.077 135.931 311.733 133.588 312.719 132.765C311.519 140.293 304.629 145.717 301.335 147.489C305.658 146.21 309.891 141.504 311.467 139.312Z" fill="#85CA24"/>
<path d="M326.732 129.655C323.871 126.987 319.16 126.887 317.352 127.579L316.361 126.683C320.98 124.689 325.199 127.834 326.732 129.655Z" fill="#85CA24"/>
<path d="M305.808 132.794C306.446 129.283 310.481 123.782 312.537 121.718L312.778 120.503C307.368 125.76 305.877 130.888 305.808 132.794Z" fill="#85CA24"/>
<path d="M268.85 146.248C270.561 150.241 276.824 155.713 276.13 162.917C275.764 166.716 279.984 165.066 281.399 163.74C281.322 164.98 281.634 166.986 283.259 168.187C285.915 170.15 285.496 164.805 287.586 164.163C288.696 163.821 288.615 165.092 288.517 166.63C288.38 168.763 288.211 171.411 291.137 170.996C293.774 170.622 296.163 171.867 298.068 172.86C299.802 173.763 301.977 173.576 302.729 172.649C304.066 171 304.064 171.585 306.474 170.734L306.474 170.734C306.906 170.581 307.389 170.411 307.935 170.211C311.519 168.9 312.473 166.105 312.666 164.376C312.776 163.401 313.475 162.842 314.18 162.28C314.723 161.846 315.268 161.41 315.548 160.779C315.851 160.095 315.915 159.159 316.016 157.689L316.016 157.689C316.129 156.045 318.23 155.165 318.82 151.791C319.185 149.698 317.674 146.646 318.023 145.338C318.741 142.648 319.106 141.279 317.814 139.852C316.986 138.938 315.924 138.25 314.937 137.611L314.937 137.611C313.635 136.768 312.464 136.01 312.13 134.926C311.811 133.888 311.798 132.448 311.786 131.135L311.786 131.135C311.776 130.037 311.767 129.029 311.58 128.421C311.401 127.837 310.577 126.969 309.607 125.948L309.607 125.948C308.363 124.638 306.877 123.074 306.197 121.525C305.981 121.033 305.729 120.292 305.436 119.429C304.088 115.467 301.079 110.704 297.488 114.035C295.859 115.546 295.748 114.066 295.086 114.267C294.027 114.589 288.857 113.368 287.033 118.103C286.94 118.343 286.845 118.594 286.745 118.858C285.528 122.08 284.972 119.275 279.909 120.77C273.996 122.517 277.134 124.749 273.553 128.295L268.85 146.248Z" fill="url(#paint32_linear_1115_14445)"/>
<path d="M302.446 147.738C307.791 154.618 305.872 165.865 304.245 170.629C306.614 155.199 301.82 149.052 299.127 147.908C297.925 158.536 291.955 161.484 289.12 161.629C297.602 159.946 296.152 143.97 294.366 136.193C294.068 146.607 284.67 152.602 280.008 154.297C291.161 147.901 294.496 131.298 294.769 123.796C295.213 128.384 296.496 137.976 298.079 139.642C299.662 141.308 308.437 142.889 312.626 143.471C304.701 143.046 300.104 141.965 298.797 141.477C302.748 148.762 311.773 151.835 315.792 152.461C310.896 152.712 304.855 149.417 302.446 147.738Z" fill="#85CA24"/>
<path d="M283.305 143.355C285.273 139.585 290.068 137.779 292.173 137.835L292.865 136.558C287.408 136.183 284.218 140.933 283.305 143.355Z" fill="#85CA24"/>
<path d="M305.892 139.011C303.97 135.641 297.844 131.458 294.989 130.085L294.303 128.927C301.75 132.361 305.132 137.081 305.892 139.011Z" fill="#85CA24"/>
<path d="M272.518 146.666C276.585 148.192 284.869 147.452 289.592 152.937C292.082 155.828 293.809 151.639 293.83 149.7C294.673 150.613 296.337 151.775 298.329 151.432C301.583 150.871 297.433 147.477 298.414 145.524C298.936 144.486 299.797 145.423 300.84 146.558C302.286 148.132 304.082 150.085 305.806 147.685C307.359 145.522 309.911 144.657 311.946 143.968C313.797 143.34 315.166 141.64 315.017 140.456C314.751 138.35 315.172 138.755 316.223 136.427C316.412 136.008 316.623 135.542 316.856 135.01C318.389 131.514 317.029 128.892 315.915 127.557C315.286 126.803 315.366 125.911 315.447 125.014C315.509 124.321 315.572 123.626 315.31 122.987C315.025 122.295 314.394 121.602 313.401 120.512L313.401 120.512C312.292 119.294 313.11 117.167 311.08 114.408C309.822 112.697 306.572 111.677 305.869 110.52C304.423 108.142 303.686 106.931 301.762 106.877C300.529 106.843 299.298 107.134 298.154 107.405L298.154 107.405C296.333 107.405 296.224 107.161 294.262 107.161C293.292 106.674 292.165 106.643 291.209 105.744C290.409 104.992 289.814 104.721 289.246 104.436C288.7 104.161 287.276 104.005 285.867 104C284.06 103.992 279.932 104.58 278.344 104C274.31 105.202 271.429 106.565 270.603 106.18C266.024 105.853 258.392 106.877 255.558 109.669C255.522 111.891 252.49 111.56 252.178 112.177C251.677 113.165 237.699 112.926 239.858 117.519C239.967 117.751 233.304 120.753 233.426 121.008C238.877 122.098 258.174 120.512 259.81 122.098C256.982 127.576 262.719 125.814 262.803 130.852L272.518 146.666Z" fill="url(#paint33_linear_1115_14445)"/>
<path d="M296.833 123.431C305.5 124.329 312.296 133.494 314.611 137.964C305.105 125.581 297.35 124.792 294.661 125.946C301.506 134.164 299.506 140.515 297.65 142.664C302.301 135.373 289.759 125.372 282.906 121.282C290.223 128.7 288.052 139.634 286.052 144.174C289.146 131.695 279.461 117.803 274.232 112.417C277.852 115.27 285.667 120.977 287.965 120.986C290.263 120.995 297.475 115.751 300.793 113.127C295.004 118.558 291.044 121.13 289.788 121.737C297.782 123.921 306.243 119.528 309.475 117.059C306.27 120.768 299.712 122.853 296.833 123.431Z" fill="#85CA24"/>
<path d="M280.426 134.227C279.064 130.198 281.076 125.486 282.572 124.004L282.129 122.622C278.084 126.304 279.308 131.893 280.426 134.227Z" fill="#85CA24"/>
<path d="M292.909 114.907C289.146 113.965 281.887 115.497 278.921 116.609L277.61 116.303C285.242 113.3 290.99 114.121 292.909 114.907Z" fill="#85CA24"/>
<path d="M161.863 127.832C166.66 129.685 170.149 141.024 169.604 144.622" stroke="url(#paint34_linear_1115_14445)" stroke-width="3.27075" stroke-linecap="round"/>
<path d="M154.668 143.096C156.921 142.187 160.119 140.261 160.446 139.498" stroke="#BE5725" stroke-width="1.52635"/>
<path d="M175.508 131.552C172.765 130.067 171.435 130.721 171.256 131.552C170.995 132.774 173.619 133.151 174.963 133.188C176.163 133.188 177.191 132.463 175.508 131.552Z" fill="#331C1C"/>
<g style="mix-blend-mode:soft-light" opacity="0.7">
<rect x="137.441" y="71.793" width="254.247" height="269.946" fill="url(#paint35_linear_1115_14445)"/>
</g>
<g style="mix-blend-mode:multiply" opacity="0.7">
<rect x="137.441" y="71.793" width="254.247" height="269.946" fill="url(#paint36_linear_1115_14445)"/>
</g>
</g>
</g>
<defs>
<linearGradient id="paint0_linear_1115_14445" x1="433.277" y1="159.89" x2="446.239" y2="211.63" gradientUnits="userSpaceOnUse">
<stop stop-color="#281008"/>
<stop offset="1" stop-color="#484848"/>
</linearGradient>
<linearGradient id="paint1_linear_1115_14445" x1="433.277" y1="159.89" x2="446.239" y2="211.63" gradientUnits="userSpaceOnUse">
<stop stop-color="#281008"/>
<stop offset="1" stop-color="#484848"/>
</linearGradient>
<linearGradient id="paint2_linear_1115_14445" x1="4.5771" y1="0" x2="4.5771" y2="55.1706" gradientUnits="userSpaceOnUse">
<stop stop-color="white"/>
<stop offset="1" stop-color="white" stop-opacity="0"/>
</linearGradient>
<linearGradient id="paint3_linear_1115_14445" x1="1.08972" y1="0" x2="1.08972" y2="55.1706" gradientUnits="userSpaceOnUse">
<stop stop-color="white"/>
<stop offset="1" stop-color="white" stop-opacity="0"/>
</linearGradient>
<linearGradient id="paint4_linear_1115_14445" x1="431.918" y1="164.043" x2="431.918" y2="234.196" gradientUnits="userSpaceOnUse">
<stop stop-color="#FBF7E7"/>
<stop offset="1" stop-color="#BFB1A5"/>
</linearGradient>
<linearGradient id="paint5_linear_1115_14445" x1="496.185" y1="200.882" x2="479.957" y2="206.783" gradientUnits="userSpaceOnUse">
<stop stop-color="#D8C7B4"/>
<stop offset="1" stop-color="#FBF7E7"/>
</linearGradient>
<linearGradient id="paint6_linear_1115_14445" x1="431.918" y1="207.205" x2="431.918" y2="234.196" gradientUnits="userSpaceOnUse">
<stop stop-color="#2D1912"/>
<stop offset="1" stop-color="#3F3835"/>
</linearGradient>
<linearGradient id="paint7_linear_1115_14445" x1="471.316" y1="209.734" x2="455.299" y2="207.31" gradientUnits="userSpaceOnUse">
<stop stop-color="#FBF7E7"/>
<stop offset="1" stop-color="#D8C7B4"/>
</linearGradient>
<linearGradient id="paint8_linear_1115_14445" x1="69.0221" y1="0" x2="69.0221" y2="89.1492" gradientUnits="userSpaceOnUse">
<stop stop-color="#FFECC2"/>
<stop offset="1" stop-color="#E3906C"/>
</linearGradient>
<linearGradient id="paint9_linear_1115_14445" x1="69.0221" y1="0" x2="69.0221" y2="89.1492" gradientUnits="userSpaceOnUse">
<stop stop-color="#FFECC2"/>
<stop offset="1" stop-color="#E3906C"/>
</linearGradient>
<linearGradient id="paint10_linear_1115_14445" x1="257.611" y1="104" x2="257.611" y2="328.312" gradientUnits="userSpaceOnUse">
<stop stop-color="#C05E29"/>
<stop offset="1" stop-color="#B53F1B"/>
</linearGradient>
<linearGradient id="paint11_linear_1115_14445" x1="257.611" y1="104" x2="257.611" y2="328.312" gradientUnits="userSpaceOnUse">
<stop stop-color="#C05E29"/>
<stop offset="1" stop-color="#B53F1B"/>
</linearGradient>
<linearGradient id="paint12_linear_1115_14445" x1="202.331" y1="96.6161" x2="218.166" y2="313.151" gradientUnits="userSpaceOnUse">
<stop stop-color="#A7602E"/>
<stop offset="1" stop-color="#632D28"/>
</linearGradient>
<linearGradient id="paint13_linear_1115_14445" x1="257.522" y1="77.1676" x2="257.598" y2="294.85" gradientUnits="userSpaceOnUse">
<stop stop-color="#EEA256"/>
<stop offset="1" stop-color="#D47A3A"/>
</linearGradient>
<linearGradient id="paint14_linear_1115_14445" x1="266.525" y1="104" x2="250.499" y2="266.857" gradientUnits="userSpaceOnUse">
<stop stop-color="#F8C965"/>
<stop offset="1" stop-color="#FFEE97"/>
</linearGradient>
<linearGradient id="paint15_linear_1115_14445" x1="266.525" y1="104" x2="250.499" y2="266.857" gradientUnits="userSpaceOnUse">
<stop stop-color="#F8F165"/>
<stop offset="1" stop-color="#FFF3B7"/>
</linearGradient>
<linearGradient id="paint16_linear_1115_14445" x1="257.611" y1="104" x2="257.611" y2="328.312" gradientUnits="userSpaceOnUse">
<stop stop-color="#48860A"/>
<stop offset="1" stop-color="#3D6812"/>
</linearGradient>
<linearGradient id="paint17_linear_1115_14445" x1="257.611" y1="104" x2="257.611" y2="328.312" gradientUnits="userSpaceOnUse">
<stop stop-color="#51940E"/>
<stop offset="1" stop-color="#4E7627"/>
</linearGradient>
<linearGradient id="paint18_linear_1115_14445" x1="257.611" y1="104" x2="257.611" y2="266.149" gradientUnits="userSpaceOnUse">
<stop stop-color="#60B40B"/>
<stop offset="1" stop-color="#5D9129"/>
</linearGradient>
<linearGradient id="paint19_linear_1115_14445" x1="178.044" y1="143.686" x2="178.044" y2="189.775" gradientUnits="userSpaceOnUse">
<stop stop-color="#FFEF77"/>
<stop offset="1" stop-color="#FCC349"/>
</linearGradient>
<linearGradient id="paint20_linear_1115_14445" x1="221.326" y1="199.505" x2="221.326" y2="313.053" gradientUnits="userSpaceOnUse">
<stop stop-color="#C05E29"/>
<stop offset="1" stop-color="#B53F1B"/>
</linearGradient>
<linearGradient id="paint21_linear_1115_14445" x1="293.938" y1="197.999" x2="293.938" y2="312.742" gradientUnits="userSpaceOnUse">
<stop stop-color="#C05E29"/>
<stop offset="1" stop-color="#B53F1B"/>
</linearGradient>
<linearGradient id="paint22_linear_1115_14445" x1="329.653" y1="163.265" x2="341.973" y2="252.884" gradientUnits="userSpaceOnUse">
<stop stop-color="#A7602E"/>
<stop offset="1" stop-color="#632D28"/>
</linearGradient>
<linearGradient id="paint23_linear_1115_14445" x1="242.107" y1="95.2335" x2="242.184" y2="297.257" gradientUnits="userSpaceOnUse">
<stop stop-color="#EEA256"/>
<stop offset="1" stop-color="#D47A3A"/>
</linearGradient>
<linearGradient id="paint24_linear_1115_14445" x1="295.046" y1="192.302" x2="289.616" y2="151.1" gradientUnits="userSpaceOnUse">
<stop stop-color="#F8C965"/>
<stop offset="1" stop-color="#FFEE97"/>
</linearGradient>
<linearGradient id="paint25_linear_1115_14445" x1="252.27" y1="192.302" x2="257.701" y2="151.1" gradientUnits="userSpaceOnUse">
<stop stop-color="#F8F165"/>
<stop offset="1" stop-color="#FFF3B7"/>
</linearGradient>
<linearGradient id="paint26_linear_1115_14445" x1="260.992" y1="126.132" x2="260.992" y2="210.626" gradientUnits="userSpaceOnUse">
<stop stop-color="#F9A227"/>
<stop offset="1" stop-color="#FFEF77"/>
</linearGradient>
<linearGradient id="paint27_linear_1115_14445" x1="293.984" y1="172.378" x2="293.984" y2="208.837" gradientUnits="userSpaceOnUse">
<stop stop-color="#F9A227"/>
<stop offset="1" stop-color="#FFEF77"/>
</linearGradient>
<linearGradient id="paint28_linear_1115_14445" x1="169.539" y1="137.989" x2="191.235" y2="137.989" gradientUnits="userSpaceOnUse">
<stop stop-color="#FFEF77"/>
<stop offset="1" stop-color="#FCC54B"/>
</linearGradient>
<linearGradient id="paint29_linear_1115_14445" x1="170.305" y1="146.824" x2="192.437" y2="146.824" gradientUnits="userSpaceOnUse">
<stop stop-color="#FFEF77"/>
<stop offset="1" stop-color="#FCC44A"/>
</linearGradient>
<linearGradient id="paint30_linear_1115_14445" x1="189.339" y1="160.758" x2="275.686" y2="161.194" gradientUnits="userSpaceOnUse">
<stop stop-color="#FFEF77"/>
<stop offset="1" stop-color="#F9A227"/>
</linearGradient>
<linearGradient id="paint31_linear_1115_14445" x1="310.712" y1="165.569" x2="308.501" y2="111.129" gradientUnits="userSpaceOnUse">
<stop stop-color="#48860A"/>
<stop offset="1" stop-color="#3D6812"/>
</linearGradient>
<linearGradient id="paint32_linear_1115_14445" x1="302.707" y1="172.97" x2="285.298" y2="116.348" gradientUnits="userSpaceOnUse">
<stop stop-color="#51940E"/>
<stop offset="1" stop-color="#4E7627"/>
</linearGradient>
<linearGradient id="paint33_linear_1115_14445" x1="315.234" y1="140.693" x2="262.296" y2="114.107" gradientUnits="userSpaceOnUse">
<stop stop-color="#60B40B"/>
<stop offset="1" stop-color="#5D9129"/>
</linearGradient>
<linearGradient id="paint34_linear_1115_14445" x1="165.762" y1="127.832" x2="165.762" y2="144.622" gradientUnits="userSpaceOnUse">
<stop stop-color="#FFEF77"/>
<stop offset="1" stop-color="#FFD17C"/>
</linearGradient>
<linearGradient id="paint35_linear_1115_14445" x1="264.565" y1="71.793" x2="264.565" y2="341.739" gradientUnits="userSpaceOnUse">
<stop stop-color="#FFECC2"/>
<stop offset="1" stop-color="#E3906C"/>
</linearGradient>
<linearGradient id="paint36_linear_1115_14445" x1="264.565" y1="71.793" x2="264.565" y2="341.739" gradientUnits="userSpaceOnUse">
<stop stop-color="#FFECC2"/>
<stop offset="1" stop-color="#E3906C"/>
</linearGradient>
<clipPath id="clip0_1115_14445">
<rect width="516" height="328" fill="white"/>
</clipPath>
</defs>
</svg>
