<svg width="516" height="328" viewBox="0 0 516 328" fill="none" xmlns="http://www.w3.org/2000/svg">
<path d="M212.592 237.114C203.598 242.531 165.876 276.918 148.139 293.434L141.619 283.753C153.918 272.595 180.844 247.822 190.154 237.998C201.793 225.718 200.563 227.036 200.636 223.502C200.126 217.338 198.879 212.574 198.45 205.917C199.127 183.228 208.477 175.64 217.503 170.025C228.584 164.241 249.776 158.592 265.123 179.346C280.469 200.1 269.099 220.024 266.568 226.196C264.036 232.368 257.282 227.208 254.151 224.669C251.647 222.637 251.84 221.25 252.25 220.811C254.458 216.612 257.401 211.015 256.317 205.264C255.232 199.513 249.78 189.499 237.937 187.559C226.095 185.619 217.49 194.849 216.286 205.292C215.322 213.646 220.852 221.747 223.737 224.753C224.069 225.821 224.684 228.252 224.49 229.436C224.248 230.916 223.835 230.342 212.592 237.114Z" fill="url(#paint0_linear_1117_20222)"/>
<path d="M148.243 301.5C135.813 309.542 114.357 316.659 116.243 302.001C116.779 297.842 114.505 301.544 114.494 293.001C114.475 277.453 113.672 259.436 112.518 256.383C121.412 250.399 140.724 242.098 146.83 256.769C150.409 265.37 152.577 277.604 152.586 289.001C152.597 301.902 154.844 297.23 148.243 301.5Z" fill="url(#paint1_linear_1117_20222)"/>
<path d="M73.2011 251.094C77.2566 221.923 84.0402 201.352 104.214 193.944C140.746 180.528 164.76 212.909 172.217 225.371C177.977 238.592 165.115 259.444 140.732 268.374C116.349 277.304 72.7916 277.595 73.2011 251.094Z" fill="url(#paint2_linear_1117_20222)"/>
<ellipse cx="129.242" cy="281.192" rx="1.99159" ry="3.98317" fill="#3C0D0D"/>
<ellipse cx="145.175" cy="275.882" rx="1.99159" ry="3.98317" fill="#3C0D0D"/>
<path d="M134.551 287.167C134.993 288.495 137.339 289.955 140.526 287.831" stroke="#3C0D0D"/>
<path d="M147.281 313.192C144.546 314.083 137.916 315.637 133.281 314.72V302.877L141.488 296L147.281 313.192Z" fill="#200606"/>
<path d="M103.35 312.519C104.548 311.343 110.841 298.799 113.837 292.675L140.247 297.5L153.79 289L161.281 309.211C160.782 309.946 150.725 313.254 145.731 313.988C145.731 312.519 142.47 306.022 140.805 301C140.006 308.056 137.143 312.519 135.811 315.458C125.324 317.296 101.852 313.988 103.35 312.519Z" fill="url(#paint3_linear_1117_20222)"/>
<circle cx="236.746" cy="214.5" r="12.5" fill="url(#paint4_linear_1117_20222)"/>
<path d="M113.746 287C120.746 288 134.413 292.5 140.246 296.5C148.246 290.5 151.246 281.5 152.746 281.5C156.746 285 154.746 288 154.246 290C153.846 291.6 146.413 296.167 140.746 299C138.746 298.5 110.246 297 110.246 295C109.246 294.5 110.746 288 113.746 287Z" fill="#371212"/>
<mask id="mask0_1117_20222" style="mask-type:alpha" maskUnits="userSpaceOnUse" x="290" y="216" width="67" height="74">
<path d="M324.567 232.178L356.639 275.278L348.808 285.021L291.076 216.986L324.567 232.178Z" fill="url(#paint5_linear_1117_20222)"/>
<path d="M301.891 252.074L340.272 289.665L350.982 283.219L290.735 216.62L301.891 252.074Z" fill="url(#paint6_linear_1117_20222)"/>
</mask>
<g mask="url(#mask0_1117_20222)">
<path d="M324.567 232.178L356.639 275.278L348.808 285.021L291.076 216.986L324.567 232.178Z" fill="url(#paint7_linear_1117_20222)"/>
<path d="M301.891 252.074L340.272 289.665L350.982 283.219L290.735 216.62L301.891 252.074Z" fill="url(#paint8_linear_1117_20222)"/>
<path d="M291 217L347.5 281.5" stroke="url(#paint9_linear_1117_20222)"/>
<rect x="326.32" y="222.199" width="11.2979" height="55.4661" transform="rotate(15 326.32 222.199)" fill="white" fill-opacity="0.5"/>
<rect x="337.355" y="241" width="3.17045" height="55.4661" transform="rotate(15 337.355 241)" fill="white" fill-opacity="0.5"/>
</g>
<path d="M372.25 300.272L361.176 287.393L355.062 290.69L367.085 305.101L372.25 300.272Z" fill="#351414"/>
<path d="M362.909 308.524L351.641 295.814L355.732 290.2L368.391 304.057L362.909 308.524Z" fill="#351414"/>
<path d="M359.839 269.384L334.544 292.027L341.915 304.302L371.53 278.781L371.916 267.288L359.839 269.384Z" fill="#432121"/>
<path d="M333.997 292.042L359.332 270.219L371.06 279.102L341.732 304.894L330.292 303.726L333.997 292.042Z" fill="#432121"/>
<path fill-rule="evenodd" clip-rule="evenodd" d="M364.581 218C359.721 234.429 354.934 279.267 364.581 313.152C366.244 313.837 376.033 317.602 399.441 316.917C400.311 316.892 401.194 316.867 402.085 316.842C415.351 316.467 430.501 316.039 432.443 313.152C432.52 312.119 432.1 309.868 431.474 306.509C428.988 293.17 423.246 262.368 432.443 221.08L364.581 218Z" fill="url(#paint10_linear_1117_20222)"/>
<path d="M432.443 313.152C432.443 313.152 437.122 310.769 437.122 309.045C434.05 297.554 428.483 259.689 438 221.08H432.443C423.246 262.368 428.988 293.17 431.474 306.509C432.1 309.868 432.52 312.119 432.443 313.152Z" fill="url(#paint11_linear_1117_20222)"/>
<ellipse cx="1.99159" cy="3.98317" rx="1.99159" ry="3.98317" transform="matrix(-1 0 0 1 402.984 255)" fill="#3C0D0D"/>
<ellipse cx="1.99159" cy="3.98317" rx="1.99159" ry="3.98317" transform="matrix(-1 0 0 1 376.984 251)" fill="#3C0D0D"/>
<path d="M394.477 266C394.034 267.328 393.502 269 386.002 268" stroke="#3C0D0D"/>
<path d="M404.5 250.5L396 254.5" stroke="#3C0D0D"/>
<path d="M375 246.5L379.5 252.5" stroke="#3C0D0D"/>
<path d="M377.168 185.637C369.068 193.425 362.348 204.221 360 208.646L400.06 229C413.853 228.41 441 224.67 441 214.398C441 204.221 436.158 194.929 430.875 189.619C419.605 182.54 408.424 179.737 402.701 179C394.249 179.354 382.011 183.572 377.168 185.637Z" fill="url(#paint12_linear_1117_20222)"/>
<path d="M404.87 159.033C404.516 160.431 401.476 173.593 400 180C415.585 175.457 441.323 176.942 452.244 178.253C450.827 175.807 445.751 171.992 443.389 170.39C440.202 167.944 429.959 168.206 425.237 168.643C451.447 160.955 458 155.539 458 153.792C452.244 152.044 451.359 151.608 440.733 150.297C432.232 149.249 417.415 160.052 411.069 165.585C413.194 161.741 420.514 152.335 423.908 148.113C413.725 146.803 405.313 157.286 404.87 159.033Z" fill="url(#paint13_linear_1117_20222)"/>
<path d="M352 223.316C352 222.255 354.641 213.589 358.161 207.842C361.33 206.074 382.073 200.768 392.929 199C396.449 199.884 426.229 207.105 441.339 211.379C441.339 211.379 443.293 226.053 443 229C437.367 231.476 403.931 237.905 387.648 241C381.046 239.232 352 224.642 352 223.316Z" fill="url(#paint14_linear_1117_20222)"/>
<path d="M397.024 206.451L397.462 231.824L388 233.5L383.135 231.438L386.34 206.253L392.154 205L397.024 206.451ZM414.469 211.648L416.374 228.475L405.852 230.338L404.65 208.723L414.469 211.648ZM376.506 228.629L368.992 225.445L372.988 209.13L380.222 207.571L376.506 228.629ZM431.154 216.62L432.5 225.62L424.385 227.057L421.912 213.866L431.154 216.62ZM363.757 223.228L358.5 221L362 211.5L368.104 210.184L363.757 223.228Z" fill="url(#paint15_linear_1117_20222)"/>
<mask id="mask1_1117_20222" style="mask-type:alpha" maskUnits="userSpaceOnUse" x="290" y="216" width="67" height="74">
<path d="M324.567 232.179L356.639 275.279L348.808 285.022L291.076 216.987L324.567 232.179Z" fill="url(#paint16_linear_1117_20222)"/>
<path d="M301.891 252.075L340.272 289.666L350.982 283.22L290.735 216.621L301.891 252.075Z" fill="url(#paint17_linear_1117_20222)"/>
</mask>
<g mask="url(#mask1_1117_20222)">
<path d="M324.567 232.179L356.639 275.279L348.808 285.022L291.076 216.987L324.567 232.179Z" fill="url(#paint18_linear_1117_20222)"/>
<path d="M301.891 252.075L340.272 289.666L350.982 283.22L290.735 216.621L301.891 252.075Z" fill="url(#paint19_linear_1117_20222)"/>
<path d="M291 217L347.5 281.5" stroke="url(#paint20_linear_1117_20222)"/>
<rect x="326.32" y="222.199" width="11.2979" height="55.4661" transform="rotate(15 326.32 222.199)" fill="white" fill-opacity="0.5"/>
<rect x="337.355" y="241" width="3.17045" height="55.4661" transform="rotate(15 337.355 241)" fill="white" fill-opacity="0.5"/>
</g>
<path d="M372.25 300.272L361.176 287.393L355.062 290.69L367.085 305.101L372.25 300.272Z" fill="#351414"/>
<path d="M362.909 308.524L351.641 295.814L355.732 290.2L368.391 304.057L362.909 308.524Z" fill="#351414"/>
<path d="M359.839 269.384L334.544 292.027L341.915 304.302L371.53 278.781L371.916 267.288L359.839 269.384Z" fill="#432121"/>
<path d="M333.997 292.042L359.332 270.219L371.06 279.102L341.732 304.894L330.292 303.726L333.997 292.042Z" fill="#432121"/>
<path fill-rule="evenodd" clip-rule="evenodd" d="M364.581 218C359.721 234.429 354.934 279.267 364.581 313.152C366.244 313.837 376.033 317.602 399.441 316.917C400.311 316.892 401.194 316.867 402.085 316.842C415.351 316.467 430.501 316.039 432.443 313.152C432.52 312.119 432.1 309.868 431.474 306.509C428.988 293.17 423.246 262.368 432.443 221.08L364.581 218Z" fill="url(#paint21_linear_1117_20222)"/>
<path d="M432.443 313.152C432.443 313.152 437.122 310.769 437.122 309.045C434.05 297.554 428.483 259.689 438 221.08H432.443C423.246 262.368 428.988 293.17 431.474 306.509C432.1 309.868 432.52 312.119 432.443 313.152Z" fill="url(#paint22_linear_1117_20222)"/>
<ellipse cx="1.99159" cy="3.98317" rx="1.99159" ry="3.98317" transform="matrix(-1 0 0 1 402.984 255)" fill="#3C0D0D"/>
<ellipse cx="1.99159" cy="3.98317" rx="1.99159" ry="3.98317" transform="matrix(-1 0 0 1 376.984 251)" fill="#3C0D0D"/>
<path d="M394.477 266C394.034 267.328 393.502 269 386.002 268" stroke="#3C0D0D"/>
<path d="M404.5 250.5L396 254.5" stroke="#3C0D0D"/>
<path d="M375 246.5L379.5 252.5" stroke="#3C0D0D"/>
<path d="M377.168 185.637C369.068 193.425 362.348 204.221 360 208.646L400.06 229C413.853 228.41 441 224.67 441 214.398C441 204.221 436.158 194.929 430.875 189.619C419.605 182.54 408.424 179.737 402.701 179C394.249 179.354 382.011 183.572 377.168 185.637Z" fill="url(#paint23_linear_1117_20222)"/>
<path d="M404.87 159.033C404.516 160.431 401.476 173.593 400 180C415.585 175.457 441.323 176.942 452.244 178.253C450.827 175.807 445.751 171.992 443.389 170.39C440.202 167.944 429.959 168.206 425.237 168.643C451.447 160.955 458 155.539 458 153.792C452.244 152.044 451.359 151.608 440.733 150.297C432.232 149.249 417.415 160.052 411.069 165.585C413.194 161.741 420.514 152.335 423.908 148.113C413.725 146.803 405.313 157.286 404.87 159.033Z" fill="url(#paint24_linear_1117_20222)"/>
<path d="M352 223.316C352 222.255 354.641 213.589 358.161 207.842C361.33 206.074 382.073 200.768 392.929 199C396.449 199.884 426.229 207.105 441.339 211.379C441.339 211.379 443.293 226.053 443 229C437.367 231.476 403.931 237.905 387.648 241C381.046 239.232 352 224.642 352 223.316Z" fill="url(#paint25_linear_1117_20222)"/>
<path d="M397.024 206.451L397.462 231.824L388 233.5L383.135 231.438L386.34 206.253L392.154 205L397.024 206.451ZM414.469 211.648L416.374 228.475L405.852 230.338L404.65 208.723L414.469 211.648ZM376.506 228.629L368.992 225.445L372.988 209.13L380.222 207.571L376.506 228.629ZM431.154 216.62L432.5 225.62L424.385 227.057L421.912 213.866L431.154 216.62ZM363.757 223.228L358.5 221L362 211.5L368.104 210.184L363.757 223.228Z" fill="url(#paint26_linear_1117_20222)"/>
<mask id="mask2_1117_20222" style="mask-type:alpha" maskUnits="userSpaceOnUse" x="73" y="164" width="200" height="152">
<path d="M212.592 237.114C203.598 242.531 165.876 276.918 148.139 293.434L141.619 283.753C153.918 272.595 180.844 247.822 190.154 237.998C201.793 225.718 200.563 227.036 200.636 223.502C200.126 217.338 198.879 212.574 198.45 205.917C199.127 183.228 208.477 175.64 217.503 170.025C228.584 164.241 249.776 158.592 265.123 179.346C280.469 200.1 269.099 220.024 266.568 226.196C264.036 232.368 257.282 227.208 254.151 224.669C251.647 222.637 251.84 221.25 252.25 220.811C254.458 216.612 257.401 211.015 256.317 205.264C255.232 199.513 249.78 189.499 237.937 187.559C226.095 185.619 217.49 194.849 216.286 205.292C215.322 213.646 220.852 221.747 223.737 224.753C224.069 225.821 224.684 228.252 224.49 229.436C224.248 230.916 223.835 230.342 212.592 237.114Z" fill="url(#paint27_linear_1117_20222)"/>
<path d="M148.243 301.501C135.813 309.543 114.357 316.66 116.243 302.002C116.779 297.843 114.505 301.545 114.494 293.002C114.475 277.454 113.672 259.437 112.518 256.384C121.412 250.4 140.724 242.099 146.83 256.77C150.409 265.371 152.577 277.605 152.586 289.002C152.597 301.903 154.844 297.231 148.243 301.501Z" fill="url(#paint28_linear_1117_20222)"/>
<path d="M73.1972 251.094C77.2527 221.923 84.0363 201.352 104.21 193.944C140.742 180.528 164.756 212.909 172.213 225.371C177.973 238.592 165.111 259.444 140.728 268.374C116.345 277.304 72.7876 277.595 73.1972 251.094Z" fill="url(#paint29_linear_1117_20222)"/>
<ellipse cx="129.242" cy="281.192" rx="1.99159" ry="3.98317" fill="#3C0D0D"/>
<ellipse cx="145.175" cy="275.882" rx="1.99159" ry="3.98317" fill="#3C0D0D"/>
<path d="M134.551 287.167C134.993 288.495 137.339 289.955 140.526 287.831" stroke="#3C0D0D"/>
<path d="M147.281 313.192C144.546 314.083 137.916 315.637 133.281 314.72V302.877L141.488 296L147.281 313.192Z" fill="#200606"/>
<path d="M103.35 312.519C104.548 311.343 110.841 298.799 113.837 292.675L140.247 297.5L153.79 289L161.281 309.211C160.782 309.946 150.725 313.254 145.731 313.988C145.731 312.519 142.47 306.022 140.805 301C140.006 308.056 137.143 312.519 135.811 315.458C125.324 317.296 101.852 313.988 103.35 312.519Z" fill="url(#paint30_linear_1117_20222)"/>
<circle cx="236.746" cy="214.5" r="12.5" fill="url(#paint31_linear_1117_20222)"/>
<path d="M113.746 287C120.746 288 134.413 292.5 140.246 296.5C148.246 290.5 151.246 281.5 152.746 281.5C156.746 285 154.746 288 154.246 290C153.846 291.6 146.413 296.167 140.746 299C138.746 298.5 110.246 297 110.246 295C109.246 294.5 110.746 288 113.746 287Z" fill="#371212"/>
</mask>
<g mask="url(#mask2_1117_20222)">
<rect x="54.2461" y="73.0615" width="224.422" height="285.6" fill="url(#paint32_linear_1117_20222)"/>
</g>
<mask id="mask3_1117_20222" style="mask-type:alpha" maskUnits="userSpaceOnUse" x="290" y="148" width="168" height="169">
<mask id="mask4_1117_20222" style="mask-type:alpha" maskUnits="userSpaceOnUse" x="290" y="216" width="67" height="74">
<path d="M324.567 232.179L356.639 275.279L348.808 285.022L291.076 216.987L324.567 232.179Z" fill="url(#paint33_linear_1117_20222)"/>
<path d="M301.891 252.075L340.272 289.666L350.982 283.22L290.735 216.621L301.891 252.075Z" fill="url(#paint34_linear_1117_20222)"/>
</mask>
<g mask="url(#mask4_1117_20222)">
<path d="M324.567 232.179L356.639 275.279L348.808 285.022L291.076 216.987L324.567 232.179Z" fill="url(#paint35_linear_1117_20222)"/>
<path d="M301.891 252.075L340.272 289.666L350.982 283.22L290.735 216.621L301.891 252.075Z" fill="url(#paint36_linear_1117_20222)"/>
<path d="M291 217L347.5 281.5" stroke="url(#paint37_linear_1117_20222)"/>
<rect x="326.32" y="222.199" width="11.2979" height="55.4661" transform="rotate(15 326.32 222.199)" fill="white" fill-opacity="0.5"/>
<rect x="337.355" y="241" width="3.17045" height="55.4661" transform="rotate(15 337.355 241)" fill="white" fill-opacity="0.5"/>
</g>
<path d="M372.25 300.272L361.176 287.393L355.062 290.69L367.085 305.101L372.25 300.272Z" fill="#351414"/>
<path d="M362.909 308.524L351.641 295.814L355.732 290.2L368.391 304.057L362.909 308.524Z" fill="#351414"/>
<path d="M359.839 269.384L334.544 292.027L341.915 304.302L371.53 278.781L371.916 267.288L359.839 269.384Z" fill="#432121"/>
<path d="M333.997 292.042L359.332 270.219L371.06 279.102L341.732 304.894L330.292 303.726L333.997 292.042Z" fill="#432121"/>
<path fill-rule="evenodd" clip-rule="evenodd" d="M364.581 218C359.721 234.429 354.934 279.267 364.581 313.152C366.244 313.837 376.033 317.602 399.441 316.917C400.311 316.892 401.194 316.867 402.085 316.842C415.351 316.467 430.501 316.039 432.443 313.152C432.52 312.119 432.1 309.868 431.474 306.509C428.988 293.17 423.246 262.368 432.443 221.08L364.581 218Z" fill="url(#paint38_linear_1117_20222)"/>
<path d="M432.443 313.152C432.443 313.152 437.122 310.769 437.122 309.045C434.05 297.554 428.483 259.689 438 221.08H432.443C423.246 262.368 428.988 293.17 431.474 306.509C432.1 309.868 432.52 312.119 432.443 313.152Z" fill="url(#paint39_linear_1117_20222)"/>
<ellipse cx="1.99159" cy="3.98317" rx="1.99159" ry="3.98317" transform="matrix(-1 0 0 1 402.984 255)" fill="#3C0D0D"/>
<ellipse cx="1.99159" cy="3.98317" rx="1.99159" ry="3.98317" transform="matrix(-1 0 0 1 376.984 251)" fill="#3C0D0D"/>
<path d="M394.477 266C394.034 267.328 393.502 269 386.002 268" stroke="#3C0D0D"/>
<path d="M404.5 250.5L396 254.5" stroke="#3C0D0D"/>
<path d="M375 246.5L379.5 252.5" stroke="#3C0D0D"/>
<path d="M377.168 185.637C369.068 193.425 362.348 204.221 360 208.646L400.06 229C413.853 228.41 441 224.67 441 214.398C441 204.221 436.158 194.929 430.875 189.619C419.605 182.54 408.424 179.737 402.701 179C394.249 179.354 382.011 183.572 377.168 185.637Z" fill="url(#paint40_linear_1117_20222)"/>
<path d="M404.87 159.033C404.516 160.431 401.476 173.593 400 180C415.585 175.457 441.323 176.942 452.244 178.253C450.827 175.807 445.751 171.992 443.389 170.39C440.202 167.944 429.959 168.206 425.237 168.643C451.447 160.955 458 155.539 458 153.792C452.244 152.044 451.359 151.608 440.733 150.297C432.232 149.249 417.415 160.052 411.069 165.585C413.194 161.741 420.514 152.335 423.908 148.113C413.725 146.803 405.313 157.286 404.87 159.033Z" fill="url(#paint41_linear_1117_20222)"/>
<path d="M352 223.316C352 222.255 354.641 213.589 358.161 207.842C361.33 206.074 382.073 200.768 392.929 199C396.449 199.884 426.229 207.105 441.339 211.379C441.339 211.379 443.293 226.053 443 229C437.367 231.476 403.931 237.905 387.648 241C381.046 239.232 352 224.642 352 223.316Z" fill="url(#paint42_linear_1117_20222)"/>
<path d="M397.024 206.451L397.462 231.824L388 233.5L383.135 231.438L386.34 206.253L392.154 205L397.024 206.451ZM414.469 211.648L416.374 228.475L405.852 230.338L404.65 208.723L414.469 211.648ZM376.506 228.629L368.992 225.445L372.988 209.13L380.222 207.571L376.506 228.629ZM431.154 216.62L432.5 225.62L424.385 227.057L421.912 213.866L431.154 216.62ZM363.757 223.228L358.5 221L362 211.5L368.104 210.184L363.757 223.228Z" fill="url(#paint43_linear_1117_20222)"/>
</mask>
<g mask="url(#mask3_1117_20222)">
<rect x="264" y="52.8301" width="256.148" height="317.053" fill="url(#paint44_linear_1117_20222)"/>
</g>
<defs>
<linearGradient id="paint0_linear_1117_20222" x1="220.936" y1="161.458" x2="197.977" y2="301.599" gradientUnits="userSpaceOnUse">
<stop stop-color="#B15F34"/>
<stop offset="1" stop-color="#5D2812"/>
</linearGradient>
<linearGradient id="paint1_linear_1117_20222" x1="123.727" y1="250.661" x2="140.888" y2="299.861" gradientUnits="userSpaceOnUse">
<stop offset="0.510518" stop-color="#ECC687"/>
<stop offset="1" stop-color="#C98D44"/>
</linearGradient>
<linearGradient id="paint2_linear_1117_20222" x1="101.641" y1="195.45" x2="139.32" y2="269.534" gradientUnits="userSpaceOnUse">
<stop stop-color="#A1693E"/>
<stop offset="1" stop-color="#7B5436"/>
</linearGradient>
<linearGradient id="paint3_linear_1117_20222" x1="132.281" y1="289" x2="132.281" y2="316" gradientUnits="userSpaceOnUse">
<stop stop-color="#5C3022"/>
<stop offset="1" stop-color="#371212"/>
</linearGradient>
<linearGradient id="paint4_linear_1117_20222" x1="236.746" y1="202" x2="231.246" y2="231" gradientUnits="userSpaceOnUse">
<stop stop-color="#FFCA37"/>
<stop offset="1" stop-color="#E26F0B"/>
</linearGradient>
<linearGradient id="paint5_linear_1117_20222" x1="290.012" y1="217.296" x2="351.34" y2="282.885" gradientUnits="userSpaceOnUse">
<stop stop-color="#B2C1D4"/>
<stop offset="1" stop-color="#6A6F76"/>
</linearGradient>
<linearGradient id="paint6_linear_1117_20222" x1="290.012" y1="217.296" x2="351.34" y2="282.885" gradientUnits="userSpaceOnUse">
<stop stop-color="#B2C1D4"/>
<stop offset="1" stop-color="#6A6F76"/>
</linearGradient>
<linearGradient id="paint7_linear_1117_20222" x1="290.012" y1="217.296" x2="351.34" y2="282.885" gradientUnits="userSpaceOnUse">
<stop stop-color="#B2C1D4"/>
<stop offset="1" stop-color="#6A6F76"/>
</linearGradient>
<linearGradient id="paint8_linear_1117_20222" x1="290.012" y1="217.296" x2="351.34" y2="282.885" gradientUnits="userSpaceOnUse">
<stop stop-color="#B2C1D4"/>
<stop offset="1" stop-color="#6A6F76"/>
</linearGradient>
<linearGradient id="paint9_linear_1117_20222" x1="319.25" y1="217" x2="344.5" y2="282" gradientUnits="userSpaceOnUse">
<stop stop-color="#858DA7"/>
<stop offset="0.999994" stop-color="#545A6B"/>
</linearGradient>
<linearGradient id="paint10_linear_1117_20222" x1="398.5" y1="218" x2="398.5" y2="317" gradientUnits="userSpaceOnUse">
<stop stop-color="#F18271"/>
<stop offset="1" stop-color="#F85F47"/>
</linearGradient>
<linearGradient id="paint11_linear_1117_20222" x1="398.5" y1="218" x2="398.5" y2="317" gradientUnits="userSpaceOnUse">
<stop stop-color="#CC503D"/>
<stop offset="1" stop-color="#AD3826"/>
</linearGradient>
<linearGradient id="paint12_linear_1117_20222" x1="400.5" y1="179" x2="400.5" y2="229" gradientUnits="userSpaceOnUse">
<stop stop-color="#3B3C40"/>
<stop offset="1" stop-color="#2B2D32"/>
</linearGradient>
<linearGradient id="paint13_linear_1117_20222" x1="400" y1="180" x2="467.5" y2="151.5" gradientUnits="userSpaceOnUse">
<stop stop-color="#D4342F"/>
<stop offset="1" stop-color="#81130F"/>
</linearGradient>
<linearGradient id="paint14_linear_1117_20222" x1="397.515" y1="199" x2="397.515" y2="241" gradientUnits="userSpaceOnUse">
<stop stop-color="#494B50"/>
<stop offset="1" stop-color="#36393F"/>
</linearGradient>
<linearGradient id="paint15_linear_1117_20222" x1="395.5" y1="205" x2="395.5" y2="233.5" gradientUnits="userSpaceOnUse">
<stop stop-color="#2C2E3A"/>
<stop offset="1" stop-color="#181728"/>
</linearGradient>
<linearGradient id="paint16_linear_1117_20222" x1="290.012" y1="217.297" x2="351.34" y2="282.886" gradientUnits="userSpaceOnUse">
<stop stop-color="#B2C1D4"/>
<stop offset="1" stop-color="#6A6F76"/>
</linearGradient>
<linearGradient id="paint17_linear_1117_20222" x1="290.012" y1="217.297" x2="351.34" y2="282.886" gradientUnits="userSpaceOnUse">
<stop stop-color="#B2C1D4"/>
<stop offset="1" stop-color="#6A6F76"/>
</linearGradient>
<linearGradient id="paint18_linear_1117_20222" x1="290.012" y1="217.297" x2="351.34" y2="282.886" gradientUnits="userSpaceOnUse">
<stop stop-color="#B2C1D4"/>
<stop offset="1" stop-color="#6A6F76"/>
</linearGradient>
<linearGradient id="paint19_linear_1117_20222" x1="290.012" y1="217.297" x2="351.34" y2="282.886" gradientUnits="userSpaceOnUse">
<stop stop-color="#B2C1D4"/>
<stop offset="1" stop-color="#6A6F76"/>
</linearGradient>
<linearGradient id="paint20_linear_1117_20222" x1="319.25" y1="217" x2="344.5" y2="282" gradientUnits="userSpaceOnUse">
<stop stop-color="#858DA7"/>
<stop offset="0.999994" stop-color="#545A6B"/>
</linearGradient>
<linearGradient id="paint21_linear_1117_20222" x1="398.5" y1="218" x2="398.5" y2="317" gradientUnits="userSpaceOnUse">
<stop stop-color="#F18271"/>
<stop offset="1" stop-color="#F85F47"/>
</linearGradient>
<linearGradient id="paint22_linear_1117_20222" x1="398.5" y1="218" x2="398.5" y2="317" gradientUnits="userSpaceOnUse">
<stop stop-color="#CC503D"/>
<stop offset="1" stop-color="#AD3826"/>
</linearGradient>
<linearGradient id="paint23_linear_1117_20222" x1="400.5" y1="179" x2="400.5" y2="229" gradientUnits="userSpaceOnUse">
<stop stop-color="#3B3C40"/>
<stop offset="1" stop-color="#2B2D32"/>
</linearGradient>
<linearGradient id="paint24_linear_1117_20222" x1="400" y1="180" x2="467.5" y2="151.5" gradientUnits="userSpaceOnUse">
<stop stop-color="#D4342F"/>
<stop offset="1" stop-color="#81130F"/>
</linearGradient>
<linearGradient id="paint25_linear_1117_20222" x1="397.515" y1="199" x2="397.515" y2="241" gradientUnits="userSpaceOnUse">
<stop stop-color="#494B50"/>
<stop offset="1" stop-color="#36393F"/>
</linearGradient>
<linearGradient id="paint26_linear_1117_20222" x1="395.5" y1="205" x2="395.5" y2="233.5" gradientUnits="userSpaceOnUse">
<stop stop-color="#2C2E3A"/>
<stop offset="1" stop-color="#181728"/>
</linearGradient>
<linearGradient id="paint27_linear_1117_20222" x1="220.936" y1="161.458" x2="197.977" y2="301.599" gradientUnits="userSpaceOnUse">
<stop stop-color="#B15F34"/>
<stop offset="1" stop-color="#5D2812"/>
</linearGradient>
<linearGradient id="paint28_linear_1117_20222" x1="123.727" y1="250.662" x2="140.888" y2="299.862" gradientUnits="userSpaceOnUse">
<stop offset="0.510518" stop-color="#ECC687"/>
<stop offset="1" stop-color="#C98D44"/>
</linearGradient>
<linearGradient id="paint29_linear_1117_20222" x1="101.637" y1="195.45" x2="139.316" y2="269.534" gradientUnits="userSpaceOnUse">
<stop stop-color="#A1693E"/>
<stop offset="1" stop-color="#7B5436"/>
</linearGradient>
<linearGradient id="paint30_linear_1117_20222" x1="132.281" y1="289" x2="132.281" y2="316" gradientUnits="userSpaceOnUse">
<stop stop-color="#5C3022"/>
<stop offset="1" stop-color="#371212"/>
</linearGradient>
<linearGradient id="paint31_linear_1117_20222" x1="236.746" y1="202" x2="231.246" y2="231" gradientUnits="userSpaceOnUse">
<stop stop-color="#FFCA37"/>
<stop offset="1" stop-color="#E26F0B"/>
</linearGradient>
<linearGradient id="paint32_linear_1117_20222" x1="75.787" y1="82.9593" x2="166.457" y2="234.471" gradientUnits="userSpaceOnUse">
<stop stop-color="#0B041C" stop-opacity="0.9"/>
<stop offset="1" stop-color="#135D82" stop-opacity="0.1"/>
</linearGradient>
<linearGradient id="paint33_linear_1117_20222" x1="290.012" y1="217.297" x2="351.34" y2="282.886" gradientUnits="userSpaceOnUse">
<stop stop-color="#B2C1D4"/>
<stop offset="1" stop-color="#6A6F76"/>
</linearGradient>
<linearGradient id="paint34_linear_1117_20222" x1="290.012" y1="217.297" x2="351.34" y2="282.886" gradientUnits="userSpaceOnUse">
<stop stop-color="#B2C1D4"/>
<stop offset="1" stop-color="#6A6F76"/>
</linearGradient>
<linearGradient id="paint35_linear_1117_20222" x1="290.012" y1="217.297" x2="351.34" y2="282.886" gradientUnits="userSpaceOnUse">
<stop stop-color="#B2C1D4"/>
<stop offset="1" stop-color="#6A6F76"/>
</linearGradient>
<linearGradient id="paint36_linear_1117_20222" x1="290.012" y1="217.297" x2="351.34" y2="282.886" gradientUnits="userSpaceOnUse">
<stop stop-color="#B2C1D4"/>
<stop offset="1" stop-color="#6A6F76"/>
</linearGradient>
<linearGradient id="paint37_linear_1117_20222" x1="319.25" y1="217" x2="344.5" y2="282" gradientUnits="userSpaceOnUse">
<stop stop-color="#858DA7"/>
<stop offset="0.999994" stop-color="#545A6B"/>
</linearGradient>
<linearGradient id="paint38_linear_1117_20222" x1="398.5" y1="218" x2="398.5" y2="317" gradientUnits="userSpaceOnUse">
<stop stop-color="#F18271"/>
<stop offset="1" stop-color="#F85F47"/>
</linearGradient>
<linearGradient id="paint39_linear_1117_20222" x1="398.5" y1="218" x2="398.5" y2="317" gradientUnits="userSpaceOnUse">
<stop stop-color="#CC503D"/>
<stop offset="1" stop-color="#AD3826"/>
</linearGradient>
<linearGradient id="paint40_linear_1117_20222" x1="400.5" y1="179" x2="400.5" y2="229" gradientUnits="userSpaceOnUse">
<stop stop-color="#3B3C40"/>
<stop offset="1" stop-color="#2B2D32"/>
</linearGradient>
<linearGradient id="paint41_linear_1117_20222" x1="400" y1="180" x2="467.5" y2="151.5" gradientUnits="userSpaceOnUse">
<stop stop-color="#D4342F"/>
<stop offset="1" stop-color="#81130F"/>
</linearGradient>
<linearGradient id="paint42_linear_1117_20222" x1="397.515" y1="199" x2="397.515" y2="241" gradientUnits="userSpaceOnUse">
<stop stop-color="#494B50"/>
<stop offset="1" stop-color="#36393F"/>
</linearGradient>
<linearGradient id="paint43_linear_1117_20222" x1="395.5" y1="205" x2="395.5" y2="233.5" gradientUnits="userSpaceOnUse">
<stop stop-color="#2C2E3A"/>
<stop offset="1" stop-color="#181728"/>
</linearGradient>
<linearGradient id="paint44_linear_1117_20222" x1="520.148" y1="82.6535" x2="337.743" y2="259.958" gradientUnits="userSpaceOnUse">
<stop stop-color="#04141C" stop-opacity="0.9"/>
<stop offset="1" stop-color="#135D82" stop-opacity="0"/>
</linearGradient>
</defs>
</svg>
