<svg width="516" height="328" viewBox="0 0 516 328" fill="none" xmlns="http://www.w3.org/2000/svg">
<g clip-path="url(#clip0_1104_79173)">
<circle cx="43.5" cy="119.904" r="5.5" fill="#E3690D"/>
<circle cx="64" cy="100.404" r="3" fill="#E3690D"/>
<circle cx="47" cy="95.4043" r="3" fill="#E3690D"/>
<circle cx="126.586" cy="54.1875" r="3" fill="#E3690D"/>
<circle cx="136.086" cy="47.6875" r="1.5" fill="#E3690D"/>
<circle cx="45.4531" cy="23.5" r="1.5" fill="#E3690D"/>
<circle cx="110.633" cy="147.654" r="1.5" fill="#E3690D"/>
<circle cx="136.086" cy="56.6875" r="1.5" fill="#E3690D"/>
<circle cx="484.47" cy="251.016" r="5.5" transform="rotate(-155.203 484.47 251.016)" fill="#E3690D"/>
<circle cx="457.683" cy="260.12" r="3" transform="rotate(-155.203 457.683 260.12)" fill="#E3690D"/>
<circle cx="471.019" cy="271.789" r="3" transform="rotate(-155.203 471.019 271.789)" fill="#E3690D"/>
<circle cx="381.488" cy="275.827" r="3" transform="rotate(-155.203 381.488 275.827)" fill="#E3690D"/>
<circle cx="370.135" cy="277.744" r="1.5" transform="rotate(-155.203 370.135 277.744)" fill="#E3690D"/>
<circle cx="435.166" cy="197.669" r="1.5" transform="rotate(-155.203 435.166 197.669)" fill="#E3690D"/>
<circle cx="373.916" cy="269.573" r="1.5" transform="rotate(-155.203 373.916 269.573)" fill="#E3690D"/>
</g>
<defs>
<clipPath id="clip0_1104_79173">
<rect width="516" height="328" fill="white"/>
</clipPath>
</defs>
</svg>
