<svg width="516" height="328" viewBox="0 0 516 328" fill="none" xmlns="http://www.w3.org/2000/svg">
<path d="M290.326 84.9078C285.485 80.4149 281.423 75.724 279.997 73.9401C283.033 74.973 289.672 81.1846 292.612 84.1612C296.233 89.0521 306.078 93.5424 310.548 95.1762C312.975 96.4086 320.27 108.591 323.614 114.529C327.845 119.221 336.297 127.54 339.994 131.113C339.172 132.73 340.46 137.708 341.207 139.995C342.799 144.874 347.231 149.837 349.248 151.709C348.825 154.547 349.03 159.653 349.186 161.852C352.384 169.581 358.855 183.719 361.691 189.823C365.648 206.076 366.274 214.194 366.092 216.222C361.513 202.196 361.053 197.342 361.395 196.667C360.611 192.2 356.89 187.173 355.127 185.218C353.111 183.177 351.124 176.402 350.383 173.27C347.558 170.819 344.85 165.798 343.85 163.594C345.505 158.33 343.244 152.264 341.906 149.889C340.686 150.287 337.851 149.526 336.586 149.095C334.968 148.274 327.699 137.376 324.266 132.029C322.026 133.435 319.268 133.942 318.168 134.02C314.111 133.995 304.033 123.452 299.502 118.183C298.904 116.353 297.48 103.379 296.843 97.1197C291.591 93.4357 290.31 87.4434 290.326 84.9078Z" fill="url(#paint0_linear_1112_10062)"/>
<mask id="mask0_1112_10062" style="mask-type:alpha" maskUnits="userSpaceOnUse" x="135" y="107" width="249" height="99">
<path d="M138.555 158.867C147.271 157.215 188.159 152.506 195.473 151.313C204.355 150 226.07 147.073 240.943 145.013L242.901 143.119L255.566 141.18L267.376 137.698L269.951 138.589C284.303 134.176 305.223 127.661 313.83 125.101C320.963 123.094 360.016 110.1 368.614 107.917C377.709 113.841 383.402 133.653 383.65 140.959C383.057 141.207 382.293 141.476 381.371 141.765C381.375 145.36 380.105 151.343 378.867 154.215C352.354 160.086 304.242 164.345 276.387 167.648L274.308 168.999L262.07 170.547L249.833 174.42L247.378 174.073C220.733 182.84 175.322 199.293 148.809 205.164C146.474 203.083 142.797 198.196 141.283 194.936C140.325 195.063 139.519 195.142 138.876 195.168C136.017 188.44 132.812 168.077 138.555 158.867Z" fill="url(#paint1_linear_1112_10062)"/>
</mask>
<g mask="url(#mask0_1112_10062)">
<path d="M138.553 158.868C132.809 168.078 136.014 188.441 138.873 195.169C139.516 195.143 140.323 195.065 141.28 194.937C156.835 192.872 211.817 178.383 248.272 167.901L249.831 157.173L240.94 145.015C226.068 147.074 204.353 150.001 195.47 151.314C188.156 152.507 147.268 157.216 138.553 158.868Z" fill="url(#paint2_linear_1112_10062)"/>
<path d="M141.28 194.937C142.795 198.198 146.471 203.085 148.806 205.166C175.319 199.294 220.73 182.841 247.376 174.074L248.272 167.901C211.817 178.383 156.835 192.872 141.28 194.937Z" fill="url(#paint3_linear_1112_10062)"/>
<path d="M368.612 107.918C377.707 113.842 383.399 133.654 383.648 140.96C383.054 141.208 382.29 141.477 381.369 141.766C366.396 146.462 310.438 156.542 272.965 162.432L267.023 153.365L269.949 138.59C284.3 134.178 305.221 127.662 313.827 125.103C320.961 123.096 360.013 110.101 368.612 107.918Z" fill="url(#paint4_linear_1112_10062)"/>
<path d="M381.369 141.766C381.372 145.361 380.103 151.344 378.865 154.216C352.352 160.087 304.24 164.347 276.385 167.649L272.965 162.432C310.438 156.542 366.396 146.462 381.369 141.766Z" fill="url(#paint5_linear_1112_10062)"/>
<path d="M242.899 143.12L240.94 145.015L249.831 157.173L248.272 167.901L247.376 174.074L249.831 174.421L262.067 170.548L274.306 169.001L276.385 167.649L272.965 162.432L267.023 153.365L269.949 138.59L267.374 137.7L255.564 141.181L242.899 143.12Z" fill="url(#paint6_linear_1112_10062)"/>
<path d="M245.785 151.695C245.988 152.115 246.117 152.599 246.225 153.07C246.161 153.315 246.183 153.558 246.143 153.824C246.093 154.158 245.818 154.467 245.636 154.752C245.251 155.357 244.717 156.023 244.303 156.673C243.712 157.601 244.258 158.128 244.408 159.066C244.492 159.588 244.773 160.093 244.876 160.625C244.991 161.22 245.178 161.895 245.469 162.423C245.769 162.967 246.041 163.557 246.353 164.115C246.563 164.491 246.969 164.677 247.32 164.901C248.065 165.376 248.764 165.683 249.389 166.352C249.687 166.671 249.831 166.946 249.926 167.377C250.024 167.819 250.221 168.228 250.347 168.678C250.464 169.094 250.677 169.649 251.045 169.884C251.398 170.108 251.757 170.248 252.121 170.461C252.73 170.816 254.012 170.27 254.659 170.183C255.478 170.072 256.604 170.058 257.326 170.518C257.745 170.785 258.09 171.09 258.573 171.119C259.256 171.16 259.723 170.791 260.343 170.653C261.389 170.422 262.372 170.109 263.366 169.645C263.723 169.478 264.142 169.25 264.466 169.036C264.754 168.845 265.201 168.874 265.535 168.685C265.774 168.549 266.204 168.562 266.484 168.523C266.933 168.459 267.72 168.201 268.077 167.938C269.007 167.251 269.729 166.577 270.359 165.588C270.832 164.846 269.97 163.815 270.344 163.054C270.446 162.846 270.399 162.626 270.534 162.415L272.248 159.727C272.393 159.498 272.455 159.253 272.586 159.025C272.718 158.794 272.651 158.583 272.79 158.364C272.961 158.096 272.756 157.459 272.689 157.158C272.601 156.76 272.569 156.368 272.462 155.98C272.343 155.551 272.446 155.077 272.448 154.637C272.449 154.389 272.564 154.077 272.615 153.826C272.657 153.62 272.565 153.353 272.637 153.157C272.88 152.488 272.621 151.171 271.981 150.728C271.702 150.535 271.264 150.375 271.039 150.122C270.799 149.851 270.343 149.688 270.153 149.37C270.049 149.196 270.012 148.959 269.848 148.825C269.696 148.701 269.999 148.581 269.925 148.44C269.814 148.228 269.907 147.592 269.842 147.3C269.727 146.781 269.546 146.169 269.255 145.73C269.034 145.397 268.601 145.205 268.269 144.993C267.234 144.333 265.742 145.149 264.617 144.839C264.064 144.687 263.667 144.451 263.183 144.143C262.776 143.883 262.27 143.409 261.797 143.314C261.451 143.243 261.153 142.883 260.788 143.05C260.501 143.181 260.146 143.049 259.858 143.05C259.541 143.051 259.034 143.082 258.736 143.162C258.315 143.274 257.798 143.141 257.357 143.146C256.723 143.154 256.078 143.318 255.44 143.283C254.612 143.238 254.202 143.722 253.447 143.957C252.932 144.117 252.337 144.615 252.034 145.055C251.521 145.803 250.669 147.393 249.708 147.643C248.603 147.931 247.3 148.364 246.416 149.132C245.916 149.567 245.505 149.962 245.466 150.67C245.446 151.029 245.634 151.381 245.785 151.695Z" fill="url(#paint7_linear_1112_10062)"/>
<circle cx="258.89" cy="156.931" r="9.21001" transform="rotate(-57.4874 258.89 156.931)" fill="url(#paint8_linear_1112_10062)" stroke="#BE0000" stroke-width="1.4736"/>
</g>
<path d="M196.488 108.543C197.973 114.783 201.414 120.009 202.949 121.842C202.105 122.174 198.675 120.276 197.066 119.285C196.989 117.853 194.112 113.339 192.684 111.261C187.336 102.643 181.671 95.6931 179.507 93.2957C178.992 78.3839 173.426 67.0478 170.708 63.2438C170.631 61.8114 171.613 57.8083 172.113 55.9858C173.724 53.888 179.243 55.0037 181.801 55.8237C178.757 57.9985 176.931 60.9937 176.399 62.2194C178.472 68.7157 178.693 73.7075 178.544 75.3914C178.698 78.2561 181.955 80.9539 183.565 81.9446C185.407 84.1439 187.744 88.4234 188.682 90.2882C190.959 89.8785 192.999 90.4152 193.734 90.7347C194.655 91.8344 196.336 96.8195 197.061 99.1746C196.116 102.96 196.285 106.997 196.488 108.543Z" fill="#F84B17"/>
<path d="M249.133 221.965C249.78 225.361 257.983 228.045 262.004 228.962C258.388 230.574 250.511 226.679 247.025 224.53C244.852 221.598 234.923 216.016 230.23 213.592C218.322 204.378 209.145 200.321 206.046 199.445C200.794 193.983 188.386 186.364 182.839 183.238C180.445 181.27 172.519 172.846 168.855 168.88C166.742 166.571 157.215 162.418 152.716 160.63C149.736 155.889 134.204 140.163 126.81 132.892C126.847 130.058 124.19 126.204 122.857 124.631C119.437 121.82 116.995 116.948 118.278 118.002C119.304 118.845 122.461 121.918 123.911 123.348C125.78 123.165 127.774 125.329 128.537 126.434C132.262 132.36 135.422 135.196 136.537 135.873C137.22 136.435 141.596 136.689 143.698 136.745C146.19 136.502 154.426 144.607 158.232 148.69C159.563 152.649 162.043 156.835 163.116 158.434C165.046 158.874 167.992 160.054 169.224 160.589C174.475 166.051 178.537 168.72 179.911 169.372C183.71 169.629 189.383 169.756 191.745 169.787C194.823 172.317 198.962 175.24 200.646 176.386C209.917 181.14 213.242 184.589 213.746 185.719C215.442 193.416 223.642 199.822 227.531 202.062C229.522 203.125 230.995 208.013 231.484 210.324C232.35 212.756 239.906 216.053 243.576 217.398C247.497 218.901 248.914 221.069 249.133 221.965Z" fill="#F84B17"/>
<defs>
<linearGradient id="paint0_linear_1112_10062" x1="317" y1="120.5" x2="350.085" y2="221.448" gradientUnits="userSpaceOnUse">
<stop stop-color="#F84B17"/>
<stop offset="1" stop-color="#EE803C"/>
</linearGradient>
<linearGradient id="paint1_linear_1112_10062" x1="250.517" y1="151.582" x2="267.293" y2="162.275" gradientUnits="userSpaceOnUse">
<stop stop-color="#E91212"/>
<stop offset="1" stop-color="#770505"/>
</linearGradient>
<linearGradient id="paint2_linear_1112_10062" x1="135.869" y1="183.746" x2="381.549" y2="129.337" gradientUnits="userSpaceOnUse">
<stop stop-color="#FFE28F"/>
<stop offset="1" stop-color="#FFB765"/>
</linearGradient>
<linearGradient id="paint3_linear_1112_10062" x1="135.869" y1="183.746" x2="381.549" y2="129.337" gradientUnits="userSpaceOnUse">
<stop stop-color="#F0833E"/>
<stop offset="1" stop-color="#CA491A"/>
</linearGradient>
<linearGradient id="paint4_linear_1112_10062" x1="135.869" y1="183.746" x2="381.549" y2="129.337" gradientUnits="userSpaceOnUse">
<stop stop-color="#FFE28F"/>
<stop offset="1" stop-color="#FFB765"/>
</linearGradient>
<linearGradient id="paint5_linear_1112_10062" x1="135.869" y1="183.746" x2="381.549" y2="129.337" gradientUnits="userSpaceOnUse">
<stop stop-color="#F0833E"/>
<stop offset="1" stop-color="#CA491A"/>
</linearGradient>
<linearGradient id="paint6_linear_1112_10062" x1="236.854" y1="161.382" x2="278.897" y2="152.071" gradientUnits="userSpaceOnUse">
<stop stop-color="#C90000"/>
<stop offset="1" stop-color="#820202"/>
</linearGradient>
<linearGradient id="paint7_linear_1112_10062" x1="246.32" y1="148.929" x2="270.966" y2="164.637" gradientUnits="userSpaceOnUse">
<stop stop-color="#FF1616"/>
<stop offset="1" stop-color="#D40000"/>
</linearGradient>
<linearGradient id="paint8_linear_1112_10062" x1="258.89" y1="146.984" x2="258.89" y2="166.878" gradientUnits="userSpaceOnUse">
<stop stop-color="#FF1616"/>
<stop offset="1" stop-color="#D40000"/>
</linearGradient>
</defs>
</svg>
