<svg width="516" height="328" viewBox="0 0 516 328" fill="none" xmlns="http://www.w3.org/2000/svg">
<mask id="mask0_1083_14235" style="mask-type:alpha" maskUnits="userSpaceOnUse" x="75" y="176" width="62" height="38">
<path d="M89.3415 176.975H107.869C108.494 178.225 111.856 183.541 110.918 183.541C109.368 183.541 94.7551 182.763 89.3415 183.541C88.2004 183.705 88.4034 184.245 88.4034 184.479C88.6379 186.825 89.3415 188.935 91.4523 190.108C96.8462 191.984 109.041 190.811 114.905 190.811L136.481 211.919L133.666 213.091L126.631 212.622C122.878 209.573 115.843 200.896 113.263 198.551C111.621 197.525 94.0321 199.254 85.1202 197.847C84.4655 197.847 75.8468 196.205 75.8468 186.825C75.7767 186.018 75.8732 184.479 76.6772 182.603C78.7879 177.678 86.0581 176.975 89.3415 176.975Z" fill="#E450DA"/>
</mask>
<g mask="url(#mask0_1083_14235)">
<path d="M89.3406 176.975H107.868C108.493 178.225 112.089 181.665 111.151 181.665C109.602 181.665 94.7542 180.887 89.3406 181.665C88.1995 181.829 88.4025 184.245 88.4025 184.479C88.637 186.825 89.3406 188.935 91.4514 190.108C96.8453 191.984 109.041 190.811 114.904 190.811L130.617 207.463V210.042H123.346C119.594 206.994 116.78 202.303 114.2 199.958C112.558 198.932 90.9823 201.13 84.1811 199.02C83.5264 199.02 76.7821 197.599 75.8459 186.825C75.7758 186.018 75.7383 185.159 75.7383 184.245C76.6763 176.975 86.0572 176.975 89.3406 176.975Z" fill="url(#paint0_linear_1083_14235)"/>
</g>
<path d="M120.177 203.445C121.882 205.565 122.747 207.496 122.072 208.039C120.558 209.257 118.409 208.411 116.703 206.292C114.998 204.173 114.047 201.862 115.561 200.644C116.128 200.188 118.161 200.94 120.177 203.445Z" fill="#272222"/>
<mask id="mask1_1083_14235" style="mask-type:alpha" maskUnits="userSpaceOnUse" x="420" y="176" width="62" height="38">
<path d="M467.862 176.975H446.285C445.66 178.225 442.299 182.838 443.237 182.838C444.786 182.838 462.448 182.763 467.862 183.541C469.003 183.705 468.8 184.245 468.8 184.479C468.565 186.825 467.862 188.935 465.751 190.108C460.357 191.984 444.175 190.811 438.312 190.811L420.723 211.919L423.537 213.091H432.214C435.966 210.042 441.361 200.896 443.94 198.551C445.582 197.525 463.171 199.254 472.083 197.847C472.738 197.847 481.356 196.205 481.356 186.825C481.426 186.018 481.33 184.479 480.526 182.603C478.415 177.678 471.145 176.975 467.862 176.975Z" fill="#E450DA"/>
</mask>
<g mask="url(#mask1_1083_14235)">
<path d="M467.863 176.975H446.755C446.13 178.225 442.769 181.665 443.707 181.665C445.256 181.665 462.449 180.887 467.863 181.665C469.004 181.829 468.801 184.245 468.801 184.479C468.566 186.825 467.863 188.935 465.752 190.108C460.358 191.984 445.583 190.811 439.72 190.811L426.586 207.463V210.042H433.857C437.609 206.994 440.423 200.661 443.003 198.316C444.645 197.29 466.221 201.13 473.022 199.02C473.677 199.02 480.421 197.599 481.357 186.825C481.427 186.018 481.465 185.159 481.465 184.245C480.527 176.975 471.146 176.975 467.863 176.975Z" fill="url(#paint1_linear_1083_14235)"/>
</g>
<path d="M437.348 203.306C435.89 205.602 435.246 207.618 435.977 208.083C437.617 209.124 439.659 208.043 441.117 205.747C442.575 203.451 443.262 201.049 441.622 200.007C441.007 199.617 439.072 200.591 437.348 203.306Z" fill="#272222"/>
<path d="M389.078 113.65H348.709L345.676 53.1436L368.894 55.0221L392.111 53.1436L389.078 113.65Z" fill="url(#paint2_linear_1083_14235)" stroke="white" stroke-opacity="0.7" stroke-width="1.35351"/>
<rect x="376.891" y="26.0576" width="7.45002" height="82.9428" rx="3.15818" transform="rotate(7.42874 376.891 26.0576)" fill="#352929"/>
<ellipse cx="380.341" cy="28.0797" rx="3.85407" ry="1.55497" transform="rotate(9.82857 380.341 28.0797)" fill="#131216"/>
<circle cx="358.569" cy="110.602" r="4.45594" fill="url(#paint3_linear_1083_14235)"/>
<circle cx="353.174" cy="106.615" r="3.28332" transform="rotate(23.8709 353.174 106.615)" fill="url(#paint4_linear_1083_14235)"/>
<circle cx="367.019" cy="112.479" r="4.45594" transform="rotate(23.549 367.019 112.479)" fill="url(#paint5_linear_1083_14235)"/>
<circle cx="364.366" cy="102.327" r="4.58195" transform="rotate(23.549 364.366 102.327)" fill="url(#paint6_linear_1083_14235)"/>
<circle cx="354.366" cy="98.421" r="3.39667" transform="rotate(0.577394 354.366 98.421)" fill="url(#paint7_linear_1083_14235)"/>
<circle cx="380.618" cy="104.506" r="4.45594" transform="rotate(38.9036 380.618 104.506)" fill="url(#paint8_linear_1083_14235)"/>
<circle cx="372.178" cy="108.26" r="4.45594" transform="rotate(43.5913 372.178 108.26)" fill="url(#paint9_linear_1083_14235)"/>
<circle cx="378.742" cy="113.888" r="4.45594" transform="rotate(23.549 378.742 113.888)" fill="url(#paint10_linear_1083_14235)"/>
<circle cx="383.902" cy="110.604" r="4.45594" transform="rotate(23.549 383.902 110.604)" fill="url(#paint11_linear_1083_14235)"/>
<circle cx="373.85" cy="99.6137" r="3.59" transform="rotate(67.4047 373.85 99.6137)" fill="url(#paint12_linear_1083_14235)"/>
<circle cx="385.921" cy="95.2697" r="3.4963" transform="rotate(54.6073 385.921 95.2697)" fill="url(#paint13_linear_1083_14235)"/>
<path d="M368.197 49.4609C378.471 49.4609 387.343 50.2178 391.492 51.3125C391.486 51.2715 391.48 51.2293 391.476 51.1904C391.47 51.1366 391.458 51.0382 391.458 50.9375H393.714C393.714 50.898 393.712 50.9026 393.737 51.0811C393.755 51.2104 393.781 51.3953 393.798 51.5898C393.815 51.7811 393.828 52.0176 393.811 52.2559C393.81 52.2747 393.806 52.2947 393.804 52.3154C393.929 52.445 393.994 52.5761 393.994 52.71C393.994 54.5041 382.444 55.958 368.197 55.958C355.327 55.958 344.658 54.7716 342.715 53.2197L342.603 53.2871C342.411 52.9645 342.364 52.6198 342.348 52.4043C342.331 52.166 342.344 51.9296 342.361 51.7383C342.378 51.5437 342.404 51.3589 342.422 51.2295C342.447 51.0501 342.445 51.046 342.445 51.0859H344.701C344.701 51.1869 344.689 51.2851 344.683 51.3389C344.682 51.3507 344.68 51.3627 344.678 51.375C348.725 50.2477 357.733 49.4609 368.197 49.4609Z" fill="black"/>
<path d="M368.188 49.1113C375.28 49.1113 381.679 49.477 386.287 50.0635C388.599 50.3577 390.417 50.7022 391.634 51.0684C391.857 51.1356 392.051 51.2039 392.219 51.2666C392.051 51.3293 391.857 51.3976 391.634 51.4648C390.417 51.831 388.599 52.1755 386.287 52.4697C381.679 53.0562 375.28 53.4219 368.188 53.4219C361.097 53.4219 354.697 53.0562 350.089 52.4697C347.777 52.1755 345.96 51.831 344.743 51.4648C344.519 51.3975 344.325 51.3293 344.157 51.2666C344.325 51.2039 344.519 51.1357 344.743 51.0684C345.96 50.7022 347.777 50.3577 350.089 50.0635C354.697 49.477 361.097 49.1113 368.188 49.1113Z" fill="#1B1616" stroke="black" stroke-width="2.25585"/>
<rect x="376.891" y="26.0566" width="7.45002" height="65.4167" rx="3.15818" transform="rotate(7.42874 376.891 26.0566)" fill="#352929"/>
<ellipse cx="380.345" cy="28.0807" rx="3.85407" ry="1.55497" transform="rotate(9.82857 380.345 28.0807)" fill="#131216"/>
<path d="M371.896 62.0871C372.241 61.6863 372.169 61.0759 371.74 60.7664L360.537 52.6839C359.908 52.2305 359.039 52.728 359.111 53.4995L359.419 56.8037C359.439 57.0237 359.54 57.2286 359.702 57.3794L368.021 65.1469C368.396 65.4966 368.986 65.4646 369.321 65.0763L371.896 62.0871Z" fill="#E2CECA"/>
<path d="M376.317 52.5373C376.189 51.8037 375.277 51.5327 374.769 52.0771L367.366 60.0069C367.155 60.2324 367.074 60.5499 367.151 60.8486L368.129 64.6281C368.311 65.3318 369.207 65.5426 369.684 64.9937L376.737 56.8662C376.915 56.6611 376.991 56.3867 376.944 56.1192L376.317 52.5373Z" fill="#DFBFB1"/>
<path d="M368.113 44.3785C367.748 44.0384 367.177 44.058 366.837 44.4223L359.467 52.3163C359.112 52.6972 359.152 53.2993 359.554 53.6297L366.689 59.482C367.018 59.7519 367.491 59.7552 367.824 59.4899L375.893 53.0569C376.323 52.7135 376.349 52.0677 375.946 51.6918L368.113 44.3785Z" fill="#FAF2E6"/>
<path d="M355.574 64.8024C355.108 64.5527 354.955 63.9573 355.244 63.5142L362.788 51.9419C363.211 51.2928 364.202 51.4439 364.413 52.1897L365.314 55.3835C365.374 55.5962 365.354 55.8235 365.257 56.0223L360.29 66.2632C360.066 66.7243 359.504 66.9068 359.052 66.6648L355.574 64.8024Z" fill="#E2CECA"/>
<path d="M348.011 57.4839C347.867 56.7532 348.62 56.1723 349.29 56.4974L359.051 61.232C359.329 61.3667 359.519 61.6338 359.554 61.9403L360.002 65.8184C360.086 66.5404 359.325 67.0597 358.683 66.719L349.177 61.6738C348.938 61.5465 348.768 61.3179 348.715 61.0515L348.011 57.4839Z" fill="#DFBFB1"/>
<rect x="353.125" y="46.1074" width="12.6642" height="12.6642" rx="0.902338" transform="rotate(25.876 353.125 46.1074)" fill="#FAF2E6"/>
<path d="M375.445 64.7553C375.147 64.3183 375.287 63.7198 375.749 63.4606L387.79 56.6899C388.465 56.3101 389.274 56.9023 389.115 57.6609L388.437 60.9094C388.392 61.1257 388.269 61.3179 388.091 61.4496L378.951 68.2317C378.539 68.5371 377.956 68.4388 377.668 68.0153L375.445 64.7553Z" fill="#E2CECA"/>
<path d="M372.124 54.7697C372.334 54.0552 373.27 53.8885 373.714 54.4866L380.178 63.1991C380.362 63.4468 380.407 63.7714 380.296 64.0595L378.9 67.7051C378.64 68.3838 377.725 68.4924 377.314 67.8933L371.22 59.0238C371.066 58.8 371.021 58.5188 371.098 58.2583L372.124 54.7697Z" fill="#DFBFB1"/>
<rect x="381.918" y="47.0469" width="12.6642" height="12.6642" rx="0.902338" transform="rotate(53.4261 381.918 47.0469)" fill="#FAF2E6"/>
<path opacity="0.5" d="M389.078 113.65H348.709L345.676 53.1436L368.894 55.0221L392.111 53.1436L389.078 113.65Z" fill="url(#paint14_linear_1083_14235)"/>
<path d="M344.979 49.833C347.573 51.4653 356.981 52.6758 368.189 52.6758C379.396 52.6758 388.803 51.4657 391.399 49.834C393.056 50.2674 393.985 50.7542 393.985 51.2686C393.983 53.0817 382.434 54.5518 368.188 54.5518C353.941 54.5517 342.393 53.0817 342.391 51.2686C342.391 50.754 343.321 50.2665 344.979 49.833Z" fill="black"/>
<path d="M389.154 50.7324C390.083 50.8931 390.899 51.0621 391.585 51.2432C391.58 51.2025 391.574 51.1607 391.57 51.1221C391.563 51.0684 391.552 50.9699 391.552 50.8691H393.808C393.808 50.8292 393.806 50.8333 393.83 51.0127C393.848 51.1421 393.875 51.3271 393.892 51.5215C393.909 51.7127 393.922 51.9493 393.905 52.1875C393.903 52.2064 393.9 52.2263 393.898 52.2471C394.022 52.3764 394.088 52.507 394.088 52.6406C394.087 54.4346 382.537 55.8896 368.29 55.8896C355.42 55.8896 344.752 54.7023 342.809 53.1504L342.697 53.2178C342.505 52.8953 342.457 52.5505 342.442 52.335C342.425 52.0968 342.437 51.8602 342.454 51.6689C342.472 51.4745 342.498 51.2895 342.516 51.1602C342.541 50.9812 342.538 50.9769 342.538 51.0166H344.794C344.794 51.1174 344.783 51.2158 344.777 51.2695C344.775 51.2812 344.773 51.2936 344.772 51.3057C345.474 51.1101 346.326 50.9266 347.308 50.7539C351.402 51.9002 359.22 52.6768 368.192 52.6768C377.221 52.6767 385.082 51.8909 389.154 50.7324Z" fill="black"/>
<path d="M150.789 226.224C145.161 223.645 113.031 199.958 89.5781 158.916L150.789 161.495H291.973L445.118 157.978L452.857 161.495C446.478 187.762 425.965 215.593 416.506 226.224C389.77 231.384 186.671 233.729 150.789 226.224Z" fill="url(#paint15_linear_1083_14235)"/>
<path d="M271.804 153.711C323.539 153.711 370.37 154.525 404.262 155.84C421.21 156.497 434.908 157.279 444.36 158.146C449.092 158.581 452.73 159.033 455.172 159.496C455.81 159.617 456.353 159.737 456.803 159.853C456.353 159.968 455.81 160.089 455.172 160.21C452.73 160.673 449.092 161.126 444.36 161.56C434.908 162.427 421.21 163.21 404.262 163.867C370.37 165.182 323.539 165.996 271.804 165.996C220.068 165.996 173.237 165.182 139.346 163.867C122.397 163.21 108.7 162.427 99.2471 161.56C94.5155 161.126 90.8772 160.673 88.4355 160.21C87.7963 160.089 87.2532 159.968 86.8027 159.853C87.2532 159.737 87.7964 159.617 88.4355 159.496C90.8772 159.033 94.5155 158.581 99.2471 158.146C108.7 157.279 122.397 156.497 139.346 155.84C173.237 154.525 220.068 153.711 271.804 153.711Z" fill="#715C5C" stroke="#715C5C" stroke-width="2.25585"/>
<path d="M272.035 149.002C324.479 149.002 371.95 149.815 406.301 151.13C423.48 151.787 437.358 152.569 446.93 153.436C451.411 153.841 454.912 154.265 457.355 154.693C454.912 155.122 451.411 155.545 446.93 155.95C437.358 156.816 423.48 157.598 406.301 158.256C371.95 159.571 324.479 160.385 272.035 160.385C219.591 160.385 172.122 159.571 137.771 158.256C120.591 157.598 106.712 156.816 97.1406 155.95C92.6584 155.545 89.157 155.122 86.7139 154.693C89.157 154.265 92.6583 153.841 97.1406 153.436C106.712 152.569 120.591 151.787 137.771 151.13C172.122 149.815 219.591 149.002 272.035 149.002Z" fill="#1B1616" stroke="#715C5C" stroke-width="3.15818"/>
<path d="M459.192 159.853L446.059 161.26L445.59 156.804L462.006 154.693L459.192 159.853ZM100.367 157.039L92.1592 159.853H84.4199L82.0742 154.693L100.367 157.039Z" fill="#715C5C"/>
<path d="M193.232 118.342C192.481 116.841 191.59 104.036 191.121 96.2969H239.433L236.15 120.218C222.938 120.14 193.982 119.843 193.232 118.342Z" fill="url(#paint16_linear_1083_14235)"/>
<path d="M266.167 118.342C266.918 116.841 267.809 104.036 268.278 96.2969H219.966L223.249 120.218C236.461 120.14 265.417 119.843 266.167 118.342Z" fill="url(#paint17_linear_1083_14235)"/>
<path d="M160.168 148.818C159.229 149.932 158.319 151.014 157.447 152.055C150.52 152.256 143.966 152.473 137.831 152.708C122.781 153.284 110.284 153.955 101.01 154.692C110.284 155.43 122.781 156.102 137.831 156.678C172.156 157.991 219.605 158.806 272.035 158.806C324.465 158.806 371.915 157.991 406.24 156.678C421.29 156.102 433.786 155.43 443.061 154.692C439.545 154.413 435.566 154.143 431.161 153.884C430.737 152.98 430.203 151.884 429.584 150.633C450.05 151.793 462 153.188 462.001 154.693L461.997 154.74C461.335 158.734 376.54 161.964 272.035 161.964L262.26 161.954C161.89 161.759 82.0735 158.583 82.0703 154.693C82.0722 152.279 112.83 150.141 160.168 148.818Z" fill="#715C5C"/>
<path d="M194.187 87.3849C191.602 87.293 189.266 93.0696 188.563 94.4907C187.758 96.1961 217.285 96.3856 232.149 96.2672C232.227 93.3065 232.149 87.9179 230.274 87.9179H230.264C219.722 87.9179 209.179 87.9179 194.187 87.3849Z" fill="#FFAE52"/>
<path d="M265.458 87.3849C268.044 87.293 270.379 93.0696 271.082 94.4907C271.887 96.1961 242.36 96.3856 227.496 96.2672C227.418 93.3065 227.496 87.9179 229.371 87.9179H229.381C239.923 87.9179 250.466 87.9179 265.458 87.3849Z" fill="#FFAE52"/>
<path d="M187.836 94.1855C214.337 95.1236 247.17 95.1236 271.326 94.1855" stroke="#FB7A34" stroke-width="4.51169" stroke-miterlimit="3.8637"/>
<path d="M199.563 84.5703L193.23 87.3846L214.807 88.0882H236.617V84.5703H199.563Z" fill="#FFEA98"/>
<path d="M259.835 84.5703L266.167 87.3846L244.591 88.0882H222.78V84.5703H259.835Z" fill="#FFEA98"/>
<mask id="mask2_1083_14235" style="mask-type:alpha" maskUnits="userSpaceOnUse" x="153" y="110" width="279" height="50">
<path d="M191.829 112.009C189.953 113.885 165.25 143.435 153.133 157.976L261.014 159.149H355.997C364.815 159.524 410.329 156.96 431.983 155.631C429.169 149.252 413.69 122.015 407.358 110.133C344.271 112.947 222.083 112.009 191.829 112.009Z" fill="#355DFF"/>
</mask>
<g mask="url(#mask2_1083_14235)">
<rect x="150.082" y="101.454" width="309.104" height="65.667" fill="url(#paint18_linear_1083_14235)"/>
<path d="M436.227 149.84C381.44 153.598 357.979 153.6 283.759 153.6V153.612C233.333 153.612 203.726 153.613 155.109 151.969L155.239 148.136L155.369 144.304C203.77 145.94 233.247 145.942 283.522 145.942V145.931C357.91 145.931 381.138 145.93 435.701 142.188L436.227 149.84ZM436.217 136.707C383.433 140.226 355.193 140.466 283.759 140.467V140.479C233.333 140.479 203.726 140.479 155.109 138.835L155.369 131.171C203.694 132.805 233.155 132.81 283.286 132.81V132.798C355.033 132.798 383.072 132.564 435.707 129.055L436.217 136.707ZM155.369 118.036C203.845 119.675 233.34 119.676 283.759 119.676V127.346C233.333 127.346 203.726 127.345 155.109 125.701L155.239 121.868L155.369 118.036ZM435.963 119.746L436.219 123.572C383.314 127.099 360.689 127.099 288.916 127.099V119.429C360.672 119.429 383.077 119.429 435.708 115.92L435.963 119.746Z" fill="url(#paint19_linear_1083_14235)"/>
</g>
<mask id="mask3_1083_14235" style="mask-type:alpha" maskUnits="userSpaceOnUse" x="153" y="110" width="279" height="50">
<path d="M191.829 112.009C189.953 113.885 165.25 143.435 153.133 157.976L261.014 159.149H355.997C364.815 159.524 410.329 156.96 431.983 155.631C429.169 149.252 413.69 122.015 407.358 110.133C344.271 112.947 222.083 112.009 191.829 112.009Z" fill="#355DFF"/>
</mask>
<g mask="url(#mask3_1083_14235)">
<rect x="150.082" y="101.454" width="309.104" height="65.667" fill="url(#paint20_linear_1083_14235)"/>
<path d="M436.226 149.84C381.439 153.598 357.978 153.6 283.758 153.6V153.612C233.332 153.612 203.725 153.613 155.108 151.969L155.238 148.136L155.368 144.304C203.769 145.94 233.246 145.942 283.521 145.942V145.931C357.909 145.931 381.137 145.93 435.7 142.188L436.226 149.84ZM436.216 136.707C383.432 140.226 355.192 140.466 283.758 140.467V140.479C233.332 140.479 203.725 140.479 155.108 138.835L155.368 131.171C203.693 132.805 233.154 132.81 283.285 132.81V132.798C355.032 132.798 383.071 132.564 435.706 129.055L436.216 136.707ZM432.214 119.746L432.47 123.572C380.438 127.041 357.695 127.097 288.68 127.098V127.1C238.281 127.1 203.731 127.347 155.105 125.702L155.235 121.869L155.365 118.037C202.699 119.638 236.617 119.442 285.167 119.432V119.429C356.923 119.429 379.328 119.429 431.959 115.92L432.214 119.746Z" fill="url(#paint21_linear_1083_14235)"/>
<path d="M447.538 146.67L420.109 162.008L392.639 112.881L420.067 97.5439L447.538 146.67ZM231.597 119.253C228.745 125.425 224.409 134.834 220.671 143.002C218.801 147.087 217.084 150.855 215.777 153.749C215.124 155.197 214.577 156.418 214.167 157.346C213.962 157.81 213.796 158.191 213.67 158.485C213.607 158.632 213.556 158.75 213.519 158.842C213.5 158.887 213.485 158.923 213.475 158.949C213.465 158.974 213.46 158.986 213.459 158.988L202.09 154.615C203.124 151.927 214.92 126.304 220.538 114.144L231.597 119.253ZM331.021 155.694L327.504 156.503L321.406 130.002L324.924 129.193L331.021 155.694ZM316.739 155.844L314.952 156.099L313.166 156.354L311.29 143.221L314.862 142.711L316.739 155.844ZM276.021 129.598L277.82 129.741L275.709 156.242L272.111 155.955L274.222 129.454L276.021 129.598ZM345.056 155.098L343.332 155.63L341.607 156.163L337.62 143.265L341.069 142.198L345.056 155.098ZM390.22 154.371L388.597 155.161L386.974 155.95L374.544 130.387L377.79 128.809L390.22 154.371ZM260.778 143.436L262.562 143.715L260.686 155.676L258.902 155.396L257.119 155.116L258.996 143.156L260.778 143.436ZM405.411 153.804L403.841 154.692L402.27 155.581L395.234 143.151L398.375 141.374L405.411 153.804ZM289.788 155.396H286.179V143.2H289.788V155.396ZM234.277 142.263L235.976 142.872L231.521 155.302L228.122 154.083L232.578 141.653L234.277 142.263ZM374.526 153.715L372.881 154.457L371.236 155.198L365.842 143.238L369.133 141.754L374.526 153.715ZM290.258 131.004H286.648V117.871H290.258V131.004ZM365.886 129.641L364.207 130.301L362.527 130.962L356.898 116.656L360.258 115.334L365.886 129.641ZM267.247 117.01L264.901 130.378L263.124 130.066L261.347 129.754L263.692 116.387L267.247 117.01ZM338.273 129.35L336.534 129.832L334.796 130.315L331.277 117.651L334.756 116.685L338.273 129.35Z" fill="url(#paint22_linear_1083_14235)"/>
</g>
<path d="M316.733 188.828H329.479V197.696H317.697L334.837 218.942H323.198L312.111 205.223L301.025 218.942H289.387L306.525 197.696H294.006V188.828H307.495V181.807L316.733 178.851V188.828Z" fill="url(#paint23_linear_1083_14235)"/>
<path d="M377.141 186.241H383.791V194.001H377.141V196.219H383.796L387.121 204.348H380.334L392.108 218.942H380.469L377.141 214.823V219.127H367.903V213.684L363.654 218.942H352.016L363.788 204.348H357.93L361.255 196.219H367.903V194.001H361.251V186.241H367.903V181.807L377.141 178.851V186.241Z" fill="url(#paint24_linear_1083_14235)"/>
<path d="M343.15 202.499H346.103V188.827H343.15V202.499ZM354.971 202.499H354.973V211.366H334.28V202.499H334.282V188.827H343.147L332.801 181.807H356.631L346.285 188.827H354.971V202.499Z" fill="url(#paint25_linear_1083_14235)"/>
<mask id="mask4_1083_14235" style="mask-type:alpha" maskUnits="userSpaceOnUse" x="330" y="297" width="40" height="24">
<path d="M339.526 297.521H351.226C351.621 298.311 353.743 301.668 353.151 301.668C352.172 301.668 342.944 301.177 339.526 301.668C338.805 301.772 338.933 302.113 338.933 302.261C339.081 303.742 339.526 305.075 340.859 305.815C344.265 307 351.966 306.259 355.669 306.259L369.294 319.588L367.516 320.329L363.073 320.033C360.704 318.107 356.261 312.628 354.632 311.147C353.595 310.499 342.488 311.591 336.86 310.702C336.447 310.702 331.004 309.666 331.004 303.742C330.96 303.232 331.021 302.261 331.528 301.076C332.861 297.966 337.452 297.521 339.526 297.521Z" fill="#E450DA"/>
</mask>
<g mask="url(#mask4_1083_14235)">
<path d="M339.519 297.521H351.219C351.614 298.311 353.885 300.483 353.293 300.483C352.314 300.483 342.938 299.992 339.519 300.483C338.799 300.587 338.927 302.113 338.927 302.261C339.075 303.742 339.519 305.075 340.852 305.815C344.259 307 351.96 306.259 355.662 306.259L365.585 316.774V318.403H360.994C358.624 316.478 356.847 313.516 355.218 312.035C354.181 311.387 340.556 312.776 336.261 311.443C335.848 311.443 331.589 310.545 330.998 303.742C330.953 303.232 330.93 302.69 330.93 302.113C331.522 297.521 337.446 297.521 339.519 297.521Z" fill="#473B3B"/>
</g>
<path d="M358.996 314.237C360.073 315.576 360.619 316.795 360.193 317.138C359.237 317.907 357.88 317.373 356.803 316.035C355.726 314.697 355.125 313.238 356.081 312.468C356.44 312.18 357.723 312.655 358.996 314.237Z" fill="#272222"/>
<path d="M434.583 223.006C432.088 224.669 174.848 221.667 133.09 220.974L142.966 232.41L418.469 234.489C426.613 229.464 437.078 221.342 434.583 223.006Z" fill="#FD8224" fill-opacity="0.8"/>
<mask id="mask5_1083_14235" style="mask-type:alpha" maskUnits="userSpaceOnUse" x="471" y="297" width="40" height="24">
<path d="M501.47 297.521H487.845C487.45 298.311 485.328 301.224 485.92 301.224C486.899 301.224 498.052 301.177 501.47 301.668C502.191 301.772 502.063 302.113 502.063 302.261C501.915 303.742 501.47 305.075 500.137 305.815C496.731 307 486.512 306.259 482.81 306.259L471.702 319.588L473.48 320.329H478.959C481.329 318.403 484.735 312.628 486.364 311.147C487.401 310.499 498.508 311.591 504.136 310.702C504.55 310.702 509.992 309.666 509.992 303.742C510.036 303.232 509.975 302.261 509.468 301.076C508.135 297.966 503.544 297.521 501.47 297.521Z" fill="#E450DA"/>
</mask>
<g mask="url(#mask5_1083_14235)">
<path d="M501.473 297.521H488.144C487.749 298.311 485.626 300.483 486.219 300.483C487.197 300.483 498.054 299.992 501.473 300.483C502.193 300.587 502.065 302.113 502.065 302.261C501.917 303.742 501.473 305.075 500.14 305.815C496.734 307 487.403 306.259 483.701 306.259L475.407 316.774V318.403H479.998C482.368 316.478 484.145 312.479 485.774 310.998C486.811 310.351 500.436 312.776 504.731 311.443C505.144 311.443 509.403 310.545 509.995 303.742C510.039 303.232 510.062 302.69 510.062 302.113C509.47 297.521 503.546 297.521 501.473 297.521Z" fill="#473B3B"/>
</g>
<path d="M482.201 314.149C481.28 315.599 480.873 316.872 481.335 317.165C482.371 317.823 483.66 317.141 484.581 315.69C485.501 314.24 485.935 312.723 484.9 312.066C484.511 311.819 483.289 312.435 482.201 314.149Z" fill="#272222"/>
<path d="M371.427 320.627C369.261 319.732 356.899 311.518 347.875 297.284L371.427 298.179H425.749L484.674 296.959L487.652 298.179C485.197 307.288 477.305 316.94 473.665 320.627C463.378 322.416 385.233 323.229 371.427 320.627Z" fill="url(#paint26_linear_1083_14235)"/>
<path d="M357.25 284.114C363.504 277.86 403.749 214.229 415.442 185.405C416.53 219.668 414.082 257.737 415.442 270.79L416.53 279.763C416.53 279.763 378.188 281.123 357.25 284.114Z" fill="url(#paint27_linear_1083_14235)"/>
<path d="M415.721 176.975C420.527 176.975 424.423 183.305 424.423 191.115C424.423 196.374 422.655 200.962 420.034 203.398C418.472 206.608 417.625 210.078 417.625 212.869V287.648H413.818V212.869C413.818 210.078 412.969 206.609 411.408 203.398C408.786 200.962 407.02 196.374 407.02 191.115C407.02 183.305 410.915 176.975 415.721 176.975Z" fill="url(#paint28_linear_1083_14235)"/>
<path d="M422.247 190.843C422.247 196.399 419.325 200.904 415.721 200.904C412.117 200.904 409.195 196.399 409.195 190.843C409.195 185.286 412.117 180.782 415.721 180.782C419.325 180.782 422.247 185.286 422.247 190.843Z" fill="#463C3B"/>
<path d="M432.573 199.545C428.772 193.055 426.591 190.572 423.871 186.765C425.231 215.861 420.88 268.342 417.617 276.772C425.884 277.425 464.388 276.228 483.423 276.772C474.178 268.07 443.722 218.58 432.573 199.545Z" fill="url(#paint29_linear_1083_14235)"/>
<path d="M417.907 295.381C437.772 295.381 455.755 295.663 468.769 296.117C475.276 296.345 480.537 296.615 484.168 296.915C485.985 297.065 487.386 297.221 488.327 297.382C488.568 297.423 488.775 297.464 488.948 297.504C488.775 297.544 488.568 297.586 488.327 297.627C487.386 297.788 485.985 297.944 484.168 298.094C480.537 298.394 475.276 298.664 468.769 298.892C455.755 299.346 437.772 299.628 417.907 299.628C398.043 299.628 380.061 299.346 367.047 298.892C360.539 298.664 355.278 298.394 351.646 298.094C349.829 297.944 348.429 297.788 347.488 297.627C347.247 297.586 347.04 297.544 346.866 297.504C347.04 297.464 347.247 297.423 347.488 297.382C348.429 297.221 349.829 297.065 351.646 296.915C355.278 296.615 360.539 296.345 367.047 296.117C380.061 295.663 398.043 295.381 417.907 295.381Z" fill="#715C5C" stroke="#715C5C" stroke-width="0.779799"/>
<path d="M417.992 294.109C438.126 294.109 456.349 294.39 469.535 294.845C476.13 295.072 481.454 295.343 485.124 295.642C485.436 295.667 485.736 295.694 486.023 295.72C485.736 295.745 485.437 295.773 485.124 295.799C481.454 296.098 476.13 296.368 469.535 296.596C456.349 297.05 438.126 297.331 417.992 297.331C397.858 297.331 379.634 297.05 366.448 296.596C359.853 296.368 354.529 296.098 350.859 295.799C350.547 295.773 350.247 295.745 349.96 295.72C350.247 295.694 350.547 295.667 350.859 295.642C354.529 295.343 359.853 295.072 366.448 294.845C379.634 294.39 397.858 294.109 417.992 294.109Z" fill="#1B1616" stroke="#715C5C" stroke-width="1.80468"/>
<path d="M489.856 297.504L484.814 297.99L484.634 296.449L490.938 295.72L489.856 297.504ZM352.086 296.53L348.935 297.504H345.963L345.062 295.72L352.086 296.53Z" fill="#715C5C"/>
<mask id="mask6_1083_14235" style="mask-type:alpha" maskUnits="userSpaceOnUse" x="395" y="286" width="67" height="11">
<path d="M408.618 286.732C406.179 287.295 398.69 293.299 395.25 296.348C396.892 296.582 448.956 296.582 461.385 295.879C459.837 292.032 455.991 286.732 455.991 286.732H408.618Z" fill="#36ADB5"/>
</mask>
<g mask="url(#mask6_1083_14235)">
<rect x="394.309" y="282.511" width="70.8259" height="16.4166" fill="url(#paint30_linear_1083_14235)"/>
<path d="M430.192 289.078H403.222L392.199 293.534H431.834L430.192 289.078Z" fill="#FFA943"/>
</g>
<path d="M374.004 294.811C371.341 294.88 368.821 294.953 366.463 295.034C360.689 295.233 355.892 295.465 352.327 295.72C355.892 295.975 360.689 296.207 366.463 296.406C379.646 296.86 397.867 297.142 418 297.142C438.133 297.142 456.354 296.86 469.537 296.406C475.31 296.207 480.106 295.975 483.671 295.72C482.318 295.623 480.788 295.529 479.095 295.439C478.932 295.127 478.726 294.748 478.488 294.315C486.346 294.716 490.935 295.2 490.938 295.72L490.931 295.753C490.417 297.126 457.961 298.233 418 298.233L410.542 298.221C373.766 298.092 345.067 297.021 345.062 295.72C345.067 294.885 356.875 294.149 375.047 293.692C374.687 294.077 374.338 294.451 374.004 294.811Z" fill="#715C5C"/>
<defs>
<linearGradient id="paint0_linear_1083_14235" x1="103.177" y1="176.975" x2="103.177" y2="210.042" gradientUnits="userSpaceOnUse">
<stop offset="0.230769" stop-color="#4E4141"/>
<stop offset="1" stop-color="#312727"/>
</linearGradient>
<linearGradient id="paint1_linear_1083_14235" x1="454.026" y1="176.975" x2="454.026" y2="210.042" gradientUnits="userSpaceOnUse">
<stop offset="0.360577" stop-color="#4E4141"/>
<stop offset="1" stop-color="#312727"/>
</linearGradient>
<linearGradient id="paint2_linear_1083_14235" x1="368.894" y1="53.1436" x2="368.894" y2="113.65" gradientUnits="userSpaceOnUse">
<stop stop-color="#EBBF80"/>
<stop offset="1" stop-color="#A8540A"/>
</linearGradient>
<linearGradient id="paint3_linear_1083_14235" x1="355.286" y1="106.146" x2="359.507" y2="110.837" gradientUnits="userSpaceOnUse">
<stop stop-color="#2C0C04"/>
<stop offset="1" stop-color="#01020D"/>
</linearGradient>
<linearGradient id="paint4_linear_1083_14235" x1="350.754" y1="103.332" x2="353.865" y2="106.788" gradientUnits="userSpaceOnUse">
<stop stop-color="#2C0C04"/>
<stop offset="1" stop-color="#01020D"/>
</linearGradient>
<linearGradient id="paint5_linear_1083_14235" x1="363.736" y1="108.023" x2="367.957" y2="112.714" gradientUnits="userSpaceOnUse">
<stop stop-color="#2C0C04"/>
<stop offset="1" stop-color="#01020D"/>
</linearGradient>
<linearGradient id="paint6_linear_1083_14235" x1="360.99" y1="97.7449" x2="365.33" y2="102.568" gradientUnits="userSpaceOnUse">
<stop stop-color="#2C0C04"/>
<stop offset="1" stop-color="#01020D"/>
</linearGradient>
<linearGradient id="paint7_linear_1083_14235" x1="351.863" y1="95.0243" x2="355.081" y2="98.5997" gradientUnits="userSpaceOnUse">
<stop stop-color="#2C0C04"/>
<stop offset="1" stop-color="#01020D"/>
</linearGradient>
<linearGradient id="paint8_linear_1083_14235" x1="377.335" y1="100.05" x2="381.557" y2="104.741" gradientUnits="userSpaceOnUse">
<stop stop-color="#2C0C04"/>
<stop offset="1" stop-color="#01020D"/>
</linearGradient>
<linearGradient id="paint9_linear_1083_14235" x1="368.895" y1="103.804" x2="373.116" y2="108.494" gradientUnits="userSpaceOnUse">
<stop stop-color="#2C0C04"/>
<stop offset="1" stop-color="#01020D"/>
</linearGradient>
<linearGradient id="paint10_linear_1083_14235" x1="375.459" y1="109.432" x2="379.68" y2="114.122" gradientUnits="userSpaceOnUse">
<stop stop-color="#2C0C04"/>
<stop offset="1" stop-color="#01020D"/>
</linearGradient>
<linearGradient id="paint11_linear_1083_14235" x1="380.619" y1="106.148" x2="384.84" y2="110.839" gradientUnits="userSpaceOnUse">
<stop stop-color="#2C0C04"/>
<stop offset="1" stop-color="#01020D"/>
</linearGradient>
<linearGradient id="paint12_linear_1083_14235" x1="371.205" y1="96.0237" x2="374.606" y2="99.8027" gradientUnits="userSpaceOnUse">
<stop stop-color="#2C0C04"/>
<stop offset="1" stop-color="#01020D"/>
</linearGradient>
<linearGradient id="paint13_linear_1083_14235" x1="383.345" y1="91.7734" x2="386.657" y2="95.4537" gradientUnits="userSpaceOnUse">
<stop stop-color="#2C0C04"/>
<stop offset="1" stop-color="#01020D"/>
</linearGradient>
<linearGradient id="paint14_linear_1083_14235" x1="368.894" y1="53.1436" x2="368.894" y2="113.65" gradientUnits="userSpaceOnUse">
<stop stop-color="#EBBF80"/>
<stop offset="1" stop-color="#A8540A" stop-opacity="0.5"/>
</linearGradient>
<linearGradient id="paint15_linear_1083_14235" x1="253.69" y1="131.044" x2="253.69" y2="237.607" gradientUnits="userSpaceOnUse">
<stop stop-color="#312828"/>
<stop offset="1" stop-color="#0B0909"/>
</linearGradient>
<linearGradient id="paint16_linear_1083_14235" x1="191.121" y1="88.419" x2="191.121" y2="132.603" gradientUnits="userSpaceOnUse">
<stop stop-color="#FFC05B"/>
<stop offset="1" stop-color="#F97832"/>
</linearGradient>
<linearGradient id="paint17_linear_1083_14235" x1="191.121" y1="88.419" x2="191.121" y2="132.603" gradientUnits="userSpaceOnUse">
<stop stop-color="#FFC05B"/>
<stop offset="1" stop-color="#F97832"/>
</linearGradient>
<linearGradient id="paint18_linear_1083_14235" x1="150.082" y1="134.288" x2="459.186" y2="134.288" gradientUnits="userSpaceOnUse">
<stop stop-color="#F8F3C1"/>
<stop offset="1" stop-color="#FFCE97"/>
</linearGradient>
<linearGradient id="paint19_linear_1083_14235" x1="155.109" y1="134.766" x2="436.227" y2="134.766" gradientUnits="userSpaceOnUse">
<stop stop-color="#380F0C"/>
<stop offset="1" stop-color="#19000E"/>
</linearGradient>
<linearGradient id="paint20_linear_1083_14235" x1="150.082" y1="134.288" x2="459.186" y2="134.288" gradientUnits="userSpaceOnUse">
<stop stop-color="#F8F3C1"/>
<stop offset="1" stop-color="#FFCE97"/>
</linearGradient>
<linearGradient id="paint21_linear_1083_14235" x1="155.105" y1="134.766" x2="436.226" y2="134.766" gradientUnits="userSpaceOnUse">
<stop stop-color="#FFB247"/>
<stop offset="1" stop-color="#FD5A20"/>
</linearGradient>
<linearGradient id="paint22_linear_1083_14235" x1="202.09" y1="129.776" x2="447.538" y2="129.776" gradientUnits="userSpaceOnUse">
<stop stop-color="#F8F3C1"/>
<stop offset="1" stop-color="#FFCE97"/>
</linearGradient>
<linearGradient id="paint23_linear_1083_14235" x1="312.112" y1="178.851" x2="312.112" y2="218.942" gradientUnits="userSpaceOnUse">
<stop stop-color="#BF290F"/>
<stop offset="1" stop-color="#9A1212"/>
</linearGradient>
<linearGradient id="paint24_linear_1083_14235" x1="372.062" y1="178.851" x2="372.062" y2="219.127" gradientUnits="userSpaceOnUse">
<stop stop-color="#BF290F"/>
<stop offset="1" stop-color="#9A1212"/>
</linearGradient>
<linearGradient id="paint25_linear_1083_14235" x1="344.716" y1="181.807" x2="344.716" y2="211.366" gradientUnits="userSpaceOnUse">
<stop stop-color="#BF290F"/>
<stop offset="1" stop-color="#9A1212"/>
</linearGradient>
<linearGradient id="paint26_linear_1083_14235" x1="347.875" y1="329.615" x2="347.875" y2="292.708" gradientUnits="userSpaceOnUse">
<stop stop-color="#0F0C0C"/>
<stop offset="1" stop-color="#241D1D"/>
</linearGradient>
<linearGradient id="paint27_linear_1083_14235" x1="382.077" y1="217.335" x2="414.305" y2="283.871" gradientUnits="userSpaceOnUse">
<stop stop-color="#FBF7EA"/>
<stop offset="1" stop-color="#EECF95"/>
</linearGradient>
<linearGradient id="paint28_linear_1083_14235" x1="415.721" y1="176.975" x2="415.721" y2="287.648" gradientUnits="userSpaceOnUse">
<stop stop-color="#6C625F"/>
<stop offset="1" stop-color="#392F2D"/>
</linearGradient>
<linearGradient id="paint29_linear_1083_14235" x1="402.87" y1="203.3" x2="450.52" y2="276.973" gradientUnits="userSpaceOnUse">
<stop stop-color="#FBF7EA"/>
<stop offset="1" stop-color="#EECF95"/>
</linearGradient>
<linearGradient id="paint30_linear_1083_14235" x1="394.309" y1="290.719" x2="465.135" y2="290.719" gradientUnits="userSpaceOnUse">
<stop stop-color="#F8EDBA"/>
<stop offset="1" stop-color="#FED49D"/>
</linearGradient>
</defs>
</svg>
