<svg width="1280" height="832" viewBox="0 0 1280 832" fill="none" xmlns="http://www.w3.org/2000/svg">
<g clip-path="url(#clip0_1109_79658)">
<ellipse cx="640.5" cy="535" rx="328.5" ry="312" fill="url(#paint0_linear_1109_79658)"/>
<path d="M1025.96 546.15C1030.16 548.878 1041.19 542.982 1046.18 539.693C1044.24 545.093 1032.27 549.433 1026.53 550.927C1021.28 550.263 1005.49 555.059 998.244 557.54C976.664 560.767 963.221 566.305 959.197 568.671C948.216 568.692 927.805 574.04 918.972 576.712C914.514 577.245 897.752 577.096 889.929 576.955C885.394 576.851 871.498 582.658 865.117 585.575C857.169 583.942 825.14 584.434 810.12 584.885C807.191 582.004 800.494 580.921 797.511 580.739C791.142 581.501 783.595 579.173 785.984 578.888C787.895 578.659 794.275 578.435 797.226 578.351C798.908 576.211 803.171 576.294 805.092 576.602C815.027 578.645 821.163 578.18 822.989 577.692C824.263 577.54 828.914 573.215 831.081 571.072C833.324 568.219 850.062 567.725 858.151 567.834C863.628 570.409 870.495 572.011 873.244 572.49C875.64 570.911 879.827 569.01 881.621 568.257C892.602 568.236 899.466 566.662 901.526 565.877C905.604 562.159 911.423 556.348 913.823 553.908C919.556 553.222 926.764 551.822 929.652 551.207C943.921 546.27 950.863 546.248 952.551 546.853C962.306 552.793 977.23 550.631 983.472 548.808C986.581 547.79 993.174 551.147 996.082 552.953C999.495 554.483 1010.52 549.88 1015.61 547.388C1021.11 544.791 1024.8 545.481 1025.96 546.15Z" fill="#F84B17"/>
<path d="M508.267 574.232C511.224 578.276 523.632 576.69 529.466 575.391C525.734 579.749 513.001 579.546 507.102 578.9C502.434 576.413 485.967 575.278 478.316 575.021C457 570.362 442.466 570.757 437.863 571.537C427.593 567.651 406.615 565.39 397.409 564.745C393.052 563.658 377.44 557.558 370.178 554.643C365.977 552.933 350.924 553.419 343.923 553.875C337.075 549.522 306.966 538.591 292.767 533.669C291.054 529.936 285.18 526.542 282.457 525.311C276.233 523.758 270.008 518.898 272.342 519.481C274.209 519.947 280.252 522.006 283.04 522.977C285.373 521.576 289.328 523.169 291.014 524.141C299.573 529.583 305.473 531.331 307.353 531.525C308.598 531.835 314.483 529.447 317.27 528.215C320.381 526.346 336.201 531.838 343.722 534.817C347.924 539.171 353.773 543.111 356.172 544.536C358.973 543.912 363.562 543.625 365.507 543.56C375.777 547.446 382.753 548.415 384.957 548.414C390.09 546.39 397.596 543.029 400.707 541.601C406.309 542.999 413.544 544.254 416.461 544.707C431.553 545.168 438.049 547.616 439.411 548.782C446.416 557.803 461.133 561.091 467.616 561.607C470.883 561.761 475.851 567.243 477.926 569.965C480.572 572.609 492.513 572.229 498.153 571.708C504.22 571.239 507.424 573.195 508.267 574.232Z" fill="#F84B17"/>
<path d="M976.344 650.415C982.117 647.207 987.837 644.802 989.976 644C988.051 646.566 980.086 650.949 976.344 652.82C970.571 654.745 963.247 662.71 960.307 666.452C958.382 668.377 944.537 671.53 937.855 672.867C932.081 675.433 921.55 680.886 917.006 683.291C915.723 682.008 910.591 681.687 908.186 681.687C903.054 681.687 896.96 684.36 894.554 685.697C891.988 684.414 887.07 683.024 884.932 682.489C876.593 683.131 861.143 684.895 854.461 685.697C837.783 684.414 829.871 682.489 828 681.687C842.754 681.687 847.512 682.757 848.046 683.291C852.537 683.933 858.471 681.955 860.876 680.886C863.442 679.603 870.499 679.816 873.706 680.084C876.913 678.159 882.526 677.143 884.932 676.876C889.422 680.084 895.891 679.816 898.564 679.282C898.564 677.999 900.167 675.54 900.969 674.471C902.252 673.188 914.868 669.659 921.016 668.056C920.374 665.49 920.749 662.71 921.016 661.641C922.299 657.792 935.449 651.484 941.864 648.811C943.789 648.811 956.565 651.484 962.713 652.82C967.844 648.972 973.939 649.613 976.344 650.415Z" fill="#F84B17"/>
<path d="M360.049 417.582C360.557 418.333 365.105 421.008 366.68 421.312C360.767 421.477 347.149 416.725 341.789 414.873C332.314 408.961 324.372 404.978 322.535 404.623C317.024 403.559 311.457 394.318 314.938 397.439C317.722 399.937 322.617 401.372 324.717 401.777C327.115 402.894 329.611 404.628 330.559 405.355C337.466 403.422 341.191 403.869 342.19 404.334C343.449 404.577 347.577 410.274 349.483 413.092C349.483 413.092 350.575 411.67 353.723 412.277C356.872 412.885 359.412 416.64 360.048 417.581L360.049 417.582Z" fill="#F84B17"/>
<path d="M377.687 686.019C381.536 684.736 388.646 691.097 391.319 694.037C393.243 695.943 380.628 694.029 374.48 693.235C371.914 691.952 361.116 687.355 356.037 685.217C347.698 682.009 341.871 679.069 340 678C350.264 678.641 354.968 681.475 356.037 682.811C361.811 686.66 372.876 686.553 377.687 686.019Z" fill="#F84B17"/>
<path d="M427.887 680.411C424.968 678.116 418.293 674.03 414.95 676.042C410.771 678.557 422.529 679.943 427.887 680.411Z" fill="#F84B17"/>
<path d="M847.443 748.062C845.037 748.863 834.346 756.615 829 759.287C829.802 760.089 837.019 760.089 840.226 758.486C843.812 756.693 850.186 747.147 847.443 748.062Z" fill="#F84B17"/>
</g>
<defs>
<linearGradient id="paint0_linear_1109_79658" x1="641" y1="467" x2="640.5" y2="847" gradientUnits="userSpaceOnUse">
<stop stop-color="#280505"/>
<stop offset="1" stop-color="#BA3C0B"/>
</linearGradient>
<clipPath id="clip0_1109_79658">
<rect width="1477" height="860.898" fill="white" transform="translate(-98 -14)"/>
</clipPath>
</defs>
</svg>
