<svg width="2453" height="560" viewBox="0 0 2453 560" fill="none" xmlns="http://www.w3.org/2000/svg">
<path d="M0 560H2453C2369.27 409.407 2166 105.207 1792.13 27.2449C1418.26 -50.7173 1454.73 63.4216 1215 63.4216C974.728 63.4216 968.5 -27.4159 635 27.2449C301.5 81.9057 76.6184 408.051 0 560Z" fill="url(#paint0_linear_1100_18906)"/>
<path d="M1135.96 214H1041.34L1023.19 240.687H1131.41L1135.96 214Z" fill="#FFD2A1"/>
<path d="M1138 202H1049.5L1041.34 214H1135.96L1138 202Z" fill="#FFD2A1"/>
<path d="M1138 226V202L1135.96 214V240.687L1138 226Z" fill="#E59845"/>
<path d="M1135.96 240.687V214L1131.41 240.687V273.348L1135.96 240.687Z" fill="#E59845"/>
<path d="M979.103 305.5L903.604 416.5H1101.45L1117.77 320.704L1117.5 309H979.103V305.5Z" fill="#FFD2A1"/>
<path d="M1120.36 305.5H979.103V309H1117.5L1117.77 320.704L1118.79 364L1120.36 352.672V305.5Z" fill="#FBB272"/>
<path d="M806 560H1077L1099 420.5H903.604H900.883L806 560Z" fill="#FFD2A1"/>
<path d="M1077 560H1091.5L1101.04 491.5L1099 420.5L1077 560Z" fill="#E59845"/>
<path d="M1101.45 416.5L1103.54 473.5L1118.79 364L1117.77 320.704L1101.45 416.5Z" fill="#E59845"/>
<path d="M1101.45 416.5H903.604V420.5H1099L1101.04 491.5L1103.54 473.5L1101.45 416.5Z" fill="#FBB272"/>
<path d="M1023.19 240.687L979.103 305.5H1120.36L1129.72 250.611L1129.5 242.5L1023.19 242V240.687Z" fill="#FFD2A1"/>
<path d="M1120.36 305.5V352.672L1130.5 279.871L1129.72 250.611L1120.36 305.5Z" fill="#E59845"/>
<path d="M1131.41 240.687H1023.19V242L1129.5 242.5L1129.72 250.611L1130.5 279.871L1131.41 273.348V240.687Z" fill="#FBB272"/>
<defs>
<linearGradient id="paint0_linear_1100_18906" x1="1197.25" y1="-69.9824" x2="1181.05" y2="813.282" gradientUnits="userSpaceOnUse">
<stop stop-color="#FD8224"/>
<stop offset="0.461538" stop-color="#F75116"/>
<stop offset="1" stop-color="#F75116" stop-opacity="0"/>
</linearGradient>
</defs>
</svg>
