<svg width="699" height="739" viewBox="0 0 699 739" fill="none" xmlns="http://www.w3.org/2000/svg">
<g clip-path="url(#clip0_1100_31518)">
<mask id="mask0_1100_31518" style="mask-type:alpha" maskUnits="userSpaceOnUse" x="22" y="-22" width="1118" height="1100">
<rect x="-0.0261208" y="0.460596" width="897.087" height="671.348" transform="matrix(-0.746009 0.665936 0.665936 0.746009 691.37 -21.8656)" fill="url(#paint0_linear_1100_31518)" stroke="#B12C2E" stroke-width="0.652427"/>
</mask>
<g mask="url(#mask0_1100_31518)">
<circle cx="38.5307" cy="38.5307" r="37.537" transform="matrix(-0.746009 0.665936 0.665936 0.746009 649.062 120.427)" fill="#451D12" stroke="#5A2122" stroke-width="1.98737"/>
<circle cx="30.9468" cy="30.9468" r="29.9532" transform="matrix(-0.746009 0.665936 0.665936 0.746009 648.453 131.135)" fill="#451D12" stroke="#5A2122" stroke-width="1.98737"/>
<circle cx="23.3842" cy="23.3842" r="22.3905" transform="matrix(-0.746009 0.665936 0.665936 0.746009 647.848 141.813)" fill="#451D12" stroke="#5A2122" stroke-width="1.98737"/>
<circle cx="16.1359" cy="16.1359" r="15.1422" transform="matrix(-0.746009 0.665936 0.665936 0.746009 647.27 152.047)" fill="#451D12" stroke="#5A2122" stroke-width="1.98737"/>
<circle cx="38.5307" cy="38.5307" r="37.537" transform="matrix(-0.746009 0.665936 0.665936 0.746009 707.434 70.0957)" fill="#451D12" stroke="#5A2122" stroke-width="1.98737"/>
<circle cx="30.9468" cy="30.9468" r="29.9532" transform="matrix(-0.746009 0.665936 0.665936 0.746009 706.824 80.8027)" fill="#451D12" stroke="#5A2122" stroke-width="1.98737"/>
<circle cx="23.3842" cy="23.3842" r="22.3905" transform="matrix(-0.746009 0.665936 0.665936 0.746009 706.219 91.4814)" fill="#451D12" stroke="#5A2122" stroke-width="1.98737"/>
<circle cx="16.1359" cy="16.1359" r="15.1422" transform="matrix(-0.746009 0.665936 0.665936 0.746009 705.641 101.715)" fill="#451D12" stroke="#5A2122" stroke-width="1.98737"/>
<circle cx="38.5307" cy="38.5307" r="37.537" transform="matrix(-0.746009 0.665936 0.665936 0.746009 695.906 115.042)" fill="#451D12" stroke="#5A2122" stroke-width="1.98737"/>
<circle cx="30.9468" cy="30.9468" r="29.9532" transform="matrix(-0.746009 0.665936 0.665936 0.746009 695.297 125.75)" fill="#451D12" stroke="#5A2122" stroke-width="1.98737"/>
<circle cx="23.3842" cy="23.3842" r="22.3905" transform="matrix(-0.746009 0.665936 0.665936 0.746009 694.691 136.429)" fill="#451D12" stroke="#5A2122" stroke-width="1.98737"/>
<circle cx="16.1359" cy="16.1359" r="15.1422" transform="matrix(-0.746009 0.665936 0.665936 0.746009 694.113 146.662)" fill="#451D12" stroke="#5A2122" stroke-width="1.98737"/>
<circle cx="38.5307" cy="38.5307" r="37.537" transform="matrix(-0.746009 0.665936 0.665936 0.746009 638.418 166.359)" fill="#451D12" stroke="#5A2122" stroke-width="1.98737"/>
<circle cx="30.9468" cy="30.9468" r="29.9532" transform="matrix(-0.746009 0.665936 0.665936 0.746009 637.809 177.069)" fill="#451D12" stroke="#5A2122" stroke-width="1.98737"/>
<circle cx="23.3842" cy="23.3842" r="22.3905" transform="matrix(-0.746009 0.665936 0.665936 0.746009 637.203 187.748)" fill="#451D12" stroke="#5A2122" stroke-width="1.98737"/>
<circle cx="16.1359" cy="16.1359" r="15.1422" transform="matrix(-0.746009 0.665936 0.665936 0.746009 636.621 197.982)" fill="#451D12" stroke="#5A2122" stroke-width="1.98737"/>
<circle cx="38.5307" cy="38.5307" r="37.537" transform="matrix(-0.746009 0.665936 0.665936 0.746009 685.469 161.207)" fill="#451D12" stroke="#5A2122" stroke-width="1.98737"/>
<circle cx="30.9468" cy="30.9468" r="29.9532" transform="matrix(-0.746009 0.665936 0.665936 0.746009 684.859 171.917)" fill="#451D12" stroke="#5A2122" stroke-width="1.98737"/>
<circle cx="23.3842" cy="23.3842" r="22.3905" transform="matrix(-0.746009 0.665936 0.665936 0.746009 684.254 182.595)" fill="#451D12" stroke="#5A2122" stroke-width="1.98737"/>
<circle cx="16.1359" cy="16.1359" r="15.1422" transform="matrix(-0.746009 0.665936 0.665936 0.746009 683.676 192.827)" fill="#451D12" stroke="#5A2122" stroke-width="1.98737"/>
<circle cx="38.5307" cy="38.5307" r="37.537" transform="matrix(-0.746009 0.665936 0.665936 0.746009 627.98 212.525)" fill="#451D12" stroke="#5A2122" stroke-width="1.98737"/>
<circle cx="30.9468" cy="30.9468" r="29.9532" transform="matrix(-0.746009 0.665936 0.665936 0.746009 627.371 223.234)" fill="#451D12" stroke="#5A2122" stroke-width="1.98737"/>
<circle cx="23.3842" cy="23.3842" r="22.3905" transform="matrix(-0.746009 0.665936 0.665936 0.746009 626.766 233.912)" fill="#451D12" stroke="#5A2122" stroke-width="1.98737"/>
<circle cx="16.1359" cy="16.1359" r="15.1422" transform="matrix(-0.746009 0.665936 0.665936 0.746009 626.188 244.146)" fill="#451D12" stroke="#5A2122" stroke-width="1.98737"/>
<circle cx="38.5307" cy="38.5307" r="37.537" transform="matrix(-0.746009 0.665936 0.665936 0.746009 742.957 109.891)" fill="#451D12" stroke="#5A2122" stroke-width="1.98737"/>
<circle cx="30.9468" cy="30.9468" r="29.9532" transform="matrix(-0.746009 0.665936 0.665936 0.746009 742.348 120.598)" fill="#451D12" stroke="#5A2122" stroke-width="1.98737"/>
<circle cx="38.5307" cy="38.5307" r="37.537" transform="matrix(-0.746009 0.665936 0.665936 0.746009 730.723 154.047)" fill="#451D12" stroke="#5A2122" stroke-width="1.98737"/>
<circle cx="30.9468" cy="30.9468" r="29.9532" transform="matrix(-0.746009 0.665936 0.665936 0.746009 730.117 164.753)" fill="#451D12" stroke="#5A2122" stroke-width="1.98737"/>
<circle cx="23.3842" cy="23.3842" r="22.3905" transform="matrix(-0.746009 0.665936 0.665936 0.746009 729.512 175.431)" fill="#451D12" stroke="#5A2122" stroke-width="1.98737"/>
<circle cx="38.5307" cy="38.5307" r="37.537" transform="matrix(-0.746009 0.665936 0.665936 0.746009 673.234 205.361)" fill="#451D12" stroke="#5A2122" stroke-width="1.98737"/>
<circle cx="30.9468" cy="30.9468" r="29.9532" transform="matrix(-0.746009 0.665936 0.665936 0.746009 672.625 216.071)" fill="#451D12" stroke="#5A2122" stroke-width="1.98737"/>
<circle cx="23.3842" cy="23.3842" r="22.3905" transform="matrix(-0.746009 0.665936 0.665936 0.746009 672.02 226.748)" fill="#451D12" stroke="#5A2122" stroke-width="1.98737"/>
<circle cx="16.1359" cy="16.1359" r="15.1422" transform="matrix(-0.746009 0.665936 0.665936 0.746009 671.438 236.983)" fill="#451D12" stroke="#5A2122" stroke-width="1.98737"/>
<circle cx="38.5307" cy="38.5307" r="37.537" transform="matrix(-0.746009 0.665936 0.665936 0.746009 718.48 198.191)" fill="#451D12" stroke="#5A2122" stroke-width="1.98737"/>
<circle cx="30.9468" cy="30.9468" r="29.9532" transform="matrix(-0.746009 0.665936 0.665936 0.746009 717.871 208.899)" fill="#451D12" stroke="#5A2122" stroke-width="1.98737"/>
<circle cx="23.3842" cy="23.3842" r="22.3905" transform="matrix(-0.746009 0.665936 0.665936 0.746009 717.27 219.576)" fill="#451D12" stroke="#5A2122" stroke-width="1.98737"/>
<circle cx="16.1359" cy="16.1359" r="15.1422" transform="matrix(-0.746009 0.665936 0.665936 0.746009 716.688 229.812)" fill="#451D12" stroke="#5A2122" stroke-width="1.98737"/>
<circle cx="38.5307" cy="38.5307" r="37.537" transform="matrix(-0.746009 0.665936 0.665936 0.746009 476.598 274.38)" fill="#451D12" stroke="#5A2122" stroke-width="1.98737"/>
<circle cx="30.9468" cy="30.9468" r="29.9532" transform="matrix(-0.746009 0.665936 0.665936 0.746009 475.988 285.088)" fill="#451D12" stroke="#5A2122" stroke-width="1.98737"/>
<circle cx="23.3842" cy="23.3842" r="22.3905" transform="matrix(-0.746009 0.665936 0.665936 0.746009 475.383 295.767)" fill="#451D12" stroke="#5A2122" stroke-width="1.98737"/>
<circle cx="16.1359" cy="16.1359" r="15.1422" transform="matrix(-0.746009 0.665936 0.665936 0.746009 474.805 306)" fill="#451D12" stroke="#5A2122" stroke-width="1.98737"/>
<circle cx="38.5307" cy="38.5307" r="37.537" transform="matrix(-0.746009 0.665936 0.665936 0.746009 419.109 325.697)" fill="#451D12" stroke="#5A2122" stroke-width="1.98737"/>
<circle cx="30.9468" cy="30.9468" r="29.9532" transform="matrix(-0.746009 0.665936 0.665936 0.746009 418.5 336.407)" fill="#451D12" stroke="#5A2122" stroke-width="1.98737"/>
<circle cx="23.3842" cy="23.3842" r="22.3905" transform="matrix(-0.746009 0.665936 0.665936 0.746009 417.895 347.084)" fill="#451D12" stroke="#5A2122" stroke-width="1.98737"/>
<circle cx="16.1359" cy="16.1359" r="15.1422" transform="matrix(-0.746009 0.665936 0.665936 0.746009 417.316 357.317)" fill="#451D12" stroke="#5A2122" stroke-width="1.98737"/>
<circle cx="38.5307" cy="38.5307" r="37.537" transform="matrix(-0.746009 0.665936 0.665936 0.746009 361.637 377)" fill="#451D12" stroke="#5A2122" stroke-width="1.98737"/>
<circle cx="30.9468" cy="30.9468" r="29.9532" transform="matrix(-0.746009 0.665936 0.665936 0.746009 361.031 387.707)" fill="#451D12" stroke="#5A2122" stroke-width="1.98737"/>
<circle cx="23.3842" cy="23.3842" r="22.3905" transform="matrix(-0.746009 0.665936 0.665936 0.746009 360.422 398.387)" fill="#451D12" stroke="#5A2122" stroke-width="1.98737"/>
<circle cx="16.1359" cy="16.1359" r="15.1422" transform="matrix(-0.746009 0.665936 0.665936 0.746009 359.844 408.62)" fill="#451D12" stroke="#5A2122" stroke-width="1.98737"/>
<circle cx="38.5307" cy="38.5307" r="37.537" transform="matrix(-0.746009 0.665936 0.665936 0.746009 523.445 268.995)" fill="#451D12" stroke="#5A2122" stroke-width="1.98737"/>
<circle cx="30.9468" cy="30.9468" r="29.9532" transform="matrix(-0.746009 0.665936 0.665936 0.746009 522.836 279.704)" fill="#451D12" stroke="#5A2122" stroke-width="1.98737"/>
<circle cx="23.3842" cy="23.3842" r="22.3905" transform="matrix(-0.746009 0.665936 0.665936 0.746009 522.23 290.382)" fill="#451D12" stroke="#5A2122" stroke-width="1.98737"/>
<circle cx="16.1359" cy="16.1359" r="15.1422" transform="matrix(-0.746009 0.665936 0.665936 0.746009 521.652 300.615)" fill="#451D12" stroke="#5A2122" stroke-width="1.98737"/>
<circle cx="38.5307" cy="38.5307" r="37.537" transform="matrix(-0.746009 0.665936 0.665936 0.746009 465.953 320.312)" fill="#451D12" stroke="#5A2122" stroke-width="1.98737"/>
<circle cx="30.9468" cy="30.9468" r="29.9532" transform="matrix(-0.746009 0.665936 0.665936 0.746009 465.344 331.021)" fill="#451D12" stroke="#5A2122" stroke-width="1.98737"/>
<circle cx="23.3842" cy="23.3842" r="22.3905" transform="matrix(-0.746009 0.665936 0.665936 0.746009 464.738 341.699)" fill="#451D12" stroke="#5A2122" stroke-width="1.98737"/>
<circle cx="16.1359" cy="16.1359" r="15.1422" transform="matrix(-0.746009 0.665936 0.665936 0.746009 464.16 351.933)" fill="#451D12" stroke="#5A2122" stroke-width="1.98737"/>
<circle cx="38.5307" cy="38.5307" r="37.537" transform="matrix(-0.746009 0.665936 0.665936 0.746009 408.465 371.633)" fill="#451D12" stroke="#5A2122" stroke-width="1.98737"/>
<circle cx="30.9468" cy="30.9468" r="29.9532" transform="matrix(-0.746009 0.665936 0.665936 0.746009 407.855 382.342)" fill="#451D12" stroke="#5A2122" stroke-width="1.98737"/>
<circle cx="23.3842" cy="23.3842" r="22.3905" transform="matrix(-0.746009 0.665936 0.665936 0.746009 407.25 393.02)" fill="#451D12" stroke="#5A2122" stroke-width="1.98737"/>
<circle cx="16.1359" cy="16.1359" r="15.1422" transform="matrix(-0.746009 0.665936 0.665936 0.746009 406.672 403.253)" fill="#451D12" stroke="#5A2122" stroke-width="1.98737"/>
<circle cx="38.5307" cy="38.5307" r="37.537" transform="matrix(-0.746009 0.665936 0.665936 0.746009 513.004 315.16)" fill="#451D12" stroke="#5A2122" stroke-width="1.98737"/>
<circle cx="30.9468" cy="30.9468" r="29.9532" transform="matrix(-0.746009 0.665936 0.665936 0.746009 512.395 325.869)" fill="#451D12" stroke="#5A2122" stroke-width="1.98737"/>
<circle cx="23.3842" cy="23.3842" r="22.3905" transform="matrix(-0.746009 0.665936 0.665936 0.746009 511.789 336.547)" fill="#451D12" stroke="#5A2122" stroke-width="1.98737"/>
<circle cx="16.1359" cy="16.1359" r="15.1422" transform="matrix(-0.746009 0.665936 0.665936 0.746009 511.211 346.78)" fill="#451D12" stroke="#5A2122" stroke-width="1.98737"/>
<circle cx="38.5307" cy="38.5307" r="37.537" transform="matrix(-0.746009 0.665936 0.665936 0.746009 455.516 366.48)" fill="#451D12" stroke="#5A2122" stroke-width="1.98737"/>
<circle cx="30.9468" cy="30.9468" r="29.9532" transform="matrix(-0.746009 0.665936 0.665936 0.746009 454.906 377.188)" fill="#451D12" stroke="#5A2122" stroke-width="1.98737"/>
<circle cx="23.3842" cy="23.3842" r="22.3905" transform="matrix(-0.746009 0.665936 0.665936 0.746009 454.305 387.866)" fill="#451D12" stroke="#5A2122" stroke-width="1.98737"/>
<circle cx="16.1359" cy="16.1359" r="15.1422" transform="matrix(-0.746009 0.665936 0.665936 0.746009 453.723 398.1)" fill="#451D12" stroke="#5A2122" stroke-width="1.98737"/>
<circle cx="38.5307" cy="38.5307" r="37.537" transform="matrix(-0.746009 0.665936 0.665936 0.746009 398.023 417.801)" fill="#451D12" stroke="#5A2122" stroke-width="1.98737"/>
<circle cx="30.9468" cy="30.9468" r="29.9532" transform="matrix(-0.746009 0.665936 0.665936 0.746009 397.418 428.506)" fill="#451D12" stroke="#5A2122" stroke-width="1.98737"/>
<circle cx="23.3842" cy="23.3842" r="22.3905" transform="matrix(-0.746009 0.665936 0.665936 0.746009 396.812 439.186)" fill="#451D12" stroke="#5A2122" stroke-width="1.98737"/>
<circle cx="16.1359" cy="16.1359" r="15.1422" transform="matrix(-0.746009 0.665936 0.665936 0.746009 396.23 449.42)" fill="#451D12" stroke="#5A2122" stroke-width="1.98737"/>
<circle cx="38.5307" cy="38.5307" r="37.537" transform="matrix(-0.746009 0.665936 0.665936 0.746009 570.492 263.845)" fill="#451D12" stroke="#5A2122" stroke-width="1.98737"/>
<circle cx="30.9468" cy="30.9468" r="29.9532" transform="matrix(-0.746009 0.665936 0.665936 0.746009 569.887 274.551)" fill="#451D12" stroke="#5A2122" stroke-width="1.98737"/>
<circle cx="23.3842" cy="23.3842" r="22.3905" transform="matrix(-0.746009 0.665936 0.665936 0.746009 569.281 285.23)" fill="#451D12" stroke="#5A2122" stroke-width="1.98737"/>
<circle cx="16.1359" cy="16.1359" r="15.1422" transform="matrix(-0.746009 0.665936 0.665936 0.746009 568.699 295.464)" fill="#451D12" stroke="#5A2122" stroke-width="1.98737"/>
<circle cx="38.5307" cy="38.5307" r="37.537" transform="matrix(-0.746009 0.665936 0.665936 0.746009 558.258 307.999)" fill="#451D12" stroke="#5A2122" stroke-width="1.98737"/>
<circle cx="30.9468" cy="30.9468" r="29.9532" transform="matrix(-0.746009 0.665936 0.665936 0.746009 557.648 318.707)" fill="#451D12" stroke="#5A2122" stroke-width="1.98737"/>
<circle cx="23.3842" cy="23.3842" r="22.3905" transform="matrix(-0.746009 0.665936 0.665936 0.746009 557.047 329.384)" fill="#451D12" stroke="#5A2122" stroke-width="1.98737"/>
<circle cx="16.1359" cy="16.1359" r="15.1422" transform="matrix(-0.746009 0.665936 0.665936 0.746009 556.465 339.619)" fill="#451D12" stroke="#5A2122" stroke-width="1.98737"/>
<circle cx="38.5307" cy="38.5307" r="37.537" transform="matrix(-0.746009 0.665936 0.665936 0.746009 500.77 359.316)" fill="#451D12" stroke="#5A2122" stroke-width="1.98737"/>
<circle cx="30.9468" cy="30.9468" r="29.9532" transform="matrix(-0.746009 0.665936 0.665936 0.746009 500.164 370.024)" fill="#451D12" stroke="#5A2122" stroke-width="1.98737"/>
<circle cx="23.3842" cy="23.3842" r="22.3905" transform="matrix(-0.746009 0.665936 0.665936 0.746009 499.559 380.701)" fill="#451D12" stroke="#5A2122" stroke-width="1.98737"/>
<circle cx="16.1359" cy="16.1359" r="15.1422" transform="matrix(-0.746009 0.665936 0.665936 0.746009 498.977 390.938)" fill="#451D12" stroke="#5A2122" stroke-width="1.98737"/>
<circle cx="38.5307" cy="38.5307" r="37.537" transform="matrix(-0.746009 0.665936 0.665936 0.746009 443.297 410.619)" fill="#451D12" stroke="#5A2122" stroke-width="1.98737"/>
<circle cx="30.9468" cy="30.9468" r="29.9532" transform="matrix(-0.746009 0.665936 0.665936 0.746009 442.688 421.329)" fill="#451D12" stroke="#5A2122" stroke-width="1.98737"/>
<circle cx="23.3842" cy="23.3842" r="22.3905" transform="matrix(-0.746009 0.665936 0.665936 0.746009 442.082 432.006)" fill="#451D12" stroke="#5A2122" stroke-width="1.98737"/>
<circle cx="16.1359" cy="16.1359" r="15.1422" transform="matrix(-0.746009 0.665936 0.665936 0.746009 441.504 442.239)" fill="#451D12" stroke="#5A2122" stroke-width="1.98737"/>
<circle cx="38.5307" cy="38.5307" r="37.537" transform="matrix(-0.746009 0.665936 0.665936 0.746009 546.016 352.146)" fill="#451D12" stroke="#5A2122" stroke-width="1.98737"/>
<circle cx="30.9468" cy="30.9468" r="29.9532" transform="matrix(-0.746009 0.665936 0.665936 0.746009 545.406 362.854)" fill="#451D12" stroke="#5A2122" stroke-width="1.98737"/>
<circle cx="23.3842" cy="23.3842" r="22.3905" transform="matrix(-0.746009 0.665936 0.665936 0.746009 544.805 373.529)" fill="#451D12" stroke="#5A2122" stroke-width="1.98737"/>
<circle cx="16.1359" cy="16.1359" r="15.1422" transform="matrix(-0.746009 0.665936 0.665936 0.746009 544.223 383.766)" fill="#451D12" stroke="#5A2122" stroke-width="1.98737"/>
<circle cx="38.5307" cy="38.5307" r="37.537" transform="matrix(-0.746009 0.665936 0.665936 0.746009 488.527 403.463)" fill="#451D12" stroke="#5A2122" stroke-width="1.98737"/>
<circle cx="30.9468" cy="30.9468" r="29.9532" transform="matrix(-0.746009 0.665936 0.665936 0.746009 487.922 414.17)" fill="#451D12" stroke="#5A2122" stroke-width="1.98737"/>
<circle cx="23.3842" cy="23.3842" r="22.3905" transform="matrix(-0.746009 0.665936 0.665936 0.746009 487.316 424.847)" fill="#451D12" stroke="#5A2122" stroke-width="1.98737"/>
<circle cx="16.1359" cy="16.1359" r="15.1422" transform="matrix(-0.746009 0.665936 0.665936 0.746009 486.734 435.083)" fill="#451D12" stroke="#5A2122" stroke-width="1.98737"/>
<circle cx="38.5307" cy="38.5307" r="37.537" transform="matrix(-0.746009 0.665936 0.665936 0.746009 431.035 454.783)" fill="#451D12" stroke="#5A2122" stroke-width="1.98737"/>
<circle cx="30.9468" cy="30.9468" r="29.9532" transform="matrix(-0.746009 0.665936 0.665936 0.746009 430.43 465.488)" fill="#451D12" stroke="#5A2122" stroke-width="1.98737"/>
<circle cx="23.3842" cy="23.3842" r="22.3905" transform="matrix(-0.746009 0.665936 0.665936 0.746009 429.824 476.167)" fill="#451D12" stroke="#5A2122" stroke-width="1.98737"/>
<circle cx="16.1359" cy="16.1359" r="15.1422" transform="matrix(-0.746009 0.665936 0.665936 0.746009 429.242 486.402)" fill="#451D12" stroke="#5A2122" stroke-width="1.98737"/>
<circle cx="38.5307" cy="38.5307" r="37.537" transform="matrix(-0.746009 0.665936 0.665936 0.746009 614.152 254.89)" fill="#451D12" stroke="#5A2122" stroke-width="1.98737"/>
<circle cx="30.9468" cy="30.9468" r="29.9532" transform="matrix(-0.746009 0.665936 0.665936 0.746009 613.543 265.598)" fill="#451D12" stroke="#5A2122" stroke-width="1.98737"/>
<circle cx="23.3842" cy="23.3842" r="22.3905" transform="matrix(-0.746009 0.665936 0.665936 0.746009 612.938 276.276)" fill="#451D12" stroke="#5A2122" stroke-width="1.98737"/>
<circle cx="16.1359" cy="16.1359" r="15.1422" transform="matrix(-0.746009 0.665936 0.665936 0.746009 612.359 286.51)" fill="#451D12" stroke="#5A2122" stroke-width="1.98737"/>
<circle cx="38.5307" cy="38.5307" r="37.537" transform="matrix(-0.746009 0.665936 0.665936 0.746009 660.996 249.507)" fill="#451D12" stroke="#5A2122" stroke-width="1.98737"/>
<circle cx="30.9468" cy="30.9468" r="29.9532" transform="matrix(-0.746009 0.665936 0.665936 0.746009 660.391 260.214)" fill="#451D12" stroke="#5A2122" stroke-width="1.98737"/>
<circle cx="23.3842" cy="23.3842" r="22.3905" transform="matrix(-0.746009 0.665936 0.665936 0.746009 659.785 270.893)" fill="#451D12" stroke="#5A2122" stroke-width="1.98737"/>
<circle cx="16.1359" cy="16.1359" r="15.1422" transform="matrix(-0.746009 0.665936 0.665936 0.746009 659.203 281.127)" fill="#451D12" stroke="#5A2122" stroke-width="1.98737"/>
<circle cx="38.5307" cy="38.5307" r="37.537" transform="matrix(-0.746009 0.665936 0.665936 0.746009 603.508 300.825)" fill="#451D12" stroke="#5A2122" stroke-width="1.98737"/>
<circle cx="30.9468" cy="30.9468" r="29.9532" transform="matrix(-0.746009 0.665936 0.665936 0.746009 602.902 311.532)" fill="#451D12" stroke="#5A2122" stroke-width="1.98737"/>
<circle cx="23.3842" cy="23.3842" r="22.3905" transform="matrix(-0.746009 0.665936 0.665936 0.746009 602.293 322.212)" fill="#451D12" stroke="#5A2122" stroke-width="1.98737"/>
<circle cx="16.1359" cy="16.1359" r="15.1422" transform="matrix(-0.746009 0.665936 0.665936 0.746009 601.715 332.445)" fill="#451D12" stroke="#5A2122" stroke-width="1.98737"/>
<circle cx="38.5307" cy="38.5307" r="37.537" transform="matrix(-0.746009 0.665936 0.665936 0.746009 650.559 295.673)" fill="#451D12" stroke="#5A2122" stroke-width="1.98737"/>
<circle cx="30.9468" cy="30.9468" r="29.9532" transform="matrix(-0.746009 0.665936 0.665936 0.746009 649.949 306.381)" fill="#451D12" stroke="#5A2122" stroke-width="1.98737"/>
<circle cx="23.3842" cy="23.3842" r="22.3905" transform="matrix(-0.746009 0.665936 0.665936 0.746009 649.348 317.058)" fill="#451D12" stroke="#5A2122" stroke-width="1.98737"/>
<circle cx="16.1359" cy="16.1359" r="15.1422" transform="matrix(-0.746009 0.665936 0.665936 0.746009 648.766 327.293)" fill="#451D12" stroke="#5A2122" stroke-width="1.98737"/>
<circle cx="38.5307" cy="38.5307" r="37.537" transform="matrix(-0.746009 0.665936 0.665936 0.746009 593.07 346.99)" fill="#451D12" stroke="#5A2122" stroke-width="1.98737"/>
<circle cx="30.9468" cy="30.9468" r="29.9532" transform="matrix(-0.746009 0.665936 0.665936 0.746009 592.465 357.697)" fill="#451D12" stroke="#5A2122" stroke-width="1.98737"/>
<circle cx="23.3842" cy="23.3842" r="22.3905" transform="matrix(-0.746009 0.665936 0.665936 0.746009 591.859 368.375)" fill="#451D12" stroke="#5A2122" stroke-width="1.98737"/>
<circle cx="16.1359" cy="16.1359" r="15.1422" transform="matrix(-0.746009 0.665936 0.665936 0.746009 591.277 378.61)" fill="#451D12" stroke="#5A2122" stroke-width="1.98737"/>
<circle cx="38.5307" cy="38.5307" r="37.537" transform="matrix(-0.746009 0.665936 0.665936 0.746009 708.047 244.354)" fill="#451D12" stroke="#5A2122" stroke-width="1.98737"/>
<circle cx="30.9468" cy="30.9468" r="29.9532" transform="matrix(-0.746009 0.665936 0.665936 0.746009 707.438 255.063)" fill="#451D12" stroke="#5A2122" stroke-width="1.98737"/>
<circle cx="23.3842" cy="23.3842" r="22.3905" transform="matrix(-0.746009 0.665936 0.665936 0.746009 706.832 265.74)" fill="#451D12" stroke="#5A2122" stroke-width="1.98737"/>
<circle cx="16.1359" cy="16.1359" r="15.1422" transform="matrix(-0.746009 0.665936 0.665936 0.746009 706.254 275.975)" fill="#451D12" stroke="#5A2122" stroke-width="1.98737"/>
<circle cx="38.5307" cy="38.5307" r="37.537" transform="matrix(-0.746009 0.665936 0.665936 0.746009 478.105 449.612)" fill="#451D12" stroke="#5A2122" stroke-width="1.98737"/>
<circle cx="30.9468" cy="30.9468" r="29.9532" transform="matrix(-0.746009 0.665936 0.665936 0.746009 477.496 460.32)" fill="#451D12" stroke="#5A2122" stroke-width="1.98737"/>
<circle cx="23.3842" cy="23.3842" r="22.3905" transform="matrix(-0.746009 0.665936 0.665936 0.746009 476.891 470.998)" fill="#451D12" stroke="#5A2122" stroke-width="1.98737"/>
<circle cx="16.1359" cy="16.1359" r="15.1422" transform="matrix(-0.746009 0.665936 0.665936 0.746009 476.312 481.232)" fill="#451D12" stroke="#5A2122" stroke-width="1.98737"/>
<circle cx="38.5307" cy="38.5307" r="37.537" transform="matrix(-0.746009 0.665936 0.665936 0.746009 535.594 398.294)" fill="#451D12" stroke="#5A2122" stroke-width="1.98737"/>
<circle cx="30.9468" cy="30.9468" r="29.9532" transform="matrix(-0.746009 0.665936 0.665936 0.746009 534.984 409.002)" fill="#451D12" stroke="#5A2122" stroke-width="1.98737"/>
<circle cx="23.3842" cy="23.3842" r="22.3905" transform="matrix(-0.746009 0.665936 0.665936 0.746009 534.379 419.681)" fill="#451D12" stroke="#5A2122" stroke-width="1.98737"/>
<circle cx="16.1359" cy="16.1359" r="15.1422" transform="matrix(-0.746009 0.665936 0.665936 0.746009 533.801 429.914)" fill="#451D12" stroke="#5A2122" stroke-width="1.98737"/>
<circle cx="38.5307" cy="38.5307" r="37.537" transform="matrix(-0.746009 0.665936 0.665936 0.746009 695.812 288.51)" fill="#451D12" stroke="#5A2122" stroke-width="1.98737"/>
<circle cx="30.9468" cy="30.9468" r="29.9532" transform="matrix(-0.746009 0.665936 0.665936 0.746009 695.203 299.218)" fill="#451D12" stroke="#5A2122" stroke-width="1.98737"/>
<circle cx="23.3842" cy="23.3842" r="22.3905" transform="matrix(-0.746009 0.665936 0.665936 0.746009 694.602 309.895)" fill="#451D12" stroke="#5A2122" stroke-width="1.98737"/>
<circle cx="16.1359" cy="16.1359" r="15.1422" transform="matrix(-0.746009 0.665936 0.665936 0.746009 694.02 320.13)" fill="#451D12" stroke="#5A2122" stroke-width="1.98737"/>
<circle cx="38.5307" cy="38.5307" r="37.537" transform="matrix(-0.746009 0.665936 0.665936 0.746009 753.293 237.197)" fill="#451D12" stroke="#5A2122" stroke-width="1.98737"/>
<circle cx="38.5307" cy="38.5307" r="37.537" transform="matrix(-0.746009 0.665936 0.665936 0.746009 638.324 339.827)" fill="#451D12" stroke="#5A2122" stroke-width="1.98737"/>
<circle cx="30.9468" cy="30.9468" r="29.9532" transform="matrix(-0.746009 0.665936 0.665936 0.746009 637.715 350.535)" fill="#451D12" stroke="#5A2122" stroke-width="1.98737"/>
<circle cx="23.3842" cy="23.3842" r="22.3905" transform="matrix(-0.746009 0.665936 0.665936 0.746009 637.109 361.214)" fill="#451D12" stroke="#5A2122" stroke-width="1.98737"/>
<circle cx="16.1359" cy="16.1359" r="15.1422" transform="matrix(-0.746009 0.665936 0.665936 0.746009 636.531 371.447)" fill="#451D12" stroke="#5A2122" stroke-width="1.98737"/>
<circle cx="38.5307" cy="38.5307" r="37.537" transform="matrix(-0.746009 0.665936 0.665936 0.746009 523.363 442.45)" fill="#451D12" stroke="#5A2122" stroke-width="1.98737"/>
<circle cx="30.9468" cy="30.9468" r="29.9532" transform="matrix(-0.746009 0.665936 0.665936 0.746009 522.754 453.159)" fill="#451D12" stroke="#5A2122" stroke-width="1.98737"/>
<circle cx="23.3842" cy="23.3842" r="22.3905" transform="matrix(-0.746009 0.665936 0.665936 0.746009 522.152 463.834)" fill="#451D12" stroke="#5A2122" stroke-width="1.98737"/>
<circle cx="16.1359" cy="16.1359" r="15.1422" transform="matrix(-0.746009 0.665936 0.665936 0.746009 521.57 474.07)" fill="#451D12" stroke="#5A2122" stroke-width="1.98737"/>
<circle cx="38.5307" cy="38.5307" r="37.537" transform="matrix(-0.746009 0.665936 0.665936 0.746009 580.844 391.138)" fill="#451D12" stroke="#5A2122" stroke-width="1.98737"/>
<circle cx="30.9468" cy="30.9468" r="29.9532" transform="matrix(-0.746009 0.665936 0.665936 0.746009 580.234 401.846)" fill="#451D12" stroke="#5A2122" stroke-width="1.98737"/>
<circle cx="23.3842" cy="23.3842" r="22.3905" transform="matrix(-0.746009 0.665936 0.665936 0.746009 579.629 412.524)" fill="#451D12" stroke="#5A2122" stroke-width="1.98737"/>
<circle cx="16.1359" cy="16.1359" r="15.1422" transform="matrix(-0.746009 0.665936 0.665936 0.746009 579.047 422.759)" fill="#451D12" stroke="#5A2122" stroke-width="1.98737"/>
<circle cx="38.5307" cy="38.5307" r="37.537" transform="matrix(-0.746009 0.665936 0.665936 0.746009 465.875 493.768)" fill="#451D12" stroke="#5A2122" stroke-width="1.98737"/>
<circle cx="30.9468" cy="30.9468" r="29.9532" transform="matrix(-0.746009 0.665936 0.665936 0.746009 465.27 504.475)" fill="#451D12" stroke="#5A2122" stroke-width="1.98737"/>
<circle cx="23.3842" cy="23.3842" r="22.3905" transform="matrix(-0.746009 0.665936 0.665936 0.746009 464.664 515.152)" fill="#451D12" stroke="#5A2122" stroke-width="1.98737"/>
<circle cx="16.1359" cy="16.1359" r="15.1422" transform="matrix(-0.746009 0.665936 0.665936 0.746009 464.082 525.388)" fill="#451D12" stroke="#5A2122" stroke-width="1.98737"/>
<circle cx="38.5307" cy="38.5307" r="37.537" transform="matrix(-0.746009 0.665936 0.665936 0.746009 683.57 332.655)" fill="#451D12" stroke="#5A2122" stroke-width="1.98737"/>
<circle cx="30.9468" cy="30.9468" r="29.9532" transform="matrix(-0.746009 0.665936 0.665936 0.746009 682.961 343.363)" fill="#451D12" stroke="#5A2122" stroke-width="1.98737"/>
<circle cx="23.3842" cy="23.3842" r="22.3905" transform="matrix(-0.746009 0.665936 0.665936 0.746009 682.355 354.042)" fill="#451D12" stroke="#5A2122" stroke-width="1.98737"/>
<circle cx="16.1359" cy="16.1359" r="15.1422" transform="matrix(-0.746009 0.665936 0.665936 0.746009 681.777 364.275)" fill="#451D12" stroke="#5A2122" stroke-width="1.98737"/>
<circle cx="38.5307" cy="38.5307" r="37.537" transform="matrix(-0.746009 0.665936 0.665936 0.746009 741.055 281.343)" fill="#451D12" stroke="#5A2122" stroke-width="1.98737"/>
<circle cx="30.9468" cy="30.9468" r="29.9532" transform="matrix(-0.746009 0.665936 0.665936 0.746009 740.445 292.051)" fill="#451D12" stroke="#5A2122" stroke-width="1.98737"/>
<circle cx="38.5307" cy="38.5307" r="37.537" transform="matrix(-0.746009 0.665936 0.665936 0.746009 511.117 486.598)" fill="#451D12" stroke="#5A2122" stroke-width="1.98737"/>
<circle cx="30.9468" cy="30.9468" r="29.9532" transform="matrix(-0.746009 0.665936 0.665936 0.746009 510.508 497.306)" fill="#451D12" stroke="#5A2122" stroke-width="1.98737"/>
<circle cx="23.3842" cy="23.3842" r="22.3905" transform="matrix(-0.746009 0.665936 0.665936 0.746009 509.902 507.984)" fill="#451D12" stroke="#5A2122" stroke-width="1.98737"/>
<circle cx="16.1359" cy="16.1359" r="15.1422" transform="matrix(-0.746009 0.665936 0.665936 0.746009 509.32 518.219)" fill="#451D12" stroke="#5A2122" stroke-width="1.98737"/>
<circle cx="38.5307" cy="38.5307" r="37.537" transform="matrix(-0.746009 0.665936 0.665936 0.746009 568.598 435.285)" fill="#451D12" stroke="#5A2122" stroke-width="1.98737"/>
<circle cx="30.9468" cy="30.9468" r="29.9532" transform="matrix(-0.746009 0.665936 0.665936 0.746009 567.988 445.992)" fill="#451D12" stroke="#5A2122" stroke-width="1.98737"/>
<circle cx="23.3842" cy="23.3842" r="22.3905" transform="matrix(-0.746009 0.665936 0.665936 0.746009 567.387 456.67)" fill="#451D12" stroke="#5A2122" stroke-width="1.98737"/>
<circle cx="16.1359" cy="16.1359" r="15.1422" transform="matrix(-0.746009 0.665936 0.665936 0.746009 566.805 466.905)" fill="#451D12" stroke="#5A2122" stroke-width="1.98737"/>
<circle cx="38.5307" cy="38.5307" r="37.537" transform="matrix(-0.746009 0.665936 0.665936 0.746009 626.09 383.968)" fill="#451D12" stroke="#5A2122" stroke-width="1.98737"/>
<circle cx="30.9468" cy="30.9468" r="29.9532" transform="matrix(-0.746009 0.665936 0.665936 0.746009 625.48 394.675)" fill="#451D12" stroke="#5A2122" stroke-width="1.98737"/>
<circle cx="23.3842" cy="23.3842" r="22.3905" transform="matrix(-0.746009 0.665936 0.665936 0.746009 624.879 405.353)" fill="#451D12" stroke="#5A2122" stroke-width="1.98737"/>
<circle cx="16.1359" cy="16.1359" r="15.1422" transform="matrix(-0.746009 0.665936 0.665936 0.746009 624.297 415.588)" fill="#451D12" stroke="#5A2122" stroke-width="1.98737"/>
<circle cx="38.5307" cy="38.5307" r="37.537" transform="matrix(-0.746009 0.665936 0.665936 0.746009 727.242 323.687)" fill="#451D12" stroke="#5A2122" stroke-width="1.98737"/>
<circle cx="30.9468" cy="30.9468" r="29.9532" transform="matrix(-0.746009 0.665936 0.665936 0.746009 726.637 334.394)" fill="#451D12" stroke="#5A2122" stroke-width="1.98737"/>
<circle cx="23.3842" cy="23.3842" r="22.3905" transform="matrix(-0.746009 0.665936 0.665936 0.746009 726.027 345.073)" fill="#451D12" stroke="#5A2122" stroke-width="1.98737"/>
<circle cx="38.5307" cy="38.5307" r="37.537" transform="matrix(-0.746009 0.665936 0.665936 0.746009 669.75 375.007)" fill="#451D12" stroke="#5A2122" stroke-width="1.98737"/>
<circle cx="30.9468" cy="30.9468" r="29.9532" transform="matrix(-0.746009 0.665936 0.665936 0.746009 669.141 385.715)" fill="#451D12" stroke="#5A2122" stroke-width="1.98737"/>
<circle cx="23.3842" cy="23.3842" r="22.3905" transform="matrix(-0.746009 0.665936 0.665936 0.746009 668.539 396.393)" fill="#451D12" stroke="#5A2122" stroke-width="1.98737"/>
<circle cx="16.1359" cy="16.1359" r="15.1422" transform="matrix(-0.746009 0.665936 0.665936 0.746009 667.957 406.626)" fill="#451D12" stroke="#5A2122" stroke-width="1.98737"/>
<circle cx="38.5307" cy="38.5307" r="37.537" transform="matrix(-0.746009 0.665936 0.665936 0.746009 554.777 477.644)" fill="#451D12" stroke="#5A2122" stroke-width="1.98737"/>
<circle cx="30.9468" cy="30.9468" r="29.9532" transform="matrix(-0.746009 0.665936 0.665936 0.746009 554.168 488.353)" fill="#451D12" stroke="#5A2122" stroke-width="1.98737"/>
<circle cx="23.3842" cy="23.3842" r="22.3905" transform="matrix(-0.746009 0.665936 0.665936 0.746009 553.562 499.03)" fill="#451D12" stroke="#5A2122" stroke-width="1.98737"/>
<circle cx="16.1359" cy="16.1359" r="15.1422" transform="matrix(-0.746009 0.665936 0.665936 0.746009 552.984 509.264)" fill="#451D12" stroke="#5A2122" stroke-width="1.98737"/>
<circle cx="38.5307" cy="38.5307" r="37.537" transform="matrix(-0.746009 0.665936 0.665936 0.746009 612.262 426.329)" fill="#451D12" stroke="#5A2122" stroke-width="1.98737"/>
<circle cx="30.9468" cy="30.9468" r="29.9532" transform="matrix(-0.746009 0.665936 0.665936 0.746009 611.652 437.037)" fill="#451D12" stroke="#5A2122" stroke-width="1.98737"/>
<circle cx="23.3842" cy="23.3842" r="22.3905" transform="matrix(-0.746009 0.665936 0.665936 0.746009 611.051 447.714)" fill="#451D12" stroke="#5A2122" stroke-width="1.98737"/>
<circle cx="16.1359" cy="16.1359" r="15.1422" transform="matrix(-0.746009 0.665936 0.665936 0.746009 610.465 457.95)" fill="#451D12" stroke="#5A2122" stroke-width="1.98737"/>
<circle cx="38.5307" cy="38.5307" r="37.537" transform="matrix(-0.746009 0.665936 0.665936 0.746009 497.289 528.961)" fill="#451D12" stroke="#5A2122" stroke-width="1.98737"/>
<circle cx="30.9468" cy="30.9468" r="29.9532" transform="matrix(-0.746009 0.665936 0.665936 0.746009 496.68 539.668)" fill="#451D12" stroke="#5A2122" stroke-width="1.98737"/>
<circle cx="23.3842" cy="23.3842" r="22.3905" transform="matrix(-0.746009 0.665936 0.665936 0.746009 496.074 550.348)" fill="#451D12" stroke="#5A2122" stroke-width="1.98737"/>
<circle cx="16.1359" cy="16.1359" r="15.1422" transform="matrix(-0.746009 0.665936 0.665936 0.746009 495.496 560.581)" fill="#451D12" stroke="#5A2122" stroke-width="1.98737"/>
<circle cx="38.5307" cy="38.5307" r="37.537" transform="matrix(-0.746009 0.665936 0.665936 0.746009 716.805 369.853)" fill="#451D12" stroke="#5A2122" stroke-width="1.98737"/>
<circle cx="30.9468" cy="30.9468" r="29.9532" transform="matrix(-0.746009 0.665936 0.665936 0.746009 716.195 380.562)" fill="#451D12" stroke="#5A2122" stroke-width="1.98737"/>
<circle cx="23.3842" cy="23.3842" r="22.3905" transform="matrix(-0.746009 0.665936 0.665936 0.746009 715.594 391.237)" fill="#451D12" stroke="#5A2122" stroke-width="1.98737"/>
<circle cx="16.1359" cy="16.1359" r="15.1422" transform="matrix(-0.746009 0.665936 0.665936 0.746009 715.012 401.473)" fill="#451D12" stroke="#5A2122" stroke-width="1.98737"/>
<circle cx="38.5307" cy="38.5307" r="37.537" transform="matrix(-0.746009 0.665936 0.665936 0.746009 659.312 421.173)" fill="#451D12" stroke="#5A2122" stroke-width="1.98737"/>
<circle cx="30.9468" cy="30.9468" r="29.9532" transform="matrix(-0.746009 0.665936 0.665936 0.746009 658.707 431.879)" fill="#451D12" stroke="#5A2122" stroke-width="1.98737"/>
<circle cx="23.3842" cy="23.3842" r="22.3905" transform="matrix(-0.746009 0.665936 0.665936 0.746009 658.102 442.558)" fill="#451D12" stroke="#5A2122" stroke-width="1.98737"/>
<circle cx="16.1359" cy="16.1359" r="15.1422" transform="matrix(-0.746009 0.665936 0.665936 0.746009 657.52 452.792)" fill="#451D12" stroke="#5A2122" stroke-width="1.98737"/>
<circle cx="38.5307" cy="38.5307" r="37.537" transform="matrix(-0.746009 0.665936 0.665936 0.746009 601.816 472.488)" fill="#451D12" stroke="#5A2122" stroke-width="1.98737"/>
<circle cx="30.9468" cy="30.9468" r="29.9532" transform="matrix(-0.746009 0.665936 0.665936 0.746009 601.211 483.194)" fill="#451D12" stroke="#5A2122" stroke-width="1.98737"/>
<circle cx="23.3842" cy="23.3842" r="22.3905" transform="matrix(-0.746009 0.665936 0.665936 0.746009 600.605 493.873)" fill="#451D12" stroke="#5A2122" stroke-width="1.98737"/>
<circle cx="16.1359" cy="16.1359" r="15.1422" transform="matrix(-0.746009 0.665936 0.665936 0.746009 600.023 504.107)" fill="#451D12" stroke="#5A2122" stroke-width="1.98737"/>
<circle cx="38.5307" cy="38.5307" r="37.537" transform="matrix(-0.746009 0.665936 0.665936 0.746009 544.332 523.804)" fill="#451D12" stroke="#5A2122" stroke-width="1.98737"/>
<circle cx="30.9468" cy="30.9468" r="29.9532" transform="matrix(-0.746009 0.665936 0.665936 0.746009 543.723 534.513)" fill="#451D12" stroke="#5A2122" stroke-width="1.98737"/>
<circle cx="23.3842" cy="23.3842" r="22.3905" transform="matrix(-0.746009 0.665936 0.665936 0.746009 543.117 545.19)" fill="#451D12" stroke="#5A2122" stroke-width="1.98737"/>
<circle cx="16.1359" cy="16.1359" r="15.1422" transform="matrix(-0.746009 0.665936 0.665936 0.746009 542.535 555.427)" fill="#451D12" stroke="#5A2122" stroke-width="1.98737"/>
<circle cx="38.5307" cy="38.5307" r="37.537" transform="matrix(-0.746009 0.665936 0.665936 0.746009 704.566 414.01)" fill="#451D12" stroke="#5A2122" stroke-width="1.98737"/>
<circle cx="30.9468" cy="30.9468" r="29.9532" transform="matrix(-0.746009 0.665936 0.665936 0.746009 703.957 424.718)" fill="#451D12" stroke="#5A2122" stroke-width="1.98737"/>
<circle cx="23.3842" cy="23.3842" r="22.3905" transform="matrix(-0.746009 0.665936 0.665936 0.746009 703.355 435.396)" fill="#451D12" stroke="#5A2122" stroke-width="1.98737"/>
<circle cx="16.1359" cy="16.1359" r="15.1422" transform="matrix(-0.746009 0.665936 0.665936 0.746009 702.773 445.629)" fill="#451D12" stroke="#5A2122" stroke-width="1.98737"/>
<circle cx="38.5307" cy="38.5307" r="37.537" transform="matrix(-0.746009 0.665936 0.665936 0.746009 749.816 406.835)" fill="#451D12" stroke="#5A2122" stroke-width="1.98737"/>
<circle cx="38.5307" cy="38.5307" r="37.537" transform="matrix(-0.746009 0.665936 0.665936 0.746009 642.062 459.709)" fill="#451D12" stroke="#5A2122" stroke-width="1.98737"/>
<circle cx="30.9468" cy="30.9468" r="29.9532" transform="matrix(-0.746009 0.665936 0.665936 0.746009 641.453 470.417)" fill="#451D12" stroke="#5A2122" stroke-width="1.98737"/>
<circle cx="23.3842" cy="23.3842" r="22.3905" transform="matrix(-0.746009 0.665936 0.665936 0.746009 640.848 481.096)" fill="#451D12" stroke="#5A2122" stroke-width="1.98737"/>
<circle cx="16.1359" cy="16.1359" r="15.1422" transform="matrix(-0.746009 0.665936 0.665936 0.746009 640.27 491.33)" fill="#451D12" stroke="#5A2122" stroke-width="1.98737"/>
<circle cx="38.5307" cy="38.5307" r="37.537" transform="matrix(-0.746009 0.665936 0.665936 0.746009 584.574 511.028)" fill="#451D12" stroke="#5A2122" stroke-width="1.98737"/>
<circle cx="30.9468" cy="30.9468" r="29.9532" transform="matrix(-0.746009 0.665936 0.665936 0.746009 583.965 521.737)" fill="#451D12" stroke="#5A2122" stroke-width="1.98737"/>
<circle cx="23.3842" cy="23.3842" r="22.3905" transform="matrix(-0.746009 0.665936 0.665936 0.746009 583.359 532.414)" fill="#451D12" stroke="#5A2122" stroke-width="1.98737"/>
<circle cx="16.1359" cy="16.1359" r="15.1422" transform="matrix(-0.746009 0.665936 0.665936 0.746009 582.781 542.648)" fill="#451D12" stroke="#5A2122" stroke-width="1.98737"/>
<circle cx="38.5307" cy="38.5307" r="37.537" transform="matrix(-0.746009 0.665936 0.665936 0.746009 527.105 562.33)" fill="#451D12" stroke="#5A2122" stroke-width="1.98737"/>
<circle cx="30.9468" cy="30.9468" r="29.9532" transform="matrix(-0.746009 0.665936 0.665936 0.746009 526.5 573.037)" fill="#451D12" stroke="#5A2122" stroke-width="1.98737"/>
<circle cx="23.3842" cy="23.3842" r="22.3905" transform="matrix(-0.746009 0.665936 0.665936 0.746009 525.891 583.717)" fill="#451D12" stroke="#5A2122" stroke-width="1.98737"/>
<circle cx="16.1359" cy="16.1359" r="15.1422" transform="matrix(-0.746009 0.665936 0.665936 0.746009 525.312 593.95)" fill="#451D12" stroke="#5A2122" stroke-width="1.98737"/>
<circle cx="38.5307" cy="38.5307" r="37.537" transform="matrix(-0.746009 0.665936 0.665936 0.746009 688.91 454.324)" fill="#451D12" stroke="#5A2122" stroke-width="1.98737"/>
<circle cx="30.9468" cy="30.9468" r="29.9532" transform="matrix(-0.746009 0.665936 0.665936 0.746009 688.301 465.032)" fill="#451D12" stroke="#5A2122" stroke-width="1.98737"/>
<circle cx="23.3842" cy="23.3842" r="22.3905" transform="matrix(-0.746009 0.665936 0.665936 0.746009 687.695 475.711)" fill="#451D12" stroke="#5A2122" stroke-width="1.98737"/>
<circle cx="16.1359" cy="16.1359" r="15.1422" transform="matrix(-0.746009 0.665936 0.665936 0.746009 687.117 485.944)" fill="#451D12" stroke="#5A2122" stroke-width="1.98737"/>
<circle cx="38.5307" cy="38.5307" r="37.537" transform="matrix(-0.746009 0.665936 0.665936 0.746009 631.422 505.642)" fill="#451D12" stroke="#5A2122" stroke-width="1.98737"/>
<circle cx="30.9468" cy="30.9468" r="29.9532" transform="matrix(-0.746009 0.665936 0.665936 0.746009 630.812 516.352)" fill="#451D12" stroke="#5A2122" stroke-width="1.98737"/>
<circle cx="23.3842" cy="23.3842" r="22.3905" transform="matrix(-0.746009 0.665936 0.665936 0.746009 630.207 527.028)" fill="#451D12" stroke="#5A2122" stroke-width="1.98737"/>
<circle cx="16.1359" cy="16.1359" r="15.1422" transform="matrix(-0.746009 0.665936 0.665936 0.746009 629.629 537.262)" fill="#451D12" stroke="#5A2122" stroke-width="1.98737"/>
<circle cx="38.5307" cy="38.5307" r="37.537" transform="matrix(-0.746009 0.665936 0.665936 0.746009 573.93 556.962)" fill="#451D12" stroke="#5A2122" stroke-width="1.98737"/>
<circle cx="30.9468" cy="30.9468" r="29.9532" transform="matrix(-0.746009 0.665936 0.665936 0.746009 573.32 567.672)" fill="#451D12" stroke="#5A2122" stroke-width="1.98737"/>
<circle cx="23.3842" cy="23.3842" r="22.3905" transform="matrix(-0.746009 0.665936 0.665936 0.746009 572.715 578.349)" fill="#451D12" stroke="#5A2122" stroke-width="1.98737"/>
<circle cx="16.1359" cy="16.1359" r="15.1422" transform="matrix(-0.746009 0.665936 0.665936 0.746009 572.137 588.582)" fill="#451D12" stroke="#5A2122" stroke-width="1.98737"/>
<circle cx="38.5307" cy="38.5307" r="37.537" transform="matrix(-0.746009 0.665936 0.665936 0.746009 678.473 500.489)" fill="#451D12" stroke="#5A2122" stroke-width="1.98737"/>
<circle cx="30.9468" cy="30.9468" r="29.9532" transform="matrix(-0.746009 0.665936 0.665936 0.746009 677.863 511.199)" fill="#451D12" stroke="#5A2122" stroke-width="1.98737"/>
<circle cx="23.3842" cy="23.3842" r="22.3905" transform="matrix(-0.746009 0.665936 0.665936 0.746009 677.258 521.877)" fill="#451D12" stroke="#5A2122" stroke-width="1.98737"/>
<circle cx="16.1359" cy="16.1359" r="15.1422" transform="matrix(-0.746009 0.665936 0.665936 0.746009 676.676 532.112)" fill="#451D12" stroke="#5A2122" stroke-width="1.98737"/>
<circle cx="38.5307" cy="38.5307" r="37.537" transform="matrix(-0.746009 0.665936 0.665936 0.746009 620.984 551.808)" fill="#451D12" stroke="#5A2122" stroke-width="1.98737"/>
<circle cx="30.9468" cy="30.9468" r="29.9532" transform="matrix(-0.746009 0.665936 0.665936 0.746009 620.375 562.517)" fill="#451D12" stroke="#5A2122" stroke-width="1.98737"/>
<circle cx="23.3842" cy="23.3842" r="22.3905" transform="matrix(-0.746009 0.665936 0.665936 0.746009 619.77 573.194)" fill="#451D12" stroke="#5A2122" stroke-width="1.98737"/>
<circle cx="16.1359" cy="16.1359" r="15.1422" transform="matrix(-0.746009 0.665936 0.665936 0.746009 619.191 583.428)" fill="#451D12" stroke="#5A2122" stroke-width="1.98737"/>
<circle cx="38.5307" cy="38.5307" r="37.537" transform="matrix(-0.746009 0.665936 0.665936 0.746009 563.492 603.128)" fill="#451D12" stroke="#5A2122" stroke-width="1.98737"/>
<circle cx="30.9468" cy="30.9468" r="29.9532" transform="matrix(-0.746009 0.665936 0.665936 0.746009 562.883 613.834)" fill="#451D12" stroke="#5A2122" stroke-width="1.98737"/>
<circle cx="23.3842" cy="23.3842" r="22.3905" transform="matrix(-0.746009 0.665936 0.665936 0.746009 562.281 624.513)" fill="#451D12" stroke="#5A2122" stroke-width="1.98737"/>
<circle cx="16.1359" cy="16.1359" r="15.1422" transform="matrix(-0.746009 0.665936 0.665936 0.746009 561.699 634.748)" fill="#451D12" stroke="#5A2122" stroke-width="1.98737"/>
<circle cx="38.5307" cy="38.5307" r="37.537" transform="matrix(-0.746009 0.665936 0.665936 0.746009 735.957 449.175)" fill="#451D12" stroke="#5A2122" stroke-width="1.98737"/>
<circle cx="30.9468" cy="30.9468" r="29.9532" transform="matrix(-0.746009 0.665936 0.665936 0.746009 735.352 459.881)" fill="#451D12" stroke="#5A2122" stroke-width="1.98737"/>
<circle cx="38.5307" cy="38.5307" r="37.537" transform="matrix(-0.746009 0.665936 0.665936 0.746009 723.723 493.33)" fill="#451D12" stroke="#5A2122" stroke-width="1.98737"/>
<circle cx="30.9468" cy="30.9468" r="29.9532" transform="matrix(-0.746009 0.665936 0.665936 0.746009 723.117 504.036)" fill="#451D12" stroke="#5A2122" stroke-width="1.98737"/>
<circle cx="23.3842" cy="23.3842" r="22.3905" transform="matrix(-0.746009 0.665936 0.665936 0.746009 722.512 514.715)" fill="#451D12" stroke="#5A2122" stroke-width="1.98737"/>
<circle cx="16.1359" cy="16.1359" r="15.1422" transform="matrix(-0.746009 0.665936 0.665936 0.746009 721.93 524.949)" fill="#451D12" stroke="#5A2122" stroke-width="1.98737"/>
<circle cx="38.5307" cy="38.5307" r="37.537" transform="matrix(-0.746009 0.665936 0.665936 0.746009 666.234 544.647)" fill="#451D12" stroke="#5A2122" stroke-width="1.98737"/>
<circle cx="30.9468" cy="30.9468" r="29.9532" transform="matrix(-0.746009 0.665936 0.665936 0.746009 665.629 555.354)" fill="#451D12" stroke="#5A2122" stroke-width="1.98737"/>
<circle cx="23.3842" cy="23.3842" r="22.3905" transform="matrix(-0.746009 0.665936 0.665936 0.746009 665.023 566.032)" fill="#451D12" stroke="#5A2122" stroke-width="1.98737"/>
<circle cx="16.1359" cy="16.1359" r="15.1422" transform="matrix(-0.746009 0.665936 0.665936 0.746009 664.441 576.268)" fill="#451D12" stroke="#5A2122" stroke-width="1.98737"/>
<circle cx="38.5307" cy="38.5307" r="37.537" transform="matrix(-0.746009 0.665936 0.665936 0.746009 608.762 595.95)" fill="#451D12" stroke="#5A2122" stroke-width="1.98737"/>
<circle cx="30.9468" cy="30.9468" r="29.9532" transform="matrix(-0.746009 0.665936 0.665936 0.746009 608.152 606.659)" fill="#451D12" stroke="#5A2122" stroke-width="1.98737"/>
<circle cx="23.3842" cy="23.3842" r="22.3905" transform="matrix(-0.746009 0.665936 0.665936 0.746009 607.547 617.337)" fill="#451D12" stroke="#5A2122" stroke-width="1.98737"/>
<circle cx="16.1359" cy="16.1359" r="15.1422" transform="matrix(-0.746009 0.665936 0.665936 0.746009 606.969 627.57)" fill="#451D12" stroke="#5A2122" stroke-width="1.98737"/>
<circle cx="38.5307" cy="38.5307" r="37.537" transform="matrix(-0.746009 0.665936 0.665936 0.746009 711.48 537.475)" fill="#451D12" stroke="#5A2122" stroke-width="1.98737"/>
<circle cx="30.9468" cy="30.9468" r="29.9532" transform="matrix(-0.746009 0.665936 0.665936 0.746009 710.871 548.183)" fill="#451D12" stroke="#5A2122" stroke-width="1.98737"/>
<circle cx="23.3842" cy="23.3842" r="22.3905" transform="matrix(-0.746009 0.665936 0.665936 0.746009 710.27 558.859)" fill="#451D12" stroke="#5A2122" stroke-width="1.98737"/>
<circle cx="16.1359" cy="16.1359" r="15.1422" transform="matrix(-0.746009 0.665936 0.665936 0.746009 709.688 569.095)" fill="#451D12" stroke="#5A2122" stroke-width="1.98737"/>
<circle cx="38.5307" cy="38.5307" r="37.537" transform="matrix(-0.746009 0.665936 0.665936 0.746009 653.992 588.792)" fill="#451D12" stroke="#5A2122" stroke-width="1.98737"/>
<circle cx="30.9468" cy="30.9468" r="29.9532" transform="matrix(-0.746009 0.665936 0.665936 0.746009 653.383 599.502)" fill="#451D12" stroke="#5A2122" stroke-width="1.98737"/>
<circle cx="23.3842" cy="23.3842" r="22.3905" transform="matrix(-0.746009 0.665936 0.665936 0.746009 652.781 610.177)" fill="#451D12" stroke="#5A2122" stroke-width="1.98737"/>
<circle cx="16.1359" cy="16.1359" r="15.1422" transform="matrix(-0.746009 0.665936 0.665936 0.746009 652.199 620.412)" fill="#451D12" stroke="#5A2122" stroke-width="1.98737"/>
<circle cx="38.5307" cy="38.5307" r="37.537" transform="matrix(-0.746009 0.665936 0.665936 0.746009 596.508 640.11)" fill="#451D12" stroke="#5A2122" stroke-width="1.98737"/>
<circle cx="30.9468" cy="30.9468" r="29.9532" transform="matrix(-0.746009 0.665936 0.665936 0.746009 595.898 650.817)" fill="#451D12" stroke="#5A2122" stroke-width="1.98737"/>
<circle cx="23.3842" cy="23.3842" r="22.3905" transform="matrix(-0.746009 0.665936 0.665936 0.746009 595.297 661.494)" fill="#451D12" stroke="#5A2122" stroke-width="1.98737"/>
<circle cx="16.1359" cy="16.1359" r="15.1422" transform="matrix(-0.746009 0.665936 0.665936 0.746009 594.715 671.73)" fill="#451D12" stroke="#5A2122" stroke-width="1.98737"/>
<circle cx="38.5307" cy="38.5307" r="37.537" transform="matrix(-0.746009 0.665936 0.665936 0.746009 643.57 634.94)" fill="#451D12" stroke="#5A2122" stroke-width="1.98737"/>
<circle cx="30.9468" cy="30.9468" r="29.9532" transform="matrix(-0.746009 0.665936 0.665936 0.746009 642.961 645.649)" fill="#451D12" stroke="#5A2122" stroke-width="1.98737"/>
<circle cx="23.3842" cy="23.3842" r="22.3905" transform="matrix(-0.746009 0.665936 0.665936 0.746009 642.355 656.327)" fill="#451D12" stroke="#5A2122" stroke-width="1.98737"/>
<circle cx="16.1359" cy="16.1359" r="15.1422" transform="matrix(-0.746009 0.665936 0.665936 0.746009 641.777 666.562)" fill="#451D12" stroke="#5A2122" stroke-width="1.98737"/>
<circle cx="38.5307" cy="38.5307" r="37.537" transform="matrix(-0.746009 0.665936 0.665936 0.746009 701.059 583.623)" fill="#451D12" stroke="#5A2122" stroke-width="1.98737"/>
<circle cx="30.9468" cy="30.9468" r="29.9532" transform="matrix(-0.746009 0.665936 0.665936 0.746009 700.449 594.331)" fill="#451D12" stroke="#5A2122" stroke-width="1.98737"/>
<circle cx="23.3842" cy="23.3842" r="22.3905" transform="matrix(-0.746009 0.665936 0.665936 0.746009 699.844 605.01)" fill="#451D12" stroke="#5A2122" stroke-width="1.98737"/>
<circle cx="16.1359" cy="16.1359" r="15.1422" transform="matrix(-0.746009 0.665936 0.665936 0.746009 699.266 615.243)" fill="#451D12" stroke="#5A2122" stroke-width="1.98737"/>
<circle cx="38.5307" cy="38.5307" r="37.537" transform="matrix(-0.746009 0.665936 0.665936 0.746009 688.824 627.779)" fill="#451D12" stroke="#5A2122" stroke-width="1.98737"/>
<circle cx="30.9468" cy="30.9468" r="29.9532" transform="matrix(-0.746009 0.665936 0.665936 0.746009 688.215 638.487)" fill="#451D12" stroke="#5A2122" stroke-width="1.98737"/>
<circle cx="23.3842" cy="23.3842" r="22.3905" transform="matrix(-0.746009 0.665936 0.665936 0.746009 687.613 649.163)" fill="#451D12" stroke="#5A2122" stroke-width="1.98737"/>
<circle cx="16.1359" cy="16.1359" r="15.1422" transform="matrix(-0.746009 0.665936 0.665936 0.746009 687.031 659.399)" fill="#451D12" stroke="#5A2122" stroke-width="1.98737"/>
<circle cx="38.5307" cy="38.5307" r="37.537" transform="matrix(-0.746009 0.665936 0.665936 0.746009 746.309 576.467)" fill="#451D12" stroke="#5A2122" stroke-width="1.98737"/>
<circle cx="38.5307" cy="38.5307" r="37.537" transform="matrix(-0.746009 0.665936 0.665936 0.746009 631.336 679.097)" fill="#451D12" stroke="#5A2122" stroke-width="1.98737"/>
<circle cx="30.9468" cy="30.9468" r="29.9532" transform="matrix(-0.746009 0.665936 0.665936 0.746009 630.73 689.804)" fill="#451D12" stroke="#5A2122" stroke-width="1.98737"/>
<circle cx="23.3842" cy="23.3842" r="22.3905" transform="matrix(-0.746009 0.665936 0.665936 0.746009 630.125 700.481)" fill="#451D12" stroke="#5A2122" stroke-width="1.98737"/>
<circle cx="16.1359" cy="16.1359" r="15.1422" transform="matrix(-0.746009 0.665936 0.665936 0.746009 629.543 710.717)" fill="#451D12" stroke="#5A2122" stroke-width="1.98737"/>
<circle cx="38.5307" cy="38.5307" r="37.537" transform="matrix(-0.746009 0.665936 0.665936 0.746009 676.578 671.93)" fill="#451D12" stroke="#5A2122" stroke-width="1.98737"/>
<circle cx="30.9468" cy="30.9468" r="29.9532" transform="matrix(-0.746009 0.665936 0.665936 0.746009 675.973 682.636)" fill="#451D12" stroke="#5A2122" stroke-width="1.98737"/>
<circle cx="23.3842" cy="23.3842" r="22.3905" transform="matrix(-0.746009 0.665936 0.665936 0.746009 675.367 693.313)" fill="#451D12" stroke="#5A2122" stroke-width="1.98737"/>
<circle cx="16.1359" cy="16.1359" r="15.1422" transform="matrix(-0.746009 0.665936 0.665936 0.746009 674.785 703.549)" fill="#451D12" stroke="#5A2122" stroke-width="1.98737"/>
<circle cx="38.5307" cy="38.5307" r="37.537" transform="matrix(-0.746009 0.665936 0.665936 0.746009 734.062 620.614)" fill="#451D12" stroke="#5A2122" stroke-width="1.98737"/>
<circle cx="30.9468" cy="30.9468" r="29.9532" transform="matrix(-0.746009 0.665936 0.665936 0.746009 733.457 631.321)" fill="#451D12" stroke="#5A2122" stroke-width="1.98737"/>
<circle cx="23.3842" cy="23.3842" r="22.3905" transform="matrix(-0.746009 0.665936 0.665936 0.746009 732.852 641.999)" fill="#451D12" stroke="#5A2122" stroke-width="1.98737"/>
<circle cx="38.5307" cy="38.5307" r="37.537" transform="matrix(-0.746009 0.665936 0.665936 0.746009 303.98 428.469)" fill="#451D12" stroke="#5A2122" stroke-width="1.98737"/>
<circle cx="30.9468" cy="30.9468" r="29.9532" transform="matrix(-0.746009 0.665936 0.665936 0.746009 303.371 439.177)" fill="#451D12" stroke="#5A2122" stroke-width="1.98737"/>
<circle cx="23.3842" cy="23.3842" r="22.3905" transform="matrix(-0.746009 0.665936 0.665936 0.746009 302.766 449.855)" fill="#451D12" stroke="#5A2122" stroke-width="1.98737"/>
<circle cx="16.1359" cy="16.1359" r="15.1422" transform="matrix(-0.746009 0.665936 0.665936 0.746009 302.188 460.089)" fill="#451D12" stroke="#5A2122" stroke-width="1.98737"/>
<circle cx="38.5307" cy="38.5307" r="37.537" transform="matrix(-0.746009 0.665936 0.665936 0.746009 362.355 378.137)" fill="#451D12" stroke="#5A2122" stroke-width="1.98737"/>
<circle cx="30.9468" cy="30.9468" r="29.9532" transform="matrix(-0.746009 0.665936 0.665936 0.746009 361.746 388.845)" fill="#451D12" stroke="#5A2122" stroke-width="1.98737"/>
<circle cx="23.3842" cy="23.3842" r="22.3905" transform="matrix(-0.746009 0.665936 0.665936 0.746009 361.141 399.523)" fill="#451D12" stroke="#5A2122" stroke-width="1.98737"/>
<circle cx="16.1359" cy="16.1359" r="15.1422" transform="matrix(-0.746009 0.665936 0.665936 0.746009 360.562 409.757)" fill="#451D12" stroke="#5A2122" stroke-width="1.98737"/>
<circle cx="38.5307" cy="38.5307" r="37.537" transform="matrix(-0.746009 0.665936 0.665936 0.746009 350.828 423.084)" fill="#451D12" stroke="#5A2122" stroke-width="1.98737"/>
<circle cx="30.9468" cy="30.9468" r="29.9532" transform="matrix(-0.746009 0.665936 0.665936 0.746009 350.219 433.793)" fill="#451D12" stroke="#5A2122" stroke-width="1.98737"/>
<circle cx="23.3842" cy="23.3842" r="22.3905" transform="matrix(-0.746009 0.665936 0.665936 0.746009 349.613 444.47)" fill="#451D12" stroke="#5A2122" stroke-width="1.98737"/>
<circle cx="16.1359" cy="16.1359" r="15.1422" transform="matrix(-0.746009 0.665936 0.665936 0.746009 349.031 454.706)" fill="#451D12" stroke="#5A2122" stroke-width="1.98737"/>
<circle cx="38.5307" cy="38.5307" r="37.537" transform="matrix(-0.746009 0.665936 0.665936 0.746009 293.336 474.404)" fill="#451D12" stroke="#5A2122" stroke-width="1.98737"/>
<circle cx="30.9468" cy="30.9468" r="29.9532" transform="matrix(-0.746009 0.665936 0.665936 0.746009 292.73 485.111)" fill="#451D12" stroke="#5A2122" stroke-width="1.98737"/>
<circle cx="23.3842" cy="23.3842" r="22.3905" transform="matrix(-0.746009 0.665936 0.665936 0.746009 292.121 495.791)" fill="#451D12" stroke="#5A2122" stroke-width="1.98737"/>
<circle cx="16.1359" cy="16.1359" r="15.1422" transform="matrix(-0.746009 0.665936 0.665936 0.746009 291.543 506.024)" fill="#451D12" stroke="#5A2122" stroke-width="1.98737"/>
<circle cx="38.5307" cy="38.5307" r="37.537" transform="matrix(-0.746009 0.665936 0.665936 0.746009 340.387 469.251)" fill="#451D12" stroke="#5A2122" stroke-width="1.98737"/>
<circle cx="30.9468" cy="30.9468" r="29.9532" transform="matrix(-0.746009 0.665936 0.665936 0.746009 339.781 479.958)" fill="#451D12" stroke="#5A2122" stroke-width="1.98737"/>
<circle cx="23.3842" cy="23.3842" r="22.3905" transform="matrix(-0.746009 0.665936 0.665936 0.746009 339.176 490.636)" fill="#451D12" stroke="#5A2122" stroke-width="1.98737"/>
<circle cx="16.1359" cy="16.1359" r="15.1422" transform="matrix(-0.746009 0.665936 0.665936 0.746009 338.594 500.871)" fill="#451D12" stroke="#5A2122" stroke-width="1.98737"/>
<circle cx="38.5307" cy="38.5307" r="37.537" transform="matrix(-0.746009 0.665936 0.665936 0.746009 282.898 520.569)" fill="#451D12" stroke="#5A2122" stroke-width="1.98737"/>
<circle cx="30.9468" cy="30.9468" r="29.9532" transform="matrix(-0.746009 0.665936 0.665936 0.746009 282.289 531.277)" fill="#451D12" stroke="#5A2122" stroke-width="1.98737"/>
<circle cx="23.3842" cy="23.3842" r="22.3905" transform="matrix(-0.746009 0.665936 0.665936 0.746009 281.688 541.955)" fill="#451D12" stroke="#5A2122" stroke-width="1.98737"/>
<circle cx="16.1359" cy="16.1359" r="15.1422" transform="matrix(-0.746009 0.665936 0.665936 0.746009 281.102 552.19)" fill="#451D12" stroke="#5A2122" stroke-width="1.98737"/>
<circle cx="38.5307" cy="38.5307" r="37.537" transform="matrix(-0.746009 0.665936 0.665936 0.746009 397.875 417.934)" fill="#451D12" stroke="#5A2122" stroke-width="1.98737"/>
<circle cx="30.9468" cy="30.9468" r="29.9532" transform="matrix(-0.746009 0.665936 0.665936 0.746009 397.27 428.639)" fill="#451D12" stroke="#5A2122" stroke-width="1.98737"/>
<circle cx="23.3842" cy="23.3842" r="22.3905" transform="matrix(-0.746009 0.665936 0.665936 0.746009 396.66 439.318)" fill="#451D12" stroke="#5A2122" stroke-width="1.98737"/>
<circle cx="16.1359" cy="16.1359" r="15.1422" transform="matrix(-0.746009 0.665936 0.665936 0.746009 396.082 449.553)" fill="#451D12" stroke="#5A2122" stroke-width="1.98737"/>
<circle cx="38.5307" cy="38.5307" r="37.537" transform="matrix(-0.746009 0.665936 0.665936 0.746009 385.641 462.088)" fill="#451D12" stroke="#5A2122" stroke-width="1.98737"/>
<circle cx="30.9468" cy="30.9468" r="29.9532" transform="matrix(-0.746009 0.665936 0.665936 0.746009 385.031 472.796)" fill="#451D12" stroke="#5A2122" stroke-width="1.98737"/>
<circle cx="23.3842" cy="23.3842" r="22.3905" transform="matrix(-0.746009 0.665936 0.665936 0.746009 384.43 483.473)" fill="#451D12" stroke="#5A2122" stroke-width="1.98737"/>
<circle cx="16.1359" cy="16.1359" r="15.1422" transform="matrix(-0.746009 0.665936 0.665936 0.746009 383.848 493.708)" fill="#451D12" stroke="#5A2122" stroke-width="1.98737"/>
<circle cx="38.5307" cy="38.5307" r="37.537" transform="matrix(-0.746009 0.665936 0.665936 0.746009 328.152 513.405)" fill="#451D12" stroke="#5A2122" stroke-width="1.98737"/>
<circle cx="30.9468" cy="30.9468" r="29.9532" transform="matrix(-0.746009 0.665936 0.665936 0.746009 327.547 524.113)" fill="#451D12" stroke="#5A2122" stroke-width="1.98737"/>
<circle cx="23.3842" cy="23.3842" r="22.3905" transform="matrix(-0.746009 0.665936 0.665936 0.746009 326.941 534.79)" fill="#451D12" stroke="#5A2122" stroke-width="1.98737"/>
<circle cx="16.1359" cy="16.1359" r="15.1422" transform="matrix(-0.746009 0.665936 0.665936 0.746009 326.359 545.026)" fill="#451D12" stroke="#5A2122" stroke-width="1.98737"/>
<circle cx="38.5307" cy="38.5307" r="37.537" transform="matrix(-0.746009 0.665936 0.665936 0.746009 373.398 506.233)" fill="#451D12" stroke="#5A2122" stroke-width="1.98737"/>
<circle cx="30.9468" cy="30.9468" r="29.9532" transform="matrix(-0.746009 0.665936 0.665936 0.746009 372.789 516.941)" fill="#451D12" stroke="#5A2122" stroke-width="1.98737"/>
<circle cx="23.3842" cy="23.3842" r="22.3905" transform="matrix(-0.746009 0.665936 0.665936 0.746009 372.184 527.62)" fill="#451D12" stroke="#5A2122" stroke-width="1.98737"/>
<circle cx="16.1359" cy="16.1359" r="15.1422" transform="matrix(-0.746009 0.665936 0.665936 0.746009 371.605 537.854)" fill="#451D12" stroke="#5A2122" stroke-width="1.98737"/>
<circle cx="38.5307" cy="38.5307" r="37.537" transform="matrix(-0.746009 0.665936 0.665936 0.746009 430.887 454.919)" fill="#451D12" stroke="#5A2122" stroke-width="1.98737"/>
<circle cx="30.9468" cy="30.9468" r="29.9532" transform="matrix(-0.746009 0.665936 0.665936 0.746009 430.281 465.626)" fill="#451D12" stroke="#5A2122" stroke-width="1.98737"/>
<circle cx="23.3842" cy="23.3842" r="22.3905" transform="matrix(-0.746009 0.665936 0.665936 0.746009 429.676 476.303)" fill="#451D12" stroke="#5A2122" stroke-width="1.98737"/>
<circle cx="16.1359" cy="16.1359" r="15.1422" transform="matrix(-0.746009 0.665936 0.665936 0.746009 429.094 486.538)" fill="#451D12" stroke="#5A2122" stroke-width="1.98737"/>
<circle cx="38.5307" cy="38.5307" r="37.537" transform="matrix(-0.746009 0.665936 0.665936 0.746009 74.0273 633.741)" fill="#451D12" stroke="#5A2122" stroke-width="1.98737"/>
<circle cx="30.9468" cy="30.9468" r="29.9532" transform="matrix(-0.746009 0.665936 0.665936 0.746009 73.4219 644.448)" fill="#451D12" stroke="#5A2122" stroke-width="1.98737"/>
<circle cx="23.3842" cy="23.3842" r="22.3905" transform="matrix(-0.746009 0.665936 0.665936 0.746009 72.8125 655.128)" fill="#451D12" stroke="#5A2122" stroke-width="1.98737"/>
<circle cx="16.1359" cy="16.1359" r="15.1422" transform="matrix(-0.746009 0.665936 0.665936 0.746009 72.2344 665.361)" fill="#451D12" stroke="#5A2122" stroke-width="1.98737"/>
<circle cx="38.5307" cy="38.5307" r="37.537" transform="matrix(-0.746009 0.665936 0.665936 0.746009 16.5586 685.044)" fill="#451D12" stroke="#5A2122" stroke-width="1.98737"/>
<circle cx="30.9468" cy="30.9468" r="29.9532" transform="matrix(-0.746009 0.665936 0.665936 0.746009 15.9492 695.752)" fill="#451D12" stroke="#5A2122" stroke-width="1.98737"/>
<circle cx="23.3842" cy="23.3842" r="22.3905" transform="matrix(-0.746009 0.665936 0.665936 0.746009 15.3477 706.43)" fill="#451D12" stroke="#5A2122" stroke-width="1.98737"/>
<circle cx="16.1359" cy="16.1359" r="15.1422" transform="matrix(-0.746009 0.665936 0.665936 0.746009 14.7656 716.663)" fill="#451D12" stroke="#5A2122" stroke-width="1.98737"/>
<circle cx="38.5307" cy="38.5307" r="37.537" transform="matrix(-0.746009 0.665936 0.665936 0.746009 178.367 577.035)" fill="#451D12" stroke="#5A2122" stroke-width="1.98737"/>
<circle cx="30.9468" cy="30.9468" r="29.9532" transform="matrix(-0.746009 0.665936 0.665936 0.746009 177.758 587.745)" fill="#451D12" stroke="#5A2122" stroke-width="1.98737"/>
<circle cx="23.3842" cy="23.3842" r="22.3905" transform="matrix(-0.746009 0.665936 0.665936 0.746009 177.148 598.424)" fill="#451D12" stroke="#5A2122" stroke-width="1.98737"/>
<circle cx="16.1359" cy="16.1359" r="15.1422" transform="matrix(-0.746009 0.665936 0.665936 0.746009 176.57 608.657)" fill="#451D12" stroke="#5A2122" stroke-width="1.98737"/>
<circle cx="38.5307" cy="38.5307" r="37.537" transform="matrix(-0.746009 0.665936 0.665936 0.746009 63.3828 679.676)" fill="#451D12" stroke="#5A2122" stroke-width="1.98737"/>
<circle cx="30.9468" cy="30.9468" r="29.9532" transform="matrix(-0.746009 0.665936 0.665936 0.746009 62.7734 690.384)" fill="#451D12" stroke="#5A2122" stroke-width="1.98737"/>
<circle cx="23.3842" cy="23.3842" r="22.3905" transform="matrix(-0.746009 0.665936 0.665936 0.746009 62.1719 701.061)" fill="#451D12" stroke="#5A2122" stroke-width="1.98737"/>
<circle cx="16.1359" cy="16.1359" r="15.1422" transform="matrix(-0.746009 0.665936 0.665936 0.746009 61.5898 711.295)" fill="#451D12" stroke="#5A2122" stroke-width="1.98737"/>
<circle cx="38.5307" cy="38.5307" r="37.537" transform="matrix(-0.746009 0.665936 0.665936 0.746009 167.926 623.203)" fill="#451D12" stroke="#5A2122" stroke-width="1.98737"/>
<circle cx="30.9468" cy="30.9468" r="29.9532" transform="matrix(-0.746009 0.665936 0.665936 0.746009 167.316 633.91)" fill="#451D12" stroke="#5A2122" stroke-width="1.98737"/>
<circle cx="23.3842" cy="23.3842" r="22.3905" transform="matrix(-0.746009 0.665936 0.665936 0.746009 166.715 644.588)" fill="#451D12" stroke="#5A2122" stroke-width="1.98737"/>
<circle cx="16.1359" cy="16.1359" r="15.1422" transform="matrix(-0.746009 0.665936 0.665936 0.746009 166.133 654.823)" fill="#451D12" stroke="#5A2122" stroke-width="1.98737"/>
<circle cx="38.5307" cy="38.5307" r="37.537" transform="matrix(-0.746009 0.665936 0.665936 0.746009 199.488 644.999)" fill="#451D12" stroke="#5A2122" stroke-width="1.98737"/>
<circle cx="30.9468" cy="30.9468" r="29.9532" transform="matrix(-0.746009 0.665936 0.665936 0.746009 198.879 655.706)" fill="#451D12" stroke="#5A2122" stroke-width="1.98737"/>
<circle cx="23.3842" cy="23.3842" r="22.3905" transform="matrix(-0.746009 0.665936 0.665936 0.746009 198.277 666.384)" fill="#451D12" stroke="#5A2122" stroke-width="1.98737"/>
<circle cx="16.1359" cy="16.1359" r="15.1422" transform="matrix(-0.746009 0.665936 0.665936 0.746009 197.695 676.619)" fill="#451D12" stroke="#5A2122" stroke-width="1.98737"/>
<circle cx="38.5307" cy="38.5307" r="37.537" transform="matrix(-0.746009 0.665936 0.665936 0.746009 110.438 674.521)" fill="#451D12" stroke="#5A2122" stroke-width="1.98737"/>
<circle cx="30.9468" cy="30.9468" r="29.9532" transform="matrix(-0.746009 0.665936 0.665936 0.746009 109.828 685.229)" fill="#451D12" stroke="#5A2122" stroke-width="1.98737"/>
<circle cx="23.3842" cy="23.3842" r="22.3905" transform="matrix(-0.746009 0.665936 0.665936 0.746009 109.227 695.906)" fill="#451D12" stroke="#5A2122" stroke-width="1.98737"/>
<circle cx="16.1359" cy="16.1359" r="15.1422" transform="matrix(-0.746009 0.665936 0.665936 0.746009 108.645 706.142)" fill="#451D12" stroke="#5A2122" stroke-width="1.98737"/>
<circle cx="38.5307" cy="38.5307" r="37.537" transform="matrix(-0.746009 0.665936 0.665936 0.746009 52.9453 725.842)" fill="#451D12" stroke="#5A2122" stroke-width="1.98737"/>
<circle cx="30.9468" cy="30.9468" r="29.9532" transform="matrix(-0.746009 0.665936 0.665936 0.746009 52.3359 736.549)" fill="#451D12" stroke="#5A2122" stroke-width="1.98737"/>
<circle cx="38.5307" cy="38.5307" r="37.537" transform="matrix(-0.746009 0.665936 0.665936 0.746009 225.414 571.886)" fill="#451D12" stroke="#5A2122" stroke-width="1.98737"/>
<circle cx="30.9468" cy="30.9468" r="29.9532" transform="matrix(-0.746009 0.665936 0.665936 0.746009 224.805 582.594)" fill="#451D12" stroke="#5A2122" stroke-width="1.98737"/>
<circle cx="23.3842" cy="23.3842" r="22.3905" transform="matrix(-0.746009 0.665936 0.665936 0.746009 224.199 593.271)" fill="#451D12" stroke="#5A2122" stroke-width="1.98737"/>
<circle cx="16.1359" cy="16.1359" r="15.1422" transform="matrix(-0.746009 0.665936 0.665936 0.746009 223.621 603.506)" fill="#451D12" stroke="#5A2122" stroke-width="1.98737"/>
<circle cx="38.5307" cy="38.5307" r="37.537" transform="matrix(-0.746009 0.665936 0.665936 0.746009 213.18 616.041)" fill="#451D12" stroke="#5A2122" stroke-width="1.98737"/>
<circle cx="30.9468" cy="30.9468" r="29.9532" transform="matrix(-0.746009 0.665936 0.665936 0.746009 212.57 626.749)" fill="#451D12" stroke="#5A2122" stroke-width="1.98737"/>
<circle cx="23.3842" cy="23.3842" r="22.3905" transform="matrix(-0.746009 0.665936 0.665936 0.746009 211.965 637.428)" fill="#451D12" stroke="#5A2122" stroke-width="1.98737"/>
<circle cx="16.1359" cy="16.1359" r="15.1422" transform="matrix(-0.746009 0.665936 0.665936 0.746009 211.387 647.661)" fill="#451D12" stroke="#5A2122" stroke-width="1.98737"/>
<circle cx="38.5307" cy="38.5307" r="37.537" transform="matrix(-0.746009 0.665936 0.665936 0.746009 98.2188 718.661)" fill="#451D12" stroke="#5A2122" stroke-width="1.98737"/>
<circle cx="30.9468" cy="30.9468" r="29.9532" transform="matrix(-0.746009 0.665936 0.665936 0.746009 97.6094 729.37)" fill="#451D12" stroke="#5A2122" stroke-width="1.98737"/>
<circle cx="38.5307" cy="38.5307" r="37.537" transform="matrix(-0.746009 0.665936 0.665936 0.746009 143.449 711.504)" fill="#451D12" stroke="#5A2122" stroke-width="1.98737"/>
<circle cx="30.9468" cy="30.9468" r="29.9532" transform="matrix(-0.746009 0.665936 0.665936 0.746009 142.84 722.213)" fill="#451D12" stroke="#5A2122" stroke-width="1.98737"/>
<circle cx="23.3842" cy="23.3842" r="22.3905" transform="matrix(-0.746009 0.665936 0.665936 0.746009 142.234 732.891)" fill="#451D12" stroke="#5A2122" stroke-width="1.98737"/>
<circle cx="38.5307" cy="38.5307" r="37.537" transform="matrix(-0.746009 0.665936 0.665936 0.746009 269.066 562.934)" fill="#451D12" stroke="#5A2122" stroke-width="1.98737"/>
<circle cx="30.9468" cy="30.9468" r="29.9532" transform="matrix(-0.746009 0.665936 0.665936 0.746009 268.461 573.641)" fill="#451D12" stroke="#5A2122" stroke-width="1.98737"/>
<circle cx="23.3842" cy="23.3842" r="22.3905" transform="matrix(-0.746009 0.665936 0.665936 0.746009 267.855 584.319)" fill="#451D12" stroke="#5A2122" stroke-width="1.98737"/>
<circle cx="16.1359" cy="16.1359" r="15.1422" transform="matrix(-0.746009 0.665936 0.665936 0.746009 267.273 594.553)" fill="#451D12" stroke="#5A2122" stroke-width="1.98737"/>
<circle cx="38.5307" cy="38.5307" r="37.537" transform="matrix(-0.746009 0.665936 0.665936 0.746009 315.914 557.549)" fill="#451D12" stroke="#5A2122" stroke-width="1.98737"/>
<circle cx="30.9468" cy="30.9468" r="29.9532" transform="matrix(-0.746009 0.665936 0.665936 0.746009 315.305 568.257)" fill="#451D12" stroke="#5A2122" stroke-width="1.98737"/>
<circle cx="23.3842" cy="23.3842" r="22.3905" transform="matrix(-0.746009 0.665936 0.665936 0.746009 314.699 578.936)" fill="#451D12" stroke="#5A2122" stroke-width="1.98737"/>
<circle cx="16.1359" cy="16.1359" r="15.1422" transform="matrix(-0.746009 0.665936 0.665936 0.746009 314.121 589.169)" fill="#451D12" stroke="#5A2122" stroke-width="1.98737"/>
<circle cx="38.5307" cy="38.5307" r="37.537" transform="matrix(-0.746009 0.665936 0.665936 0.746009 258.426 608.866)" fill="#451D12" stroke="#5A2122" stroke-width="1.98737"/>
<circle cx="30.9468" cy="30.9468" r="29.9532" transform="matrix(-0.746009 0.665936 0.665936 0.746009 257.816 619.576)" fill="#451D12" stroke="#5A2122" stroke-width="1.98737"/>
<circle cx="23.3842" cy="23.3842" r="22.3905" transform="matrix(-0.746009 0.665936 0.665936 0.746009 257.211 630.253)" fill="#451D12" stroke="#5A2122" stroke-width="1.98737"/>
<circle cx="16.1359" cy="16.1359" r="15.1422" transform="matrix(-0.746009 0.665936 0.665936 0.746009 256.633 640.486)" fill="#451D12" stroke="#5A2122" stroke-width="1.98737"/>
<circle cx="38.5307" cy="38.5307" r="37.537" transform="matrix(-0.746009 0.665936 0.665936 0.746009 305.477 603.714)" fill="#451D12" stroke="#5A2122" stroke-width="1.98737"/>
<circle cx="30.9468" cy="30.9468" r="29.9532" transform="matrix(-0.746009 0.665936 0.665936 0.746009 304.867 614.422)" fill="#451D12" stroke="#5A2122" stroke-width="1.98737"/>
<circle cx="23.3842" cy="23.3842" r="22.3905" transform="matrix(-0.746009 0.665936 0.665936 0.746009 304.262 625.101)" fill="#451D12" stroke="#5A2122" stroke-width="1.98737"/>
<circle cx="16.1359" cy="16.1359" r="15.1422" transform="matrix(-0.746009 0.665936 0.665936 0.746009 303.684 635.334)" fill="#451D12" stroke="#5A2122" stroke-width="1.98737"/>
<circle cx="38.5307" cy="38.5307" r="37.537" transform="matrix(-0.746009 0.665936 0.665936 0.746009 247.988 655.032)" fill="#451D12" stroke="#5A2122" stroke-width="1.98737"/>
<circle cx="30.9468" cy="30.9468" r="29.9532" transform="matrix(-0.746009 0.665936 0.665936 0.746009 247.379 665.741)" fill="#451D12" stroke="#5A2122" stroke-width="1.98737"/>
<circle cx="23.3842" cy="23.3842" r="22.3905" transform="matrix(-0.746009 0.665936 0.665936 0.746009 246.773 676.419)" fill="#451D12" stroke="#5A2122" stroke-width="1.98737"/>
<circle cx="16.1359" cy="16.1359" r="15.1422" transform="matrix(-0.746009 0.665936 0.665936 0.746009 246.195 686.652)" fill="#451D12" stroke="#5A2122" stroke-width="1.98737"/>
<circle cx="38.5307" cy="38.5307" r="37.537" transform="matrix(-0.746009 0.665936 0.665936 0.746009 362.965 552.396)" fill="#451D12" stroke="#5A2122" stroke-width="1.98737"/>
<circle cx="30.9468" cy="30.9468" r="29.9532" transform="matrix(-0.746009 0.665936 0.665936 0.746009 362.355 563.104)" fill="#451D12" stroke="#5A2122" stroke-width="1.98737"/>
<circle cx="23.3842" cy="23.3842" r="22.3905" transform="matrix(-0.746009 0.665936 0.665936 0.746009 361.75 573.781)" fill="#451D12" stroke="#5A2122" stroke-width="1.98737"/>
<circle cx="16.1359" cy="16.1359" r="15.1422" transform="matrix(-0.746009 0.665936 0.665936 0.746009 361.172 584.016)" fill="#451D12" stroke="#5A2122" stroke-width="1.98737"/>
<circle cx="38.5307" cy="38.5307" r="37.537" transform="matrix(-0.746009 0.665936 0.665936 0.746009 190.512 706.336)" fill="#451D12" stroke="#5A2122" stroke-width="1.98737"/>
<circle cx="30.9468" cy="30.9468" r="29.9532" transform="matrix(-0.746009 0.665936 0.665936 0.746009 189.902 717.045)" fill="#451D12" stroke="#5A2122" stroke-width="1.98737"/>
<circle cx="23.3842" cy="23.3842" r="22.3905" transform="matrix(-0.746009 0.665936 0.665936 0.746009 189.297 727.723)" fill="#451D12" stroke="#5A2122" stroke-width="1.98737"/>
<circle cx="16.1359" cy="16.1359" r="15.1422" transform="matrix(-0.746009 0.665936 0.665936 0.746009 188.715 737.958)" fill="#451D12" stroke="#5A2122" stroke-width="1.98737"/>
<circle cx="38.5307" cy="38.5307" r="37.537" transform="matrix(-0.746009 0.665936 0.665936 0.746009 420.445 501.084)" fill="#451D12" stroke="#5A2122" stroke-width="1.98737"/>
<circle cx="30.9468" cy="30.9468" r="29.9532" transform="matrix(-0.746009 0.665936 0.665936 0.746009 419.836 511.793)" fill="#451D12" stroke="#5A2122" stroke-width="1.98737"/>
<circle cx="23.3842" cy="23.3842" r="22.3905" transform="matrix(-0.746009 0.665936 0.665936 0.746009 419.23 522.471)" fill="#451D12" stroke="#5A2122" stroke-width="1.98737"/>
<circle cx="16.1359" cy="16.1359" r="15.1422" transform="matrix(-0.746009 0.665936 0.665936 0.746009 418.652 532.704)" fill="#451D12" stroke="#5A2122" stroke-width="1.98737"/>
<circle cx="38.5307" cy="38.5307" r="37.537" transform="matrix(-0.746009 0.665936 0.665936 0.746009 350.73 596.551)" fill="#451D12" stroke="#5A2122" stroke-width="1.98737"/>
<circle cx="30.9468" cy="30.9468" r="29.9532" transform="matrix(-0.746009 0.665936 0.665936 0.746009 350.121 607.259)" fill="#451D12" stroke="#5A2122" stroke-width="1.98737"/>
<circle cx="23.3842" cy="23.3842" r="22.3905" transform="matrix(-0.746009 0.665936 0.665936 0.746009 349.516 617.938)" fill="#451D12" stroke="#5A2122" stroke-width="1.98737"/>
<circle cx="16.1359" cy="16.1359" r="15.1422" transform="matrix(-0.746009 0.665936 0.665936 0.746009 348.934 628.172)" fill="#451D12" stroke="#5A2122" stroke-width="1.98737"/>
<circle cx="38.5307" cy="38.5307" r="37.537" transform="matrix(-0.746009 0.665936 0.665936 0.746009 408.211 545.238)" fill="#451D12" stroke="#5A2122" stroke-width="1.98737"/>
<circle cx="30.9468" cy="30.9468" r="29.9532" transform="matrix(-0.746009 0.665936 0.665936 0.746009 407.605 555.945)" fill="#451D12" stroke="#5A2122" stroke-width="1.98737"/>
<circle cx="23.3842" cy="23.3842" r="22.3905" transform="matrix(-0.746009 0.665936 0.665936 0.746009 407 566.623)" fill="#451D12" stroke="#5A2122" stroke-width="1.98737"/>
<circle cx="16.1359" cy="16.1359" r="15.1422" transform="matrix(-0.746009 0.665936 0.665936 0.746009 406.418 576.858)" fill="#451D12" stroke="#5A2122" stroke-width="1.98737"/>
<circle cx="38.5307" cy="38.5307" r="37.537" transform="matrix(-0.746009 0.665936 0.665936 0.746009 465.707 493.915)" fill="#451D12" stroke="#5A2122" stroke-width="1.98737"/>
<circle cx="30.9468" cy="30.9468" r="29.9532" transform="matrix(-0.746009 0.665936 0.665936 0.746009 465.102 504.623)" fill="#451D12" stroke="#5A2122" stroke-width="1.98737"/>
<circle cx="23.3842" cy="23.3842" r="22.3905" transform="matrix(-0.746009 0.665936 0.665936 0.746009 464.492 515.302)" fill="#451D12" stroke="#5A2122" stroke-width="1.98737"/>
<circle cx="16.1359" cy="16.1359" r="15.1422" transform="matrix(-0.746009 0.665936 0.665936 0.746009 463.914 525.535)" fill="#451D12" stroke="#5A2122" stroke-width="1.98737"/>
<circle cx="38.5307" cy="38.5307" r="37.537" transform="matrix(-0.746009 0.665936 0.665936 0.746009 293.242 647.868)" fill="#451D12" stroke="#5A2122" stroke-width="1.98737"/>
<circle cx="30.9468" cy="30.9468" r="29.9532" transform="matrix(-0.746009 0.665936 0.665936 0.746009 292.633 658.578)" fill="#451D12" stroke="#5A2122" stroke-width="1.98737"/>
<circle cx="23.3842" cy="23.3842" r="22.3905" transform="matrix(-0.746009 0.665936 0.665936 0.746009 292.027 669.255)" fill="#451D12" stroke="#5A2122" stroke-width="1.98737"/>
<circle cx="16.1359" cy="16.1359" r="15.1422" transform="matrix(-0.746009 0.665936 0.665936 0.746009 291.449 679.488)" fill="#451D12" stroke="#5A2122" stroke-width="1.98737"/>
<circle cx="38.5307" cy="38.5307" r="37.537" transform="matrix(-0.746009 0.665936 0.665936 0.746009 235.758 699.182)" fill="#451D12" stroke="#5A2122" stroke-width="1.98737"/>
<circle cx="30.9468" cy="30.9468" r="29.9532" transform="matrix(-0.746009 0.665936 0.665936 0.746009 235.152 709.888)" fill="#451D12" stroke="#5A2122" stroke-width="1.98737"/>
<circle cx="23.3842" cy="23.3842" r="22.3905" transform="matrix(-0.746009 0.665936 0.665936 0.746009 234.547 720.566)" fill="#451D12" stroke="#5A2122" stroke-width="1.98737"/>
<circle cx="16.1359" cy="16.1359" r="15.1422" transform="matrix(-0.746009 0.665936 0.665936 0.746009 233.965 730.801)" fill="#451D12" stroke="#5A2122" stroke-width="1.98737"/>
<circle cx="38.5307" cy="38.5307" r="37.537" transform="matrix(-0.746009 0.665936 0.665936 0.746009 338.484 640.699)" fill="#451D12" stroke="#5A2122" stroke-width="1.98737"/>
<circle cx="30.9468" cy="30.9468" r="29.9532" transform="matrix(-0.746009 0.665936 0.665936 0.746009 337.879 651.405)" fill="#451D12" stroke="#5A2122" stroke-width="1.98737"/>
<circle cx="23.3842" cy="23.3842" r="22.3905" transform="matrix(-0.746009 0.665936 0.665936 0.746009 337.273 662.083)" fill="#451D12" stroke="#5A2122" stroke-width="1.98737"/>
<circle cx="16.1359" cy="16.1359" r="15.1422" transform="matrix(-0.746009 0.665936 0.665936 0.746009 336.691 672.318)" fill="#451D12" stroke="#5A2122" stroke-width="1.98737"/>
<circle cx="38.5307" cy="38.5307" r="37.537" transform="matrix(-0.746009 0.665936 0.665936 0.746009 395.969 589.386)" fill="#451D12" stroke="#5A2122" stroke-width="1.98737"/>
<circle cx="30.9468" cy="30.9468" r="29.9532" transform="matrix(-0.746009 0.665936 0.665936 0.746009 395.363 600.092)" fill="#451D12" stroke="#5A2122" stroke-width="1.98737"/>
<circle cx="23.3842" cy="23.3842" r="22.3905" transform="matrix(-0.746009 0.665936 0.665936 0.746009 394.758 610.77)" fill="#451D12" stroke="#5A2122" stroke-width="1.98737"/>
<circle cx="16.1359" cy="16.1359" r="15.1422" transform="matrix(-0.746009 0.665936 0.665936 0.746009 394.176 621.005)" fill="#451D12" stroke="#5A2122" stroke-width="1.98737"/>
<circle cx="38.5307" cy="38.5307" r="37.537" transform="matrix(-0.746009 0.665936 0.665936 0.746009 453.461 538.066)" fill="#451D12" stroke="#5A2122" stroke-width="1.98737"/>
<circle cx="30.9468" cy="30.9468" r="29.9532" transform="matrix(-0.746009 0.665936 0.665936 0.746009 452.852 548.775)" fill="#451D12" stroke="#5A2122" stroke-width="1.98737"/>
<circle cx="23.3842" cy="23.3842" r="22.3905" transform="matrix(-0.746009 0.665936 0.665936 0.746009 452.25 559.45)" fill="#451D12" stroke="#5A2122" stroke-width="1.98737"/>
<circle cx="16.1359" cy="16.1359" r="15.1422" transform="matrix(-0.746009 0.665936 0.665936 0.746009 451.668 569.687)" fill="#451D12" stroke="#5A2122" stroke-width="1.98737"/>
<circle cx="38.5307" cy="38.5307" r="37.537" transform="matrix(-0.746009 0.665936 0.665936 0.746009 281.004 692.009)" fill="#451D12" stroke="#5A2122" stroke-width="1.98737"/>
<circle cx="30.9468" cy="30.9468" r="29.9532" transform="matrix(-0.746009 0.665936 0.665936 0.746009 280.395 702.718)" fill="#451D12" stroke="#5A2122" stroke-width="1.98737"/>
<circle cx="23.3842" cy="23.3842" r="22.3905" transform="matrix(-0.746009 0.665936 0.665936 0.746009 279.789 713.396)" fill="#451D12" stroke="#5A2122" stroke-width="1.98737"/>
<circle cx="16.1359" cy="16.1359" r="15.1422" transform="matrix(-0.746009 0.665936 0.665936 0.746009 279.211 723.629)" fill="#451D12" stroke="#5A2122" stroke-width="1.98737"/>
<circle cx="38.5307" cy="38.5307" r="37.537" transform="matrix(-0.746009 0.665936 0.665936 0.746009 382.16 631.729)" fill="#451D12" stroke="#5A2122" stroke-width="1.98737"/>
<circle cx="30.9468" cy="30.9468" r="29.9532" transform="matrix(-0.746009 0.665936 0.665936 0.746009 381.551 642.439)" fill="#451D12" stroke="#5A2122" stroke-width="1.98737"/>
<circle cx="23.3842" cy="23.3842" r="22.3905" transform="matrix(-0.746009 0.665936 0.665936 0.746009 380.945 653.116)" fill="#451D12" stroke="#5A2122" stroke-width="1.98737"/>
<circle cx="16.1359" cy="16.1359" r="15.1422" transform="matrix(-0.746009 0.665936 0.665936 0.746009 380.367 663.35)" fill="#451D12" stroke="#5A2122" stroke-width="1.98737"/>
<circle cx="38.5307" cy="38.5307" r="37.537" transform="matrix(-0.746009 0.665936 0.665936 0.746009 439.645 580.417)" fill="#451D12" stroke="#5A2122" stroke-width="1.98737"/>
<circle cx="30.9468" cy="30.9468" r="29.9532" transform="matrix(-0.746009 0.665936 0.665936 0.746009 439.035 591.125)" fill="#451D12" stroke="#5A2122" stroke-width="1.98737"/>
<circle cx="23.3842" cy="23.3842" r="22.3905" transform="matrix(-0.746009 0.665936 0.665936 0.746009 438.434 601.803)" fill="#451D12" stroke="#5A2122" stroke-width="1.98737"/>
<circle cx="16.1359" cy="16.1359" r="15.1422" transform="matrix(-0.746009 0.665936 0.665936 0.746009 437.852 612.036)" fill="#451D12" stroke="#5A2122" stroke-width="1.98737"/>
<circle cx="38.5307" cy="38.5307" r="37.537" transform="matrix(-0.746009 0.665936 0.665936 0.746009 497.133 529.097)" fill="#451D12" stroke="#5A2122" stroke-width="1.98737"/>
<circle cx="30.9468" cy="30.9468" r="29.9532" transform="matrix(-0.746009 0.665936 0.665936 0.746009 496.523 539.806)" fill="#451D12" stroke="#5A2122" stroke-width="1.98737"/>
<circle cx="23.3842" cy="23.3842" r="22.3905" transform="matrix(-0.746009 0.665936 0.665936 0.746009 495.918 550.482)" fill="#451D12" stroke="#5A2122" stroke-width="1.98737"/>
<circle cx="16.1359" cy="16.1359" r="15.1422" transform="matrix(-0.746009 0.665936 0.665936 0.746009 495.34 560.717)" fill="#451D12" stroke="#5A2122" stroke-width="1.98737"/>
<circle cx="38.5307" cy="38.5307" r="37.537" transform="matrix(-0.746009 0.665936 0.665936 0.746009 324.668 683.049)" fill="#451D12" stroke="#5A2122" stroke-width="1.98737"/>
<circle cx="30.9468" cy="30.9468" r="29.9532" transform="matrix(-0.746009 0.665936 0.665936 0.746009 324.059 693.758)" fill="#451D12" stroke="#5A2122" stroke-width="1.98737"/>
<circle cx="23.3842" cy="23.3842" r="22.3905" transform="matrix(-0.746009 0.665936 0.665936 0.746009 323.457 704.435)" fill="#451D12" stroke="#5A2122" stroke-width="1.98737"/>
<circle cx="16.1359" cy="16.1359" r="15.1422" transform="matrix(-0.746009 0.665936 0.665936 0.746009 322.875 714.668)" fill="#451D12" stroke="#5A2122" stroke-width="1.98737"/>
<circle cx="38.5307" cy="38.5307" r="37.537" transform="matrix(-0.746009 0.665936 0.665936 0.746009 267.18 734.371)" fill="#451D12" stroke="#5A2122" stroke-width="1.98737"/>
<circle cx="38.5307" cy="38.5307" r="37.537" transform="matrix(-0.746009 0.665936 0.665936 0.746009 371.719 677.897)" fill="#451D12" stroke="#5A2122" stroke-width="1.98737"/>
<circle cx="30.9468" cy="30.9468" r="29.9532" transform="matrix(-0.746009 0.665936 0.665936 0.746009 371.109 688.605)" fill="#451D12" stroke="#5A2122" stroke-width="1.98737"/>
<circle cx="23.3842" cy="23.3842" r="22.3905" transform="matrix(-0.746009 0.665936 0.665936 0.746009 370.508 699.283)" fill="#451D12" stroke="#5A2122" stroke-width="1.98737"/>
<circle cx="16.1359" cy="16.1359" r="15.1422" transform="matrix(-0.746009 0.665936 0.665936 0.746009 369.926 709.517)" fill="#451D12" stroke="#5A2122" stroke-width="1.98737"/>
<circle cx="38.5307" cy="38.5307" r="37.537" transform="matrix(-0.746009 0.665936 0.665936 0.746009 314.23 729.215)" fill="#451D12" stroke="#5A2122" stroke-width="1.98737"/>
<circle cx="38.5307" cy="38.5307" r="37.537" transform="matrix(-0.746009 0.665936 0.665936 0.746009 429.207 626.579)" fill="#451D12" stroke="#5A2122" stroke-width="1.98737"/>
<circle cx="30.9468" cy="30.9468" r="29.9532" transform="matrix(-0.746009 0.665936 0.665936 0.746009 428.598 637.287)" fill="#451D12" stroke="#5A2122" stroke-width="1.98737"/>
<circle cx="23.3842" cy="23.3842" r="22.3905" transform="matrix(-0.746009 0.665936 0.665936 0.746009 427.992 647.966)" fill="#451D12" stroke="#5A2122" stroke-width="1.98737"/>
<circle cx="16.1359" cy="16.1359" r="15.1422" transform="matrix(-0.746009 0.665936 0.665936 0.746009 427.414 658.199)" fill="#451D12" stroke="#5A2122" stroke-width="1.98737"/>
<circle cx="38.5307" cy="38.5307" r="37.537" transform="matrix(-0.746009 0.665936 0.665936 0.746009 486.695 575.26)" fill="#451D12" stroke="#5A2122" stroke-width="1.98737"/>
<circle cx="30.9468" cy="30.9468" r="29.9532" transform="matrix(-0.746009 0.665936 0.665936 0.746009 486.086 585.969)" fill="#451D12" stroke="#5A2122" stroke-width="1.98737"/>
<circle cx="23.3842" cy="23.3842" r="22.3905" transform="matrix(-0.746009 0.665936 0.665936 0.746009 485.48 596.646)" fill="#451D12" stroke="#5A2122" stroke-width="1.98737"/>
<circle cx="16.1359" cy="16.1359" r="15.1422" transform="matrix(-0.746009 0.665936 0.665936 0.746009 484.902 606.88)" fill="#451D12" stroke="#5A2122" stroke-width="1.98737"/>
<circle cx="38.5307" cy="38.5307" r="37.537" transform="matrix(-0.746009 0.665936 0.665936 0.746009 416.973 670.733)" fill="#451D12" stroke="#5A2122" stroke-width="1.98737"/>
<circle cx="30.9468" cy="30.9468" r="29.9532" transform="matrix(-0.746009 0.665936 0.665936 0.746009 416.367 681.441)" fill="#451D12" stroke="#5A2122" stroke-width="1.98737"/>
<circle cx="23.3842" cy="23.3842" r="22.3905" transform="matrix(-0.746009 0.665936 0.665936 0.746009 415.762 692.118)" fill="#451D12" stroke="#5A2122" stroke-width="1.98737"/>
<circle cx="16.1359" cy="16.1359" r="15.1422" transform="matrix(-0.746009 0.665936 0.665936 0.746009 415.18 702.354)" fill="#451D12" stroke="#5A2122" stroke-width="1.98737"/>
<circle cx="38.5307" cy="38.5307" r="37.537" transform="matrix(-0.746009 0.665936 0.665936 0.746009 359.484 722.051)" fill="#451D12" stroke="#5A2122" stroke-width="1.98737"/>
<circle cx="30.9468" cy="30.9468" r="29.9532" transform="matrix(-0.746009 0.665936 0.665936 0.746009 358.875 732.76)" fill="#451D12" stroke="#5A2122" stroke-width="1.98737"/>
<circle cx="38.5307" cy="38.5307" r="37.537" transform="matrix(-0.746009 0.665936 0.665936 0.746009 404.73 714.879)" fill="#451D12" stroke="#5A2122" stroke-width="1.98737"/>
<circle cx="30.9468" cy="30.9468" r="29.9532" transform="matrix(-0.746009 0.665936 0.665936 0.746009 404.125 725.586)" fill="#451D12" stroke="#5A2122" stroke-width="1.98737"/>
<circle cx="23.3842" cy="23.3842" r="22.3905" transform="matrix(-0.746009 0.665936 0.665936 0.746009 403.52 736.264)" fill="#451D12" stroke="#5A2122" stroke-width="1.98737"/>
<circle cx="38.5307" cy="38.5307" r="37.537" transform="matrix(-0.746009 0.665936 0.665936 0.746009 469.445 613.798)" fill="#451D12" stroke="#5A2122" stroke-width="1.98737"/>
<circle cx="30.9468" cy="30.9468" r="29.9532" transform="matrix(-0.746009 0.665936 0.665936 0.746009 468.836 624.506)" fill="#451D12" stroke="#5A2122" stroke-width="1.98737"/>
<circle cx="23.3842" cy="23.3842" r="22.3905" transform="matrix(-0.746009 0.665936 0.665936 0.746009 468.23 635.184)" fill="#451D12" stroke="#5A2122" stroke-width="1.98737"/>
<circle cx="16.1359" cy="16.1359" r="15.1422" transform="matrix(-0.746009 0.665936 0.665936 0.746009 467.652 645.418)" fill="#451D12" stroke="#5A2122" stroke-width="1.98737"/>
<circle cx="38.5307" cy="38.5307" r="37.537" transform="matrix(-0.746009 0.665936 0.665936 0.746009 527.82 563.466)" fill="#451D12" stroke="#5A2122" stroke-width="1.98737"/>
<circle cx="30.9468" cy="30.9468" r="29.9532" transform="matrix(-0.746009 0.665936 0.665936 0.746009 527.211 574.174)" fill="#451D12" stroke="#5A2122" stroke-width="1.98737"/>
<circle cx="23.3842" cy="23.3842" r="22.3905" transform="matrix(-0.746009 0.665936 0.665936 0.746009 526.605 584.853)" fill="#451D12" stroke="#5A2122" stroke-width="1.98737"/>
<circle cx="16.1359" cy="16.1359" r="15.1422" transform="matrix(-0.746009 0.665936 0.665936 0.746009 526.027 595.086)" fill="#451D12" stroke="#5A2122" stroke-width="1.98737"/>
<circle cx="38.5307" cy="38.5307" r="37.537" transform="matrix(-0.746009 0.665936 0.665936 0.746009 516.289 608.415)" fill="#451D12" stroke="#5A2122" stroke-width="1.98737"/>
<circle cx="30.9468" cy="30.9468" r="29.9532" transform="matrix(-0.746009 0.665936 0.665936 0.746009 515.684 619.122)" fill="#451D12" stroke="#5A2122" stroke-width="1.98737"/>
<circle cx="23.3842" cy="23.3842" r="22.3905" transform="matrix(-0.746009 0.665936 0.665936 0.746009 515.078 629.801)" fill="#451D12" stroke="#5A2122" stroke-width="1.98737"/>
<circle cx="16.1359" cy="16.1359" r="15.1422" transform="matrix(-0.746009 0.665936 0.665936 0.746009 514.496 640.034)" fill="#451D12" stroke="#5A2122" stroke-width="1.98737"/>
<circle cx="38.5307" cy="38.5307" r="37.537" transform="matrix(-0.746009 0.665936 0.665936 0.746009 458.801 659.732)" fill="#451D12" stroke="#5A2122" stroke-width="1.98737"/>
<circle cx="30.9468" cy="30.9468" r="29.9532" transform="matrix(-0.746009 0.665936 0.665936 0.746009 458.191 670.44)" fill="#451D12" stroke="#5A2122" stroke-width="1.98737"/>
<circle cx="23.3842" cy="23.3842" r="22.3905" transform="matrix(-0.746009 0.665936 0.665936 0.746009 457.586 681.119)" fill="#451D12" stroke="#5A2122" stroke-width="1.98737"/>
<circle cx="16.1359" cy="16.1359" r="15.1422" transform="matrix(-0.746009 0.665936 0.665936 0.746009 457.008 691.353)" fill="#451D12" stroke="#5A2122" stroke-width="1.98737"/>
<circle cx="38.5307" cy="38.5307" r="37.537" transform="matrix(-0.746009 0.665936 0.665936 0.746009 505.852 654.58)" fill="#451D12" stroke="#5A2122" stroke-width="1.98737"/>
<circle cx="30.9468" cy="30.9468" r="29.9532" transform="matrix(-0.746009 0.665936 0.665936 0.746009 505.242 665.287)" fill="#451D12" stroke="#5A2122" stroke-width="1.98737"/>
<circle cx="23.3842" cy="23.3842" r="22.3905" transform="matrix(-0.746009 0.665936 0.665936 0.746009 504.641 675.965)" fill="#451D12" stroke="#5A2122" stroke-width="1.98737"/>
<circle cx="16.1359" cy="16.1359" r="15.1422" transform="matrix(-0.746009 0.665936 0.665936 0.746009 504.059 686.2)" fill="#451D12" stroke="#5A2122" stroke-width="1.98737"/>
<circle cx="38.5307" cy="38.5307" r="37.537" transform="matrix(-0.746009 0.665936 0.665936 0.746009 448.363 705.898)" fill="#451D12" stroke="#5A2122" stroke-width="1.98737"/>
<circle cx="30.9468" cy="30.9468" r="29.9532" transform="matrix(-0.746009 0.665936 0.665936 0.746009 447.758 716.605)" fill="#451D12" stroke="#5A2122" stroke-width="1.98737"/>
<circle cx="23.3842" cy="23.3842" r="22.3905" transform="matrix(-0.746009 0.665936 0.665936 0.746009 447.152 727.283)" fill="#451D12" stroke="#5A2122" stroke-width="1.98737"/>
<circle cx="16.1359" cy="16.1359" r="15.1422" transform="matrix(-0.746009 0.665936 0.665936 0.746009 446.57 737.519)" fill="#451D12" stroke="#5A2122" stroke-width="1.98737"/>
<circle cx="38.5307" cy="38.5307" r="37.537" transform="matrix(-0.746009 0.665936 0.665936 0.746009 563.34 603.263)" fill="#451D12" stroke="#5A2122" stroke-width="1.98737"/>
<circle cx="30.9468" cy="30.9468" r="29.9532" transform="matrix(-0.746009 0.665936 0.665936 0.746009 562.73 613.971)" fill="#451D12" stroke="#5A2122" stroke-width="1.98737"/>
<circle cx="23.3842" cy="23.3842" r="22.3905" transform="matrix(-0.746009 0.665936 0.665936 0.746009 562.125 624.648)" fill="#451D12" stroke="#5A2122" stroke-width="1.98737"/>
<circle cx="16.1359" cy="16.1359" r="15.1422" transform="matrix(-0.746009 0.665936 0.665936 0.746009 561.547 634.882)" fill="#451D12" stroke="#5A2122" stroke-width="1.98737"/>
<circle cx="38.5307" cy="38.5307" r="37.537" transform="matrix(-0.746009 0.665936 0.665936 0.746009 551.105 647.418)" fill="#451D12" stroke="#5A2122" stroke-width="1.98737"/>
<circle cx="30.9468" cy="30.9468" r="29.9532" transform="matrix(-0.746009 0.665936 0.665936 0.746009 550.496 658.126)" fill="#451D12" stroke="#5A2122" stroke-width="1.98737"/>
<circle cx="23.3842" cy="23.3842" r="22.3905" transform="matrix(-0.746009 0.665936 0.665936 0.746009 549.891 668.803)" fill="#451D12" stroke="#5A2122" stroke-width="1.98737"/>
<circle cx="16.1359" cy="16.1359" r="15.1422" transform="matrix(-0.746009 0.665936 0.665936 0.746009 549.312 679.037)" fill="#451D12" stroke="#5A2122" stroke-width="1.98737"/>
<circle cx="38.5307" cy="38.5307" r="37.537" transform="matrix(-0.746009 0.665936 0.665936 0.746009 493.617 698.735)" fill="#451D12" stroke="#5A2122" stroke-width="1.98737"/>
<circle cx="30.9468" cy="30.9468" r="29.9532" transform="matrix(-0.746009 0.665936 0.665936 0.746009 493.008 709.443)" fill="#451D12" stroke="#5A2122" stroke-width="1.98737"/>
<circle cx="23.3842" cy="23.3842" r="22.3905" transform="matrix(-0.746009 0.665936 0.665936 0.746009 492.406 720.12)" fill="#451D12" stroke="#5A2122" stroke-width="1.98737"/>
<circle cx="16.1359" cy="16.1359" r="15.1422" transform="matrix(-0.746009 0.665936 0.665936 0.746009 491.824 730.355)" fill="#451D12" stroke="#5A2122" stroke-width="1.98737"/>
<circle cx="38.5307" cy="38.5307" r="37.537" transform="matrix(-0.746009 0.665936 0.665936 0.746009 538.863 691.562)" fill="#451D12" stroke="#5A2122" stroke-width="1.98737"/>
<circle cx="30.9468" cy="30.9468" r="29.9532" transform="matrix(-0.746009 0.665936 0.665936 0.746009 538.254 702.271)" fill="#451D12" stroke="#5A2122" stroke-width="1.98737"/>
<circle cx="23.3842" cy="23.3842" r="22.3905" transform="matrix(-0.746009 0.665936 0.665936 0.746009 537.648 712.949)" fill="#451D12" stroke="#5A2122" stroke-width="1.98737"/>
<circle cx="16.1359" cy="16.1359" r="15.1422" transform="matrix(-0.746009 0.665936 0.665936 0.746009 537.07 723.183)" fill="#451D12" stroke="#5A2122" stroke-width="1.98737"/>
<circle cx="38.5307" cy="38.5307" r="37.537" transform="matrix(-0.746009 0.665936 0.665936 0.746009 596.348 640.248)" fill="#451D12" stroke="#5A2122" stroke-width="1.98737"/>
<circle cx="30.9468" cy="30.9468" r="29.9532" transform="matrix(-0.746009 0.665936 0.665936 0.746009 595.738 650.956)" fill="#451D12" stroke="#5A2122" stroke-width="1.98737"/>
<circle cx="23.3842" cy="23.3842" r="22.3905" transform="matrix(-0.746009 0.665936 0.665936 0.746009 595.137 661.632)" fill="#451D12" stroke="#5A2122" stroke-width="1.98737"/>
<circle cx="16.1359" cy="16.1359" r="15.1422" transform="matrix(-0.746009 0.665936 0.665936 0.746009 594.555 671.868)" fill="#451D12" stroke="#5A2122" stroke-width="1.98737"/>
<circle cx="38.5307" cy="38.5307" r="37.537" transform="matrix(-0.746009 0.665936 0.665936 0.746009 528.426 737.727)" fill="#451D12" stroke="#5A2122" stroke-width="1.98737"/>
<circle cx="38.5307" cy="38.5307" r="37.537" transform="matrix(-0.746009 0.665936 0.665936 0.746009 585.91 686.414)" fill="#451D12" stroke="#5A2122" stroke-width="1.98737"/>
<circle cx="30.9468" cy="30.9468" r="29.9532" transform="matrix(-0.746009 0.665936 0.665936 0.746009 585.301 697.122)" fill="#451D12" stroke="#5A2122" stroke-width="1.98737"/>
<circle cx="23.3842" cy="23.3842" r="22.3905" transform="matrix(-0.746009 0.665936 0.665936 0.746009 584.695 707.801)" fill="#451D12" stroke="#5A2122" stroke-width="1.98737"/>
<circle cx="16.1359" cy="16.1359" r="15.1422" transform="matrix(-0.746009 0.665936 0.665936 0.746009 584.117 718.034)" fill="#451D12" stroke="#5A2122" stroke-width="1.98737"/>
<circle cx="38.5307" cy="38.5307" r="37.537" transform="matrix(-0.746009 0.665936 0.665936 0.746009 573.676 730.568)" fill="#451D12" stroke="#5A2122" stroke-width="1.98737"/>
<circle cx="38.5307" cy="38.5307" r="37.537" transform="matrix(-0.746009 0.665936 0.665936 0.746009 631.168 679.245)" fill="#451D12" stroke="#5A2122" stroke-width="1.98737"/>
<circle cx="30.9468" cy="30.9468" r="29.9532" transform="matrix(-0.746009 0.665936 0.665936 0.746009 630.559 689.953)" fill="#451D12" stroke="#5A2122" stroke-width="1.98737"/>
<circle cx="23.3842" cy="23.3842" r="22.3905" transform="matrix(-0.746009 0.665936 0.665936 0.746009 629.953 700.632)" fill="#451D12" stroke="#5A2122" stroke-width="1.98737"/>
<circle cx="16.1359" cy="16.1359" r="15.1422" transform="matrix(-0.746009 0.665936 0.665936 0.746009 629.375 710.865)" fill="#451D12" stroke="#5A2122" stroke-width="1.98737"/>
<circle cx="38.5307" cy="38.5307" r="37.537" transform="matrix(-0.746009 0.665936 0.665936 0.746009 618.922 723.396)" fill="#451D12" stroke="#5A2122" stroke-width="1.98737"/>
<circle cx="30.9468" cy="30.9468" r="29.9532" transform="matrix(-0.746009 0.665936 0.665936 0.746009 618.312 734.104)" fill="#451D12" stroke="#5A2122" stroke-width="1.98737"/>
</g>
</g>
<defs>
<linearGradient id="paint0_linear_1100_31518" x1="448.87" y1="-6.7312e-07" x2="457.323" y2="539.733" gradientUnits="userSpaceOnUse">
<stop stop-color="#D9D9D9"/>
<stop offset="1" stop-color="#737373" stop-opacity="0"/>
</linearGradient>
<clipPath id="clip0_1100_31518">
<rect width="699" height="743" fill="white"/>
</clipPath>
</defs>
</svg>
