<svg width="700" height="743" viewBox="0 0 700 743" fill="none" xmlns="http://www.w3.org/2000/svg">
<g clip-path="url(#clip0_1083_12184)">
<g clip-path="url(#clip1_1083_12184)">
<mask id="mask0_1083_12184" style="mask-type:alpha" maskUnits="userSpaceOnUse" x="22" y="14" width="1119" height="1100">
<rect x="-0.0261208" y="0.460596" width="897.087" height="671.348" transform="matrix(-0.746009 0.665936 0.665936 0.746009 692.32 14.1344)" fill="url(#paint0_linear_1083_12184)" stroke="#B12C2E" stroke-width="0.652427"/>
</mask>
<g mask="url(#mask0_1083_12184)">
<circle cx="38.5307" cy="38.5307" r="37.537" transform="matrix(-0.746009 0.665936 0.665936 0.746009 650.012 156.427)" fill="#A22E0B" stroke="#BE3A0D" stroke-width="1.98737"/>
<circle cx="30.9468" cy="30.9468" r="29.9532" transform="matrix(-0.746009 0.665936 0.665936 0.746009 649.402 167.135)" fill="#A22E0B" stroke="#BE3A0D" stroke-width="1.98737"/>
<circle cx="23.3842" cy="23.3842" r="22.3905" transform="matrix(-0.746009 0.665936 0.665936 0.746009 648.797 177.813)" fill="#A22E0B" stroke="#BE3A0D" stroke-width="1.98737"/>
<circle cx="16.1359" cy="16.1359" r="15.1422" transform="matrix(-0.746009 0.665936 0.665936 0.746009 648.219 188.047)" fill="#A22E0B" stroke="#BE3A0D" stroke-width="1.98737"/>
<circle cx="38.5307" cy="38.5307" r="37.537" transform="matrix(-0.746009 0.665936 0.665936 0.746009 708.387 106.096)" fill="#A22E0B" stroke="#BE3A0D" stroke-width="1.98737"/>
<circle cx="30.9468" cy="30.9468" r="29.9532" transform="matrix(-0.746009 0.665936 0.665936 0.746009 707.777 116.803)" fill="#A22E0B" stroke="#BE3A0D" stroke-width="1.98737"/>
<circle cx="23.3842" cy="23.3842" r="22.3905" transform="matrix(-0.746009 0.665936 0.665936 0.746009 707.172 127.481)" fill="#A22E0B" stroke="#BE3A0D" stroke-width="1.98737"/>
<circle cx="16.1359" cy="16.1359" r="15.1422" transform="matrix(-0.746009 0.665936 0.665936 0.746009 706.594 137.715)" fill="#A22E0B" stroke="#BE3A0D" stroke-width="1.98737"/>
<circle cx="38.5307" cy="38.5307" r="37.537" transform="matrix(-0.746009 0.665936 0.665936 0.746009 696.859 151.042)" fill="#A22E0B" stroke="#BE3A0D" stroke-width="1.98737"/>
<circle cx="30.9468" cy="30.9468" r="29.9532" transform="matrix(-0.746009 0.665936 0.665936 0.746009 696.25 161.75)" fill="#A22E0B" stroke="#BE3A0D" stroke-width="1.98737"/>
<circle cx="23.3842" cy="23.3842" r="22.3905" transform="matrix(-0.746009 0.665936 0.665936 0.746009 695.645 172.429)" fill="#A22E0B" stroke="#BE3A0D" stroke-width="1.98737"/>
<circle cx="16.1359" cy="16.1359" r="15.1422" transform="matrix(-0.746009 0.665936 0.665936 0.746009 695.066 182.662)" fill="#A22E0B" stroke="#BE3A0D" stroke-width="1.98737"/>
<circle cx="38.5307" cy="38.5307" r="37.537" transform="matrix(-0.746009 0.665936 0.665936 0.746009 639.371 202.359)" fill="#A22E0B" stroke="#BE3A0D" stroke-width="1.98737"/>
<circle cx="30.9468" cy="30.9468" r="29.9532" transform="matrix(-0.746009 0.665936 0.665936 0.746009 638.762 213.069)" fill="#A22E0B" stroke="#BE3A0D" stroke-width="1.98737"/>
<circle cx="23.3842" cy="23.3842" r="22.3905" transform="matrix(-0.746009 0.665936 0.665936 0.746009 638.156 223.748)" fill="#A22E0B" stroke="#BE3A0D" stroke-width="1.98737"/>
<circle cx="16.1359" cy="16.1359" r="15.1422" transform="matrix(-0.746009 0.665936 0.665936 0.746009 637.574 233.982)" fill="#A22E0B" stroke="#BE3A0D" stroke-width="1.98737"/>
<circle cx="38.5307" cy="38.5307" r="37.537" transform="matrix(-0.746009 0.665936 0.665936 0.746009 686.422 197.207)" fill="#A22E0B" stroke="#BE3A0D" stroke-width="1.98737"/>
<circle cx="30.9468" cy="30.9468" r="29.9532" transform="matrix(-0.746009 0.665936 0.665936 0.746009 685.812 207.917)" fill="#A22E0B" stroke="#BE3A0D" stroke-width="1.98737"/>
<circle cx="23.3842" cy="23.3842" r="22.3905" transform="matrix(-0.746009 0.665936 0.665936 0.746009 685.207 218.595)" fill="#A22E0B" stroke="#BE3A0D" stroke-width="1.98737"/>
<circle cx="16.1359" cy="16.1359" r="15.1422" transform="matrix(-0.746009 0.665936 0.665936 0.746009 684.629 228.827)" fill="#A22E0B" stroke="#BE3A0D" stroke-width="1.98737"/>
<circle cx="38.5307" cy="38.5307" r="37.537" transform="matrix(-0.746009 0.665936 0.665936 0.746009 628.934 248.525)" fill="#A22E0B" stroke="#BE3A0D" stroke-width="1.98737"/>
<circle cx="30.9468" cy="30.9468" r="29.9532" transform="matrix(-0.746009 0.665936 0.665936 0.746009 628.324 259.234)" fill="#A22E0B" stroke="#BE3A0D" stroke-width="1.98737"/>
<circle cx="23.3842" cy="23.3842" r="22.3905" transform="matrix(-0.746009 0.665936 0.665936 0.746009 627.719 269.912)" fill="#A22E0B" stroke="#BE3A0D" stroke-width="1.98737"/>
<circle cx="16.1359" cy="16.1359" r="15.1422" transform="matrix(-0.746009 0.665936 0.665936 0.746009 627.141 280.146)" fill="#A22E0B" stroke="#BE3A0D" stroke-width="1.98737"/>
<circle cx="38.5307" cy="38.5307" r="37.537" transform="matrix(-0.746009 0.665936 0.665936 0.746009 743.91 145.891)" fill="#A22E0B" stroke="#BE3A0D" stroke-width="1.98737"/>
<circle cx="30.9468" cy="30.9468" r="29.9532" transform="matrix(-0.746009 0.665936 0.665936 0.746009 743.301 156.598)" fill="#A22E0B" stroke="#BE3A0D" stroke-width="1.98737"/>
<circle cx="38.5307" cy="38.5307" r="37.537" transform="matrix(-0.746009 0.665936 0.665936 0.746009 731.672 190.047)" fill="#A22E0B" stroke="#BE3A0D" stroke-width="1.98737"/>
<circle cx="30.9468" cy="30.9468" r="29.9532" transform="matrix(-0.746009 0.665936 0.665936 0.746009 731.066 200.753)" fill="#A22E0B" stroke="#BE3A0D" stroke-width="1.98737"/>
<circle cx="23.3842" cy="23.3842" r="22.3905" transform="matrix(-0.746009 0.665936 0.665936 0.746009 730.461 211.431)" fill="#A22E0B" stroke="#BE3A0D" stroke-width="1.98737"/>
<circle cx="38.5307" cy="38.5307" r="37.537" transform="matrix(-0.746009 0.665936 0.665936 0.746009 674.188 241.361)" fill="#A22E0B" stroke="#BE3A0D" stroke-width="1.98737"/>
<circle cx="30.9468" cy="30.9468" r="29.9532" transform="matrix(-0.746009 0.665936 0.665936 0.746009 673.578 252.071)" fill="#A22E0B" stroke="#BE3A0D" stroke-width="1.98737"/>
<circle cx="23.3842" cy="23.3842" r="22.3905" transform="matrix(-0.746009 0.665936 0.665936 0.746009 672.973 262.748)" fill="#A22E0B" stroke="#BE3A0D" stroke-width="1.98737"/>
<circle cx="16.1359" cy="16.1359" r="15.1422" transform="matrix(-0.746009 0.665936 0.665936 0.746009 672.391 272.983)" fill="#A22E0B" stroke="#BE3A0D" stroke-width="1.98737"/>
<circle cx="38.5307" cy="38.5307" r="37.537" transform="matrix(-0.746009 0.665936 0.665936 0.746009 719.43 234.191)" fill="#A22E0B" stroke="#BE3A0D" stroke-width="1.98737"/>
<circle cx="30.9468" cy="30.9468" r="29.9532" transform="matrix(-0.746009 0.665936 0.665936 0.746009 718.82 244.899)" fill="#A22E0B" stroke="#BE3A0D" stroke-width="1.98737"/>
<circle cx="23.3842" cy="23.3842" r="22.3905" transform="matrix(-0.746009 0.665936 0.665936 0.746009 718.219 255.576)" fill="#A22E0B" stroke="#BE3A0D" stroke-width="1.98737"/>
<circle cx="16.1359" cy="16.1359" r="15.1422" transform="matrix(-0.746009 0.665936 0.665936 0.746009 717.637 265.812)" fill="#A22E0B" stroke="#BE3A0D" stroke-width="1.98737"/>
<circle cx="38.5307" cy="38.5307" r="37.537" transform="matrix(-0.746009 0.665936 0.665936 0.746009 477.547 310.379)" fill="#A22E0B" stroke="#BE3A0D" stroke-width="1.98737"/>
<circle cx="30.9468" cy="30.9468" r="29.9532" transform="matrix(-0.746009 0.665936 0.665936 0.746009 476.938 321.087)" fill="#A22E0B" stroke="#BE3A0D" stroke-width="1.98737"/>
<circle cx="23.3842" cy="23.3842" r="22.3905" transform="matrix(-0.746009 0.665936 0.665936 0.746009 476.332 331.766)" fill="#A22E0B" stroke="#BE3A0D" stroke-width="1.98737"/>
<circle cx="16.1359" cy="16.1359" r="15.1422" transform="matrix(-0.746009 0.665936 0.665936 0.746009 475.754 341.999)" fill="#A22E0B" stroke="#BE3A0D" stroke-width="1.98737"/>
<circle cx="38.5307" cy="38.5307" r="37.537" transform="matrix(-0.746009 0.665936 0.665936 0.746009 420.059 361.697)" fill="#A22E0B" stroke="#BE3A0D" stroke-width="1.98737"/>
<circle cx="30.9468" cy="30.9468" r="29.9532" transform="matrix(-0.746009 0.665936 0.665936 0.746009 419.449 372.407)" fill="#A22E0B" stroke="#BE3A0D" stroke-width="1.98737"/>
<circle cx="23.3842" cy="23.3842" r="22.3905" transform="matrix(-0.746009 0.665936 0.665936 0.746009 418.844 383.084)" fill="#A22E0B" stroke="#BE3A0D" stroke-width="1.98737"/>
<circle cx="16.1359" cy="16.1359" r="15.1422" transform="matrix(-0.746009 0.665936 0.665936 0.746009 418.266 393.317)" fill="#A22E0B" stroke="#BE3A0D" stroke-width="1.98737"/>
<circle cx="38.5307" cy="38.5307" r="37.537" transform="matrix(-0.746009 0.665936 0.665936 0.746009 362.586 413)" fill="#A22E0B" stroke="#BE3A0D" stroke-width="1.98737"/>
<circle cx="30.9468" cy="30.9468" r="29.9532" transform="matrix(-0.746009 0.665936 0.665936 0.746009 361.98 423.707)" fill="#A22E0B" stroke="#BE3A0D" stroke-width="1.98737"/>
<circle cx="23.3842" cy="23.3842" r="22.3905" transform="matrix(-0.746009 0.665936 0.665936 0.746009 361.371 434.387)" fill="#A22E0B" stroke="#BE3A0D" stroke-width="1.98737"/>
<circle cx="16.1359" cy="16.1359" r="15.1422" transform="matrix(-0.746009 0.665936 0.665936 0.746009 360.793 444.62)" fill="#A22E0B" stroke="#BE3A0D" stroke-width="1.98737"/>
<circle cx="38.5307" cy="38.5307" r="37.537" transform="matrix(-0.746009 0.665936 0.665936 0.746009 524.395 304.994)" fill="#A22E0B" stroke="#BE3A0D" stroke-width="1.98737"/>
<circle cx="30.9468" cy="30.9468" r="29.9532" transform="matrix(-0.746009 0.665936 0.665936 0.746009 523.785 315.703)" fill="#A22E0B" stroke="#BE3A0D" stroke-width="1.98737"/>
<circle cx="23.3842" cy="23.3842" r="22.3905" transform="matrix(-0.746009 0.665936 0.665936 0.746009 523.18 326.381)" fill="#A22E0B" stroke="#BE3A0D" stroke-width="1.98737"/>
<circle cx="16.1359" cy="16.1359" r="15.1422" transform="matrix(-0.746009 0.665936 0.665936 0.746009 522.602 336.614)" fill="#A22E0B" stroke="#BE3A0D" stroke-width="1.98737"/>
<circle cx="38.5307" cy="38.5307" r="37.537" transform="matrix(-0.746009 0.665936 0.665936 0.746009 466.902 356.312)" fill="#A22E0B" stroke="#BE3A0D" stroke-width="1.98737"/>
<circle cx="30.9468" cy="30.9468" r="29.9532" transform="matrix(-0.746009 0.665936 0.665936 0.746009 466.293 367.021)" fill="#A22E0B" stroke="#BE3A0D" stroke-width="1.98737"/>
<circle cx="23.3842" cy="23.3842" r="22.3905" transform="matrix(-0.746009 0.665936 0.665936 0.746009 465.688 377.698)" fill="#A22E0B" stroke="#BE3A0D" stroke-width="1.98737"/>
<circle cx="16.1359" cy="16.1359" r="15.1422" transform="matrix(-0.746009 0.665936 0.665936 0.746009 465.109 387.932)" fill="#A22E0B" stroke="#BE3A0D" stroke-width="1.98737"/>
<circle cx="38.5307" cy="38.5307" r="37.537" transform="matrix(-0.746009 0.665936 0.665936 0.746009 409.414 407.632)" fill="#A22E0B" stroke="#BE3A0D" stroke-width="1.98737"/>
<circle cx="30.9468" cy="30.9468" r="29.9532" transform="matrix(-0.746009 0.665936 0.665936 0.746009 408.805 418.341)" fill="#A22E0B" stroke="#BE3A0D" stroke-width="1.98737"/>
<circle cx="23.3842" cy="23.3842" r="22.3905" transform="matrix(-0.746009 0.665936 0.665936 0.746009 408.199 429.019)" fill="#A22E0B" stroke="#BE3A0D" stroke-width="1.98737"/>
<circle cx="16.1359" cy="16.1359" r="15.1422" transform="matrix(-0.746009 0.665936 0.665936 0.746009 407.621 439.252)" fill="#A22E0B" stroke="#BE3A0D" stroke-width="1.98737"/>
<circle cx="38.5307" cy="38.5307" r="37.537" transform="matrix(-0.746009 0.665936 0.665936 0.746009 513.953 351.16)" fill="#A22E0B" stroke="#BE3A0D" stroke-width="1.98737"/>
<circle cx="30.9468" cy="30.9468" r="29.9532" transform="matrix(-0.746009 0.665936 0.665936 0.746009 513.344 361.869)" fill="#A22E0B" stroke="#BE3A0D" stroke-width="1.98737"/>
<circle cx="23.3842" cy="23.3842" r="22.3905" transform="matrix(-0.746009 0.665936 0.665936 0.746009 512.738 372.547)" fill="#A22E0B" stroke="#BE3A0D" stroke-width="1.98737"/>
<circle cx="16.1359" cy="16.1359" r="15.1422" transform="matrix(-0.746009 0.665936 0.665936 0.746009 512.16 382.78)" fill="#A22E0B" stroke="#BE3A0D" stroke-width="1.98737"/>
<circle cx="38.5307" cy="38.5307" r="37.537" transform="matrix(-0.746009 0.665936 0.665936 0.746009 456.465 402.48)" fill="#A22E0B" stroke="#BE3A0D" stroke-width="1.98737"/>
<circle cx="30.9468" cy="30.9468" r="29.9532" transform="matrix(-0.746009 0.665936 0.665936 0.746009 455.855 413.188)" fill="#A22E0B" stroke="#BE3A0D" stroke-width="1.98737"/>
<circle cx="23.3842" cy="23.3842" r="22.3905" transform="matrix(-0.746009 0.665936 0.665936 0.746009 455.254 423.866)" fill="#A22E0B" stroke="#BE3A0D" stroke-width="1.98737"/>
<circle cx="16.1359" cy="16.1359" r="15.1422" transform="matrix(-0.746009 0.665936 0.665936 0.746009 454.672 434.1)" fill="#A22E0B" stroke="#BE3A0D" stroke-width="1.98737"/>
<circle cx="38.5307" cy="38.5307" r="37.537" transform="matrix(-0.746009 0.665936 0.665936 0.746009 398.973 453.8)" fill="#A22E0B" stroke="#BE3A0D" stroke-width="1.98737"/>
<circle cx="30.9468" cy="30.9468" r="29.9532" transform="matrix(-0.746009 0.665936 0.665936 0.746009 398.367 464.505)" fill="#A22E0B" stroke="#BE3A0D" stroke-width="1.98737"/>
<circle cx="23.3842" cy="23.3842" r="22.3905" transform="matrix(-0.746009 0.665936 0.665936 0.746009 397.762 475.185)" fill="#A22E0B" stroke="#BE3A0D" stroke-width="1.98737"/>
<circle cx="16.1359" cy="16.1359" r="15.1422" transform="matrix(-0.746009 0.665936 0.665936 0.746009 397.18 485.419)" fill="#A22E0B" stroke="#BE3A0D" stroke-width="1.98737"/>
<circle cx="38.5307" cy="38.5307" r="37.537" transform="matrix(-0.746009 0.665936 0.665936 0.746009 571.441 299.844)" fill="#A22E0B" stroke="#BE3A0D" stroke-width="1.98737"/>
<circle cx="30.9468" cy="30.9468" r="29.9532" transform="matrix(-0.746009 0.665936 0.665936 0.746009 570.836 310.55)" fill="#A22E0B" stroke="#BE3A0D" stroke-width="1.98737"/>
<circle cx="23.3842" cy="23.3842" r="22.3905" transform="matrix(-0.746009 0.665936 0.665936 0.746009 570.23 321.229)" fill="#A22E0B" stroke="#BE3A0D" stroke-width="1.98737"/>
<circle cx="16.1359" cy="16.1359" r="15.1422" transform="matrix(-0.746009 0.665936 0.665936 0.746009 569.648 331.463)" fill="#A22E0B" stroke="#BE3A0D" stroke-width="1.98737"/>
<circle cx="38.5307" cy="38.5307" r="37.537" transform="matrix(-0.746009 0.665936 0.665936 0.746009 559.207 343.999)" fill="#A22E0B" stroke="#BE3A0D" stroke-width="1.98737"/>
<circle cx="30.9468" cy="30.9468" r="29.9532" transform="matrix(-0.746009 0.665936 0.665936 0.746009 558.598 354.707)" fill="#A22E0B" stroke="#BE3A0D" stroke-width="1.98737"/>
<circle cx="23.3842" cy="23.3842" r="22.3905" transform="matrix(-0.746009 0.665936 0.665936 0.746009 557.996 365.384)" fill="#A22E0B" stroke="#BE3A0D" stroke-width="1.98737"/>
<circle cx="16.1359" cy="16.1359" r="15.1422" transform="matrix(-0.746009 0.665936 0.665936 0.746009 557.414 375.619)" fill="#A22E0B" stroke="#BE3A0D" stroke-width="1.98737"/>
<circle cx="38.5307" cy="38.5307" r="37.537" transform="matrix(-0.746009 0.665936 0.665936 0.746009 501.719 395.316)" fill="#A22E0B" stroke="#BE3A0D" stroke-width="1.98737"/>
<circle cx="30.9468" cy="30.9468" r="29.9532" transform="matrix(-0.746009 0.665936 0.665936 0.746009 501.113 406.024)" fill="#A22E0B" stroke="#BE3A0D" stroke-width="1.98737"/>
<circle cx="23.3842" cy="23.3842" r="22.3905" transform="matrix(-0.746009 0.665936 0.665936 0.746009 500.508 416.701)" fill="#A22E0B" stroke="#BE3A0D" stroke-width="1.98737"/>
<circle cx="16.1359" cy="16.1359" r="15.1422" transform="matrix(-0.746009 0.665936 0.665936 0.746009 499.926 426.938)" fill="#A22E0B" stroke="#BE3A0D" stroke-width="1.98737"/>
<circle cx="38.5307" cy="38.5307" r="37.537" transform="matrix(-0.746009 0.665936 0.665936 0.746009 444.246 446.619)" fill="#A22E0B" stroke="#BE3A0D" stroke-width="1.98737"/>
<circle cx="30.9468" cy="30.9468" r="29.9532" transform="matrix(-0.746009 0.665936 0.665936 0.746009 443.637 457.329)" fill="#A22E0B" stroke="#BE3A0D" stroke-width="1.98737"/>
<circle cx="23.3842" cy="23.3842" r="22.3905" transform="matrix(-0.746009 0.665936 0.665936 0.746009 443.031 468.006)" fill="#A22E0B" stroke="#BE3A0D" stroke-width="1.98737"/>
<circle cx="16.1359" cy="16.1359" r="15.1422" transform="matrix(-0.746009 0.665936 0.665936 0.746009 442.453 478.239)" fill="#A22E0B" stroke="#BE3A0D" stroke-width="1.98737"/>
<circle cx="38.5307" cy="38.5307" r="37.537" transform="matrix(-0.746009 0.665936 0.665936 0.746009 546.965 388.145)" fill="#A22E0B" stroke="#BE3A0D" stroke-width="1.98737"/>
<circle cx="30.9468" cy="30.9468" r="29.9532" transform="matrix(-0.746009 0.665936 0.665936 0.746009 546.355 398.853)" fill="#A22E0B" stroke="#BE3A0D" stroke-width="1.98737"/>
<circle cx="23.3842" cy="23.3842" r="22.3905" transform="matrix(-0.746009 0.665936 0.665936 0.746009 545.754 409.528)" fill="#A22E0B" stroke="#BE3A0D" stroke-width="1.98737"/>
<circle cx="16.1359" cy="16.1359" r="15.1422" transform="matrix(-0.746009 0.665936 0.665936 0.746009 545.172 419.765)" fill="#A22E0B" stroke="#BE3A0D" stroke-width="1.98737"/>
<circle cx="38.5307" cy="38.5307" r="37.537" transform="matrix(-0.746009 0.665936 0.665936 0.746009 489.477 439.462)" fill="#A22E0B" stroke="#BE3A0D" stroke-width="1.98737"/>
<circle cx="30.9468" cy="30.9468" r="29.9532" transform="matrix(-0.746009 0.665936 0.665936 0.746009 488.871 450.169)" fill="#A22E0B" stroke="#BE3A0D" stroke-width="1.98737"/>
<circle cx="23.3842" cy="23.3842" r="22.3905" transform="matrix(-0.746009 0.665936 0.665936 0.746009 488.266 460.846)" fill="#A22E0B" stroke="#BE3A0D" stroke-width="1.98737"/>
<circle cx="16.1359" cy="16.1359" r="15.1422" transform="matrix(-0.746009 0.665936 0.665936 0.746009 487.684 471.082)" fill="#A22E0B" stroke="#BE3A0D" stroke-width="1.98737"/>
<circle cx="38.5307" cy="38.5307" r="37.537" transform="matrix(-0.746009 0.665936 0.665936 0.746009 431.984 490.782)" fill="#A22E0B" stroke="#BE3A0D" stroke-width="1.98737"/>
<circle cx="30.9468" cy="30.9468" r="29.9532" transform="matrix(-0.746009 0.665936 0.665936 0.746009 431.379 501.487)" fill="#A22E0B" stroke="#BE3A0D" stroke-width="1.98737"/>
<circle cx="23.3842" cy="23.3842" r="22.3905" transform="matrix(-0.746009 0.665936 0.665936 0.746009 430.773 512.166)" fill="#A22E0B" stroke="#BE3A0D" stroke-width="1.98737"/>
<circle cx="16.1359" cy="16.1359" r="15.1422" transform="matrix(-0.746009 0.665936 0.665936 0.746009 430.191 522.401)" fill="#A22E0B" stroke="#BE3A0D" stroke-width="1.98737"/>
<circle cx="38.5307" cy="38.5307" r="37.537" transform="matrix(-0.746009 0.665936 0.665936 0.746009 615.102 290.889)" fill="#A22E0B" stroke="#BE3A0D" stroke-width="1.98737"/>
<circle cx="30.9468" cy="30.9468" r="29.9532" transform="matrix(-0.746009 0.665936 0.665936 0.746009 614.492 301.597)" fill="#A22E0B" stroke="#BE3A0D" stroke-width="1.98737"/>
<circle cx="23.3842" cy="23.3842" r="22.3905" transform="matrix(-0.746009 0.665936 0.665936 0.746009 613.887 312.275)" fill="#A22E0B" stroke="#BE3A0D" stroke-width="1.98737"/>
<circle cx="16.1359" cy="16.1359" r="15.1422" transform="matrix(-0.746009 0.665936 0.665936 0.746009 613.309 322.509)" fill="#A22E0B" stroke="#BE3A0D" stroke-width="1.98737"/>
<circle cx="38.5307" cy="38.5307" r="37.537" transform="matrix(-0.746009 0.665936 0.665936 0.746009 661.945 285.506)" fill="#A22E0B" stroke="#BE3A0D" stroke-width="1.98737"/>
<circle cx="30.9468" cy="30.9468" r="29.9532" transform="matrix(-0.746009 0.665936 0.665936 0.746009 661.34 296.213)" fill="#A22E0B" stroke="#BE3A0D" stroke-width="1.98737"/>
<circle cx="23.3842" cy="23.3842" r="22.3905" transform="matrix(-0.746009 0.665936 0.665936 0.746009 660.734 306.892)" fill="#A22E0B" stroke="#BE3A0D" stroke-width="1.98737"/>
<circle cx="16.1359" cy="16.1359" r="15.1422" transform="matrix(-0.746009 0.665936 0.665936 0.746009 660.152 317.126)" fill="#A22E0B" stroke="#BE3A0D" stroke-width="1.98737"/>
<circle cx="38.5307" cy="38.5307" r="37.537" transform="matrix(-0.746009 0.665936 0.665936 0.746009 604.457 336.824)" fill="#A22E0B" stroke="#BE3A0D" stroke-width="1.98737"/>
<circle cx="30.9468" cy="30.9468" r="29.9532" transform="matrix(-0.746009 0.665936 0.665936 0.746009 603.852 347.531)" fill="#A22E0B" stroke="#BE3A0D" stroke-width="1.98737"/>
<circle cx="23.3842" cy="23.3842" r="22.3905" transform="matrix(-0.746009 0.665936 0.665936 0.746009 603.242 358.211)" fill="#A22E0B" stroke="#BE3A0D" stroke-width="1.98737"/>
<circle cx="16.1359" cy="16.1359" r="15.1422" transform="matrix(-0.746009 0.665936 0.665936 0.746009 602.664 368.444)" fill="#A22E0B" stroke="#BE3A0D" stroke-width="1.98737"/>
<circle cx="38.5307" cy="38.5307" r="37.537" transform="matrix(-0.746009 0.665936 0.665936 0.746009 651.508 331.672)" fill="#A22E0B" stroke="#BE3A0D" stroke-width="1.98737"/>
<circle cx="30.9468" cy="30.9468" r="29.9532" transform="matrix(-0.746009 0.665936 0.665936 0.746009 650.898 342.38)" fill="#A22E0B" stroke="#BE3A0D" stroke-width="1.98737"/>
<circle cx="23.3842" cy="23.3842" r="22.3905" transform="matrix(-0.746009 0.665936 0.665936 0.746009 650.297 353.057)" fill="#A22E0B" stroke="#BE3A0D" stroke-width="1.98737"/>
<circle cx="16.1359" cy="16.1359" r="15.1422" transform="matrix(-0.746009 0.665936 0.665936 0.746009 649.715 363.292)" fill="#A22E0B" stroke="#BE3A0D" stroke-width="1.98737"/>
<circle cx="38.5307" cy="38.5307" r="37.537" transform="matrix(-0.746009 0.665936 0.665936 0.746009 594.02 382.989)" fill="#A22E0B" stroke="#BE3A0D" stroke-width="1.98737"/>
<circle cx="30.9468" cy="30.9468" r="29.9532" transform="matrix(-0.746009 0.665936 0.665936 0.746009 593.414 393.696)" fill="#A22E0B" stroke="#BE3A0D" stroke-width="1.98737"/>
<circle cx="23.3842" cy="23.3842" r="22.3905" transform="matrix(-0.746009 0.665936 0.665936 0.746009 592.809 404.374)" fill="#A22E0B" stroke="#BE3A0D" stroke-width="1.98737"/>
<circle cx="16.1359" cy="16.1359" r="15.1422" transform="matrix(-0.746009 0.665936 0.665936 0.746009 592.227 414.609)" fill="#A22E0B" stroke="#BE3A0D" stroke-width="1.98737"/>
<circle cx="38.5307" cy="38.5307" r="37.537" transform="matrix(-0.746009 0.665936 0.665936 0.746009 708.992 280.354)" fill="#A22E0B" stroke="#BE3A0D" stroke-width="1.98737"/>
<circle cx="30.9468" cy="30.9468" r="29.9532" transform="matrix(-0.746009 0.665936 0.665936 0.746009 708.383 291.062)" fill="#A22E0B" stroke="#BE3A0D" stroke-width="1.98737"/>
<circle cx="23.3842" cy="23.3842" r="22.3905" transform="matrix(-0.746009 0.665936 0.665936 0.746009 707.777 301.739)" fill="#A22E0B" stroke="#BE3A0D" stroke-width="1.98737"/>
<circle cx="16.1359" cy="16.1359" r="15.1422" transform="matrix(-0.746009 0.665936 0.665936 0.746009 707.199 311.974)" fill="#A22E0B" stroke="#BE3A0D" stroke-width="1.98737"/>
<circle cx="38.5307" cy="38.5307" r="37.537" transform="matrix(-0.746009 0.665936 0.665936 0.746009 479.055 485.611)" fill="#A22E0B" stroke="#BE3A0D" stroke-width="1.98737"/>
<circle cx="30.9468" cy="30.9468" r="29.9532" transform="matrix(-0.746009 0.665936 0.665936 0.746009 478.445 496.319)" fill="#A22E0B" stroke="#BE3A0D" stroke-width="1.98737"/>
<circle cx="23.3842" cy="23.3842" r="22.3905" transform="matrix(-0.746009 0.665936 0.665936 0.746009 477.84 506.997)" fill="#A22E0B" stroke="#BE3A0D" stroke-width="1.98737"/>
<circle cx="16.1359" cy="16.1359" r="15.1422" transform="matrix(-0.746009 0.665936 0.665936 0.746009 477.262 517.231)" fill="#A22E0B" stroke="#BE3A0D" stroke-width="1.98737"/>
<circle cx="38.5307" cy="38.5307" r="37.537" transform="matrix(-0.746009 0.665936 0.665936 0.746009 536.543 434.293)" fill="#A22E0B" stroke="#BE3A0D" stroke-width="1.98737"/>
<circle cx="30.9468" cy="30.9468" r="29.9532" transform="matrix(-0.746009 0.665936 0.665936 0.746009 535.934 445.001)" fill="#A22E0B" stroke="#BE3A0D" stroke-width="1.98737"/>
<circle cx="23.3842" cy="23.3842" r="22.3905" transform="matrix(-0.746009 0.665936 0.665936 0.746009 535.328 455.68)" fill="#A22E0B" stroke="#BE3A0D" stroke-width="1.98737"/>
<circle cx="16.1359" cy="16.1359" r="15.1422" transform="matrix(-0.746009 0.665936 0.665936 0.746009 534.75 465.913)" fill="#A22E0B" stroke="#BE3A0D" stroke-width="1.98737"/>
<circle cx="38.5307" cy="38.5307" r="37.537" transform="matrix(-0.746009 0.665936 0.665936 0.746009 696.762 324.51)" fill="#A22E0B" stroke="#BE3A0D" stroke-width="1.98737"/>
<circle cx="30.9468" cy="30.9468" r="29.9532" transform="matrix(-0.746009 0.665936 0.665936 0.746009 696.152 335.218)" fill="#A22E0B" stroke="#BE3A0D" stroke-width="1.98737"/>
<circle cx="23.3842" cy="23.3842" r="22.3905" transform="matrix(-0.746009 0.665936 0.665936 0.746009 695.551 345.895)" fill="#A22E0B" stroke="#BE3A0D" stroke-width="1.98737"/>
<circle cx="16.1359" cy="16.1359" r="15.1422" transform="matrix(-0.746009 0.665936 0.665936 0.746009 694.969 356.13)" fill="#A22E0B" stroke="#BE3A0D" stroke-width="1.98737"/>
<circle cx="38.5307" cy="38.5307" r="37.537" transform="matrix(-0.746009 0.665936 0.665936 0.746009 754.242 273.196)" fill="#A22E0B" stroke="#BE3A0D" stroke-width="1.98737"/>
<circle cx="38.5307" cy="38.5307" r="37.537" transform="matrix(-0.746009 0.665936 0.665936 0.746009 639.273 375.827)" fill="#A22E0B" stroke="#BE3A0D" stroke-width="1.98737"/>
<circle cx="30.9468" cy="30.9468" r="29.9532" transform="matrix(-0.746009 0.665936 0.665936 0.746009 638.664 386.535)" fill="#A22E0B" stroke="#BE3A0D" stroke-width="1.98737"/>
<circle cx="23.3842" cy="23.3842" r="22.3905" transform="matrix(-0.746009 0.665936 0.665936 0.746009 638.059 397.214)" fill="#A22E0B" stroke="#BE3A0D" stroke-width="1.98737"/>
<circle cx="16.1359" cy="16.1359" r="15.1422" transform="matrix(-0.746009 0.665936 0.665936 0.746009 637.48 407.447)" fill="#A22E0B" stroke="#BE3A0D" stroke-width="1.98737"/>
<circle cx="38.5307" cy="38.5307" r="37.537" transform="matrix(-0.746009 0.665936 0.665936 0.746009 524.309 478.45)" fill="#A22E0B" stroke="#BE3A0D" stroke-width="1.98737"/>
<circle cx="30.9468" cy="30.9468" r="29.9532" transform="matrix(-0.746009 0.665936 0.665936 0.746009 523.699 489.159)" fill="#A22E0B" stroke="#BE3A0D" stroke-width="1.98737"/>
<circle cx="23.3842" cy="23.3842" r="22.3905" transform="matrix(-0.746009 0.665936 0.665936 0.746009 523.098 499.834)" fill="#A22E0B" stroke="#BE3A0D" stroke-width="1.98737"/>
<circle cx="16.1359" cy="16.1359" r="15.1422" transform="matrix(-0.746009 0.665936 0.665936 0.746009 522.516 510.07)" fill="#A22E0B" stroke="#BE3A0D" stroke-width="1.98737"/>
<circle cx="38.5307" cy="38.5307" r="37.537" transform="matrix(-0.746009 0.665936 0.665936 0.746009 581.793 427.137)" fill="#A22E0B" stroke="#BE3A0D" stroke-width="1.98737"/>
<circle cx="30.9468" cy="30.9468" r="29.9532" transform="matrix(-0.746009 0.665936 0.665936 0.746009 581.184 437.845)" fill="#A22E0B" stroke="#BE3A0D" stroke-width="1.98737"/>
<circle cx="23.3842" cy="23.3842" r="22.3905" transform="matrix(-0.746009 0.665936 0.665936 0.746009 580.578 448.523)" fill="#A22E0B" stroke="#BE3A0D" stroke-width="1.98737"/>
<circle cx="16.1359" cy="16.1359" r="15.1422" transform="matrix(-0.746009 0.665936 0.665936 0.746009 579.996 458.758)" fill="#A22E0B" stroke="#BE3A0D" stroke-width="1.98737"/>
<circle cx="38.5307" cy="38.5307" r="37.537" transform="matrix(-0.746009 0.665936 0.665936 0.746009 466.824 529.768)" fill="#A22E0B" stroke="#BE3A0D" stroke-width="1.98737"/>
<circle cx="30.9468" cy="30.9468" r="29.9532" transform="matrix(-0.746009 0.665936 0.665936 0.746009 466.219 540.475)" fill="#A22E0B" stroke="#BE3A0D" stroke-width="1.98737"/>
<circle cx="23.3842" cy="23.3842" r="22.3905" transform="matrix(-0.746009 0.665936 0.665936 0.746009 465.613 551.152)" fill="#A22E0B" stroke="#BE3A0D" stroke-width="1.98737"/>
<circle cx="16.1359" cy="16.1359" r="15.1422" transform="matrix(-0.746009 0.665936 0.665936 0.746009 465.031 561.388)" fill="#A22E0B" stroke="#BE3A0D" stroke-width="1.98737"/>
<circle cx="38.5307" cy="38.5307" r="37.537" transform="matrix(-0.746009 0.665936 0.665936 0.746009 684.52 368.654)" fill="#A22E0B" stroke="#BE3A0D" stroke-width="1.98737"/>
<circle cx="30.9468" cy="30.9468" r="29.9532" transform="matrix(-0.746009 0.665936 0.665936 0.746009 683.91 379.362)" fill="#A22E0B" stroke="#BE3A0D" stroke-width="1.98737"/>
<circle cx="23.3842" cy="23.3842" r="22.3905" transform="matrix(-0.746009 0.665936 0.665936 0.746009 683.305 390.041)" fill="#A22E0B" stroke="#BE3A0D" stroke-width="1.98737"/>
<circle cx="16.1359" cy="16.1359" r="15.1422" transform="matrix(-0.746009 0.665936 0.665936 0.746009 682.727 400.274)" fill="#A22E0B" stroke="#BE3A0D" stroke-width="1.98737"/>
<circle cx="38.5307" cy="38.5307" r="37.537" transform="matrix(-0.746009 0.665936 0.665936 0.746009 742 317.342)" fill="#A22E0B" stroke="#BE3A0D" stroke-width="1.98737"/>
<circle cx="30.9468" cy="30.9468" r="29.9532" transform="matrix(-0.746009 0.665936 0.665936 0.746009 741.391 328.05)" fill="#A22E0B" stroke="#BE3A0D" stroke-width="1.98737"/>
<circle cx="38.5307" cy="38.5307" r="37.537" transform="matrix(-0.746009 0.665936 0.665936 0.746009 512.066 522.598)" fill="#A22E0B" stroke="#BE3A0D" stroke-width="1.98737"/>
<circle cx="30.9468" cy="30.9468" r="29.9532" transform="matrix(-0.746009 0.665936 0.665936 0.746009 511.457 533.306)" fill="#A22E0B" stroke="#BE3A0D" stroke-width="1.98737"/>
<circle cx="23.3842" cy="23.3842" r="22.3905" transform="matrix(-0.746009 0.665936 0.665936 0.746009 510.852 543.984)" fill="#A22E0B" stroke="#BE3A0D" stroke-width="1.98737"/>
<circle cx="16.1359" cy="16.1359" r="15.1422" transform="matrix(-0.746009 0.665936 0.665936 0.746009 510.27 554.219)" fill="#A22E0B" stroke="#BE3A0D" stroke-width="1.98737"/>
<circle cx="38.5307" cy="38.5307" r="37.537" transform="matrix(-0.746009 0.665936 0.665936 0.746009 569.547 471.285)" fill="#A22E0B" stroke="#BE3A0D" stroke-width="1.98737"/>
<circle cx="30.9468" cy="30.9468" r="29.9532" transform="matrix(-0.746009 0.665936 0.665936 0.746009 568.938 481.992)" fill="#A22E0B" stroke="#BE3A0D" stroke-width="1.98737"/>
<circle cx="23.3842" cy="23.3842" r="22.3905" transform="matrix(-0.746009 0.665936 0.665936 0.746009 568.336 492.67)" fill="#A22E0B" stroke="#BE3A0D" stroke-width="1.98737"/>
<circle cx="16.1359" cy="16.1359" r="15.1422" transform="matrix(-0.746009 0.665936 0.665936 0.746009 567.754 502.905)" fill="#A22E0B" stroke="#BE3A0D" stroke-width="1.98737"/>
<circle cx="38.5307" cy="38.5307" r="37.537" transform="matrix(-0.746009 0.665936 0.665936 0.746009 627.035 419.968)" fill="#A22E0B" stroke="#BE3A0D" stroke-width="1.98737"/>
<circle cx="30.9468" cy="30.9468" r="29.9532" transform="matrix(-0.746009 0.665936 0.665936 0.746009 626.426 430.675)" fill="#A22E0B" stroke="#BE3A0D" stroke-width="1.98737"/>
<circle cx="23.3842" cy="23.3842" r="22.3905" transform="matrix(-0.746009 0.665936 0.665936 0.746009 625.824 441.353)" fill="#A22E0B" stroke="#BE3A0D" stroke-width="1.98737"/>
<circle cx="16.1359" cy="16.1359" r="15.1422" transform="matrix(-0.746009 0.665936 0.665936 0.746009 625.242 451.588)" fill="#A22E0B" stroke="#BE3A0D" stroke-width="1.98737"/>
<circle cx="38.5307" cy="38.5307" r="37.537" transform="matrix(-0.746009 0.665936 0.665936 0.746009 728.195 359.687)" fill="#A22E0B" stroke="#BE3A0D" stroke-width="1.98737"/>
<circle cx="30.9468" cy="30.9468" r="29.9532" transform="matrix(-0.746009 0.665936 0.665936 0.746009 727.59 370.394)" fill="#A22E0B" stroke="#BE3A0D" stroke-width="1.98737"/>
<circle cx="23.3842" cy="23.3842" r="22.3905" transform="matrix(-0.746009 0.665936 0.665936 0.746009 726.98 381.073)" fill="#A22E0B" stroke="#BE3A0D" stroke-width="1.98737"/>
<circle cx="38.5307" cy="38.5307" r="37.537" transform="matrix(-0.746009 0.665936 0.665936 0.746009 670.703 411.007)" fill="#A22E0B" stroke="#BE3A0D" stroke-width="1.98737"/>
<circle cx="30.9468" cy="30.9468" r="29.9532" transform="matrix(-0.746009 0.665936 0.665936 0.746009 670.094 421.715)" fill="#A22E0B" stroke="#BE3A0D" stroke-width="1.98737"/>
<circle cx="23.3842" cy="23.3842" r="22.3905" transform="matrix(-0.746009 0.665936 0.665936 0.746009 669.492 432.393)" fill="#A22E0B" stroke="#BE3A0D" stroke-width="1.98737"/>
<circle cx="16.1359" cy="16.1359" r="15.1422" transform="matrix(-0.746009 0.665936 0.665936 0.746009 668.91 442.626)" fill="#A22E0B" stroke="#BE3A0D" stroke-width="1.98737"/>
<circle cx="38.5307" cy="38.5307" r="37.537" transform="matrix(-0.746009 0.665936 0.665936 0.746009 555.73 513.644)" fill="#A22E0B" stroke="#BE3A0D" stroke-width="1.98737"/>
<circle cx="30.9468" cy="30.9468" r="29.9532" transform="matrix(-0.746009 0.665936 0.665936 0.746009 555.121 524.353)" fill="#A22E0B" stroke="#BE3A0D" stroke-width="1.98737"/>
<circle cx="23.3842" cy="23.3842" r="22.3905" transform="matrix(-0.746009 0.665936 0.665936 0.746009 554.516 535.03)" fill="#A22E0B" stroke="#BE3A0D" stroke-width="1.98737"/>
<circle cx="16.1359" cy="16.1359" r="15.1422" transform="matrix(-0.746009 0.665936 0.665936 0.746009 553.938 545.264)" fill="#A22E0B" stroke="#BE3A0D" stroke-width="1.98737"/>
<circle cx="38.5307" cy="38.5307" r="37.537" transform="matrix(-0.746009 0.665936 0.665936 0.746009 613.215 462.329)" fill="#A22E0B" stroke="#BE3A0D" stroke-width="1.98737"/>
<circle cx="30.9468" cy="30.9468" r="29.9532" transform="matrix(-0.746009 0.665936 0.665936 0.746009 612.605 473.037)" fill="#A22E0B" stroke="#BE3A0D" stroke-width="1.98737"/>
<circle cx="23.3842" cy="23.3842" r="22.3905" transform="matrix(-0.746009 0.665936 0.665936 0.746009 612.004 483.714)" fill="#A22E0B" stroke="#BE3A0D" stroke-width="1.98737"/>
<circle cx="16.1359" cy="16.1359" r="15.1422" transform="matrix(-0.746009 0.665936 0.665936 0.746009 611.418 493.95)" fill="#A22E0B" stroke="#BE3A0D" stroke-width="1.98737"/>
<circle cx="38.5307" cy="38.5307" r="37.537" transform="matrix(-0.746009 0.665936 0.665936 0.746009 498.242 564.961)" fill="#A22E0B" stroke="#BE3A0D" stroke-width="1.98737"/>
<circle cx="30.9468" cy="30.9468" r="29.9532" transform="matrix(-0.746009 0.665936 0.665936 0.746009 497.633 575.668)" fill="#A22E0B" stroke="#BE3A0D" stroke-width="1.98737"/>
<circle cx="23.3842" cy="23.3842" r="22.3905" transform="matrix(-0.746009 0.665936 0.665936 0.746009 497.027 586.348)" fill="#A22E0B" stroke="#BE3A0D" stroke-width="1.98737"/>
<circle cx="16.1359" cy="16.1359" r="15.1422" transform="matrix(-0.746009 0.665936 0.665936 0.746009 496.449 596.581)" fill="#A22E0B" stroke="#BE3A0D" stroke-width="1.98737"/>
<circle cx="38.5307" cy="38.5307" r="37.537" transform="matrix(-0.746009 0.665936 0.665936 0.746009 717.758 405.853)" fill="#A22E0B" stroke="#BE3A0D" stroke-width="1.98737"/>
<circle cx="30.9468" cy="30.9468" r="29.9532" transform="matrix(-0.746009 0.665936 0.665936 0.746009 717.148 416.562)" fill="#A22E0B" stroke="#BE3A0D" stroke-width="1.98737"/>
<circle cx="23.3842" cy="23.3842" r="22.3905" transform="matrix(-0.746009 0.665936 0.665936 0.746009 716.547 427.237)" fill="#A22E0B" stroke="#BE3A0D" stroke-width="1.98737"/>
<circle cx="16.1359" cy="16.1359" r="15.1422" transform="matrix(-0.746009 0.665936 0.665936 0.746009 715.965 437.473)" fill="#A22E0B" stroke="#BE3A0D" stroke-width="1.98737"/>
<circle cx="38.5307" cy="38.5307" r="37.537" transform="matrix(-0.746009 0.665936 0.665936 0.746009 660.266 457.173)" fill="#A22E0B" stroke="#BE3A0D" stroke-width="1.98737"/>
<circle cx="30.9468" cy="30.9468" r="29.9532" transform="matrix(-0.746009 0.665936 0.665936 0.746009 659.66 467.879)" fill="#A22E0B" stroke="#BE3A0D" stroke-width="1.98737"/>
<circle cx="23.3842" cy="23.3842" r="22.3905" transform="matrix(-0.746009 0.665936 0.665936 0.746009 659.055 478.558)" fill="#A22E0B" stroke="#BE3A0D" stroke-width="1.98737"/>
<circle cx="16.1359" cy="16.1359" r="15.1422" transform="matrix(-0.746009 0.665936 0.665936 0.746009 658.473 488.792)" fill="#A22E0B" stroke="#BE3A0D" stroke-width="1.98737"/>
<circle cx="38.5307" cy="38.5307" r="37.537" transform="matrix(-0.746009 0.665936 0.665936 0.746009 602.77 508.488)" fill="#A22E0B" stroke="#BE3A0D" stroke-width="1.98737"/>
<circle cx="30.9468" cy="30.9468" r="29.9532" transform="matrix(-0.746009 0.665936 0.665936 0.746009 602.164 519.194)" fill="#A22E0B" stroke="#BE3A0D" stroke-width="1.98737"/>
<circle cx="23.3842" cy="23.3842" r="22.3905" transform="matrix(-0.746009 0.665936 0.665936 0.746009 601.559 529.873)" fill="#A22E0B" stroke="#BE3A0D" stroke-width="1.98737"/>
<circle cx="16.1359" cy="16.1359" r="15.1422" transform="matrix(-0.746009 0.665936 0.665936 0.746009 600.977 540.107)" fill="#A22E0B" stroke="#BE3A0D" stroke-width="1.98737"/>
<circle cx="38.5307" cy="38.5307" r="37.537" transform="matrix(-0.746009 0.665936 0.665936 0.746009 545.285 559.804)" fill="#A22E0B" stroke="#BE3A0D" stroke-width="1.98737"/>
<circle cx="30.9468" cy="30.9468" r="29.9532" transform="matrix(-0.746009 0.665936 0.665936 0.746009 544.676 570.513)" fill="#A22E0B" stroke="#BE3A0D" stroke-width="1.98737"/>
<circle cx="23.3842" cy="23.3842" r="22.3905" transform="matrix(-0.746009 0.665936 0.665936 0.746009 544.07 581.19)" fill="#A22E0B" stroke="#BE3A0D" stroke-width="1.98737"/>
<circle cx="16.1359" cy="16.1359" r="15.1422" transform="matrix(-0.746009 0.665936 0.665936 0.746009 543.488 591.427)" fill="#A22E0B" stroke="#BE3A0D" stroke-width="1.98737"/>
<circle cx="38.5307" cy="38.5307" r="37.537" transform="matrix(-0.746009 0.665936 0.665936 0.746009 705.52 450.01)" fill="#A22E0B" stroke="#BE3A0D" stroke-width="1.98737"/>
<circle cx="30.9468" cy="30.9468" r="29.9532" transform="matrix(-0.746009 0.665936 0.665936 0.746009 704.91 460.718)" fill="#A22E0B" stroke="#BE3A0D" stroke-width="1.98737"/>
<circle cx="23.3842" cy="23.3842" r="22.3905" transform="matrix(-0.746009 0.665936 0.665936 0.746009 704.309 471.396)" fill="#A22E0B" stroke="#BE3A0D" stroke-width="1.98737"/>
<circle cx="16.1359" cy="16.1359" r="15.1422" transform="matrix(-0.746009 0.665936 0.665936 0.746009 703.727 481.629)" fill="#A22E0B" stroke="#BE3A0D" stroke-width="1.98737"/>
<circle cx="38.5307" cy="38.5307" r="37.537" transform="matrix(-0.746009 0.665936 0.665936 0.746009 750.77 442.835)" fill="#A22E0B" stroke="#BE3A0D" stroke-width="1.98737"/>
<circle cx="38.5307" cy="38.5307" r="37.537" transform="matrix(-0.746009 0.665936 0.665936 0.746009 643.016 495.709)" fill="#A22E0B" stroke="#BE3A0D" stroke-width="1.98737"/>
<circle cx="30.9468" cy="30.9468" r="29.9532" transform="matrix(-0.746009 0.665936 0.665936 0.746009 642.406 506.417)" fill="#A22E0B" stroke="#BE3A0D" stroke-width="1.98737"/>
<circle cx="23.3842" cy="23.3842" r="22.3905" transform="matrix(-0.746009 0.665936 0.665936 0.746009 641.801 517.096)" fill="#A22E0B" stroke="#BE3A0D" stroke-width="1.98737"/>
<circle cx="16.1359" cy="16.1359" r="15.1422" transform="matrix(-0.746009 0.665936 0.665936 0.746009 641.223 527.33)" fill="#A22E0B" stroke="#BE3A0D" stroke-width="1.98737"/>
<circle cx="38.5307" cy="38.5307" r="37.537" transform="matrix(-0.746009 0.665936 0.665936 0.746009 585.527 547.027)" fill="#A22E0B" stroke="#BE3A0D" stroke-width="1.98737"/>
<circle cx="30.9468" cy="30.9468" r="29.9532" transform="matrix(-0.746009 0.665936 0.665936 0.746009 584.918 557.736)" fill="#A22E0B" stroke="#BE3A0D" stroke-width="1.98737"/>
<circle cx="23.3842" cy="23.3842" r="22.3905" transform="matrix(-0.746009 0.665936 0.665936 0.746009 584.312 568.413)" fill="#A22E0B" stroke="#BE3A0D" stroke-width="1.98737"/>
<circle cx="16.1359" cy="16.1359" r="15.1422" transform="matrix(-0.746009 0.665936 0.665936 0.746009 583.734 578.647)" fill="#A22E0B" stroke="#BE3A0D" stroke-width="1.98737"/>
<circle cx="38.5307" cy="38.5307" r="37.537" transform="matrix(-0.746009 0.665936 0.665936 0.746009 528.055 598.329)" fill="#A22E0B" stroke="#BE3A0D" stroke-width="1.98737"/>
<circle cx="30.9468" cy="30.9468" r="29.9532" transform="matrix(-0.746009 0.665936 0.665936 0.746009 527.449 609.036)" fill="#A22E0B" stroke="#BE3A0D" stroke-width="1.98737"/>
<circle cx="23.3842" cy="23.3842" r="22.3905" transform="matrix(-0.746009 0.665936 0.665936 0.746009 526.84 619.716)" fill="#A22E0B" stroke="#BE3A0D" stroke-width="1.98737"/>
<circle cx="16.1359" cy="16.1359" r="15.1422" transform="matrix(-0.746009 0.665936 0.665936 0.746009 526.262 629.949)" fill="#A22E0B" stroke="#BE3A0D" stroke-width="1.98737"/>
<circle cx="38.5307" cy="38.5307" r="37.537" transform="matrix(-0.746009 0.665936 0.665936 0.746009 689.863 490.324)" fill="#A22E0B" stroke="#BE3A0D" stroke-width="1.98737"/>
<circle cx="30.9468" cy="30.9468" r="29.9532" transform="matrix(-0.746009 0.665936 0.665936 0.746009 689.254 501.032)" fill="#A22E0B" stroke="#BE3A0D" stroke-width="1.98737"/>
<circle cx="23.3842" cy="23.3842" r="22.3905" transform="matrix(-0.746009 0.665936 0.665936 0.746009 688.648 511.711)" fill="#A22E0B" stroke="#BE3A0D" stroke-width="1.98737"/>
<circle cx="16.1359" cy="16.1359" r="15.1422" transform="matrix(-0.746009 0.665936 0.665936 0.746009 688.07 521.944)" fill="#A22E0B" stroke="#BE3A0D" stroke-width="1.98737"/>
<circle cx="38.5307" cy="38.5307" r="37.537" transform="matrix(-0.746009 0.665936 0.665936 0.746009 632.375 541.642)" fill="#A22E0B" stroke="#BE3A0D" stroke-width="1.98737"/>
<circle cx="30.9468" cy="30.9468" r="29.9532" transform="matrix(-0.746009 0.665936 0.665936 0.746009 631.766 552.352)" fill="#A22E0B" stroke="#BE3A0D" stroke-width="1.98737"/>
<circle cx="23.3842" cy="23.3842" r="22.3905" transform="matrix(-0.746009 0.665936 0.665936 0.746009 631.16 563.028)" fill="#A22E0B" stroke="#BE3A0D" stroke-width="1.98737"/>
<circle cx="16.1359" cy="16.1359" r="15.1422" transform="matrix(-0.746009 0.665936 0.665936 0.746009 630.582 573.262)" fill="#A22E0B" stroke="#BE3A0D" stroke-width="1.98737"/>
<circle cx="38.5307" cy="38.5307" r="37.537" transform="matrix(-0.746009 0.665936 0.665936 0.746009 574.883 592.962)" fill="#A22E0B" stroke="#BE3A0D" stroke-width="1.98737"/>
<circle cx="30.9468" cy="30.9468" r="29.9532" transform="matrix(-0.746009 0.665936 0.665936 0.746009 574.273 603.672)" fill="#A22E0B" stroke="#BE3A0D" stroke-width="1.98737"/>
<circle cx="23.3842" cy="23.3842" r="22.3905" transform="matrix(-0.746009 0.665936 0.665936 0.746009 573.668 614.349)" fill="#A22E0B" stroke="#BE3A0D" stroke-width="1.98737"/>
<circle cx="16.1359" cy="16.1359" r="15.1422" transform="matrix(-0.746009 0.665936 0.665936 0.746009 573.09 624.582)" fill="#A22E0B" stroke="#BE3A0D" stroke-width="1.98737"/>
<circle cx="38.5307" cy="38.5307" r="37.537" transform="matrix(-0.746009 0.665936 0.665936 0.746009 679.426 536.489)" fill="#A22E0B" stroke="#BE3A0D" stroke-width="1.98737"/>
<circle cx="30.9468" cy="30.9468" r="29.9532" transform="matrix(-0.746009 0.665936 0.665936 0.746009 678.816 547.199)" fill="#A22E0B" stroke="#BE3A0D" stroke-width="1.98737"/>
<circle cx="23.3842" cy="23.3842" r="22.3905" transform="matrix(-0.746009 0.665936 0.665936 0.746009 678.211 557.877)" fill="#A22E0B" stroke="#BE3A0D" stroke-width="1.98737"/>
<circle cx="16.1359" cy="16.1359" r="15.1422" transform="matrix(-0.746009 0.665936 0.665936 0.746009 677.629 568.112)" fill="#A22E0B" stroke="#BE3A0D" stroke-width="1.98737"/>
<circle cx="38.5307" cy="38.5307" r="37.537" transform="matrix(-0.746009 0.665936 0.665936 0.746009 621.938 587.808)" fill="#A22E0B" stroke="#BE3A0D" stroke-width="1.98737"/>
<circle cx="30.9468" cy="30.9468" r="29.9532" transform="matrix(-0.746009 0.665936 0.665936 0.746009 621.328 598.517)" fill="#A22E0B" stroke="#BE3A0D" stroke-width="1.98737"/>
<circle cx="23.3842" cy="23.3842" r="22.3905" transform="matrix(-0.746009 0.665936 0.665936 0.746009 620.723 609.194)" fill="#A22E0B" stroke="#BE3A0D" stroke-width="1.98737"/>
<circle cx="16.1359" cy="16.1359" r="15.1422" transform="matrix(-0.746009 0.665936 0.665936 0.746009 620.145 619.428)" fill="#A22E0B" stroke="#BE3A0D" stroke-width="1.98737"/>
<circle cx="38.5307" cy="38.5307" r="37.537" transform="matrix(-0.746009 0.665936 0.665936 0.746009 564.445 639.128)" fill="#A22E0B" stroke="#BE3A0D" stroke-width="1.98737"/>
<circle cx="30.9468" cy="30.9468" r="29.9532" transform="matrix(-0.746009 0.665936 0.665936 0.746009 563.836 649.834)" fill="#A22E0B" stroke="#BE3A0D" stroke-width="1.98737"/>
<circle cx="23.3842" cy="23.3842" r="22.3905" transform="matrix(-0.746009 0.665936 0.665936 0.746009 563.234 660.513)" fill="#A22E0B" stroke="#BE3A0D" stroke-width="1.98737"/>
<circle cx="16.1359" cy="16.1359" r="15.1422" transform="matrix(-0.746009 0.665936 0.665936 0.746009 562.652 670.748)" fill="#A22E0B" stroke="#BE3A0D" stroke-width="1.98737"/>
<circle cx="38.5307" cy="38.5307" r="37.537" transform="matrix(-0.746009 0.665936 0.665936 0.746009 736.91 485.175)" fill="#A22E0B" stroke="#BE3A0D" stroke-width="1.98737"/>
<circle cx="30.9468" cy="30.9468" r="29.9532" transform="matrix(-0.746009 0.665936 0.665936 0.746009 736.305 495.881)" fill="#A22E0B" stroke="#BE3A0D" stroke-width="1.98737"/>
<circle cx="38.5307" cy="38.5307" r="37.537" transform="matrix(-0.746009 0.665936 0.665936 0.746009 724.676 529.329)" fill="#A22E0B" stroke="#BE3A0D" stroke-width="1.98737"/>
<circle cx="30.9468" cy="30.9468" r="29.9532" transform="matrix(-0.746009 0.665936 0.665936 0.746009 724.07 540.035)" fill="#A22E0B" stroke="#BE3A0D" stroke-width="1.98737"/>
<circle cx="23.3842" cy="23.3842" r="22.3905" transform="matrix(-0.746009 0.665936 0.665936 0.746009 723.465 550.714)" fill="#A22E0B" stroke="#BE3A0D" stroke-width="1.98737"/>
<circle cx="16.1359" cy="16.1359" r="15.1422" transform="matrix(-0.746009 0.665936 0.665936 0.746009 722.883 560.948)" fill="#A22E0B" stroke="#BE3A0D" stroke-width="1.98737"/>
<circle cx="38.5307" cy="38.5307" r="37.537" transform="matrix(-0.746009 0.665936 0.665936 0.746009 667.188 580.646)" fill="#A22E0B" stroke="#BE3A0D" stroke-width="1.98737"/>
<circle cx="30.9468" cy="30.9468" r="29.9532" transform="matrix(-0.746009 0.665936 0.665936 0.746009 666.582 591.354)" fill="#A22E0B" stroke="#BE3A0D" stroke-width="1.98737"/>
<circle cx="23.3842" cy="23.3842" r="22.3905" transform="matrix(-0.746009 0.665936 0.665936 0.746009 665.977 602.031)" fill="#A22E0B" stroke="#BE3A0D" stroke-width="1.98737"/>
<circle cx="16.1359" cy="16.1359" r="15.1422" transform="matrix(-0.746009 0.665936 0.665936 0.746009 665.395 612.267)" fill="#A22E0B" stroke="#BE3A0D" stroke-width="1.98737"/>
<circle cx="38.5307" cy="38.5307" r="37.537" transform="matrix(-0.746009 0.665936 0.665936 0.746009 609.715 631.95)" fill="#A22E0B" stroke="#BE3A0D" stroke-width="1.98737"/>
<circle cx="30.9468" cy="30.9468" r="29.9532" transform="matrix(-0.746009 0.665936 0.665936 0.746009 609.105 642.659)" fill="#A22E0B" stroke="#BE3A0D" stroke-width="1.98737"/>
<circle cx="23.3842" cy="23.3842" r="22.3905" transform="matrix(-0.746009 0.665936 0.665936 0.746009 608.5 653.337)" fill="#A22E0B" stroke="#BE3A0D" stroke-width="1.98737"/>
<circle cx="16.1359" cy="16.1359" r="15.1422" transform="matrix(-0.746009 0.665936 0.665936 0.746009 607.922 663.57)" fill="#A22E0B" stroke="#BE3A0D" stroke-width="1.98737"/>
<circle cx="38.5307" cy="38.5307" r="37.537" transform="matrix(-0.746009 0.665936 0.665936 0.746009 712.434 573.475)" fill="#A22E0B" stroke="#BE3A0D" stroke-width="1.98737"/>
<circle cx="30.9468" cy="30.9468" r="29.9532" transform="matrix(-0.746009 0.665936 0.665936 0.746009 711.824 584.183)" fill="#A22E0B" stroke="#BE3A0D" stroke-width="1.98737"/>
<circle cx="23.3842" cy="23.3842" r="22.3905" transform="matrix(-0.746009 0.665936 0.665936 0.746009 711.223 594.859)" fill="#A22E0B" stroke="#BE3A0D" stroke-width="1.98737"/>
<circle cx="16.1359" cy="16.1359" r="15.1422" transform="matrix(-0.746009 0.665936 0.665936 0.746009 710.641 605.095)" fill="#A22E0B" stroke="#BE3A0D" stroke-width="1.98737"/>
<circle cx="38.5307" cy="38.5307" r="37.537" transform="matrix(-0.746009 0.665936 0.665936 0.746009 654.945 624.792)" fill="#A22E0B" stroke="#BE3A0D" stroke-width="1.98737"/>
<circle cx="30.9468" cy="30.9468" r="29.9532" transform="matrix(-0.746009 0.665936 0.665936 0.746009 654.336 635.502)" fill="#A22E0B" stroke="#BE3A0D" stroke-width="1.98737"/>
<circle cx="23.3842" cy="23.3842" r="22.3905" transform="matrix(-0.746009 0.665936 0.665936 0.746009 653.734 646.177)" fill="#A22E0B" stroke="#BE3A0D" stroke-width="1.98737"/>
<circle cx="16.1359" cy="16.1359" r="15.1422" transform="matrix(-0.746009 0.665936 0.665936 0.746009 653.152 656.412)" fill="#A22E0B" stroke="#BE3A0D" stroke-width="1.98737"/>
<circle cx="38.5307" cy="38.5307" r="37.537" transform="matrix(-0.746009 0.665936 0.665936 0.746009 597.457 676.11)" fill="#A22E0B" stroke="#BE3A0D" stroke-width="1.98737"/>
<circle cx="30.9468" cy="30.9468" r="29.9532" transform="matrix(-0.746009 0.665936 0.665936 0.746009 596.848 686.817)" fill="#A22E0B" stroke="#BE3A0D" stroke-width="1.98737"/>
<circle cx="23.3842" cy="23.3842" r="22.3905" transform="matrix(-0.746009 0.665936 0.665936 0.746009 596.246 697.494)" fill="#A22E0B" stroke="#BE3A0D" stroke-width="1.98737"/>
<circle cx="16.1359" cy="16.1359" r="15.1422" transform="matrix(-0.746009 0.665936 0.665936 0.746009 595.664 707.73)" fill="#A22E0B" stroke="#BE3A0D" stroke-width="1.98737"/>
<circle cx="38.5307" cy="38.5307" r="37.537" transform="matrix(-0.746009 0.665936 0.665936 0.746009 644.523 670.94)" fill="#A22E0B" stroke="#BE3A0D" stroke-width="1.98737"/>
<circle cx="30.9468" cy="30.9468" r="29.9532" transform="matrix(-0.746009 0.665936 0.665936 0.746009 643.914 681.649)" fill="#A22E0B" stroke="#BE3A0D" stroke-width="1.98737"/>
<circle cx="23.3842" cy="23.3842" r="22.3905" transform="matrix(-0.746009 0.665936 0.665936 0.746009 643.309 692.327)" fill="#A22E0B" stroke="#BE3A0D" stroke-width="1.98737"/>
<circle cx="16.1359" cy="16.1359" r="15.1422" transform="matrix(-0.746009 0.665936 0.665936 0.746009 642.73 702.562)" fill="#A22E0B" stroke="#BE3A0D" stroke-width="1.98737"/>
<circle cx="38.5307" cy="38.5307" r="37.537" transform="matrix(-0.746009 0.665936 0.665936 0.746009 702.012 619.623)" fill="#A22E0B" stroke="#BE3A0D" stroke-width="1.98737"/>
<circle cx="30.9468" cy="30.9468" r="29.9532" transform="matrix(-0.746009 0.665936 0.665936 0.746009 701.402 630.331)" fill="#A22E0B" stroke="#BE3A0D" stroke-width="1.98737"/>
<circle cx="23.3842" cy="23.3842" r="22.3905" transform="matrix(-0.746009 0.665936 0.665936 0.746009 700.797 641.01)" fill="#A22E0B" stroke="#BE3A0D" stroke-width="1.98737"/>
<circle cx="16.1359" cy="16.1359" r="15.1422" transform="matrix(-0.746009 0.665936 0.665936 0.746009 700.219 651.243)" fill="#A22E0B" stroke="#BE3A0D" stroke-width="1.98737"/>
<circle cx="38.5307" cy="38.5307" r="37.537" transform="matrix(-0.746009 0.665936 0.665936 0.746009 689.777 663.779)" fill="#A22E0B" stroke="#BE3A0D" stroke-width="1.98737"/>
<circle cx="30.9468" cy="30.9468" r="29.9532" transform="matrix(-0.746009 0.665936 0.665936 0.746009 689.168 674.487)" fill="#A22E0B" stroke="#BE3A0D" stroke-width="1.98737"/>
<circle cx="23.3842" cy="23.3842" r="22.3905" transform="matrix(-0.746009 0.665936 0.665936 0.746009 688.566 685.163)" fill="#A22E0B" stroke="#BE3A0D" stroke-width="1.98737"/>
<circle cx="16.1359" cy="16.1359" r="15.1422" transform="matrix(-0.746009 0.665936 0.665936 0.746009 687.984 695.399)" fill="#A22E0B" stroke="#BE3A0D" stroke-width="1.98737"/>
<circle cx="38.5307" cy="38.5307" r="37.537" transform="matrix(-0.746009 0.665936 0.665936 0.746009 747.262 612.467)" fill="#A22E0B" stroke="#BE3A0D" stroke-width="1.98737"/>
<circle cx="38.5307" cy="38.5307" r="37.537" transform="matrix(-0.746009 0.665936 0.665936 0.746009 632.289 715.097)" fill="#A22E0B" stroke="#BE3A0D" stroke-width="1.98737"/>
<circle cx="30.9468" cy="30.9468" r="29.9532" transform="matrix(-0.746009 0.665936 0.665936 0.746009 631.684 725.804)" fill="#A22E0B" stroke="#BE3A0D" stroke-width="1.98737"/>
<circle cx="23.3842" cy="23.3842" r="22.3905" transform="matrix(-0.746009 0.665936 0.665936 0.746009 631.078 736.481)" fill="#A22E0B" stroke="#BE3A0D" stroke-width="1.98737"/>
<circle cx="38.5307" cy="38.5307" r="37.537" transform="matrix(-0.746009 0.665936 0.665936 0.746009 677.531 707.93)" fill="#A22E0B" stroke="#BE3A0D" stroke-width="1.98737"/>
<circle cx="30.9468" cy="30.9468" r="29.9532" transform="matrix(-0.746009 0.665936 0.665936 0.746009 676.926 718.636)" fill="#A22E0B" stroke="#BE3A0D" stroke-width="1.98737"/>
<circle cx="23.3842" cy="23.3842" r="22.3905" transform="matrix(-0.746009 0.665936 0.665936 0.746009 676.32 729.313)" fill="#A22E0B" stroke="#BE3A0D" stroke-width="1.98737"/>
<circle cx="16.1359" cy="16.1359" r="15.1422" transform="matrix(-0.746009 0.665936 0.665936 0.746009 675.738 739.549)" fill="#A22E0B" stroke="#BE3A0D" stroke-width="1.98737"/>
<circle cx="38.5307" cy="38.5307" r="37.537" transform="matrix(-0.746009 0.665936 0.665936 0.746009 735.016 656.614)" fill="#A22E0B" stroke="#BE3A0D" stroke-width="1.98737"/>
<circle cx="30.9468" cy="30.9468" r="29.9532" transform="matrix(-0.746009 0.665936 0.665936 0.746009 734.41 667.321)" fill="#A22E0B" stroke="#BE3A0D" stroke-width="1.98737"/>
<circle cx="23.3842" cy="23.3842" r="22.3905" transform="matrix(-0.746009 0.665936 0.665936 0.746009 733.805 677.999)" fill="#A22E0B" stroke="#BE3A0D" stroke-width="1.98737"/>
<circle cx="38.5307" cy="38.5307" r="37.537" transform="matrix(-0.746009 0.665936 0.665936 0.746009 304.926 464.469)" fill="#A22E0B" stroke="#BE3A0D" stroke-width="1.98737"/>
<circle cx="30.9468" cy="30.9468" r="29.9532" transform="matrix(-0.746009 0.665936 0.665936 0.746009 304.316 475.177)" fill="#A22E0B" stroke="#BE3A0D" stroke-width="1.98737"/>
<circle cx="23.3842" cy="23.3842" r="22.3905" transform="matrix(-0.746009 0.665936 0.665936 0.746009 303.711 485.855)" fill="#A22E0B" stroke="#BE3A0D" stroke-width="1.98737"/>
<circle cx="16.1359" cy="16.1359" r="15.1422" transform="matrix(-0.746009 0.665936 0.665936 0.746009 303.133 496.089)" fill="#A22E0B" stroke="#BE3A0D" stroke-width="1.98737"/>
<circle cx="38.5307" cy="38.5307" r="37.537" transform="matrix(-0.746009 0.665936 0.665936 0.746009 363.301 414.137)" fill="#A22E0B" stroke="#BE3A0D" stroke-width="1.98737"/>
<circle cx="30.9468" cy="30.9468" r="29.9532" transform="matrix(-0.746009 0.665936 0.665936 0.746009 362.691 424.845)" fill="#A22E0B" stroke="#BE3A0D" stroke-width="1.98737"/>
<circle cx="23.3842" cy="23.3842" r="22.3905" transform="matrix(-0.746009 0.665936 0.665936 0.746009 362.086 435.523)" fill="#A22E0B" stroke="#BE3A0D" stroke-width="1.98737"/>
<circle cx="16.1359" cy="16.1359" r="15.1422" transform="matrix(-0.746009 0.665936 0.665936 0.746009 361.508 445.757)" fill="#A22E0B" stroke="#BE3A0D" stroke-width="1.98737"/>
<circle cx="38.5307" cy="38.5307" r="37.537" transform="matrix(-0.746009 0.665936 0.665936 0.746009 351.773 459.084)" fill="#A22E0B" stroke="#BE3A0D" stroke-width="1.98737"/>
<circle cx="30.9468" cy="30.9468" r="29.9532" transform="matrix(-0.746009 0.665936 0.665936 0.746009 351.164 469.793)" fill="#A22E0B" stroke="#BE3A0D" stroke-width="1.98737"/>
<circle cx="23.3842" cy="23.3842" r="22.3905" transform="matrix(-0.746009 0.665936 0.665936 0.746009 350.559 480.47)" fill="#A22E0B" stroke="#BE3A0D" stroke-width="1.98737"/>
<circle cx="16.1359" cy="16.1359" r="15.1422" transform="matrix(-0.746009 0.665936 0.665936 0.746009 349.977 490.706)" fill="#A22E0B" stroke="#BE3A0D" stroke-width="1.98737"/>
<circle cx="38.5307" cy="38.5307" r="37.537" transform="matrix(-0.746009 0.665936 0.665936 0.746009 294.281 510.404)" fill="#A22E0B" stroke="#BE3A0D" stroke-width="1.98737"/>
<circle cx="30.9468" cy="30.9468" r="29.9532" transform="matrix(-0.746009 0.665936 0.665936 0.746009 293.676 521.111)" fill="#A22E0B" stroke="#BE3A0D" stroke-width="1.98737"/>
<circle cx="23.3842" cy="23.3842" r="22.3905" transform="matrix(-0.746009 0.665936 0.665936 0.746009 293.066 531.791)" fill="#A22E0B" stroke="#BE3A0D" stroke-width="1.98737"/>
<circle cx="16.1359" cy="16.1359" r="15.1422" transform="matrix(-0.746009 0.665936 0.665936 0.746009 292.488 542.024)" fill="#A22E0B" stroke="#BE3A0D" stroke-width="1.98737"/>
<circle cx="38.5307" cy="38.5307" r="37.537" transform="matrix(-0.746009 0.665936 0.665936 0.746009 341.332 505.252)" fill="#A22E0B" stroke="#BE3A0D" stroke-width="1.98737"/>
<circle cx="30.9468" cy="30.9468" r="29.9532" transform="matrix(-0.746009 0.665936 0.665936 0.746009 340.727 515.959)" fill="#A22E0B" stroke="#BE3A0D" stroke-width="1.98737"/>
<circle cx="23.3842" cy="23.3842" r="22.3905" transform="matrix(-0.746009 0.665936 0.665936 0.746009 340.121 526.637)" fill="#A22E0B" stroke="#BE3A0D" stroke-width="1.98737"/>
<circle cx="16.1359" cy="16.1359" r="15.1422" transform="matrix(-0.746009 0.665936 0.665936 0.746009 339.539 536.872)" fill="#A22E0B" stroke="#BE3A0D" stroke-width="1.98737"/>
<circle cx="38.5307" cy="38.5307" r="37.537" transform="matrix(-0.746009 0.665936 0.665936 0.746009 283.844 556.569)" fill="#A22E0B" stroke="#BE3A0D" stroke-width="1.98737"/>
<circle cx="30.9468" cy="30.9468" r="29.9532" transform="matrix(-0.746009 0.665936 0.665936 0.746009 283.234 567.277)" fill="#A22E0B" stroke="#BE3A0D" stroke-width="1.98737"/>
<circle cx="23.3842" cy="23.3842" r="22.3905" transform="matrix(-0.746009 0.665936 0.665936 0.746009 282.633 577.955)" fill="#A22E0B" stroke="#BE3A0D" stroke-width="1.98737"/>
<circle cx="16.1359" cy="16.1359" r="15.1422" transform="matrix(-0.746009 0.665936 0.665936 0.746009 282.047 588.19)" fill="#A22E0B" stroke="#BE3A0D" stroke-width="1.98737"/>
<circle cx="38.5307" cy="38.5307" r="37.537" transform="matrix(-0.746009 0.665936 0.665936 0.746009 398.82 453.934)" fill="#A22E0B" stroke="#BE3A0D" stroke-width="1.98737"/>
<circle cx="30.9468" cy="30.9468" r="29.9532" transform="matrix(-0.746009 0.665936 0.665936 0.746009 398.215 464.639)" fill="#A22E0B" stroke="#BE3A0D" stroke-width="1.98737"/>
<circle cx="23.3842" cy="23.3842" r="22.3905" transform="matrix(-0.746009 0.665936 0.665936 0.746009 397.605 475.318)" fill="#A22E0B" stroke="#BE3A0D" stroke-width="1.98737"/>
<circle cx="16.1359" cy="16.1359" r="15.1422" transform="matrix(-0.746009 0.665936 0.665936 0.746009 397.027 485.553)" fill="#A22E0B" stroke="#BE3A0D" stroke-width="1.98737"/>
<circle cx="38.5307" cy="38.5307" r="37.537" transform="matrix(-0.746009 0.665936 0.665936 0.746009 386.586 498.088)" fill="#A22E0B" stroke="#BE3A0D" stroke-width="1.98737"/>
<circle cx="30.9468" cy="30.9468" r="29.9532" transform="matrix(-0.746009 0.665936 0.665936 0.746009 385.977 508.796)" fill="#A22E0B" stroke="#BE3A0D" stroke-width="1.98737"/>
<circle cx="23.3842" cy="23.3842" r="22.3905" transform="matrix(-0.746009 0.665936 0.665936 0.746009 385.375 519.473)" fill="#A22E0B" stroke="#BE3A0D" stroke-width="1.98737"/>
<circle cx="16.1359" cy="16.1359" r="15.1422" transform="matrix(-0.746009 0.665936 0.665936 0.746009 384.793 529.708)" fill="#A22E0B" stroke="#BE3A0D" stroke-width="1.98737"/>
<circle cx="38.5307" cy="38.5307" r="37.537" transform="matrix(-0.746009 0.665936 0.665936 0.746009 329.098 549.405)" fill="#A22E0B" stroke="#BE3A0D" stroke-width="1.98737"/>
<circle cx="30.9468" cy="30.9468" r="29.9532" transform="matrix(-0.746009 0.665936 0.665936 0.746009 328.492 560.113)" fill="#A22E0B" stroke="#BE3A0D" stroke-width="1.98737"/>
<circle cx="23.3842" cy="23.3842" r="22.3905" transform="matrix(-0.746009 0.665936 0.665936 0.746009 327.887 570.79)" fill="#A22E0B" stroke="#BE3A0D" stroke-width="1.98737"/>
<circle cx="16.1359" cy="16.1359" r="15.1422" transform="matrix(-0.746009 0.665936 0.665936 0.746009 327.305 581.026)" fill="#A22E0B" stroke="#BE3A0D" stroke-width="1.98737"/>
<circle cx="38.5307" cy="38.5307" r="37.537" transform="matrix(-0.746009 0.665936 0.665936 0.746009 374.344 542.234)" fill="#A22E0B" stroke="#BE3A0D" stroke-width="1.98737"/>
<circle cx="30.9468" cy="30.9468" r="29.9532" transform="matrix(-0.746009 0.665936 0.665936 0.746009 373.734 552.942)" fill="#A22E0B" stroke="#BE3A0D" stroke-width="1.98737"/>
<circle cx="23.3842" cy="23.3842" r="22.3905" transform="matrix(-0.746009 0.665936 0.665936 0.746009 373.129 563.621)" fill="#A22E0B" stroke="#BE3A0D" stroke-width="1.98737"/>
<circle cx="16.1359" cy="16.1359" r="15.1422" transform="matrix(-0.746009 0.665936 0.665936 0.746009 372.551 573.854)" fill="#A22E0B" stroke="#BE3A0D" stroke-width="1.98737"/>
<circle cx="38.5307" cy="38.5307" r="37.537" transform="matrix(-0.746009 0.665936 0.665936 0.746009 431.828 490.919)" fill="#A22E0B" stroke="#BE3A0D" stroke-width="1.98737"/>
<circle cx="30.9468" cy="30.9468" r="29.9532" transform="matrix(-0.746009 0.665936 0.665936 0.746009 431.223 501.626)" fill="#A22E0B" stroke="#BE3A0D" stroke-width="1.98737"/>
<circle cx="23.3842" cy="23.3842" r="22.3905" transform="matrix(-0.746009 0.665936 0.665936 0.746009 430.617 512.303)" fill="#A22E0B" stroke="#BE3A0D" stroke-width="1.98737"/>
<circle cx="16.1359" cy="16.1359" r="15.1422" transform="matrix(-0.746009 0.665936 0.665936 0.746009 430.035 522.538)" fill="#A22E0B" stroke="#BE3A0D" stroke-width="1.98737"/>
<circle cx="38.5307" cy="38.5307" r="37.537" transform="matrix(-0.746009 0.665936 0.665936 0.746009 74.9727 669.742)" fill="#A22E0B" stroke="#BE3A0D" stroke-width="1.98737"/>
<circle cx="30.9468" cy="30.9468" r="29.9532" transform="matrix(-0.746009 0.665936 0.665936 0.746009 74.3672 680.449)" fill="#A22E0B" stroke="#BE3A0D" stroke-width="1.98737"/>
<circle cx="23.3842" cy="23.3842" r="22.3905" transform="matrix(-0.746009 0.665936 0.665936 0.746009 73.7578 691.129)" fill="#A22E0B" stroke="#BE3A0D" stroke-width="1.98737"/>
<circle cx="16.1359" cy="16.1359" r="15.1422" transform="matrix(-0.746009 0.665936 0.665936 0.746009 73.1797 701.362)" fill="#A22E0B" stroke="#BE3A0D" stroke-width="1.98737"/>
<circle cx="38.5307" cy="38.5307" r="37.537" transform="matrix(-0.746009 0.665936 0.665936 0.746009 17.5 721.045)" fill="#A22E0B" stroke="#BE3A0D" stroke-width="1.98737"/>
<circle cx="30.9468" cy="30.9468" r="29.9532" transform="matrix(-0.746009 0.665936 0.665936 0.746009 16.8906 731.753)" fill="#A22E0B" stroke="#BE3A0D" stroke-width="1.98737"/>
<circle cx="23.3842" cy="23.3842" r="22.3905" transform="matrix(-0.746009 0.665936 0.665936 0.746009 16.2891 742.431)" fill="#A22E0B" stroke="#BE3A0D" stroke-width="1.98737"/>
<circle cx="38.5307" cy="38.5307" r="37.537" transform="matrix(-0.746009 0.665936 0.665936 0.746009 179.312 613.036)" fill="#A22E0B" stroke="#BE3A0D" stroke-width="1.98737"/>
<circle cx="30.9468" cy="30.9468" r="29.9532" transform="matrix(-0.746009 0.665936 0.665936 0.746009 178.703 623.746)" fill="#A22E0B" stroke="#BE3A0D" stroke-width="1.98737"/>
<circle cx="23.3842" cy="23.3842" r="22.3905" transform="matrix(-0.746009 0.665936 0.665936 0.746009 178.094 634.425)" fill="#A22E0B" stroke="#BE3A0D" stroke-width="1.98737"/>
<circle cx="16.1359" cy="16.1359" r="15.1422" transform="matrix(-0.746009 0.665936 0.665936 0.746009 177.516 644.658)" fill="#A22E0B" stroke="#BE3A0D" stroke-width="1.98737"/>
<circle cx="38.5307" cy="38.5307" r="37.537" transform="matrix(-0.746009 0.665936 0.665936 0.746009 64.3281 715.677)" fill="#A22E0B" stroke="#BE3A0D" stroke-width="1.98737"/>
<circle cx="30.9468" cy="30.9468" r="29.9532" transform="matrix(-0.746009 0.665936 0.665936 0.746009 63.7188 726.385)" fill="#A22E0B" stroke="#BE3A0D" stroke-width="1.98737"/>
<circle cx="23.3842" cy="23.3842" r="22.3905" transform="matrix(-0.746009 0.665936 0.665936 0.746009 63.1172 737.062)" fill="#A22E0B" stroke="#BE3A0D" stroke-width="1.98737"/>
<circle cx="38.5307" cy="38.5307" r="37.537" transform="matrix(-0.746009 0.665936 0.665936 0.746009 168.871 659.204)" fill="#A22E0B" stroke="#BE3A0D" stroke-width="1.98737"/>
<circle cx="30.9468" cy="30.9468" r="29.9532" transform="matrix(-0.746009 0.665936 0.665936 0.746009 168.262 669.911)" fill="#A22E0B" stroke="#BE3A0D" stroke-width="1.98737"/>
<circle cx="23.3842" cy="23.3842" r="22.3905" transform="matrix(-0.746009 0.665936 0.665936 0.746009 167.66 680.589)" fill="#A22E0B" stroke="#BE3A0D" stroke-width="1.98737"/>
<circle cx="16.1359" cy="16.1359" r="15.1422" transform="matrix(-0.746009 0.665936 0.665936 0.746009 167.078 690.824)" fill="#A22E0B" stroke="#BE3A0D" stroke-width="1.98737"/>
<circle cx="38.5307" cy="38.5307" r="37.537" transform="matrix(-0.746009 0.665936 0.665936 0.746009 200.434 681)" fill="#A22E0B" stroke="#BE3A0D" stroke-width="1.98737"/>
<circle cx="30.9468" cy="30.9468" r="29.9532" transform="matrix(-0.746009 0.665936 0.665936 0.746009 199.824 691.707)" fill="#A22E0B" stroke="#BE3A0D" stroke-width="1.98737"/>
<circle cx="23.3842" cy="23.3842" r="22.3905" transform="matrix(-0.746009 0.665936 0.665936 0.746009 199.223 702.385)" fill="#A22E0B" stroke="#BE3A0D" stroke-width="1.98737"/>
<circle cx="16.1359" cy="16.1359" r="15.1422" transform="matrix(-0.746009 0.665936 0.665936 0.746009 198.641 712.62)" fill="#A22E0B" stroke="#BE3A0D" stroke-width="1.98737"/>
<circle cx="38.5307" cy="38.5307" r="37.537" transform="matrix(-0.746009 0.665936 0.665936 0.746009 111.383 710.522)" fill="#A22E0B" stroke="#BE3A0D" stroke-width="1.98737"/>
<circle cx="30.9468" cy="30.9468" r="29.9532" transform="matrix(-0.746009 0.665936 0.665936 0.746009 110.773 721.229)" fill="#A22E0B" stroke="#BE3A0D" stroke-width="1.98737"/>
<circle cx="23.3842" cy="23.3842" r="22.3905" transform="matrix(-0.746009 0.665936 0.665936 0.746009 110.172 731.907)" fill="#A22E0B" stroke="#BE3A0D" stroke-width="1.98737"/>
<circle cx="16.1359" cy="16.1359" r="15.1422" transform="matrix(-0.746009 0.665936 0.665936 0.746009 109.59 742.143)" fill="#A22E0B" stroke="#BE3A0D" stroke-width="1.98737"/>
<circle cx="38.5307" cy="38.5307" r="37.537" transform="matrix(-0.746009 0.665936 0.665936 0.746009 226.359 607.887)" fill="#A22E0B" stroke="#BE3A0D" stroke-width="1.98737"/>
<circle cx="30.9468" cy="30.9468" r="29.9532" transform="matrix(-0.746009 0.665936 0.665936 0.746009 225.75 618.595)" fill="#A22E0B" stroke="#BE3A0D" stroke-width="1.98737"/>
<circle cx="23.3842" cy="23.3842" r="22.3905" transform="matrix(-0.746009 0.665936 0.665936 0.746009 225.145 629.272)" fill="#A22E0B" stroke="#BE3A0D" stroke-width="1.98737"/>
<circle cx="16.1359" cy="16.1359" r="15.1422" transform="matrix(-0.746009 0.665936 0.665936 0.746009 224.566 639.507)" fill="#A22E0B" stroke="#BE3A0D" stroke-width="1.98737"/>
<circle cx="38.5307" cy="38.5307" r="37.537" transform="matrix(-0.746009 0.665936 0.665936 0.746009 214.125 652.042)" fill="#A22E0B" stroke="#BE3A0D" stroke-width="1.98737"/>
<circle cx="30.9468" cy="30.9468" r="29.9532" transform="matrix(-0.746009 0.665936 0.665936 0.746009 213.516 662.75)" fill="#A22E0B" stroke="#BE3A0D" stroke-width="1.98737"/>
<circle cx="23.3842" cy="23.3842" r="22.3905" transform="matrix(-0.746009 0.665936 0.665936 0.746009 212.91 673.429)" fill="#A22E0B" stroke="#BE3A0D" stroke-width="1.98737"/>
<circle cx="16.1359" cy="16.1359" r="15.1422" transform="matrix(-0.746009 0.665936 0.665936 0.746009 212.332 683.662)" fill="#A22E0B" stroke="#BE3A0D" stroke-width="1.98737"/>
<circle cx="38.5307" cy="38.5307" r="37.537" transform="matrix(-0.746009 0.665936 0.665936 0.746009 270.012 598.934)" fill="#A22E0B" stroke="#BE3A0D" stroke-width="1.98737"/>
<circle cx="30.9468" cy="30.9468" r="29.9532" transform="matrix(-0.746009 0.665936 0.665936 0.746009 269.406 609.641)" fill="#A22E0B" stroke="#BE3A0D" stroke-width="1.98737"/>
<circle cx="23.3842" cy="23.3842" r="22.3905" transform="matrix(-0.746009 0.665936 0.665936 0.746009 268.801 620.319)" fill="#A22E0B" stroke="#BE3A0D" stroke-width="1.98737"/>
<circle cx="16.1359" cy="16.1359" r="15.1422" transform="matrix(-0.746009 0.665936 0.665936 0.746009 268.219 630.553)" fill="#A22E0B" stroke="#BE3A0D" stroke-width="1.98737"/>
<circle cx="38.5307" cy="38.5307" r="37.537" transform="matrix(-0.746009 0.665936 0.665936 0.746009 316.859 593.548)" fill="#A22E0B" stroke="#BE3A0D" stroke-width="1.98737"/>
<circle cx="30.9468" cy="30.9468" r="29.9532" transform="matrix(-0.746009 0.665936 0.665936 0.746009 316.25 604.256)" fill="#A22E0B" stroke="#BE3A0D" stroke-width="1.98737"/>
<circle cx="23.3842" cy="23.3842" r="22.3905" transform="matrix(-0.746009 0.665936 0.665936 0.746009 315.645 614.935)" fill="#A22E0B" stroke="#BE3A0D" stroke-width="1.98737"/>
<circle cx="16.1359" cy="16.1359" r="15.1422" transform="matrix(-0.746009 0.665936 0.665936 0.746009 315.066 625.168)" fill="#A22E0B" stroke="#BE3A0D" stroke-width="1.98737"/>
<circle cx="38.5307" cy="38.5307" r="37.537" transform="matrix(-0.746009 0.665936 0.665936 0.746009 259.371 644.866)" fill="#A22E0B" stroke="#BE3A0D" stroke-width="1.98737"/>
<circle cx="30.9468" cy="30.9468" r="29.9532" transform="matrix(-0.746009 0.665936 0.665936 0.746009 258.762 655.576)" fill="#A22E0B" stroke="#BE3A0D" stroke-width="1.98737"/>
<circle cx="23.3842" cy="23.3842" r="22.3905" transform="matrix(-0.746009 0.665936 0.665936 0.746009 258.156 666.253)" fill="#A22E0B" stroke="#BE3A0D" stroke-width="1.98737"/>
<circle cx="16.1359" cy="16.1359" r="15.1422" transform="matrix(-0.746009 0.665936 0.665936 0.746009 257.578 676.486)" fill="#A22E0B" stroke="#BE3A0D" stroke-width="1.98737"/>
<circle cx="38.5307" cy="38.5307" r="37.537" transform="matrix(-0.746009 0.665936 0.665936 0.746009 306.422 639.714)" fill="#A22E0B" stroke="#BE3A0D" stroke-width="1.98737"/>
<circle cx="30.9468" cy="30.9468" r="29.9532" transform="matrix(-0.746009 0.665936 0.665936 0.746009 305.812 650.422)" fill="#A22E0B" stroke="#BE3A0D" stroke-width="1.98737"/>
<circle cx="23.3842" cy="23.3842" r="22.3905" transform="matrix(-0.746009 0.665936 0.665936 0.746009 305.207 661.101)" fill="#A22E0B" stroke="#BE3A0D" stroke-width="1.98737"/>
<circle cx="16.1359" cy="16.1359" r="15.1422" transform="matrix(-0.746009 0.665936 0.665936 0.746009 304.629 671.334)" fill="#A22E0B" stroke="#BE3A0D" stroke-width="1.98737"/>
<circle cx="38.5307" cy="38.5307" r="37.537" transform="matrix(-0.746009 0.665936 0.665936 0.746009 248.934 691.031)" fill="#A22E0B" stroke="#BE3A0D" stroke-width="1.98737"/>
<circle cx="30.9468" cy="30.9468" r="29.9532" transform="matrix(-0.746009 0.665936 0.665936 0.746009 248.324 701.74)" fill="#A22E0B" stroke="#BE3A0D" stroke-width="1.98737"/>
<circle cx="23.3842" cy="23.3842" r="22.3905" transform="matrix(-0.746009 0.665936 0.665936 0.746009 247.719 712.418)" fill="#A22E0B" stroke="#BE3A0D" stroke-width="1.98737"/>
<circle cx="16.1359" cy="16.1359" r="15.1422" transform="matrix(-0.746009 0.665936 0.665936 0.746009 247.141 722.651)" fill="#A22E0B" stroke="#BE3A0D" stroke-width="1.98737"/>
<circle cx="38.5307" cy="38.5307" r="37.537" transform="matrix(-0.746009 0.665936 0.665936 0.746009 363.91 588.396)" fill="#A22E0B" stroke="#BE3A0D" stroke-width="1.98737"/>
<circle cx="30.9468" cy="30.9468" r="29.9532" transform="matrix(-0.746009 0.665936 0.665936 0.746009 363.301 599.104)" fill="#A22E0B" stroke="#BE3A0D" stroke-width="1.98737"/>
<circle cx="23.3842" cy="23.3842" r="22.3905" transform="matrix(-0.746009 0.665936 0.665936 0.746009 362.695 609.781)" fill="#A22E0B" stroke="#BE3A0D" stroke-width="1.98737"/>
<circle cx="16.1359" cy="16.1359" r="15.1422" transform="matrix(-0.746009 0.665936 0.665936 0.746009 362.117 620.016)" fill="#A22E0B" stroke="#BE3A0D" stroke-width="1.98737"/>
<circle cx="38.5307" cy="38.5307" r="37.537" transform="matrix(-0.746009 0.665936 0.665936 0.746009 191.457 742.336)" fill="#A22E0B" stroke="#BE3A0D" stroke-width="1.98737"/>
<circle cx="38.5307" cy="38.5307" r="37.537" transform="matrix(-0.746009 0.665936 0.665936 0.746009 421.391 537.083)" fill="#A22E0B" stroke="#BE3A0D" stroke-width="1.98737"/>
<circle cx="30.9468" cy="30.9468" r="29.9532" transform="matrix(-0.746009 0.665936 0.665936 0.746009 420.781 547.792)" fill="#A22E0B" stroke="#BE3A0D" stroke-width="1.98737"/>
<circle cx="23.3842" cy="23.3842" r="22.3905" transform="matrix(-0.746009 0.665936 0.665936 0.746009 420.176 558.47)" fill="#A22E0B" stroke="#BE3A0D" stroke-width="1.98737"/>
<circle cx="16.1359" cy="16.1359" r="15.1422" transform="matrix(-0.746009 0.665936 0.665936 0.746009 419.598 568.703)" fill="#A22E0B" stroke="#BE3A0D" stroke-width="1.98737"/>
<circle cx="38.5307" cy="38.5307" r="37.537" transform="matrix(-0.746009 0.665936 0.665936 0.746009 351.676 632.551)" fill="#A22E0B" stroke="#BE3A0D" stroke-width="1.98737"/>
<circle cx="30.9468" cy="30.9468" r="29.9532" transform="matrix(-0.746009 0.665936 0.665936 0.746009 351.066 643.259)" fill="#A22E0B" stroke="#BE3A0D" stroke-width="1.98737"/>
<circle cx="23.3842" cy="23.3842" r="22.3905" transform="matrix(-0.746009 0.665936 0.665936 0.746009 350.461 653.938)" fill="#A22E0B" stroke="#BE3A0D" stroke-width="1.98737"/>
<circle cx="16.1359" cy="16.1359" r="15.1422" transform="matrix(-0.746009 0.665936 0.665936 0.746009 349.879 664.172)" fill="#A22E0B" stroke="#BE3A0D" stroke-width="1.98737"/>
<circle cx="38.5307" cy="38.5307" r="37.537" transform="matrix(-0.746009 0.665936 0.665936 0.746009 409.156 581.238)" fill="#A22E0B" stroke="#BE3A0D" stroke-width="1.98737"/>
<circle cx="30.9468" cy="30.9468" r="29.9532" transform="matrix(-0.746009 0.665936 0.665936 0.746009 408.551 591.945)" fill="#A22E0B" stroke="#BE3A0D" stroke-width="1.98737"/>
<circle cx="23.3842" cy="23.3842" r="22.3905" transform="matrix(-0.746009 0.665936 0.665936 0.746009 407.945 602.623)" fill="#A22E0B" stroke="#BE3A0D" stroke-width="1.98737"/>
<circle cx="16.1359" cy="16.1359" r="15.1422" transform="matrix(-0.746009 0.665936 0.665936 0.746009 407.363 612.858)" fill="#A22E0B" stroke="#BE3A0D" stroke-width="1.98737"/>
<circle cx="38.5307" cy="38.5307" r="37.537" transform="matrix(-0.746009 0.665936 0.665936 0.746009 466.652 529.915)" fill="#A22E0B" stroke="#BE3A0D" stroke-width="1.98737"/>
<circle cx="30.9468" cy="30.9468" r="29.9532" transform="matrix(-0.746009 0.665936 0.665936 0.746009 466.047 540.623)" fill="#A22E0B" stroke="#BE3A0D" stroke-width="1.98737"/>
<circle cx="23.3842" cy="23.3842" r="22.3905" transform="matrix(-0.746009 0.665936 0.665936 0.746009 465.438 551.302)" fill="#A22E0B" stroke="#BE3A0D" stroke-width="1.98737"/>
<circle cx="16.1359" cy="16.1359" r="15.1422" transform="matrix(-0.746009 0.665936 0.665936 0.746009 464.859 561.535)" fill="#A22E0B" stroke="#BE3A0D" stroke-width="1.98737"/>
<circle cx="38.5307" cy="38.5307" r="37.537" transform="matrix(-0.746009 0.665936 0.665936 0.746009 294.188 683.868)" fill="#A22E0B" stroke="#BE3A0D" stroke-width="1.98737"/>
<circle cx="30.9468" cy="30.9468" r="29.9532" transform="matrix(-0.746009 0.665936 0.665936 0.746009 293.578 694.578)" fill="#A22E0B" stroke="#BE3A0D" stroke-width="1.98737"/>
<circle cx="23.3842" cy="23.3842" r="22.3905" transform="matrix(-0.746009 0.665936 0.665936 0.746009 292.973 705.255)" fill="#A22E0B" stroke="#BE3A0D" stroke-width="1.98737"/>
<circle cx="16.1359" cy="16.1359" r="15.1422" transform="matrix(-0.746009 0.665936 0.665936 0.746009 292.395 715.488)" fill="#A22E0B" stroke="#BE3A0D" stroke-width="1.98737"/>
<circle cx="38.5307" cy="38.5307" r="37.537" transform="matrix(-0.746009 0.665936 0.665936 0.746009 236.707 735.182)" fill="#A22E0B" stroke="#BE3A0D" stroke-width="1.98737"/>
<circle cx="38.5307" cy="38.5307" r="37.537" transform="matrix(-0.746009 0.665936 0.665936 0.746009 339.43 676.699)" fill="#A22E0B" stroke="#BE3A0D" stroke-width="1.98737"/>
<circle cx="30.9468" cy="30.9468" r="29.9532" transform="matrix(-0.746009 0.665936 0.665936 0.746009 338.824 687.405)" fill="#A22E0B" stroke="#BE3A0D" stroke-width="1.98737"/>
<circle cx="23.3842" cy="23.3842" r="22.3905" transform="matrix(-0.746009 0.665936 0.665936 0.746009 338.219 698.083)" fill="#A22E0B" stroke="#BE3A0D" stroke-width="1.98737"/>
<circle cx="16.1359" cy="16.1359" r="15.1422" transform="matrix(-0.746009 0.665936 0.665936 0.746009 337.637 708.318)" fill="#A22E0B" stroke="#BE3A0D" stroke-width="1.98737"/>
<circle cx="38.5307" cy="38.5307" r="37.537" transform="matrix(-0.746009 0.665936 0.665936 0.746009 396.914 625.386)" fill="#A22E0B" stroke="#BE3A0D" stroke-width="1.98737"/>
<circle cx="30.9468" cy="30.9468" r="29.9532" transform="matrix(-0.746009 0.665936 0.665936 0.746009 396.309 636.092)" fill="#A22E0B" stroke="#BE3A0D" stroke-width="1.98737"/>
<circle cx="23.3842" cy="23.3842" r="22.3905" transform="matrix(-0.746009 0.665936 0.665936 0.746009 395.703 646.77)" fill="#A22E0B" stroke="#BE3A0D" stroke-width="1.98737"/>
<circle cx="16.1359" cy="16.1359" r="15.1422" transform="matrix(-0.746009 0.665936 0.665936 0.746009 395.121 657.005)" fill="#A22E0B" stroke="#BE3A0D" stroke-width="1.98737"/>
<circle cx="38.5307" cy="38.5307" r="37.537" transform="matrix(-0.746009 0.665936 0.665936 0.746009 454.406 574.066)" fill="#A22E0B" stroke="#BE3A0D" stroke-width="1.98737"/>
<circle cx="30.9468" cy="30.9468" r="29.9532" transform="matrix(-0.746009 0.665936 0.665936 0.746009 453.797 584.775)" fill="#A22E0B" stroke="#BE3A0D" stroke-width="1.98737"/>
<circle cx="23.3842" cy="23.3842" r="22.3905" transform="matrix(-0.746009 0.665936 0.665936 0.746009 453.195 595.45)" fill="#A22E0B" stroke="#BE3A0D" stroke-width="1.98737"/>
<circle cx="16.1359" cy="16.1359" r="15.1422" transform="matrix(-0.746009 0.665936 0.665936 0.746009 452.613 605.687)" fill="#A22E0B" stroke="#BE3A0D" stroke-width="1.98737"/>
<circle cx="38.5307" cy="38.5307" r="37.537" transform="matrix(-0.746009 0.665936 0.665936 0.746009 281.949 728.009)" fill="#A22E0B" stroke="#BE3A0D" stroke-width="1.98737"/>
<circle cx="30.9468" cy="30.9468" r="29.9532" transform="matrix(-0.746009 0.665936 0.665936 0.746009 281.34 738.718)" fill="#A22E0B" stroke="#BE3A0D" stroke-width="1.98737"/>
<circle cx="38.5307" cy="38.5307" r="37.537" transform="matrix(-0.746009 0.665936 0.665936 0.746009 383.109 667.729)" fill="#A22E0B" stroke="#BE3A0D" stroke-width="1.98737"/>
<circle cx="30.9468" cy="30.9468" r="29.9532" transform="matrix(-0.746009 0.665936 0.665936 0.746009 382.5 678.438)" fill="#A22E0B" stroke="#BE3A0D" stroke-width="1.98737"/>
<circle cx="23.3842" cy="23.3842" r="22.3905" transform="matrix(-0.746009 0.665936 0.665936 0.746009 381.895 689.115)" fill="#A22E0B" stroke="#BE3A0D" stroke-width="1.98737"/>
<circle cx="16.1359" cy="16.1359" r="15.1422" transform="matrix(-0.746009 0.665936 0.665936 0.746009 381.316 699.349)" fill="#A22E0B" stroke="#BE3A0D" stroke-width="1.98737"/>
<circle cx="38.5307" cy="38.5307" r="37.537" transform="matrix(-0.746009 0.665936 0.665936 0.746009 440.594 616.416)" fill="#A22E0B" stroke="#BE3A0D" stroke-width="1.98737"/>
<circle cx="30.9468" cy="30.9468" r="29.9532" transform="matrix(-0.746009 0.665936 0.665936 0.746009 439.984 627.124)" fill="#A22E0B" stroke="#BE3A0D" stroke-width="1.98737"/>
<circle cx="23.3842" cy="23.3842" r="22.3905" transform="matrix(-0.746009 0.665936 0.665936 0.746009 439.383 637.802)" fill="#A22E0B" stroke="#BE3A0D" stroke-width="1.98737"/>
<circle cx="16.1359" cy="16.1359" r="15.1422" transform="matrix(-0.746009 0.665936 0.665936 0.746009 438.801 648.035)" fill="#A22E0B" stroke="#BE3A0D" stroke-width="1.98737"/>
<circle cx="38.5307" cy="38.5307" r="37.537" transform="matrix(-0.746009 0.665936 0.665936 0.746009 498.082 565.096)" fill="#A22E0B" stroke="#BE3A0D" stroke-width="1.98737"/>
<circle cx="30.9468" cy="30.9468" r="29.9532" transform="matrix(-0.746009 0.665936 0.665936 0.746009 497.473 575.805)" fill="#A22E0B" stroke="#BE3A0D" stroke-width="1.98737"/>
<circle cx="23.3842" cy="23.3842" r="22.3905" transform="matrix(-0.746009 0.665936 0.665936 0.746009 496.867 586.481)" fill="#A22E0B" stroke="#BE3A0D" stroke-width="1.98737"/>
<circle cx="16.1359" cy="16.1359" r="15.1422" transform="matrix(-0.746009 0.665936 0.665936 0.746009 496.289 596.716)" fill="#A22E0B" stroke="#BE3A0D" stroke-width="1.98737"/>
<circle cx="38.5307" cy="38.5307" r="37.537" transform="matrix(-0.746009 0.665936 0.665936 0.746009 325.617 719.048)" fill="#A22E0B" stroke="#BE3A0D" stroke-width="1.98737"/>
<circle cx="30.9468" cy="30.9468" r="29.9532" transform="matrix(-0.746009 0.665936 0.665936 0.746009 325.008 729.757)" fill="#A22E0B" stroke="#BE3A0D" stroke-width="1.98737"/>
<circle cx="23.3842" cy="23.3842" r="22.3905" transform="matrix(-0.746009 0.665936 0.665936 0.746009 324.406 740.434)" fill="#A22E0B" stroke="#BE3A0D" stroke-width="1.98737"/>
<circle cx="38.5307" cy="38.5307" r="37.537" transform="matrix(-0.746009 0.665936 0.665936 0.746009 372.668 713.896)" fill="#A22E0B" stroke="#BE3A0D" stroke-width="1.98737"/>
<circle cx="30.9468" cy="30.9468" r="29.9532" transform="matrix(-0.746009 0.665936 0.665936 0.746009 372.059 724.604)" fill="#A22E0B" stroke="#BE3A0D" stroke-width="1.98737"/>
<circle cx="23.3842" cy="23.3842" r="22.3905" transform="matrix(-0.746009 0.665936 0.665936 0.746009 371.457 735.282)" fill="#A22E0B" stroke="#BE3A0D" stroke-width="1.98737"/>
<circle cx="38.5307" cy="38.5307" r="37.537" transform="matrix(-0.746009 0.665936 0.665936 0.746009 430.156 662.578)" fill="#A22E0B" stroke="#BE3A0D" stroke-width="1.98737"/>
<circle cx="30.9468" cy="30.9468" r="29.9532" transform="matrix(-0.746009 0.665936 0.665936 0.746009 429.547 673.286)" fill="#A22E0B" stroke="#BE3A0D" stroke-width="1.98737"/>
<circle cx="23.3842" cy="23.3842" r="22.3905" transform="matrix(-0.746009 0.665936 0.665936 0.746009 428.941 683.965)" fill="#A22E0B" stroke="#BE3A0D" stroke-width="1.98737"/>
<circle cx="16.1359" cy="16.1359" r="15.1422" transform="matrix(-0.746009 0.665936 0.665936 0.746009 428.363 694.198)" fill="#A22E0B" stroke="#BE3A0D" stroke-width="1.98737"/>
<circle cx="38.5307" cy="38.5307" r="37.537" transform="matrix(-0.746009 0.665936 0.665936 0.746009 487.645 611.259)" fill="#A22E0B" stroke="#BE3A0D" stroke-width="1.98737"/>
<circle cx="30.9468" cy="30.9468" r="29.9532" transform="matrix(-0.746009 0.665936 0.665936 0.746009 487.035 621.968)" fill="#A22E0B" stroke="#BE3A0D" stroke-width="1.98737"/>
<circle cx="23.3842" cy="23.3842" r="22.3905" transform="matrix(-0.746009 0.665936 0.665936 0.746009 486.43 632.646)" fill="#A22E0B" stroke="#BE3A0D" stroke-width="1.98737"/>
<circle cx="16.1359" cy="16.1359" r="15.1422" transform="matrix(-0.746009 0.665936 0.665936 0.746009 485.852 642.879)" fill="#A22E0B" stroke="#BE3A0D" stroke-width="1.98737"/>
<circle cx="38.5307" cy="38.5307" r="37.537" transform="matrix(-0.746009 0.665936 0.665936 0.746009 417.922 706.732)" fill="#A22E0B" stroke="#BE3A0D" stroke-width="1.98737"/>
<circle cx="30.9468" cy="30.9468" r="29.9532" transform="matrix(-0.746009 0.665936 0.665936 0.746009 417.316 717.44)" fill="#A22E0B" stroke="#BE3A0D" stroke-width="1.98737"/>
<circle cx="23.3842" cy="23.3842" r="22.3905" transform="matrix(-0.746009 0.665936 0.665936 0.746009 416.711 728.117)" fill="#A22E0B" stroke="#BE3A0D" stroke-width="1.98737"/>
<circle cx="16.1359" cy="16.1359" r="15.1422" transform="matrix(-0.746009 0.665936 0.665936 0.746009 416.129 738.353)" fill="#A22E0B" stroke="#BE3A0D" stroke-width="1.98737"/>
<circle cx="38.5307" cy="38.5307" r="37.537" transform="matrix(-0.746009 0.665936 0.665936 0.746009 470.395 649.798)" fill="#A22E0B" stroke="#BE3A0D" stroke-width="1.98737"/>
<circle cx="30.9468" cy="30.9468" r="29.9532" transform="matrix(-0.746009 0.665936 0.665936 0.746009 469.785 660.506)" fill="#A22E0B" stroke="#BE3A0D" stroke-width="1.98737"/>
<circle cx="23.3842" cy="23.3842" r="22.3905" transform="matrix(-0.746009 0.665936 0.665936 0.746009 469.18 671.184)" fill="#A22E0B" stroke="#BE3A0D" stroke-width="1.98737"/>
<circle cx="16.1359" cy="16.1359" r="15.1422" transform="matrix(-0.746009 0.665936 0.665936 0.746009 468.602 681.418)" fill="#A22E0B" stroke="#BE3A0D" stroke-width="1.98737"/>
<circle cx="38.5307" cy="38.5307" r="37.537" transform="matrix(-0.746009 0.665936 0.665936 0.746009 528.77 599.465)" fill="#A22E0B" stroke="#BE3A0D" stroke-width="1.98737"/>
<circle cx="30.9468" cy="30.9468" r="29.9532" transform="matrix(-0.746009 0.665936 0.665936 0.746009 528.16 610.173)" fill="#A22E0B" stroke="#BE3A0D" stroke-width="1.98737"/>
<circle cx="23.3842" cy="23.3842" r="22.3905" transform="matrix(-0.746009 0.665936 0.665936 0.746009 527.555 620.852)" fill="#A22E0B" stroke="#BE3A0D" stroke-width="1.98737"/>
<circle cx="16.1359" cy="16.1359" r="15.1422" transform="matrix(-0.746009 0.665936 0.665936 0.746009 526.977 631.085)" fill="#A22E0B" stroke="#BE3A0D" stroke-width="1.98737"/>
<circle cx="38.5307" cy="38.5307" r="37.537" transform="matrix(-0.746009 0.665936 0.665936 0.746009 517.238 644.414)" fill="#A22E0B" stroke="#BE3A0D" stroke-width="1.98737"/>
<circle cx="30.9468" cy="30.9468" r="29.9532" transform="matrix(-0.746009 0.665936 0.665936 0.746009 516.633 655.121)" fill="#A22E0B" stroke="#BE3A0D" stroke-width="1.98737"/>
<circle cx="23.3842" cy="23.3842" r="22.3905" transform="matrix(-0.746009 0.665936 0.665936 0.746009 516.027 665.8)" fill="#A22E0B" stroke="#BE3A0D" stroke-width="1.98737"/>
<circle cx="16.1359" cy="16.1359" r="15.1422" transform="matrix(-0.746009 0.665936 0.665936 0.746009 515.445 676.033)" fill="#A22E0B" stroke="#BE3A0D" stroke-width="1.98737"/>
<circle cx="38.5307" cy="38.5307" r="37.537" transform="matrix(-0.746009 0.665936 0.665936 0.746009 459.75 695.732)" fill="#A22E0B" stroke="#BE3A0D" stroke-width="1.98737"/>
<circle cx="30.9468" cy="30.9468" r="29.9532" transform="matrix(-0.746009 0.665936 0.665936 0.746009 459.141 706.44)" fill="#A22E0B" stroke="#BE3A0D" stroke-width="1.98737"/>
<circle cx="23.3842" cy="23.3842" r="22.3905" transform="matrix(-0.746009 0.665936 0.665936 0.746009 458.535 717.119)" fill="#A22E0B" stroke="#BE3A0D" stroke-width="1.98737"/>
<circle cx="16.1359" cy="16.1359" r="15.1422" transform="matrix(-0.746009 0.665936 0.665936 0.746009 457.957 727.353)" fill="#A22E0B" stroke="#BE3A0D" stroke-width="1.98737"/>
<circle cx="38.5307" cy="38.5307" r="37.537" transform="matrix(-0.746009 0.665936 0.665936 0.746009 506.801 690.58)" fill="#A22E0B" stroke="#BE3A0D" stroke-width="1.98737"/>
<circle cx="30.9468" cy="30.9468" r="29.9532" transform="matrix(-0.746009 0.665936 0.665936 0.746009 506.191 701.287)" fill="#A22E0B" stroke="#BE3A0D" stroke-width="1.98737"/>
<circle cx="23.3842" cy="23.3842" r="22.3905" transform="matrix(-0.746009 0.665936 0.665936 0.746009 505.59 711.965)" fill="#A22E0B" stroke="#BE3A0D" stroke-width="1.98737"/>
<circle cx="16.1359" cy="16.1359" r="15.1422" transform="matrix(-0.746009 0.665936 0.665936 0.746009 505.008 722.2)" fill="#A22E0B" stroke="#BE3A0D" stroke-width="1.98737"/>
<circle cx="38.5307" cy="38.5307" r="37.537" transform="matrix(-0.746009 0.665936 0.665936 0.746009 449.312 741.898)" fill="#A22E0B" stroke="#BE3A0D" stroke-width="1.98737"/>
<circle cx="38.5307" cy="38.5307" r="37.537" transform="matrix(-0.746009 0.665936 0.665936 0.746009 564.289 639.263)" fill="#A22E0B" stroke="#BE3A0D" stroke-width="1.98737"/>
<circle cx="30.9468" cy="30.9468" r="29.9532" transform="matrix(-0.746009 0.665936 0.665936 0.746009 563.68 649.971)" fill="#A22E0B" stroke="#BE3A0D" stroke-width="1.98737"/>
<circle cx="23.3842" cy="23.3842" r="22.3905" transform="matrix(-0.746009 0.665936 0.665936 0.746009 563.074 660.648)" fill="#A22E0B" stroke="#BE3A0D" stroke-width="1.98737"/>
<circle cx="16.1359" cy="16.1359" r="15.1422" transform="matrix(-0.746009 0.665936 0.665936 0.746009 562.496 670.882)" fill="#A22E0B" stroke="#BE3A0D" stroke-width="1.98737"/>
<circle cx="38.5307" cy="38.5307" r="37.537" transform="matrix(-0.746009 0.665936 0.665936 0.746009 552.055 683.417)" fill="#A22E0B" stroke="#BE3A0D" stroke-width="1.98737"/>
<circle cx="30.9468" cy="30.9468" r="29.9532" transform="matrix(-0.746009 0.665936 0.665936 0.746009 551.445 694.125)" fill="#A22E0B" stroke="#BE3A0D" stroke-width="1.98737"/>
<circle cx="23.3842" cy="23.3842" r="22.3905" transform="matrix(-0.746009 0.665936 0.665936 0.746009 550.84 704.802)" fill="#A22E0B" stroke="#BE3A0D" stroke-width="1.98737"/>
<circle cx="16.1359" cy="16.1359" r="15.1422" transform="matrix(-0.746009 0.665936 0.665936 0.746009 550.262 715.036)" fill="#A22E0B" stroke="#BE3A0D" stroke-width="1.98737"/>
<circle cx="38.5307" cy="38.5307" r="37.537" transform="matrix(-0.746009 0.665936 0.665936 0.746009 494.566 734.734)" fill="#A22E0B" stroke="#BE3A0D" stroke-width="1.98737"/>
<circle cx="38.5307" cy="38.5307" r="37.537" transform="matrix(-0.746009 0.665936 0.665936 0.746009 539.812 727.562)" fill="#A22E0B" stroke="#BE3A0D" stroke-width="1.98737"/>
<circle cx="30.9468" cy="30.9468" r="29.9532" transform="matrix(-0.746009 0.665936 0.665936 0.746009 539.203 738.271)" fill="#A22E0B" stroke="#BE3A0D" stroke-width="1.98737"/>
<circle cx="38.5307" cy="38.5307" r="37.537" transform="matrix(-0.746009 0.665936 0.665936 0.746009 597.301 676.247)" fill="#A22E0B" stroke="#BE3A0D" stroke-width="1.98737"/>
<circle cx="30.9468" cy="30.9468" r="29.9532" transform="matrix(-0.746009 0.665936 0.665936 0.746009 596.691 686.955)" fill="#A22E0B" stroke="#BE3A0D" stroke-width="1.98737"/>
<circle cx="23.3842" cy="23.3842" r="22.3905" transform="matrix(-0.746009 0.665936 0.665936 0.746009 596.09 697.631)" fill="#A22E0B" stroke="#BE3A0D" stroke-width="1.98737"/>
<circle cx="16.1359" cy="16.1359" r="15.1422" transform="matrix(-0.746009 0.665936 0.665936 0.746009 595.508 707.867)" fill="#A22E0B" stroke="#BE3A0D" stroke-width="1.98737"/>
<circle cx="38.5307" cy="38.5307" r="37.537" transform="matrix(-0.746009 0.665936 0.665936 0.746009 586.863 722.413)" fill="#A22E0B" stroke="#BE3A0D" stroke-width="1.98737"/>
<circle cx="30.9468" cy="30.9468" r="29.9532" transform="matrix(-0.746009 0.665936 0.665936 0.746009 586.254 733.121)" fill="#A22E0B" stroke="#BE3A0D" stroke-width="1.98737"/>
<circle cx="38.5307" cy="38.5307" r="37.537" transform="matrix(-0.746009 0.665936 0.665936 0.746009 632.125 715.243)" fill="#A22E0B" stroke="#BE3A0D" stroke-width="1.98737"/>
<circle cx="30.9468" cy="30.9468" r="29.9532" transform="matrix(-0.746009 0.665936 0.665936 0.746009 631.516 725.951)" fill="#A22E0B" stroke="#BE3A0D" stroke-width="1.98737"/>
<circle cx="23.3842" cy="23.3842" r="22.3905" transform="matrix(-0.746009 0.665936 0.665936 0.746009 630.91 736.63)" fill="#A22E0B" stroke="#BE3A0D" stroke-width="1.98737"/>
</g>
</g>
</g>
<defs>
<linearGradient id="paint0_linear_1083_12184" x1="448.87" y1="-6.7312e-07" x2="457.323" y2="539.733" gradientUnits="userSpaceOnUse">
<stop stop-color="#D9D9D9"/>
<stop offset="1" stop-color="#737373" stop-opacity="0"/>
</linearGradient>
<clipPath id="clip0_1083_12184">
<rect width="699" height="743" fill="white" transform="translate(0.949219)"/>
</clipPath>
<clipPath id="clip1_1083_12184">
<rect width="699" height="743" fill="white" transform="translate(0.949219 36)"/>
</clipPath>
</defs>
</svg>
