<svg width="700" height="743" viewBox="0 0 700 743" fill="none" xmlns="http://www.w3.org/2000/svg">
<g clip-path="url(#clip0_1117_22482)">
<mask id="mask0_1117_22482" style="mask-type:alpha" maskUnits="userSpaceOnUse" x="22" y="-22" width="1118" height="1100">
<rect x="-0.0261208" y="0.460596" width="897.087" height="671.348" transform="matrix(-0.746009 0.665936 0.665936 0.746009 691.843 -21.8656)" fill="url(#paint0_linear_1117_22482)" stroke="#B12C2E" stroke-width="0.652427"/>
</mask>
<g mask="url(#mask0_1117_22482)">
<circle cx="38.5307" cy="38.5307" r="37.537" transform="matrix(-0.746009 0.665936 0.665936 0.746009 649.535 120.427)" fill="#04141C" stroke="#0D2937" stroke-width="1.98737"/>
<circle cx="30.9468" cy="30.9468" r="29.9532" transform="matrix(-0.746009 0.665936 0.665936 0.746009 648.926 131.135)" fill="#04141C" stroke="#0D2937" stroke-width="1.98737"/>
<circle cx="23.3842" cy="23.3842" r="22.3905" transform="matrix(-0.746009 0.665936 0.665936 0.746009 648.32 141.813)" fill="#04141C" stroke="#0D2937" stroke-width="1.98737"/>
<circle cx="16.1359" cy="16.1359" r="15.1422" transform="matrix(-0.746009 0.665936 0.665936 0.746009 647.742 152.047)" fill="#04141C" stroke="#0D2937" stroke-width="1.98737"/>
<circle cx="38.5307" cy="38.5307" r="37.537" transform="matrix(-0.746009 0.665936 0.665936 0.746009 707.906 70.0967)" fill="#04141C" stroke="#0D2937" stroke-width="1.98737"/>
<circle cx="30.9468" cy="30.9468" r="29.9532" transform="matrix(-0.746009 0.665936 0.665936 0.746009 707.297 80.8037)" fill="#04141C" stroke="#0D2937" stroke-width="1.98737"/>
<circle cx="23.3842" cy="23.3842" r="22.3905" transform="matrix(-0.746009 0.665936 0.665936 0.746009 706.691 91.4824)" fill="#04141C" stroke="#0D2937" stroke-width="1.98737"/>
<circle cx="16.1359" cy="16.1359" r="15.1422" transform="matrix(-0.746009 0.665936 0.665936 0.746009 706.113 101.716)" fill="#04141C" stroke="#0D2937" stroke-width="1.98737"/>
<circle cx="38.5307" cy="38.5307" r="37.537" transform="matrix(-0.746009 0.665936 0.665936 0.746009 696.379 115.043)" fill="#04141C" stroke="#0D2937" stroke-width="1.98737"/>
<circle cx="30.9468" cy="30.9468" r="29.9532" transform="matrix(-0.746009 0.665936 0.665936 0.746009 695.77 125.751)" fill="#04141C" stroke="#0D2937" stroke-width="1.98737"/>
<circle cx="23.3842" cy="23.3842" r="22.3905" transform="matrix(-0.746009 0.665936 0.665936 0.746009 695.164 136.43)" fill="#04141C" stroke="#0D2937" stroke-width="1.98737"/>
<circle cx="16.1359" cy="16.1359" r="15.1422" transform="matrix(-0.746009 0.665936 0.665936 0.746009 694.586 146.663)" fill="#04141C" stroke="#0D2937" stroke-width="1.98737"/>
<circle cx="38.5307" cy="38.5307" r="37.537" transform="matrix(-0.746009 0.665936 0.665936 0.746009 638.891 166.359)" fill="#04141C" stroke="#0D2937" stroke-width="1.98737"/>
<circle cx="30.9468" cy="30.9468" r="29.9532" transform="matrix(-0.746009 0.665936 0.665936 0.746009 638.281 177.069)" fill="#04141C" stroke="#0D2937" stroke-width="1.98737"/>
<circle cx="23.3842" cy="23.3842" r="22.3905" transform="matrix(-0.746009 0.665936 0.665936 0.746009 637.676 187.748)" fill="#04141C" stroke="#0D2937" stroke-width="1.98737"/>
<circle cx="16.1359" cy="16.1359" r="15.1422" transform="matrix(-0.746009 0.665936 0.665936 0.746009 637.094 197.982)" fill="#04141C" stroke="#0D2937" stroke-width="1.98737"/>
<circle cx="38.5307" cy="38.5307" r="37.537" transform="matrix(-0.746009 0.665936 0.665936 0.746009 685.941 161.208)" fill="#04141C" stroke="#0D2937" stroke-width="1.98737"/>
<circle cx="30.9468" cy="30.9468" r="29.9532" transform="matrix(-0.746009 0.665936 0.665936 0.746009 685.332 171.918)" fill="#04141C" stroke="#0D2937" stroke-width="1.98737"/>
<circle cx="23.3842" cy="23.3842" r="22.3905" transform="matrix(-0.746009 0.665936 0.665936 0.746009 684.727 182.596)" fill="#04141C" stroke="#0D2937" stroke-width="1.98737"/>
<circle cx="16.1359" cy="16.1359" r="15.1422" transform="matrix(-0.746009 0.665936 0.665936 0.746009 684.148 192.828)" fill="#04141C" stroke="#0D2937" stroke-width="1.98737"/>
<circle cx="38.5307" cy="38.5307" r="37.537" transform="matrix(-0.746009 0.665936 0.665936 0.746009 628.453 212.525)" fill="#04141C" stroke="#0D2937" stroke-width="1.98737"/>
<circle cx="30.9468" cy="30.9468" r="29.9532" transform="matrix(-0.746009 0.665936 0.665936 0.746009 627.844 223.234)" fill="#04141C" stroke="#0D2937" stroke-width="1.98737"/>
<circle cx="23.3842" cy="23.3842" r="22.3905" transform="matrix(-0.746009 0.665936 0.665936 0.746009 627.238 233.912)" fill="#04141C" stroke="#0D2937" stroke-width="1.98737"/>
<circle cx="16.1359" cy="16.1359" r="15.1422" transform="matrix(-0.746009 0.665936 0.665936 0.746009 626.66 244.146)" fill="#04141C" stroke="#0D2937" stroke-width="1.98737"/>
<circle cx="38.5307" cy="38.5307" r="37.537" transform="matrix(-0.746009 0.665936 0.665936 0.746009 743.43 109.891)" fill="#04141C" stroke="#0D2937" stroke-width="1.98737"/>
<circle cx="30.9468" cy="30.9468" r="29.9532" transform="matrix(-0.746009 0.665936 0.665936 0.746009 742.82 120.598)" fill="#04141C" stroke="#0D2937" stroke-width="1.98737"/>
<circle cx="38.5307" cy="38.5307" r="37.537" transform="matrix(-0.746009 0.665936 0.665936 0.746009 731.195 154.048)" fill="#04141C" stroke="#0D2937" stroke-width="1.98737"/>
<circle cx="30.9468" cy="30.9468" r="29.9532" transform="matrix(-0.746009 0.665936 0.665936 0.746009 730.59 164.754)" fill="#04141C" stroke="#0D2937" stroke-width="1.98737"/>
<circle cx="23.3842" cy="23.3842" r="22.3905" transform="matrix(-0.746009 0.665936 0.665936 0.746009 729.984 175.432)" fill="#04141C" stroke="#0D2937" stroke-width="1.98737"/>
<circle cx="38.5307" cy="38.5307" r="37.537" transform="matrix(-0.746009 0.665936 0.665936 0.746009 673.707 205.362)" fill="#04141C" stroke="#0D2937" stroke-width="1.98737"/>
<circle cx="30.9468" cy="30.9468" r="29.9532" transform="matrix(-0.746009 0.665936 0.665936 0.746009 673.098 216.072)" fill="#04141C" stroke="#0D2937" stroke-width="1.98737"/>
<circle cx="23.3842" cy="23.3842" r="22.3905" transform="matrix(-0.746009 0.665936 0.665936 0.746009 672.492 226.749)" fill="#04141C" stroke="#0D2937" stroke-width="1.98737"/>
<circle cx="16.1359" cy="16.1359" r="15.1422" transform="matrix(-0.746009 0.665936 0.665936 0.746009 671.91 236.984)" fill="#04141C" stroke="#0D2937" stroke-width="1.98737"/>
<circle cx="38.5307" cy="38.5307" r="37.537" transform="matrix(-0.746009 0.665936 0.665936 0.746009 718.953 198.192)" fill="#04141C" stroke="#0D2937" stroke-width="1.98737"/>
<circle cx="30.9468" cy="30.9468" r="29.9532" transform="matrix(-0.746009 0.665936 0.665936 0.746009 718.344 208.9)" fill="#04141C" stroke="#0D2937" stroke-width="1.98737"/>
<circle cx="23.3842" cy="23.3842" r="22.3905" transform="matrix(-0.746009 0.665936 0.665936 0.746009 717.742 219.577)" fill="#04141C" stroke="#0D2937" stroke-width="1.98737"/>
<circle cx="16.1359" cy="16.1359" r="15.1422" transform="matrix(-0.746009 0.665936 0.665936 0.746009 717.16 229.812)" fill="#04141C" stroke="#0D2937" stroke-width="1.98737"/>
<circle cx="38.5307" cy="38.5307" r="37.537" transform="matrix(-0.746009 0.665936 0.665936 0.746009 477.066 274.382)" fill="#04141C" stroke="#0D2937" stroke-width="1.98737"/>
<circle cx="30.9468" cy="30.9468" r="29.9532" transform="matrix(-0.746009 0.665936 0.665936 0.746009 476.457 285.09)" fill="#04141C" stroke="#0D2937" stroke-width="1.98737"/>
<circle cx="23.3842" cy="23.3842" r="22.3905" transform="matrix(-0.746009 0.665936 0.665936 0.746009 475.852 295.769)" fill="#04141C" stroke="#0D2937" stroke-width="1.98737"/>
<circle cx="16.1359" cy="16.1359" r="15.1422" transform="matrix(-0.746009 0.665936 0.665936 0.746009 475.273 306.002)" fill="#04141C" stroke="#0D2937" stroke-width="1.98737"/>
<circle cx="38.5307" cy="38.5307" r="37.537" transform="matrix(-0.746009 0.665936 0.665936 0.746009 419.578 325.699)" fill="#04141C" stroke="#0D2937" stroke-width="1.98737"/>
<circle cx="30.9468" cy="30.9468" r="29.9532" transform="matrix(-0.746009 0.665936 0.665936 0.746009 418.969 336.409)" fill="#04141C" stroke="#0D2937" stroke-width="1.98737"/>
<circle cx="23.3842" cy="23.3842" r="22.3905" transform="matrix(-0.746009 0.665936 0.665936 0.746009 418.363 347.086)" fill="#04141C" stroke="#0D2937" stroke-width="1.98737"/>
<circle cx="16.1359" cy="16.1359" r="15.1422" transform="matrix(-0.746009 0.665936 0.665936 0.746009 417.785 357.319)" fill="#04141C" stroke="#0D2937" stroke-width="1.98737"/>
<circle cx="38.5307" cy="38.5307" r="37.537" transform="matrix(-0.746009 0.665936 0.665936 0.746009 362.105 377.002)" fill="#04141C" stroke="#0D2937" stroke-width="1.98737"/>
<circle cx="30.9468" cy="30.9468" r="29.9532" transform="matrix(-0.746009 0.665936 0.665936 0.746009 361.5 387.709)" fill="#04141C" stroke="#0D2937" stroke-width="1.98737"/>
<circle cx="23.3842" cy="23.3842" r="22.3905" transform="matrix(-0.746009 0.665936 0.665936 0.746009 360.891 398.389)" fill="#04141C" stroke="#0D2937" stroke-width="1.98737"/>
<circle cx="16.1359" cy="16.1359" r="15.1422" transform="matrix(-0.746009 0.665936 0.665936 0.746009 360.312 408.622)" fill="#04141C" stroke="#0D2937" stroke-width="1.98737"/>
<circle cx="38.5307" cy="38.5307" r="37.537" transform="matrix(-0.746009 0.665936 0.665936 0.746009 523.914 268.996)" fill="#04141C" stroke="#0D2937" stroke-width="1.98737"/>
<circle cx="30.9468" cy="30.9468" r="29.9532" transform="matrix(-0.746009 0.665936 0.665936 0.746009 523.305 279.705)" fill="#04141C" stroke="#0D2937" stroke-width="1.98737"/>
<circle cx="23.3842" cy="23.3842" r="22.3905" transform="matrix(-0.746009 0.665936 0.665936 0.746009 522.699 290.383)" fill="#04141C" stroke="#0D2937" stroke-width="1.98737"/>
<circle cx="16.1359" cy="16.1359" r="15.1422" transform="matrix(-0.746009 0.665936 0.665936 0.746009 522.121 300.616)" fill="#04141C" stroke="#0D2937" stroke-width="1.98737"/>
<circle cx="38.5307" cy="38.5307" r="37.537" transform="matrix(-0.746009 0.665936 0.665936 0.746009 466.422 320.313)" fill="#04141C" stroke="#0D2937" stroke-width="1.98737"/>
<circle cx="30.9468" cy="30.9468" r="29.9532" transform="matrix(-0.746009 0.665936 0.665936 0.746009 465.812 331.022)" fill="#04141C" stroke="#0D2937" stroke-width="1.98737"/>
<circle cx="23.3842" cy="23.3842" r="22.3905" transform="matrix(-0.746009 0.665936 0.665936 0.746009 465.207 341.7)" fill="#04141C" stroke="#0D2937" stroke-width="1.98737"/>
<circle cx="16.1359" cy="16.1359" r="15.1422" transform="matrix(-0.746009 0.665936 0.665936 0.746009 464.629 351.934)" fill="#04141C" stroke="#0D2937" stroke-width="1.98737"/>
<circle cx="38.5307" cy="38.5307" r="37.537" transform="matrix(-0.746009 0.665936 0.665936 0.746009 408.934 371.634)" fill="#04141C" stroke="#0D2937" stroke-width="1.98737"/>
<circle cx="30.9468" cy="30.9468" r="29.9532" transform="matrix(-0.746009 0.665936 0.665936 0.746009 408.324 382.343)" fill="#04141C" stroke="#0D2937" stroke-width="1.98737"/>
<circle cx="23.3842" cy="23.3842" r="22.3905" transform="matrix(-0.746009 0.665936 0.665936 0.746009 407.719 393.021)" fill="#04141C" stroke="#0D2937" stroke-width="1.98737"/>
<circle cx="16.1359" cy="16.1359" r="15.1422" transform="matrix(-0.746009 0.665936 0.665936 0.746009 407.141 403.254)" fill="#04141C" stroke="#0D2937" stroke-width="1.98737"/>
<circle cx="38.5307" cy="38.5307" r="37.537" transform="matrix(-0.746009 0.665936 0.665936 0.746009 513.473 315.162)" fill="#04141C" stroke="#0D2937" stroke-width="1.98737"/>
<circle cx="30.9468" cy="30.9468" r="29.9532" transform="matrix(-0.746009 0.665936 0.665936 0.746009 512.863 325.871)" fill="#04141C" stroke="#0D2937" stroke-width="1.98737"/>
<circle cx="23.3842" cy="23.3842" r="22.3905" transform="matrix(-0.746009 0.665936 0.665936 0.746009 512.258 336.549)" fill="#04141C" stroke="#0D2937" stroke-width="1.98737"/>
<circle cx="16.1359" cy="16.1359" r="15.1422" transform="matrix(-0.746009 0.665936 0.665936 0.746009 511.68 346.782)" fill="#04141C" stroke="#0D2937" stroke-width="1.98737"/>
<circle cx="38.5307" cy="38.5307" r="37.537" transform="matrix(-0.746009 0.665936 0.665936 0.746009 455.984 366.482)" fill="#04141C" stroke="#0D2937" stroke-width="1.98737"/>
<circle cx="30.9468" cy="30.9468" r="29.9532" transform="matrix(-0.746009 0.665936 0.665936 0.746009 455.375 377.19)" fill="#04141C" stroke="#0D2937" stroke-width="1.98737"/>
<circle cx="23.3842" cy="23.3842" r="22.3905" transform="matrix(-0.746009 0.665936 0.665936 0.746009 454.773 387.868)" fill="#04141C" stroke="#0D2937" stroke-width="1.98737"/>
<circle cx="16.1359" cy="16.1359" r="15.1422" transform="matrix(-0.746009 0.665936 0.665936 0.746009 454.191 398.102)" fill="#04141C" stroke="#0D2937" stroke-width="1.98737"/>
<circle cx="38.5307" cy="38.5307" r="37.537" transform="matrix(-0.746009 0.665936 0.665936 0.746009 398.492 417.802)" fill="#04141C" stroke="#0D2937" stroke-width="1.98737"/>
<circle cx="30.9468" cy="30.9468" r="29.9532" transform="matrix(-0.746009 0.665936 0.665936 0.746009 397.887 428.507)" fill="#04141C" stroke="#0D2937" stroke-width="1.98737"/>
<circle cx="23.3842" cy="23.3842" r="22.3905" transform="matrix(-0.746009 0.665936 0.665936 0.746009 397.281 439.187)" fill="#04141C" stroke="#0D2937" stroke-width="1.98737"/>
<circle cx="16.1359" cy="16.1359" r="15.1422" transform="matrix(-0.746009 0.665936 0.665936 0.746009 396.699 449.421)" fill="#04141C" stroke="#0D2937" stroke-width="1.98737"/>
<circle cx="38.5307" cy="38.5307" r="37.537" transform="matrix(-0.746009 0.665936 0.665936 0.746009 570.961 263.846)" fill="#04141C" stroke="#0D2937" stroke-width="1.98737"/>
<circle cx="30.9468" cy="30.9468" r="29.9532" transform="matrix(-0.746009 0.665936 0.665936 0.746009 570.355 274.552)" fill="#04141C" stroke="#0D2937" stroke-width="1.98737"/>
<circle cx="23.3842" cy="23.3842" r="22.3905" transform="matrix(-0.746009 0.665936 0.665936 0.746009 569.75 285.231)" fill="#04141C" stroke="#0D2937" stroke-width="1.98737"/>
<circle cx="16.1359" cy="16.1359" r="15.1422" transform="matrix(-0.746009 0.665936 0.665936 0.746009 569.168 295.465)" fill="#04141C" stroke="#0D2937" stroke-width="1.98737"/>
<circle cx="38.5307" cy="38.5307" r="37.537" transform="matrix(-0.746009 0.665936 0.665936 0.746009 558.727 308.001)" fill="#04141C" stroke="#0D2937" stroke-width="1.98737"/>
<circle cx="30.9468" cy="30.9468" r="29.9532" transform="matrix(-0.746009 0.665936 0.665936 0.746009 558.117 318.709)" fill="#04141C" stroke="#0D2937" stroke-width="1.98737"/>
<circle cx="23.3842" cy="23.3842" r="22.3905" transform="matrix(-0.746009 0.665936 0.665936 0.746009 557.516 329.386)" fill="#04141C" stroke="#0D2937" stroke-width="1.98737"/>
<circle cx="16.1359" cy="16.1359" r="15.1422" transform="matrix(-0.746009 0.665936 0.665936 0.746009 556.934 339.621)" fill="#04141C" stroke="#0D2937" stroke-width="1.98737"/>
<circle cx="38.5307" cy="38.5307" r="37.537" transform="matrix(-0.746009 0.665936 0.665936 0.746009 501.238 359.318)" fill="#04141C" stroke="#0D2937" stroke-width="1.98737"/>
<circle cx="30.9468" cy="30.9468" r="29.9532" transform="matrix(-0.746009 0.665936 0.665936 0.746009 500.633 370.026)" fill="#04141C" stroke="#0D2937" stroke-width="1.98737"/>
<circle cx="23.3842" cy="23.3842" r="22.3905" transform="matrix(-0.746009 0.665936 0.665936 0.746009 500.027 380.703)" fill="#04141C" stroke="#0D2937" stroke-width="1.98737"/>
<circle cx="16.1359" cy="16.1359" r="15.1422" transform="matrix(-0.746009 0.665936 0.665936 0.746009 499.445 390.939)" fill="#04141C" stroke="#0D2937" stroke-width="1.98737"/>
<circle cx="38.5307" cy="38.5307" r="37.537" transform="matrix(-0.746009 0.665936 0.665936 0.746009 443.766 410.621)" fill="#04141C" stroke="#0D2937" stroke-width="1.98737"/>
<circle cx="30.9468" cy="30.9468" r="29.9532" transform="matrix(-0.746009 0.665936 0.665936 0.746009 443.156 421.331)" fill="#04141C" stroke="#0D2937" stroke-width="1.98737"/>
<circle cx="23.3842" cy="23.3842" r="22.3905" transform="matrix(-0.746009 0.665936 0.665936 0.746009 442.551 432.008)" fill="#04141C" stroke="#0D2937" stroke-width="1.98737"/>
<circle cx="16.1359" cy="16.1359" r="15.1422" transform="matrix(-0.746009 0.665936 0.665936 0.746009 441.973 442.241)" fill="#04141C" stroke="#0D2937" stroke-width="1.98737"/>
<circle cx="38.5307" cy="38.5307" r="37.537" transform="matrix(-0.746009 0.665936 0.665936 0.746009 546.484 352.146)" fill="#04141C" stroke="#0D2937" stroke-width="1.98737"/>
<circle cx="30.9468" cy="30.9468" r="29.9532" transform="matrix(-0.746009 0.665936 0.665936 0.746009 545.875 362.854)" fill="#04141C" stroke="#0D2937" stroke-width="1.98737"/>
<circle cx="23.3842" cy="23.3842" r="22.3905" transform="matrix(-0.746009 0.665936 0.665936 0.746009 545.273 373.53)" fill="#04141C" stroke="#0D2937" stroke-width="1.98737"/>
<circle cx="16.1359" cy="16.1359" r="15.1422" transform="matrix(-0.746009 0.665936 0.665936 0.746009 544.691 383.767)" fill="#04141C" stroke="#0D2937" stroke-width="1.98737"/>
<circle cx="38.5307" cy="38.5307" r="37.537" transform="matrix(-0.746009 0.665936 0.665936 0.746009 488.996 403.464)" fill="#04141C" stroke="#0D2937" stroke-width="1.98737"/>
<circle cx="30.9468" cy="30.9468" r="29.9532" transform="matrix(-0.746009 0.665936 0.665936 0.746009 488.391 414.171)" fill="#04141C" stroke="#0D2937" stroke-width="1.98737"/>
<circle cx="23.3842" cy="23.3842" r="22.3905" transform="matrix(-0.746009 0.665936 0.665936 0.746009 487.785 424.848)" fill="#04141C" stroke="#0D2937" stroke-width="1.98737"/>
<circle cx="16.1359" cy="16.1359" r="15.1422" transform="matrix(-0.746009 0.665936 0.665936 0.746009 487.203 435.084)" fill="#04141C" stroke="#0D2937" stroke-width="1.98737"/>
<circle cx="38.5307" cy="38.5307" r="37.537" transform="matrix(-0.746009 0.665936 0.665936 0.746009 431.504 454.784)" fill="#04141C" stroke="#0D2937" stroke-width="1.98737"/>
<circle cx="30.9468" cy="30.9468" r="29.9532" transform="matrix(-0.746009 0.665936 0.665936 0.746009 430.898 465.489)" fill="#04141C" stroke="#0D2937" stroke-width="1.98737"/>
<circle cx="23.3842" cy="23.3842" r="22.3905" transform="matrix(-0.746009 0.665936 0.665936 0.746009 430.293 476.168)" fill="#04141C" stroke="#0D2937" stroke-width="1.98737"/>
<circle cx="16.1359" cy="16.1359" r="15.1422" transform="matrix(-0.746009 0.665936 0.665936 0.746009 429.711 486.403)" fill="#04141C" stroke="#0D2937" stroke-width="1.98737"/>
<circle cx="38.5307" cy="38.5307" r="37.537" transform="matrix(-0.746009 0.665936 0.665936 0.746009 614.625 254.891)" fill="#04141C" stroke="#0D2937" stroke-width="1.98737"/>
<circle cx="30.9468" cy="30.9468" r="29.9532" transform="matrix(-0.746009 0.665936 0.665936 0.746009 614.016 265.599)" fill="#04141C" stroke="#0D2937" stroke-width="1.98737"/>
<circle cx="23.3842" cy="23.3842" r="22.3905" transform="matrix(-0.746009 0.665936 0.665936 0.746009 613.41 276.277)" fill="#04141C" stroke="#0D2937" stroke-width="1.98737"/>
<circle cx="16.1359" cy="16.1359" r="15.1422" transform="matrix(-0.746009 0.665936 0.665936 0.746009 612.832 286.511)" fill="#04141C" stroke="#0D2937" stroke-width="1.98737"/>
<circle cx="38.5307" cy="38.5307" r="37.537" transform="matrix(-0.746009 0.665936 0.665936 0.746009 661.465 249.508)" fill="#04141C" stroke="#0D2937" stroke-width="1.98737"/>
<circle cx="30.9468" cy="30.9468" r="29.9532" transform="matrix(-0.746009 0.665936 0.665936 0.746009 660.859 260.215)" fill="#04141C" stroke="#0D2937" stroke-width="1.98737"/>
<circle cx="23.3842" cy="23.3842" r="22.3905" transform="matrix(-0.746009 0.665936 0.665936 0.746009 660.254 270.894)" fill="#04141C" stroke="#0D2937" stroke-width="1.98737"/>
<circle cx="16.1359" cy="16.1359" r="15.1422" transform="matrix(-0.746009 0.665936 0.665936 0.746009 659.672 281.128)" fill="#04141C" stroke="#0D2937" stroke-width="1.98737"/>
<circle cx="38.5307" cy="38.5307" r="37.537" transform="matrix(-0.746009 0.665936 0.665936 0.746009 603.98 300.826)" fill="#04141C" stroke="#0D2937" stroke-width="1.98737"/>
<circle cx="30.9468" cy="30.9468" r="29.9532" transform="matrix(-0.746009 0.665936 0.665936 0.746009 603.375 311.533)" fill="#04141C" stroke="#0D2937" stroke-width="1.98737"/>
<circle cx="23.3842" cy="23.3842" r="22.3905" transform="matrix(-0.746009 0.665936 0.665936 0.746009 602.766 322.213)" fill="#04141C" stroke="#0D2937" stroke-width="1.98737"/>
<circle cx="16.1359" cy="16.1359" r="15.1422" transform="matrix(-0.746009 0.665936 0.665936 0.746009 602.188 332.446)" fill="#04141C" stroke="#0D2937" stroke-width="1.98737"/>
<circle cx="38.5307" cy="38.5307" r="37.537" transform="matrix(-0.746009 0.665936 0.665936 0.746009 651.027 295.674)" fill="#04141C" stroke="#0D2937" stroke-width="1.98737"/>
<circle cx="30.9468" cy="30.9468" r="29.9532" transform="matrix(-0.746009 0.665936 0.665936 0.746009 650.418 306.382)" fill="#04141C" stroke="#0D2937" stroke-width="1.98737"/>
<circle cx="23.3842" cy="23.3842" r="22.3905" transform="matrix(-0.746009 0.665936 0.665936 0.746009 649.816 317.059)" fill="#04141C" stroke="#0D2937" stroke-width="1.98737"/>
<circle cx="16.1359" cy="16.1359" r="15.1422" transform="matrix(-0.746009 0.665936 0.665936 0.746009 649.234 327.294)" fill="#04141C" stroke="#0D2937" stroke-width="1.98737"/>
<circle cx="38.5307" cy="38.5307" r="37.537" transform="matrix(-0.746009 0.665936 0.665936 0.746009 593.539 346.991)" fill="#04141C" stroke="#0D2937" stroke-width="1.98737"/>
<circle cx="30.9468" cy="30.9468" r="29.9532" transform="matrix(-0.746009 0.665936 0.665936 0.746009 592.934 357.698)" fill="#04141C" stroke="#0D2937" stroke-width="1.98737"/>
<circle cx="23.3842" cy="23.3842" r="22.3905" transform="matrix(-0.746009 0.665936 0.665936 0.746009 592.328 368.376)" fill="#04141C" stroke="#0D2937" stroke-width="1.98737"/>
<circle cx="16.1359" cy="16.1359" r="15.1422" transform="matrix(-0.746009 0.665936 0.665936 0.746009 591.746 378.611)" fill="#04141C" stroke="#0D2937" stroke-width="1.98737"/>
<circle cx="38.5307" cy="38.5307" r="37.537" transform="matrix(-0.746009 0.665936 0.665936 0.746009 708.516 244.355)" fill="#04141C" stroke="#0D2937" stroke-width="1.98737"/>
<circle cx="30.9468" cy="30.9468" r="29.9532" transform="matrix(-0.746009 0.665936 0.665936 0.746009 707.906 255.064)" fill="#04141C" stroke="#0D2937" stroke-width="1.98737"/>
<circle cx="23.3842" cy="23.3842" r="22.3905" transform="matrix(-0.746009 0.665936 0.665936 0.746009 707.301 265.741)" fill="#04141C" stroke="#0D2937" stroke-width="1.98737"/>
<circle cx="16.1359" cy="16.1359" r="15.1422" transform="matrix(-0.746009 0.665936 0.665936 0.746009 706.723 275.976)" fill="#04141C" stroke="#0D2937" stroke-width="1.98737"/>
<circle cx="38.5307" cy="38.5307" r="37.537" transform="matrix(-0.746009 0.665936 0.665936 0.746009 478.578 449.613)" fill="#04141C" stroke="#0D2937" stroke-width="1.98737"/>
<circle cx="30.9468" cy="30.9468" r="29.9532" transform="matrix(-0.746009 0.665936 0.665936 0.746009 477.969 460.321)" fill="#04141C" stroke="#0D2937" stroke-width="1.98737"/>
<circle cx="23.3842" cy="23.3842" r="22.3905" transform="matrix(-0.746009 0.665936 0.665936 0.746009 477.363 470.999)" fill="#04141C" stroke="#0D2937" stroke-width="1.98737"/>
<circle cx="16.1359" cy="16.1359" r="15.1422" transform="matrix(-0.746009 0.665936 0.665936 0.746009 476.785 481.233)" fill="#04141C" stroke="#0D2937" stroke-width="1.98737"/>
<circle cx="38.5307" cy="38.5307" r="37.537" transform="matrix(-0.746009 0.665936 0.665936 0.746009 536.066 398.295)" fill="#04141C" stroke="#0D2937" stroke-width="1.98737"/>
<circle cx="30.9468" cy="30.9468" r="29.9532" transform="matrix(-0.746009 0.665936 0.665936 0.746009 535.457 409.003)" fill="#04141C" stroke="#0D2937" stroke-width="1.98737"/>
<circle cx="23.3842" cy="23.3842" r="22.3905" transform="matrix(-0.746009 0.665936 0.665936 0.746009 534.852 419.682)" fill="#04141C" stroke="#0D2937" stroke-width="1.98737"/>
<circle cx="16.1359" cy="16.1359" r="15.1422" transform="matrix(-0.746009 0.665936 0.665936 0.746009 534.273 429.915)" fill="#04141C" stroke="#0D2937" stroke-width="1.98737"/>
<circle cx="38.5307" cy="38.5307" r="37.537" transform="matrix(-0.746009 0.665936 0.665936 0.746009 696.281 288.511)" fill="#04141C" stroke="#0D2937" stroke-width="1.98737"/>
<circle cx="30.9468" cy="30.9468" r="29.9532" transform="matrix(-0.746009 0.665936 0.665936 0.746009 695.672 299.219)" fill="#04141C" stroke="#0D2937" stroke-width="1.98737"/>
<circle cx="23.3842" cy="23.3842" r="22.3905" transform="matrix(-0.746009 0.665936 0.665936 0.746009 695.07 309.896)" fill="#04141C" stroke="#0D2937" stroke-width="1.98737"/>
<circle cx="16.1359" cy="16.1359" r="15.1422" transform="matrix(-0.746009 0.665936 0.665936 0.746009 694.488 320.131)" fill="#04141C" stroke="#0D2937" stroke-width="1.98737"/>
<circle cx="38.5307" cy="38.5307" r="37.537" transform="matrix(-0.746009 0.665936 0.665936 0.746009 753.766 237.198)" fill="#04141C" stroke="#0D2937" stroke-width="1.98737"/>
<circle cx="38.5307" cy="38.5307" r="37.537" transform="matrix(-0.746009 0.665936 0.665936 0.746009 638.793 339.828)" fill="#04141C" stroke="#0D2937" stroke-width="1.98737"/>
<circle cx="30.9468" cy="30.9468" r="29.9532" transform="matrix(-0.746009 0.665936 0.665936 0.746009 638.184 350.536)" fill="#04141C" stroke="#0D2937" stroke-width="1.98737"/>
<circle cx="23.3842" cy="23.3842" r="22.3905" transform="matrix(-0.746009 0.665936 0.665936 0.746009 637.578 361.215)" fill="#04141C" stroke="#0D2937" stroke-width="1.98737"/>
<circle cx="16.1359" cy="16.1359" r="15.1422" transform="matrix(-0.746009 0.665936 0.665936 0.746009 637 371.448)" fill="#04141C" stroke="#0D2937" stroke-width="1.98737"/>
<circle cx="38.5307" cy="38.5307" r="37.537" transform="matrix(-0.746009 0.665936 0.665936 0.746009 523.832 442.451)" fill="#04141C" stroke="#0D2937" stroke-width="1.98737"/>
<circle cx="30.9468" cy="30.9468" r="29.9532" transform="matrix(-0.746009 0.665936 0.665936 0.746009 523.223 453.16)" fill="#04141C" stroke="#0D2937" stroke-width="1.98737"/>
<circle cx="23.3842" cy="23.3842" r="22.3905" transform="matrix(-0.746009 0.665936 0.665936 0.746009 522.621 463.835)" fill="#04141C" stroke="#0D2937" stroke-width="1.98737"/>
<circle cx="16.1359" cy="16.1359" r="15.1422" transform="matrix(-0.746009 0.665936 0.665936 0.746009 522.039 474.071)" fill="#04141C" stroke="#0D2937" stroke-width="1.98737"/>
<circle cx="38.5307" cy="38.5307" r="37.537" transform="matrix(-0.746009 0.665936 0.665936 0.746009 581.316 391.139)" fill="#04141C" stroke="#0D2937" stroke-width="1.98737"/>
<circle cx="30.9468" cy="30.9468" r="29.9532" transform="matrix(-0.746009 0.665936 0.665936 0.746009 580.707 401.847)" fill="#04141C" stroke="#0D2937" stroke-width="1.98737"/>
<circle cx="23.3842" cy="23.3842" r="22.3905" transform="matrix(-0.746009 0.665936 0.665936 0.746009 580.102 412.525)" fill="#04141C" stroke="#0D2937" stroke-width="1.98737"/>
<circle cx="16.1359" cy="16.1359" r="15.1422" transform="matrix(-0.746009 0.665936 0.665936 0.746009 579.52 422.76)" fill="#04141C" stroke="#0D2937" stroke-width="1.98737"/>
<circle cx="38.5307" cy="38.5307" r="37.537" transform="matrix(-0.746009 0.665936 0.665936 0.746009 466.344 493.769)" fill="#04141C" stroke="#0D2937" stroke-width="1.98737"/>
<circle cx="30.9468" cy="30.9468" r="29.9532" transform="matrix(-0.746009 0.665936 0.665936 0.746009 465.738 504.476)" fill="#04141C" stroke="#0D2937" stroke-width="1.98737"/>
<circle cx="23.3842" cy="23.3842" r="22.3905" transform="matrix(-0.746009 0.665936 0.665936 0.746009 465.133 515.153)" fill="#04141C" stroke="#0D2937" stroke-width="1.98737"/>
<circle cx="16.1359" cy="16.1359" r="15.1422" transform="matrix(-0.746009 0.665936 0.665936 0.746009 464.551 525.389)" fill="#04141C" stroke="#0D2937" stroke-width="1.98737"/>
<circle cx="38.5307" cy="38.5307" r="37.537" transform="matrix(-0.746009 0.665936 0.665936 0.746009 684.043 332.656)" fill="#04141C" stroke="#0D2937" stroke-width="1.98737"/>
<circle cx="30.9468" cy="30.9468" r="29.9532" transform="matrix(-0.746009 0.665936 0.665936 0.746009 683.434 343.364)" fill="#04141C" stroke="#0D2937" stroke-width="1.98737"/>
<circle cx="23.3842" cy="23.3842" r="22.3905" transform="matrix(-0.746009 0.665936 0.665936 0.746009 682.828 354.043)" fill="#04141C" stroke="#0D2937" stroke-width="1.98737"/>
<circle cx="16.1359" cy="16.1359" r="15.1422" transform="matrix(-0.746009 0.665936 0.665936 0.746009 682.25 364.276)" fill="#04141C" stroke="#0D2937" stroke-width="1.98737"/>
<circle cx="38.5307" cy="38.5307" r="37.537" transform="matrix(-0.746009 0.665936 0.665936 0.746009 741.523 281.344)" fill="#04141C" stroke="#0D2937" stroke-width="1.98737"/>
<circle cx="30.9468" cy="30.9468" r="29.9532" transform="matrix(-0.746009 0.665936 0.665936 0.746009 740.914 292.052)" fill="#04141C" stroke="#0D2937" stroke-width="1.98737"/>
<circle cx="38.5307" cy="38.5307" r="37.537" transform="matrix(-0.746009 0.665936 0.665936 0.746009 511.59 486.599)" fill="#04141C" stroke="#0D2937" stroke-width="1.98737"/>
<circle cx="30.9468" cy="30.9468" r="29.9532" transform="matrix(-0.746009 0.665936 0.665936 0.746009 510.98 497.307)" fill="#04141C" stroke="#0D2937" stroke-width="1.98737"/>
<circle cx="23.3842" cy="23.3842" r="22.3905" transform="matrix(-0.746009 0.665936 0.665936 0.746009 510.375 507.985)" fill="#04141C" stroke="#0D2937" stroke-width="1.98737"/>
<circle cx="16.1359" cy="16.1359" r="15.1422" transform="matrix(-0.746009 0.665936 0.665936 0.746009 509.793 518.22)" fill="#04141C" stroke="#0D2937" stroke-width="1.98737"/>
<circle cx="38.5307" cy="38.5307" r="37.537" transform="matrix(-0.746009 0.665936 0.665936 0.746009 569.07 435.286)" fill="#04141C" stroke="#0D2937" stroke-width="1.98737"/>
<circle cx="30.9468" cy="30.9468" r="29.9532" transform="matrix(-0.746009 0.665936 0.665936 0.746009 568.461 445.993)" fill="#04141C" stroke="#0D2937" stroke-width="1.98737"/>
<circle cx="23.3842" cy="23.3842" r="22.3905" transform="matrix(-0.746009 0.665936 0.665936 0.746009 567.859 456.671)" fill="#04141C" stroke="#0D2937" stroke-width="1.98737"/>
<circle cx="16.1359" cy="16.1359" r="15.1422" transform="matrix(-0.746009 0.665936 0.665936 0.746009 567.277 466.906)" fill="#04141C" stroke="#0D2937" stroke-width="1.98737"/>
<circle cx="38.5307" cy="38.5307" r="37.537" transform="matrix(-0.746009 0.665936 0.665936 0.746009 626.559 383.969)" fill="#04141C" stroke="#0D2937" stroke-width="1.98737"/>
<circle cx="30.9468" cy="30.9468" r="29.9532" transform="matrix(-0.746009 0.665936 0.665936 0.746009 625.949 394.676)" fill="#04141C" stroke="#0D2937" stroke-width="1.98737"/>
<circle cx="23.3842" cy="23.3842" r="22.3905" transform="matrix(-0.746009 0.665936 0.665936 0.746009 625.348 405.354)" fill="#04141C" stroke="#0D2937" stroke-width="1.98737"/>
<circle cx="16.1359" cy="16.1359" r="15.1422" transform="matrix(-0.746009 0.665936 0.665936 0.746009 624.766 415.589)" fill="#04141C" stroke="#0D2937" stroke-width="1.98737"/>
<circle cx="38.5307" cy="38.5307" r="37.537" transform="matrix(-0.746009 0.665936 0.665936 0.746009 727.711 323.688)" fill="#04141C" stroke="#0D2937" stroke-width="1.98737"/>
<circle cx="30.9468" cy="30.9468" r="29.9532" transform="matrix(-0.746009 0.665936 0.665936 0.746009 727.105 334.395)" fill="#04141C" stroke="#0D2937" stroke-width="1.98737"/>
<circle cx="23.3842" cy="23.3842" r="22.3905" transform="matrix(-0.746009 0.665936 0.665936 0.746009 726.496 345.074)" fill="#04141C" stroke="#0D2937" stroke-width="1.98737"/>
<circle cx="38.5307" cy="38.5307" r="37.537" transform="matrix(-0.746009 0.665936 0.665936 0.746009 670.219 375.008)" fill="#04141C" stroke="#0D2937" stroke-width="1.98737"/>
<circle cx="30.9468" cy="30.9468" r="29.9532" transform="matrix(-0.746009 0.665936 0.665936 0.746009 669.609 385.716)" fill="#04141C" stroke="#0D2937" stroke-width="1.98737"/>
<circle cx="23.3842" cy="23.3842" r="22.3905" transform="matrix(-0.746009 0.665936 0.665936 0.746009 669.008 396.394)" fill="#04141C" stroke="#0D2937" stroke-width="1.98737"/>
<circle cx="16.1359" cy="16.1359" r="15.1422" transform="matrix(-0.746009 0.665936 0.665936 0.746009 668.426 406.627)" fill="#04141C" stroke="#0D2937" stroke-width="1.98737"/>
<circle cx="38.5307" cy="38.5307" r="37.537" transform="matrix(-0.746009 0.665936 0.665936 0.746009 555.246 477.645)" fill="#04141C" stroke="#0D2937" stroke-width="1.98737"/>
<circle cx="30.9468" cy="30.9468" r="29.9532" transform="matrix(-0.746009 0.665936 0.665936 0.746009 554.637 488.354)" fill="#04141C" stroke="#0D2937" stroke-width="1.98737"/>
<circle cx="23.3842" cy="23.3842" r="22.3905" transform="matrix(-0.746009 0.665936 0.665936 0.746009 554.031 499.031)" fill="#04141C" stroke="#0D2937" stroke-width="1.98737"/>
<circle cx="16.1359" cy="16.1359" r="15.1422" transform="matrix(-0.746009 0.665936 0.665936 0.746009 553.453 509.265)" fill="#04141C" stroke="#0D2937" stroke-width="1.98737"/>
<circle cx="38.5307" cy="38.5307" r="37.537" transform="matrix(-0.746009 0.665936 0.665936 0.746009 612.73 426.33)" fill="#04141C" stroke="#0D2937" stroke-width="1.98737"/>
<circle cx="30.9468" cy="30.9468" r="29.9532" transform="matrix(-0.746009 0.665936 0.665936 0.746009 612.121 437.038)" fill="#04141C" stroke="#0D2937" stroke-width="1.98737"/>
<circle cx="23.3842" cy="23.3842" r="22.3905" transform="matrix(-0.746009 0.665936 0.665936 0.746009 611.52 447.715)" fill="#04141C" stroke="#0D2937" stroke-width="1.98737"/>
<circle cx="16.1359" cy="16.1359" r="15.1422" transform="matrix(-0.746009 0.665936 0.665936 0.746009 610.934 457.951)" fill="#04141C" stroke="#0D2937" stroke-width="1.98737"/>
<circle cx="38.5307" cy="38.5307" r="37.537" transform="matrix(-0.746009 0.665936 0.665936 0.746009 497.758 528.962)" fill="#04141C" stroke="#0D2937" stroke-width="1.98737"/>
<circle cx="30.9468" cy="30.9468" r="29.9532" transform="matrix(-0.746009 0.665936 0.665936 0.746009 497.148 539.669)" fill="#04141C" stroke="#0D2937" stroke-width="1.98737"/>
<circle cx="23.3842" cy="23.3842" r="22.3905" transform="matrix(-0.746009 0.665936 0.665936 0.746009 496.543 550.349)" fill="#04141C" stroke="#0D2937" stroke-width="1.98737"/>
<circle cx="16.1359" cy="16.1359" r="15.1422" transform="matrix(-0.746009 0.665936 0.665936 0.746009 495.965 560.582)" fill="#04141C" stroke="#0D2937" stroke-width="1.98737"/>
<circle cx="38.5307" cy="38.5307" r="37.537" transform="matrix(-0.746009 0.665936 0.665936 0.746009 717.273 369.854)" fill="#04141C" stroke="#0D2937" stroke-width="1.98737"/>
<circle cx="30.9468" cy="30.9468" r="29.9532" transform="matrix(-0.746009 0.665936 0.665936 0.746009 716.664 380.562)" fill="#04141C" stroke="#0D2937" stroke-width="1.98737"/>
<circle cx="23.3842" cy="23.3842" r="22.3905" transform="matrix(-0.746009 0.665936 0.665936 0.746009 716.062 391.238)" fill="#04141C" stroke="#0D2937" stroke-width="1.98737"/>
<circle cx="16.1359" cy="16.1359" r="15.1422" transform="matrix(-0.746009 0.665936 0.665936 0.746009 715.48 401.474)" fill="#04141C" stroke="#0D2937" stroke-width="1.98737"/>
<circle cx="38.5307" cy="38.5307" r="37.537" transform="matrix(-0.746009 0.665936 0.665936 0.746009 659.781 421.174)" fill="#04141C" stroke="#0D2937" stroke-width="1.98737"/>
<circle cx="30.9468" cy="30.9468" r="29.9532" transform="matrix(-0.746009 0.665936 0.665936 0.746009 659.176 431.88)" fill="#04141C" stroke="#0D2937" stroke-width="1.98737"/>
<circle cx="23.3842" cy="23.3842" r="22.3905" transform="matrix(-0.746009 0.665936 0.665936 0.746009 658.57 442.559)" fill="#04141C" stroke="#0D2937" stroke-width="1.98737"/>
<circle cx="16.1359" cy="16.1359" r="15.1422" transform="matrix(-0.746009 0.665936 0.665936 0.746009 657.988 452.793)" fill="#04141C" stroke="#0D2937" stroke-width="1.98737"/>
<circle cx="38.5307" cy="38.5307" r="37.537" transform="matrix(-0.746009 0.665936 0.665936 0.746009 602.285 472.489)" fill="#04141C" stroke="#0D2937" stroke-width="1.98737"/>
<circle cx="30.9468" cy="30.9468" r="29.9532" transform="matrix(-0.746009 0.665936 0.665936 0.746009 601.68 483.195)" fill="#04141C" stroke="#0D2937" stroke-width="1.98737"/>
<circle cx="23.3842" cy="23.3842" r="22.3905" transform="matrix(-0.746009 0.665936 0.665936 0.746009 601.074 493.874)" fill="#04141C" stroke="#0D2937" stroke-width="1.98737"/>
<circle cx="16.1359" cy="16.1359" r="15.1422" transform="matrix(-0.746009 0.665936 0.665936 0.746009 600.492 504.108)" fill="#04141C" stroke="#0D2937" stroke-width="1.98737"/>
<circle cx="38.5307" cy="38.5307" r="37.537" transform="matrix(-0.746009 0.665936 0.665936 0.746009 544.801 523.805)" fill="#04141C" stroke="#0D2937" stroke-width="1.98737"/>
<circle cx="30.9468" cy="30.9468" r="29.9532" transform="matrix(-0.746009 0.665936 0.665936 0.746009 544.191 534.514)" fill="#04141C" stroke="#0D2937" stroke-width="1.98737"/>
<circle cx="23.3842" cy="23.3842" r="22.3905" transform="matrix(-0.746009 0.665936 0.665936 0.746009 543.586 545.191)" fill="#04141C" stroke="#0D2937" stroke-width="1.98737"/>
<circle cx="16.1359" cy="16.1359" r="15.1422" transform="matrix(-0.746009 0.665936 0.665936 0.746009 543.004 555.428)" fill="#04141C" stroke="#0D2937" stroke-width="1.98737"/>
<circle cx="38.5307" cy="38.5307" r="37.537" transform="matrix(-0.746009 0.665936 0.665936 0.746009 705.035 414.011)" fill="#04141C" stroke="#0D2937" stroke-width="1.98737"/>
<circle cx="30.9468" cy="30.9468" r="29.9532" transform="matrix(-0.746009 0.665936 0.665936 0.746009 704.426 424.719)" fill="#04141C" stroke="#0D2937" stroke-width="1.98737"/>
<circle cx="23.3842" cy="23.3842" r="22.3905" transform="matrix(-0.746009 0.665936 0.665936 0.746009 703.824 435.396)" fill="#04141C" stroke="#0D2937" stroke-width="1.98737"/>
<circle cx="16.1359" cy="16.1359" r="15.1422" transform="matrix(-0.746009 0.665936 0.665936 0.746009 703.242 445.63)" fill="#04141C" stroke="#0D2937" stroke-width="1.98737"/>
<circle cx="38.5307" cy="38.5307" r="37.537" transform="matrix(-0.746009 0.665936 0.665936 0.746009 750.285 406.836)" fill="#04141C" stroke="#0D2937" stroke-width="1.98737"/>
<circle cx="38.5307" cy="38.5307" r="37.537" transform="matrix(-0.746009 0.665936 0.665936 0.746009 642.531 459.71)" fill="#04141C" stroke="#0D2937" stroke-width="1.98737"/>
<circle cx="30.9468" cy="30.9468" r="29.9532" transform="matrix(-0.746009 0.665936 0.665936 0.746009 641.922 470.418)" fill="#04141C" stroke="#0D2937" stroke-width="1.98737"/>
<circle cx="23.3842" cy="23.3842" r="22.3905" transform="matrix(-0.746009 0.665936 0.665936 0.746009 641.316 481.097)" fill="#04141C" stroke="#0D2937" stroke-width="1.98737"/>
<circle cx="16.1359" cy="16.1359" r="15.1422" transform="matrix(-0.746009 0.665936 0.665936 0.746009 640.738 491.331)" fill="#04141C" stroke="#0D2937" stroke-width="1.98737"/>
<circle cx="38.5307" cy="38.5307" r="37.537" transform="matrix(-0.746009 0.665936 0.665936 0.746009 585.043 511.028)" fill="#04141C" stroke="#0D2937" stroke-width="1.98737"/>
<circle cx="30.9468" cy="30.9468" r="29.9532" transform="matrix(-0.746009 0.665936 0.665936 0.746009 584.434 521.737)" fill="#04141C" stroke="#0D2937" stroke-width="1.98737"/>
<circle cx="23.3842" cy="23.3842" r="22.3905" transform="matrix(-0.746009 0.665936 0.665936 0.746009 583.828 532.414)" fill="#04141C" stroke="#0D2937" stroke-width="1.98737"/>
<circle cx="16.1359" cy="16.1359" r="15.1422" transform="matrix(-0.746009 0.665936 0.665936 0.746009 583.25 542.648)" fill="#04141C" stroke="#0D2937" stroke-width="1.98737"/>
<circle cx="38.5307" cy="38.5307" r="37.537" transform="matrix(-0.746009 0.665936 0.665936 0.746009 527.574 562.33)" fill="#04141C" stroke="#0D2937" stroke-width="1.98737"/>
<circle cx="30.9468" cy="30.9468" r="29.9532" transform="matrix(-0.746009 0.665936 0.665936 0.746009 526.969 573.037)" fill="#04141C" stroke="#0D2937" stroke-width="1.98737"/>
<circle cx="23.3842" cy="23.3842" r="22.3905" transform="matrix(-0.746009 0.665936 0.665936 0.746009 526.359 583.717)" fill="#04141C" stroke="#0D2937" stroke-width="1.98737"/>
<circle cx="16.1359" cy="16.1359" r="15.1422" transform="matrix(-0.746009 0.665936 0.665936 0.746009 525.781 593.95)" fill="#04141C" stroke="#0D2937" stroke-width="1.98737"/>
<circle cx="38.5307" cy="38.5307" r="37.537" transform="matrix(-0.746009 0.665936 0.665936 0.746009 689.379 454.325)" fill="#04141C" stroke="#0D2937" stroke-width="1.98737"/>
<circle cx="30.9468" cy="30.9468" r="29.9532" transform="matrix(-0.746009 0.665936 0.665936 0.746009 688.77 465.033)" fill="#04141C" stroke="#0D2937" stroke-width="1.98737"/>
<circle cx="23.3842" cy="23.3842" r="22.3905" transform="matrix(-0.746009 0.665936 0.665936 0.746009 688.164 475.712)" fill="#04141C" stroke="#0D2937" stroke-width="1.98737"/>
<circle cx="16.1359" cy="16.1359" r="15.1422" transform="matrix(-0.746009 0.665936 0.665936 0.746009 687.586 485.945)" fill="#04141C" stroke="#0D2937" stroke-width="1.98737"/>
<circle cx="38.5307" cy="38.5307" r="37.537" transform="matrix(-0.746009 0.665936 0.665936 0.746009 631.891 505.643)" fill="#04141C" stroke="#0D2937" stroke-width="1.98737"/>
<circle cx="30.9468" cy="30.9468" r="29.9532" transform="matrix(-0.746009 0.665936 0.665936 0.746009 631.281 516.353)" fill="#04141C" stroke="#0D2937" stroke-width="1.98737"/>
<circle cx="23.3842" cy="23.3842" r="22.3905" transform="matrix(-0.746009 0.665936 0.665936 0.746009 630.676 527.029)" fill="#04141C" stroke="#0D2937" stroke-width="1.98737"/>
<circle cx="16.1359" cy="16.1359" r="15.1422" transform="matrix(-0.746009 0.665936 0.665936 0.746009 630.098 537.263)" fill="#04141C" stroke="#0D2937" stroke-width="1.98737"/>
<circle cx="38.5307" cy="38.5307" r="37.537" transform="matrix(-0.746009 0.665936 0.665936 0.746009 574.398 556.963)" fill="#04141C" stroke="#0D2937" stroke-width="1.98737"/>
<circle cx="30.9468" cy="30.9468" r="29.9532" transform="matrix(-0.746009 0.665936 0.665936 0.746009 573.789 567.673)" fill="#04141C" stroke="#0D2937" stroke-width="1.98737"/>
<circle cx="23.3842" cy="23.3842" r="22.3905" transform="matrix(-0.746009 0.665936 0.665936 0.746009 573.184 578.35)" fill="#04141C" stroke="#0D2937" stroke-width="1.98737"/>
<circle cx="16.1359" cy="16.1359" r="15.1422" transform="matrix(-0.746009 0.665936 0.665936 0.746009 572.605 588.583)" fill="#04141C" stroke="#0D2937" stroke-width="1.98737"/>
<circle cx="38.5307" cy="38.5307" r="37.537" transform="matrix(-0.746009 0.665936 0.665936 0.746009 678.941 500.49)" fill="#04141C" stroke="#0D2937" stroke-width="1.98737"/>
<circle cx="30.9468" cy="30.9468" r="29.9532" transform="matrix(-0.746009 0.665936 0.665936 0.746009 678.332 511.2)" fill="#04141C" stroke="#0D2937" stroke-width="1.98737"/>
<circle cx="23.3842" cy="23.3842" r="22.3905" transform="matrix(-0.746009 0.665936 0.665936 0.746009 677.727 521.878)" fill="#04141C" stroke="#0D2937" stroke-width="1.98737"/>
<circle cx="16.1359" cy="16.1359" r="15.1422" transform="matrix(-0.746009 0.665936 0.665936 0.746009 677.145 532.113)" fill="#04141C" stroke="#0D2937" stroke-width="1.98737"/>
<circle cx="38.5307" cy="38.5307" r="37.537" transform="matrix(-0.746009 0.665936 0.665936 0.746009 621.453 551.809)" fill="#04141C" stroke="#0D2937" stroke-width="1.98737"/>
<circle cx="30.9468" cy="30.9468" r="29.9532" transform="matrix(-0.746009 0.665936 0.665936 0.746009 620.844 562.518)" fill="#04141C" stroke="#0D2937" stroke-width="1.98737"/>
<circle cx="23.3842" cy="23.3842" r="22.3905" transform="matrix(-0.746009 0.665936 0.665936 0.746009 620.238 573.195)" fill="#04141C" stroke="#0D2937" stroke-width="1.98737"/>
<circle cx="16.1359" cy="16.1359" r="15.1422" transform="matrix(-0.746009 0.665936 0.665936 0.746009 619.66 583.429)" fill="#04141C" stroke="#0D2937" stroke-width="1.98737"/>
<circle cx="38.5307" cy="38.5307" r="37.537" transform="matrix(-0.746009 0.665936 0.665936 0.746009 563.961 603.129)" fill="#04141C" stroke="#0D2937" stroke-width="1.98737"/>
<circle cx="30.9468" cy="30.9468" r="29.9532" transform="matrix(-0.746009 0.665936 0.665936 0.746009 563.352 613.835)" fill="#04141C" stroke="#0D2937" stroke-width="1.98737"/>
<circle cx="23.3842" cy="23.3842" r="22.3905" transform="matrix(-0.746009 0.665936 0.665936 0.746009 562.75 624.514)" fill="#04141C" stroke="#0D2937" stroke-width="1.98737"/>
<circle cx="16.1359" cy="16.1359" r="15.1422" transform="matrix(-0.746009 0.665936 0.665936 0.746009 562.168 634.749)" fill="#04141C" stroke="#0D2937" stroke-width="1.98737"/>
<circle cx="38.5307" cy="38.5307" r="37.537" transform="matrix(-0.746009 0.665936 0.665936 0.746009 736.426 449.176)" fill="#04141C" stroke="#0D2937" stroke-width="1.98737"/>
<circle cx="30.9468" cy="30.9468" r="29.9532" transform="matrix(-0.746009 0.665936 0.665936 0.746009 735.82 459.882)" fill="#04141C" stroke="#0D2937" stroke-width="1.98737"/>
<circle cx="38.5307" cy="38.5307" r="37.537" transform="matrix(-0.746009 0.665936 0.665936 0.746009 724.191 493.33)" fill="#04141C" stroke="#0D2937" stroke-width="1.98737"/>
<circle cx="30.9468" cy="30.9468" r="29.9532" transform="matrix(-0.746009 0.665936 0.665936 0.746009 723.586 504.036)" fill="#04141C" stroke="#0D2937" stroke-width="1.98737"/>
<circle cx="23.3842" cy="23.3842" r="22.3905" transform="matrix(-0.746009 0.665936 0.665936 0.746009 722.98 514.715)" fill="#04141C" stroke="#0D2937" stroke-width="1.98737"/>
<circle cx="16.1359" cy="16.1359" r="15.1422" transform="matrix(-0.746009 0.665936 0.665936 0.746009 722.398 524.949)" fill="#04141C" stroke="#0D2937" stroke-width="1.98737"/>
<circle cx="38.5307" cy="38.5307" r="37.537" transform="matrix(-0.746009 0.665936 0.665936 0.746009 666.703 544.647)" fill="#04141C" stroke="#0D2937" stroke-width="1.98737"/>
<circle cx="30.9468" cy="30.9468" r="29.9532" transform="matrix(-0.746009 0.665936 0.665936 0.746009 666.098 555.354)" fill="#04141C" stroke="#0D2937" stroke-width="1.98737"/>
<circle cx="23.3842" cy="23.3842" r="22.3905" transform="matrix(-0.746009 0.665936 0.665936 0.746009 665.492 566.032)" fill="#04141C" stroke="#0D2937" stroke-width="1.98737"/>
<circle cx="16.1359" cy="16.1359" r="15.1422" transform="matrix(-0.746009 0.665936 0.665936 0.746009 664.91 576.268)" fill="#04141C" stroke="#0D2937" stroke-width="1.98737"/>
<circle cx="38.5307" cy="38.5307" r="37.537" transform="matrix(-0.746009 0.665936 0.665936 0.746009 609.234 595.95)" fill="#04141C" stroke="#0D2937" stroke-width="1.98737"/>
<circle cx="30.9468" cy="30.9468" r="29.9532" transform="matrix(-0.746009 0.665936 0.665936 0.746009 608.625 606.659)" fill="#04141C" stroke="#0D2937" stroke-width="1.98737"/>
<circle cx="23.3842" cy="23.3842" r="22.3905" transform="matrix(-0.746009 0.665936 0.665936 0.746009 608.02 617.337)" fill="#04141C" stroke="#0D2937" stroke-width="1.98737"/>
<circle cx="16.1359" cy="16.1359" r="15.1422" transform="matrix(-0.746009 0.665936 0.665936 0.746009 607.441 627.57)" fill="#04141C" stroke="#0D2937" stroke-width="1.98737"/>
<circle cx="38.5307" cy="38.5307" r="37.537" transform="matrix(-0.746009 0.665936 0.665936 0.746009 711.953 537.476)" fill="#04141C" stroke="#0D2937" stroke-width="1.98737"/>
<circle cx="30.9468" cy="30.9468" r="29.9532" transform="matrix(-0.746009 0.665936 0.665936 0.746009 711.344 548.184)" fill="#04141C" stroke="#0D2937" stroke-width="1.98737"/>
<circle cx="23.3842" cy="23.3842" r="22.3905" transform="matrix(-0.746009 0.665936 0.665936 0.746009 710.742 558.86)" fill="#04141C" stroke="#0D2937" stroke-width="1.98737"/>
<circle cx="16.1359" cy="16.1359" r="15.1422" transform="matrix(-0.746009 0.665936 0.665936 0.746009 710.16 569.096)" fill="#04141C" stroke="#0D2937" stroke-width="1.98737"/>
<circle cx="38.5307" cy="38.5307" r="37.537" transform="matrix(-0.746009 0.665936 0.665936 0.746009 654.461 588.793)" fill="#04141C" stroke="#0D2937" stroke-width="1.98737"/>
<circle cx="30.9468" cy="30.9468" r="29.9532" transform="matrix(-0.746009 0.665936 0.665936 0.746009 653.852 599.503)" fill="#04141C" stroke="#0D2937" stroke-width="1.98737"/>
<circle cx="23.3842" cy="23.3842" r="22.3905" transform="matrix(-0.746009 0.665936 0.665936 0.746009 653.25 610.178)" fill="#04141C" stroke="#0D2937" stroke-width="1.98737"/>
<circle cx="16.1359" cy="16.1359" r="15.1422" transform="matrix(-0.746009 0.665936 0.665936 0.746009 652.668 620.413)" fill="#04141C" stroke="#0D2937" stroke-width="1.98737"/>
<circle cx="38.5307" cy="38.5307" r="37.537" transform="matrix(-0.746009 0.665936 0.665936 0.746009 596.977 640.111)" fill="#04141C" stroke="#0D2937" stroke-width="1.98737"/>
<circle cx="30.9468" cy="30.9468" r="29.9532" transform="matrix(-0.746009 0.665936 0.665936 0.746009 596.367 650.818)" fill="#04141C" stroke="#0D2937" stroke-width="1.98737"/>
<circle cx="23.3842" cy="23.3842" r="22.3905" transform="matrix(-0.746009 0.665936 0.665936 0.746009 595.766 661.495)" fill="#04141C" stroke="#0D2937" stroke-width="1.98737"/>
<circle cx="16.1359" cy="16.1359" r="15.1422" transform="matrix(-0.746009 0.665936 0.665936 0.746009 595.184 671.731)" fill="#04141C" stroke="#0D2937" stroke-width="1.98737"/>
<circle cx="38.5307" cy="38.5307" r="37.537" transform="matrix(-0.746009 0.665936 0.665936 0.746009 644.043 634.941)" fill="#04141C" stroke="#0D2937" stroke-width="1.98737"/>
<circle cx="30.9468" cy="30.9468" r="29.9532" transform="matrix(-0.746009 0.665936 0.665936 0.746009 643.434 645.65)" fill="#04141C" stroke="#0D2937" stroke-width="1.98737"/>
<circle cx="23.3842" cy="23.3842" r="22.3905" transform="matrix(-0.746009 0.665936 0.665936 0.746009 642.828 656.328)" fill="#04141C" stroke="#0D2937" stroke-width="1.98737"/>
<circle cx="16.1359" cy="16.1359" r="15.1422" transform="matrix(-0.746009 0.665936 0.665936 0.746009 642.25 666.562)" fill="#04141C" stroke="#0D2937" stroke-width="1.98737"/>
<circle cx="38.5307" cy="38.5307" r="37.537" transform="matrix(-0.746009 0.665936 0.665936 0.746009 701.531 583.624)" fill="#04141C" stroke="#0D2937" stroke-width="1.98737"/>
<circle cx="30.9468" cy="30.9468" r="29.9532" transform="matrix(-0.746009 0.665936 0.665936 0.746009 700.922 594.332)" fill="#04141C" stroke="#0D2937" stroke-width="1.98737"/>
<circle cx="23.3842" cy="23.3842" r="22.3905" transform="matrix(-0.746009 0.665936 0.665936 0.746009 700.316 605.011)" fill="#04141C" stroke="#0D2937" stroke-width="1.98737"/>
<circle cx="16.1359" cy="16.1359" r="15.1422" transform="matrix(-0.746009 0.665936 0.665936 0.746009 699.738 615.244)" fill="#04141C" stroke="#0D2937" stroke-width="1.98737"/>
<circle cx="38.5307" cy="38.5307" r="37.537" transform="matrix(-0.746009 0.665936 0.665936 0.746009 689.297 627.78)" fill="#04141C" stroke="#0D2937" stroke-width="1.98737"/>
<circle cx="30.9468" cy="30.9468" r="29.9532" transform="matrix(-0.746009 0.665936 0.665936 0.746009 688.688 638.488)" fill="#04141C" stroke="#0D2937" stroke-width="1.98737"/>
<circle cx="23.3842" cy="23.3842" r="22.3905" transform="matrix(-0.746009 0.665936 0.665936 0.746009 688.086 649.164)" fill="#04141C" stroke="#0D2937" stroke-width="1.98737"/>
<circle cx="16.1359" cy="16.1359" r="15.1422" transform="matrix(-0.746009 0.665936 0.665936 0.746009 687.504 659.4)" fill="#04141C" stroke="#0D2937" stroke-width="1.98737"/>
<circle cx="38.5307" cy="38.5307" r="37.537" transform="matrix(-0.746009 0.665936 0.665936 0.746009 746.781 576.468)" fill="#04141C" stroke="#0D2937" stroke-width="1.98737"/>
<circle cx="38.5307" cy="38.5307" r="37.537" transform="matrix(-0.746009 0.665936 0.665936 0.746009 631.809 679.098)" fill="#04141C" stroke="#0D2937" stroke-width="1.98737"/>
<circle cx="30.9468" cy="30.9468" r="29.9532" transform="matrix(-0.746009 0.665936 0.665936 0.746009 631.203 689.805)" fill="#04141C" stroke="#0D2937" stroke-width="1.98737"/>
<circle cx="23.3842" cy="23.3842" r="22.3905" transform="matrix(-0.746009 0.665936 0.665936 0.746009 630.598 700.482)" fill="#04141C" stroke="#0D2937" stroke-width="1.98737"/>
<circle cx="16.1359" cy="16.1359" r="15.1422" transform="matrix(-0.746009 0.665936 0.665936 0.746009 630.016 710.718)" fill="#04141C" stroke="#0D2937" stroke-width="1.98737"/>
<circle cx="38.5307" cy="38.5307" r="37.537" transform="matrix(-0.746009 0.665936 0.665936 0.746009 677.051 671.931)" fill="#04141C" stroke="#0D2937" stroke-width="1.98737"/>
<circle cx="30.9468" cy="30.9468" r="29.9532" transform="matrix(-0.746009 0.665936 0.665936 0.746009 676.445 682.637)" fill="#04141C" stroke="#0D2937" stroke-width="1.98737"/>
<circle cx="23.3842" cy="23.3842" r="22.3905" transform="matrix(-0.746009 0.665936 0.665936 0.746009 675.84 693.314)" fill="#04141C" stroke="#0D2937" stroke-width="1.98737"/>
<circle cx="16.1359" cy="16.1359" r="15.1422" transform="matrix(-0.746009 0.665936 0.665936 0.746009 675.258 703.55)" fill="#04141C" stroke="#0D2937" stroke-width="1.98737"/>
<circle cx="38.5307" cy="38.5307" r="37.537" transform="matrix(-0.746009 0.665936 0.665936 0.746009 734.535 620.615)" fill="#04141C" stroke="#0D2937" stroke-width="1.98737"/>
<circle cx="30.9468" cy="30.9468" r="29.9532" transform="matrix(-0.746009 0.665936 0.665936 0.746009 733.93 631.322)" fill="#04141C" stroke="#0D2937" stroke-width="1.98737"/>
<circle cx="23.3842" cy="23.3842" r="22.3905" transform="matrix(-0.746009 0.665936 0.665936 0.746009 733.324 642)" fill="#04141C" stroke="#0D2937" stroke-width="1.98737"/>
<circle cx="38.5307" cy="38.5307" r="37.537" transform="matrix(-0.746009 0.665936 0.665936 0.746009 304.449 428.47)" fill="#04141C" stroke="#0D2937" stroke-width="1.98737"/>
<circle cx="30.9468" cy="30.9468" r="29.9532" transform="matrix(-0.746009 0.665936 0.665936 0.746009 303.84 439.178)" fill="#04141C" stroke="#0D2937" stroke-width="1.98737"/>
<circle cx="23.3842" cy="23.3842" r="22.3905" transform="matrix(-0.746009 0.665936 0.665936 0.746009 303.234 449.856)" fill="#04141C" stroke="#0D2937" stroke-width="1.98737"/>
<circle cx="16.1359" cy="16.1359" r="15.1422" transform="matrix(-0.746009 0.665936 0.665936 0.746009 302.656 460.09)" fill="#04141C" stroke="#0D2937" stroke-width="1.98737"/>
<circle cx="38.5307" cy="38.5307" r="37.537" transform="matrix(-0.746009 0.665936 0.665936 0.746009 362.824 378.138)" fill="#04141C" stroke="#0D2937" stroke-width="1.98737"/>
<circle cx="30.9468" cy="30.9468" r="29.9532" transform="matrix(-0.746009 0.665936 0.665936 0.746009 362.215 388.846)" fill="#04141C" stroke="#0D2937" stroke-width="1.98737"/>
<circle cx="23.3842" cy="23.3842" r="22.3905" transform="matrix(-0.746009 0.665936 0.665936 0.746009 361.609 399.524)" fill="#04141C" stroke="#0D2937" stroke-width="1.98737"/>
<circle cx="16.1359" cy="16.1359" r="15.1422" transform="matrix(-0.746009 0.665936 0.665936 0.746009 361.031 409.758)" fill="#04141C" stroke="#0D2937" stroke-width="1.98737"/>
<circle cx="38.5307" cy="38.5307" r="37.537" transform="matrix(-0.746009 0.665936 0.665936 0.746009 351.297 423.085)" fill="#04141C" stroke="#0D2937" stroke-width="1.98737"/>
<circle cx="30.9468" cy="30.9468" r="29.9532" transform="matrix(-0.746009 0.665936 0.665936 0.746009 350.688 433.794)" fill="#04141C" stroke="#0D2937" stroke-width="1.98737"/>
<circle cx="23.3842" cy="23.3842" r="22.3905" transform="matrix(-0.746009 0.665936 0.665936 0.746009 350.082 444.471)" fill="#04141C" stroke="#0D2937" stroke-width="1.98737"/>
<circle cx="16.1359" cy="16.1359" r="15.1422" transform="matrix(-0.746009 0.665936 0.665936 0.746009 349.5 454.707)" fill="#04141C" stroke="#0D2937" stroke-width="1.98737"/>
<circle cx="38.5307" cy="38.5307" r="37.537" transform="matrix(-0.746009 0.665936 0.665936 0.746009 293.805 474.405)" fill="#04141C" stroke="#0D2937" stroke-width="1.98737"/>
<circle cx="30.9468" cy="30.9468" r="29.9532" transform="matrix(-0.746009 0.665936 0.665936 0.746009 293.199 485.112)" fill="#04141C" stroke="#0D2937" stroke-width="1.98737"/>
<circle cx="23.3842" cy="23.3842" r="22.3905" transform="matrix(-0.746009 0.665936 0.665936 0.746009 292.59 495.792)" fill="#04141C" stroke="#0D2937" stroke-width="1.98737"/>
<circle cx="16.1359" cy="16.1359" r="15.1422" transform="matrix(-0.746009 0.665936 0.665936 0.746009 292.012 506.025)" fill="#04141C" stroke="#0D2937" stroke-width="1.98737"/>
<circle cx="38.5307" cy="38.5307" r="37.537" transform="matrix(-0.746009 0.665936 0.665936 0.746009 340.855 469.252)" fill="#04141C" stroke="#0D2937" stroke-width="1.98737"/>
<circle cx="30.9468" cy="30.9468" r="29.9532" transform="matrix(-0.746009 0.665936 0.665936 0.746009 340.25 479.959)" fill="#04141C" stroke="#0D2937" stroke-width="1.98737"/>
<circle cx="23.3842" cy="23.3842" r="22.3905" transform="matrix(-0.746009 0.665936 0.665936 0.746009 339.645 490.637)" fill="#04141C" stroke="#0D2937" stroke-width="1.98737"/>
<circle cx="16.1359" cy="16.1359" r="15.1422" transform="matrix(-0.746009 0.665936 0.665936 0.746009 339.062 500.872)" fill="#04141C" stroke="#0D2937" stroke-width="1.98737"/>
<circle cx="38.5307" cy="38.5307" r="37.537" transform="matrix(-0.746009 0.665936 0.665936 0.746009 283.367 520.57)" fill="#04141C" stroke="#0D2937" stroke-width="1.98737"/>
<circle cx="30.9468" cy="30.9468" r="29.9532" transform="matrix(-0.746009 0.665936 0.665936 0.746009 282.76 531.278)" fill="#04141C" stroke="#0D2937" stroke-width="1.98737"/>
<circle cx="23.3842" cy="23.3842" r="22.3905" transform="matrix(-0.746009 0.665936 0.665936 0.746009 282.154 541.956)" fill="#04141C" stroke="#0D2937" stroke-width="1.98737"/>
<circle cx="16.1359" cy="16.1359" r="15.1422" transform="matrix(-0.746009 0.665936 0.665936 0.746009 281.572 552.191)" fill="#04141C" stroke="#0D2937" stroke-width="1.98737"/>
<circle cx="38.5307" cy="38.5307" r="37.537" transform="matrix(-0.746009 0.665936 0.665936 0.746009 398.344 417.935)" fill="#04141C" stroke="#0D2937" stroke-width="1.98737"/>
<circle cx="30.9468" cy="30.9468" r="29.9532" transform="matrix(-0.746009 0.665936 0.665936 0.746009 397.738 428.64)" fill="#04141C" stroke="#0D2937" stroke-width="1.98737"/>
<circle cx="23.3842" cy="23.3842" r="22.3905" transform="matrix(-0.746009 0.665936 0.665936 0.746009 397.129 439.319)" fill="#04141C" stroke="#0D2937" stroke-width="1.98737"/>
<circle cx="16.1359" cy="16.1359" r="15.1422" transform="matrix(-0.746009 0.665936 0.665936 0.746009 396.551 449.554)" fill="#04141C" stroke="#0D2937" stroke-width="1.98737"/>
<circle cx="38.5307" cy="38.5307" r="37.537" transform="matrix(-0.746009 0.665936 0.665936 0.746009 386.109 462.089)" fill="#04141C" stroke="#0D2937" stroke-width="1.98737"/>
<circle cx="30.9468" cy="30.9468" r="29.9532" transform="matrix(-0.746009 0.665936 0.665936 0.746009 385.5 472.797)" fill="#04141C" stroke="#0D2937" stroke-width="1.98737"/>
<circle cx="23.3842" cy="23.3842" r="22.3905" transform="matrix(-0.746009 0.665936 0.665936 0.746009 384.898 483.474)" fill="#04141C" stroke="#0D2937" stroke-width="1.98737"/>
<circle cx="16.1359" cy="16.1359" r="15.1422" transform="matrix(-0.746009 0.665936 0.665936 0.746009 384.316 493.709)" fill="#04141C" stroke="#0D2937" stroke-width="1.98737"/>
<circle cx="38.5307" cy="38.5307" r="37.537" transform="matrix(-0.746009 0.665936 0.665936 0.746009 328.621 513.406)" fill="#04141C" stroke="#0D2937" stroke-width="1.98737"/>
<circle cx="30.9468" cy="30.9468" r="29.9532" transform="matrix(-0.746009 0.665936 0.665936 0.746009 328.016 524.114)" fill="#04141C" stroke="#0D2937" stroke-width="1.98737"/>
<circle cx="23.3842" cy="23.3842" r="22.3905" transform="matrix(-0.746009 0.665936 0.665936 0.746009 327.41 534.791)" fill="#04141C" stroke="#0D2937" stroke-width="1.98737"/>
<circle cx="16.1359" cy="16.1359" r="15.1422" transform="matrix(-0.746009 0.665936 0.665936 0.746009 326.828 545.027)" fill="#04141C" stroke="#0D2937" stroke-width="1.98737"/>
<circle cx="38.5307" cy="38.5307" r="37.537" transform="matrix(-0.746009 0.665936 0.665936 0.746009 373.867 506.234)" fill="#04141C" stroke="#0D2937" stroke-width="1.98737"/>
<circle cx="30.9468" cy="30.9468" r="29.9532" transform="matrix(-0.746009 0.665936 0.665936 0.746009 373.258 516.942)" fill="#04141C" stroke="#0D2937" stroke-width="1.98737"/>
<circle cx="23.3842" cy="23.3842" r="22.3905" transform="matrix(-0.746009 0.665936 0.665936 0.746009 372.652 527.621)" fill="#04141C" stroke="#0D2937" stroke-width="1.98737"/>
<circle cx="16.1359" cy="16.1359" r="15.1422" transform="matrix(-0.746009 0.665936 0.665936 0.746009 372.074 537.854)" fill="#04141C" stroke="#0D2937" stroke-width="1.98737"/>
<circle cx="38.5307" cy="38.5307" r="37.537" transform="matrix(-0.746009 0.665936 0.665936 0.746009 431.355 454.92)" fill="#04141C" stroke="#0D2937" stroke-width="1.98737"/>
<circle cx="30.9468" cy="30.9468" r="29.9532" transform="matrix(-0.746009 0.665936 0.665936 0.746009 430.75 465.627)" fill="#04141C" stroke="#0D2937" stroke-width="1.98737"/>
<circle cx="23.3842" cy="23.3842" r="22.3905" transform="matrix(-0.746009 0.665936 0.665936 0.746009 430.145 476.304)" fill="#04141C" stroke="#0D2937" stroke-width="1.98737"/>
<circle cx="16.1359" cy="16.1359" r="15.1422" transform="matrix(-0.746009 0.665936 0.665936 0.746009 429.562 486.539)" fill="#04141C" stroke="#0D2937" stroke-width="1.98737"/>
<circle cx="38.5307" cy="38.5307" r="37.537" transform="matrix(-0.746009 0.665936 0.665936 0.746009 74.4941 633.743)" fill="#04141C" stroke="#0D2937" stroke-width="1.98737"/>
<circle cx="30.9468" cy="30.9468" r="29.9532" transform="matrix(-0.746009 0.665936 0.665936 0.746009 73.8867 644.45)" fill="#04141C" stroke="#0D2937" stroke-width="1.98737"/>
<circle cx="23.3842" cy="23.3842" r="22.3905" transform="matrix(-0.746009 0.665936 0.665936 0.746009 73.2793 655.13)" fill="#04141C" stroke="#0D2937" stroke-width="1.98737"/>
<circle cx="16.1359" cy="16.1359" r="15.1422" transform="matrix(-0.746009 0.665936 0.665936 0.746009 72.6992 665.363)" fill="#04141C" stroke="#0D2937" stroke-width="1.98737"/>
<circle cx="38.5307" cy="38.5307" r="37.537" transform="matrix(-0.746009 0.665936 0.665936 0.746009 17.0234 685.045)" fill="#04141C" stroke="#0D2937" stroke-width="1.98737"/>
<circle cx="30.9468" cy="30.9468" r="29.9532" transform="matrix(-0.746009 0.665936 0.665936 0.746009 16.416 695.753)" fill="#04141C" stroke="#0D2937" stroke-width="1.98737"/>
<circle cx="23.3842" cy="23.3842" r="22.3905" transform="matrix(-0.746009 0.665936 0.665936 0.746009 15.8105 706.431)" fill="#04141C" stroke="#0D2937" stroke-width="1.98737"/>
<circle cx="16.1359" cy="16.1359" r="15.1422" transform="matrix(-0.746009 0.665936 0.665936 0.746009 15.2305 716.664)" fill="#04141C" stroke="#0D2937" stroke-width="1.98737"/>
<circle cx="38.5307" cy="38.5307" r="37.537" transform="matrix(-0.746009 0.665936 0.665936 0.746009 178.834 577.037)" fill="#04141C" stroke="#0D2937" stroke-width="1.98737"/>
<circle cx="30.9468" cy="30.9468" r="29.9532" transform="matrix(-0.746009 0.665936 0.665936 0.746009 178.225 587.747)" fill="#04141C" stroke="#0D2937" stroke-width="1.98737"/>
<circle cx="23.3842" cy="23.3842" r="22.3905" transform="matrix(-0.746009 0.665936 0.665936 0.746009 177.617 598.426)" fill="#04141C" stroke="#0D2937" stroke-width="1.98737"/>
<circle cx="16.1359" cy="16.1359" r="15.1422" transform="matrix(-0.746009 0.665936 0.665936 0.746009 177.037 608.659)" fill="#04141C" stroke="#0D2937" stroke-width="1.98737"/>
<circle cx="38.5307" cy="38.5307" r="37.537" transform="matrix(-0.746009 0.665936 0.665936 0.746009 63.8516 679.678)" fill="#04141C" stroke="#0D2937" stroke-width="1.98737"/>
<circle cx="30.9468" cy="30.9468" r="29.9532" transform="matrix(-0.746009 0.665936 0.665936 0.746009 63.2441 690.386)" fill="#04141C" stroke="#0D2937" stroke-width="1.98737"/>
<circle cx="23.3842" cy="23.3842" r="22.3905" transform="matrix(-0.746009 0.665936 0.665936 0.746009 62.6387 701.062)" fill="#04141C" stroke="#0D2937" stroke-width="1.98737"/>
<circle cx="16.1359" cy="16.1359" r="15.1422" transform="matrix(-0.746009 0.665936 0.665936 0.746009 62.0586 711.297)" fill="#04141C" stroke="#0D2937" stroke-width="1.98737"/>
<circle cx="38.5307" cy="38.5307" r="37.537" transform="matrix(-0.746009 0.665936 0.665936 0.746009 168.393 623.205)" fill="#04141C" stroke="#0D2937" stroke-width="1.98737"/>
<circle cx="30.9468" cy="30.9468" r="29.9532" transform="matrix(-0.746009 0.665936 0.665936 0.746009 167.785 633.912)" fill="#04141C" stroke="#0D2937" stroke-width="1.98737"/>
<circle cx="23.3842" cy="23.3842" r="22.3905" transform="matrix(-0.746009 0.665936 0.665936 0.746009 167.182 644.59)" fill="#04141C" stroke="#0D2937" stroke-width="1.98737"/>
<circle cx="16.1359" cy="16.1359" r="15.1422" transform="matrix(-0.746009 0.665936 0.665936 0.746009 166.598 654.825)" fill="#04141C" stroke="#0D2937" stroke-width="1.98737"/>
<circle cx="38.5307" cy="38.5307" r="37.537" transform="matrix(-0.746009 0.665936 0.665936 0.746009 199.955 645.001)" fill="#04141C" stroke="#0D2937" stroke-width="1.98737"/>
<circle cx="30.9468" cy="30.9468" r="29.9532" transform="matrix(-0.746009 0.665936 0.665936 0.746009 199.348 655.708)" fill="#04141C" stroke="#0D2937" stroke-width="1.98737"/>
<circle cx="23.3842" cy="23.3842" r="22.3905" transform="matrix(-0.746009 0.665936 0.665936 0.746009 198.744 666.386)" fill="#04141C" stroke="#0D2937" stroke-width="1.98737"/>
<circle cx="16.1359" cy="16.1359" r="15.1422" transform="matrix(-0.746009 0.665936 0.665936 0.746009 198.16 676.621)" fill="#04141C" stroke="#0D2937" stroke-width="1.98737"/>
<circle cx="38.5307" cy="38.5307" r="37.537" transform="matrix(-0.746009 0.665936 0.665936 0.746009 110.904 674.523)" fill="#04141C" stroke="#0D2937" stroke-width="1.98737"/>
<circle cx="30.9468" cy="30.9468" r="29.9532" transform="matrix(-0.746009 0.665936 0.665936 0.746009 110.297 685.23)" fill="#04141C" stroke="#0D2937" stroke-width="1.98737"/>
<circle cx="23.3842" cy="23.3842" r="22.3905" transform="matrix(-0.746009 0.665936 0.665936 0.746009 109.693 695.908)" fill="#04141C" stroke="#0D2937" stroke-width="1.98737"/>
<circle cx="16.1359" cy="16.1359" r="15.1422" transform="matrix(-0.746009 0.665936 0.665936 0.746009 109.109 706.144)" fill="#04141C" stroke="#0D2937" stroke-width="1.98737"/>
<circle cx="38.5307" cy="38.5307" r="37.537" transform="matrix(-0.746009 0.665936 0.665936 0.746009 53.4121 725.844)" fill="#04141C" stroke="#0D2937" stroke-width="1.98737"/>
<circle cx="30.9468" cy="30.9468" r="29.9532" transform="matrix(-0.746009 0.665936 0.665936 0.746009 52.8047 736.551)" fill="#04141C" stroke="#0D2937" stroke-width="1.98737"/>
<circle cx="38.5307" cy="38.5307" r="37.537" transform="matrix(-0.746009 0.665936 0.665936 0.746009 225.881 571.888)" fill="#04141C" stroke="#0D2937" stroke-width="1.98737"/>
<circle cx="30.9468" cy="30.9468" r="29.9532" transform="matrix(-0.746009 0.665936 0.665936 0.746009 225.271 582.596)" fill="#04141C" stroke="#0D2937" stroke-width="1.98737"/>
<circle cx="23.3842" cy="23.3842" r="22.3905" transform="matrix(-0.746009 0.665936 0.665936 0.746009 224.668 593.273)" fill="#04141C" stroke="#0D2937" stroke-width="1.98737"/>
<circle cx="16.1359" cy="16.1359" r="15.1422" transform="matrix(-0.746009 0.665936 0.665936 0.746009 224.086 603.508)" fill="#04141C" stroke="#0D2937" stroke-width="1.98737"/>
<circle cx="38.5307" cy="38.5307" r="37.537" transform="matrix(-0.746009 0.665936 0.665936 0.746009 213.646 616.042)" fill="#04141C" stroke="#0D2937" stroke-width="1.98737"/>
<circle cx="30.9468" cy="30.9468" r="29.9532" transform="matrix(-0.746009 0.665936 0.665936 0.746009 213.039 626.75)" fill="#04141C" stroke="#0D2937" stroke-width="1.98737"/>
<circle cx="23.3842" cy="23.3842" r="22.3905" transform="matrix(-0.746009 0.665936 0.665936 0.746009 212.432 637.429)" fill="#04141C" stroke="#0D2937" stroke-width="1.98737"/>
<circle cx="16.1359" cy="16.1359" r="15.1422" transform="matrix(-0.746009 0.665936 0.665936 0.746009 211.852 647.662)" fill="#04141C" stroke="#0D2937" stroke-width="1.98737"/>
<circle cx="38.5307" cy="38.5307" r="37.537" transform="matrix(-0.746009 0.665936 0.665936 0.746009 98.6855 718.663)" fill="#04141C" stroke="#0D2937" stroke-width="1.98737"/>
<circle cx="30.9468" cy="30.9468" r="29.9532" transform="matrix(-0.746009 0.665936 0.665936 0.746009 98.0762 729.372)" fill="#04141C" stroke="#0D2937" stroke-width="1.98737"/>
<circle cx="23.3842" cy="23.3842" r="22.3905" transform="matrix(-0.746009 0.665936 0.665936 0.746009 97.4727 740.05)" fill="#04141C" stroke="#0D2937" stroke-width="1.98737"/>
<circle cx="38.5307" cy="38.5307" r="37.537" transform="matrix(-0.746009 0.665936 0.665936 0.746009 143.916 711.506)" fill="#04141C" stroke="#0D2937" stroke-width="1.98737"/>
<circle cx="30.9468" cy="30.9468" r="29.9532" transform="matrix(-0.746009 0.665936 0.665936 0.746009 143.307 722.215)" fill="#04141C" stroke="#0D2937" stroke-width="1.98737"/>
<circle cx="23.3842" cy="23.3842" r="22.3905" transform="matrix(-0.746009 0.665936 0.665936 0.746009 142.701 732.893)" fill="#04141C" stroke="#0D2937" stroke-width="1.98737"/>
<circle cx="38.5307" cy="38.5307" r="37.537" transform="matrix(-0.746009 0.665936 0.665936 0.746009 269.535 562.935)" fill="#04141C" stroke="#0D2937" stroke-width="1.98737"/>
<circle cx="30.9468" cy="30.9468" r="29.9532" transform="matrix(-0.746009 0.665936 0.665936 0.746009 268.93 573.642)" fill="#04141C" stroke="#0D2937" stroke-width="1.98737"/>
<circle cx="23.3842" cy="23.3842" r="22.3905" transform="matrix(-0.746009 0.665936 0.665936 0.746009 268.322 584.32)" fill="#04141C" stroke="#0D2937" stroke-width="1.98737"/>
<circle cx="16.1359" cy="16.1359" r="15.1422" transform="matrix(-0.746009 0.665936 0.665936 0.746009 267.742 594.554)" fill="#04141C" stroke="#0D2937" stroke-width="1.98737"/>
<circle cx="38.5307" cy="38.5307" r="37.537" transform="matrix(-0.746009 0.665936 0.665936 0.746009 316.383 557.55)" fill="#04141C" stroke="#0D2937" stroke-width="1.98737"/>
<circle cx="30.9468" cy="30.9468" r="29.9532" transform="matrix(-0.746009 0.665936 0.665936 0.746009 315.773 568.258)" fill="#04141C" stroke="#0D2937" stroke-width="1.98737"/>
<circle cx="23.3842" cy="23.3842" r="22.3905" transform="matrix(-0.746009 0.665936 0.665936 0.746009 315.168 578.937)" fill="#04141C" stroke="#0D2937" stroke-width="1.98737"/>
<circle cx="16.1359" cy="16.1359" r="15.1422" transform="matrix(-0.746009 0.665936 0.665936 0.746009 314.59 589.17)" fill="#04141C" stroke="#0D2937" stroke-width="1.98737"/>
<circle cx="38.5307" cy="38.5307" r="37.537" transform="matrix(-0.746009 0.665936 0.665936 0.746009 258.895 608.867)" fill="#04141C" stroke="#0D2937" stroke-width="1.98737"/>
<circle cx="30.9468" cy="30.9468" r="29.9532" transform="matrix(-0.746009 0.665936 0.665936 0.746009 258.285 619.577)" fill="#04141C" stroke="#0D2937" stroke-width="1.98737"/>
<circle cx="23.3842" cy="23.3842" r="22.3905" transform="matrix(-0.746009 0.665936 0.665936 0.746009 257.68 630.254)" fill="#04141C" stroke="#0D2937" stroke-width="1.98737"/>
<circle cx="16.1359" cy="16.1359" r="15.1422" transform="matrix(-0.746009 0.665936 0.665936 0.746009 257.1 640.487)" fill="#04141C" stroke="#0D2937" stroke-width="1.98737"/>
<circle cx="38.5307" cy="38.5307" r="37.537" transform="matrix(-0.746009 0.665936 0.665936 0.746009 305.945 603.715)" fill="#04141C" stroke="#0D2937" stroke-width="1.98737"/>
<circle cx="30.9468" cy="30.9468" r="29.9532" transform="matrix(-0.746009 0.665936 0.665936 0.746009 305.336 614.423)" fill="#04141C" stroke="#0D2937" stroke-width="1.98737"/>
<circle cx="23.3842" cy="23.3842" r="22.3905" transform="matrix(-0.746009 0.665936 0.665936 0.746009 304.73 625.102)" fill="#04141C" stroke="#0D2937" stroke-width="1.98737"/>
<circle cx="16.1359" cy="16.1359" r="15.1422" transform="matrix(-0.746009 0.665936 0.665936 0.746009 304.152 635.335)" fill="#04141C" stroke="#0D2937" stroke-width="1.98737"/>
<circle cx="38.5307" cy="38.5307" r="37.537" transform="matrix(-0.746009 0.665936 0.665936 0.746009 248.455 655.033)" fill="#04141C" stroke="#0D2937" stroke-width="1.98737"/>
<circle cx="30.9468" cy="30.9468" r="29.9532" transform="matrix(-0.746009 0.665936 0.665936 0.746009 247.846 665.742)" fill="#04141C" stroke="#0D2937" stroke-width="1.98737"/>
<circle cx="23.3842" cy="23.3842" r="22.3905" transform="matrix(-0.746009 0.665936 0.665936 0.746009 247.242 676.42)" fill="#04141C" stroke="#0D2937" stroke-width="1.98737"/>
<circle cx="16.1359" cy="16.1359" r="15.1422" transform="matrix(-0.746009 0.665936 0.665936 0.746009 246.662 686.653)" fill="#04141C" stroke="#0D2937" stroke-width="1.98737"/>
<circle cx="38.5307" cy="38.5307" r="37.537" transform="matrix(-0.746009 0.665936 0.665936 0.746009 363.434 552.397)" fill="#04141C" stroke="#0D2937" stroke-width="1.98737"/>
<circle cx="30.9468" cy="30.9468" r="29.9532" transform="matrix(-0.746009 0.665936 0.665936 0.746009 362.824 563.104)" fill="#04141C" stroke="#0D2937" stroke-width="1.98737"/>
<circle cx="23.3842" cy="23.3842" r="22.3905" transform="matrix(-0.746009 0.665936 0.665936 0.746009 362.219 573.782)" fill="#04141C" stroke="#0D2937" stroke-width="1.98737"/>
<circle cx="16.1359" cy="16.1359" r="15.1422" transform="matrix(-0.746009 0.665936 0.665936 0.746009 361.641 584.017)" fill="#04141C" stroke="#0D2937" stroke-width="1.98737"/>
<circle cx="38.5307" cy="38.5307" r="37.537" transform="matrix(-0.746009 0.665936 0.665936 0.746009 190.98 706.337)" fill="#04141C" stroke="#0D2937" stroke-width="1.98737"/>
<circle cx="30.9468" cy="30.9468" r="29.9532" transform="matrix(-0.746009 0.665936 0.665936 0.746009 190.371 717.046)" fill="#04141C" stroke="#0D2937" stroke-width="1.98737"/>
<circle cx="23.3842" cy="23.3842" r="22.3905" transform="matrix(-0.746009 0.665936 0.665936 0.746009 189.768 727.724)" fill="#04141C" stroke="#0D2937" stroke-width="1.98737"/>
<circle cx="16.1359" cy="16.1359" r="15.1422" transform="matrix(-0.746009 0.665936 0.665936 0.746009 189.184 737.959)" fill="#04141C" stroke="#0D2937" stroke-width="1.98737"/>
<circle cx="38.5307" cy="38.5307" r="37.537" transform="matrix(-0.746009 0.665936 0.665936 0.746009 420.914 501.085)" fill="#04141C" stroke="#0D2937" stroke-width="1.98737"/>
<circle cx="30.9468" cy="30.9468" r="29.9532" transform="matrix(-0.746009 0.665936 0.665936 0.746009 420.305 511.794)" fill="#04141C" stroke="#0D2937" stroke-width="1.98737"/>
<circle cx="23.3842" cy="23.3842" r="22.3905" transform="matrix(-0.746009 0.665936 0.665936 0.746009 419.699 522.472)" fill="#04141C" stroke="#0D2937" stroke-width="1.98737"/>
<circle cx="16.1359" cy="16.1359" r="15.1422" transform="matrix(-0.746009 0.665936 0.665936 0.746009 419.121 532.705)" fill="#04141C" stroke="#0D2937" stroke-width="1.98737"/>
<circle cx="38.5307" cy="38.5307" r="37.537" transform="matrix(-0.746009 0.665936 0.665936 0.746009 351.199 596.552)" fill="#04141C" stroke="#0D2937" stroke-width="1.98737"/>
<circle cx="30.9468" cy="30.9468" r="29.9532" transform="matrix(-0.746009 0.665936 0.665936 0.746009 350.59 607.26)" fill="#04141C" stroke="#0D2937" stroke-width="1.98737"/>
<circle cx="23.3842" cy="23.3842" r="22.3905" transform="matrix(-0.746009 0.665936 0.665936 0.746009 349.984 617.938)" fill="#04141C" stroke="#0D2937" stroke-width="1.98737"/>
<circle cx="16.1359" cy="16.1359" r="15.1422" transform="matrix(-0.746009 0.665936 0.665936 0.746009 349.402 628.173)" fill="#04141C" stroke="#0D2937" stroke-width="1.98737"/>
<circle cx="38.5307" cy="38.5307" r="37.537" transform="matrix(-0.746009 0.665936 0.665936 0.746009 408.68 545.239)" fill="#04141C" stroke="#0D2937" stroke-width="1.98737"/>
<circle cx="30.9468" cy="30.9468" r="29.9532" transform="matrix(-0.746009 0.665936 0.665936 0.746009 408.074 555.946)" fill="#04141C" stroke="#0D2937" stroke-width="1.98737"/>
<circle cx="23.3842" cy="23.3842" r="22.3905" transform="matrix(-0.746009 0.665936 0.665936 0.746009 407.469 566.624)" fill="#04141C" stroke="#0D2937" stroke-width="1.98737"/>
<circle cx="16.1359" cy="16.1359" r="15.1422" transform="matrix(-0.746009 0.665936 0.665936 0.746009 406.887 576.859)" fill="#04141C" stroke="#0D2937" stroke-width="1.98737"/>
<circle cx="38.5307" cy="38.5307" r="37.537" transform="matrix(-0.746009 0.665936 0.665936 0.746009 466.176 493.916)" fill="#04141C" stroke="#0D2937" stroke-width="1.98737"/>
<circle cx="30.9468" cy="30.9468" r="29.9532" transform="matrix(-0.746009 0.665936 0.665936 0.746009 465.57 504.624)" fill="#04141C" stroke="#0D2937" stroke-width="1.98737"/>
<circle cx="23.3842" cy="23.3842" r="22.3905" transform="matrix(-0.746009 0.665936 0.665936 0.746009 464.961 515.303)" fill="#04141C" stroke="#0D2937" stroke-width="1.98737"/>
<circle cx="16.1359" cy="16.1359" r="15.1422" transform="matrix(-0.746009 0.665936 0.665936 0.746009 464.383 525.536)" fill="#04141C" stroke="#0D2937" stroke-width="1.98737"/>
<circle cx="38.5307" cy="38.5307" r="37.537" transform="matrix(-0.746009 0.665936 0.665936 0.746009 293.711 647.869)" fill="#04141C" stroke="#0D2937" stroke-width="1.98737"/>
<circle cx="30.9468" cy="30.9468" r="29.9532" transform="matrix(-0.746009 0.665936 0.665936 0.746009 293.102 658.579)" fill="#04141C" stroke="#0D2937" stroke-width="1.98737"/>
<circle cx="23.3842" cy="23.3842" r="22.3905" transform="matrix(-0.746009 0.665936 0.665936 0.746009 292.496 669.256)" fill="#04141C" stroke="#0D2937" stroke-width="1.98737"/>
<circle cx="16.1359" cy="16.1359" r="15.1422" transform="matrix(-0.746009 0.665936 0.665936 0.746009 291.918 679.489)" fill="#04141C" stroke="#0D2937" stroke-width="1.98737"/>
<circle cx="38.5307" cy="38.5307" r="37.537" transform="matrix(-0.746009 0.665936 0.665936 0.746009 236.229 699.183)" fill="#04141C" stroke="#0D2937" stroke-width="1.98737"/>
<circle cx="30.9468" cy="30.9468" r="29.9532" transform="matrix(-0.746009 0.665936 0.665936 0.746009 235.623 709.889)" fill="#04141C" stroke="#0D2937" stroke-width="1.98737"/>
<circle cx="23.3842" cy="23.3842" r="22.3905" transform="matrix(-0.746009 0.665936 0.665936 0.746009 235.016 720.567)" fill="#04141C" stroke="#0D2937" stroke-width="1.98737"/>
<circle cx="16.1359" cy="16.1359" r="15.1422" transform="matrix(-0.746009 0.665936 0.665936 0.746009 234.436 730.802)" fill="#04141C" stroke="#0D2937" stroke-width="1.98737"/>
<circle cx="38.5307" cy="38.5307" r="37.537" transform="matrix(-0.746009 0.665936 0.665936 0.746009 338.953 640.7)" fill="#04141C" stroke="#0D2937" stroke-width="1.98737"/>
<circle cx="30.9468" cy="30.9468" r="29.9532" transform="matrix(-0.746009 0.665936 0.665936 0.746009 338.348 651.406)" fill="#04141C" stroke="#0D2937" stroke-width="1.98737"/>
<circle cx="23.3842" cy="23.3842" r="22.3905" transform="matrix(-0.746009 0.665936 0.665936 0.746009 337.742 662.084)" fill="#04141C" stroke="#0D2937" stroke-width="1.98737"/>
<circle cx="16.1359" cy="16.1359" r="15.1422" transform="matrix(-0.746009 0.665936 0.665936 0.746009 337.16 672.319)" fill="#04141C" stroke="#0D2937" stroke-width="1.98737"/>
<circle cx="38.5307" cy="38.5307" r="37.537" transform="matrix(-0.746009 0.665936 0.665936 0.746009 396.438 589.387)" fill="#04141C" stroke="#0D2937" stroke-width="1.98737"/>
<circle cx="30.9468" cy="30.9468" r="29.9532" transform="matrix(-0.746009 0.665936 0.665936 0.746009 395.832 600.093)" fill="#04141C" stroke="#0D2937" stroke-width="1.98737"/>
<circle cx="23.3842" cy="23.3842" r="22.3905" transform="matrix(-0.746009 0.665936 0.665936 0.746009 395.227 610.771)" fill="#04141C" stroke="#0D2937" stroke-width="1.98737"/>
<circle cx="16.1359" cy="16.1359" r="15.1422" transform="matrix(-0.746009 0.665936 0.665936 0.746009 394.645 621.006)" fill="#04141C" stroke="#0D2937" stroke-width="1.98737"/>
<circle cx="38.5307" cy="38.5307" r="37.537" transform="matrix(-0.746009 0.665936 0.665936 0.746009 453.926 538.067)" fill="#04141C" stroke="#0D2937" stroke-width="1.98737"/>
<circle cx="30.9468" cy="30.9468" r="29.9532" transform="matrix(-0.746009 0.665936 0.665936 0.746009 453.316 548.776)" fill="#04141C" stroke="#0D2937" stroke-width="1.98737"/>
<circle cx="23.3842" cy="23.3842" r="22.3905" transform="matrix(-0.746009 0.665936 0.665936 0.746009 452.715 559.451)" fill="#04141C" stroke="#0D2937" stroke-width="1.98737"/>
<circle cx="16.1359" cy="16.1359" r="15.1422" transform="matrix(-0.746009 0.665936 0.665936 0.746009 452.133 569.688)" fill="#04141C" stroke="#0D2937" stroke-width="1.98737"/>
<circle cx="38.5307" cy="38.5307" r="37.537" transform="matrix(-0.746009 0.665936 0.665936 0.746009 281.475 692.01)" fill="#04141C" stroke="#0D2937" stroke-width="1.98737"/>
<circle cx="30.9468" cy="30.9468" r="29.9532" transform="matrix(-0.746009 0.665936 0.665936 0.746009 280.865 702.719)" fill="#04141C" stroke="#0D2937" stroke-width="1.98737"/>
<circle cx="23.3842" cy="23.3842" r="22.3905" transform="matrix(-0.746009 0.665936 0.665936 0.746009 280.262 713.396)" fill="#04141C" stroke="#0D2937" stroke-width="1.98737"/>
<circle cx="16.1359" cy="16.1359" r="15.1422" transform="matrix(-0.746009 0.665936 0.665936 0.746009 279.682 723.63)" fill="#04141C" stroke="#0D2937" stroke-width="1.98737"/>
<circle cx="38.5307" cy="38.5307" r="37.537" transform="matrix(-0.746009 0.665936 0.665936 0.746009 382.633 631.729)" fill="#04141C" stroke="#0D2937" stroke-width="1.98737"/>
<circle cx="30.9468" cy="30.9468" r="29.9532" transform="matrix(-0.746009 0.665936 0.665936 0.746009 382.023 642.439)" fill="#04141C" stroke="#0D2937" stroke-width="1.98737"/>
<circle cx="23.3842" cy="23.3842" r="22.3905" transform="matrix(-0.746009 0.665936 0.665936 0.746009 381.418 653.116)" fill="#04141C" stroke="#0D2937" stroke-width="1.98737"/>
<circle cx="16.1359" cy="16.1359" r="15.1422" transform="matrix(-0.746009 0.665936 0.665936 0.746009 380.84 663.35)" fill="#04141C" stroke="#0D2937" stroke-width="1.98737"/>
<circle cx="38.5307" cy="38.5307" r="37.537" transform="matrix(-0.746009 0.665936 0.665936 0.746009 440.117 580.418)" fill="#04141C" stroke="#0D2937" stroke-width="1.98737"/>
<circle cx="30.9468" cy="30.9468" r="29.9532" transform="matrix(-0.746009 0.665936 0.665936 0.746009 439.508 591.126)" fill="#04141C" stroke="#0D2937" stroke-width="1.98737"/>
<circle cx="23.3842" cy="23.3842" r="22.3905" transform="matrix(-0.746009 0.665936 0.665936 0.746009 438.906 601.804)" fill="#04141C" stroke="#0D2937" stroke-width="1.98737"/>
<circle cx="16.1359" cy="16.1359" r="15.1422" transform="matrix(-0.746009 0.665936 0.665936 0.746009 438.324 612.037)" fill="#04141C" stroke="#0D2937" stroke-width="1.98737"/>
<circle cx="38.5307" cy="38.5307" r="37.537" transform="matrix(-0.746009 0.665936 0.665936 0.746009 497.605 529.098)" fill="#04141C" stroke="#0D2937" stroke-width="1.98737"/>
<circle cx="30.9468" cy="30.9468" r="29.9532" transform="matrix(-0.746009 0.665936 0.665936 0.746009 496.996 539.807)" fill="#04141C" stroke="#0D2937" stroke-width="1.98737"/>
<circle cx="23.3842" cy="23.3842" r="22.3905" transform="matrix(-0.746009 0.665936 0.665936 0.746009 496.391 550.483)" fill="#04141C" stroke="#0D2937" stroke-width="1.98737"/>
<circle cx="16.1359" cy="16.1359" r="15.1422" transform="matrix(-0.746009 0.665936 0.665936 0.746009 495.812 560.718)" fill="#04141C" stroke="#0D2937" stroke-width="1.98737"/>
<circle cx="38.5307" cy="38.5307" r="37.537" transform="matrix(-0.746009 0.665936 0.665936 0.746009 325.141 683.049)" fill="#04141C" stroke="#0D2937" stroke-width="1.98737"/>
<circle cx="30.9468" cy="30.9468" r="29.9532" transform="matrix(-0.746009 0.665936 0.665936 0.746009 324.531 693.758)" fill="#04141C" stroke="#0D2937" stroke-width="1.98737"/>
<circle cx="23.3842" cy="23.3842" r="22.3905" transform="matrix(-0.746009 0.665936 0.665936 0.746009 323.93 704.435)" fill="#04141C" stroke="#0D2937" stroke-width="1.98737"/>
<circle cx="16.1359" cy="16.1359" r="15.1422" transform="matrix(-0.746009 0.665936 0.665936 0.746009 323.348 714.668)" fill="#04141C" stroke="#0D2937" stroke-width="1.98737"/>
<circle cx="38.5307" cy="38.5307" r="37.537" transform="matrix(-0.746009 0.665936 0.665936 0.746009 267.652 734.372)" fill="#04141C" stroke="#0D2937" stroke-width="1.98737"/>
<circle cx="38.5307" cy="38.5307" r="37.537" transform="matrix(-0.746009 0.665936 0.665936 0.746009 372.191 677.898)" fill="#04141C" stroke="#0D2937" stroke-width="1.98737"/>
<circle cx="30.9468" cy="30.9468" r="29.9532" transform="matrix(-0.746009 0.665936 0.665936 0.746009 371.582 688.606)" fill="#04141C" stroke="#0D2937" stroke-width="1.98737"/>
<circle cx="23.3842" cy="23.3842" r="22.3905" transform="matrix(-0.746009 0.665936 0.665936 0.746009 370.98 699.284)" fill="#04141C" stroke="#0D2937" stroke-width="1.98737"/>
<circle cx="16.1359" cy="16.1359" r="15.1422" transform="matrix(-0.746009 0.665936 0.665936 0.746009 370.398 709.518)" fill="#04141C" stroke="#0D2937" stroke-width="1.98737"/>
<circle cx="38.5307" cy="38.5307" r="37.537" transform="matrix(-0.746009 0.665936 0.665936 0.746009 314.703 729.216)" fill="#04141C" stroke="#0D2937" stroke-width="1.98737"/>
<circle cx="30.9468" cy="30.9468" r="29.9532" transform="matrix(-0.746009 0.665936 0.665936 0.746009 314.094 739.923)" fill="#04141C" stroke="#0D2937" stroke-width="1.98737"/>
<circle cx="38.5307" cy="38.5307" r="37.537" transform="matrix(-0.746009 0.665936 0.665936 0.746009 429.68 626.58)" fill="#04141C" stroke="#0D2937" stroke-width="1.98737"/>
<circle cx="30.9468" cy="30.9468" r="29.9532" transform="matrix(-0.746009 0.665936 0.665936 0.746009 429.07 637.288)" fill="#04141C" stroke="#0D2937" stroke-width="1.98737"/>
<circle cx="23.3842" cy="23.3842" r="22.3905" transform="matrix(-0.746009 0.665936 0.665936 0.746009 428.465 647.967)" fill="#04141C" stroke="#0D2937" stroke-width="1.98737"/>
<circle cx="16.1359" cy="16.1359" r="15.1422" transform="matrix(-0.746009 0.665936 0.665936 0.746009 427.887 658.2)" fill="#04141C" stroke="#0D2937" stroke-width="1.98737"/>
<circle cx="38.5307" cy="38.5307" r="37.537" transform="matrix(-0.746009 0.665936 0.665936 0.746009 487.168 575.261)" fill="#04141C" stroke="#0D2937" stroke-width="1.98737"/>
<circle cx="30.9468" cy="30.9468" r="29.9532" transform="matrix(-0.746009 0.665936 0.665936 0.746009 486.559 585.97)" fill="#04141C" stroke="#0D2937" stroke-width="1.98737"/>
<circle cx="23.3842" cy="23.3842" r="22.3905" transform="matrix(-0.746009 0.665936 0.665936 0.746009 485.953 596.647)" fill="#04141C" stroke="#0D2937" stroke-width="1.98737"/>
<circle cx="16.1359" cy="16.1359" r="15.1422" transform="matrix(-0.746009 0.665936 0.665936 0.746009 485.375 606.881)" fill="#04141C" stroke="#0D2937" stroke-width="1.98737"/>
<circle cx="38.5307" cy="38.5307" r="37.537" transform="matrix(-0.746009 0.665936 0.665936 0.746009 417.445 670.734)" fill="#04141C" stroke="#0D2937" stroke-width="1.98737"/>
<circle cx="30.9468" cy="30.9468" r="29.9532" transform="matrix(-0.746009 0.665936 0.665936 0.746009 416.84 681.442)" fill="#04141C" stroke="#0D2937" stroke-width="1.98737"/>
<circle cx="23.3842" cy="23.3842" r="22.3905" transform="matrix(-0.746009 0.665936 0.665936 0.746009 416.234 692.119)" fill="#04141C" stroke="#0D2937" stroke-width="1.98737"/>
<circle cx="16.1359" cy="16.1359" r="15.1422" transform="matrix(-0.746009 0.665936 0.665936 0.746009 415.652 702.354)" fill="#04141C" stroke="#0D2937" stroke-width="1.98737"/>
<circle cx="38.5307" cy="38.5307" r="37.537" transform="matrix(-0.746009 0.665936 0.665936 0.746009 359.957 722.052)" fill="#04141C" stroke="#0D2937" stroke-width="1.98737"/>
<circle cx="30.9468" cy="30.9468" r="29.9532" transform="matrix(-0.746009 0.665936 0.665936 0.746009 359.348 732.761)" fill="#04141C" stroke="#0D2937" stroke-width="1.98737"/>
<circle cx="38.5307" cy="38.5307" r="37.537" transform="matrix(-0.746009 0.665936 0.665936 0.746009 405.203 714.88)" fill="#04141C" stroke="#0D2937" stroke-width="1.98737"/>
<circle cx="30.9468" cy="30.9468" r="29.9532" transform="matrix(-0.746009 0.665936 0.665936 0.746009 404.598 725.587)" fill="#04141C" stroke="#0D2937" stroke-width="1.98737"/>
<circle cx="23.3842" cy="23.3842" r="22.3905" transform="matrix(-0.746009 0.665936 0.665936 0.746009 403.992 736.265)" fill="#04141C" stroke="#0D2937" stroke-width="1.98737"/>
<circle cx="38.5307" cy="38.5307" r="37.537" transform="matrix(-0.746009 0.665936 0.665936 0.746009 469.914 613.799)" fill="#04141C" stroke="#0D2937" stroke-width="1.98737"/>
<circle cx="30.9468" cy="30.9468" r="29.9532" transform="matrix(-0.746009 0.665936 0.665936 0.746009 469.305 624.507)" fill="#04141C" stroke="#0D2937" stroke-width="1.98737"/>
<circle cx="23.3842" cy="23.3842" r="22.3905" transform="matrix(-0.746009 0.665936 0.665936 0.746009 468.699 635.185)" fill="#04141C" stroke="#0D2937" stroke-width="1.98737"/>
<circle cx="16.1359" cy="16.1359" r="15.1422" transform="matrix(-0.746009 0.665936 0.665936 0.746009 468.121 645.419)" fill="#04141C" stroke="#0D2937" stroke-width="1.98737"/>
<circle cx="38.5307" cy="38.5307" r="37.537" transform="matrix(-0.746009 0.665936 0.665936 0.746009 528.289 563.467)" fill="#04141C" stroke="#0D2937" stroke-width="1.98737"/>
<circle cx="30.9468" cy="30.9468" r="29.9532" transform="matrix(-0.746009 0.665936 0.665936 0.746009 527.68 574.175)" fill="#04141C" stroke="#0D2937" stroke-width="1.98737"/>
<circle cx="23.3842" cy="23.3842" r="22.3905" transform="matrix(-0.746009 0.665936 0.665936 0.746009 527.074 584.854)" fill="#04141C" stroke="#0D2937" stroke-width="1.98737"/>
<circle cx="16.1359" cy="16.1359" r="15.1422" transform="matrix(-0.746009 0.665936 0.665936 0.746009 526.496 595.087)" fill="#04141C" stroke="#0D2937" stroke-width="1.98737"/>
<circle cx="38.5307" cy="38.5307" r="37.537" transform="matrix(-0.746009 0.665936 0.665936 0.746009 516.758 608.416)" fill="#04141C" stroke="#0D2937" stroke-width="1.98737"/>
<circle cx="30.9468" cy="30.9468" r="29.9532" transform="matrix(-0.746009 0.665936 0.665936 0.746009 516.152 619.123)" fill="#04141C" stroke="#0D2937" stroke-width="1.98737"/>
<circle cx="23.3842" cy="23.3842" r="22.3905" transform="matrix(-0.746009 0.665936 0.665936 0.746009 515.547 629.802)" fill="#04141C" stroke="#0D2937" stroke-width="1.98737"/>
<circle cx="16.1359" cy="16.1359" r="15.1422" transform="matrix(-0.746009 0.665936 0.665936 0.746009 514.965 640.035)" fill="#04141C" stroke="#0D2937" stroke-width="1.98737"/>
<circle cx="38.5307" cy="38.5307" r="37.537" transform="matrix(-0.746009 0.665936 0.665936 0.746009 459.27 659.733)" fill="#04141C" stroke="#0D2937" stroke-width="1.98737"/>
<circle cx="30.9468" cy="30.9468" r="29.9532" transform="matrix(-0.746009 0.665936 0.665936 0.746009 458.66 670.441)" fill="#04141C" stroke="#0D2937" stroke-width="1.98737"/>
<circle cx="23.3842" cy="23.3842" r="22.3905" transform="matrix(-0.746009 0.665936 0.665936 0.746009 458.055 681.12)" fill="#04141C" stroke="#0D2937" stroke-width="1.98737"/>
<circle cx="16.1359" cy="16.1359" r="15.1422" transform="matrix(-0.746009 0.665936 0.665936 0.746009 457.477 691.354)" fill="#04141C" stroke="#0D2937" stroke-width="1.98737"/>
<circle cx="38.5307" cy="38.5307" r="37.537" transform="matrix(-0.746009 0.665936 0.665936 0.746009 506.32 654.581)" fill="#04141C" stroke="#0D2937" stroke-width="1.98737"/>
<circle cx="30.9468" cy="30.9468" r="29.9532" transform="matrix(-0.746009 0.665936 0.665936 0.746009 505.711 665.288)" fill="#04141C" stroke="#0D2937" stroke-width="1.98737"/>
<circle cx="23.3842" cy="23.3842" r="22.3905" transform="matrix(-0.746009 0.665936 0.665936 0.746009 505.109 675.966)" fill="#04141C" stroke="#0D2937" stroke-width="1.98737"/>
<circle cx="16.1359" cy="16.1359" r="15.1422" transform="matrix(-0.746009 0.665936 0.665936 0.746009 504.527 686.201)" fill="#04141C" stroke="#0D2937" stroke-width="1.98737"/>
<circle cx="38.5307" cy="38.5307" r="37.537" transform="matrix(-0.746009 0.665936 0.665936 0.746009 448.832 705.899)" fill="#04141C" stroke="#0D2937" stroke-width="1.98737"/>
<circle cx="30.9468" cy="30.9468" r="29.9532" transform="matrix(-0.746009 0.665936 0.665936 0.746009 448.227 716.606)" fill="#04141C" stroke="#0D2937" stroke-width="1.98737"/>
<circle cx="23.3842" cy="23.3842" r="22.3905" transform="matrix(-0.746009 0.665936 0.665936 0.746009 447.621 727.284)" fill="#04141C" stroke="#0D2937" stroke-width="1.98737"/>
<circle cx="16.1359" cy="16.1359" r="15.1422" transform="matrix(-0.746009 0.665936 0.665936 0.746009 447.039 737.52)" fill="#04141C" stroke="#0D2937" stroke-width="1.98737"/>
<circle cx="38.5307" cy="38.5307" r="37.537" transform="matrix(-0.746009 0.665936 0.665936 0.746009 563.809 603.264)" fill="#04141C" stroke="#0D2937" stroke-width="1.98737"/>
<circle cx="30.9468" cy="30.9468" r="29.9532" transform="matrix(-0.746009 0.665936 0.665936 0.746009 563.199 613.972)" fill="#04141C" stroke="#0D2937" stroke-width="1.98737"/>
<circle cx="23.3842" cy="23.3842" r="22.3905" transform="matrix(-0.746009 0.665936 0.665936 0.746009 562.594 624.649)" fill="#04141C" stroke="#0D2937" stroke-width="1.98737"/>
<circle cx="16.1359" cy="16.1359" r="15.1422" transform="matrix(-0.746009 0.665936 0.665936 0.746009 562.016 634.883)" fill="#04141C" stroke="#0D2937" stroke-width="1.98737"/>
<circle cx="38.5307" cy="38.5307" r="37.537" transform="matrix(-0.746009 0.665936 0.665936 0.746009 551.574 647.419)" fill="#04141C" stroke="#0D2937" stroke-width="1.98737"/>
<circle cx="30.9468" cy="30.9468" r="29.9532" transform="matrix(-0.746009 0.665936 0.665936 0.746009 550.965 658.127)" fill="#04141C" stroke="#0D2937" stroke-width="1.98737"/>
<circle cx="23.3842" cy="23.3842" r="22.3905" transform="matrix(-0.746009 0.665936 0.665936 0.746009 550.359 668.804)" fill="#04141C" stroke="#0D2937" stroke-width="1.98737"/>
<circle cx="16.1359" cy="16.1359" r="15.1422" transform="matrix(-0.746009 0.665936 0.665936 0.746009 549.781 679.038)" fill="#04141C" stroke="#0D2937" stroke-width="1.98737"/>
<circle cx="38.5307" cy="38.5307" r="37.537" transform="matrix(-0.746009 0.665936 0.665936 0.746009 494.086 698.736)" fill="#04141C" stroke="#0D2937" stroke-width="1.98737"/>
<circle cx="30.9468" cy="30.9468" r="29.9532" transform="matrix(-0.746009 0.665936 0.665936 0.746009 493.477 709.444)" fill="#04141C" stroke="#0D2937" stroke-width="1.98737"/>
<circle cx="23.3842" cy="23.3842" r="22.3905" transform="matrix(-0.746009 0.665936 0.665936 0.746009 492.875 720.121)" fill="#04141C" stroke="#0D2937" stroke-width="1.98737"/>
<circle cx="16.1359" cy="16.1359" r="15.1422" transform="matrix(-0.746009 0.665936 0.665936 0.746009 492.293 730.356)" fill="#04141C" stroke="#0D2937" stroke-width="1.98737"/>
<circle cx="38.5307" cy="38.5307" r="37.537" transform="matrix(-0.746009 0.665936 0.665936 0.746009 539.332 691.563)" fill="#04141C" stroke="#0D2937" stroke-width="1.98737"/>
<circle cx="30.9468" cy="30.9468" r="29.9532" transform="matrix(-0.746009 0.665936 0.665936 0.746009 538.723 702.271)" fill="#04141C" stroke="#0D2937" stroke-width="1.98737"/>
<circle cx="23.3842" cy="23.3842" r="22.3905" transform="matrix(-0.746009 0.665936 0.665936 0.746009 538.117 712.95)" fill="#04141C" stroke="#0D2937" stroke-width="1.98737"/>
<circle cx="16.1359" cy="16.1359" r="15.1422" transform="matrix(-0.746009 0.665936 0.665936 0.746009 537.539 723.184)" fill="#04141C" stroke="#0D2937" stroke-width="1.98737"/>
<circle cx="38.5307" cy="38.5307" r="37.537" transform="matrix(-0.746009 0.665936 0.665936 0.746009 596.816 640.249)" fill="#04141C" stroke="#0D2937" stroke-width="1.98737"/>
<circle cx="30.9468" cy="30.9468" r="29.9532" transform="matrix(-0.746009 0.665936 0.665936 0.746009 596.207 650.957)" fill="#04141C" stroke="#0D2937" stroke-width="1.98737"/>
<circle cx="23.3842" cy="23.3842" r="22.3905" transform="matrix(-0.746009 0.665936 0.665936 0.746009 595.605 661.633)" fill="#04141C" stroke="#0D2937" stroke-width="1.98737"/>
<circle cx="16.1359" cy="16.1359" r="15.1422" transform="matrix(-0.746009 0.665936 0.665936 0.746009 595.023 671.869)" fill="#04141C" stroke="#0D2937" stroke-width="1.98737"/>
<circle cx="38.5307" cy="38.5307" r="37.537" transform="matrix(-0.746009 0.665936 0.665936 0.746009 481.852 742.879)" fill="#04141C" stroke="#0D2937" stroke-width="1.98737"/>
<circle cx="38.5307" cy="38.5307" r="37.537" transform="matrix(-0.746009 0.665936 0.665936 0.746009 528.902 737.727)" fill="#04141C" stroke="#0D2937" stroke-width="1.98737"/>
<circle cx="38.5307" cy="38.5307" r="37.537" transform="matrix(-0.746009 0.665936 0.665936 0.746009 586.383 686.414)" fill="#04141C" stroke="#0D2937" stroke-width="1.98737"/>
<circle cx="30.9468" cy="30.9468" r="29.9532" transform="matrix(-0.746009 0.665936 0.665936 0.746009 585.773 697.122)" fill="#04141C" stroke="#0D2937" stroke-width="1.98737"/>
<circle cx="23.3842" cy="23.3842" r="22.3905" transform="matrix(-0.746009 0.665936 0.665936 0.746009 585.168 707.801)" fill="#04141C" stroke="#0D2937" stroke-width="1.98737"/>
<circle cx="16.1359" cy="16.1359" r="15.1422" transform="matrix(-0.746009 0.665936 0.665936 0.746009 584.59 718.034)" fill="#04141C" stroke="#0D2937" stroke-width="1.98737"/>
<circle cx="38.5307" cy="38.5307" r="37.537" transform="matrix(-0.746009 0.665936 0.665936 0.746009 574.148 730.568)" fill="#04141C" stroke="#0D2937" stroke-width="1.98737"/>
<circle cx="30.9468" cy="30.9468" r="29.9532" transform="matrix(-0.746009 0.665936 0.665936 0.746009 573.543 741.275)" fill="#04141C" stroke="#0D2937" stroke-width="1.98737"/>
<circle cx="38.5307" cy="38.5307" r="37.537" transform="matrix(-0.746009 0.665936 0.665936 0.746009 631.645 679.244)" fill="#04141C" stroke="#0D2937" stroke-width="1.98737"/>
<circle cx="30.9468" cy="30.9468" r="29.9532" transform="matrix(-0.746009 0.665936 0.665936 0.746009 631.035 689.952)" fill="#04141C" stroke="#0D2937" stroke-width="1.98737"/>
<circle cx="23.3842" cy="23.3842" r="22.3905" transform="matrix(-0.746009 0.665936 0.665936 0.746009 630.43 700.631)" fill="#04141C" stroke="#0D2937" stroke-width="1.98737"/>
<circle cx="16.1359" cy="16.1359" r="15.1422" transform="matrix(-0.746009 0.665936 0.665936 0.746009 629.852 710.864)" fill="#04141C" stroke="#0D2937" stroke-width="1.98737"/>
<circle cx="38.5307" cy="38.5307" r="37.537" transform="matrix(-0.746009 0.665936 0.665936 0.746009 619.395 723.396)" fill="#04141C" stroke="#0D2937" stroke-width="1.98737"/>
<circle cx="30.9468" cy="30.9468" r="29.9532" transform="matrix(-0.746009 0.665936 0.665936 0.746009 618.785 734.104)" fill="#04141C" stroke="#0D2937" stroke-width="1.98737"/>
</g>
</g>
<defs>
<linearGradient id="paint0_linear_1117_22482" x1="448.87" y1="-6.7312e-07" x2="457.323" y2="539.733" gradientUnits="userSpaceOnUse">
<stop stop-color="#D9D9D9"/>
<stop offset="1" stop-color="#737373" stop-opacity="0"/>
</linearGradient>
<clipPath id="clip0_1117_22482">
<rect width="699" height="743" fill="white" transform="translate(0.472656)"/>
</clipPath>
</defs>
</svg>
