<svg width="699" height="743" viewBox="0 0 699 743" fill="none" xmlns="http://www.w3.org/2000/svg">
<g clip-path="url(#clip0_1104_63654)">
<mask id="mask0_1104_63654" style="mask-type:alpha" maskUnits="userSpaceOnUse" x="22" y="-22" width="1118" height="1100">
<rect x="-0.0261208" y="0.460596" width="897.087" height="671.348" transform="matrix(-0.746009 0.665936 0.665936 0.746009 691.366 -21.8656)" fill="url(#paint0_linear_1104_63654)" stroke="#B12C2E" stroke-width="0.652427"/>
</mask>
<g mask="url(#mask0_1104_63654)">
<circle cx="38.5307" cy="38.5307" r="37.537" transform="matrix(-0.746009 0.665936 0.665936 0.746009 649.055 120.427)" fill="#280505" stroke="#890C02" stroke-width="1.98737"/>
<circle cx="30.9468" cy="30.9468" r="29.9532" transform="matrix(-0.746009 0.665936 0.665936 0.746009 648.445 131.135)" fill="#280505" stroke="#890C02" stroke-width="1.98737"/>
<circle cx="23.3842" cy="23.3842" r="22.3905" transform="matrix(-0.746009 0.665936 0.665936 0.746009 647.844 141.813)" fill="#280505" stroke="#890C02" stroke-width="1.98737"/>
<circle cx="16.1359" cy="16.1359" r="15.1422" transform="matrix(-0.746009 0.665936 0.665936 0.746009 647.258 152.047)" fill="#280505" stroke="#890C02" stroke-width="1.98737"/>
<circle cx="38.5307" cy="38.5307" r="37.537" transform="matrix(-0.746009 0.665936 0.665936 0.746009 707.43 70.0957)" fill="#280505" stroke="#890C02" stroke-width="1.98737"/>
<circle cx="30.9468" cy="30.9468" r="29.9532" transform="matrix(-0.746009 0.665936 0.665936 0.746009 706.82 80.8027)" fill="#280505" stroke="#890C02" stroke-width="1.98737"/>
<circle cx="23.3842" cy="23.3842" r="22.3905" transform="matrix(-0.746009 0.665936 0.665936 0.746009 706.219 91.4814)" fill="#280505" stroke="#890C02" stroke-width="1.98737"/>
<circle cx="16.1359" cy="16.1359" r="15.1422" transform="matrix(-0.746009 0.665936 0.665936 0.746009 705.633 101.715)" fill="#280505" stroke="#890C02" stroke-width="1.98737"/>
<circle cx="38.5307" cy="38.5307" r="37.537" transform="matrix(-0.746009 0.665936 0.665936 0.746009 695.906 115.042)" fill="#280505" stroke="#890C02" stroke-width="1.98737"/>
<circle cx="30.9468" cy="30.9468" r="29.9532" transform="matrix(-0.746009 0.665936 0.665936 0.746009 695.297 125.75)" fill="#280505" stroke="#890C02" stroke-width="1.98737"/>
<circle cx="23.3842" cy="23.3842" r="22.3905" transform="matrix(-0.746009 0.665936 0.665936 0.746009 694.695 136.429)" fill="#280505" stroke="#890C02" stroke-width="1.98737"/>
<circle cx="16.1359" cy="16.1359" r="15.1422" transform="matrix(-0.746009 0.665936 0.665936 0.746009 694.109 146.662)" fill="#280505" stroke="#890C02" stroke-width="1.98737"/>
<circle cx="38.5307" cy="38.5307" r="37.537" transform="matrix(-0.746009 0.665936 0.665936 0.746009 638.414 166.359)" fill="#280505" stroke="#890C02" stroke-width="1.98737"/>
<circle cx="30.9468" cy="30.9468" r="29.9532" transform="matrix(-0.746009 0.665936 0.665936 0.746009 637.805 177.069)" fill="#280505" stroke="#890C02" stroke-width="1.98737"/>
<circle cx="23.3842" cy="23.3842" r="22.3905" transform="matrix(-0.746009 0.665936 0.665936 0.746009 637.195 187.748)" fill="#280505" stroke="#890C02" stroke-width="1.98737"/>
<circle cx="16.1359" cy="16.1359" r="15.1422" transform="matrix(-0.746009 0.665936 0.665936 0.746009 636.617 197.982)" fill="#280505" stroke="#890C02" stroke-width="1.98737"/>
<circle cx="38.5307" cy="38.5307" r="37.537" transform="matrix(-0.746009 0.665936 0.665936 0.746009 685.469 161.207)" fill="#280505" stroke="#890C02" stroke-width="1.98737"/>
<circle cx="30.9468" cy="30.9468" r="29.9532" transform="matrix(-0.746009 0.665936 0.665936 0.746009 684.859 171.917)" fill="#280505" stroke="#890C02" stroke-width="1.98737"/>
<circle cx="23.3842" cy="23.3842" r="22.3905" transform="matrix(-0.746009 0.665936 0.665936 0.746009 684.258 182.595)" fill="#280505" stroke="#890C02" stroke-width="1.98737"/>
<circle cx="16.1359" cy="16.1359" r="15.1422" transform="matrix(-0.746009 0.665936 0.665936 0.746009 683.672 192.827)" fill="#280505" stroke="#890C02" stroke-width="1.98737"/>
<circle cx="38.5307" cy="38.5307" r="37.537" transform="matrix(-0.746009 0.665936 0.665936 0.746009 627.977 212.525)" fill="#280505" stroke="#890C02" stroke-width="1.98737"/>
<circle cx="30.9468" cy="30.9468" r="29.9532" transform="matrix(-0.746009 0.665936 0.665936 0.746009 627.367 223.234)" fill="#280505" stroke="#890C02" stroke-width="1.98737"/>
<circle cx="23.3842" cy="23.3842" r="22.3905" transform="matrix(-0.746009 0.665936 0.665936 0.746009 626.766 233.912)" fill="#280505" stroke="#890C02" stroke-width="1.98737"/>
<circle cx="16.1359" cy="16.1359" r="15.1422" transform="matrix(-0.746009 0.665936 0.665936 0.746009 626.18 244.146)" fill="#280505" stroke="#890C02" stroke-width="1.98737"/>
<circle cx="38.5307" cy="38.5307" r="37.537" transform="matrix(-0.746009 0.665936 0.665936 0.746009 742.953 109.891)" fill="#280505" stroke="#890C02" stroke-width="1.98737"/>
<circle cx="30.9468" cy="30.9468" r="29.9532" transform="matrix(-0.746009 0.665936 0.665936 0.746009 742.344 120.598)" fill="#280505" stroke="#890C02" stroke-width="1.98737"/>
<circle cx="38.5307" cy="38.5307" r="37.537" transform="matrix(-0.746009 0.665936 0.665936 0.746009 730.719 154.047)" fill="#280505" stroke="#890C02" stroke-width="1.98737"/>
<circle cx="30.9468" cy="30.9468" r="29.9532" transform="matrix(-0.746009 0.665936 0.665936 0.746009 730.109 164.753)" fill="#280505" stroke="#890C02" stroke-width="1.98737"/>
<circle cx="23.3842" cy="23.3842" r="22.3905" transform="matrix(-0.746009 0.665936 0.665936 0.746009 729.508 175.431)" fill="#280505" stroke="#890C02" stroke-width="1.98737"/>
<circle cx="38.5307" cy="38.5307" r="37.537" transform="matrix(-0.746009 0.665936 0.665936 0.746009 673.234 205.362)" fill="#280505" stroke="#890C02" stroke-width="1.98737"/>
<circle cx="30.9468" cy="30.9468" r="29.9532" transform="matrix(-0.746009 0.665936 0.665936 0.746009 672.625 216.072)" fill="#280505" stroke="#890C02" stroke-width="1.98737"/>
<circle cx="23.3842" cy="23.3842" r="22.3905" transform="matrix(-0.746009 0.665936 0.665936 0.746009 672.023 226.749)" fill="#280505" stroke="#890C02" stroke-width="1.98737"/>
<circle cx="16.1359" cy="16.1359" r="15.1422" transform="matrix(-0.746009 0.665936 0.665936 0.746009 671.438 236.984)" fill="#280505" stroke="#890C02" stroke-width="1.98737"/>
<circle cx="38.5307" cy="38.5307" r="37.537" transform="matrix(-0.746009 0.665936 0.665936 0.746009 718.477 198.192)" fill="#280505" stroke="#890C02" stroke-width="1.98737"/>
<circle cx="30.9468" cy="30.9468" r="29.9532" transform="matrix(-0.746009 0.665936 0.665936 0.746009 717.867 208.9)" fill="#280505" stroke="#890C02" stroke-width="1.98737"/>
<circle cx="23.3842" cy="23.3842" r="22.3905" transform="matrix(-0.746009 0.665936 0.665936 0.746009 717.266 219.577)" fill="#280505" stroke="#890C02" stroke-width="1.98737"/>
<circle cx="16.1359" cy="16.1359" r="15.1422" transform="matrix(-0.746009 0.665936 0.665936 0.746009 716.68 229.812)" fill="#280505" stroke="#890C02" stroke-width="1.98737"/>
<circle cx="38.5307" cy="38.5307" r="37.537" transform="matrix(-0.746009 0.665936 0.665936 0.746009 476.602 274.38)" fill="#280505" stroke="#890C02" stroke-width="1.98737"/>
<circle cx="30.9468" cy="30.9468" r="29.9532" transform="matrix(-0.746009 0.665936 0.665936 0.746009 475.992 285.088)" fill="#280505" stroke="#890C02" stroke-width="1.98737"/>
<circle cx="23.3842" cy="23.3842" r="22.3905" transform="matrix(-0.746009 0.665936 0.665936 0.746009 475.391 295.767)" fill="#280505" stroke="#890C02" stroke-width="1.98737"/>
<circle cx="16.1359" cy="16.1359" r="15.1422" transform="matrix(-0.746009 0.665936 0.665936 0.746009 474.805 306)" fill="#280505" stroke="#890C02" stroke-width="1.98737"/>
<circle cx="38.5307" cy="38.5307" r="37.537" transform="matrix(-0.746009 0.665936 0.665936 0.746009 419.109 325.697)" fill="#280505" stroke="#890C02" stroke-width="1.98737"/>
<circle cx="30.9468" cy="30.9468" r="29.9532" transform="matrix(-0.746009 0.665936 0.665936 0.746009 418.5 336.407)" fill="#280505" stroke="#890C02" stroke-width="1.98737"/>
<circle cx="23.3842" cy="23.3842" r="22.3905" transform="matrix(-0.746009 0.665936 0.665936 0.746009 417.898 347.084)" fill="#280505" stroke="#890C02" stroke-width="1.98737"/>
<circle cx="16.1359" cy="16.1359" r="15.1422" transform="matrix(-0.746009 0.665936 0.665936 0.746009 417.312 357.317)" fill="#280505" stroke="#890C02" stroke-width="1.98737"/>
<circle cx="38.5307" cy="38.5307" r="37.537" transform="matrix(-0.746009 0.665936 0.665936 0.746009 361.641 377)" fill="#280505" stroke="#890C02" stroke-width="1.98737"/>
<circle cx="30.9468" cy="30.9468" r="29.9532" transform="matrix(-0.746009 0.665936 0.665936 0.746009 361.031 387.707)" fill="#280505" stroke="#890C02" stroke-width="1.98737"/>
<circle cx="23.3842" cy="23.3842" r="22.3905" transform="matrix(-0.746009 0.665936 0.665936 0.746009 360.43 398.387)" fill="#280505" stroke="#890C02" stroke-width="1.98737"/>
<circle cx="16.1359" cy="16.1359" r="15.1422" transform="matrix(-0.746009 0.665936 0.665936 0.746009 359.844 408.62)" fill="#280505" stroke="#890C02" stroke-width="1.98737"/>
<circle cx="38.5307" cy="38.5307" r="37.537" transform="matrix(-0.746009 0.665936 0.665936 0.746009 523.445 268.995)" fill="#280505" stroke="#890C02" stroke-width="1.98737"/>
<circle cx="30.9468" cy="30.9468" r="29.9532" transform="matrix(-0.746009 0.665936 0.665936 0.746009 522.836 279.704)" fill="#280505" stroke="#890C02" stroke-width="1.98737"/>
<circle cx="23.3842" cy="23.3842" r="22.3905" transform="matrix(-0.746009 0.665936 0.665936 0.746009 522.234 290.382)" fill="#280505" stroke="#890C02" stroke-width="1.98737"/>
<circle cx="16.1359" cy="16.1359" r="15.1422" transform="matrix(-0.746009 0.665936 0.665936 0.746009 521.648 300.615)" fill="#280505" stroke="#890C02" stroke-width="1.98737"/>
<circle cx="38.5307" cy="38.5307" r="37.537" transform="matrix(-0.746009 0.665936 0.665936 0.746009 465.953 320.312)" fill="#280505" stroke="#890C02" stroke-width="1.98737"/>
<circle cx="30.9468" cy="30.9468" r="29.9532" transform="matrix(-0.746009 0.665936 0.665936 0.746009 465.344 331.021)" fill="#280505" stroke="#890C02" stroke-width="1.98737"/>
<circle cx="23.3842" cy="23.3842" r="22.3905" transform="matrix(-0.746009 0.665936 0.665936 0.746009 464.742 341.699)" fill="#280505" stroke="#890C02" stroke-width="1.98737"/>
<circle cx="16.1359" cy="16.1359" r="15.1422" transform="matrix(-0.746009 0.665936 0.665936 0.746009 464.156 351.933)" fill="#280505" stroke="#890C02" stroke-width="1.98737"/>
<circle cx="38.5307" cy="38.5307" r="37.537" transform="matrix(-0.746009 0.665936 0.665936 0.746009 408.469 371.633)" fill="#280505" stroke="#890C02" stroke-width="1.98737"/>
<circle cx="30.9468" cy="30.9468" r="29.9532" transform="matrix(-0.746009 0.665936 0.665936 0.746009 407.859 382.342)" fill="#280505" stroke="#890C02" stroke-width="1.98737"/>
<circle cx="23.3842" cy="23.3842" r="22.3905" transform="matrix(-0.746009 0.665936 0.665936 0.746009 407.258 393.02)" fill="#280505" stroke="#890C02" stroke-width="1.98737"/>
<circle cx="16.1359" cy="16.1359" r="15.1422" transform="matrix(-0.746009 0.665936 0.665936 0.746009 406.672 403.253)" fill="#280505" stroke="#890C02" stroke-width="1.98737"/>
<circle cx="38.5307" cy="38.5307" r="37.537" transform="matrix(-0.746009 0.665936 0.665936 0.746009 513.008 315.16)" fill="#280505" stroke="#890C02" stroke-width="1.98737"/>
<circle cx="30.9468" cy="30.9468" r="29.9532" transform="matrix(-0.746009 0.665936 0.665936 0.746009 512.398 325.869)" fill="#280505" stroke="#890C02" stroke-width="1.98737"/>
<circle cx="23.3842" cy="23.3842" r="22.3905" transform="matrix(-0.746009 0.665936 0.665936 0.746009 511.797 336.547)" fill="#280505" stroke="#890C02" stroke-width="1.98737"/>
<circle cx="16.1359" cy="16.1359" r="15.1422" transform="matrix(-0.746009 0.665936 0.665936 0.746009 511.211 346.78)" fill="#280505" stroke="#890C02" stroke-width="1.98737"/>
<circle cx="38.5307" cy="38.5307" r="37.537" transform="matrix(-0.746009 0.665936 0.665936 0.746009 455.516 366.48)" fill="#280505" stroke="#890C02" stroke-width="1.98737"/>
<circle cx="30.9468" cy="30.9468" r="29.9532" transform="matrix(-0.746009 0.665936 0.665936 0.746009 454.906 377.188)" fill="#280505" stroke="#890C02" stroke-width="1.98737"/>
<circle cx="23.3842" cy="23.3842" r="22.3905" transform="matrix(-0.746009 0.665936 0.665936 0.746009 454.305 387.866)" fill="#280505" stroke="#890C02" stroke-width="1.98737"/>
<circle cx="16.1359" cy="16.1359" r="15.1422" transform="matrix(-0.746009 0.665936 0.665936 0.746009 453.719 398.1)" fill="#280505" stroke="#890C02" stroke-width="1.98737"/>
<circle cx="38.5307" cy="38.5307" r="37.537" transform="matrix(-0.746009 0.665936 0.665936 0.746009 398.023 417.801)" fill="#280505" stroke="#890C02" stroke-width="1.98737"/>
<circle cx="30.9468" cy="30.9468" r="29.9532" transform="matrix(-0.746009 0.665936 0.665936 0.746009 397.414 428.506)" fill="#280505" stroke="#890C02" stroke-width="1.98737"/>
<circle cx="23.3842" cy="23.3842" r="22.3905" transform="matrix(-0.746009 0.665936 0.665936 0.746009 396.812 439.186)" fill="#280505" stroke="#890C02" stroke-width="1.98737"/>
<circle cx="16.1359" cy="16.1359" r="15.1422" transform="matrix(-0.746009 0.665936 0.665936 0.746009 396.234 449.42)" fill="#280505" stroke="#890C02" stroke-width="1.98737"/>
<circle cx="38.5307" cy="38.5307" r="37.537" transform="matrix(-0.746009 0.665936 0.665936 0.746009 570.492 263.845)" fill="#280505" stroke="#890C02" stroke-width="1.98737"/>
<circle cx="30.9468" cy="30.9468" r="29.9532" transform="matrix(-0.746009 0.665936 0.665936 0.746009 569.891 274.551)" fill="#280505" stroke="#890C02" stroke-width="1.98737"/>
<circle cx="23.3842" cy="23.3842" r="22.3905" transform="matrix(-0.746009 0.665936 0.665936 0.746009 569.281 285.23)" fill="#280505" stroke="#890C02" stroke-width="1.98737"/>
<circle cx="16.1359" cy="16.1359" r="15.1422" transform="matrix(-0.746009 0.665936 0.665936 0.746009 568.703 295.464)" fill="#280505" stroke="#890C02" stroke-width="1.98737"/>
<circle cx="38.5307" cy="38.5307" r="37.537" transform="matrix(-0.746009 0.665936 0.665936 0.746009 558.258 307.999)" fill="#280505" stroke="#890C02" stroke-width="1.98737"/>
<circle cx="30.9468" cy="30.9468" r="29.9532" transform="matrix(-0.746009 0.665936 0.665936 0.746009 557.648 318.707)" fill="#280505" stroke="#890C02" stroke-width="1.98737"/>
<circle cx="23.3842" cy="23.3842" r="22.3905" transform="matrix(-0.746009 0.665936 0.665936 0.746009 557.047 329.384)" fill="#280505" stroke="#890C02" stroke-width="1.98737"/>
<circle cx="16.1359" cy="16.1359" r="15.1422" transform="matrix(-0.746009 0.665936 0.665936 0.746009 556.461 339.619)" fill="#280505" stroke="#890C02" stroke-width="1.98737"/>
<circle cx="38.5307" cy="38.5307" r="37.537" transform="matrix(-0.746009 0.665936 0.665936 0.746009 500.773 359.316)" fill="#280505" stroke="#890C02" stroke-width="1.98737"/>
<circle cx="30.9468" cy="30.9468" r="29.9532" transform="matrix(-0.746009 0.665936 0.665936 0.746009 500.164 370.024)" fill="#280505" stroke="#890C02" stroke-width="1.98737"/>
<circle cx="23.3842" cy="23.3842" r="22.3905" transform="matrix(-0.746009 0.665936 0.665936 0.746009 499.562 380.701)" fill="#280505" stroke="#890C02" stroke-width="1.98737"/>
<circle cx="16.1359" cy="16.1359" r="15.1422" transform="matrix(-0.746009 0.665936 0.665936 0.746009 498.977 390.938)" fill="#280505" stroke="#890C02" stroke-width="1.98737"/>
<circle cx="38.5307" cy="38.5307" r="37.537" transform="matrix(-0.746009 0.665936 0.665936 0.746009 443.297 410.62)" fill="#280505" stroke="#890C02" stroke-width="1.98737"/>
<circle cx="30.9468" cy="30.9468" r="29.9532" transform="matrix(-0.746009 0.665936 0.665936 0.746009 442.688 421.33)" fill="#280505" stroke="#890C02" stroke-width="1.98737"/>
<circle cx="23.3842" cy="23.3842" r="22.3905" transform="matrix(-0.746009 0.665936 0.665936 0.746009 442.086 432.007)" fill="#280505" stroke="#890C02" stroke-width="1.98737"/>
<circle cx="16.1359" cy="16.1359" r="15.1422" transform="matrix(-0.746009 0.665936 0.665936 0.746009 441.5 442.24)" fill="#280505" stroke="#890C02" stroke-width="1.98737"/>
<circle cx="38.5307" cy="38.5307" r="37.537" transform="matrix(-0.746009 0.665936 0.665936 0.746009 546.016 352.146)" fill="#280505" stroke="#890C02" stroke-width="1.98737"/>
<circle cx="30.9468" cy="30.9468" r="29.9532" transform="matrix(-0.746009 0.665936 0.665936 0.746009 545.406 362.854)" fill="#280505" stroke="#890C02" stroke-width="1.98737"/>
<circle cx="23.3842" cy="23.3842" r="22.3905" transform="matrix(-0.746009 0.665936 0.665936 0.746009 544.805 373.529)" fill="#280505" stroke="#890C02" stroke-width="1.98737"/>
<circle cx="16.1359" cy="16.1359" r="15.1422" transform="matrix(-0.746009 0.665936 0.665936 0.746009 544.219 383.766)" fill="#280505" stroke="#890C02" stroke-width="1.98737"/>
<circle cx="38.5307" cy="38.5307" r="37.537" transform="matrix(-0.746009 0.665936 0.665936 0.746009 488.531 403.463)" fill="#280505" stroke="#890C02" stroke-width="1.98737"/>
<circle cx="30.9468" cy="30.9468" r="29.9532" transform="matrix(-0.746009 0.665936 0.665936 0.746009 487.922 414.17)" fill="#280505" stroke="#890C02" stroke-width="1.98737"/>
<circle cx="23.3842" cy="23.3842" r="22.3905" transform="matrix(-0.746009 0.665936 0.665936 0.746009 487.32 424.847)" fill="#280505" stroke="#890C02" stroke-width="1.98737"/>
<circle cx="16.1359" cy="16.1359" r="15.1422" transform="matrix(-0.746009 0.665936 0.665936 0.746009 486.734 435.083)" fill="#280505" stroke="#890C02" stroke-width="1.98737"/>
<circle cx="38.5307" cy="38.5307" r="37.537" transform="matrix(-0.746009 0.665936 0.665936 0.746009 431.039 454.783)" fill="#280505" stroke="#890C02" stroke-width="1.98737"/>
<circle cx="30.9468" cy="30.9468" r="29.9532" transform="matrix(-0.746009 0.665936 0.665936 0.746009 430.43 465.488)" fill="#280505" stroke="#890C02" stroke-width="1.98737"/>
<circle cx="23.3842" cy="23.3842" r="22.3905" transform="matrix(-0.746009 0.665936 0.665936 0.746009 429.828 476.167)" fill="#280505" stroke="#890C02" stroke-width="1.98737"/>
<circle cx="16.1359" cy="16.1359" r="15.1422" transform="matrix(-0.746009 0.665936 0.665936 0.746009 429.242 486.402)" fill="#280505" stroke="#890C02" stroke-width="1.98737"/>
<circle cx="38.5307" cy="38.5307" r="37.537" transform="matrix(-0.746009 0.665936 0.665936 0.746009 614.148 254.89)" fill="#280505" stroke="#890C02" stroke-width="1.98737"/>
<circle cx="30.9468" cy="30.9468" r="29.9532" transform="matrix(-0.746009 0.665936 0.665936 0.746009 613.539 265.598)" fill="#280505" stroke="#890C02" stroke-width="1.98737"/>
<circle cx="23.3842" cy="23.3842" r="22.3905" transform="matrix(-0.746009 0.665936 0.665936 0.746009 612.938 276.276)" fill="#280505" stroke="#890C02" stroke-width="1.98737"/>
<circle cx="16.1359" cy="16.1359" r="15.1422" transform="matrix(-0.746009 0.665936 0.665936 0.746009 612.352 286.51)" fill="#280505" stroke="#890C02" stroke-width="1.98737"/>
<circle cx="38.5307" cy="38.5307" r="37.537" transform="matrix(-0.746009 0.665936 0.665936 0.746009 660.992 249.507)" fill="#280505" stroke="#890C02" stroke-width="1.98737"/>
<circle cx="30.9468" cy="30.9468" r="29.9532" transform="matrix(-0.746009 0.665936 0.665936 0.746009 660.383 260.214)" fill="#280505" stroke="#890C02" stroke-width="1.98737"/>
<circle cx="23.3842" cy="23.3842" r="22.3905" transform="matrix(-0.746009 0.665936 0.665936 0.746009 659.781 270.893)" fill="#280505" stroke="#890C02" stroke-width="1.98737"/>
<circle cx="16.1359" cy="16.1359" r="15.1422" transform="matrix(-0.746009 0.665936 0.665936 0.746009 659.195 281.127)" fill="#280505" stroke="#890C02" stroke-width="1.98737"/>
<circle cx="38.5307" cy="38.5307" r="37.537" transform="matrix(-0.746009 0.665936 0.665936 0.746009 603.5 300.825)" fill="#280505" stroke="#890C02" stroke-width="1.98737"/>
<circle cx="30.9468" cy="30.9468" r="29.9532" transform="matrix(-0.746009 0.665936 0.665936 0.746009 602.891 311.532)" fill="#280505" stroke="#890C02" stroke-width="1.98737"/>
<circle cx="23.3842" cy="23.3842" r="22.3905" transform="matrix(-0.746009 0.665936 0.665936 0.746009 602.289 322.212)" fill="#280505" stroke="#890C02" stroke-width="1.98737"/>
<circle cx="16.1359" cy="16.1359" r="15.1422" transform="matrix(-0.746009 0.665936 0.665936 0.746009 601.703 332.445)" fill="#280505" stroke="#890C02" stroke-width="1.98737"/>
<circle cx="38.5307" cy="38.5307" r="37.537" transform="matrix(-0.746009 0.665936 0.665936 0.746009 650.555 295.673)" fill="#280505" stroke="#890C02" stroke-width="1.98737"/>
<circle cx="30.9468" cy="30.9468" r="29.9532" transform="matrix(-0.746009 0.665936 0.665936 0.746009 649.945 306.381)" fill="#280505" stroke="#890C02" stroke-width="1.98737"/>
<circle cx="23.3842" cy="23.3842" r="22.3905" transform="matrix(-0.746009 0.665936 0.665936 0.746009 649.344 317.058)" fill="#280505" stroke="#890C02" stroke-width="1.98737"/>
<circle cx="16.1359" cy="16.1359" r="15.1422" transform="matrix(-0.746009 0.665936 0.665936 0.746009 648.758 327.293)" fill="#280505" stroke="#890C02" stroke-width="1.98737"/>
<circle cx="38.5307" cy="38.5307" r="37.537" transform="matrix(-0.746009 0.665936 0.665936 0.746009 593.062 346.99)" fill="#280505" stroke="#890C02" stroke-width="1.98737"/>
<circle cx="30.9468" cy="30.9468" r="29.9532" transform="matrix(-0.746009 0.665936 0.665936 0.746009 592.453 357.697)" fill="#280505" stroke="#890C02" stroke-width="1.98737"/>
<circle cx="23.3842" cy="23.3842" r="22.3905" transform="matrix(-0.746009 0.665936 0.665936 0.746009 591.852 368.375)" fill="#280505" stroke="#890C02" stroke-width="1.98737"/>
<circle cx="16.1359" cy="16.1359" r="15.1422" transform="matrix(-0.746009 0.665936 0.665936 0.746009 591.266 378.61)" fill="#280505" stroke="#890C02" stroke-width="1.98737"/>
<circle cx="38.5307" cy="38.5307" r="37.537" transform="matrix(-0.746009 0.665936 0.665936 0.746009 708.039 244.354)" fill="#280505" stroke="#890C02" stroke-width="1.98737"/>
<circle cx="30.9468" cy="30.9468" r="29.9532" transform="matrix(-0.746009 0.665936 0.665936 0.746009 707.43 255.063)" fill="#280505" stroke="#890C02" stroke-width="1.98737"/>
<circle cx="23.3842" cy="23.3842" r="22.3905" transform="matrix(-0.746009 0.665936 0.665936 0.746009 706.828 265.74)" fill="#280505" stroke="#890C02" stroke-width="1.98737"/>
<circle cx="16.1359" cy="16.1359" r="15.1422" transform="matrix(-0.746009 0.665936 0.665936 0.746009 706.242 275.975)" fill="#280505" stroke="#890C02" stroke-width="1.98737"/>
<circle cx="38.5307" cy="38.5307" r="37.537" transform="matrix(-0.746009 0.665936 0.665936 0.746009 478.102 449.612)" fill="#280505" stroke="#890C02" stroke-width="1.98737"/>
<circle cx="30.9468" cy="30.9468" r="29.9532" transform="matrix(-0.746009 0.665936 0.665936 0.746009 477.492 460.32)" fill="#280505" stroke="#890C02" stroke-width="1.98737"/>
<circle cx="23.3842" cy="23.3842" r="22.3905" transform="matrix(-0.746009 0.665936 0.665936 0.746009 476.891 470.998)" fill="#280505" stroke="#890C02" stroke-width="1.98737"/>
<circle cx="16.1359" cy="16.1359" r="15.1422" transform="matrix(-0.746009 0.665936 0.665936 0.746009 476.305 481.232)" fill="#280505" stroke="#890C02" stroke-width="1.98737"/>
<circle cx="38.5307" cy="38.5307" r="37.537" transform="matrix(-0.746009 0.665936 0.665936 0.746009 535.594 398.294)" fill="#280505" stroke="#890C02" stroke-width="1.98737"/>
<circle cx="30.9468" cy="30.9468" r="29.9532" transform="matrix(-0.746009 0.665936 0.665936 0.746009 534.984 409.002)" fill="#280505" stroke="#890C02" stroke-width="1.98737"/>
<circle cx="23.3842" cy="23.3842" r="22.3905" transform="matrix(-0.746009 0.665936 0.665936 0.746009 534.383 419.681)" fill="#280505" stroke="#890C02" stroke-width="1.98737"/>
<circle cx="16.1359" cy="16.1359" r="15.1422" transform="matrix(-0.746009 0.665936 0.665936 0.746009 533.797 429.914)" fill="#280505" stroke="#890C02" stroke-width="1.98737"/>
<circle cx="38.5307" cy="38.5307" r="37.537" transform="matrix(-0.746009 0.665936 0.665936 0.746009 695.805 288.511)" fill="#280505" stroke="#890C02" stroke-width="1.98737"/>
<circle cx="30.9468" cy="30.9468" r="29.9532" transform="matrix(-0.746009 0.665936 0.665936 0.746009 695.195 299.219)" fill="#280505" stroke="#890C02" stroke-width="1.98737"/>
<circle cx="23.3842" cy="23.3842" r="22.3905" transform="matrix(-0.746009 0.665936 0.665936 0.746009 694.594 309.896)" fill="#280505" stroke="#890C02" stroke-width="1.98737"/>
<circle cx="16.1359" cy="16.1359" r="15.1422" transform="matrix(-0.746009 0.665936 0.665936 0.746009 694.008 320.131)" fill="#280505" stroke="#890C02" stroke-width="1.98737"/>
<circle cx="38.5307" cy="38.5307" r="37.537" transform="matrix(-0.746009 0.665936 0.665936 0.746009 753.289 237.197)" fill="#280505" stroke="#890C02" stroke-width="1.98737"/>
<circle cx="38.5307" cy="38.5307" r="37.537" transform="matrix(-0.746009 0.665936 0.665936 0.746009 638.32 339.828)" fill="#280505" stroke="#890C02" stroke-width="1.98737"/>
<circle cx="30.9468" cy="30.9468" r="29.9532" transform="matrix(-0.746009 0.665936 0.665936 0.746009 637.711 350.536)" fill="#280505" stroke="#890C02" stroke-width="1.98737"/>
<circle cx="23.3842" cy="23.3842" r="22.3905" transform="matrix(-0.746009 0.665936 0.665936 0.746009 637.109 361.215)" fill="#280505" stroke="#890C02" stroke-width="1.98737"/>
<circle cx="16.1359" cy="16.1359" r="15.1422" transform="matrix(-0.746009 0.665936 0.665936 0.746009 636.523 371.448)" fill="#280505" stroke="#890C02" stroke-width="1.98737"/>
<circle cx="38.5307" cy="38.5307" r="37.537" transform="matrix(-0.746009 0.665936 0.665936 0.746009 523.359 442.451)" fill="#280505" stroke="#890C02" stroke-width="1.98737"/>
<circle cx="30.9468" cy="30.9468" r="29.9532" transform="matrix(-0.746009 0.665936 0.665936 0.746009 522.75 453.16)" fill="#280505" stroke="#890C02" stroke-width="1.98737"/>
<circle cx="23.3842" cy="23.3842" r="22.3905" transform="matrix(-0.746009 0.665936 0.665936 0.746009 522.148 463.835)" fill="#280505" stroke="#890C02" stroke-width="1.98737"/>
<circle cx="16.1359" cy="16.1359" r="15.1422" transform="matrix(-0.746009 0.665936 0.665936 0.746009 521.562 474.071)" fill="#280505" stroke="#890C02" stroke-width="1.98737"/>
<circle cx="38.5307" cy="38.5307" r="37.537" transform="matrix(-0.746009 0.665936 0.665936 0.746009 580.844 391.138)" fill="#280505" stroke="#890C02" stroke-width="1.98737"/>
<circle cx="30.9468" cy="30.9468" r="29.9532" transform="matrix(-0.746009 0.665936 0.665936 0.746009 580.234 401.846)" fill="#280505" stroke="#890C02" stroke-width="1.98737"/>
<circle cx="23.3842" cy="23.3842" r="22.3905" transform="matrix(-0.746009 0.665936 0.665936 0.746009 579.633 412.524)" fill="#280505" stroke="#890C02" stroke-width="1.98737"/>
<circle cx="16.1359" cy="16.1359" r="15.1422" transform="matrix(-0.746009 0.665936 0.665936 0.746009 579.047 422.759)" fill="#280505" stroke="#890C02" stroke-width="1.98737"/>
<circle cx="38.5307" cy="38.5307" r="37.537" transform="matrix(-0.746009 0.665936 0.665936 0.746009 465.867 493.769)" fill="#280505" stroke="#890C02" stroke-width="1.98737"/>
<circle cx="30.9468" cy="30.9468" r="29.9532" transform="matrix(-0.746009 0.665936 0.665936 0.746009 465.258 504.476)" fill="#280505" stroke="#890C02" stroke-width="1.98737"/>
<circle cx="23.3842" cy="23.3842" r="22.3905" transform="matrix(-0.746009 0.665936 0.665936 0.746009 464.656 515.153)" fill="#280505" stroke="#890C02" stroke-width="1.98737"/>
<circle cx="16.1359" cy="16.1359" r="15.1422" transform="matrix(-0.746009 0.665936 0.665936 0.746009 464.07 525.389)" fill="#280505" stroke="#890C02" stroke-width="1.98737"/>
<circle cx="38.5307" cy="38.5307" r="37.537" transform="matrix(-0.746009 0.665936 0.665936 0.746009 683.57 332.655)" fill="#280505" stroke="#890C02" stroke-width="1.98737"/>
<circle cx="30.9468" cy="30.9468" r="29.9532" transform="matrix(-0.746009 0.665936 0.665936 0.746009 682.961 343.363)" fill="#280505" stroke="#890C02" stroke-width="1.98737"/>
<circle cx="23.3842" cy="23.3842" r="22.3905" transform="matrix(-0.746009 0.665936 0.665936 0.746009 682.359 354.042)" fill="#280505" stroke="#890C02" stroke-width="1.98737"/>
<circle cx="16.1359" cy="16.1359" r="15.1422" transform="matrix(-0.746009 0.665936 0.665936 0.746009 681.773 364.275)" fill="#280505" stroke="#890C02" stroke-width="1.98737"/>
<circle cx="38.5307" cy="38.5307" r="37.537" transform="matrix(-0.746009 0.665936 0.665936 0.746009 741.047 281.343)" fill="#280505" stroke="#890C02" stroke-width="1.98737"/>
<circle cx="30.9468" cy="30.9468" r="29.9532" transform="matrix(-0.746009 0.665936 0.665936 0.746009 740.438 292.051)" fill="#280505" stroke="#890C02" stroke-width="1.98737"/>
<circle cx="38.5307" cy="38.5307" r="37.537" transform="matrix(-0.746009 0.665936 0.665936 0.746009 511.117 486.599)" fill="#280505" stroke="#890C02" stroke-width="1.98737"/>
<circle cx="30.9468" cy="30.9468" r="29.9532" transform="matrix(-0.746009 0.665936 0.665936 0.746009 510.508 497.307)" fill="#280505" stroke="#890C02" stroke-width="1.98737"/>
<circle cx="23.3842" cy="23.3842" r="22.3905" transform="matrix(-0.746009 0.665936 0.665936 0.746009 509.906 507.985)" fill="#280505" stroke="#890C02" stroke-width="1.98737"/>
<circle cx="16.1359" cy="16.1359" r="15.1422" transform="matrix(-0.746009 0.665936 0.665936 0.746009 509.32 518.22)" fill="#280505" stroke="#890C02" stroke-width="1.98737"/>
<circle cx="38.5307" cy="38.5307" r="37.537" transform="matrix(-0.746009 0.665936 0.665936 0.746009 568.594 435.286)" fill="#280505" stroke="#890C02" stroke-width="1.98737"/>
<circle cx="30.9468" cy="30.9468" r="29.9532" transform="matrix(-0.746009 0.665936 0.665936 0.746009 567.984 445.993)" fill="#280505" stroke="#890C02" stroke-width="1.98737"/>
<circle cx="23.3842" cy="23.3842" r="22.3905" transform="matrix(-0.746009 0.665936 0.665936 0.746009 567.383 456.671)" fill="#280505" stroke="#890C02" stroke-width="1.98737"/>
<circle cx="16.1359" cy="16.1359" r="15.1422" transform="matrix(-0.746009 0.665936 0.665936 0.746009 566.797 466.906)" fill="#280505" stroke="#890C02" stroke-width="1.98737"/>
<circle cx="38.5307" cy="38.5307" r="37.537" transform="matrix(-0.746009 0.665936 0.665936 0.746009 626.086 383.969)" fill="#280505" stroke="#890C02" stroke-width="1.98737"/>
<circle cx="30.9468" cy="30.9468" r="29.9532" transform="matrix(-0.746009 0.665936 0.665936 0.746009 625.477 394.676)" fill="#280505" stroke="#890C02" stroke-width="1.98737"/>
<circle cx="23.3842" cy="23.3842" r="22.3905" transform="matrix(-0.746009 0.665936 0.665936 0.746009 624.875 405.354)" fill="#280505" stroke="#890C02" stroke-width="1.98737"/>
<circle cx="16.1359" cy="16.1359" r="15.1422" transform="matrix(-0.746009 0.665936 0.665936 0.746009 624.289 415.589)" fill="#280505" stroke="#890C02" stroke-width="1.98737"/>
<circle cx="38.5307" cy="38.5307" r="37.537" transform="matrix(-0.746009 0.665936 0.665936 0.746009 727.242 323.687)" fill="#280505" stroke="#890C02" stroke-width="1.98737"/>
<circle cx="30.9468" cy="30.9468" r="29.9532" transform="matrix(-0.746009 0.665936 0.665936 0.746009 726.633 334.394)" fill="#280505" stroke="#890C02" stroke-width="1.98737"/>
<circle cx="23.3842" cy="23.3842" r="22.3905" transform="matrix(-0.746009 0.665936 0.665936 0.746009 726.031 345.073)" fill="#280505" stroke="#890C02" stroke-width="1.98737"/>
<circle cx="38.5307" cy="38.5307" r="37.537" transform="matrix(-0.746009 0.665936 0.665936 0.746009 669.75 375.007)" fill="#280505" stroke="#890C02" stroke-width="1.98737"/>
<circle cx="30.9468" cy="30.9468" r="29.9532" transform="matrix(-0.746009 0.665936 0.665936 0.746009 669.141 385.715)" fill="#280505" stroke="#890C02" stroke-width="1.98737"/>
<circle cx="23.3842" cy="23.3842" r="22.3905" transform="matrix(-0.746009 0.665936 0.665936 0.746009 668.539 396.393)" fill="#280505" stroke="#890C02" stroke-width="1.98737"/>
<circle cx="16.1359" cy="16.1359" r="15.1422" transform="matrix(-0.746009 0.665936 0.665936 0.746009 667.953 406.626)" fill="#280505" stroke="#890C02" stroke-width="1.98737"/>
<circle cx="38.5307" cy="38.5307" r="37.537" transform="matrix(-0.746009 0.665936 0.665936 0.746009 554.773 477.644)" fill="#280505" stroke="#890C02" stroke-width="1.98737"/>
<circle cx="30.9468" cy="30.9468" r="29.9532" transform="matrix(-0.746009 0.665936 0.665936 0.746009 554.164 488.353)" fill="#280505" stroke="#890C02" stroke-width="1.98737"/>
<circle cx="23.3842" cy="23.3842" r="22.3905" transform="matrix(-0.746009 0.665936 0.665936 0.746009 553.562 499.03)" fill="#280505" stroke="#890C02" stroke-width="1.98737"/>
<circle cx="16.1359" cy="16.1359" r="15.1422" transform="matrix(-0.746009 0.665936 0.665936 0.746009 552.977 509.264)" fill="#280505" stroke="#890C02" stroke-width="1.98737"/>
<circle cx="38.5307" cy="38.5307" r="37.537" transform="matrix(-0.746009 0.665936 0.665936 0.746009 612.258 426.329)" fill="#280505" stroke="#890C02" stroke-width="1.98737"/>
<circle cx="30.9468" cy="30.9468" r="29.9532" transform="matrix(-0.746009 0.665936 0.665936 0.746009 611.648 437.037)" fill="#280505" stroke="#890C02" stroke-width="1.98737"/>
<circle cx="23.3842" cy="23.3842" r="22.3905" transform="matrix(-0.746009 0.665936 0.665936 0.746009 611.047 447.714)" fill="#280505" stroke="#890C02" stroke-width="1.98737"/>
<circle cx="16.1359" cy="16.1359" r="15.1422" transform="matrix(-0.746009 0.665936 0.665936 0.746009 610.461 457.95)" fill="#280505" stroke="#890C02" stroke-width="1.98737"/>
<circle cx="38.5307" cy="38.5307" r="37.537" transform="matrix(-0.746009 0.665936 0.665936 0.746009 497.289 528.961)" fill="#280505" stroke="#890C02" stroke-width="1.98737"/>
<circle cx="30.9468" cy="30.9468" r="29.9532" transform="matrix(-0.746009 0.665936 0.665936 0.746009 496.68 539.668)" fill="#280505" stroke="#890C02" stroke-width="1.98737"/>
<circle cx="23.3842" cy="23.3842" r="22.3905" transform="matrix(-0.746009 0.665936 0.665936 0.746009 496.078 550.348)" fill="#280505" stroke="#890C02" stroke-width="1.98737"/>
<circle cx="16.1359" cy="16.1359" r="15.1422" transform="matrix(-0.746009 0.665936 0.665936 0.746009 495.492 560.581)" fill="#280505" stroke="#890C02" stroke-width="1.98737"/>
<circle cx="38.5307" cy="38.5307" r="37.537" transform="matrix(-0.746009 0.665936 0.665936 0.746009 716.797 369.853)" fill="#280505" stroke="#890C02" stroke-width="1.98737"/>
<circle cx="30.9468" cy="30.9468" r="29.9532" transform="matrix(-0.746009 0.665936 0.665936 0.746009 716.188 380.562)" fill="#280505" stroke="#890C02" stroke-width="1.98737"/>
<circle cx="23.3842" cy="23.3842" r="22.3905" transform="matrix(-0.746009 0.665936 0.665936 0.746009 715.586 391.237)" fill="#280505" stroke="#890C02" stroke-width="1.98737"/>
<circle cx="16.1359" cy="16.1359" r="15.1422" transform="matrix(-0.746009 0.665936 0.665936 0.746009 715 401.473)" fill="#280505" stroke="#890C02" stroke-width="1.98737"/>
<circle cx="38.5307" cy="38.5307" r="37.537" transform="matrix(-0.746009 0.665936 0.665936 0.746009 659.312 421.173)" fill="#280505" stroke="#890C02" stroke-width="1.98737"/>
<circle cx="30.9468" cy="30.9468" r="29.9532" transform="matrix(-0.746009 0.665936 0.665936 0.746009 658.703 431.879)" fill="#280505" stroke="#890C02" stroke-width="1.98737"/>
<circle cx="23.3842" cy="23.3842" r="22.3905" transform="matrix(-0.746009 0.665936 0.665936 0.746009 658.102 442.558)" fill="#280505" stroke="#890C02" stroke-width="1.98737"/>
<circle cx="16.1359" cy="16.1359" r="15.1422" transform="matrix(-0.746009 0.665936 0.665936 0.746009 657.516 452.792)" fill="#280505" stroke="#890C02" stroke-width="1.98737"/>
<circle cx="38.5307" cy="38.5307" r="37.537" transform="matrix(-0.746009 0.665936 0.665936 0.746009 601.812 472.488)" fill="#280505" stroke="#890C02" stroke-width="1.98737"/>
<circle cx="30.9468" cy="30.9468" r="29.9532" transform="matrix(-0.746009 0.665936 0.665936 0.746009 601.203 483.194)" fill="#280505" stroke="#890C02" stroke-width="1.98737"/>
<circle cx="23.3842" cy="23.3842" r="22.3905" transform="matrix(-0.746009 0.665936 0.665936 0.746009 600.602 493.873)" fill="#280505" stroke="#890C02" stroke-width="1.98737"/>
<circle cx="16.1359" cy="16.1359" r="15.1422" transform="matrix(-0.746009 0.665936 0.665936 0.746009 600.016 504.107)" fill="#280505" stroke="#890C02" stroke-width="1.98737"/>
<circle cx="38.5307" cy="38.5307" r="37.537" transform="matrix(-0.746009 0.665936 0.665936 0.746009 544.328 523.804)" fill="#280505" stroke="#890C02" stroke-width="1.98737"/>
<circle cx="30.9468" cy="30.9468" r="29.9532" transform="matrix(-0.746009 0.665936 0.665936 0.746009 543.719 534.513)" fill="#280505" stroke="#890C02" stroke-width="1.98737"/>
<circle cx="23.3842" cy="23.3842" r="22.3905" transform="matrix(-0.746009 0.665936 0.665936 0.746009 543.117 545.19)" fill="#280505" stroke="#890C02" stroke-width="1.98737"/>
<circle cx="16.1359" cy="16.1359" r="15.1422" transform="matrix(-0.746009 0.665936 0.665936 0.746009 542.531 555.427)" fill="#280505" stroke="#890C02" stroke-width="1.98737"/>
<circle cx="38.5307" cy="38.5307" r="37.537" transform="matrix(-0.746009 0.665936 0.665936 0.746009 704.562 414.01)" fill="#280505" stroke="#890C02" stroke-width="1.98737"/>
<circle cx="30.9468" cy="30.9468" r="29.9532" transform="matrix(-0.746009 0.665936 0.665936 0.746009 703.953 424.718)" fill="#280505" stroke="#890C02" stroke-width="1.98737"/>
<circle cx="23.3842" cy="23.3842" r="22.3905" transform="matrix(-0.746009 0.665936 0.665936 0.746009 703.352 435.396)" fill="#280505" stroke="#890C02" stroke-width="1.98737"/>
<circle cx="16.1359" cy="16.1359" r="15.1422" transform="matrix(-0.746009 0.665936 0.665936 0.746009 702.766 445.629)" fill="#280505" stroke="#890C02" stroke-width="1.98737"/>
<circle cx="38.5307" cy="38.5307" r="37.537" transform="matrix(-0.746009 0.665936 0.665936 0.746009 749.812 406.835)" fill="#280505" stroke="#890C02" stroke-width="1.98737"/>
<circle cx="38.5307" cy="38.5307" r="37.537" transform="matrix(-0.746009 0.665936 0.665936 0.746009 642.062 459.709)" fill="#280505" stroke="#890C02" stroke-width="1.98737"/>
<circle cx="30.9468" cy="30.9468" r="29.9532" transform="matrix(-0.746009 0.665936 0.665936 0.746009 641.453 470.417)" fill="#280505" stroke="#890C02" stroke-width="1.98737"/>
<circle cx="23.3842" cy="23.3842" r="22.3905" transform="matrix(-0.746009 0.665936 0.665936 0.746009 640.852 481.096)" fill="#280505" stroke="#890C02" stroke-width="1.98737"/>
<circle cx="16.1359" cy="16.1359" r="15.1422" transform="matrix(-0.746009 0.665936 0.665936 0.746009 640.266 491.33)" fill="#280505" stroke="#890C02" stroke-width="1.98737"/>
<circle cx="38.5307" cy="38.5307" r="37.537" transform="matrix(-0.746009 0.665936 0.665936 0.746009 584.57 511.027)" fill="#280505" stroke="#890C02" stroke-width="1.98737"/>
<circle cx="30.9468" cy="30.9468" r="29.9532" transform="matrix(-0.746009 0.665936 0.665936 0.746009 583.961 521.736)" fill="#280505" stroke="#890C02" stroke-width="1.98737"/>
<circle cx="23.3842" cy="23.3842" r="22.3905" transform="matrix(-0.746009 0.665936 0.665936 0.746009 583.359 532.413)" fill="#280505" stroke="#890C02" stroke-width="1.98737"/>
<circle cx="16.1359" cy="16.1359" r="15.1422" transform="matrix(-0.746009 0.665936 0.665936 0.746009 582.773 542.647)" fill="#280505" stroke="#890C02" stroke-width="1.98737"/>
<circle cx="38.5307" cy="38.5307" r="37.537" transform="matrix(-0.746009 0.665936 0.665936 0.746009 527.102 562.33)" fill="#280505" stroke="#890C02" stroke-width="1.98737"/>
<circle cx="30.9468" cy="30.9468" r="29.9532" transform="matrix(-0.746009 0.665936 0.665936 0.746009 526.492 573.037)" fill="#280505" stroke="#890C02" stroke-width="1.98737"/>
<circle cx="23.3842" cy="23.3842" r="22.3905" transform="matrix(-0.746009 0.665936 0.665936 0.746009 525.891 583.717)" fill="#280505" stroke="#890C02" stroke-width="1.98737"/>
<circle cx="16.1359" cy="16.1359" r="15.1422" transform="matrix(-0.746009 0.665936 0.665936 0.746009 525.305 593.95)" fill="#280505" stroke="#890C02" stroke-width="1.98737"/>
<circle cx="38.5307" cy="38.5307" r="37.537" transform="matrix(-0.746009 0.665936 0.665936 0.746009 688.906 454.324)" fill="#280505" stroke="#890C02" stroke-width="1.98737"/>
<circle cx="30.9468" cy="30.9468" r="29.9532" transform="matrix(-0.746009 0.665936 0.665936 0.746009 688.297 465.032)" fill="#280505" stroke="#890C02" stroke-width="1.98737"/>
<circle cx="23.3842" cy="23.3842" r="22.3905" transform="matrix(-0.746009 0.665936 0.665936 0.746009 687.695 475.711)" fill="#280505" stroke="#890C02" stroke-width="1.98737"/>
<circle cx="16.1359" cy="16.1359" r="15.1422" transform="matrix(-0.746009 0.665936 0.665936 0.746009 687.109 485.944)" fill="#280505" stroke="#890C02" stroke-width="1.98737"/>
<circle cx="38.5307" cy="38.5307" r="37.537" transform="matrix(-0.746009 0.665936 0.665936 0.746009 631.414 505.642)" fill="#280505" stroke="#890C02" stroke-width="1.98737"/>
<circle cx="30.9468" cy="30.9468" r="29.9532" transform="matrix(-0.746009 0.665936 0.665936 0.746009 630.805 516.352)" fill="#280505" stroke="#890C02" stroke-width="1.98737"/>
<circle cx="23.3842" cy="23.3842" r="22.3905" transform="matrix(-0.746009 0.665936 0.665936 0.746009 630.203 527.028)" fill="#280505" stroke="#890C02" stroke-width="1.98737"/>
<circle cx="16.1359" cy="16.1359" r="15.1422" transform="matrix(-0.746009 0.665936 0.665936 0.746009 629.617 537.262)" fill="#280505" stroke="#890C02" stroke-width="1.98737"/>
<circle cx="38.5307" cy="38.5307" r="37.537" transform="matrix(-0.746009 0.665936 0.665936 0.746009 573.93 556.962)" fill="#280505" stroke="#890C02" stroke-width="1.98737"/>
<circle cx="30.9468" cy="30.9468" r="29.9532" transform="matrix(-0.746009 0.665936 0.665936 0.746009 573.32 567.672)" fill="#280505" stroke="#890C02" stroke-width="1.98737"/>
<circle cx="23.3842" cy="23.3842" r="22.3905" transform="matrix(-0.746009 0.665936 0.665936 0.746009 572.719 578.349)" fill="#280505" stroke="#890C02" stroke-width="1.98737"/>
<circle cx="16.1359" cy="16.1359" r="15.1422" transform="matrix(-0.746009 0.665936 0.665936 0.746009 572.133 588.582)" fill="#280505" stroke="#890C02" stroke-width="1.98737"/>
<circle cx="38.5307" cy="38.5307" r="37.537" transform="matrix(-0.746009 0.665936 0.665936 0.746009 678.469 500.489)" fill="#280505" stroke="#890C02" stroke-width="1.98737"/>
<circle cx="30.9468" cy="30.9468" r="29.9532" transform="matrix(-0.746009 0.665936 0.665936 0.746009 677.859 511.199)" fill="#280505" stroke="#890C02" stroke-width="1.98737"/>
<circle cx="23.3842" cy="23.3842" r="22.3905" transform="matrix(-0.746009 0.665936 0.665936 0.746009 677.258 521.877)" fill="#280505" stroke="#890C02" stroke-width="1.98737"/>
<circle cx="16.1359" cy="16.1359" r="15.1422" transform="matrix(-0.746009 0.665936 0.665936 0.746009 676.672 532.112)" fill="#280505" stroke="#890C02" stroke-width="1.98737"/>
<circle cx="38.5307" cy="38.5307" r="37.537" transform="matrix(-0.746009 0.665936 0.665936 0.746009 620.977 551.808)" fill="#280505" stroke="#890C02" stroke-width="1.98737"/>
<circle cx="30.9468" cy="30.9468" r="29.9532" transform="matrix(-0.746009 0.665936 0.665936 0.746009 620.367 562.517)" fill="#280505" stroke="#890C02" stroke-width="1.98737"/>
<circle cx="23.3842" cy="23.3842" r="22.3905" transform="matrix(-0.746009 0.665936 0.665936 0.746009 619.766 573.194)" fill="#280505" stroke="#890C02" stroke-width="1.98737"/>
<circle cx="16.1359" cy="16.1359" r="15.1422" transform="matrix(-0.746009 0.665936 0.665936 0.746009 619.18 583.428)" fill="#280505" stroke="#890C02" stroke-width="1.98737"/>
<circle cx="38.5307" cy="38.5307" r="37.537" transform="matrix(-0.746009 0.665936 0.665936 0.746009 563.492 603.128)" fill="#280505" stroke="#890C02" stroke-width="1.98737"/>
<circle cx="30.9468" cy="30.9468" r="29.9532" transform="matrix(-0.746009 0.665936 0.665936 0.746009 562.883 613.834)" fill="#280505" stroke="#890C02" stroke-width="1.98737"/>
<circle cx="23.3842" cy="23.3842" r="22.3905" transform="matrix(-0.746009 0.665936 0.665936 0.746009 562.281 624.513)" fill="#280505" stroke="#890C02" stroke-width="1.98737"/>
<circle cx="16.1359" cy="16.1359" r="15.1422" transform="matrix(-0.746009 0.665936 0.665936 0.746009 561.695 634.748)" fill="#280505" stroke="#890C02" stroke-width="1.98737"/>
<circle cx="38.5307" cy="38.5307" r="37.537" transform="matrix(-0.746009 0.665936 0.665936 0.746009 735.953 449.175)" fill="#280505" stroke="#890C02" stroke-width="1.98737"/>
<circle cx="30.9468" cy="30.9468" r="29.9532" transform="matrix(-0.746009 0.665936 0.665936 0.746009 735.344 459.881)" fill="#280505" stroke="#890C02" stroke-width="1.98737"/>
<circle cx="38.5307" cy="38.5307" r="37.537" transform="matrix(-0.746009 0.665936 0.665936 0.746009 723.719 493.329)" fill="#280505" stroke="#890C02" stroke-width="1.98737"/>
<circle cx="30.9468" cy="30.9468" r="29.9532" transform="matrix(-0.746009 0.665936 0.665936 0.746009 723.109 504.035)" fill="#280505" stroke="#890C02" stroke-width="1.98737"/>
<circle cx="23.3842" cy="23.3842" r="22.3905" transform="matrix(-0.746009 0.665936 0.665936 0.746009 722.508 514.714)" fill="#280505" stroke="#890C02" stroke-width="1.98737"/>
<circle cx="16.1359" cy="16.1359" r="15.1422" transform="matrix(-0.746009 0.665936 0.665936 0.746009 721.922 524.948)" fill="#280505" stroke="#890C02" stroke-width="1.98737"/>
<circle cx="38.5307" cy="38.5307" r="37.537" transform="matrix(-0.746009 0.665936 0.665936 0.746009 666.234 544.647)" fill="#280505" stroke="#890C02" stroke-width="1.98737"/>
<circle cx="30.9468" cy="30.9468" r="29.9532" transform="matrix(-0.746009 0.665936 0.665936 0.746009 665.625 555.354)" fill="#280505" stroke="#890C02" stroke-width="1.98737"/>
<circle cx="23.3842" cy="23.3842" r="22.3905" transform="matrix(-0.746009 0.665936 0.665936 0.746009 665.023 566.032)" fill="#280505" stroke="#890C02" stroke-width="1.98737"/>
<circle cx="16.1359" cy="16.1359" r="15.1422" transform="matrix(-0.746009 0.665936 0.665936 0.746009 664.438 576.268)" fill="#280505" stroke="#890C02" stroke-width="1.98737"/>
<circle cx="38.5307" cy="38.5307" r="37.537" transform="matrix(-0.746009 0.665936 0.665936 0.746009 608.758 595.95)" fill="#280505" stroke="#890C02" stroke-width="1.98737"/>
<circle cx="30.9468" cy="30.9468" r="29.9532" transform="matrix(-0.746009 0.665936 0.665936 0.746009 608.148 606.659)" fill="#280505" stroke="#890C02" stroke-width="1.98737"/>
<circle cx="23.3842" cy="23.3842" r="22.3905" transform="matrix(-0.746009 0.665936 0.665936 0.746009 607.547 617.337)" fill="#280505" stroke="#890C02" stroke-width="1.98737"/>
<circle cx="16.1359" cy="16.1359" r="15.1422" transform="matrix(-0.746009 0.665936 0.665936 0.746009 606.961 627.57)" fill="#280505" stroke="#890C02" stroke-width="1.98737"/>
<circle cx="38.5307" cy="38.5307" r="37.537" transform="matrix(-0.746009 0.665936 0.665936 0.746009 711.477 537.475)" fill="#280505" stroke="#890C02" stroke-width="1.98737"/>
<circle cx="30.9468" cy="30.9468" r="29.9532" transform="matrix(-0.746009 0.665936 0.665936 0.746009 710.867 548.183)" fill="#280505" stroke="#890C02" stroke-width="1.98737"/>
<circle cx="23.3842" cy="23.3842" r="22.3905" transform="matrix(-0.746009 0.665936 0.665936 0.746009 710.266 558.859)" fill="#280505" stroke="#890C02" stroke-width="1.98737"/>
<circle cx="16.1359" cy="16.1359" r="15.1422" transform="matrix(-0.746009 0.665936 0.665936 0.746009 709.68 569.095)" fill="#280505" stroke="#890C02" stroke-width="1.98737"/>
<circle cx="38.5307" cy="38.5307" r="37.537" transform="matrix(-0.746009 0.665936 0.665936 0.746009 653.992 588.792)" fill="#280505" stroke="#890C02" stroke-width="1.98737"/>
<circle cx="30.9468" cy="30.9468" r="29.9532" transform="matrix(-0.746009 0.665936 0.665936 0.746009 653.383 599.502)" fill="#280505" stroke="#890C02" stroke-width="1.98737"/>
<circle cx="23.3842" cy="23.3842" r="22.3905" transform="matrix(-0.746009 0.665936 0.665936 0.746009 652.781 610.177)" fill="#280505" stroke="#890C02" stroke-width="1.98737"/>
<circle cx="16.1359" cy="16.1359" r="15.1422" transform="matrix(-0.746009 0.665936 0.665936 0.746009 652.195 620.412)" fill="#280505" stroke="#890C02" stroke-width="1.98737"/>
<circle cx="38.5307" cy="38.5307" r="37.537" transform="matrix(-0.746009 0.665936 0.665936 0.746009 596.5 640.11)" fill="#280505" stroke="#890C02" stroke-width="1.98737"/>
<circle cx="30.9468" cy="30.9468" r="29.9532" transform="matrix(-0.746009 0.665936 0.665936 0.746009 595.891 650.817)" fill="#280505" stroke="#890C02" stroke-width="1.98737"/>
<circle cx="23.3842" cy="23.3842" r="22.3905" transform="matrix(-0.746009 0.665936 0.665936 0.746009 595.289 661.494)" fill="#280505" stroke="#890C02" stroke-width="1.98737"/>
<circle cx="16.1359" cy="16.1359" r="15.1422" transform="matrix(-0.746009 0.665936 0.665936 0.746009 594.703 671.73)" fill="#280505" stroke="#890C02" stroke-width="1.98737"/>
<circle cx="38.5307" cy="38.5307" r="37.537" transform="matrix(-0.746009 0.665936 0.665936 0.746009 643.57 634.94)" fill="#280505" stroke="#890C02" stroke-width="1.98737"/>
<circle cx="30.9468" cy="30.9468" r="29.9532" transform="matrix(-0.746009 0.665936 0.665936 0.746009 642.961 645.649)" fill="#280505" stroke="#890C02" stroke-width="1.98737"/>
<circle cx="23.3842" cy="23.3842" r="22.3905" transform="matrix(-0.746009 0.665936 0.665936 0.746009 642.359 656.327)" fill="#280505" stroke="#890C02" stroke-width="1.98737"/>
<circle cx="16.1359" cy="16.1359" r="15.1422" transform="matrix(-0.746009 0.665936 0.665936 0.746009 641.773 666.562)" fill="#280505" stroke="#890C02" stroke-width="1.98737"/>
<circle cx="38.5307" cy="38.5307" r="37.537" transform="matrix(-0.746009 0.665936 0.665936 0.746009 701.055 583.623)" fill="#280505" stroke="#890C02" stroke-width="1.98737"/>
<circle cx="30.9468" cy="30.9468" r="29.9532" transform="matrix(-0.746009 0.665936 0.665936 0.746009 700.445 594.331)" fill="#280505" stroke="#890C02" stroke-width="1.98737"/>
<circle cx="23.3842" cy="23.3842" r="22.3905" transform="matrix(-0.746009 0.665936 0.665936 0.746009 699.844 605.01)" fill="#280505" stroke="#890C02" stroke-width="1.98737"/>
<circle cx="16.1359" cy="16.1359" r="15.1422" transform="matrix(-0.746009 0.665936 0.665936 0.746009 699.258 615.243)" fill="#280505" stroke="#890C02" stroke-width="1.98737"/>
<circle cx="38.5307" cy="38.5307" r="37.537" transform="matrix(-0.746009 0.665936 0.665936 0.746009 688.828 627.779)" fill="#280505" stroke="#890C02" stroke-width="1.98737"/>
<circle cx="30.9468" cy="30.9468" r="29.9532" transform="matrix(-0.746009 0.665936 0.665936 0.746009 688.219 638.487)" fill="#280505" stroke="#890C02" stroke-width="1.98737"/>
<circle cx="23.3842" cy="23.3842" r="22.3905" transform="matrix(-0.746009 0.665936 0.665936 0.746009 687.617 649.163)" fill="#280505" stroke="#890C02" stroke-width="1.98737"/>
<circle cx="16.1359" cy="16.1359" r="15.1422" transform="matrix(-0.746009 0.665936 0.665936 0.746009 687.031 659.399)" fill="#280505" stroke="#890C02" stroke-width="1.98737"/>
<circle cx="38.5307" cy="38.5307" r="37.537" transform="matrix(-0.746009 0.665936 0.665936 0.746009 746.305 576.467)" fill="#280505" stroke="#890C02" stroke-width="1.98737"/>
<circle cx="38.5307" cy="38.5307" r="37.537" transform="matrix(-0.746009 0.665936 0.665936 0.746009 631.336 679.097)" fill="#280505" stroke="#890C02" stroke-width="1.98737"/>
<circle cx="30.9468" cy="30.9468" r="29.9532" transform="matrix(-0.746009 0.665936 0.665936 0.746009 630.727 689.804)" fill="#280505" stroke="#890C02" stroke-width="1.98737"/>
<circle cx="23.3842" cy="23.3842" r="22.3905" transform="matrix(-0.746009 0.665936 0.665936 0.746009 630.125 700.481)" fill="#280505" stroke="#890C02" stroke-width="1.98737"/>
<circle cx="16.1359" cy="16.1359" r="15.1422" transform="matrix(-0.746009 0.665936 0.665936 0.746009 629.539 710.717)" fill="#280505" stroke="#890C02" stroke-width="1.98737"/>
<circle cx="38.5307" cy="38.5307" r="37.537" transform="matrix(-0.746009 0.665936 0.665936 0.746009 676.578 671.93)" fill="#280505" stroke="#890C02" stroke-width="1.98737"/>
<circle cx="30.9468" cy="30.9468" r="29.9532" transform="matrix(-0.746009 0.665936 0.665936 0.746009 675.969 682.636)" fill="#280505" stroke="#890C02" stroke-width="1.98737"/>
<circle cx="23.3842" cy="23.3842" r="22.3905" transform="matrix(-0.746009 0.665936 0.665936 0.746009 675.367 693.313)" fill="#280505" stroke="#890C02" stroke-width="1.98737"/>
<circle cx="16.1359" cy="16.1359" r="15.1422" transform="matrix(-0.746009 0.665936 0.665936 0.746009 674.781 703.549)" fill="#280505" stroke="#890C02" stroke-width="1.98737"/>
<circle cx="38.5307" cy="38.5307" r="37.537" transform="matrix(-0.746009 0.665936 0.665936 0.746009 734.062 620.614)" fill="#280505" stroke="#890C02" stroke-width="1.98737"/>
<circle cx="30.9468" cy="30.9468" r="29.9532" transform="matrix(-0.746009 0.665936 0.665936 0.746009 733.453 631.321)" fill="#280505" stroke="#890C02" stroke-width="1.98737"/>
<circle cx="23.3842" cy="23.3842" r="22.3905" transform="matrix(-0.746009 0.665936 0.665936 0.746009 732.852 641.999)" fill="#280505" stroke="#890C02" stroke-width="1.98737"/>
<circle cx="38.5307" cy="38.5307" r="37.537" transform="matrix(-0.746009 0.665936 0.665936 0.746009 303.977 428.469)" fill="#280505" stroke="#890C02" stroke-width="1.98737"/>
<circle cx="30.9468" cy="30.9468" r="29.9532" transform="matrix(-0.746009 0.665936 0.665936 0.746009 303.367 439.177)" fill="#280505" stroke="#890C02" stroke-width="1.98737"/>
<circle cx="23.3842" cy="23.3842" r="22.3905" transform="matrix(-0.746009 0.665936 0.665936 0.746009 302.766 449.855)" fill="#280505" stroke="#890C02" stroke-width="1.98737"/>
<circle cx="16.1359" cy="16.1359" r="15.1422" transform="matrix(-0.746009 0.665936 0.665936 0.746009 302.18 460.089)" fill="#280505" stroke="#890C02" stroke-width="1.98737"/>
<circle cx="38.5307" cy="38.5307" r="37.537" transform="matrix(-0.746009 0.665936 0.665936 0.746009 362.352 378.137)" fill="#280505" stroke="#890C02" stroke-width="1.98737"/>
<circle cx="30.9468" cy="30.9468" r="29.9532" transform="matrix(-0.746009 0.665936 0.665936 0.746009 361.742 388.845)" fill="#280505" stroke="#890C02" stroke-width="1.98737"/>
<circle cx="23.3842" cy="23.3842" r="22.3905" transform="matrix(-0.746009 0.665936 0.665936 0.746009 361.141 399.523)" fill="#280505" stroke="#890C02" stroke-width="1.98737"/>
<circle cx="16.1359" cy="16.1359" r="15.1422" transform="matrix(-0.746009 0.665936 0.665936 0.746009 360.555 409.757)" fill="#280505" stroke="#890C02" stroke-width="1.98737"/>
<circle cx="38.5307" cy="38.5307" r="37.537" transform="matrix(-0.746009 0.665936 0.665936 0.746009 350.828 423.084)" fill="#280505" stroke="#890C02" stroke-width="1.98737"/>
<circle cx="30.9468" cy="30.9468" r="29.9532" transform="matrix(-0.746009 0.665936 0.665936 0.746009 350.219 433.793)" fill="#280505" stroke="#890C02" stroke-width="1.98737"/>
<circle cx="23.3842" cy="23.3842" r="22.3905" transform="matrix(-0.746009 0.665936 0.665936 0.746009 349.617 444.47)" fill="#280505" stroke="#890C02" stroke-width="1.98737"/>
<circle cx="16.1359" cy="16.1359" r="15.1422" transform="matrix(-0.746009 0.665936 0.665936 0.746009 349.031 454.706)" fill="#280505" stroke="#890C02" stroke-width="1.98737"/>
<circle cx="38.5307" cy="38.5307" r="37.537" transform="matrix(-0.746009 0.665936 0.665936 0.746009 293.336 474.404)" fill="#280505" stroke="#890C02" stroke-width="1.98737"/>
<circle cx="30.9468" cy="30.9468" r="29.9532" transform="matrix(-0.746009 0.665936 0.665936 0.746009 292.727 485.111)" fill="#280505" stroke="#890C02" stroke-width="1.98737"/>
<circle cx="23.3842" cy="23.3842" r="22.3905" transform="matrix(-0.746009 0.665936 0.665936 0.746009 292.125 495.791)" fill="#280505" stroke="#890C02" stroke-width="1.98737"/>
<circle cx="16.1359" cy="16.1359" r="15.1422" transform="matrix(-0.746009 0.665936 0.665936 0.746009 291.539 506.024)" fill="#280505" stroke="#890C02" stroke-width="1.98737"/>
<circle cx="38.5307" cy="38.5307" r="37.537" transform="matrix(-0.746009 0.665936 0.665936 0.746009 340.383 469.251)" fill="#280505" stroke="#890C02" stroke-width="1.98737"/>
<circle cx="30.9468" cy="30.9468" r="29.9532" transform="matrix(-0.746009 0.665936 0.665936 0.746009 339.773 479.958)" fill="#280505" stroke="#890C02" stroke-width="1.98737"/>
<circle cx="23.3842" cy="23.3842" r="22.3905" transform="matrix(-0.746009 0.665936 0.665936 0.746009 339.172 490.636)" fill="#280505" stroke="#890C02" stroke-width="1.98737"/>
<circle cx="16.1359" cy="16.1359" r="15.1422" transform="matrix(-0.746009 0.665936 0.665936 0.746009 338.586 500.871)" fill="#280505" stroke="#890C02" stroke-width="1.98737"/>
<circle cx="38.5307" cy="38.5307" r="37.537" transform="matrix(-0.746009 0.665936 0.665936 0.746009 282.898 520.569)" fill="#280505" stroke="#890C02" stroke-width="1.98737"/>
<circle cx="30.9468" cy="30.9468" r="29.9532" transform="matrix(-0.746009 0.665936 0.665936 0.746009 282.289 531.277)" fill="#280505" stroke="#890C02" stroke-width="1.98737"/>
<circle cx="23.3842" cy="23.3842" r="22.3905" transform="matrix(-0.746009 0.665936 0.665936 0.746009 281.688 541.955)" fill="#280505" stroke="#890C02" stroke-width="1.98737"/>
<circle cx="16.1359" cy="16.1359" r="15.1422" transform="matrix(-0.746009 0.665936 0.665936 0.746009 281.102 552.19)" fill="#280505" stroke="#890C02" stroke-width="1.98737"/>
<circle cx="38.5307" cy="38.5307" r="37.537" transform="matrix(-0.746009 0.665936 0.665936 0.746009 397.875 417.934)" fill="#280505" stroke="#890C02" stroke-width="1.98737"/>
<circle cx="30.9468" cy="30.9468" r="29.9532" transform="matrix(-0.746009 0.665936 0.665936 0.746009 397.266 428.639)" fill="#280505" stroke="#890C02" stroke-width="1.98737"/>
<circle cx="23.3842" cy="23.3842" r="22.3905" transform="matrix(-0.746009 0.665936 0.665936 0.746009 396.664 439.318)" fill="#280505" stroke="#890C02" stroke-width="1.98737"/>
<circle cx="16.1359" cy="16.1359" r="15.1422" transform="matrix(-0.746009 0.665936 0.665936 0.746009 396.078 449.553)" fill="#280505" stroke="#890C02" stroke-width="1.98737"/>
<circle cx="38.5307" cy="38.5307" r="37.537" transform="matrix(-0.746009 0.665936 0.665936 0.746009 385.641 462.088)" fill="#280505" stroke="#890C02" stroke-width="1.98737"/>
<circle cx="30.9468" cy="30.9468" r="29.9532" transform="matrix(-0.746009 0.665936 0.665936 0.746009 385.031 472.796)" fill="#280505" stroke="#890C02" stroke-width="1.98737"/>
<circle cx="23.3842" cy="23.3842" r="22.3905" transform="matrix(-0.746009 0.665936 0.665936 0.746009 384.43 483.473)" fill="#280505" stroke="#890C02" stroke-width="1.98737"/>
<circle cx="16.1359" cy="16.1359" r="15.1422" transform="matrix(-0.746009 0.665936 0.665936 0.746009 383.844 493.708)" fill="#280505" stroke="#890C02" stroke-width="1.98737"/>
<circle cx="38.5307" cy="38.5307" r="37.537" transform="matrix(-0.746009 0.665936 0.665936 0.746009 328.148 513.405)" fill="#280505" stroke="#890C02" stroke-width="1.98737"/>
<circle cx="30.9468" cy="30.9468" r="29.9532" transform="matrix(-0.746009 0.665936 0.665936 0.746009 327.539 524.113)" fill="#280505" stroke="#890C02" stroke-width="1.98737"/>
<circle cx="23.3842" cy="23.3842" r="22.3905" transform="matrix(-0.746009 0.665936 0.665936 0.746009 326.938 534.79)" fill="#280505" stroke="#890C02" stroke-width="1.98737"/>
<circle cx="16.1359" cy="16.1359" r="15.1422" transform="matrix(-0.746009 0.665936 0.665936 0.746009 326.352 545.026)" fill="#280505" stroke="#890C02" stroke-width="1.98737"/>
<circle cx="38.5307" cy="38.5307" r="37.537" transform="matrix(-0.746009 0.665936 0.665936 0.746009 373.398 506.233)" fill="#280505" stroke="#890C02" stroke-width="1.98737"/>
<circle cx="30.9468" cy="30.9468" r="29.9532" transform="matrix(-0.746009 0.665936 0.665936 0.746009 372.789 516.941)" fill="#280505" stroke="#890C02" stroke-width="1.98737"/>
<circle cx="23.3842" cy="23.3842" r="22.3905" transform="matrix(-0.746009 0.665936 0.665936 0.746009 372.188 527.62)" fill="#280505" stroke="#890C02" stroke-width="1.98737"/>
<circle cx="16.1359" cy="16.1359" r="15.1422" transform="matrix(-0.746009 0.665936 0.665936 0.746009 371.602 537.854)" fill="#280505" stroke="#890C02" stroke-width="1.98737"/>
<circle cx="38.5307" cy="38.5307" r="37.537" transform="matrix(-0.746009 0.665936 0.665936 0.746009 430.883 454.919)" fill="#280505" stroke="#890C02" stroke-width="1.98737"/>
<circle cx="30.9468" cy="30.9468" r="29.9532" transform="matrix(-0.746009 0.665936 0.665936 0.746009 430.273 465.626)" fill="#280505" stroke="#890C02" stroke-width="1.98737"/>
<circle cx="23.3842" cy="23.3842" r="22.3905" transform="matrix(-0.746009 0.665936 0.665936 0.746009 429.672 476.303)" fill="#280505" stroke="#890C02" stroke-width="1.98737"/>
<circle cx="16.1359" cy="16.1359" r="15.1422" transform="matrix(-0.746009 0.665936 0.665936 0.746009 429.086 486.538)" fill="#280505" stroke="#890C02" stroke-width="1.98737"/>
<circle cx="38.5307" cy="38.5307" r="37.537" transform="matrix(-0.746009 0.665936 0.665936 0.746009 74.0234 633.743)" fill="#280505" stroke="#890C02" stroke-width="1.98737"/>
<circle cx="30.9468" cy="30.9468" r="29.9532" transform="matrix(-0.746009 0.665936 0.665936 0.746009 73.4141 644.45)" fill="#280505" stroke="#890C02" stroke-width="1.98737"/>
<circle cx="23.3842" cy="23.3842" r="22.3905" transform="matrix(-0.746009 0.665936 0.665936 0.746009 72.8125 655.13)" fill="#280505" stroke="#890C02" stroke-width="1.98737"/>
<circle cx="16.1359" cy="16.1359" r="15.1422" transform="matrix(-0.746009 0.665936 0.665936 0.746009 72.2266 665.363)" fill="#280505" stroke="#890C02" stroke-width="1.98737"/>
<circle cx="38.5307" cy="38.5307" r="37.537" transform="matrix(-0.746009 0.665936 0.665936 0.746009 16.5469 685.045)" fill="#280505" stroke="#890C02" stroke-width="1.98737"/>
<circle cx="30.9468" cy="30.9468" r="29.9532" transform="matrix(-0.746009 0.665936 0.665936 0.746009 15.9375 695.753)" fill="#280505" stroke="#890C02" stroke-width="1.98737"/>
<circle cx="23.3842" cy="23.3842" r="22.3905" transform="matrix(-0.746009 0.665936 0.665936 0.746009 15.3359 706.431)" fill="#280505" stroke="#890C02" stroke-width="1.98737"/>
<circle cx="16.1359" cy="16.1359" r="15.1422" transform="matrix(-0.746009 0.665936 0.665936 0.746009 14.7578 716.664)" fill="#280505" stroke="#890C02" stroke-width="1.98737"/>
<circle cx="38.5307" cy="38.5307" r="37.537" transform="matrix(-0.746009 0.665936 0.665936 0.746009 178.359 577.037)" fill="#280505" stroke="#890C02" stroke-width="1.98737"/>
<circle cx="30.9468" cy="30.9468" r="29.9532" transform="matrix(-0.746009 0.665936 0.665936 0.746009 177.75 587.747)" fill="#280505" stroke="#890C02" stroke-width="1.98737"/>
<circle cx="23.3842" cy="23.3842" r="22.3905" transform="matrix(-0.746009 0.665936 0.665936 0.746009 177.141 598.426)" fill="#280505" stroke="#890C02" stroke-width="1.98737"/>
<circle cx="16.1359" cy="16.1359" r="15.1422" transform="matrix(-0.746009 0.665936 0.665936 0.746009 176.562 608.659)" fill="#280505" stroke="#890C02" stroke-width="1.98737"/>
<circle cx="38.5307" cy="38.5307" r="37.537" transform="matrix(-0.746009 0.665936 0.665936 0.746009 63.375 679.678)" fill="#280505" stroke="#890C02" stroke-width="1.98737"/>
<circle cx="30.9468" cy="30.9468" r="29.9532" transform="matrix(-0.746009 0.665936 0.665936 0.746009 62.7656 690.386)" fill="#280505" stroke="#890C02" stroke-width="1.98737"/>
<circle cx="23.3842" cy="23.3842" r="22.3905" transform="matrix(-0.746009 0.665936 0.665936 0.746009 62.1641 701.062)" fill="#280505" stroke="#890C02" stroke-width="1.98737"/>
<circle cx="16.1359" cy="16.1359" r="15.1422" transform="matrix(-0.746009 0.665936 0.665936 0.746009 61.5859 711.297)" fill="#280505" stroke="#890C02" stroke-width="1.98737"/>
<circle cx="38.5307" cy="38.5307" r="37.537" transform="matrix(-0.746009 0.665936 0.665936 0.746009 167.922 623.205)" fill="#280505" stroke="#890C02" stroke-width="1.98737"/>
<circle cx="30.9468" cy="30.9468" r="29.9532" transform="matrix(-0.746009 0.665936 0.665936 0.746009 167.312 633.912)" fill="#280505" stroke="#890C02" stroke-width="1.98737"/>
<circle cx="23.3842" cy="23.3842" r="22.3905" transform="matrix(-0.746009 0.665936 0.665936 0.746009 166.711 644.59)" fill="#280505" stroke="#890C02" stroke-width="1.98737"/>
<circle cx="16.1359" cy="16.1359" r="15.1422" transform="matrix(-0.746009 0.665936 0.665936 0.746009 166.125 654.825)" fill="#280505" stroke="#890C02" stroke-width="1.98737"/>
<circle cx="38.5307" cy="38.5307" r="37.537" transform="matrix(-0.746009 0.665936 0.665936 0.746009 199.484 645)" fill="#280505" stroke="#890C02" stroke-width="1.98737"/>
<circle cx="30.9468" cy="30.9468" r="29.9532" transform="matrix(-0.746009 0.665936 0.665936 0.746009 198.875 655.707)" fill="#280505" stroke="#890C02" stroke-width="1.98737"/>
<circle cx="23.3842" cy="23.3842" r="22.3905" transform="matrix(-0.746009 0.665936 0.665936 0.746009 198.273 666.385)" fill="#280505" stroke="#890C02" stroke-width="1.98737"/>
<circle cx="16.1359" cy="16.1359" r="15.1422" transform="matrix(-0.746009 0.665936 0.665936 0.746009 197.688 676.62)" fill="#280505" stroke="#890C02" stroke-width="1.98737"/>
<circle cx="38.5307" cy="38.5307" r="37.537" transform="matrix(-0.746009 0.665936 0.665936 0.746009 110.43 674.522)" fill="#280505" stroke="#890C02" stroke-width="1.98737"/>
<circle cx="30.9468" cy="30.9468" r="29.9532" transform="matrix(-0.746009 0.665936 0.665936 0.746009 109.82 685.229)" fill="#280505" stroke="#890C02" stroke-width="1.98737"/>
<circle cx="23.3842" cy="23.3842" r="22.3905" transform="matrix(-0.746009 0.665936 0.665936 0.746009 109.219 695.907)" fill="#280505" stroke="#890C02" stroke-width="1.98737"/>
<circle cx="16.1359" cy="16.1359" r="15.1422" transform="matrix(-0.746009 0.665936 0.665936 0.746009 108.633 706.143)" fill="#280505" stroke="#890C02" stroke-width="1.98737"/>
<circle cx="38.5307" cy="38.5307" r="37.537" transform="matrix(-0.746009 0.665936 0.665936 0.746009 52.9375 725.844)" fill="#280505" stroke="#890C02" stroke-width="1.98737"/>
<circle cx="30.9468" cy="30.9468" r="29.9532" transform="matrix(-0.746009 0.665936 0.665936 0.746009 52.3281 736.551)" fill="#280505" stroke="#890C02" stroke-width="1.98737"/>
<circle cx="38.5307" cy="38.5307" r="37.537" transform="matrix(-0.746009 0.665936 0.665936 0.746009 225.406 571.887)" fill="#280505" stroke="#890C02" stroke-width="1.98737"/>
<circle cx="30.9468" cy="30.9468" r="29.9532" transform="matrix(-0.746009 0.665936 0.665936 0.746009 224.797 582.595)" fill="#280505" stroke="#890C02" stroke-width="1.98737"/>
<circle cx="23.3842" cy="23.3842" r="22.3905" transform="matrix(-0.746009 0.665936 0.665936 0.746009 224.195 593.272)" fill="#280505" stroke="#890C02" stroke-width="1.98737"/>
<circle cx="16.1359" cy="16.1359" r="15.1422" transform="matrix(-0.746009 0.665936 0.665936 0.746009 223.609 603.507)" fill="#280505" stroke="#890C02" stroke-width="1.98737"/>
<circle cx="38.5307" cy="38.5307" r="37.537" transform="matrix(-0.746009 0.665936 0.665936 0.746009 213.172 616.042)" fill="#280505" stroke="#890C02" stroke-width="1.98737"/>
<circle cx="30.9468" cy="30.9468" r="29.9532" transform="matrix(-0.746009 0.665936 0.665936 0.746009 212.562 626.75)" fill="#280505" stroke="#890C02" stroke-width="1.98737"/>
<circle cx="23.3842" cy="23.3842" r="22.3905" transform="matrix(-0.746009 0.665936 0.665936 0.746009 211.961 637.429)" fill="#280505" stroke="#890C02" stroke-width="1.98737"/>
<circle cx="16.1359" cy="16.1359" r="15.1422" transform="matrix(-0.746009 0.665936 0.665936 0.746009 211.375 647.662)" fill="#280505" stroke="#890C02" stroke-width="1.98737"/>
<circle cx="38.5307" cy="38.5307" r="37.537" transform="matrix(-0.746009 0.665936 0.665936 0.746009 98.2109 718.662)" fill="#280505" stroke="#890C02" stroke-width="1.98737"/>
<circle cx="30.9468" cy="30.9468" r="29.9532" transform="matrix(-0.746009 0.665936 0.665936 0.746009 97.6016 729.371)" fill="#280505" stroke="#890C02" stroke-width="1.98737"/>
<circle cx="23.3842" cy="23.3842" r="22.3905" transform="matrix(-0.746009 0.665936 0.665936 0.746009 97 740.049)" fill="#280505" stroke="#890C02" stroke-width="1.98737"/>
<circle cx="38.5307" cy="38.5307" r="37.537" transform="matrix(-0.746009 0.665936 0.665936 0.746009 143.445 711.505)" fill="#280505" stroke="#890C02" stroke-width="1.98737"/>
<circle cx="30.9468" cy="30.9468" r="29.9532" transform="matrix(-0.746009 0.665936 0.665936 0.746009 142.836 722.214)" fill="#280505" stroke="#890C02" stroke-width="1.98737"/>
<circle cx="23.3842" cy="23.3842" r="22.3905" transform="matrix(-0.746009 0.665936 0.665936 0.746009 142.227 732.892)" fill="#280505" stroke="#890C02" stroke-width="1.98737"/>
<circle cx="38.5307" cy="38.5307" r="37.537" transform="matrix(-0.746009 0.665936 0.665936 0.746009 269.07 562.934)" fill="#280505" stroke="#890C02" stroke-width="1.98737"/>
<circle cx="30.9468" cy="30.9468" r="29.9532" transform="matrix(-0.746009 0.665936 0.665936 0.746009 268.469 573.641)" fill="#280505" stroke="#890C02" stroke-width="1.98737"/>
<circle cx="23.3842" cy="23.3842" r="22.3905" transform="matrix(-0.746009 0.665936 0.665936 0.746009 267.859 584.319)" fill="#280505" stroke="#890C02" stroke-width="1.98737"/>
<circle cx="16.1359" cy="16.1359" r="15.1422" transform="matrix(-0.746009 0.665936 0.665936 0.746009 267.281 594.553)" fill="#280505" stroke="#890C02" stroke-width="1.98737"/>
<circle cx="38.5307" cy="38.5307" r="37.537" transform="matrix(-0.746009 0.665936 0.665936 0.746009 315.914 557.549)" fill="#280505" stroke="#890C02" stroke-width="1.98737"/>
<circle cx="30.9468" cy="30.9468" r="29.9532" transform="matrix(-0.746009 0.665936 0.665936 0.746009 315.305 568.257)" fill="#280505" stroke="#890C02" stroke-width="1.98737"/>
<circle cx="23.3842" cy="23.3842" r="22.3905" transform="matrix(-0.746009 0.665936 0.665936 0.746009 314.703 578.936)" fill="#280505" stroke="#890C02" stroke-width="1.98737"/>
<circle cx="16.1359" cy="16.1359" r="15.1422" transform="matrix(-0.746009 0.665936 0.665936 0.746009 314.117 589.169)" fill="#280505" stroke="#890C02" stroke-width="1.98737"/>
<circle cx="38.5307" cy="38.5307" r="37.537" transform="matrix(-0.746009 0.665936 0.665936 0.746009 258.43 608.866)" fill="#280505" stroke="#890C02" stroke-width="1.98737"/>
<circle cx="30.9468" cy="30.9468" r="29.9532" transform="matrix(-0.746009 0.665936 0.665936 0.746009 257.82 619.576)" fill="#280505" stroke="#890C02" stroke-width="1.98737"/>
<circle cx="23.3842" cy="23.3842" r="22.3905" transform="matrix(-0.746009 0.665936 0.665936 0.746009 257.219 630.253)" fill="#280505" stroke="#890C02" stroke-width="1.98737"/>
<circle cx="16.1359" cy="16.1359" r="15.1422" transform="matrix(-0.746009 0.665936 0.665936 0.746009 256.633 640.486)" fill="#280505" stroke="#890C02" stroke-width="1.98737"/>
<circle cx="38.5307" cy="38.5307" r="37.537" transform="matrix(-0.746009 0.665936 0.665936 0.746009 305.477 603.715)" fill="#280505" stroke="#890C02" stroke-width="1.98737"/>
<circle cx="30.9468" cy="30.9468" r="29.9532" transform="matrix(-0.746009 0.665936 0.665936 0.746009 304.867 614.423)" fill="#280505" stroke="#890C02" stroke-width="1.98737"/>
<circle cx="23.3842" cy="23.3842" r="22.3905" transform="matrix(-0.746009 0.665936 0.665936 0.746009 304.266 625.102)" fill="#280505" stroke="#890C02" stroke-width="1.98737"/>
<circle cx="16.1359" cy="16.1359" r="15.1422" transform="matrix(-0.746009 0.665936 0.665936 0.746009 303.68 635.335)" fill="#280505" stroke="#890C02" stroke-width="1.98737"/>
<circle cx="38.5307" cy="38.5307" r="37.537" transform="matrix(-0.746009 0.665936 0.665936 0.746009 247.984 655.032)" fill="#280505" stroke="#890C02" stroke-width="1.98737"/>
<circle cx="30.9468" cy="30.9468" r="29.9532" transform="matrix(-0.746009 0.665936 0.665936 0.746009 247.375 665.741)" fill="#280505" stroke="#890C02" stroke-width="1.98737"/>
<circle cx="23.3842" cy="23.3842" r="22.3905" transform="matrix(-0.746009 0.665936 0.665936 0.746009 246.773 676.419)" fill="#280505" stroke="#890C02" stroke-width="1.98737"/>
<circle cx="16.1359" cy="16.1359" r="15.1422" transform="matrix(-0.746009 0.665936 0.665936 0.746009 246.188 686.652)" fill="#280505" stroke="#890C02" stroke-width="1.98737"/>
<circle cx="38.5307" cy="38.5307" r="37.537" transform="matrix(-0.746009 0.665936 0.665936 0.746009 362.961 552.397)" fill="#280505" stroke="#890C02" stroke-width="1.98737"/>
<circle cx="30.9468" cy="30.9468" r="29.9532" transform="matrix(-0.746009 0.665936 0.665936 0.746009 362.352 563.104)" fill="#280505" stroke="#890C02" stroke-width="1.98737"/>
<circle cx="23.3842" cy="23.3842" r="22.3905" transform="matrix(-0.746009 0.665936 0.665936 0.746009 361.75 573.782)" fill="#280505" stroke="#890C02" stroke-width="1.98737"/>
<circle cx="16.1359" cy="16.1359" r="15.1422" transform="matrix(-0.746009 0.665936 0.665936 0.746009 361.164 584.017)" fill="#280505" stroke="#890C02" stroke-width="1.98737"/>
<circle cx="38.5307" cy="38.5307" r="37.537" transform="matrix(-0.746009 0.665936 0.665936 0.746009 190.508 706.336)" fill="#280505" stroke="#890C02" stroke-width="1.98737"/>
<circle cx="30.9468" cy="30.9468" r="29.9532" transform="matrix(-0.746009 0.665936 0.665936 0.746009 189.898 717.045)" fill="#280505" stroke="#890C02" stroke-width="1.98737"/>
<circle cx="23.3842" cy="23.3842" r="22.3905" transform="matrix(-0.746009 0.665936 0.665936 0.746009 189.297 727.723)" fill="#280505" stroke="#890C02" stroke-width="1.98737"/>
<circle cx="16.1359" cy="16.1359" r="15.1422" transform="matrix(-0.746009 0.665936 0.665936 0.746009 188.711 737.958)" fill="#280505" stroke="#890C02" stroke-width="1.98737"/>
<circle cx="38.5307" cy="38.5307" r="37.537" transform="matrix(-0.746009 0.665936 0.665936 0.746009 420.445 501.084)" fill="#280505" stroke="#890C02" stroke-width="1.98737"/>
<circle cx="30.9468" cy="30.9468" r="29.9532" transform="matrix(-0.746009 0.665936 0.665936 0.746009 419.836 511.793)" fill="#280505" stroke="#890C02" stroke-width="1.98737"/>
<circle cx="23.3842" cy="23.3842" r="22.3905" transform="matrix(-0.746009 0.665936 0.665936 0.746009 419.234 522.471)" fill="#280505" stroke="#890C02" stroke-width="1.98737"/>
<circle cx="16.1359" cy="16.1359" r="15.1422" transform="matrix(-0.746009 0.665936 0.665936 0.746009 418.648 532.704)" fill="#280505" stroke="#890C02" stroke-width="1.98737"/>
<circle cx="38.5307" cy="38.5307" r="37.537" transform="matrix(-0.746009 0.665936 0.665936 0.746009 350.734 596.552)" fill="#280505" stroke="#890C02" stroke-width="1.98737"/>
<circle cx="30.9468" cy="30.9468" r="29.9532" transform="matrix(-0.746009 0.665936 0.665936 0.746009 350.125 607.26)" fill="#280505" stroke="#890C02" stroke-width="1.98737"/>
<circle cx="23.3842" cy="23.3842" r="22.3905" transform="matrix(-0.746009 0.665936 0.665936 0.746009 349.523 617.938)" fill="#280505" stroke="#890C02" stroke-width="1.98737"/>
<circle cx="16.1359" cy="16.1359" r="15.1422" transform="matrix(-0.746009 0.665936 0.665936 0.746009 348.938 628.173)" fill="#280505" stroke="#890C02" stroke-width="1.98737"/>
<circle cx="38.5307" cy="38.5307" r="37.537" transform="matrix(-0.746009 0.665936 0.665936 0.746009 408.211 545.239)" fill="#280505" stroke="#890C02" stroke-width="1.98737"/>
<circle cx="30.9468" cy="30.9468" r="29.9532" transform="matrix(-0.746009 0.665936 0.665936 0.746009 407.602 555.946)" fill="#280505" stroke="#890C02" stroke-width="1.98737"/>
<circle cx="23.3842" cy="23.3842" r="22.3905" transform="matrix(-0.746009 0.665936 0.665936 0.746009 407 566.624)" fill="#280505" stroke="#890C02" stroke-width="1.98737"/>
<circle cx="16.1359" cy="16.1359" r="15.1422" transform="matrix(-0.746009 0.665936 0.665936 0.746009 406.414 576.859)" fill="#280505" stroke="#890C02" stroke-width="1.98737"/>
<circle cx="38.5307" cy="38.5307" r="37.537" transform="matrix(-0.746009 0.665936 0.665936 0.746009 465.703 493.916)" fill="#280505" stroke="#890C02" stroke-width="1.98737"/>
<circle cx="30.9468" cy="30.9468" r="29.9532" transform="matrix(-0.746009 0.665936 0.665936 0.746009 465.094 504.624)" fill="#280505" stroke="#890C02" stroke-width="1.98737"/>
<circle cx="23.3842" cy="23.3842" r="22.3905" transform="matrix(-0.746009 0.665936 0.665936 0.746009 464.492 515.303)" fill="#280505" stroke="#890C02" stroke-width="1.98737"/>
<circle cx="16.1359" cy="16.1359" r="15.1422" transform="matrix(-0.746009 0.665936 0.665936 0.746009 463.906 525.536)" fill="#280505" stroke="#890C02" stroke-width="1.98737"/>
<circle cx="38.5307" cy="38.5307" r="37.537" transform="matrix(-0.746009 0.665936 0.665936 0.746009 293.242 647.869)" fill="#280505" stroke="#890C02" stroke-width="1.98737"/>
<circle cx="30.9468" cy="30.9468" r="29.9532" transform="matrix(-0.746009 0.665936 0.665936 0.746009 292.633 658.579)" fill="#280505" stroke="#890C02" stroke-width="1.98737"/>
<circle cx="23.3842" cy="23.3842" r="22.3905" transform="matrix(-0.746009 0.665936 0.665936 0.746009 292.031 669.256)" fill="#280505" stroke="#890C02" stroke-width="1.98737"/>
<circle cx="16.1359" cy="16.1359" r="15.1422" transform="matrix(-0.746009 0.665936 0.665936 0.746009 291.445 679.489)" fill="#280505" stroke="#890C02" stroke-width="1.98737"/>
<circle cx="38.5307" cy="38.5307" r="37.537" transform="matrix(-0.746009 0.665936 0.665936 0.746009 235.758 699.183)" fill="#280505" stroke="#890C02" stroke-width="1.98737"/>
<circle cx="30.9468" cy="30.9468" r="29.9532" transform="matrix(-0.746009 0.665936 0.665936 0.746009 235.148 709.889)" fill="#280505" stroke="#890C02" stroke-width="1.98737"/>
<circle cx="23.3842" cy="23.3842" r="22.3905" transform="matrix(-0.746009 0.665936 0.665936 0.746009 234.547 720.567)" fill="#280505" stroke="#890C02" stroke-width="1.98737"/>
<circle cx="16.1359" cy="16.1359" r="15.1422" transform="matrix(-0.746009 0.665936 0.665936 0.746009 233.961 730.802)" fill="#280505" stroke="#890C02" stroke-width="1.98737"/>
<circle cx="38.5307" cy="38.5307" r="37.537" transform="matrix(-0.746009 0.665936 0.665936 0.746009 338.484 640.7)" fill="#280505" stroke="#890C02" stroke-width="1.98737"/>
<circle cx="30.9468" cy="30.9468" r="29.9532" transform="matrix(-0.746009 0.665936 0.665936 0.746009 337.875 651.406)" fill="#280505" stroke="#890C02" stroke-width="1.98737"/>
<circle cx="23.3842" cy="23.3842" r="22.3905" transform="matrix(-0.746009 0.665936 0.665936 0.746009 337.273 662.084)" fill="#280505" stroke="#890C02" stroke-width="1.98737"/>
<circle cx="16.1359" cy="16.1359" r="15.1422" transform="matrix(-0.746009 0.665936 0.665936 0.746009 336.688 672.319)" fill="#280505" stroke="#890C02" stroke-width="1.98737"/>
<circle cx="38.5307" cy="38.5307" r="37.537" transform="matrix(-0.746009 0.665936 0.665936 0.746009 395.969 589.387)" fill="#280505" stroke="#890C02" stroke-width="1.98737"/>
<circle cx="30.9468" cy="30.9468" r="29.9532" transform="matrix(-0.746009 0.665936 0.665936 0.746009 395.367 600.093)" fill="#280505" stroke="#890C02" stroke-width="1.98737"/>
<circle cx="23.3842" cy="23.3842" r="22.3905" transform="matrix(-0.746009 0.665936 0.665936 0.746009 394.758 610.771)" fill="#280505" stroke="#890C02" stroke-width="1.98737"/>
<circle cx="16.1359" cy="16.1359" r="15.1422" transform="matrix(-0.746009 0.665936 0.665936 0.746009 394.18 621.006)" fill="#280505" stroke="#890C02" stroke-width="1.98737"/>
<circle cx="38.5307" cy="38.5307" r="37.537" transform="matrix(-0.746009 0.665936 0.665936 0.746009 453.461 538.067)" fill="#280505" stroke="#890C02" stroke-width="1.98737"/>
<circle cx="30.9468" cy="30.9468" r="29.9532" transform="matrix(-0.746009 0.665936 0.665936 0.746009 452.852 548.776)" fill="#280505" stroke="#890C02" stroke-width="1.98737"/>
<circle cx="23.3842" cy="23.3842" r="22.3905" transform="matrix(-0.746009 0.665936 0.665936 0.746009 452.25 559.451)" fill="#280505" stroke="#890C02" stroke-width="1.98737"/>
<circle cx="16.1359" cy="16.1359" r="15.1422" transform="matrix(-0.746009 0.665936 0.665936 0.746009 451.664 569.688)" fill="#280505" stroke="#890C02" stroke-width="1.98737"/>
<circle cx="38.5307" cy="38.5307" r="37.537" transform="matrix(-0.746009 0.665936 0.665936 0.746009 281.008 692.01)" fill="#280505" stroke="#890C02" stroke-width="1.98737"/>
<circle cx="30.9468" cy="30.9468" r="29.9532" transform="matrix(-0.746009 0.665936 0.665936 0.746009 280.398 702.719)" fill="#280505" stroke="#890C02" stroke-width="1.98737"/>
<circle cx="23.3842" cy="23.3842" r="22.3905" transform="matrix(-0.746009 0.665936 0.665936 0.746009 279.797 713.396)" fill="#280505" stroke="#890C02" stroke-width="1.98737"/>
<circle cx="16.1359" cy="16.1359" r="15.1422" transform="matrix(-0.746009 0.665936 0.665936 0.746009 279.211 723.63)" fill="#280505" stroke="#890C02" stroke-width="1.98737"/>
<circle cx="38.5307" cy="38.5307" r="37.537" transform="matrix(-0.746009 0.665936 0.665936 0.746009 382.156 631.729)" fill="#280505" stroke="#890C02" stroke-width="1.98737"/>
<circle cx="30.9468" cy="30.9468" r="29.9532" transform="matrix(-0.746009 0.665936 0.665936 0.746009 381.547 642.439)" fill="#280505" stroke="#890C02" stroke-width="1.98737"/>
<circle cx="23.3842" cy="23.3842" r="22.3905" transform="matrix(-0.746009 0.665936 0.665936 0.746009 380.945 653.116)" fill="#280505" stroke="#890C02" stroke-width="1.98737"/>
<circle cx="16.1359" cy="16.1359" r="15.1422" transform="matrix(-0.746009 0.665936 0.665936 0.746009 380.359 663.35)" fill="#280505" stroke="#890C02" stroke-width="1.98737"/>
<circle cx="38.5307" cy="38.5307" r="37.537" transform="matrix(-0.746009 0.665936 0.665936 0.746009 439.641 580.417)" fill="#280505" stroke="#890C02" stroke-width="1.98737"/>
<circle cx="30.9468" cy="30.9468" r="29.9532" transform="matrix(-0.746009 0.665936 0.665936 0.746009 439.031 591.125)" fill="#280505" stroke="#890C02" stroke-width="1.98737"/>
<circle cx="23.3842" cy="23.3842" r="22.3905" transform="matrix(-0.746009 0.665936 0.665936 0.746009 438.43 601.803)" fill="#280505" stroke="#890C02" stroke-width="1.98737"/>
<circle cx="16.1359" cy="16.1359" r="15.1422" transform="matrix(-0.746009 0.665936 0.665936 0.746009 437.844 612.036)" fill="#280505" stroke="#890C02" stroke-width="1.98737"/>
<circle cx="38.5307" cy="38.5307" r="37.537" transform="matrix(-0.746009 0.665936 0.665936 0.746009 497.125 529.098)" fill="#280505" stroke="#890C02" stroke-width="1.98737"/>
<circle cx="30.9468" cy="30.9468" r="29.9532" transform="matrix(-0.746009 0.665936 0.665936 0.746009 496.516 539.807)" fill="#280505" stroke="#890C02" stroke-width="1.98737"/>
<circle cx="23.3842" cy="23.3842" r="22.3905" transform="matrix(-0.746009 0.665936 0.665936 0.746009 495.914 550.483)" fill="#280505" stroke="#890C02" stroke-width="1.98737"/>
<circle cx="16.1359" cy="16.1359" r="15.1422" transform="matrix(-0.746009 0.665936 0.665936 0.746009 495.328 560.718)" fill="#280505" stroke="#890C02" stroke-width="1.98737"/>
<circle cx="38.5307" cy="38.5307" r="37.537" transform="matrix(-0.746009 0.665936 0.665936 0.746009 324.664 683.049)" fill="#280505" stroke="#890C02" stroke-width="1.98737"/>
<circle cx="30.9468" cy="30.9468" r="29.9532" transform="matrix(-0.746009 0.665936 0.665936 0.746009 324.055 693.758)" fill="#280505" stroke="#890C02" stroke-width="1.98737"/>
<circle cx="23.3842" cy="23.3842" r="22.3905" transform="matrix(-0.746009 0.665936 0.665936 0.746009 323.453 704.435)" fill="#280505" stroke="#890C02" stroke-width="1.98737"/>
<circle cx="16.1359" cy="16.1359" r="15.1422" transform="matrix(-0.746009 0.665936 0.665936 0.746009 322.875 714.668)" fill="#280505" stroke="#890C02" stroke-width="1.98737"/>
<circle cx="38.5307" cy="38.5307" r="37.537" transform="matrix(-0.746009 0.665936 0.665936 0.746009 267.172 734.371)" fill="#280505" stroke="#890C02" stroke-width="1.98737"/>
<circle cx="38.5307" cy="38.5307" r="37.537" transform="matrix(-0.746009 0.665936 0.665936 0.746009 371.711 677.897)" fill="#280505" stroke="#890C02" stroke-width="1.98737"/>
<circle cx="30.9468" cy="30.9468" r="29.9532" transform="matrix(-0.746009 0.665936 0.665936 0.746009 371.102 688.605)" fill="#280505" stroke="#890C02" stroke-width="1.98737"/>
<circle cx="23.3842" cy="23.3842" r="22.3905" transform="matrix(-0.746009 0.665936 0.665936 0.746009 370.5 699.283)" fill="#280505" stroke="#890C02" stroke-width="1.98737"/>
<circle cx="16.1359" cy="16.1359" r="15.1422" transform="matrix(-0.746009 0.665936 0.665936 0.746009 369.922 709.517)" fill="#280505" stroke="#890C02" stroke-width="1.98737"/>
<circle cx="38.5307" cy="38.5307" r="37.537" transform="matrix(-0.746009 0.665936 0.665936 0.746009 314.227 729.216)" fill="#280505" stroke="#890C02" stroke-width="1.98737"/>
<circle cx="30.9468" cy="30.9468" r="29.9532" transform="matrix(-0.746009 0.665936 0.665936 0.746009 313.617 739.923)" fill="#280505" stroke="#890C02" stroke-width="1.98737"/>
<circle cx="38.5307" cy="38.5307" r="37.537" transform="matrix(-0.746009 0.665936 0.665936 0.746009 429.203 626.58)" fill="#280505" stroke="#890C02" stroke-width="1.98737"/>
<circle cx="30.9468" cy="30.9468" r="29.9532" transform="matrix(-0.746009 0.665936 0.665936 0.746009 428.594 637.288)" fill="#280505" stroke="#890C02" stroke-width="1.98737"/>
<circle cx="23.3842" cy="23.3842" r="22.3905" transform="matrix(-0.746009 0.665936 0.665936 0.746009 427.992 647.967)" fill="#280505" stroke="#890C02" stroke-width="1.98737"/>
<circle cx="16.1359" cy="16.1359" r="15.1422" transform="matrix(-0.746009 0.665936 0.665936 0.746009 427.406 658.2)" fill="#280505" stroke="#890C02" stroke-width="1.98737"/>
<circle cx="38.5307" cy="38.5307" r="37.537" transform="matrix(-0.746009 0.665936 0.665936 0.746009 486.688 575.261)" fill="#280505" stroke="#890C02" stroke-width="1.98737"/>
<circle cx="30.9468" cy="30.9468" r="29.9532" transform="matrix(-0.746009 0.665936 0.665936 0.746009 486.078 585.97)" fill="#280505" stroke="#890C02" stroke-width="1.98737"/>
<circle cx="23.3842" cy="23.3842" r="22.3905" transform="matrix(-0.746009 0.665936 0.665936 0.746009 485.477 596.647)" fill="#280505" stroke="#890C02" stroke-width="1.98737"/>
<circle cx="16.1359" cy="16.1359" r="15.1422" transform="matrix(-0.746009 0.665936 0.665936 0.746009 484.891 606.881)" fill="#280505" stroke="#890C02" stroke-width="1.98737"/>
<circle cx="38.5307" cy="38.5307" r="37.537" transform="matrix(-0.746009 0.665936 0.665936 0.746009 416.969 670.734)" fill="#280505" stroke="#890C02" stroke-width="1.98737"/>
<circle cx="30.9468" cy="30.9468" r="29.9532" transform="matrix(-0.746009 0.665936 0.665936 0.746009 416.359 681.442)" fill="#280505" stroke="#890C02" stroke-width="1.98737"/>
<circle cx="23.3842" cy="23.3842" r="22.3905" transform="matrix(-0.746009 0.665936 0.665936 0.746009 415.758 692.119)" fill="#280505" stroke="#890C02" stroke-width="1.98737"/>
<circle cx="16.1359" cy="16.1359" r="15.1422" transform="matrix(-0.746009 0.665936 0.665936 0.746009 415.172 702.354)" fill="#280505" stroke="#890C02" stroke-width="1.98737"/>
<circle cx="38.5307" cy="38.5307" r="37.537" transform="matrix(-0.746009 0.665936 0.665936 0.746009 359.477 722.052)" fill="#280505" stroke="#890C02" stroke-width="1.98737"/>
<circle cx="30.9468" cy="30.9468" r="29.9532" transform="matrix(-0.746009 0.665936 0.665936 0.746009 358.867 732.761)" fill="#280505" stroke="#890C02" stroke-width="1.98737"/>
<circle cx="38.5307" cy="38.5307" r="37.537" transform="matrix(-0.746009 0.665936 0.665936 0.746009 404.727 714.88)" fill="#280505" stroke="#890C02" stroke-width="1.98737"/>
<circle cx="30.9468" cy="30.9468" r="29.9532" transform="matrix(-0.746009 0.665936 0.665936 0.746009 404.117 725.587)" fill="#280505" stroke="#890C02" stroke-width="1.98737"/>
<circle cx="23.3842" cy="23.3842" r="22.3905" transform="matrix(-0.746009 0.665936 0.665936 0.746009 403.516 736.265)" fill="#280505" stroke="#890C02" stroke-width="1.98737"/>
<circle cx="38.5307" cy="38.5307" r="37.537" transform="matrix(-0.746009 0.665936 0.665936 0.746009 469.438 613.798)" fill="#280505" stroke="#890C02" stroke-width="1.98737"/>
<circle cx="30.9468" cy="30.9468" r="29.9532" transform="matrix(-0.746009 0.665936 0.665936 0.746009 468.828 624.506)" fill="#280505" stroke="#890C02" stroke-width="1.98737"/>
<circle cx="23.3842" cy="23.3842" r="22.3905" transform="matrix(-0.746009 0.665936 0.665936 0.746009 468.227 635.184)" fill="#280505" stroke="#890C02" stroke-width="1.98737"/>
<circle cx="16.1359" cy="16.1359" r="15.1422" transform="matrix(-0.746009 0.665936 0.665936 0.746009 467.641 645.418)" fill="#280505" stroke="#890C02" stroke-width="1.98737"/>
<circle cx="38.5307" cy="38.5307" r="37.537" transform="matrix(-0.746009 0.665936 0.665936 0.746009 527.812 563.466)" fill="#280505" stroke="#890C02" stroke-width="1.98737"/>
<circle cx="30.9468" cy="30.9468" r="29.9532" transform="matrix(-0.746009 0.665936 0.665936 0.746009 527.203 574.174)" fill="#280505" stroke="#890C02" stroke-width="1.98737"/>
<circle cx="23.3842" cy="23.3842" r="22.3905" transform="matrix(-0.746009 0.665936 0.665936 0.746009 526.602 584.853)" fill="#280505" stroke="#890C02" stroke-width="1.98737"/>
<circle cx="16.1359" cy="16.1359" r="15.1422" transform="matrix(-0.746009 0.665936 0.665936 0.746009 526.016 595.086)" fill="#280505" stroke="#890C02" stroke-width="1.98737"/>
<circle cx="38.5307" cy="38.5307" r="37.537" transform="matrix(-0.746009 0.665936 0.665936 0.746009 516.281 608.415)" fill="#280505" stroke="#890C02" stroke-width="1.98737"/>
<circle cx="30.9468" cy="30.9468" r="29.9532" transform="matrix(-0.746009 0.665936 0.665936 0.746009 515.68 619.122)" fill="#280505" stroke="#890C02" stroke-width="1.98737"/>
<circle cx="23.3842" cy="23.3842" r="22.3905" transform="matrix(-0.746009 0.665936 0.665936 0.746009 515.07 629.801)" fill="#280505" stroke="#890C02" stroke-width="1.98737"/>
<circle cx="16.1359" cy="16.1359" r="15.1422" transform="matrix(-0.746009 0.665936 0.665936 0.746009 514.492 640.034)" fill="#280505" stroke="#890C02" stroke-width="1.98737"/>
<circle cx="38.5307" cy="38.5307" r="37.537" transform="matrix(-0.746009 0.665936 0.665936 0.746009 458.797 659.732)" fill="#280505" stroke="#890C02" stroke-width="1.98737"/>
<circle cx="30.9468" cy="30.9468" r="29.9532" transform="matrix(-0.746009 0.665936 0.665936 0.746009 458.188 670.44)" fill="#280505" stroke="#890C02" stroke-width="1.98737"/>
<circle cx="23.3842" cy="23.3842" r="22.3905" transform="matrix(-0.746009 0.665936 0.665936 0.746009 457.586 681.119)" fill="#280505" stroke="#890C02" stroke-width="1.98737"/>
<circle cx="16.1359" cy="16.1359" r="15.1422" transform="matrix(-0.746009 0.665936 0.665936 0.746009 457 691.353)" fill="#280505" stroke="#890C02" stroke-width="1.98737"/>
<circle cx="38.5307" cy="38.5307" r="37.537" transform="matrix(-0.746009 0.665936 0.665936 0.746009 505.844 654.58)" fill="#280505" stroke="#890C02" stroke-width="1.98737"/>
<circle cx="30.9468" cy="30.9468" r="29.9532" transform="matrix(-0.746009 0.665936 0.665936 0.746009 505.234 665.287)" fill="#280505" stroke="#890C02" stroke-width="1.98737"/>
<circle cx="23.3842" cy="23.3842" r="22.3905" transform="matrix(-0.746009 0.665936 0.665936 0.746009 504.633 675.965)" fill="#280505" stroke="#890C02" stroke-width="1.98737"/>
<circle cx="16.1359" cy="16.1359" r="15.1422" transform="matrix(-0.746009 0.665936 0.665936 0.746009 504.047 686.2)" fill="#280505" stroke="#890C02" stroke-width="1.98737"/>
<circle cx="38.5307" cy="38.5307" r="37.537" transform="matrix(-0.746009 0.665936 0.665936 0.746009 448.352 705.898)" fill="#280505" stroke="#890C02" stroke-width="1.98737"/>
<circle cx="30.9468" cy="30.9468" r="29.9532" transform="matrix(-0.746009 0.665936 0.665936 0.746009 447.742 716.605)" fill="#280505" stroke="#890C02" stroke-width="1.98737"/>
<circle cx="23.3842" cy="23.3842" r="22.3905" transform="matrix(-0.746009 0.665936 0.665936 0.746009 447.141 727.283)" fill="#280505" stroke="#890C02" stroke-width="1.98737"/>
<circle cx="16.1359" cy="16.1359" r="15.1422" transform="matrix(-0.746009 0.665936 0.665936 0.746009 446.555 737.519)" fill="#280505" stroke="#890C02" stroke-width="1.98737"/>
<circle cx="38.5307" cy="38.5307" r="37.537" transform="matrix(-0.746009 0.665936 0.665936 0.746009 563.336 603.263)" fill="#280505" stroke="#890C02" stroke-width="1.98737"/>
<circle cx="30.9468" cy="30.9468" r="29.9532" transform="matrix(-0.746009 0.665936 0.665936 0.746009 562.727 613.971)" fill="#280505" stroke="#890C02" stroke-width="1.98737"/>
<circle cx="23.3842" cy="23.3842" r="22.3905" transform="matrix(-0.746009 0.665936 0.665936 0.746009 562.125 624.648)" fill="#280505" stroke="#890C02" stroke-width="1.98737"/>
<circle cx="16.1359" cy="16.1359" r="15.1422" transform="matrix(-0.746009 0.665936 0.665936 0.746009 561.539 634.882)" fill="#280505" stroke="#890C02" stroke-width="1.98737"/>
<circle cx="38.5307" cy="38.5307" r="37.537" transform="matrix(-0.746009 0.665936 0.665936 0.746009 551.102 647.418)" fill="#280505" stroke="#890C02" stroke-width="1.98737"/>
<circle cx="30.9468" cy="30.9468" r="29.9532" transform="matrix(-0.746009 0.665936 0.665936 0.746009 550.492 658.126)" fill="#280505" stroke="#890C02" stroke-width="1.98737"/>
<circle cx="23.3842" cy="23.3842" r="22.3905" transform="matrix(-0.746009 0.665936 0.665936 0.746009 549.891 668.803)" fill="#280505" stroke="#890C02" stroke-width="1.98737"/>
<circle cx="16.1359" cy="16.1359" r="15.1422" transform="matrix(-0.746009 0.665936 0.665936 0.746009 549.305 679.037)" fill="#280505" stroke="#890C02" stroke-width="1.98737"/>
<circle cx="38.5307" cy="38.5307" r="37.537" transform="matrix(-0.746009 0.665936 0.665936 0.746009 493.609 698.735)" fill="#280505" stroke="#890C02" stroke-width="1.98737"/>
<circle cx="30.9468" cy="30.9468" r="29.9532" transform="matrix(-0.746009 0.665936 0.665936 0.746009 493 709.443)" fill="#280505" stroke="#890C02" stroke-width="1.98737"/>
<circle cx="23.3842" cy="23.3842" r="22.3905" transform="matrix(-0.746009 0.665936 0.665936 0.746009 492.398 720.12)" fill="#280505" stroke="#890C02" stroke-width="1.98737"/>
<circle cx="16.1359" cy="16.1359" r="15.1422" transform="matrix(-0.746009 0.665936 0.665936 0.746009 491.812 730.355)" fill="#280505" stroke="#890C02" stroke-width="1.98737"/>
<circle cx="38.5307" cy="38.5307" r="37.537" transform="matrix(-0.746009 0.665936 0.665936 0.746009 538.859 691.562)" fill="#280505" stroke="#890C02" stroke-width="1.98737"/>
<circle cx="30.9468" cy="30.9468" r="29.9532" transform="matrix(-0.746009 0.665936 0.665936 0.746009 538.25 702.271)" fill="#280505" stroke="#890C02" stroke-width="1.98737"/>
<circle cx="23.3842" cy="23.3842" r="22.3905" transform="matrix(-0.746009 0.665936 0.665936 0.746009 537.648 712.949)" fill="#280505" stroke="#890C02" stroke-width="1.98737"/>
<circle cx="16.1359" cy="16.1359" r="15.1422" transform="matrix(-0.746009 0.665936 0.665936 0.746009 537.062 723.183)" fill="#280505" stroke="#890C02" stroke-width="1.98737"/>
<circle cx="38.5307" cy="38.5307" r="37.537" transform="matrix(-0.746009 0.665936 0.665936 0.746009 596.344 640.248)" fill="#280505" stroke="#890C02" stroke-width="1.98737"/>
<circle cx="30.9468" cy="30.9468" r="29.9532" transform="matrix(-0.746009 0.665936 0.665936 0.746009 595.734 650.956)" fill="#280505" stroke="#890C02" stroke-width="1.98737"/>
<circle cx="23.3842" cy="23.3842" r="22.3905" transform="matrix(-0.746009 0.665936 0.665936 0.746009 595.133 661.632)" fill="#280505" stroke="#890C02" stroke-width="1.98737"/>
<circle cx="16.1359" cy="16.1359" r="15.1422" transform="matrix(-0.746009 0.665936 0.665936 0.746009 594.547 671.868)" fill="#280505" stroke="#890C02" stroke-width="1.98737"/>
<circle cx="38.5307" cy="38.5307" r="37.537" transform="matrix(-0.746009 0.665936 0.665936 0.746009 481.375 742.879)" fill="#280505" stroke="#890C02" stroke-width="1.98737"/>
<circle cx="38.5307" cy="38.5307" r="37.537" transform="matrix(-0.746009 0.665936 0.665936 0.746009 528.422 737.727)" fill="#280505" stroke="#890C02" stroke-width="1.98737"/>
<circle cx="38.5307" cy="38.5307" r="37.537" transform="matrix(-0.746009 0.665936 0.665936 0.746009 585.906 686.414)" fill="#280505" stroke="#890C02" stroke-width="1.98737"/>
<circle cx="30.9468" cy="30.9468" r="29.9532" transform="matrix(-0.746009 0.665936 0.665936 0.746009 585.297 697.122)" fill="#280505" stroke="#890C02" stroke-width="1.98737"/>
<circle cx="23.3842" cy="23.3842" r="22.3905" transform="matrix(-0.746009 0.665936 0.665936 0.746009 584.695 707.801)" fill="#280505" stroke="#890C02" stroke-width="1.98737"/>
<circle cx="16.1359" cy="16.1359" r="15.1422" transform="matrix(-0.746009 0.665936 0.665936 0.746009 584.109 718.034)" fill="#280505" stroke="#890C02" stroke-width="1.98737"/>
<circle cx="38.5307" cy="38.5307" r="37.537" transform="matrix(-0.746009 0.665936 0.665936 0.746009 573.672 730.568)" fill="#280505" stroke="#890C02" stroke-width="1.98737"/>
<circle cx="30.9468" cy="30.9468" r="29.9532" transform="matrix(-0.746009 0.665936 0.665936 0.746009 573.062 741.275)" fill="#280505" stroke="#890C02" stroke-width="1.98737"/>
<circle cx="38.5307" cy="38.5307" r="37.537" transform="matrix(-0.746009 0.665936 0.665936 0.746009 631.164 679.244)" fill="#280505" stroke="#890C02" stroke-width="1.98737"/>
<circle cx="30.9468" cy="30.9468" r="29.9532" transform="matrix(-0.746009 0.665936 0.665936 0.746009 630.555 689.952)" fill="#280505" stroke="#890C02" stroke-width="1.98737"/>
<circle cx="23.3842" cy="23.3842" r="22.3905" transform="matrix(-0.746009 0.665936 0.665936 0.746009 629.953 700.631)" fill="#280505" stroke="#890C02" stroke-width="1.98737"/>
<circle cx="16.1359" cy="16.1359" r="15.1422" transform="matrix(-0.746009 0.665936 0.665936 0.746009 629.367 710.864)" fill="#280505" stroke="#890C02" stroke-width="1.98737"/>
<circle cx="38.5307" cy="38.5307" r="37.537" transform="matrix(-0.746009 0.665936 0.665936 0.746009 618.922 723.396)" fill="#280505" stroke="#890C02" stroke-width="1.98737"/>
<circle cx="30.9468" cy="30.9468" r="29.9532" transform="matrix(-0.746009 0.665936 0.665936 0.746009 618.312 734.104)" fill="#280505" stroke="#890C02" stroke-width="1.98737"/>
</g>
</g>
<defs>
<linearGradient id="paint0_linear_1104_63654" x1="448.87" y1="-6.7312e-07" x2="457.323" y2="539.733" gradientUnits="userSpaceOnUse">
<stop stop-color="#D9D9D9"/>
<stop offset="1" stop-color="#737373" stop-opacity="0"/>
</linearGradient>
<clipPath id="clip0_1104_63654">
<rect width="699" height="743" fill="white"/>
</clipPath>
</defs>
</svg>
