<svg width="638" height="369" viewBox="0 0 638 369" fill="none" xmlns="http://www.w3.org/2000/svg">
<g clip-path="url(#clip0_1115_7333)">
<mask id="mask0_1115_7333" style="mask-type:alpha" maskUnits="userSpaceOnUse" x="-15" y="-355" width="653" height="489">
<rect x="0.237137" y="-0.237137" width="652.127" height="488.028" transform="matrix(1 8.74228e-08 8.74228e-08 -1 -14.6016 133.028)" fill="url(#paint0_linear_1115_7333)" stroke="#A92027" stroke-width="0.474274"/>
</mask>
<g mask="url(#mask0_1115_7333)">
<circle cx="28.0095" cy="28.0095" r="27.2871" transform="matrix(1 8.74228e-08 8.74228e-08 -1 77.4805 76.9165)" fill="#841C1E" stroke="#A92027" stroke-width="1.4447"/>
<circle cx="22.4965" cy="22.4965" r="21.7741" transform="matrix(1 8.74228e-08 8.74228e-08 -1 82.9941 71.4038)" fill="#841C1E" stroke="#A92027" stroke-width="1.4447"/>
<circle cx="16.9989" cy="16.9989" r="16.2765" transform="matrix(1 8.74228e-08 8.74228e-08 -1 88.4922 65.9062)" fill="#841C1E" stroke="#A92027" stroke-width="1.4447"/>
<circle cx="11.7298" cy="11.7298" r="11.0075" transform="matrix(1 8.74228e-08 8.74228e-08 -1 93.7617 60.6372)" fill="#841C1E" stroke="#A92027" stroke-width="1.4447"/>
<circle cx="28.0095" cy="28.0095" r="27.2871" transform="matrix(1 8.74228e-08 8.74228e-08 -1 21.4609 75.9536)" fill="#841C1E" stroke="#A92027" stroke-width="1.4447"/>
<circle cx="22.4965" cy="22.4965" r="21.7741" transform="matrix(1 8.74228e-08 8.74228e-08 -1 26.9727 70.4409)" fill="#841C1E" stroke="#A92027" stroke-width="1.4447"/>
<circle cx="16.9989" cy="16.9989" r="16.2765" transform="matrix(1 8.74228e-08 8.74228e-08 -1 32.4707 64.9434)" fill="#841C1E" stroke="#A92027" stroke-width="1.4447"/>
<circle cx="11.7298" cy="11.7298" r="11.0075" transform="matrix(1 8.74228e-08 8.74228e-08 -1 37.7402 59.6743)" fill="#841C1E" stroke="#A92027" stroke-width="1.4447"/>
<circle cx="28.0095" cy="28.0095" r="27.2871" transform="matrix(1 8.74228e-08 8.74228e-08 -1 49.4707 57.1587)" fill="#841C1E" stroke="#A92027" stroke-width="1.4447"/>
<circle cx="22.4965" cy="22.4965" r="21.7741" transform="matrix(1 8.74228e-08 8.74228e-08 -1 54.9824 51.6455)" fill="#841C1E" stroke="#A92027" stroke-width="1.4447"/>
<circle cx="16.9989" cy="16.9989" r="16.2765" transform="matrix(1 8.74228e-08 8.74228e-08 -1 60.4805 46.1484)" fill="#841C1E" stroke="#A92027" stroke-width="1.4447"/>
<circle cx="11.7298" cy="11.7298" r="11.0075" transform="matrix(1 8.74228e-08 8.74228e-08 -1 65.75 40.8794)" fill="#841C1E" stroke="#A92027" stroke-width="1.4447"/>
<circle cx="28.0095" cy="28.0095" r="27.2871" transform="matrix(1 8.74228e-08 8.74228e-08 -1 105.49 57.1587)" fill="#841C1E" stroke="#A92027" stroke-width="1.4447"/>
<circle cx="22.4965" cy="22.4965" r="21.7741" transform="matrix(1 8.74228e-08 8.74228e-08 -1 111.004 51.6455)" fill="#841C1E" stroke="#A92027" stroke-width="1.4447"/>
<circle cx="16.9989" cy="16.9989" r="16.2765" transform="matrix(1 8.74228e-08 8.74228e-08 -1 116.502 46.1484)" fill="#841C1E" stroke="#A92027" stroke-width="1.4447"/>
<circle cx="11.7298" cy="11.7298" r="11.0075" transform="matrix(1 8.74228e-08 8.74228e-08 -1 121.77 40.8794)" fill="#841C1E" stroke="#A92027" stroke-width="1.4447"/>
<circle cx="28.0095" cy="28.0095" r="27.2871" transform="matrix(1 8.74228e-08 8.74228e-08 -1 77.4805 37.1758)" fill="#841C1E" stroke="#A92027" stroke-width="1.4447"/>
<circle cx="22.4965" cy="22.4965" r="21.7741" transform="matrix(1 8.74228e-08 8.74228e-08 -1 82.9941 31.6631)" fill="#841C1E" stroke="#A92027" stroke-width="1.4447"/>
<circle cx="16.9989" cy="16.9989" r="16.2765" transform="matrix(1 8.74228e-08 8.74228e-08 -1 88.4902 26.1655)" fill="#841C1E" stroke="#A92027" stroke-width="1.4447"/>
<circle cx="11.7298" cy="11.7298" r="11.0075" transform="matrix(1 8.74228e-08 8.74228e-08 -1 93.7598 20.8965)" fill="#841C1E" stroke="#A92027" stroke-width="1.4447"/>
<circle cx="28.0095" cy="28.0095" r="27.2871" transform="matrix(1 8.74228e-08 8.74228e-08 -1 133.498 37.1758)" fill="#841C1E" stroke="#A92027" stroke-width="1.4447"/>
<circle cx="22.4965" cy="22.4965" r="21.7741" transform="matrix(1 8.74228e-08 8.74228e-08 -1 139.012 31.6631)" fill="#841C1E" stroke="#A92027" stroke-width="1.4447"/>
<circle cx="16.9989" cy="16.9989" r="16.2765" transform="matrix(1 8.74228e-08 8.74228e-08 -1 144.51 26.1655)" fill="#841C1E" stroke="#A92027" stroke-width="1.4447"/>
<circle cx="11.7298" cy="11.7298" r="11.0075" transform="matrix(1 8.74228e-08 8.74228e-08 -1 149.779 20.8965)" fill="#841C1E" stroke="#A92027" stroke-width="1.4447"/>
<circle cx="28.0095" cy="28.0095" r="27.2871" transform="matrix(1 8.74228e-08 8.74228e-08 -1 21.4609 37.1758)" fill="#841C1E" stroke="#A92027" stroke-width="1.4447"/>
<circle cx="22.4965" cy="22.4965" r="21.7741" transform="matrix(1 8.74228e-08 8.74228e-08 -1 26.9746 31.6631)" fill="#841C1E" stroke="#A92027" stroke-width="1.4447"/>
<circle cx="16.9989" cy="16.9989" r="16.2765" transform="matrix(1 8.74228e-08 8.74228e-08 -1 32.4727 26.1655)" fill="#841C1E" stroke="#A92027" stroke-width="1.4447"/>
<circle cx="11.7298" cy="11.7298" r="11.0075" transform="matrix(1 8.74228e-08 8.74228e-08 -1 37.7402 20.8965)" fill="#841C1E" stroke="#A92027" stroke-width="1.4447"/>
<circle cx="28.0095" cy="28.0095" r="27.2871" transform="matrix(1 8.74228e-08 8.74228e-08 -1 49.4707 19.1528)" fill="#841C1E" stroke="#A92027" stroke-width="1.4447"/>
<circle cx="22.4965" cy="22.4965" r="21.7741" transform="matrix(1 8.74228e-08 8.74228e-08 -1 54.9844 13.6401)" fill="#841C1E" stroke="#A92027" stroke-width="1.4447"/>
<circle cx="16.9989" cy="16.9989" r="16.2765" transform="matrix(1 8.74228e-08 8.74228e-08 -1 60.4805 8.14307)" fill="#841C1E" stroke="#A92027" stroke-width="1.4447"/>
<circle cx="11.7298" cy="11.7298" r="11.0075" transform="matrix(1 8.74228e-08 8.74228e-08 -1 65.75 2.87402)" fill="#841C1E" stroke="#A92027" stroke-width="1.4447"/>
<circle cx="28.0095" cy="28.0095" r="27.2871" transform="matrix(1 8.74228e-08 8.74228e-08 -1 105.49 19.1528)" fill="#841C1E" stroke="#A92027" stroke-width="1.4447"/>
<circle cx="22.4965" cy="22.4965" r="21.7741" transform="matrix(1 8.74228e-08 8.74228e-08 -1 111.004 13.6401)" fill="#841C1E" stroke="#A92027" stroke-width="1.4447"/>
<circle cx="16.9989" cy="16.9989" r="16.2765" transform="matrix(1 8.74228e-08 8.74228e-08 -1 116.5 8.14307)" fill="#841C1E" stroke="#A92027" stroke-width="1.4447"/>
<circle cx="11.7298" cy="11.7298" r="11.0075" transform="matrix(1 8.74228e-08 8.74228e-08 -1 121.77 2.87402)" fill="#841C1E" stroke="#A92027" stroke-width="1.4447"/>
<circle cx="28.0095" cy="28.0095" r="27.2871" transform="matrix(1 8.74228e-08 8.74228e-08 -1 77.4805 1.13867)" fill="#841C1E" stroke="#A92027" stroke-width="1.4447"/>
<circle cx="28.0095" cy="28.0095" r="27.2871" transform="matrix(1 8.74228e-08 8.74228e-08 -1 21.4648 1.13916)" fill="#841C1E" stroke="#A92027" stroke-width="1.4447"/>
<circle cx="28.0095" cy="28.0095" r="27.2871" transform="matrix(1 8.74228e-08 8.74228e-08 -1 245.537 76.9165)" fill="#841C1E" stroke="#A92027" stroke-width="1.4447"/>
<circle cx="22.4965" cy="22.4965" r="21.7741" transform="matrix(1 8.74228e-08 8.74228e-08 -1 251.051 71.4038)" fill="#841C1E" stroke="#A92027" stroke-width="1.4447"/>
<circle cx="16.9989" cy="16.9989" r="16.2765" transform="matrix(1 8.74228e-08 8.74228e-08 -1 256.549 65.9062)" fill="#841C1E" stroke="#A92027" stroke-width="1.4447"/>
<circle cx="11.7298" cy="11.7298" r="11.0075" transform="matrix(1 8.74228e-08 8.74228e-08 -1 261.816 60.6372)" fill="#841C1E" stroke="#A92027" stroke-width="1.4447"/>
<circle cx="28.0095" cy="28.0095" r="27.2871" transform="matrix(1 8.74228e-08 8.74228e-08 -1 301.557 76.9165)" fill="#841C1E" stroke="#A92027" stroke-width="1.4447"/>
<circle cx="22.4965" cy="22.4965" r="21.7741" transform="matrix(1 8.74228e-08 8.74228e-08 -1 307.07 71.4038)" fill="#841C1E" stroke="#A92027" stroke-width="1.4447"/>
<circle cx="16.9989" cy="16.9989" r="16.2765" transform="matrix(1 8.74228e-08 8.74228e-08 -1 312.568 65.9062)" fill="#841C1E" stroke="#A92027" stroke-width="1.4447"/>
<circle cx="11.7298" cy="11.7298" r="11.0075" transform="matrix(1 8.74228e-08 8.74228e-08 -1 317.838 60.6372)" fill="#841C1E" stroke="#A92027" stroke-width="1.4447"/>
<circle cx="28.0095" cy="28.0095" r="27.2871" transform="matrix(1 8.74228e-08 8.74228e-08 -1 357.559 76.9165)" fill="#841C1E" stroke="#A92027" stroke-width="1.4447"/>
<circle cx="22.4965" cy="22.4965" r="21.7741" transform="matrix(1 8.74228e-08 8.74228e-08 -1 363.072 71.4038)" fill="#841C1E" stroke="#A92027" stroke-width="1.4447"/>
<circle cx="16.9989" cy="16.9989" r="16.2765" transform="matrix(1 8.74228e-08 8.74228e-08 -1 368.57 65.9062)" fill="#841C1E" stroke="#A92027" stroke-width="1.4447"/>
<circle cx="11.7298" cy="11.7298" r="11.0075" transform="matrix(1 8.74228e-08 8.74228e-08 -1 373.838 60.6372)" fill="#841C1E" stroke="#A92027" stroke-width="1.4447"/>
<circle cx="28.0095" cy="28.0095" r="27.2871" transform="matrix(1 8.74228e-08 8.74228e-08 -1 217.525 57.1587)" fill="#841C1E" stroke="#A92027" stroke-width="1.4447"/>
<circle cx="22.4965" cy="22.4965" r="21.7741" transform="matrix(1 8.74228e-08 8.74228e-08 -1 223.039 51.6455)" fill="#841C1E" stroke="#A92027" stroke-width="1.4447"/>
<circle cx="16.9989" cy="16.9989" r="16.2765" transform="matrix(1 8.74228e-08 8.74228e-08 -1 228.537 46.1484)" fill="#841C1E" stroke="#A92027" stroke-width="1.4447"/>
<circle cx="11.7298" cy="11.7298" r="11.0075" transform="matrix(1 8.74228e-08 8.74228e-08 -1 233.807 40.8794)" fill="#841C1E" stroke="#A92027" stroke-width="1.4447"/>
<circle cx="28.0095" cy="28.0095" r="27.2871" transform="matrix(1 8.74228e-08 8.74228e-08 -1 273.545 57.1587)" fill="#841C1E" stroke="#A92027" stroke-width="1.4447"/>
<circle cx="22.4965" cy="22.4965" r="21.7741" transform="matrix(1 8.74228e-08 8.74228e-08 -1 279.059 51.6455)" fill="#841C1E" stroke="#A92027" stroke-width="1.4447"/>
<circle cx="16.9989" cy="16.9989" r="16.2765" transform="matrix(1 8.74228e-08 8.74228e-08 -1 284.557 46.1484)" fill="#841C1E" stroke="#A92027" stroke-width="1.4447"/>
<circle cx="11.7298" cy="11.7298" r="11.0075" transform="matrix(1 8.74228e-08 8.74228e-08 -1 289.824 40.8794)" fill="#841C1E" stroke="#A92027" stroke-width="1.4447"/>
<circle cx="28.0095" cy="28.0095" r="27.2871" transform="matrix(1 8.74228e-08 8.74228e-08 -1 329.566 57.1587)" fill="#841C1E" stroke="#A92027" stroke-width="1.4447"/>
<circle cx="22.4965" cy="22.4965" r="21.7741" transform="matrix(1 8.74228e-08 8.74228e-08 -1 335.08 51.6455)" fill="#841C1E" stroke="#A92027" stroke-width="1.4447"/>
<circle cx="16.9989" cy="16.9989" r="16.2765" transform="matrix(1 8.74228e-08 8.74228e-08 -1 340.578 46.1484)" fill="#841C1E" stroke="#A92027" stroke-width="1.4447"/>
<circle cx="11.7298" cy="11.7298" r="11.0075" transform="matrix(1 8.74228e-08 8.74228e-08 -1 345.846 40.8794)" fill="#841C1E" stroke="#A92027" stroke-width="1.4447"/>
<circle cx="28.0095" cy="28.0095" r="27.2871" transform="matrix(1 8.74228e-08 8.74228e-08 -1 245.535 37.1758)" fill="#841C1E" stroke="#A92027" stroke-width="1.4447"/>
<circle cx="22.4965" cy="22.4965" r="21.7741" transform="matrix(1 8.74228e-08 8.74228e-08 -1 251.049 31.6631)" fill="#841C1E" stroke="#A92027" stroke-width="1.4447"/>
<circle cx="16.9989" cy="16.9989" r="16.2765" transform="matrix(1 8.74228e-08 8.74228e-08 -1 256.547 26.1655)" fill="#841C1E" stroke="#A92027" stroke-width="1.4447"/>
<circle cx="11.7298" cy="11.7298" r="11.0075" transform="matrix(1 8.74228e-08 8.74228e-08 -1 261.816 20.8965)" fill="#841C1E" stroke="#A92027" stroke-width="1.4447"/>
<circle cx="28.0095" cy="28.0095" r="27.2871" transform="matrix(1 8.74228e-08 8.74228e-08 -1 301.555 37.1758)" fill="#841C1E" stroke="#A92027" stroke-width="1.4447"/>
<circle cx="22.4965" cy="22.4965" r="21.7741" transform="matrix(1 8.74228e-08 8.74228e-08 -1 307.068 31.6631)" fill="#841C1E" stroke="#A92027" stroke-width="1.4447"/>
<circle cx="16.9989" cy="16.9989" r="16.2765" transform="matrix(1 8.74228e-08 8.74228e-08 -1 312.564 26.1655)" fill="#841C1E" stroke="#A92027" stroke-width="1.4447"/>
<circle cx="11.7298" cy="11.7298" r="11.0075" transform="matrix(1 8.74228e-08 8.74228e-08 -1 317.836 20.8965)" fill="#841C1E" stroke="#A92027" stroke-width="1.4447"/>
<circle cx="28.0095" cy="28.0095" r="27.2871" transform="matrix(1 8.74228e-08 8.74228e-08 -1 357.574 37.1758)" fill="#841C1E" stroke="#A92027" stroke-width="1.4447"/>
<circle cx="22.4965" cy="22.4965" r="21.7741" transform="matrix(1 8.74228e-08 8.74228e-08 -1 363.088 31.6636)" fill="#841C1E" stroke="#A92027" stroke-width="1.4447"/>
<circle cx="16.9989" cy="16.9989" r="16.2765" transform="matrix(1 8.74228e-08 8.74228e-08 -1 368.586 26.1655)" fill="#841C1E" stroke="#A92027" stroke-width="1.4447"/>
<circle cx="11.7298" cy="11.7298" r="11.0075" transform="matrix(1 8.74228e-08 8.74228e-08 -1 373.855 20.897)" fill="#841C1E" stroke="#A92027" stroke-width="1.4447"/>
<circle cx="28.0095" cy="28.0095" r="27.2871" transform="matrix(1 8.74228e-08 8.74228e-08 -1 189.518 37.1758)" fill="#841C1E" stroke="#A92027" stroke-width="1.4447"/>
<circle cx="22.4965" cy="22.4965" r="21.7741" transform="matrix(1 8.74228e-08 8.74228e-08 -1 195.031 31.6631)" fill="#841C1E" stroke="#A92027" stroke-width="1.4447"/>
<circle cx="16.9989" cy="16.9989" r="16.2765" transform="matrix(1 8.74228e-08 8.74228e-08 -1 200.527 26.1655)" fill="#841C1E" stroke="#A92027" stroke-width="1.4447"/>
<circle cx="11.7298" cy="11.7298" r="11.0075" transform="matrix(1 8.74228e-08 8.74228e-08 -1 205.797 20.8965)" fill="#841C1E" stroke="#A92027" stroke-width="1.4447"/>
<circle cx="28.0095" cy="28.0095" r="27.2871" transform="matrix(1 8.74228e-08 8.74228e-08 -1 217.527 19.1528)" fill="#841C1E" stroke="#A92027" stroke-width="1.4447"/>
<circle cx="22.4965" cy="22.4965" r="21.7741" transform="matrix(1 8.74228e-08 8.74228e-08 -1 223.041 13.6401)" fill="#841C1E" stroke="#A92027" stroke-width="1.4447"/>
<circle cx="16.9989" cy="16.9989" r="16.2765" transform="matrix(1 8.74228e-08 8.74228e-08 -1 228.537 8.14307)" fill="#841C1E" stroke="#A92027" stroke-width="1.4447"/>
<circle cx="11.7298" cy="11.7298" r="11.0075" transform="matrix(1 8.74228e-08 8.74228e-08 -1 233.807 2.87402)" fill="#841C1E" stroke="#A92027" stroke-width="1.4447"/>
<circle cx="28.0095" cy="28.0095" r="27.2871" transform="matrix(1 8.74228e-08 8.74228e-08 -1 273.547 19.1528)" fill="#841C1E" stroke="#A92027" stroke-width="1.4447"/>
<circle cx="22.4965" cy="22.4965" r="21.7741" transform="matrix(1 8.74228e-08 8.74228e-08 -1 279.059 13.6401)" fill="#841C1E" stroke="#A92027" stroke-width="1.4447"/>
<circle cx="16.9989" cy="16.9989" r="16.2765" transform="matrix(1 8.74228e-08 8.74228e-08 -1 284.557 8.14307)" fill="#841C1E" stroke="#A92027" stroke-width="1.4447"/>
<circle cx="11.7298" cy="11.7298" r="11.0075" transform="matrix(1 8.74228e-08 8.74228e-08 -1 289.826 2.87402)" fill="#841C1E" stroke="#A92027" stroke-width="1.4447"/>
<circle cx="28.0095" cy="28.0095" r="27.2871" transform="matrix(1 8.74228e-08 8.74228e-08 -1 329.549 19.1533)" fill="#841C1E" stroke="#A92027" stroke-width="1.4447"/>
<circle cx="22.4965" cy="22.4965" r="21.7741" transform="matrix(1 8.74228e-08 8.74228e-08 -1 335.062 13.6406)" fill="#841C1E" stroke="#A92027" stroke-width="1.4447"/>
<circle cx="16.9989" cy="16.9989" r="16.2765" transform="matrix(1 8.74228e-08 8.74228e-08 -1 340.559 8.14355)" fill="#841C1E" stroke="#A92027" stroke-width="1.4447"/>
<circle cx="11.7298" cy="11.7298" r="11.0075" transform="matrix(1 8.74228e-08 8.74228e-08 -1 345.83 2.87451)" fill="#841C1E" stroke="#A92027" stroke-width="1.4447"/>
<circle cx="28.0095" cy="28.0095" r="27.2871" transform="matrix(1 8.74228e-08 8.74228e-08 -1 245.537 1.13867)" fill="#841C1E" stroke="#A92027" stroke-width="1.4447"/>
<circle cx="28.0095" cy="28.0095" r="27.2871" transform="matrix(1 8.74228e-08 8.74228e-08 -1 301.557 1.13916)" fill="#841C1E" stroke="#A92027" stroke-width="1.4447"/>
<circle cx="28.0095" cy="28.0095" r="27.2871" transform="matrix(1 8.74228e-08 8.74228e-08 -1 357.574 1.13916)" fill="#841C1E" stroke="#A92027" stroke-width="1.4447"/>
<circle cx="28.0095" cy="28.0095" r="27.2871" transform="matrix(1 8.74228e-08 8.74228e-08 -1 161.508 20.897)" fill="#841C1E" stroke="#A92027" stroke-width="1.4447"/>
<circle cx="22.4965" cy="22.4965" r="21.7741" transform="matrix(1 8.74228e-08 8.74228e-08 -1 167.021 15.3843)" fill="#841C1E" stroke="#A92027" stroke-width="1.4447"/>
<circle cx="16.9989" cy="16.9989" r="16.2765" transform="matrix(1 8.74228e-08 8.74228e-08 -1 172.518 9.88672)" fill="#841C1E" stroke="#A92027" stroke-width="1.4447"/>
<circle cx="11.7298" cy="11.7298" r="11.0075" transform="matrix(1 8.74228e-08 8.74228e-08 -1 177.787 4.61768)" fill="#841C1E" stroke="#A92027" stroke-width="1.4447"/>
<circle cx="28.0095" cy="28.0095" r="27.2871" transform="matrix(1 8.74228e-08 8.74228e-08 -1 133.496 1.13916)" fill="#841C1E" stroke="#A92027" stroke-width="1.4447"/>
<circle cx="28.0095" cy="28.0095" r="27.2871" transform="matrix(1 8.74228e-08 8.74228e-08 -1 189.516 1.13916)" fill="#841C1E" stroke="#A92027" stroke-width="1.4447"/>
<circle cx="28.0095" cy="28.0095" r="27.2871" transform="matrix(1 8.74228e-08 8.74228e-08 -1 497.77 129.205)" fill="#841C1E" stroke="#A92027" stroke-width="1.4447"/>
<circle cx="22.4965" cy="22.4965" r="21.7741" transform="matrix(1 8.74228e-08 8.74228e-08 -1 503.283 123.692)" fill="#841C1E" stroke="#A92027" stroke-width="1.4447"/>
<circle cx="16.9989" cy="16.9989" r="16.2765" transform="matrix(1 8.74228e-08 8.74228e-08 -1 508.781 118.194)" fill="#841C1E" stroke="#A92027" stroke-width="1.4447"/>
<circle cx="11.7298" cy="11.7298" r="11.0075" transform="matrix(1 8.74228e-08 8.74228e-08 -1 514.051 112.925)" fill="#841C1E" stroke="#A92027" stroke-width="1.4447"/>
<circle cx="28.0095" cy="28.0095" r="27.2871" transform="matrix(1 8.74228e-08 8.74228e-08 -1 441.754 129.207)" fill="#841C1E" stroke="#A92027" stroke-width="1.4447"/>
<circle cx="22.4965" cy="22.4965" r="21.7741" transform="matrix(1 8.74228e-08 8.74228e-08 -1 447.268 123.694)" fill="#841C1E" stroke="#A92027" stroke-width="1.4447"/>
<circle cx="16.9989" cy="16.9989" r="16.2765" transform="matrix(1 8.74228e-08 8.74228e-08 -1 452.764 118.197)" fill="#841C1E" stroke="#A92027" stroke-width="1.4447"/>
<circle cx="11.7298" cy="11.7298" r="11.0075" transform="matrix(1 8.74228e-08 8.74228e-08 -1 458.033 112.928)" fill="#841C1E" stroke="#A92027" stroke-width="1.4447"/>
<circle cx="28.0095" cy="28.0095" r="27.2871" transform="matrix(1 8.74228e-08 8.74228e-08 -1 609.809 129.204)" fill="#841C1E" stroke="#A92027" stroke-width="1.4447"/>
<circle cx="22.4965" cy="22.4965" r="21.7741" transform="matrix(1 8.74228e-08 8.74228e-08 -1 615.322 123.691)" fill="#841C1E" stroke="#A92027" stroke-width="1.4447"/>
<circle cx="16.9989" cy="16.9989" r="16.2765" transform="matrix(1 8.74228e-08 8.74228e-08 -1 620.82 118.194)" fill="#841C1E" stroke="#A92027" stroke-width="1.4447"/>
<circle cx="11.7298" cy="11.7298" r="11.0075" transform="matrix(1 8.74228e-08 8.74228e-08 -1 626.09 112.925)" fill="#841C1E" stroke="#A92027" stroke-width="1.4447"/>
<circle cx="28.0095" cy="28.0095" r="27.2871" transform="matrix(1 8.74228e-08 8.74228e-08 -1 553.793 129.207)" fill="#841C1E" stroke="#A92027" stroke-width="1.4447"/>
<circle cx="22.4965" cy="22.4965" r="21.7741" transform="matrix(1 8.74228e-08 8.74228e-08 -1 559.305 123.694)" fill="#841C1E" stroke="#A92027" stroke-width="1.4447"/>
<circle cx="16.9989" cy="16.9989" r="16.2765" transform="matrix(1 8.74228e-08 8.74228e-08 -1 564.803 118.197)" fill="#841C1E" stroke="#A92027" stroke-width="1.4447"/>
<circle cx="11.7298" cy="11.7298" r="11.0075" transform="matrix(1 8.74228e-08 8.74228e-08 -1 570.072 112.928)" fill="#841C1E" stroke="#A92027" stroke-width="1.4447"/>
<circle cx="28.0095" cy="28.0095" r="27.2871" transform="matrix(1 8.74228e-08 8.74228e-08 -1 385.734 129.207)" fill="#841C1E" stroke="#A92027" stroke-width="1.4447"/>
<circle cx="22.4965" cy="22.4965" r="21.7741" transform="matrix(1 8.74228e-08 8.74228e-08 -1 391.248 123.694)" fill="#841C1E" stroke="#A92027" stroke-width="1.4447"/>
<circle cx="16.9989" cy="16.9989" r="16.2765" transform="matrix(1 8.74228e-08 8.74228e-08 -1 396.746 118.197)" fill="#841C1E" stroke="#A92027" stroke-width="1.4447"/>
<circle cx="11.7298" cy="11.7298" r="11.0075" transform="matrix(1 8.74228e-08 8.74228e-08 -1 402.014 112.928)" fill="#841C1E" stroke="#A92027" stroke-width="1.4447"/>
<circle cx="28.0095" cy="28.0095" r="27.2871" transform="matrix(1 8.74228e-08 8.74228e-08 -1 469.758 109.447)" fill="#841C1E" stroke="#A92027" stroke-width="1.4447"/>
<circle cx="22.4965" cy="22.4965" r="21.7741" transform="matrix(1 8.74228e-08 8.74228e-08 -1 475.271 103.934)" fill="#841C1E" stroke="#A92027" stroke-width="1.4447"/>
<circle cx="16.9989" cy="16.9989" r="16.2765" transform="matrix(1 8.74228e-08 8.74228e-08 -1 480.77 98.437)" fill="#841C1E" stroke="#A92027" stroke-width="1.4447"/>
<circle cx="11.7298" cy="11.7298" r="11.0075" transform="matrix(1 8.74228e-08 8.74228e-08 -1 486.039 93.168)" fill="#841C1E" stroke="#A92027" stroke-width="1.4447"/>
<circle cx="28.0095" cy="28.0095" r="27.2871" transform="matrix(1 8.74228e-08 8.74228e-08 -1 413.744 109.446)" fill="#841C1E" stroke="#A92027" stroke-width="1.4447"/>
<circle cx="22.4965" cy="22.4965" r="21.7741" transform="matrix(1 8.74228e-08 8.74228e-08 -1 419.256 103.933)" fill="#841C1E" stroke="#A92027" stroke-width="1.4447"/>
<circle cx="16.9989" cy="16.9989" r="16.2765" transform="matrix(1 8.74228e-08 8.74228e-08 -1 424.754 98.4355)" fill="#841C1E" stroke="#A92027" stroke-width="1.4447"/>
<circle cx="11.7298" cy="11.7298" r="11.0075" transform="matrix(1 8.74228e-08 8.74228e-08 -1 430.023 93.1665)" fill="#841C1E" stroke="#A92027" stroke-width="1.4447"/>
<circle cx="28.0095" cy="28.0095" r="27.2871" transform="matrix(1 8.74228e-08 8.74228e-08 -1 357.725 109.446)" fill="#841C1E" stroke="#A92027" stroke-width="1.4447"/>
<circle cx="22.4965" cy="22.4965" r="21.7741" transform="matrix(1 8.74228e-08 8.74228e-08 -1 363.238 103.933)" fill="#841C1E" stroke="#A92027" stroke-width="1.4447"/>
<circle cx="16.9989" cy="16.9989" r="16.2765" transform="matrix(1 8.74228e-08 8.74228e-08 -1 368.734 98.436)" fill="#841C1E" stroke="#A92027" stroke-width="1.4447"/>
<circle cx="11.7298" cy="11.7298" r="11.0075" transform="matrix(1 8.74228e-08 8.74228e-08 -1 374.004 93.167)" fill="#841C1E" stroke="#A92027" stroke-width="1.4447"/>
<circle cx="28.0095" cy="28.0095" r="27.2871" transform="matrix(1 8.74228e-08 8.74228e-08 -1 525.779 109.447)" fill="#841C1E" stroke="#A92027" stroke-width="1.4447"/>
<circle cx="22.4965" cy="22.4965" r="21.7741" transform="matrix(1 8.74228e-08 8.74228e-08 -1 531.291 103.934)" fill="#841C1E" stroke="#A92027" stroke-width="1.4447"/>
<circle cx="16.9989" cy="16.9989" r="16.2765" transform="matrix(1 8.74228e-08 8.74228e-08 -1 536.789 98.437)" fill="#841C1E" stroke="#A92027" stroke-width="1.4447"/>
<circle cx="11.7298" cy="11.7298" r="11.0075" transform="matrix(1 8.74228e-08 8.74228e-08 -1 542.059 93.168)" fill="#841C1E" stroke="#A92027" stroke-width="1.4447"/>
<circle cx="28.0095" cy="28.0095" r="27.2871" transform="matrix(1 8.74228e-08 8.74228e-08 -1 637.816 109.445)" fill="#841C1E" stroke="#A92027" stroke-width="1.4447"/>
<circle cx="28.0095" cy="28.0095" r="27.2871" transform="matrix(1 8.74228e-08 8.74228e-08 -1 581.801 109.445)" fill="#841C1E" stroke="#A92027" stroke-width="1.4447"/>
<circle cx="22.4965" cy="22.4965" r="21.7741" transform="matrix(1 8.74228e-08 8.74228e-08 -1 587.314 103.932)" fill="#841C1E" stroke="#A92027" stroke-width="1.4447"/>
<circle cx="16.9989" cy="16.9989" r="16.2765" transform="matrix(1 8.74228e-08 8.74228e-08 -1 592.811 98.4346)" fill="#841C1E" stroke="#A92027" stroke-width="1.4447"/>
<circle cx="11.7298" cy="11.7298" r="11.0075" transform="matrix(1 8.74228e-08 8.74228e-08 -1 598.08 93.166)" fill="#841C1E" stroke="#A92027" stroke-width="1.4447"/>
<circle cx="28.0095" cy="28.0095" r="27.2871" transform="matrix(1 8.74228e-08 8.74228e-08 -1 497.768 89.4639)" fill="#841C1E" stroke="#A92027" stroke-width="1.4447"/>
<circle cx="22.4965" cy="22.4965" r="21.7741" transform="matrix(1 8.74228e-08 8.74228e-08 -1 503.281 83.9512)" fill="#841C1E" stroke="#A92027" stroke-width="1.4447"/>
<circle cx="16.9989" cy="16.9989" r="16.2765" transform="matrix(1 8.74228e-08 8.74228e-08 -1 508.779 78.4536)" fill="#841C1E" stroke="#A92027" stroke-width="1.4447"/>
<circle cx="11.7298" cy="11.7298" r="11.0075" transform="matrix(1 8.74228e-08 8.74228e-08 -1 514.049 73.1846)" fill="#841C1E" stroke="#A92027" stroke-width="1.4447"/>
<circle cx="28.0095" cy="28.0095" r="27.2871" transform="matrix(1 8.74228e-08 8.74228e-08 -1 553.787 89.4639)" fill="#841C1E" stroke="#A92027" stroke-width="1.4447"/>
<circle cx="22.4965" cy="22.4965" r="21.7741" transform="matrix(1 8.74228e-08 8.74228e-08 -1 559.301 83.9512)" fill="#841C1E" stroke="#A92027" stroke-width="1.4447"/>
<circle cx="16.9989" cy="16.9989" r="16.2765" transform="matrix(1 8.74228e-08 8.74228e-08 -1 564.797 78.4536)" fill="#841C1E" stroke="#A92027" stroke-width="1.4447"/>
<circle cx="11.7298" cy="11.7298" r="11.0075" transform="matrix(1 8.74228e-08 8.74228e-08 -1 570.068 73.1846)" fill="#841C1E" stroke="#A92027" stroke-width="1.4447"/>
<circle cx="28.0095" cy="28.0095" r="27.2871" transform="matrix(1 8.74228e-08 8.74228e-08 -1 609.809 89.4683)" fill="#841C1E" stroke="#A92027" stroke-width="1.4447"/>
<circle cx="22.4965" cy="22.4965" r="21.7741" transform="matrix(1 8.74228e-08 8.74228e-08 -1 615.322 83.9556)" fill="#841C1E" stroke="#A92027" stroke-width="1.4447"/>
<circle cx="16.9989" cy="16.9989" r="16.2765" transform="matrix(1 8.74228e-08 8.74228e-08 -1 620.818 78.458)" fill="#841C1E" stroke="#A92027" stroke-width="1.4447"/>
<circle cx="11.7298" cy="11.7298" r="11.0075" transform="matrix(1 8.74228e-08 8.74228e-08 -1 626.088 73.189)" fill="#841C1E" stroke="#A92027" stroke-width="1.4447"/>
<circle cx="28.0095" cy="28.0095" r="27.2871" transform="matrix(1 8.74228e-08 8.74228e-08 -1 441.75 89.4639)" fill="#841C1E" stroke="#A92027" stroke-width="1.4447"/>
<circle cx="22.4965" cy="22.4965" r="21.7741" transform="matrix(1 8.74228e-08 8.74228e-08 -1 447.264 83.9512)" fill="#841C1E" stroke="#A92027" stroke-width="1.4447"/>
<circle cx="16.9989" cy="16.9989" r="16.2765" transform="matrix(1 8.74228e-08 8.74228e-08 -1 452.762 78.4536)" fill="#841C1E" stroke="#A92027" stroke-width="1.4447"/>
<circle cx="11.7298" cy="11.7298" r="11.0075" transform="matrix(1 8.74228e-08 8.74228e-08 -1 458.031 73.1846)" fill="#841C1E" stroke="#A92027" stroke-width="1.4447"/>
<circle cx="28.0095" cy="28.0095" r="27.2871" transform="matrix(1 8.74228e-08 8.74228e-08 -1 385.732 89.4658)" fill="#841C1E" stroke="#A92027" stroke-width="1.4447"/>
<circle cx="22.4965" cy="22.4965" r="21.7741" transform="matrix(1 8.74228e-08 8.74228e-08 -1 391.246 83.9531)" fill="#841C1E" stroke="#A92027" stroke-width="1.4447"/>
<circle cx="16.9989" cy="16.9989" r="16.2765" transform="matrix(1 8.74228e-08 8.74228e-08 -1 396.744 78.4556)" fill="#841C1E" stroke="#A92027" stroke-width="1.4447"/>
<circle cx="11.7298" cy="11.7298" r="11.0075" transform="matrix(1 8.74228e-08 8.74228e-08 -1 402.014 73.1865)" fill="#841C1E" stroke="#A92027" stroke-width="1.4447"/>
<circle cx="28.0095" cy="28.0095" r="27.2871" transform="matrix(1 8.74228e-08 8.74228e-08 -1 469.76 71.4409)" fill="#841C1E" stroke="#A92027" stroke-width="1.4447"/>
<circle cx="22.4965" cy="22.4965" r="21.7741" transform="matrix(1 8.74228e-08 8.74228e-08 -1 475.273 65.9282)" fill="#841C1E" stroke="#A92027" stroke-width="1.4447"/>
<circle cx="16.9989" cy="16.9989" r="16.2765" transform="matrix(1 8.74228e-08 8.74228e-08 -1 480.77 60.4312)" fill="#841C1E" stroke="#A92027" stroke-width="1.4447"/>
<circle cx="11.7298" cy="11.7298" r="11.0075" transform="matrix(1 8.74228e-08 8.74228e-08 -1 486.039 55.1621)" fill="#841C1E" stroke="#A92027" stroke-width="1.4447"/>
<circle cx="28.0095" cy="28.0095" r="27.2871" transform="matrix(1 8.74228e-08 8.74228e-08 -1 525.779 71.4409)" fill="#841C1E" stroke="#A92027" stroke-width="1.4447"/>
<circle cx="22.4965" cy="22.4965" r="21.7741" transform="matrix(1 8.74228e-08 8.74228e-08 -1 531.291 65.9282)" fill="#841C1E" stroke="#A92027" stroke-width="1.4447"/>
<circle cx="16.9989" cy="16.9989" r="16.2765" transform="matrix(1 8.74228e-08 8.74228e-08 -1 536.789 60.4312)" fill="#841C1E" stroke="#A92027" stroke-width="1.4447"/>
<circle cx="11.7298" cy="11.7298" r="11.0075" transform="matrix(1 8.74228e-08 8.74228e-08 -1 542.059 55.1621)" fill="#841C1E" stroke="#A92027" stroke-width="1.4447"/>
<circle cx="28.0095" cy="28.0095" r="27.2871" transform="matrix(1 8.74228e-08 8.74228e-08 -1 497.77 53.4268)" fill="#841C1E" stroke="#A92027" stroke-width="1.4447"/>
<circle cx="22.4965" cy="22.4965" r="21.7741" transform="matrix(1 8.74228e-08 8.74228e-08 -1 503.283 47.9141)" fill="#841C1E" stroke="#A92027" stroke-width="1.4447"/>
<circle cx="16.9989" cy="16.9989" r="16.2765" transform="matrix(1 8.74228e-08 8.74228e-08 -1 508.779 42.4165)" fill="#841C1E" stroke="#A92027" stroke-width="1.4447"/>
<circle cx="11.7298" cy="11.7298" r="11.0075" transform="matrix(1 8.74228e-08 8.74228e-08 -1 514.049 37.1475)" fill="#841C1E" stroke="#A92027" stroke-width="1.4447"/>
<circle cx="28.0095" cy="28.0095" r="27.2871" transform="matrix(1 8.74228e-08 8.74228e-08 -1 413.742 76.9165)" fill="#841C1E" stroke="#A92027" stroke-width="1.4447"/>
<circle cx="22.4965" cy="22.4965" r="21.7741" transform="matrix(1 8.74228e-08 8.74228e-08 -1 419.254 71.4038)" fill="#841C1E" stroke="#A92027" stroke-width="1.4447"/>
<circle cx="16.9989" cy="16.9989" r="16.2765" transform="matrix(1 8.74228e-08 8.74228e-08 -1 424.752 65.9062)" fill="#841C1E" stroke="#A92027" stroke-width="1.4447"/>
<circle cx="11.7298" cy="11.7298" r="11.0075" transform="matrix(1 8.74228e-08 8.74228e-08 -1 430.021 60.6372)" fill="#841C1E" stroke="#A92027" stroke-width="1.4447"/>
<circle cx="28.0095" cy="28.0095" r="27.2871" transform="matrix(1 8.74228e-08 8.74228e-08 -1 357.721 75.9536)" fill="#841C1E" stroke="#A92027" stroke-width="1.4447"/>
<circle cx="22.4965" cy="22.4965" r="21.7741" transform="matrix(1 8.74228e-08 8.74228e-08 -1 363.234 70.4409)" fill="#841C1E" stroke="#A92027" stroke-width="1.4447"/>
<circle cx="16.9989" cy="16.9989" r="16.2765" transform="matrix(1 8.74228e-08 8.74228e-08 -1 368.732 64.9434)" fill="#841C1E" stroke="#A92027" stroke-width="1.4447"/>
<circle cx="11.7298" cy="11.7298" r="11.0075" transform="matrix(1 8.74228e-08 8.74228e-08 -1 374 59.6743)" fill="#841C1E" stroke="#A92027" stroke-width="1.4447"/>
<circle cx="28.0095" cy="28.0095" r="27.2871" transform="matrix(1 8.74228e-08 8.74228e-08 -1 385.73 57.1587)" fill="#841C1E" stroke="#A92027" stroke-width="1.4447"/>
<circle cx="22.4965" cy="22.4965" r="21.7741" transform="matrix(1 8.74228e-08 8.74228e-08 -1 391.244 51.6455)" fill="#841C1E" stroke="#A92027" stroke-width="1.4447"/>
<circle cx="16.9989" cy="16.9989" r="16.2765" transform="matrix(1 8.74228e-08 8.74228e-08 -1 396.742 46.1484)" fill="#841C1E" stroke="#A92027" stroke-width="1.4447"/>
<circle cx="11.7298" cy="11.7298" r="11.0075" transform="matrix(1 8.74228e-08 8.74228e-08 -1 402.01 40.8794)" fill="#841C1E" stroke="#A92027" stroke-width="1.4447"/>
<circle cx="28.0095" cy="28.0095" r="27.2871" transform="matrix(1 8.74228e-08 8.74228e-08 -1 441.75 57.1587)" fill="#841C1E" stroke="#A92027" stroke-width="1.4447"/>
<circle cx="22.4965" cy="22.4965" r="21.7741" transform="matrix(1 8.74228e-08 8.74228e-08 -1 447.264 51.6455)" fill="#841C1E" stroke="#A92027" stroke-width="1.4447"/>
<circle cx="16.9989" cy="16.9989" r="16.2765" transform="matrix(1 8.74228e-08 8.74228e-08 -1 452.762 46.1484)" fill="#841C1E" stroke="#A92027" stroke-width="1.4447"/>
<circle cx="11.7298" cy="11.7298" r="11.0075" transform="matrix(1 8.74228e-08 8.74228e-08 -1 458.031 40.8794)" fill="#841C1E" stroke="#A92027" stroke-width="1.4447"/>
<circle cx="28.0095" cy="28.0095" r="27.2871" transform="matrix(1 8.74228e-08 8.74228e-08 -1 413.74 37.1758)" fill="#841C1E" stroke="#A92027" stroke-width="1.4447"/>
<circle cx="22.4965" cy="22.4965" r="21.7741" transform="matrix(1 8.74228e-08 8.74228e-08 -1 419.254 31.6631)" fill="#841C1E" stroke="#A92027" stroke-width="1.4447"/>
<circle cx="16.9989" cy="16.9989" r="16.2765" transform="matrix(1 8.74228e-08 8.74228e-08 -1 424.75 26.1655)" fill="#841C1E" stroke="#A92027" stroke-width="1.4447"/>
<circle cx="11.7298" cy="11.7298" r="11.0075" transform="matrix(1 8.74228e-08 8.74228e-08 -1 430.02 20.8965)" fill="#841C1E" stroke="#A92027" stroke-width="1.4447"/>
<circle cx="28.0095" cy="28.0095" r="27.2871" transform="matrix(1 8.74228e-08 8.74228e-08 -1 469.76 37.1758)" fill="#841C1E" stroke="#A92027" stroke-width="1.4447"/>
<circle cx="22.4965" cy="22.4965" r="21.7741" transform="matrix(1 8.74228e-08 8.74228e-08 -1 475.273 31.6631)" fill="#841C1E" stroke="#A92027" stroke-width="1.4447"/>
<circle cx="16.9989" cy="16.9989" r="16.2765" transform="matrix(1 8.74228e-08 8.74228e-08 -1 480.77 26.1655)" fill="#841C1E" stroke="#A92027" stroke-width="1.4447"/>
<circle cx="11.7298" cy="11.7298" r="11.0075" transform="matrix(1 8.74228e-08 8.74228e-08 -1 486.039 20.8965)" fill="#841C1E" stroke="#A92027" stroke-width="1.4447"/>
<circle cx="28.0095" cy="28.0095" r="27.2871" transform="matrix(1 8.74228e-08 8.74228e-08 -1 357.721 37.1758)" fill="#841C1E" stroke="#A92027" stroke-width="1.4447"/>
<circle cx="22.4965" cy="22.4965" r="21.7741" transform="matrix(1 8.74228e-08 8.74228e-08 -1 363.234 31.6631)" fill="#841C1E" stroke="#A92027" stroke-width="1.4447"/>
<circle cx="16.9989" cy="16.9989" r="16.2765" transform="matrix(1 8.74228e-08 8.74228e-08 -1 368.732 26.1655)" fill="#841C1E" stroke="#A92027" stroke-width="1.4447"/>
<circle cx="11.7298" cy="11.7298" r="11.0075" transform="matrix(1 8.74228e-08 8.74228e-08 -1 374.002 20.8965)" fill="#841C1E" stroke="#A92027" stroke-width="1.4447"/>
<circle cx="28.0095" cy="28.0095" r="27.2871" transform="matrix(1 8.74228e-08 8.74228e-08 -1 385.73 19.1528)" fill="#841C1E" stroke="#A92027" stroke-width="1.4447"/>
<circle cx="22.4965" cy="22.4965" r="21.7741" transform="matrix(1 8.74228e-08 8.74228e-08 -1 391.244 13.6401)" fill="#841C1E" stroke="#A92027" stroke-width="1.4447"/>
<circle cx="16.9989" cy="16.9989" r="16.2765" transform="matrix(1 8.74228e-08 8.74228e-08 -1 396.742 8.14307)" fill="#841C1E" stroke="#A92027" stroke-width="1.4447"/>
<circle cx="11.7298" cy="11.7298" r="11.0075" transform="matrix(1 8.74228e-08 8.74228e-08 -1 402.012 2.87402)" fill="#841C1E" stroke="#A92027" stroke-width="1.4447"/>
<circle cx="28.0095" cy="28.0095" r="27.2871" transform="matrix(1 8.74228e-08 8.74228e-08 -1 441.75 19.1528)" fill="#841C1E" stroke="#A92027" stroke-width="1.4447"/>
<circle cx="22.4965" cy="22.4965" r="21.7741" transform="matrix(1 8.74228e-08 8.74228e-08 -1 447.264 13.6401)" fill="#841C1E" stroke="#A92027" stroke-width="1.4447"/>
<circle cx="16.9989" cy="16.9989" r="16.2765" transform="matrix(1 8.74228e-08 8.74228e-08 -1 452.76 8.14307)" fill="#841C1E" stroke="#A92027" stroke-width="1.4447"/>
<circle cx="11.7298" cy="11.7298" r="11.0075" transform="matrix(1 8.74228e-08 8.74228e-08 -1 458.031 2.87402)" fill="#841C1E" stroke="#A92027" stroke-width="1.4447"/>
<circle cx="28.0095" cy="28.0095" r="27.2871" transform="matrix(1 8.74228e-08 8.74228e-08 -1 413.742 1.13867)" fill="#841C1E" stroke="#A92027" stroke-width="1.4447"/>
<circle cx="28.0095" cy="28.0095" r="27.2871" transform="matrix(1 8.74228e-08 8.74228e-08 -1 357.725 1.13916)" fill="#841C1E" stroke="#A92027" stroke-width="1.4447"/>
<circle cx="28.0095" cy="28.0095" r="27.2871" transform="matrix(1 8.74228e-08 8.74228e-08 -1 581.797 76.9165)" fill="#841C1E" stroke="#A92027" stroke-width="1.4447"/>
<circle cx="22.4965" cy="22.4965" r="21.7741" transform="matrix(1 8.74228e-08 8.74228e-08 -1 587.311 71.4038)" fill="#841C1E" stroke="#A92027" stroke-width="1.4447"/>
<circle cx="16.9989" cy="16.9989" r="16.2765" transform="matrix(1 8.74228e-08 8.74228e-08 -1 592.809 65.9062)" fill="#841C1E" stroke="#A92027" stroke-width="1.4447"/>
<circle cx="11.7298" cy="11.7298" r="11.0075" transform="matrix(1 8.74228e-08 8.74228e-08 -1 598.078 60.6372)" fill="#841C1E" stroke="#A92027" stroke-width="1.4447"/>
<circle cx="28.0095" cy="28.0095" r="27.2871" transform="matrix(1 8.74228e-08 8.74228e-08 -1 637.818 76.9165)" fill="#841C1E" stroke="#A92027" stroke-width="1.4447"/>
<circle cx="28.0095" cy="28.0095" r="27.2871" transform="matrix(1 8.74228e-08 8.74228e-08 -1 553.787 57.1587)" fill="#841C1E" stroke="#A92027" stroke-width="1.4447"/>
<circle cx="22.4965" cy="22.4965" r="21.7741" transform="matrix(1 8.74228e-08 8.74228e-08 -1 559.301 51.6455)" fill="#841C1E" stroke="#A92027" stroke-width="1.4447"/>
<circle cx="16.9989" cy="16.9989" r="16.2765" transform="matrix(1 8.74228e-08 8.74228e-08 -1 564.797 46.1484)" fill="#841C1E" stroke="#A92027" stroke-width="1.4447"/>
<circle cx="11.7298" cy="11.7298" r="11.0075" transform="matrix(1 8.74228e-08 8.74228e-08 -1 570.066 40.8794)" fill="#841C1E" stroke="#A92027" stroke-width="1.4447"/>
<circle cx="28.0095" cy="28.0095" r="27.2871" transform="matrix(1 8.74228e-08 8.74228e-08 -1 609.807 57.1587)" fill="#841C1E" stroke="#A92027" stroke-width="1.4447"/>
<circle cx="22.4965" cy="22.4965" r="21.7741" transform="matrix(1 8.74228e-08 8.74228e-08 -1 615.318 51.6455)" fill="#841C1E" stroke="#A92027" stroke-width="1.4447"/>
<circle cx="16.9989" cy="16.9989" r="16.2765" transform="matrix(1 8.74228e-08 8.74228e-08 -1 620.816 46.1484)" fill="#841C1E" stroke="#A92027" stroke-width="1.4447"/>
<circle cx="11.7298" cy="11.7298" r="11.0075" transform="matrix(1 8.74228e-08 8.74228e-08 -1 626.086 40.8794)" fill="#841C1E" stroke="#A92027" stroke-width="1.4447"/>
<circle cx="28.0095" cy="28.0095" r="27.2871" transform="matrix(1 8.74228e-08 8.74228e-08 -1 581.797 37.1758)" fill="#841C1E" stroke="#A92027" stroke-width="1.4447"/>
<circle cx="22.4965" cy="22.4965" r="21.7741" transform="matrix(1 8.74228e-08 8.74228e-08 -1 587.311 31.6631)" fill="#841C1E" stroke="#A92027" stroke-width="1.4447"/>
<circle cx="16.9989" cy="16.9989" r="16.2765" transform="matrix(1 8.74228e-08 8.74228e-08 -1 592.807 26.1655)" fill="#841C1E" stroke="#A92027" stroke-width="1.4447"/>
<circle cx="11.7298" cy="11.7298" r="11.0075" transform="matrix(1 8.74228e-08 8.74228e-08 -1 598.076 20.8965)" fill="#841C1E" stroke="#A92027" stroke-width="1.4447"/>
<circle cx="28.0095" cy="28.0095" r="27.2871" transform="matrix(1 8.74228e-08 8.74228e-08 -1 637.816 37.1758)" fill="#841C1E" stroke="#A92027" stroke-width="1.4447"/>
<circle cx="28.0095" cy="28.0095" r="27.2871" transform="matrix(1 8.74228e-08 8.74228e-08 -1 525.777 37.1758)" fill="#841C1E" stroke="#A92027" stroke-width="1.4447"/>
<circle cx="22.4965" cy="22.4965" r="21.7741" transform="matrix(1 8.74228e-08 8.74228e-08 -1 531.291 31.6631)" fill="#841C1E" stroke="#A92027" stroke-width="1.4447"/>
<circle cx="16.9989" cy="16.9989" r="16.2765" transform="matrix(1 8.74228e-08 8.74228e-08 -1 536.789 26.1655)" fill="#841C1E" stroke="#A92027" stroke-width="1.4447"/>
<circle cx="11.7298" cy="11.7298" r="11.0075" transform="matrix(1 8.74228e-08 8.74228e-08 -1 542.059 20.8965)" fill="#841C1E" stroke="#A92027" stroke-width="1.4447"/>
<circle cx="28.0095" cy="28.0095" r="27.2871" transform="matrix(1 8.74228e-08 8.74228e-08 -1 553.787 19.1528)" fill="#841C1E" stroke="#A92027" stroke-width="1.4447"/>
<circle cx="22.4965" cy="22.4965" r="21.7741" transform="matrix(1 8.74228e-08 8.74228e-08 -1 559.301 13.6401)" fill="#841C1E" stroke="#A92027" stroke-width="1.4447"/>
<circle cx="16.9989" cy="16.9989" r="16.2765" transform="matrix(1 8.74228e-08 8.74228e-08 -1 564.797 8.14307)" fill="#841C1E" stroke="#A92027" stroke-width="1.4447"/>
<circle cx="11.7298" cy="11.7298" r="11.0075" transform="matrix(1 8.74228e-08 8.74228e-08 -1 570.068 2.87402)" fill="#841C1E" stroke="#A92027" stroke-width="1.4447"/>
<circle cx="28.0095" cy="28.0095" r="27.2871" transform="matrix(1 8.74228e-08 8.74228e-08 -1 609.807 19.1528)" fill="#841C1E" stroke="#A92027" stroke-width="1.4447"/>
<circle cx="22.4965" cy="22.4965" r="21.7741" transform="matrix(1 8.74228e-08 8.74228e-08 -1 615.32 13.6401)" fill="#841C1E" stroke="#A92027" stroke-width="1.4447"/>
<circle cx="16.9989" cy="16.9989" r="16.2765" transform="matrix(1 8.74228e-08 8.74228e-08 -1 620.816 8.14307)" fill="#841C1E" stroke="#A92027" stroke-width="1.4447"/>
<circle cx="11.7298" cy="11.7298" r="11.0075" transform="matrix(1 8.74228e-08 8.74228e-08 -1 626.086 2.87402)" fill="#841C1E" stroke="#A92027" stroke-width="1.4447"/>
<circle cx="28.0095" cy="28.0095" r="27.2871" transform="matrix(1 8.74228e-08 8.74228e-08 -1 581.797 1.13867)" fill="#841C1E" stroke="#A92027" stroke-width="1.4447"/>
<circle cx="28.0095" cy="28.0095" r="27.2871" transform="matrix(1 8.74228e-08 8.74228e-08 -1 637.816 1.13916)" fill="#841C1E" stroke="#A92027" stroke-width="1.4447"/>
<circle cx="28.0095" cy="28.0095" r="27.2871" transform="matrix(1 8.74228e-08 8.74228e-08 -1 497.768 20.897)" fill="#841C1E" stroke="#A92027" stroke-width="1.4447"/>
<circle cx="22.4965" cy="22.4965" r="21.7741" transform="matrix(1 8.74228e-08 8.74228e-08 -1 503.281 15.3843)" fill="#841C1E" stroke="#A92027" stroke-width="1.4447"/>
<circle cx="16.9989" cy="16.9989" r="16.2765" transform="matrix(1 8.74228e-08 8.74228e-08 -1 508.779 9.88672)" fill="#841C1E" stroke="#A92027" stroke-width="1.4447"/>
<circle cx="11.7298" cy="11.7298" r="11.0075" transform="matrix(1 8.74228e-08 8.74228e-08 -1 514.047 4.61768)" fill="#841C1E" stroke="#A92027" stroke-width="1.4447"/>
<circle cx="28.0095" cy="28.0095" r="27.2871" transform="matrix(1 8.74228e-08 8.74228e-08 -1 469.756 1.13916)" fill="#841C1E" stroke="#A92027" stroke-width="1.4447"/>
<circle cx="28.0095" cy="28.0095" r="27.2871" transform="matrix(1 8.74228e-08 8.74228e-08 -1 525.775 1.13916)" fill="#841C1E" stroke="#A92027" stroke-width="1.4447"/>
</g>
</g>
<defs>
<linearGradient id="paint0_linear_1115_7333" x1="326.301" y1="0" x2="149.102" y2="258" gradientUnits="userSpaceOnUse">
<stop stop-color="#D9D9D9"/>
<stop offset="1" stop-color="#737373" stop-opacity="0"/>
</linearGradient>
<clipPath id="clip0_1115_7333">
<rect width="638" height="369" fill="white" transform="translate(638 369) rotate(-180)"/>
</clipPath>
</defs>
</svg>
